<?xml version="1.0" encoding="iso-8859-1"?>
<!-- Generator: Adobe Illustrator 19.0.0, SVG Export Plug-In . SVG Version: 6.00 Build 0)  -->
<svg version="1.1" id="Layer_1" xmlns="http://www.w3.org/2000/svg" xmlns:xlink="http://www.w3.org/1999/xlink" x="0px" y="0px"
	 viewBox="0 0 512 512" style="enable-background:new 0 0 512 512;" xml:space="preserve">
<rect x="147.2" style="fill:#FFD15C;" width="218.667" height="116.267"/>
<path style="fill:#ACB3BA;" d="M256,176C254.933,176,254.933,176,256,176L256,176C254.933,176,254.933,176,256,176z"/>
<path style="fill:#FFD15C;" d="M449.067,512c-4.267-24.533-10.667-49.067-18.133-70.4c-9.6-28.8-22.4-55.467-36.267-82.133
	C356.267,282.667,387.2,160,387.2,160H123.733c0,0,30.933,121.6-7.467,199.467C102.4,386.133,89.6,413.867,80,441.6
	c-7.467,21.333-13.867,45.867-18.133,70.4H449.067z"/>
<g>
	<path style="fill:#CDD6E0;" d="M369.067,178.133c-10.667,3.2-21.333,2.133-32,1.067C318.933,176,256,176,256,176
		s-61.867,0-81.067,3.2c-10.667,2.133-21.333,2.133-32-1.067C53.333,153.6,147.2,0,147.2,0c2.133,77.867,97.067,78.933,108.8,77.867
		c1.067,0,1.067,0,1.067,0c11.733,0,105.6,0,108.8-77.867C364.8,0,458.667,153.6,369.067,178.133z"/>
	<path style="fill:#CDD6E0;" d="M448,512c-2.133-16-6.4-30.933-10.667-45.867h-364.8C68.267,481.067,65.067,496,61.867,512H448z"/>
</g>
<ellipse style="fill:#F8B64C;" cx="256" cy="413.867" rx="6.4" ry="10.667"/>
<g>
	<path style="fill:#FF7058;" d="M501.333,295.467h-60.8l21.333-21.333c4.267-4.267,4.267-10.667,0-14.933s-10.667-4.267-14.933,0
		L406.4,298.667c-2.133,2.133-3.2,4.267-3.2,7.467s1.067,5.333,3.2,7.467l39.467,39.467c2.133,2.133,5.333,3.2,7.467,3.2
		s5.333-1.067,7.467-3.2c4.267-4.267,4.267-10.667,0-14.933L439.467,316.8h61.867c6.4,0,10.667-4.267,10.667-10.667
		C512,299.733,507.733,295.467,501.333,295.467z"/>
	<path style="fill:#FF7058;" d="M10.667,316.8h60.8l-21.333,21.333c-4.267,4.267-4.267,10.667,0,14.933
		c4.267,4.267,10.667,4.267,14.933,0l39.467-39.467c2.133-2.133,3.2-4.267,3.2-7.467s-1.067-5.333-2.133-7.467L66.133,259.2
		C64,257.067,60.8,256,58.667,256s-5.333,1.067-7.467,3.2c-4.267,4.267-4.267,10.667,0,14.933l21.333,21.333H10.667
		c-6.4,0-10.667,4.267-10.667,10.667S4.267,316.8,10.667,316.8z"/>
</g>
<g>
</g>
<g>
</g>
<g>
</g>
<g>
</g>
<g>
</g>
<g>
</g>
<g>
</g>
<g>
</g>
<g>
</g>
<g>
</g>
<g>
</g>
<g>
</g>
<g>
</g>
<g>
</g>
<g>
</g>
</svg>
