<?xml version="1.0" encoding="iso-8859-1"?>
<!-- Generator: Adobe Illustrator 19.0.0, SVG Export Plug-In . SVG Version: 6.00 Build 0)  -->
<svg version="1.1" id="Layer_1" xmlns="http://www.w3.org/2000/svg" xmlns:xlink="http://www.w3.org/1999/xlink" x="0px" y="0px"
	 viewBox="0 0 518.146 518.146" style="enable-background:new 0 0 518.146 518.146;" xml:space="preserve">
<path style="fill:#FFD15C;" d="M403.35,310.633c-6.4-5.333-16-17.067-16-17.067c-21.333-29.867-59.733-48-59.733-48V228.5
	c0-2.133,1.067-3.2,3.2-3.2l0,0c2.133,0,3.2-2.133,3.2-3.2v-16c7.467-23.467,34.133-35.2,34.133-35.2s6.4-3.2,18.133-3.2
	c11.733,0,18.133-6.4,18.133-6.4c5.333-4.267,3.2-10.667,3.2-10.667c-2.133-1.067-2.133-3.2-2.133-3.2
	c3.2-2.133,2.133-5.333,2.133-5.333c-2.133,0-2.133-3.2-2.133-3.2c3.2-3.2,1.067-5.333,1.067-5.333
	c-2.133-5.333-9.6-4.267-9.6-4.267c1.067-7.467-5.333-6.4-5.333-6.4c-3.2,0-7.467,8.533-7.467,8.533c-4.267,2.133-9.6,12.8-9.6,12.8
	c1.067,3.2-1.067,7.467-1.067,7.467s0,0-5.333,2.133c-5.333,2.133-10.667,1.067-10.667,1.067c5.333-21.333,3.2-28.8,3.2-28.8
	c-4.267-19.2-10.667-34.133-10.667-34.133c0-6.4-4.267-10.667-4.267-10.667c1.067-4.267,4.267-7.467,4.267-7.467
	c2.133,1.067,13.867,0,13.867,0c6.4,0,6.4-3.2,6.4-3.2c-4.267-4.267-2.133-8.533-2.133-8.533c2.133-2.133,2.133-5.333,2.133-5.333
	c-1.067-1.067,0-3.2,0-3.2c2.133-2.133,1.067-4.267,1.067-4.267v-2.133c6.4,0,5.333-3.2,5.333-3.2l-8.533-11.733
	C367.084,9.833,347.884,1.3,347.884,1.3c-21.333-5.333-38.4,7.467-38.4,7.467c-10.667,10.667-5.333,22.4-5.333,22.4
	c7.467,17.067,9.6,24.533,9.6,24.533v5.333c-13.867,4.267-17.067,11.733-17.067,11.733c-22.4,0-29.867,11.733-29.867,11.733
	c-32,5.333-42.667,10.667-59.733,16c-17.067,6.4-5.333,18.133-5.333,18.133s16,22.4,23.467,26.667
	c6.4,4.267,40.533,34.133,40.533,34.133v5.333c-1.067,4.267,4.267,13.867,4.267,13.867c0,5.333-7.467,9.6-7.467,9.6
	c-16,16-17.067,33.067-17.067,33.067v18.133c-8.533,6.4-7.467,10.667-7.467,10.667l5.333,9.6c-6.4,11.733-19.2,45.867-19.2,45.867
	s-11.733,19.2-25.6,25.6c-13.867,6.4-25.6,39.467-25.6,39.467c-3.2,11.733-18.133,28.8-18.133,28.8L133.484,442.9
	c-11.733-1.067-16,1.067-16,1.067c-13.867-2.133-5.333,16-5.333,16c9.6,17.067,8.533,25.6,8.533,25.6
	c6.4,21.333,21.333,27.733,21.333,27.733c19.2,8.533,24.533,3.2,24.533,3.2c4.267-6.4-4.267-10.667-4.267-10.667
	c-11.733-8.533-6.4-36.267-6.4-36.267c9.6-7.467,1.067-12.8,1.067-12.8c-4.267-5.333,2.133-9.6,2.133-9.6
	c1.067-3.2,43.733-46.933,43.733-46.933c3.2-5.333,26.667-28.8,26.667-28.8c16-13.867,36.267-41.6,36.267-41.6
	c17.067-18.133,23.467-33.067,23.467-33.067c0-3.2,9.6-2.133,9.6-2.133c3.2,2.133,12.8,1.067,12.8,1.067l46.933,23.467
	c8.533,3.2,3.2,7.467,3.2,7.467c-14.933,14.933-19.2,24.533-19.2,24.533c-11.733,17.067-48,46.933-48,46.933
	c-5.333,1.067-32,16-32,16c-14.933,3.2-2.133,19.2-2.133,19.2s12.8,13.867,16,19.2c3.2,5.333,13.867,17.067,13.867,17.067
	c18.133,16,27.733,16,37.333,13.867c10.667-3.2-2.133-9.6-2.133-9.6c-7.467-7.467-8.533-18.133-12.8-23.467
	c-4.267-7.467,1.067-17.067,1.067-17.067c4.267-3.2,1.067-5.333-1.067-6.4c-11.733-4.267-3.2-11.733-3.2-11.733
	c9.6-9.6,45.867-35.2,45.867-35.2c21.333-12.8,38.4-33.067,38.4-33.067c9.6-5.333,12.8-11.733,12.8-11.733
	C415.084,322.367,403.35,310.633,403.35,310.633z M272.15,135.7c-5.333,6.4-2.133,24.533-2.133,24.533s-26.667-19.2-36.267-38.4
	v-6.4c0,0,24.533,0,38.4-2.133l2.133,13.867C274.284,126.1,277.484,130.367,272.15,135.7z"/>
<path style="fill:#40596B;" d="M326.55,245.567V228.5c0-2.133,1.067-3.2,3.2-3.2l0,0c2.133,0,3.2-2.133,3.2-3.2v-16
	c1.067-4.267-64-7.467-64-7.467c0,5.333-7.467,9.6-7.467,9.6c-16,16-17.067,33.067-17.067,33.067v18.133
	c-8.533,6.4-7.467,10.667-7.467,10.667l5.333,9.6c-4.267,8.533-12.8,28.8-16,39.467h48c10.667-12.8,14.933-22.4,14.933-22.4
	c0-3.2,9.6-2.133,9.6-2.133c3.2,2.133,12.8,1.067,12.8,1.067l46.933,23.467c7.467,2.133,29.867-24.533,29.867-24.533
	C366.017,262.633,326.55,245.567,326.55,245.567z"/>
<g>
	<path style="fill:#FF7058;" d="M158.017,447.167l-21.333-9.6l-4.267,5.333c-11.733-1.067-16,1.067-16,1.067
		c-13.867-2.133-5.333,16-5.333,16c9.6,17.067,8.533,25.6,8.533,25.6c6.4,21.333,21.333,27.733,21.333,27.733
		c19.2,8.533,24.533,3.2,24.533,3.2c4.267-6.4-4.267-10.667-4.267-10.667c-11.733-8.533-6.4-36.267-6.4-36.267
		c9.6-7.467,1.067-12.8,1.067-12.8C151.617,451.433,158.017,447.167,158.017,447.167z"/>
	<path style="fill:#FF7058;" d="M324.417,473.833c-7.467-7.467-8.533-18.133-12.8-23.467c-4.267-7.467,1.067-17.067,1.067-17.067
		c4.267-3.2,1.067-5.333-1.067-6.4c-11.733-4.267-3.2-11.733-3.2-11.733l-16-18.133c-5.333,1.067-32,16-32,16
		c-14.933,3.2-2.133,19.2-2.133,19.2s12.8,13.867,16,19.2c3.2,5.333,13.867,17.067,13.867,17.067c18.133,16,27.733,16,37.333,13.867
		C337.217,480.233,324.417,473.833,324.417,473.833z"/>
</g>
<g>
</g>
<g>
</g>
<g>
</g>
<g>
</g>
<g>
</g>
<g>
</g>
<g>
</g>
<g>
</g>
<g>
</g>
<g>
</g>
<g>
</g>
<g>
</g>
<g>
</g>
<g>
</g>
<g>
</g>
</svg>
