<?xml version="1.0" encoding="iso-8859-1"?>
<!-- Generator: Adobe Illustrator 19.0.0, SVG Export Plug-In . SVG Version: 6.00 Build 0)  -->
<svg version="1.1" id="Layer_1" xmlns="http://www.w3.org/2000/svg" xmlns:xlink="http://www.w3.org/1999/xlink" x="0px" y="0px"
	 viewBox="0 0 514.133 514.133" style="enable-background:new 0 0 514.133 514.133;" xml:space="preserve">
<path style="fill:#F8B64C;" d="M413.867,109.867l-44.8,43.733c9.6,7.467,11.733,8.533,20.267,18.133L433.067,128L413.867,109.867z"
	/>
<path style="fill:#FFD15C;" d="M448,76.8l17.067,17.067c9.6,9.6,9.6,24.533,0,33.067l0,0c-9.6,9.6-24.533,9.6-33.067,0
	l-17.067-17.067c-9.6-9.6-9.6-24.533,0-33.067l0,0C423.467,68.267,438.4,68.267,448,76.8z"/>
<g>
	<circle style="fill:#40596B;" cx="257.067" cy="294.4" r="219.733"/>
	<path style="fill:#40596B;" d="M257.067,487.467C150.4,487.467,64,401.067,64,294.4s86.4-192,193.067-192
		s193.067,86.4,193.067,193.067S363.733,487.467,257.067,487.467z"/>
</g>
<path style="fill:#F2F2F2;" d="M257.067,460.8c-91.733,0-166.4-74.667-166.4-166.4s74.667-165.333,166.4-165.333
	s166.4,74.667,166.4,166.4S348.8,460.8,257.067,460.8z"/>
<path style="fill:#84DBFF;" d="M257.067,129.067v166.4h166.4C423.467,203.733,348.8,129.067,257.067,129.067z"/>
<path style="fill:#F8B64C;" d="M257.067,75.733c11.733,0,24.533,1.067,36.267,3.2v-48h-71.467v46.933
	C232.533,76.8,245.333,75.733,257.067,75.733z"/>
<path style="fill:#FFD15C;" d="M315.733,55.467H198.4c-6.4,0-10.667-4.267-10.667-10.667V10.667C187.733,4.267,192,0,198.4,0
	h116.267c6.4,0,10.667,4.267,10.667,10.667V44.8C326.4,50.133,321.067,55.467,315.733,55.467z"/>
<path style="opacity:0.1;fill:#231F20;enable-background:new    ;" d="M257.067,150.4c89.6,0,162.133,69.333,167.467,157.867
	c0-3.2,1.067-7.467,1.067-10.667c0-92.8-75.733-168.533-168.533-168.533S88.533,204.8,88.533,297.6c0,3.2,0,7.467,1.067,10.667
	C94.933,219.733,167.467,150.4,257.067,150.4z"/>
<g>
	<circle style="fill:#40596B;" cx="257.067" cy="149.333" r="10.667"/>
	<circle style="fill:#40596B;" cx="257.067" cy="440.533" r="10.667"/>
	<circle style="fill:#40596B;" cx="402.133" cy="294.4" r="10.667"/>
	<circle style="fill:#40596B;" cx="112" cy="294.4" r="10.667"/>
</g>
<path style="fill:#FF7058;" d="M323.2,209.067c4.267,3.2,5.333,10.667,2.133,14.933L272,293.333
	c-3.2,4.267-10.667,5.333-14.933,2.133c-4.267-3.2-5.333-10.667-2.133-14.933l53.333-69.333
	C312.533,206.933,318.933,205.867,323.2,209.067z"/>
<path style="opacity:0.1;fill:#231F20;enable-background:new    ;" d="M270.933,259.2l-16,20.267
	c-3.2,4.267-3.2,10.667,2.133,14.933c4.267,3.2,10.667,3.2,14.933-2.133L288,272C283.733,266.667,277.333,262.4,270.933,259.2z"/>
<circle style="fill:#FF7058;" cx="257.067" cy="294.4" r="27.733"/>
<circle style="fill:#FFFFFF;" cx="257.067" cy="294.4" r="11.733"/>
<g>
</g>
<g>
</g>
<g>
</g>
<g>
</g>
<g>
</g>
<g>
</g>
<g>
</g>
<g>
</g>
<g>
</g>
<g>
</g>
<g>
</g>
<g>
</g>
<g>
</g>
<g>
</g>
<g>
</g>
</svg>
