<?xml version="1.0" encoding="iso-8859-1"?>
<!-- Generator: Adobe Illustrator 19.0.0, SVG Export Plug-In . SVG Version: 6.00 Build 0)  -->
<svg version="1.1" id="Layer_1" xmlns="http://www.w3.org/2000/svg" xmlns:xlink="http://www.w3.org/1999/xlink" x="0px" y="0px"
	 viewBox="0 0 512 512" style="enable-background:new 0 0 512 512;" xml:space="preserve">
<path style="fill:#F8B64C;" d="M298.667,87.467h-99.2c-4.267,0-7.467-3.2-7.467-8.533V73.6c0-4.267,3.2-8.533,8.533-8.533h98.133
	c4.267,0,8.533,3.2,8.533,8.533V80C307.2,84.267,302.933,87.467,298.667,87.467z"/>
<path style="fill:#CDD6E0;" d="M330.667,106.667h-12.8c-5.333,0-9.6-4.267-9.6-9.6c0-5.333,4.267-9.6,9.6-9.6h12.8
	c13.867,0,25.6-11.733,25.6-25.6s-11.733-25.6-25.6-25.6h-70.4c-5.333,0-9.6-4.267-9.6-9.6s4.267-9.6,9.6-9.6h70.4
	c24.533,0,44.8,20.267,44.8,44.8S355.2,106.667,330.667,106.667z"/>
<rect x="231.467" y="27.733" style="fill:#FFD15C;" width="35.2" height="37.333"/>
<g>
	<circle style="fill:#40596B;" cx="249.6" cy="25.6" r="25.6"/>
	<path style="fill:#40596B;" d="M328.533,115.2H170.667V87.467c0-6.4,4.267-10.667,10.667-10.667h136.533
		c6.4,0,10.667,4.267,10.667,10.667V115.2z"/>
</g>
<path style="fill:#84DBFF;" d="M362.667,200.533L362.667,200.533c0-4.267-1.067-7.467-3.2-10.667
	c-2.133-4.267-4.267-9.6-4.267-14.933v-39.467c0-11.733-9.6-21.333-21.333-21.333H165.333c-11.733,0-21.333,9.6-21.333,21.333
	v39.467c0,5.333-2.133,9.6-4.267,14.933c-2.133,3.2-3.2,6.4-3.2,10.667l0,0c0,4.267,1.067,7.467,3.2,10.667
	c2.133,4.267,4.267,9.6,4.267,14.933v9.6c0,5.333-2.133,9.6-4.267,14.933c-2.133,3.2-3.2,6.4-3.2,10.667s1.067,7.467,3.2,10.667
	c2.133,4.267,4.267,9.6,4.267,14.933v9.6c0,5.333-2.133,9.6-4.267,14.933c-2.133,3.2-3.2,6.4-3.2,10.667s1.067,7.467,3.2,10.667
	c2.133,4.267,4.267,9.6,4.267,14.933v142.933C144,502.4,153.6,512,165.333,512h168.533c11.733,0,21.333-9.6,21.333-21.333V345.6
	c0-5.333,2.133-9.6,4.267-14.933c2.133-3.2,3.2-6.4,3.2-10.667s-1.067-7.467-3.2-10.667c-2.133-4.267-4.267-9.6-4.267-14.933v-9.6
	c0-5.333,2.133-9.6,4.267-14.933c2.133-3.2,3.2-6.4,3.2-10.667c0-4.267-1.067-7.467-3.2-10.667c-2.133-4.267-4.267-9.6-4.267-14.933
	V224c0-5.333,2.133-9.6,4.267-14.933C361.6,208,362.667,204.8,362.667,200.533z"/>
<g>
	<rect x="182.4" y="81.067" style="fill:#334A5E;" width="5.333" height="29.867"/>
	<rect x="208" y="81.067" style="fill:#334A5E;" width="5.333" height="29.867"/>
	<rect x="233.6" y="81.067" style="fill:#334A5E;" width="5.333" height="29.867"/>
	<rect x="259.2" y="81.067" style="fill:#334A5E;" width="5.333" height="29.867"/>
	<rect x="284.8" y="81.067" style="fill:#334A5E;" width="5.333" height="29.867"/>
	<rect x="310.4" y="81.067" style="fill:#334A5E;" width="5.333" height="29.867"/>
</g>
<path style="fill:#54C0EB;" d="M304,401.067H195.2c-11.733,0-21.333-9.6-21.333-21.333v-134.4c0-11.733,9.6-21.333,21.333-21.333
	H304c11.733,0,21.333,9.6,21.333,21.333v133.333C325.333,391.467,315.733,401.067,304,401.067z"/>
<path style="fill:#FFFFFF;" d="M295.467,334.933c0,25.6-20.267,45.867-45.867,45.867s-46.933-20.267-46.933-45.867
	c0-25.6,45.867-91.733,45.867-91.733S295.467,309.333,295.467,334.933z"/>
<path style="opacity:0.1;fill:#231F20;enable-background:new    ;" d="M260.267,370.133c-25.6,0-45.867-20.267-45.867-45.867
	c0-18.133,23.467-57.6,37.333-77.867c-1.067-2.133-2.133-2.133-2.133-2.133s-46.933,65.067-46.933,90.667
	s20.267,45.867,45.867,45.867c14.933,0,28.8-7.467,37.333-19.2C279.467,366.933,269.867,370.133,260.267,370.133z"/>
<g>
</g>
<g>
</g>
<g>
</g>
<g>
</g>
<g>
</g>
<g>
</g>
<g>
</g>
<g>
</g>
<g>
</g>
<g>
</g>
<g>
</g>
<g>
</g>
<g>
</g>
<g>
</g>
<g>
</g>
</svg>
