<?xml version="1.0" standalone="no"?>
<!DOCTYPE svg PUBLIC "-//W3C//DTD SVG 1.1//EN" "http://www.w3.org/Graphics/SVG/1.1/DTD/svg11.dtd" >
<!--
2013-9-30: Created.
-->
<svg>
<metadata>
Created by iconfont
</metadata>
<defs>

<font id="iconfont" horiz-adv-x="1024" >
  <font-face
    font-family="iconfont"
    font-weight="500"
    font-stretch="normal"
    units-per-em="1024"
    ascent="896"
    descent="-128"
  />
    <missing-glyph />
    
    <glyph glyph-name="weibiaoti-" unicode="&#58919;" d="M213.333333 853.333333h597.333334v-938.666666H213.333333zM768 768H256l-42.666667 85.333333h597.333334zM256 0h512l42.666667-85.333333H213.333333zM256 128h512v-85.333333H256zM512 768m-42.666667 0a42.666667 42.666667 0 1 1 85.333334 0 42.666667 42.666667 0 1 1-85.333334 0Z"  horiz-adv-x="1024" />

    
    <glyph glyph-name="weibiaoti-1" unicode="&#58920;" d="M85.333333 661.333333h853.333334v-597.333333H85.333333zM576 704a42.666667 42.666667 0 0 1-42.666667 42.666667h-42.666666a42.666667 42.666667 0 0 1-42.666667-42.666667h-106.666667v-85.333333h341.333334V704h-106.666667zM128 576h256v-341.333333H128zM256 448m-85.333333 0a85.333333 85.333333 0 1 1 170.666666 0 85.333333 85.333333 0 1 1-170.666666 0ZM375.765333 234.666667H136.234667A8.234667 8.234667 0 0 0 128 242.901333 119.744 119.744 0 0 0 247.765333 362.666667h16.469334A119.744 119.744 0 0 0 384 242.901333a8.234667 8.234667 0 0 0-8.234667-8.234666zM426.666667 533.333333h469.333333v-42.666666H426.666667zM85.333333 106.666667h853.333334v-42.666667H85.333333zM426.666667 448h469.333333v-42.666667H426.666667zM512 362.666667h384v-42.666667H512zM128 192h256v-42.666667H128zM896 277.333333v-128h-42.666667v128zM832 277.333333v-128h-21.333333v128zM789.333333 277.333333v-128h-42.666666v128zM725.333333 277.333333v-128h-21.333333v128zM682.666667 277.333333v-128h-21.333334v128zM640 277.333333v-128h-21.333333v128zM597.333333 277.333333v-128h-21.333333v128zM554.666667 277.333333v-128h-42.666667v128z"  horiz-adv-x="1024" />

    
    <glyph glyph-name="weibiaoti-2" unicode="&#58921;" d="M298.666667 405.333333m-85.333334 0a85.333333 85.333333 0 1 1 170.666667 0 85.333333 85.333333 0 1 1-170.666667 0ZM298.666667 405.333333m-64 0a64 64 0 1 1 128 0 64 64 0 1 1-128 0ZM810.666667 85.333333m-85.333334 0a85.333333 85.333333 0 1 1 170.666667 0 85.333333 85.333333 0 1 1-170.666667 0ZM810.666667 85.333333m-64 0a64 64 0 1 1 128 0 64 64 0 1 1-128 0ZM234.666667 128m-64 0a64 64 0 1 1 128 0 64 64 0 1 1-128 0ZM234.666667 128m-48 0a48 48 0 1 1 96 0 48 48 0 1 1-96 0ZM682.666667 298.666667m-64 0a64 64 0 1 1 128 0 64 64 0 1 1-128 0ZM682.666667 298.666667m-48 0a48 48 0 1 1 96 0 48 48 0 1 1-96 0ZM469.333333-85.333333a64 64 0 0 0-64 64v42.666666h21.333334v-42.666666a42.666667 42.666667 0 1 1 85.333333 0V853.333333h21.333333v-874.666666a64 64 0 0 0-64-64zM512 810.666667C295.936 810.666667 117.845333 649.898667 89.664 441.557333a213.248 213.248 0 0 0 231.402667-17.578666 427.264 427.264 0 0 0 381.888 0 213.248 213.248 0 0 0 231.402666 17.578666C906.154667 649.898667 728.064 810.666667 512 810.666667zM320.448 424.384c0.192-0.149333 0.405333-0.256 0.597333-0.384a427.264 427.264 0 0 0 381.888 0c0.192 0.149333 0.405333 0.256 0.597334 0.384C698.794667 639.338667 614.997333 810.666667 512 810.666667s-186.794667-171.328-191.552-386.282667z"  horiz-adv-x="1024" />

    
    <glyph glyph-name="weibiaoti-3" unicode="&#58922;" d="M746.666667-64H277.333333a85.333333 85.333333 0 0 0-85.333333 85.333333V746.666667a85.333333 85.333333 0 0 0 85.333333 85.333333h469.333334a85.333333 85.333333 0 0 0 85.333333-85.333333v-725.333334a85.333333 85.333333 0 0 0-85.333333-85.333333zM789.333333 576H234.666667V746.666667a42.666667 42.666667 0 0 0 42.666666 42.666666h469.333334a42.666667 42.666667 0 0 0 42.666666-42.666666v-170.666667zM320 426.666667h-64a21.333333 21.333333 0 0 0-21.333333 21.333333v64a21.333333 21.333333 0 0 0 21.333333 21.333333h64a21.333333 21.333333 0 0 0 21.333333-21.333333v-64a21.333333 21.333333 0 0 0-21.333333-21.333333zM469.333333 426.666667h-64a21.333333 21.333333 0 0 0-21.333333 21.333333v64a21.333333 21.333333 0 0 0 21.333333 21.333333h64a21.333333 21.333333 0 0 0 21.333334-21.333333v-64a21.333333 21.333333 0 0 0-21.333334-21.333333zM618.666667 426.666667h-64a21.333333 21.333333 0 0 0-21.333334 21.333333v64a21.333333 21.333333 0 0 0 21.333334 21.333333h64a21.333333 21.333333 0 0 0 21.333333-21.333333v-64a21.333333 21.333333 0 0 0-21.333333-21.333333zM768 426.666667h-64a21.333333 21.333333 0 0 0-21.333333 21.333333v64a21.333333 21.333333 0 0 0 21.333333 21.333333h64a21.333333 21.333333 0 0 0 21.333333-21.333333v-64a21.333333 21.333333 0 0 0-21.333333-21.333333zM320 277.333333h-64a21.333333 21.333333 0 0 0-21.333333 21.333334v64a21.333333 21.333333 0 0 0 21.333333 21.333333h64a21.333333 21.333333 0 0 0 21.333333-21.333333v-64a21.333333 21.333333 0 0 0-21.333333-21.333334zM469.333333 277.333333h-64a21.333333 21.333333 0 0 0-21.333333 21.333334v64a21.333333 21.333333 0 0 0 21.333333 21.333333h64a21.333333 21.333333 0 0 0 21.333334-21.333333v-64a21.333333 21.333333 0 0 0-21.333334-21.333334zM618.666667 277.333333h-64a21.333333 21.333333 0 0 0-21.333334 21.333334v64a21.333333 21.333333 0 0 0 21.333334 21.333333h64a21.333333 21.333333 0 0 0 21.333333-21.333333v-64a21.333333 21.333333 0 0 0-21.333333-21.333334zM768 277.333333h-64a21.333333 21.333333 0 0 0-21.333333 21.333334v64a21.333333 21.333333 0 0 0 21.333333 21.333333h64a21.333333 21.333333 0 0 0 21.333333-21.333333v-64a21.333333 21.333333 0 0 0-21.333333-21.333334zM320 128h-64a21.333333 21.333333 0 0 0-21.333333 21.333333v64a21.333333 21.333333 0 0 0 21.333333 21.333334h64a21.333333 21.333333 0 0 0 21.333333-21.333334v-64a21.333333 21.333333 0 0 0-21.333333-21.333333zM469.333333 128h-64a21.333333 21.333333 0 0 0-21.333333 21.333333v64a21.333333 21.333333 0 0 0 21.333333 21.333334h64a21.333333 21.333333 0 0 0 21.333334-21.333334v-64a21.333333 21.333333 0 0 0-21.333334-21.333333zM618.666667 128h-64a21.333333 21.333333 0 0 0-21.333334 21.333333v64a21.333333 21.333333 0 0 0 21.333334 21.333334h64a21.333333 21.333333 0 0 0 21.333333-21.333334v-64a21.333333 21.333333 0 0 0-21.333333-21.333333zM768-21.333333h-64a21.333333 21.333333 0 0 0-21.333333 21.333333V213.333333a21.333333 21.333333 0 0 0 21.333333 21.333334h64a21.333333 21.333333 0 0 0 21.333333-21.333334v-213.333333a21.333333 21.333333 0 0 0-21.333333-21.333333zM320-21.333333h-64a21.333333 21.333333 0 0 0-21.333333 21.333333v64a21.333333 21.333333 0 0 0 21.333333 21.333333h64a21.333333 21.333333 0 0 0 21.333333-21.333333v-64a21.333333 21.333333 0 0 0-21.333333-21.333333zM469.333333-21.333333h-64a21.333333 21.333333 0 0 0-21.333333 21.333333v64a21.333333 21.333333 0 0 0 21.333333 21.333333h64a21.333333 21.333333 0 0 0 21.333334-21.333333v-64a21.333333 21.333333 0 0 0-21.333334-21.333333zM618.666667-21.333333h-64a21.333333 21.333333 0 0 0-21.333334 21.333333v64a21.333333 21.333333 0 0 0 21.333334 21.333333h64a21.333333 21.333333 0 0 0 21.333333-21.333333v-64a21.333333 21.333333 0 0 0-21.333333-21.333333z"  horiz-adv-x="1024" />

    
    <glyph glyph-name="weibiaoti-4" unicode="&#58923;" d="M128 640h768v-597.333333H128zM128 640h768v-512H128zM213.333333 170.666667h85.333334v-85.333334h-85.333334zM746.666667 256h42.666666v-42.666667h-42.666666zM746.666667 341.333333h42.666666v-42.666666h-42.666666zM746.666667 426.666667h42.666666v-42.666667h-42.666666zM746.666667 512h42.666666v-42.666667h-42.666666zM746.666667 597.333333h42.666666v-42.666666h-42.666666zM234.666667 256h42.666666v-42.666667h-42.666666zM234.666667 341.333333h42.666666v-42.666666h-42.666666zM234.666667 426.666667h42.666666v-42.666667h-42.666666zM234.666667 512h42.666666v-42.666667h-42.666666zM234.666667 597.333333h42.666666v-42.666666h-42.666666zM725.333333 170.666667h85.333334v-85.333334h-85.333334zM362.666667 725.333333h42.666666v-85.333333h-42.666666zM618.666667 725.333333h42.666666v-85.333333h-42.666666zM618.666667 725.333333v-42.666666H405.333333V725.333333z"  horiz-adv-x="1024" />

    
    <glyph glyph-name="weibiaoti-5" unicode="&#58924;" d="M384 597.333333v-168.448c-72.597333 12.458667-128 75.861333-128 151.957334V597.333333h128m42.666667 42.666667H213.333333v-59.157333A196.842667 196.842667 0 0 1 410.176 384H426.666667V640zM768 597.333333v-16.490666c0-76.096-55.402667-139.477333-128-151.957334V597.333333h128m42.666667 42.666667H597.333333v-256h16.490667A196.842667 196.842667 0 0 1 810.666667 580.842667V640zM597.333333 85.33333300000004h-170.666666l42.666666 277.333334h85.333334zM341.333333 85.33333300000004h341.333334v-170.666666H341.333333zM384 42.66666699999996h256v-85.333334H384zM512 213.33333300000004c-117.824 0-213.333333 95.509333-213.333333 213.333334V725.333333h426.666666v-298.666666c0-117.824-95.509333-213.333333-213.333333-213.333334zM512 854.122667l13.653333-27.669334 30.528-4.437333-22.101333-21.525333 5.226667-30.4L512 784.448l-27.306667-14.357333 5.226667 30.4-22.101333 21.525333 30.528 4.437333zM395.626667 810.666667l10.048-20.373334 22.506666-3.264-16.277333-15.872 3.84-22.4-20.117333 10.581334-20.117334-10.581334 3.84 22.4-16.277333 15.872 22.485333 3.264zM630.293333 810.666667l10.048-20.373334 22.506667-3.264-16.277333-15.872 3.84-22.4-20.117334 10.581334-20.117333-10.581334 3.84 22.4-16.277333 15.872 22.485333 3.264z"  horiz-adv-x="1024" />

    
    <glyph glyph-name="weibiaoti-6" unicode="&#58925;" d="M655.637333 0C620.032 31.274667 597.333333 76.885333 597.333333 128h-170.666666c0-51.114667-22.698667-96.725333-58.304-128h287.274666zM810.666667 85.333333H213.333333a85.333333 85.333333 0 0 0-85.333333 85.333334V597.333333a85.333333 85.333333 0 0 0 85.333333 85.333334h597.333334a85.333333 85.333333 0 0 0 85.333333-85.333334v-426.666666a85.333333 85.333333 0 0 0-85.333333-85.333334zM810.666667 256H213.333333a85.333333 85.333333 0 0 0-85.333333 85.333333V597.333333a85.333333 85.333333 0 0 0 85.333333 85.333334h597.333334a85.333333 85.333333 0 0 0 85.333333-85.333334v-256a85.333333 85.333333 0 0 0-85.333333-85.333333zM810.666667 682.666667H213.333333a85.333333 85.333333 0 0 1-85.333333-85.333334v-384h768V597.333333a85.333333 85.333333 0 0 1-85.333333 85.333334z m42.666666-426.666667H170.666667V597.333333a42.666667 42.666667 0 0 0 42.666666 42.666667h597.333334a42.666667 42.666667 0 0 0 42.666666-42.666667v-341.333333zM512 149.333333m-21.333333 0a21.333333 21.333333 0 1 1 42.666666 0 21.333333 21.333333 0 1 1-42.666666 0ZM341.333333 768v-362.666667l85.333334 64h384V768z"  horiz-adv-x="1024" />

    
    <glyph glyph-name="weibiaoti-7" unicode="&#58926;" d="M896 128H128V554.666667l170.666667 170.666666h597.333333zM853.333333-42.66666699999996l-106.666666 85.333334-106.666667-85.333334V256h213.333333zM256 597.333333v25.002667c0 38.634667 15.338667 75.690667 42.666667 102.997333l-170.666667-170.666666a145.621333 145.621333 0 0 0 102.997333 42.666666H256zM789.333333 597.333333H362.666667a21.333333 21.333333 0 0 0 0 42.666667h426.666666a21.333333 21.333333 0 0 0 0-42.666667zM789.333333 469.333333H234.666667a21.333333 21.333333 0 0 0 0 42.666667h554.666666a21.333333 21.333333 0 0 0 0-42.666667zM789.333333 341.33333300000004H234.666667a21.333333 21.333333 0 0 0 0 42.666667h554.666666a21.333333 21.333333 0 0 0 0-42.666667zM789.333333 213.33333300000004H234.666667a21.333333 21.333333 0 0 0 0 42.666667h554.666666a21.333333 21.333333 0 0 0 0-42.666667zM746.666667 320m-192 0a192 192 0 1 1 384 0 192 192 0 1 1-384 0ZM746.666667 320m-149.333334 0a149.333333 149.333333 0 1 1 298.666667 0 149.333333 149.333333 0 1 1-298.666667 0Z"  horiz-adv-x="1024" />

    
    <glyph glyph-name="weibiaoti-8" unicode="&#58927;" d="M810.666667-85.333333H213.333333V682.666667l170.666667 170.666666h426.666667zM341.333333 725.333333V750.336c0 38.634667 15.338667 75.669333 42.666667 102.997333l-170.666667-170.666666a145.621333 145.621333 0 0 0 102.997334 42.666666H341.333333zM512 298.666667h384v-298.666667H512zM832 106.666667H576a42.666667 42.666667 0 1 0 0 85.333333h256a42.666667 42.666667 0 1 0 0-85.333333zM576 149.333333m-21.333333 0a21.333333 21.333333 0 1 1 42.666666 0 21.333333 21.333333 0 1 1-42.666666 0ZM768 149.333333m-21.333333 0a21.333333 21.333333 0 1 1 42.666666 0 21.333333 21.333333 0 1 1-42.666666 0ZM832 149.333333m-21.333333 0a21.333333 21.333333 0 1 1 42.666666 0 21.333333 21.333333 0 1 1-42.666666 0ZM704 149.333333m-21.333333 0a21.333333 21.333333 0 1 1 42.666666 0 21.333333 21.333333 0 1 1-42.666666 0ZM640 149.333333m-21.333333 0a21.333333 21.333333 0 1 1 42.666666 0 21.333333 21.333333 0 1 1-42.666666 0ZM704 469.333333a106.666667 106.666667 0 0 1-106.666667-106.666666v-64h42.666667v64a64 64 0 1 0 128 0v-64h42.666667v64a106.666667 106.666667 0 0 1-106.666667 106.666666z"  horiz-adv-x="1024" />

    
    <glyph glyph-name="weibiaoti-9" unicode="&#58928;" d="M128 789.333333h768v-640H128zM170.666667 746.666667h682.666666v-554.666667H170.666667zM128 789.333333h768v-42.666666H128zM213.333333 576h170.666667v-42.666667h-170.666667zM213.333333 490.666667h170.666667v-42.666667h-170.666667zM213.333333 405.333333h170.666667v-42.666666h-170.666667zM725.333333 576h85.333334v-213.333333h-85.333334zM597.333333 661.333333h85.333334v-298.666666h-85.333334zM469.333333 490.666667h85.333334v-128h-85.333334zM256 149.333333h42.666667l-42.666667-213.333333h-42.666667zM768-64h42.666667l-42.666667 213.333333h-42.666667z"  horiz-adv-x="1024" />

    
    <glyph glyph-name="weibiaoti-10" unicode="&#58929;" d="M512 853.333333C311.701333 853.333333 149.333333 690.965333 149.333333 490.666667c0-163.946667 243.008-466.773333 331.178667-563.52a42.517333 42.517333 0 0 1 62.976 0C631.658667 23.893333 874.666667 326.72 874.666667 490.666667c0 200.298667-162.368 362.666667-362.666667 362.666666z m0-640c-153.173333 0-277.333333 124.16-277.333333 277.333334S358.826667 768 512 768s277.333333-124.16 277.333333-277.333333-124.16-277.333333-277.333333-277.333334zM341.333333 618.666667h341.333334v-256H341.333333zM344 618.666667h336v-218.666667h-336zM405.333333 426.666667h21.333334v-42.666667h-21.333334zM597.333333 469.333333h21.333334v-21.333333h-21.333334zM597.333333 512h21.333334v-21.333333h-21.333334zM597.333333 554.666667h21.333334v-21.333334h-21.333334zM597.333333 597.333333h21.333334v-21.333333h-21.333334zM405.333333 469.333333h21.333334v-21.333333h-21.333334zM405.333333 512h21.333334v-21.333333h-21.333334zM405.333333 554.666667h21.333334v-21.333334h-21.333334zM405.333333 597.333333h21.333334v-21.333333h-21.333334zM597.333333 426.666667h21.333334v-42.666667h-21.333334zM426.666667 661.333333h21.333333v-42.666666h-21.333333zM576 661.333333h21.333333v-42.666666h-21.333333zM576 661.333333v-21.333333h-128v21.333333z"  horiz-adv-x="1024" />

    
    <glyph glyph-name="weibiaoti-11" unicode="&#58930;" d="M879.850667 16.149332999999956a42.666667 42.666667 0 0 0-60.330667 0l-172.181333 172.181334 60.330666 60.330666 172.181334-172.181333a42.666667 42.666667 0 0 0 0-60.330667zM448 469.333333m-362.666667 0a362.666667 362.666667 0 1 1 725.333334 0 362.666667 362.666667 0 1 1-725.333334 0ZM448 469.333333m-298.666667 0a298.666667 298.666667 0 1 1 597.333334 0 298.666667 298.666667 0 1 1-597.333334 0ZM679.68 155.96799999999996l60.373333 60.330667 36.778667-36.778667-60.330667-60.352zM448 554.666667m-128 0a128 128 0 1 1 256 0 128 128 0 1 1-256 0ZM609.6 277.33333300000004h-323.2a9.066667 9.066667 0 0 0-9.066667 9.066667A118.933333 118.933333 0 0 0 396.266667 405.333333h103.466666A118.933333 118.933333 0 0 0 618.666667 286.4c0-5.013333-4.053333-9.066667-9.066667-9.066667z"  horiz-adv-x="1024" />

    
    <glyph glyph-name="weibiaoti-12" unicode="&#58931;" d="M128 384h768v-384H128zM426.666667 768v-426.666667l85.333333 128h469.333333V768zM896 0L512 341.33333300000004 128 0zM128 384l384-341.333333 384 341.333333zM704 725.333333a106.666667 106.666667 0 0 1 0-213.333333h10.666667a10.666667 10.666667 0 0 1 0 21.333333H704a85.333333 85.333333 0 1 0 85.333333 85.333334v-32a10.666667 10.666667 0 0 0-21.333333 0V618.666667a64 64 0 1 1-18.517333-44.992A32 32 0 0 1 810.666667 586.666667V618.666667a106.666667 106.666667 0 0 1-106.666667 106.666666z m0-149.333333a42.666667 42.666667 0 1 0-0.021333 85.312A42.666667 42.666667 0 0 0 704 576z"  horiz-adv-x="1024" />

    
    <glyph glyph-name="weibiaoti-13" unicode="&#58932;" d="M938.666667 345.216v77.568h-44.629334a380.522667 380.522667 0 0 1-32 118.528l38.848 22.421333-38.784 67.178667-38.976-22.506667a385.792 385.792 0 0 1-86.72 86.72l22.506667 38.976-67.178667 38.805334-22.421333-38.848a381.098667 381.098667 0 0 1-118.528 32V810.666667h-77.568v-44.629334a380.522667 380.522667 0 0 1-118.528-32L332.266667 772.906667l-67.178667-38.784 22.506667-38.976a385.792 385.792 0 0 1-86.72-86.72l-38.976 22.506666-38.805334-67.2 38.848-22.421333a381.098667 381.098667 0 0 1-32-118.528H85.333333v-77.568h44.629334a380.522667 380.522667 0 0 1 32-118.528L123.093333 204.26666699999998l38.784-67.178667 38.976 22.506667a385.792 385.792 0 0 1 86.72-86.72l-22.506666-38.976 67.178666-38.784 22.421334 38.848a381.098667 381.098667 0 0 1 118.528-32V-42.66666699999996h77.568v44.629334a380.522667 380.522667 0 0 1 118.528 32l22.421333-38.848 67.178667 38.784-22.506667 38.976a385.792 385.792 0 0 1 86.72 86.72l38.976-22.506667 38.784 67.178667-38.848 22.421333a381.098667 381.098667 0 0 1 32 118.528H938.666667zM512 85.33333300000004c-164.949333 0-298.666667 133.717333-298.666667 298.666667s133.717333 298.666667 298.666667 298.666667 298.666667-133.717333 298.666667-298.666667-133.717333-298.666667-298.666667-298.666667zM512 640c-141.376 0-256-114.624-256-256s114.624-256 256-256 256 114.624 256 256-114.624 256-256 256z m0-469.333333c-117.824 0-213.333333 95.509333-213.333333 213.333333s95.509333 213.333333 213.333333 213.333333 213.333333-95.509333 213.333333-213.333333-95.509333-213.333333-213.333333-213.333333zM512 384m-170.666667 0a170.666667 170.666667 0 1 1 341.333334 0 170.666667 170.666667 0 1 1-341.333334 0ZM512 384m-128 0a128 128 0 1 1 256 0 128 128 0 1 1-256 0ZM512 298.66666699999996a21.333333 21.333333 0 0 0-21.333333 21.333333v128a21.333333 21.333333 0 0 0 42.666666 0v-128a21.333333 21.333333 0 0 0-21.333333-21.333333z"  horiz-adv-x="1024" />

    
    <glyph glyph-name="weibiaoti-14" unicode="&#58933;" d="M832 533.333333c0 181.994667-151.936 328.512-335.872 319.616-163.904-7.914667-297.856-143.530667-303.914667-307.52a318.613333 318.613333 0 0 1 88.938667-233.536C348.885333 241.408 384 145.770667 384 48.042667c0-70.08 54.016-131.2 124.053333-133.312A128 128 0 0 1 640 42.666667c0 101.738667 38.698667 199.424 107.584 274.261333A318.4 318.4 0 0 1 832 533.333333zM382.250667 85.333333c1.130667-12.373333 1.749333-24.810667 1.749333-37.290666 0-70.08 54.016-131.2 124.053333-133.312A128 128 0 0 1 640 42.666667c0 14.336 0.96 28.544 2.474667 42.666666H382.250667zM362.666667 597.333333h298.666666v-42.666666H362.666667zM597.333333 85.333333h-42.666666l21.333333 469.333334h42.666667zM426.666667 85.333333h42.666666l-21.333333 469.333334h-42.666667z"  horiz-adv-x="1024" />

    
    <glyph glyph-name="weibiaoti-15" unicode="&#58934;" d="M698.56 704h21.333333v-362.666667h-21.333333zM869.226667 640l-149.333334-64V704zM362.666667 789.333333h21.333333v-362.666666h-21.333333zM699.050667 490.666667L409.450667-21.333333H981.333333zM382.997333 576L49.408-21.333333h667.2zM331.690667 377.429333L382.997333 469.333333l51.328-91.904 29.781334 53.333334L382.997333 576l-81.109333-145.237333zM660.074667 315.072L699.050667 384l37.994666-68.928 29.781334 52.650667L699.050667 490.666667l-68.757334-121.578667zM213.333333 725.333333l149.333334-64V789.333333z"  horiz-adv-x="1024" />

    
    <glyph glyph-name="weibiaoti-16" unicode="&#58935;" d="M213.333333 810.666667h597.333334v-853.333334H213.333333zM597.333333 0H256V768h512v-597.333333zM640 128v-25.002667A145.6 145.6 0 0 0 597.333333 0l170.666667 170.666667a145.621333 145.621333 0 0 0-102.997333-42.666667H640zM640 810.666667H341.333333v-85.333334a42.666667 42.666667 0 0 1 42.666667-42.666666h256a42.666667 42.666667 0 0 1 42.666667 42.666666V810.666667h-42.666667z m-21.333333-85.333334H405.333333a21.333333 21.333333 0 0 0-21.333333 21.333334V768h256v-21.333333a21.333333 21.333333 0 0 0-21.333333-21.333334zM298.666667 640h85.333333v-85.333333h-85.333333zM426.666667 618.666667h298.666666v-42.666667H426.666667zM298.666667 469.333333h85.333333v-85.333333h-85.333333zM426.666667 448h298.666666v-42.666667H426.666667zM298.666667 298.66666699999996h85.333333v-85.333334h-85.333333zM426.666667 277.33333300000004h298.666666v-42.666666H426.666667z"  horiz-adv-x="1024" />

    
    <glyph glyph-name="weibiaoti-17" unicode="&#58936;" d="M981.333333 341.333333c0 141.376-114.624 256-256 256-3.029333 0-5.952-0.341333-8.938666-0.448C688.64 695.573333 598.208 768 490.666667 768c-129.6 0-234.666667-105.066667-234.666667-234.666667 0-7.210667 0.448-14.336 1.088-21.397333L256 512C138.176 512 42.666667 416.490667 42.666667 298.666667c0-110.613333 84.202667-201.557333 192-212.266667V85.333333h512v1.066667c131.370667 10.88 234.666667 120.746667 234.666666 254.933333zM277.333333 256m-170.666666 0a170.666667 170.666667 0 1 1 341.333333 0 170.666667 170.666667 0 1 1-341.333333 0ZM277.333333 256m-128 0a128 128 0 1 1 256 0 128 128 0 1 1-256 0ZM469.333333 192m-106.666666 0a106.666667 106.666667 0 1 1 213.333333 0 106.666667 106.666667 0 1 1-213.333333 0ZM469.333333 192m-64 0a64 64 0 1 1 128 0 64 64 0 1 1-128 0ZM746.666667 426.666667m-106.666667 0a106.666667 106.666667 0 1 1 213.333333 0 106.666667 106.666667 0 1 1-213.333333 0ZM746.666667 426.666667m-64 0a64 64 0 1 1 128 0 64 64 0 1 1-128 0Z"  horiz-adv-x="1024" />

    
    <glyph glyph-name="weibiaoti-18" unicode="&#58937;" d="M725.333333-85.333333H298.666667l-42.666667 298.666666h512zM213.333333 341.333333h597.333334v-128H213.333333zM533.333333 341.333333h-42.666666V704l42.666666 42.666667zM525.824 466.88a170.069333 170.069333 0 0 1 0.896-62.058667c9.664-3.584 19.754667-6.421333 30.272-8.256a170.666667 170.666667 0 0 1 197.162667 139.221334 170.069333 170.069333 0 0 1-0.896 62.058666 171.968 171.968 0 0 1-30.272 8.256 170.666667 170.666667 0 0 1-197.162667-139.221333zM498.176 445.546667a170.069333 170.069333 0 0 0-0.896-62.058667 171.968 171.968 0 0 0-30.272-8.256 170.666667 170.666667 0 0 0-197.162667 139.221333 170.069333 170.069333 0 0 0 0.896 62.058667 171.968 171.968 0 0 0 30.272 8.256 170.666667 170.666667 0 0 0 197.162667-139.221333zM490.666667 693.333333c0-6.72 0.64-13.290667 1.578666-19.754666 6.464-0.938667 13.034667-1.578667 19.754667-1.578667A138.666667 138.666667 0 0 1 650.666667 810.666667c0 6.72-0.64 13.290667-1.578667 19.754666A137.109333 137.109333 0 0 1 629.333333 832 138.666667 138.666667 0 0 1 490.666667 693.333333zM362.666667 789.333333c-6.72 0-13.290667-0.64-19.754667-1.578666A137.109333 137.109333 0 0 1 341.333333 768a138.666667 138.666667 0 0 1 138.666667-138.666667c6.72 0 13.290667 0.64 19.754667 1.578667 0.938667 6.464 1.578667 13.034667 1.578666 19.754667A138.666667 138.666667 0 0 1 362.666667 789.333333z"  horiz-adv-x="1024" />

    
    <glyph glyph-name="weibiaoti-19" unicode="&#58938;" d="M896 448v-384H426.666667l-85.333334-85.333333V448zM128 746.666667v-384h469.333333l85.333334-85.333334V746.666667zM213.333333 682.666667h384v-42.666667H213.333333zM213.333333 576h384v-42.666667H213.333333zM213.333333 469.333333h384v-42.666666H213.333333z"  horiz-adv-x="1024" />

    


  </font>
</defs>
</svg>
