<?xml version="1.0" standalone="no"?>
<!DOCTYPE svg PUBLIC "-//W3C//DTD SVG 1.1//EN" "http://www.w3.org/Graphics/SVG/1.1/DTD/svg11.dtd" >
<!--
2013-9-30: Created.
-->
<svg>
<metadata>
Created by iconfont
</metadata>
<defs>

<font id="iconfont" horiz-adv-x="1024" >
  <font-face
    font-family="iconfont"
    font-weight="500"
    font-stretch="normal"
    units-per-em="1024"
    ascent="896"
    descent="-128"
  />
    <missing-glyph />
    
    <glyph glyph-name="baocun" unicode="&#58939;" d="M844.8 800H179.2c-30.6 0-55.5-24.8-55.5-55.5v-721.1c0-30.6 24.8-55.5 55.5-55.5h665.6c30.6 0 55.5 24.8 55.5 55.5V744.5c0 30.7-24.9 55.5-55.5 55.5zM317.9 467.2h388.3c30.6 0 55.5 24.8 55.5 55.5V744.5h83.2v-721.1H179.2V744.5h83.2v-221.9c0-30.6 24.8-55.4 55.5-55.4z m0 55.5V744.5h388.3v-221.9H317.9v0.1zM706.1 300.8H317.9c-15.3 0-27.7-12.4-27.7-27.7 0-15.3 12.4-27.7 27.7-27.7h388.3c15.3 0 27.7 12.4 27.7 27.7 0 15.3-12.4 27.7-27.8 27.7z"  horiz-adv-x="1024" />

    
    <glyph glyph-name="bangzhu" unicode="&#58940;" d="M512 832C264.6 832 64 631.4 64 384s200.6-448 448-448 448 200.6 448 448S759.4 832 512 832z m0-840c-216.1 0-392 175.9-392 392s175.9 392 392 392 392-175.9 392-392-175.9-392-392-392zM512 524c-15.5 0-28-12.5-28-28v-364c0-15.5 12.5-28 28-28s28 12.5 28 28V496c0 15.5-12.5 28-28 28zM512 608m-28 0a28 28 0 1 1 56 0 28 28 0 1 1-56 0Z"  horiz-adv-x="1024" />

    
    <glyph glyph-name="baifenbi" unicode="&#58941;" d="M482.1 832v-59.7C251.2 772.3 64 585.1 64 354.1 64 123.2 251.2-64 482.1-64c230.9 0 418.1 187.2 418.1 418.1H960C960 618.1 746.1 832 482.1 832z m59.8-64C724.7 741.7 869.7 596.7 896 413.9H541.9V768z m-59.8-772.3c-197.6 0-358.4 160.8-358.4 358.4s160.8 358.4 358.4 358.4v-358.4h358.4c0-197.6-160.7-358.4-358.4-358.4z"  horiz-adv-x="1024" />

    
    <glyph glyph-name="biandianchang" unicode="&#58942;" d="M921.2 400.6l-320 137.1c-8.4 3.6-16.9 5.2-25.2 5.2V800c0 18.5-15.2 32-32 32-4.7 0-9.6-1.1-14.3-3.4L99.4 593.7c-21.7-10.8-35.4-33-35.4-57.2V0c0-35.3 28.7-64 64-64h768c35.3 0 64 28.7 64 64V341.8c0 25.6-15.3 48.7-38.8 58.8zM352 0v96c0 17.7-14.3 32-32 32s-32-14.3-32-32v-96H128V536.4L512 746v-746H352z m544 0H768v32c0 17.7-14.3 32-32 32s-32-14.3-32-32v-32H576l0.2 478.9L896 341.8V0zM320 480m-32 0a32 32 0 1 1 64 0 32 32 0 1 1-64 0ZM320 352m-32 0a32 32 0 1 1 64 0 32 32 0 1 1-64 0ZM320 224m-32 0a32 32 0 1 1 64 0 32 32 0 1 1-64 0ZM736 288m-32 0a32 32 0 1 1 64 0 32 32 0 1 1-64 0ZM736 160m-32 0a32 32 0 1 1 64 0 32 32 0 1 1-64 0Z"  horiz-adv-x="1024" />

    
    <glyph glyph-name="bianji" unicode="&#58943;" d="M482.3 800H155.4C122.6 800 96 773.4 96 740.6v-713.1c0-32.8 26.6-59.4 59.4-59.4h713.1c32.8 0 59.4 26.6 59.4 59.4V354.3c0 7.6-2.9 15.2-8.7 21-5.8 5.8-13.4 8.7-21 8.7s-15.2-2.9-21-8.7c-5.8-5.8-8.7-13.4-8.7-21v-326.9H155.4V740.6h326.9c7.6 0 15.2 2.9 21 8.7 5.8 5.8 8.7 13.4 8.7 21s-2.9 15.2-8.7 21c-5.8 5.8-13.4 8.7-21 8.7zM838.9 740.6c4.6 0 13.4-1.1 21-8.7 11.6-11.6 11.6-30.4 0-42L515 345l-53.4-11.6 11.5 53.7 344.8 344.8c7.5 7.5 16.4 8.7 21 8.7m0 59.4c-22.8 0-45.6-8.7-63-26.1L431.1 429.1c-8.1-8.1-13.7-18.4-16.1-29.6l-21.5-100.8c-2.6-18.2 11.6-33.9 29.3-33.9 1.4 0 2.8 0.1 4.3 0.3l100.6 21.8c11.2 2.4 21.4 8 29.4 16.1l344.8 344.8c34.8 34.8 34.8 91.3 0 126.1-17.4 17.4-40.2 26.1-63 26.1z"  horiz-adv-x="1024" />

    
    <glyph glyph-name="biaoqian" unicode="&#58944;" d="M302 672.7c-43.4 0-78.7-35.3-78.7-78.7s35.3-78.7 78.7-78.7 78.7 35.3 78.7 78.7-35.3 78.7-78.7 78.7z m0-105c-14.5 0-26.2 11.8-26.2 26.2 0 14.5 11.8 26.2 26.2 26.2 14.5 0 26.2-11.8 26.2-26.2 0-14.4-11.7-26.2-26.2-26.2zM912.6 354.6l-430 430c-9.8 9.8-23.2 15.4-37.1 15.4h-0.2l-296.1-0.9c-28.8-0.1-52.2-23.5-52.3-52.4l-0.9-296c0-14 5.5-27.4 15.4-37.3l430-430c10.3-10.3 23.7-15.4 37.1-15.4s26.9 5.1 37.1 15.4l297 297c20.5 20.5 20.5 53.7 0 74.2zM578.5 20.5l-430 430 0.9 296.1 295.9 0.9h0.2l430-430-297-297z"  horiz-adv-x="1024" />

    
    <glyph glyph-name="bianyaqi" unicode="&#58945;" d="M316 608c-15.5 0-28-12.5-28-28v-392c0-15.5 12.5-28 28-28s28 12.5 28 28V580c0 15.5-12.5 28-28 28zM512 608c-15.5 0-28-12.5-28-28v-392c0-15.5 12.5-28 28-28s28 12.5 28 28V580c0 15.5-12.5 28-28 28zM708 608c-15.5 0-28-12.5-28-28v-392c0-15.5 12.5-28 28-28s28 12.5 28 28V580c0 15.5-12.5 28-28 28zM904 608V720c0 30.9-25.1 56-56 56h-56V804c0 15.5-12.5 28-28 28s-28-12.5-28-28v-28H624V804c0 15.5-12.5 28-28 28s-28-12.5-28-28v-28H456V804c0 15.5-12.5 28-28 28s-28-12.5-28-28v-28H288V804c0 15.5-12.5 28-28 28s-28-12.5-28-28v-28h-56c-30.9 0-56-25.1-56-56v-112c-30.9 0-56-25.1-56-56v-336c0-30.9 25.1-56 56-56v-112c0-30.9 25.1-56 56-56h56c0-30.9 25.1-56 56-56h168c30.9 0 56 25.1 56 56h56c0-30.9 25.1-56 56-56h168c30.9 0 56 25.1 56 56 30.9 0 56 25.1 56 56V160c30.9 0 56 25.1 56 56V552c0 30.9-25.1 56-56 56z m0-392h-56v-168h-56v-56H624v56H456v-56H288v56H176V216h-56V552h56V720h672v-168h56v-336z"  horiz-adv-x="1024" />

    
    <glyph glyph-name="biaodanku" unicode="&#58946;" d="M848 664v-672H288V664h560m0 56H288c-30.9 0-56-25.1-56-56v-672c0-30.9 25.1-56 56-56h560c30.9 0 56 25.1 56 56V664c0 30.9-25.1 56-56 56zM736 776v-56H288l-56-56v-560h-56V776h560m0 56H176c-30.9 0-56-25.1-56-56v-672c0-30.9 25.1-56 56-56h112V664h504V776c0 30.9-25.1 56-56 56zM708.9 468h-280c-15.5 0-28 12.5-28 28s12.5 28 28 28h280c15.5 0 28-12.5 28-28s-12.6-28-28-28zM708.9 300h-280c-15.5 0-28 12.5-28 28s12.5 28 28 28h280c15.5 0 28-12.5 28-28s-12.6-28-28-28zM708.9 132h-280c-15.5 0-28 12.5-28 28s12.5 28 28 28h280c15.5 0 28-12.5 28-28s-12.6-28-28-28z"  horiz-adv-x="1024" />

    
    <glyph glyph-name="biaoqing" unicode="&#58947;" d="M512 832C264.6 832 64 631.4 64 384s200.6-448 448-448 448 200.6 448 448S759.4 832 512 832z m0-840c-216.1 0-392 175.9-392 392s175.9 392 392 392 392-175.9 392-392-175.9-392-392-392zM316 468c15.5 0 28 12.5 28 28v28c0 15.5-12.5 28-28 28s-28-12.5-28-28v-28c0-15.5 12.5-28 28-28zM708 552c-15.5 0-28-12.5-28-28v-28c0-15.5 12.5-28 28-28s28 12.5 28 28v28c0 15.5-12.5 28-28 28zM708 356c-15.5 0-28-12.5-28-28 0-92.6-75.4-168-168-168s-168 75.4-168 168c0 15.5-12.5 28-28 28s-28-12.5-28-28c0-123.5 100.5-224 224-224s224 100.5 224 224c0 15.5-12.5 28-28 28z"  horiz-adv-x="1024" />

    
    <glyph glyph-name="caidan" unicode="&#58948;" d="M896 768H128c-17.7 0-32-14.3-32-32s14.3-32 32-32h768c17.7 0 32 14.3 32 32s-14.3 32-32 32zM896 416H128c-17.7 0-32-14.3-32-32s14.3-32 32-32h768c17.7 0 32 14.3 32 32s-14.3 32-32 32zM896 64H128c-17.7 0-32-14.3-32-32s14.3-32 32-32h768c17.7 0 32 14.3 32 32s-14.3 32-32 32z"  horiz-adv-x="1024" />

    
    <glyph glyph-name="anquan" unicode="&#58949;" d="M539.8 746.9v26.6c0 15.4-12.5 27.8-27.8 27.8-15.4 0-27.8-12.5-27.8-27.8v-26.6C264.7 733.5 87.5 563.4 64 346.7c-0.4-3.8 2.5-6.3 5.5-6.3 1.8 0 3.6 0.9 4.8 2.8 23.4 39.4 76.1 66.9 137.3 66.9 64.4 0 119.3-30.4 140.7-73.1 2-3.9 5.7-5.9 9.5-5.9s7.6 2 9.5 5.9c18.1 36.3 61.1 62.4 112.9 69.8V50c0-46.1 37.4-83.5 83.5-83.5s83.5 37.4 83.5 83.5c0 15.4-12.5 27.8-27.8 27.8-15.4 0-27.8-12.5-27.8-27.8s-12.5-27.8-27.8-27.8S540 34.7 540 50V407c51.8-7.4 94.7-33.6 112.9-69.8 2-3.9 5.7-5.9 9.5-5.9s7.6 2 9.5 5.9c21.4 42.7 76.3 73.1 140.7 73.1 61.3 0 114-27.5 137.3-66.9 1.2-2 3-2.8 4.8-2.8 3 0 5.9 2.4 5.5 6.3-23.7 216.5-200.9 386.6-420.4 400z m272.6-281c-58.3 0-112.2-19.6-150.2-52.6-38 33-91.9 52.6-150.2 52.6s-112.2-19.6-150.2-52.6c-38 33-91.9 52.6-150.2 52.6-21 0-41.3-2.5-60.6-7.2 61.8 139.1 201 233.9 361 233.9s299.2-94.8 361-233.9c-19.3 4.7-39.6 7.2-60.6 7.2z"  horiz-adv-x="1024" />

    
    <glyph glyph-name="changyongshili" unicode="&#58950;" d="M868.6 384v-356.6H630.9V384h237.7m0 59.4H630.9c-32.8 0-59.4-26.6-59.4-59.4v-356.6c0-32.8 26.6-59.4 59.4-59.4h237.7c32.8 0 59.4 26.6 59.4 59.4V384c0 32.8-26.6 59.4-59.4 59.4zM868.6 740.6v-178.3H630.9V740.6h237.7m0 59.4H630.9c-32.8 0-59.4-26.6-59.4-59.4v-178.3c0-32.8 26.6-59.4 59.4-59.4h237.7c32.8 0 59.4 26.6 59.4 59.4V740.6c0 32.8-26.6 59.4-59.4 59.4zM452.6 740.6v-416H155.4v416h297.2m0 59.4H155.4C122.6 800 96 773.4 96 740.6v-416c0-32.8 26.6-59.4 59.4-59.4h297.1c32.8 0 59.4 26.6 59.4 59.4v416c0.1 32.8-26.5 59.4-59.3 59.4zM452.6 146.3v-118.9H155.4V146.3h297.2m0 59.4H155.4c-32.8 0-59.4-26.6-59.4-59.4v-118.9c0-32.8 26.6-59.4 59.4-59.4h297.1c32.8 0 59.4 26.6 59.4 59.4V146.3c0.1 32.8-26.5 59.4-59.3 59.4z"  horiz-adv-x="1024" />

    
    <glyph glyph-name="chouyang" unicode="&#58951;" d="M274.3 800C175.8 800 96 720.2 96 621.7s79.8-178.3 178.3-178.3 178.3 79.8 178.3 178.3S372.8 800 274.3 800z m0-297.1c-65.5 0-118.9 53.3-118.9 118.9 0 65.5 53.3 118.9 118.9 118.9 65.5 0 118.9-53.3 118.9-118.9-0.1-65.6-53.4-118.9-118.9-118.9zM274.3 324.6C175.8 324.6 96 244.8 96 146.3S175.8-32 274.3-32s178.3 79.8 178.3 178.3-79.8 178.3-178.3 178.3z m0-297.2c-65.5 0-118.9 53.3-118.9 118.9 0 65.5 53.3 118.9 118.9 118.9 65.5 0 118.9-53.3 118.9-118.9-0.1-65.6-53.4-118.9-118.9-118.9zM749.7 324.6c-98.5 0-178.3-79.8-178.3-178.3S651.2-32 749.7-32 928 47.8 928 146.3s-79.8 178.3-178.3 178.3z m0-297.2c-65.5 0-118.9 53.3-118.9 118.9 0 65.5 53.3 118.9 118.9 118.9 65.5 0 118.9-53.3 118.9-118.9 0-65.6-53.3-118.9-118.9-118.9zM609.8 481.8c5.8-5.8 13.4-8.7 21-8.7s15.2 2.9 21 8.7l97.8 97.8 97.8-97.8c5.8-5.8 13.4-8.7 21-8.7s15.2 2.9 21 8.7c11.6 11.6 11.6 30.4 0 42l-97.8 97.8 97.8 97.8c11.6 11.6 11.6 30.4 0 42-11.6 11.6-30.4 11.6-42 0l-97.8-97.8-97.8 97.8c-11.6 11.6-30.4 11.6-42 0-11.6-11.6-11.6-30.4 0-42l97.8-97.8-97.8-97.8c-11.6-11.5-11.6-30.3 0-42z"  horiz-adv-x="1024" />

    
    <glyph glyph-name="dadianxiang" unicode="&#58952;" d="M848 776v-784H176V776h672m0 56H176c-30.9 0-56-25.1-56-56v-784c0-30.9 25.1-56 56-56h672c30.9 0 56 25.1 56 56V776c0 30.9-25.1 56-56 56zM176 720h672v-56H176zM176 104h672v-56H176zM456 720v-616h-56V720zM316 552h-56c-15.5 0-28 12.5-28 28s12.5 28 28 28h56c15.5 0 28-12.5 28-28s-12.5-28-28-28zM316 384h-56c-15.5 0-28 12.5-28 28s12.5 28 28 28h56c15.5 0 28-12.5 28-28s-12.5-28-28-28zM316 216h-56c-15.5 0-28 12.5-28 28s12.5 28 28 28h56c15.5 0 28-12.5 28-28s-12.5-28-28-28zM708 496H596c-15.5 0-28 12.5-28 28s12.5 28 28 28h112c15.5 0 28-12.5 28-28s-12.5-28-28-28zM708 272H596c-15.5 0-28 12.5-28 28s12.5 28 28 28h112c15.5 0 28-12.5 28-28s-12.5-28-28-28z"  horiz-adv-x="1024" />

    
    <glyph glyph-name="dadian" unicode="&#58953;" d="M840.5 503.5C840.5 684.6 693.1 832 512 832S183.5 684.6 183.5 503.5c0-171 131.5-311.9 298.7-327v-210.6c0-16.5 13.4-29.9 29.9-29.9s29.9 13.4 29.9 29.9V176.4c167 15.2 298.5 156 298.5 327.1zM512 234.7c-148.2 0-268.8 120.6-268.8 268.8S363.8 772.3 512 772.3s268.8-120.6 268.8-268.8S660.2 234.7 512 234.7z"  horiz-adv-x="1024" />

    
    <glyph glyph-name="daochu" unicode="&#58954;" d="M889.6 791.3c-7.6 0-15.2-2.9-21-8.7L401.8 315.9c-11.6-11.6-11.6-30.4 0-42 5.8-5.8 13.4-8.7 21-8.7s15.2 2.9 21 8.7l466.7 466.7c11.6 11.6 11.6 30.4 0 42-5.7 5.8-13.3 8.7-20.9 8.7zM868.6 27.4H155.4V740.6h267.4c7.6 0 15.2 2.9 21 8.7 5.8 5.8 8.7 13.4 8.7 21s-2.9 15.2-8.7 21c-5.8 5.8-13.4 8.7-21 8.7H155.4C122.6 800 96 773.4 96 740.6v-713.1c0-32.8 26.6-59.4 59.4-59.4h713.1c32.8 0 59.4 26.6 59.4 59.4V294.9c0 7.6-2.9 15.2-8.7 21-5.8 5.8-13.4 8.7-21 8.7s-15.2-2.9-21-8.7c-5.8-5.8-8.7-13.4-8.7-21v-267.5zM868.6 800h-208c-7.6 0-15.2-2.9-21-8.7-5.8-5.8-8.7-13.4-8.7-21s2.9-15.2 8.7-21c5.8-5.8 13.4-8.7 21-8.7h208v-208c0-7.6 2.9-15.2 8.7-21 5.8-5.8 13.4-8.7 21-8.7s15.2 2.9 21 8.7c5.8 5.8 8.7 13.4 8.7 21v208c0 32.8-26.6 59.4-59.4 59.4z"  horiz-adv-x="1024" />

    
    <glyph glyph-name="daibanshixiang" unicode="&#58955;" d="M512 832C264.6 832 64 631.4 64 384s200.6-448 448-448 448 200.6 448 448S759.4 832 512 832z m0-840c-216.1 0-392 175.9-392 392s175.9 392 392 392 392-175.9 392-392-175.9-392-392-392zM706.2 412h-168V636c0 15.5-12.5 28-28 28s-28-12.5-28-28v-252c0-15.5 12.5-28 28-28h196c15.5 0 28 12.5 28 28s-12.5 28-28 28z"  horiz-adv-x="1024" />

    
    <glyph glyph-name="diqiu" unicode="&#58956;" d="M512 832C264.6 832 64 631.4 64 384s200.6-448 448-448 448 200.6 448 448S759.4 832 512 832z m0-224c-29.5 0-58.3 2.6-86.2 7.5C452 720.7 491.4 776 512 776c20.6 0 60-55.3 86.2-160.5-27.9-4.8-56.7-7.5-86.2-7.5z m140.7 20.4c-13.6 55.7-31.8 102.6-53.1 137.4 63.6-14.6 121.3-44.7 169-86.1-35.3-21.8-74.3-39.1-115.9-51.3z m-281.4 0c-41.6 12.2-80.5 29.6-115.8 51.3 47.7 41.4 105.3 71.4 168.9 86-21.3-34.7-39.4-81.6-53.1-137.3zM679.5 412c-1.3 57.5-6.7 111.9-15.4 161.4 52.5 15 101.3 37.3 144.8 65.8 53.4-62 87.5-140.7 93.7-227.2H679.5z m-558.1 0c6.2 86.4 40.2 165.1 93.5 227.1 43.5-28.5 92.4-50.6 145-65.6-8.7-49.6-14.1-104-15.4-161.5H121.4z m279.1 0c1.3 55.7 6.4 105.4 13.9 148.7 31.6-5.6 64.1-8.7 97.6-8.7 33.4 0 66 3 97.6 8.6 7.5-43.3 12.5-93 13.9-148.6h-223z m408.4-283.2c-43.5 28.5-92.3 50.8-144.8 65.8 8.7 49.6 14.1 104 15.4 161.4h223.1c-6.2-86.5-40.3-165.2-93.7-227.2z m-394.5 78.5c-7.5 43.3-12.5 93-13.9 148.7h222.9c-1.3-55.6-6.3-105.3-13.9-148.6C578 213 545.4 216 512 216c-33.4 0-66-3.1-97.6-8.7zM215 128.9c-53.3 62-87.4 140.7-93.5 227.1h223.1c1.3-57.5 6.7-111.9 15.4-161.5-52.6-15-101.5-37.1-145-65.6zM512-8c-20.6 0-60 55.3-86.2 160.5 27.9 4.8 56.7 7.5 86.2 7.5s58.3-2.7 86.2-7.5C572 47.3 532.6-8 512-8z m87.6 10.2c21.3 34.8 39.5 81.7 53.1 137.4 41.7-12.2 80.6-29.5 115.9-51.2-47.7-41.5-105.4-71.6-169-86.2z m-175.2 0c-63.6 14.6-121.2 44.6-168.9 86 35.2 21.8 74.1 39.1 115.8 51.3 13.7-55.6 31.8-102.5 53.1-137.3z"  horiz-adv-x="1024" />

    
    <glyph glyph-name="ditukanban" unicode="&#58957;" d="M876.1 777.8c-5.9 0-11.9-1-17.8-3.2l-197.6-71.8c-5.7-2.1-11.8-3.1-17.8-3.1-6.6 0-13.1 1.2-19.3 3.7l-223.1 89.3c-6.2 2.5-12.7 3.7-19.3 3.7-6 0-12-1-17.8-3.1l-233.1-84.8c-20.6-7.5-34.2-27-34.2-48.9v-617.3c0-29.8 24.4-52 51.9-52 5.9 0 11.9 1 17.8 3.2l197.6 71.8c5.7 2.1 11.8 3.1 17.8 3.1 6.6 0 13.1-1.2 19.3-3.7l223.1-89.3c6.2-2.5 12.8-3.7 19.3-3.7 6 0 12 1 17.8 3.1l233.1 84.8c20.6 7.5 34.2 27 34.2 48.9V725.8c0 29.7-24.4 52-51.9 52zM148 42.2V659.6l208 75.6v-618c-3.5-0.9-7-1.9-10.4-3.2L148 42.2z m260 74.6V733.6l196.3-78.5c3.9-1.5 7.8-2.8 11.7-3.9v-616.8l-196.3 78.5c-3.8 1.6-7.7 2.9-11.7 3.9z m468-8.4l-208-75.6v618c3.5 0.9 7 1.9 10.4 3.2L876 725.8v-617.4z"  horiz-adv-x="1024" />

    
    <glyph glyph-name="dianhua" unicode="&#58958;" d="M259.9 740.5s0-0.1 0 0l56.3-213c-6.6-3.2-13.6-5.7-20.7-7.6l-66.5-17 26.4-63.4c29.7-71.4 71.7-134.4 124.7-187.4s116-94.9 187.2-124.6l63.4-26.4 17 66.6c1.8 7.1 4.4 14.1 8.2 21.3l212.4-57.3c-1.8-27.2-13.2-52.5-32.4-71.7-20.8-20.8-48.9-32.3-79.2-32.3-3.3 0-6.6 0.1-9.9 0.4l-40.9 3.4c-138.3 18.9-266.8 82.3-365.5 181-99 99-162.5 228.1-181.2 366.9l-3.3 39.6c-2.8 33.6 8.8 66.1 31.8 89.2 19.4 19.2 44.9 30.6 72.2 32.3m2.9 59.6h-1.7c-41.9-1.4-83.3-17.9-115.3-49.9-37.3-37.3-53.1-87.4-49-136.2-0.2-0.1-0.5-0.1-0.8-0.1 11.8-161.6 78.9-319.9 202.5-443.4S580.3-20.2 741.9-32c0.1 0.3 0.1 0.6 0.2 0.9 4.9-0.4 9.9-0.6 14.9-0.6 43.9 0 87.7 16.2 121.2 49.7 32 32 48.5 73.3 49.9 115.2 0.9 26.5-18.6 49.5-44.2 56.3l-212.4 56.9c-5.1 1.4-10.3 2-15.4 2-22.6 0-43.9-13-54.1-34.1-5-10.3-8.8-20.9-11.6-31.8-61 25.4-118.4 62.1-168.1 111.8-49.7 49.7-86.4 107.2-111.8 168.2 10.9 2.8 21.6 6.7 31.8 11.7 25.9 12.6 39.6 41.7 32.1 69.5L317.5 756c-6.8 24.8-29 44.1-54.7 44.1z"  horiz-adv-x="1024" />

    
    <glyph glyph-name="dianzan" unicode="&#58959;" d="M592.9 800c-45 0-84.2-30.7-92.5-74.2 0 0-13.4-68.1-20.4-92.6-11.5-40.4-51.8-85-80.9-99.3-22-10.9-103.7-11-108.8-11H179.2c-30.6 0-55.5-24.8-55.5-55.5v-444c0-30.6 24.8-55.5 55.5-55.5h512.3c82.4 0 152.4 60.3 164.6 141.8L899 395.5c10.1 67.1-41.9 127.4-109.8 127.4H662.9s18.7 62.1 28.3 167c4.8 53.1-32.9 103.8-88.1 109.5-3.4 0.4-6.8 0.6-10.2 0.6zM345.6 23.5V469.1c36.4 2.4 62.6 7.5 78.1 15.2 40.9 20.2 93.1 75.8 109.6 133.8 7.4 25.9 20 89.9 21.5 97.4 3.2 16.8 19.2 29.1 38 29.1 1.5 0 3-0.1 4.5-0.2 26.4-2.7 40.5-27.7 38.6-49.3-8.8-97.1-26-155.6-26.2-156l-21.6-71.5H789.2c16.4 0 31.4-6.9 42.1-19.3 10.7-12.4 15.3-28.2 12.8-44.5L801.3 118c-8.2-54.8-54.4-94.5-109.8-94.5H345.6z m-166.4 0v444h110.9v-444H179.2z"  horiz-adv-x="1024" />

    
    <glyph glyph-name="dianlan" unicode="&#58960;" d="M904 440h-56c-30.9 0-56-25.1-56-56 0-154.4-125.6-280-280-280S232 229.6 232 384s125.6 280 280 280c22.9 0 42.5 13.9 51.2 33.6h220.4c4.6 0 8.4 3.8 8.4 8.4 0 4.6-3.8 8.4-8.4 8.4H566.9c0.2 1.9 1.1 3.6 1.1 5.6v19.6h215.6c4.6 0 8.4 3.8 8.4 8.4 0 4.6-3.8 8.4-8.4 8.4H568V776c0 2-0.9 3.7-1.1 5.6h216.7c4.6 0 8.4 3.8 8.4 8.4 0 4.6-3.8 8.4-8.4 8.4H563.2C554.5 818.1 534.9 832 512 832 264.6 832 64 631.4 64 384s200.6-448 448-448 448 200.6 448 448c0 30.9-25.1 56-56 56zM512-8c-216.1 0-392 175.9-392 392s175.9 392 392 392v-56c-185.6 0-336-150.4-336-336s150.4-336 336-336 336 150.4 336 336h56c0-216.1-175.9-392-392-392z"  horiz-adv-x="1024" />

    
    <glyph glyph-name="dianta" unicode="&#58961;" d="M876 440H697.5L664 608h100c15.5 0 28 12.5 28 28s-12.5 28-28 28H652.8l-24.6 123C623 813.1 600 832 573.3 832H450.7c-26.7 0-49.7-18.9-54.9-45l-24.5-123H260c-15.5 0-28-12.5-28-28s12.5-28 28-28h100l-33.5-168H148c-15.5 0-28-12.5-28-28s12.5-28 28-28h167.3l-82.8-414.9c-0.2-0.9 0.1-1.8 0-2.7-0.2-2-0.2-3.9 0.1-6 0.2-1.7 0.6-3.3 1.1-5 0.6-1.7 1.2-3.3 2.1-4.9 0.9-1.7 2-3.2 3.3-4.6 0.6-0.7 0.9-1.6 1.6-2.3 0.6-0.6 1.4-0.8 2-1.3 1.4-1.1 2.9-2 4.5-2.9 1.7-0.9 3.4-1.6 5.2-2.1 0.8-0.2 1.5-0.8 2.4-1 0.8-0.2 1.6 0.1 2.5 0.1 0.9-0.1 1.7-0.5 2.6-0.5 1 0 2 0.5 3 0.6 1.8 0.2 3.5 0.5 5.2 1 1.8 0.6 3.5 1.3 5.1 2.2 1.6 0.9 3.1 1.9 4.5 3.1 0.8 0.7 1.8 1 2.5 1.8L512 188.9l231.7-244.1c0.4-0.4 0.9-0.5 1.3-0.9 1.8-1.7 3.9-3.1 6.1-4.2 0.9-0.5 1.7-1.2 2.7-1.5 3.2-1.3 6.6-2.1 10.2-2.1 1.7 0 3.4 0.2 5.1 0.5 0.8 0.1 1.4 0.7 2.2 0.9 2 0.5 3.8 1.3 5.6 2.3 1.5 0.8 2.9 1.6 4.2 2.7 0.7 0.5 1.5 0.7 2.1 1.3 0.7 0.7 1 1.7 1.7 2.4 1.2 1.4 2.3 2.9 3.2 4.5 0.9 1.6 1.6 3.2 2.1 4.9 0.5 1.7 0.9 3.3 1.1 5 0.2 1.9 0.2 3.8 0.1 5.7-0.1 1 0.2 1.9 0 2.8L708.7 384H876c15.5 0 28 12.5 28 28s-12.5 28-28 28zM451.3 776h121.5l22.4-112H428.8l22.5 112z m-33.7-168h188.8l33.7-168H383.9l33.7 168zM620 384L512 270.2 404 384h216zM306.5 53.7L364.7 344l108.7-114.5-166.9-175.8z m352.8 290.4l58.2-290.4-166.9 175.9 108.7 114.5z"  horiz-adv-x="1024" />

    
    <glyph glyph-name="dianyabiao" unicode="&#58962;" d="M484 720h56v-56h-56zM729.802 641.393l39.597-39.597-39.597-39.598-39.598 39.598zM848 412v-56h-56v56zM333.828 601.789l-39.597-39.598-39.598 39.598 39.598 39.597zM232 412v-56h-56v56zM512 300c-5.4 0-10.8 1.5-15.5 4.7-12.9 8.6-16.4 26-7.8 38.8l112 168c8.6 12.9 26.1 16.2 38.8 7.8 12.9-8.6 16.4-26 7.8-38.8l-112-168C529.9 304.4 521 300 512 300zM512 776c216.1 0 392-175.9 392-392S728.1-8 512-8 120 167.9 120 384s175.9 392 392 392m0 56C264.6 832 64 631.4 64 384s200.6-448 448-448 448 200.6 448 448S759.4 832 512 832z"  horiz-adv-x="1024" />

    
    <glyph glyph-name="duibi" unicode="&#58963;" d="M959.3 397.7l0.4 0.4-0.4 0.4C951.5 639.2 754.5 832 512 832 264.6 832 64 631.4 64 384s200.6-448 448-448 448 200.6 448 448c0 4.6-0.6 9.1-0.7 13.7zM540 572.4l157 157c25.2-13.6 48.7-30 70.2-48.6L540 453.6V572.4z m0 79.2v123c35.5-2.5 69.6-9.8 101.8-21.2L540 651.6z m0-475.2l340.4 340.4c11.1-30.8 18.8-63.2 21.8-97L540 57.6V176.4z m316 395.2l-316-316V374.4l267 267c18.7-21.4 35.3-44.7 49-69.8zM120 384c0 206.7 160.9 376.1 364 390.6v-781.2C280.9 7.9 120 177.3 120 384z m436.3-389.3l345.1 345.1c-20.5-180.9-164.3-324.7-345.1-345.1z"  horiz-adv-x="1024" />

    
    <glyph glyph-name="duomeiti" unicode="&#58964;" d="M904 720v-672H120V720h784m0 56H120c-30.9 0-56-25.1-56-56v-672c0-30.9 25.1-56 56-56h784c30.9 0 56 25.1 56 56V720c0 30.9-25.1 56-56 56zM422.4 520.3L649.6 384 422.4 247.7V520.3m0.1 56.1c-29.2 0-56.1-23.3-56.1-56.1v-272.6c0-32.8 26.9-56.1 56.1-56.1 9.6 0 19.5 2.5 28.7 8.1L678.4 336c36.3 21.8 36.3 74.3 0 96L451.2 568.3c-9.2 5.6-19.1 8.1-28.7 8.1z"  horiz-adv-x="1024" />

    
    <glyph glyph-name="dingwei" unicode="&#58965;" d="M512 290.3c-92.6 0-168 75.4-168 168s75.4 168 168 168 168-75.4 168-168-75.4-168-168-168z m0 280c-61.7 0-112-50.3-112-112s50.3-112 112-112 112 50.3 112 112-50.3 112-112 112zM512 776c82.9 0 161.8-31.2 222.1-87.7 61.6-57.7 96.2-137.7 97.6-225.4 1.5-94.9-36.2-188-103.6-255.3l-25.8-25.8-191.4-189.4-131.8 131.9-83.3 83.3C228.5 274.9 190.7 368 192.2 462.9c1.4 87.6 36.1 167.6 97.6 225.4C350.2 744.8 429.1 776 512 776m0 56c-93.6 0-187.3-34.3-260.4-102.9C92.2 579.7 101.8 322.4 256.2 168l83.3-83.3 131.8-131.8c11.2-11.2 25.9-16.8 40.6-16.8s29.4 5.6 40.6 16.8L742 142.1l25.8 25.8c154.4 154.4 164 411.8 4.7 561.2C699.3 797.7 605.6 832 512 832z"  horiz-adv-x="1024" />

    
    <glyph glyph-name="erweima" unicode="&#58966;" d="M333.7 800H155.4C122.6 800 96 773.4 96 740.6v-178.3c0-32.8 26.6-59.4 59.4-59.4h178.3c32.8 0 59.4 26.6 59.4 59.4V740.6c0 32.8-26.6 59.4-59.4 59.4zM155.4 562.3V740.6h178.3v-178.3H155.4zM868.6 800H690.3c-32.8 0-59.4-26.6-59.4-59.4v-178.3c0-32.8 26.6-59.4 59.4-59.4h178.3c32.8 0 59.4 26.6 59.4 59.4V740.6c0 32.8-26.6 59.4-59.4 59.4zM690.3 562.3V740.6h178.3v-178.3H690.3zM868.6 265.1H690.3c-32.8 0-59.4-26.6-59.4-59.4v-178.3c0-32.8 26.6-59.4 59.4-59.4h178.3c32.8 0 59.4 26.6 59.4 59.4V205.7c0 32.8-26.6 59.4-59.4 59.4zM690.3 27.4V205.7h178.3v-178.3H690.3zM333.7 265.1H155.4c-32.8 0-59.4-26.6-59.4-59.4v-178.3c0-32.8 26.6-59.4 59.4-59.4h178.3c32.8 0 59.4 26.6 59.4 59.4V205.7c0 32.8-26.6 59.4-59.4 59.4zM155.4 27.4V205.7h178.3v-178.3H155.4zM898.3 413.7H125.7c-16.4 0-29.7-13.3-29.7-29.7s13.3-29.7 29.7-29.7h772.6c16.4 0 29.7 13.3 29.7 29.7s-13.3 29.7-29.7 29.7zM512 800c-16.4 0-29.7-13.3-29.7-29.7v-237.7c0-16.4 13.3-29.7 29.7-29.7s29.7 13.3 29.7 29.7V770.3c0 16.4-13.3 29.7-29.7 29.7zM462.5 265.1c-16.4 0-29.7-13.3-29.7-29.7v-237.7c0-16.4 13.3-29.7 29.7-29.7s29.7 13.3 29.7 29.7V235.4c0 16.4-13.3 29.7-29.7 29.7zM561.5 265.1c-16.4 0-29.7-13.3-29.7-29.7v-237.7c0-16.4 13.3-29.7 29.7-29.7s29.7 13.3 29.7 29.7V235.4c0 16.4-13.3 29.7-29.7 29.7z"  horiz-adv-x="1024" />

    
    <glyph glyph-name="fenxiang" unicode="&#58967;" d="M736 832c-92.8 0-168-75.2-168-168 0-22.7 4.6-44.3 12.8-64L413.1 495.2C382.3 529.8 337.9 552 288 552c-92.8 0-168-75.2-168-168s75.2-168 168-168c49.9 0 94.3 22.2 125.1 56.8L580.8 168c-8.2-19.7-12.8-41.3-12.8-64 0-92.8 75.2-168 168-168s168 75.2 168 168-75.2 168-168 168c-49.9 0-94.3-22.2-125.1-56.8L443.2 320c8.2 19.7 12.8 41.3 12.8 64s-4.6 44.3-12.8 64l167.7 104.8C641.7 518.2 686.1 496 736 496c92.8 0 168 75.2 168 168S828.8 832 736 832z m0-280c-61.8 0-112 50.2-112 112s50.2 112 112 112 112-50.2 112-112-50.2-112-112-112zM288 272c-61.8 0-112 50.2-112 112s50.2 112 112 112 112-50.2 112-112-50.2-112-112-112z m448-280c-61.8 0-112 50.2-112 112s50.2 112 112 112 112-50.2 112-112-50.2-112-112-112z"  horiz-adv-x="1024" />

    
    <glyph glyph-name="dianxiangan" unicode="&#58968;" d="M850 800c-14.4 0-26-11.6-26-26v-26H200v26c0 14.4-11.6 26-26 26s-26-11.6-26-26v-104c0-14.4 11.6-26 26-26s26 11.6 26 26v26h286v-208H200v26c0 14.4-11.6 26-26 26s-26-11.6-26-26v-104c0-14.4 11.6-26 26-26s26 11.6 26 26v26h286v-442c0-14.4 11.6-26 26-26s26 11.6 26 26V436h286v-26c0-14.4 11.6-26 26-26s26 11.6 26 26V514c0 14.4-11.6 26-26 26s-26-11.6-26-26v-26H538V696h286v-26c0-14.4 11.6-26 26-26s26 11.6 26 26V774c0 14.4-11.6 26-26 26z"  horiz-adv-x="1024" />

    
    <glyph glyph-name="gerenzhongxin" unicode="&#58969;" d="M512 776c216.1 0 392-175.9 392-392S728.1-8 512-8 120 167.9 120 384s175.9 392 392 392m0 56C264.6 832 64 631.4 64 384s200.6-448 448-448 448 200.6 448 448S759.4 832 512 832zM512 608c72.6 0 131.7-58.7 131.7-130.9 0-45.9-24.2-87.7-64.6-111.8-18.2-10.8-28.7-30.9-27.3-52 1.5-21.1 14.7-39.6 34.2-47.8 76.6-32.2 132.2-111.2 146.9-205.8-65.4-44.4-141.3-67.7-221.2-67.7-79.7 0-155.3 23.2-220.7 67.5 14.6 94.8 70.2 173.9 146.9 206.1 19.5 8.2 32.7 26.7 34.2 47.8 1.5 21.1-9.1 41.2-27.3 52-40.5 24.1-64.6 65.8-64.6 111.8 0.1 72.1 59.2 130.8 131.8 130.8m0 56c-103.7 0-187.7-83.7-187.7-186.9 0-68.2 37.1-127.3 92-159.9-102.2-43-176.2-152.7-184.3-283.8 76.8-60.8 173.9-97.4 279.7-97.4 106 0 203.3 36.7 280.3 97.8-8.2 130.9-82.1 240.5-184.3 283.4 54.9 32.6 92 91.7 92 159.9 0.1 103.2-84 186.9-187.7 186.9z"  horiz-adv-x="1024" />

    
    <glyph glyph-name="gongjuxiang" unicode="&#58970;" d="M904 636H736v56c0 30.9-25.1 56-56 56H344c-30.9 0-56-25.1-56-56v-56H120c-30.9 0-56-25.1-56-56v-504c0-30.9 25.1-56 56-56h784c30.9 0 56 25.1 56 56V580c0 30.9-25.1 56-56 56z m-560 56h336v-56H344v56z m560-616H120V300h308v-28c0-30.9 25.1-56 56-56h56c30.9 0 56 25.1 56 56v28h308v-224zM484 272V384h56v-112h-56z m112 84v28c0 30.9-25.1 56-56 56h-56c-30.9 0-56-25.1-56-56v-28H120V580h784v-224H596z"  horiz-adv-x="1024" />

    
    <glyph glyph-name="gongcheng" unicode="&#58971;" d="M650.6 748c21.7 0 43.4-3.2 64.1-9.3l-61.6-61.6c-41.9-41.9-41.9-110.1 0-152 20.3-20.3 47.3-31.5 76-31.5s55.7 11.2 76 31.5l61.6 61.6c23.2-78.2 2.3-164.4-56.7-223.4-42.4-42.4-98.9-65.8-158.9-65.8-28.4 0-56.2 5.2-82.6 15.5l-31.7 12.4-24-24-264.2-264.1c-11.1-11.1-25.9-17.3-41.7-17.3-15.7 0-30.5 6.1-41.7 17.3-23 23-23 60.4 0 83.3l264.2 264.2 24 24-12.4 31.7C408.3 524 428 618.8 491.2 682c42.7 42.6 99.3 66 159.4 66m0 52c-71 0-141.9-27.1-196.1-81.2-80.4-80.4-100.8-197.7-61.9-297.2L128.5 157.4c-43.3-43.3-43.3-113.6 0-156.9 21.7-21.7 50.1-32.5 78.4-32.5 28.4 0 56.8 10.8 78.4 32.5l264.2 264.2c32.6-12.7 67-19.1 101.5-19.1 70.8 0 141.6 26.9 195.7 81 85.7 85.7 103.6 213.6 53.5 317-4.8 9.9-14.5 15.5-24.3 15.5-6.5 0-13-2.4-18.1-7.6L768.3 562c-10.8-10.8-25-16.2-39.2-16.2-14.2 0-28.4 5.4-39.2 16.2-21.7 21.7-21.7 56.8 0 78.4l89.5 89.5c13 13 8.6 34.5-7.9 42.4C733.5 790.8 692 800 650.6 800z"  horiz-adv-x="1024" />

    
    <glyph glyph-name="gongzuojihua" unicode="&#58972;" d="M876 748H772v26c0 14.4-11.6 26-26 26s-26-11.6-26-26v-26H538v26c0 14.4-11.6 26-26 26s-26-11.6-26-26v-26H304v26c0 14.4-11.6 26-26 26s-26-11.6-26-26v-26H148c-28.7 0-52-23.3-52-52v-676c0-28.7 23.3-52 52-52h728c28.7 0 52 23.3 52 52V696c0 28.7-23.3 52-52 52z m0-728H148V540h728v-520zM148 592V696h104v-26c0-14.4 11.6-26 26-26s26 11.6 26 26v26h182v-26c0-14.4 11.6-26 26-26s26 11.6 26 26v26h182v-26c0-14.4 11.6-26 26-26s26 11.6 26 26v26h104v-104H148zM456.8 169.7c10.2-10.2 26.6-10.2 36.8 0l183.9 183.8c10.2 10.2 10.2 26.6 0 36.8a25.953 25.953 0 0 1-36.8 0L475.2 224.8l-91.9 91.9a25.953 25.953 0 0 1-36.8 0 25.953 25.953 0 0 1 0-36.8l110.3-110.2z"  horiz-adv-x="1024" />

    
    <glyph glyph-name="gonggao" unicode="&#58973;" d="M904.1 765.2c-5.8 0-11.8-0.9-17.8-2.9L288 562.8H120c-30.9 0-56-25.1-56-56v-224c0-30.9 25.1-56 56-56h168v-28c0-108.2 87.8-196 196-196 15.5 0 28 12.5 28 28s-12.5 28-28 28c-77.2 0-140 62.8-140 140v9.3l542.3-180.8c6-2 11.9-2.9 17.8-2.9 29.8 0 55.9 24.1 55.9 56V709.1c0 32-26.2 56.1-55.9 56.1zM120 282.8v224h168v-224H120z m784-202.3L344 267.2V522.5l560 186.7v-628.7z"  horiz-adv-x="1024" />

    
    <glyph glyph-name="guanbi" unicode="&#58974;" d="M557.3 384l329.4 329.4c12.5 12.5 12.5 32.8 0 45.3-6.2 6.2-14.4 9.4-22.6 9.4-8.2 0-16.4-3.1-22.6-9.4L512 429.3 182.6 758.6c-6.3 6.2-14.4 9.4-22.6 9.4-8.2 0-16.4-3.1-22.6-9.4-12.5-12.5-12.5-32.8 0-45.3L466.7 384 137.4 54.6c-12.5-12.5-12.5-32.8 0-45.3 6.2-6.2 14.4-9.4 22.6-9.4 8.2 0 16.4 3.1 22.6 9.4L512 338.7l329.4-329.4c6.2-6.2 14.4-9.4 22.6-9.4 8.2 0 16.4 3.1 22.6 9.4 12.5 12.5 12.5 32.8 0 45.3L557.3 384z"  horiz-adv-x="1024" />

    
    <glyph glyph-name="guolv" unicode="&#58975;" d="M875.9 748L629.1 470.6 616 455.8v-435.7l-2.2 1.8-2.4 1.5L408 152.6V455.8l-13.1 14.8L148.1 748h727.8m0 52H148.1c-44.4 0-68.4-52.1-39.5-85.8L356 436v-283.4c0-17.8 9.1-34.4 24.1-43.9l203.4-129.2c9.9-7.9 21.2-11.5 32.2-11.5 26.9 0 52.2 21.2 52.2 52.1V436l247.4 278.2c29 33.7 5 85.8-39.4 85.8z"  horiz-adv-x="1024" />

    
    <glyph glyph-name="huidaodingbu" unicode="&#58976;" d="M866.7 800H157.3c-17.8 0-32.2-14.4-32.2-32.2 0-17.8 14.4-32.2 32.2-32.2h709.5c17.8 0 32.2 14.4 32.2 32.2 0 17.8-14.4 32.2-32.3 32.2zM512 671c-16.5 0-33-6.3-45.6-18.9L169.9 355.7c-5.8-5.8-9.4-13.9-9.4-22.8s3.6-17 9.4-22.8c5.8-5.8 13.9-9.4 22.8-9.4s17 3.6 22.8 9.4l264.2 264.2v-574c0-17.8 14.4-32.2 32.2-32.2 17.8 0 32.2 14.4 32.2 32.2v574l264.2-264.2c5.8-5.8 13.9-9.4 22.8-9.4s17 3.6 22.8 9.4c5.8 5.8 9.4 13.9 9.4 22.8s-3.6 17-9.4 22.8L557.6 652.1C545 664.7 528.5 671 512 671z"  horiz-adv-x="1024" />

    
    <glyph glyph-name="hexin" unicode="&#58977;" d="M793.6 384C885 471.3 929.5 556.9 900 608c-16.9 29.2-55.4 43.1-108.1 43.1-39.5 0-87.1-8.3-139-23.5C622.9 750.6 571.1 832 512 832s-110.9-81.4-140.9-204.3c-51.9 15.2-99.6 23.5-139 23.5-52.6 0-91.2-13.9-108.1-43.1-29.5-51.1 15-136.7 106.4-224C139 296.7 94.5 211.1 124 160c16.9-29.2 55.4-43.1 108.1-43.1 39.5 0 87.1 8.3 139 23.5 30-123 81.8-204.4 140.9-204.4s110.9 81.4 140.9 204.3c51.9-15.2 99.6-23.5 139-23.5 52.6 0 91.2 13.9 108.1 43.1 29.5 51.2-15 136.8-106.4 224.1z m-1.7 211.1c40.2 0 56.5-9.9 59.5-15.1 4-6.9 3.6-41-49-104.9-14.7-17.8-32-35.8-50.9-53.7-23.2 19.4-48.3 38.6-75.4 57.3-2.7 32.8-6.7 64.1-11.9 93.8 47.7 14.4 91.7 22.6 127.7 22.6zM568 287c-18.6-10.7-37.3-20.6-56-30-18.7 9.4-37.4 19.3-56 30-18.8 10.9-36.5 22.4-54.1 33.9-1.1 20.3-1.9 41.1-1.9 63.1s0.8 42.8 1.9 63.1c17.6 11.5 35.3 23 54.1 33.9 18.6 10.7 37.3 20.6 56 30 18.7-9.4 37.4-19.3 56-30 18.8-10.9 36.5-22.4 54.1-33.9 1.1-20.3 1.9-41.1 1.9-63.1s-0.8-42.8-1.9-63.1c-17.6-11.5-35.3-23-54.1-33.9z m48.1-36.4c-1.6-12.8-3.4-25.2-5.3-37.1-11.5 4.3-23.1 9-34.9 14 6.7 3.7 13.4 7.1 20.2 11 6.8 4 13.3 8.1 20 12.1z m-167.9-23.1c-11.8-5-23.4-9.6-34.9-14-2 11.9-3.8 24.3-5.3 37.1 6.7-4 13.2-8.1 20.1-12.1 6.6-3.9 13.3-7.3 20.1-11zM344.4 361.4c-9.9 7.5-20 14.9-29.3 22.6 9.3 7.6 19.4 15 29.3 22.6-0.1-7.5-0.4-14.9-0.4-22.6s0.3-15 0.4-22.6z m63.5 156c1.6 12.8 3.4 25.2 5.3 37.1 11.5-4.3 23.1-9 34.9-14-6.7-3.7-13.4-7.1-20.2-11-6.8-4-13.3-8.1-20-12.1z m167.9 23.1c11.8 5 23.4 9.6 34.9 14 2-11.9 3.7-24.3 5.3-37.1-6.7 4-13.2 8.1-20.1 12.1-6.6 3.9-13.3 7.3-20.1 11z m103.8-133.9c9.9-7.5 20-14.9 29.3-22.6-9.3-7.6-19.4-15-29.3-22.6 0.1 7.5 0.4 14.9 0.4 22.6s-0.3 15-0.4 22.6zM512 776c20.9 0 61.3-57.3 87.4-165.9-28.4-10.4-57.6-22.6-87.4-36.8-29.8 14.1-59 26.4-87.4 36.8C450.7 718.7 491.1 776 512 776zM221.5 475.1c-52.6 63.9-53 98-49 104.9 3 5.2 19.4 15.1 59.6 15.1 36 0 80-8.2 127.7-22.5-5.2-29.7-9.3-61-11.9-93.9-27.1-18.7-52.3-38-75.4-57.3-19 17.9-36.3 35.9-51 53.7z m10.6-302.2c-40.2 0-56.5 9.9-59.6 15.1-4 6.9-3.6 41 49 104.9 14.7 17.8 32 35.8 50.9 53.7 23.2-19.4 48.3-38.6 75.4-57.3 2.7-32.8 6.7-64.1 11.9-93.9-47.6-14.3-91.6-22.5-127.6-22.5zM512-8c-20.9 0-61.3 57.3-87.4 165.9 28.4 10.4 57.6 22.6 87.4 36.8 29.8-14.1 59-26.4 87.4-36.8C573.3 49.3 532.9-8 512-8z m339.5 196c-3-5.2-19.4-15.1-59.6-15.1-36 0-80 8.2-127.7 22.5 5.2 29.7 9.3 61 11.9 93.9 27.1 18.7 52.3 38 75.4 57.3 18.9-17.9 36.3-35.8 50.9-53.7 52.6-63.9 53.1-98 49.1-104.9zM512 384m-28 0a28 28 0 1 1 56 0 28 28 0 1 1-56 0Z"  horiz-adv-x="1024" />

    
    <glyph glyph-name="jianli" unicode="&#58978;" d="M626.2 307.6C686 347 727.6 415.7 734.6 496H764c15.5 0 28 12.5 28 28s-12.5 28-28 28c0 154.6-97.3 280-252 280S260 706.6 260 552c-15.5 0-28-12.5-28-28s12.5-28 28-28h29.4c6.9-80.3 48.6-149 108.3-188.4C268.5 260.8 176 137.4 176-8c0-14.3 5.5-28.7 16.4-39.6S217.7-64 232-64h560c14.3 0 28.7 5.5 39.6 16.4S848-22.3 848-8c0 145.4-92.5 268.8-221.8 315.6zM512 776c123.5 0 196-100.5 196-224H316c0 123.5 72.5 224 196 224zM346.7 496h330.6c-6.4-58.7-35.1-110.8-81.9-141.6-17.7-11.7-27.3-32.3-24.8-53.3s16.6-38.9 36.5-46.1c2.5-0.9 4.7-2.3 7.1-3.2C597.9 233.5 561.6 216 512 216s-85.9 17.5-102.3 35.8c2.4 1 4.6 2.3 7.1 3.2 19.9 7.2 34.1 25 36.5 46.1 2.5 21-7.1 41.7-24.8 53.3-46.7 30.8-75.4 82.9-81.8 141.6zM232-8c0 95.4 49.7 182.5 127.6 233.5 22.8-33.1 68.9-57.4 124.4-63.6V-8H232z m308 0V161.9c55.6 6.2 101.6 30.5 124.4 63.6C742.3 174.5 792 87.4 792-8H540z"  horiz-adv-x="1024" />

    
    <glyph glyph-name="jiance" unicode="&#58979;" d="M456 188c-6.3 0-12.7 2.1-17.9 6.5-11.9 9.9-13.5 27.6-3.6 39.4l113.7 136.4-129.1 43c-8.8 3-15.5 10-18 18.9-2.6 8.9-0.5 18.5 5.4 25.6l140 168c9.9 11.8 27.6 13.4 39.4 3.6 11.9-9.9 13.5-27.6 3.6-39.4L475.8 453.6l129.1-43c8.8-3 15.5-10 18-18.9 2.6-8.9 0.5-18.5-5.4-25.6l-140-168C472 191.4 464 188 456 188zM512 776l336-145.7v-188.7c0-304.3-257.2-420.9-336-449.4-78.8 28.5-336 145.2-336 449.4l0.2 189.3L512 776m0 56c-7.5 0-15-1.5-22.1-4.6l-336-145.3c-20.6-8.9-33.9-29.3-33.9-51.9v-188.7c0-344.2 294.3-473.7 372.9-502.1 6.3-2.3 12.7-3.4 19.1-3.4s12.8 1.1 19.1 3.4C609.7-32.2 904 97.3 904 441.5V630.2c0 22.6-13.4 43-33.9 51.9l-336 145.3C527 830.5 519.5 832 512 832z"  horiz-adv-x="1024" />

    
    <glyph glyph-name="jiancai" unicode="&#58980;" d="M736 440c-11.3 0-22.1-1.7-32.9-3.3 20.4 33.8 32.9 73 32.9 115.3 0 123.7-100.3 224-224 224S288 675.7 288 552c0-42.4 12.4-81.5 32.9-115.3-10.8 1.6-21.6 3.3-32.9 3.3-123.7 0-224-100.3-224-224s100.3-224 224-224 224 100.3 224 224c0 42.4-12.4 81.5-32.9 115.3 10.8-1.6 21.6-3.3 32.9-3.3s22.1 1.7 32.9 3.3c-20.4-33.8-32.9-73-32.9-115.3 0-123.7 100.3-224 224-224s224 100.3 224 224-100.3 224-224 224zM288 48c-92.6 0-168 75.4-168 168s75.4 168 168 168 168-75.4 168-168-75.4-168-168-168z m56 504c0 92.6 75.4 168 168 168s168-75.4 168-168-75.4-168-168-168-168 75.4-168 168z m392-504c-92.6 0-168 75.4-168 168s75.4 168 168 168 168-75.4 168-168-75.4-168-168-168zM591.2 631.2c-43.8 43.7-114.6 43.7-158.3 0-10.9-10.9-10.9-28.6 0-39.6s28.6-10.9 39.6 0c21.8 21.8 57.4 21.8 79.2 0 10.9-10.9 28.6-10.9 39.6 0s10.8 28.7-0.1 39.6zM367.2 176.4c-10.9 10.9-28.6 10.9-39.6 0-21.8-21.8-57.4-21.8-79.2 0-10.9 10.9-28.6 10.9-39.6 0s-10.9-28.6 0-39.6c43.7-43.7 114.5-43.7 158.3 0 11 10.9 11 28.7 0.1 39.6zM815.2 176.4c-10.9 10.9-28.6 10.9-39.6 0-21.8-21.8-57.4-21.8-79.2 0-10.9 10.9-28.6 10.9-39.6 0s-10.9-28.6 0-39.6c43.7-43.7 114.5-43.7 158.3 0 11 10.9 11 28.7 0.1 39.6z"  horiz-adv-x="1024" />

    
    <glyph glyph-name="jinzhi" unicode="&#58981;" d="M512 832C264.6 832 64 631.4 64 384s200.6-448 448-448 448 200.6 448 448S759.4 832 512 832z m392-448c0-98-36.4-187.5-96.1-256.3L255.7 679.9C324.5 739.6 414 776 512 776c216.1 0 392-175.9 392-392z m-784 0c0 98 36.4 187.5 96.1 256.3l552.2-552.2C699.5 28.4 610-8 512-8c-216.1 0-392 175.9-392 392z"  horiz-adv-x="1024" />

    
    <glyph glyph-name="jingbao" unicode="&#58982;" d="M876-8h-84V384c0 154.6-125.4 280-280 280S232 538.6 232 384v-392h-84c-15.5 0-28-12.5-28-28s12.5-28 28-28h728c15.5 0 28 12.5 28 28s-12.5 28-28 28z m-420 0V356c0 15.5-12.5 28-28 28s-28-12.5-28-28v-364H288V384c0 123.5 100.5 224 224 224s224-100.5 224-224v-392H456zM512 720c15.5 0 28 12.5 28 28V804c0 15.5-12.5 28-28 28s-28-12.5-28-28v-56c0-15.5 12.5-28 28-28zM195.8 604.6c10.9-10.9 28.7-10.9 39.6 0 10.9 10.9 10.9 28.7 0 39.6l-39.6 39.6c-10.9 10.9-28.7 10.9-39.6 0-10.9-10.9-10.9-28.7 0-39.6l39.6-39.6zM820 604.6l39.6 39.6c10.9 10.9 10.9 28.7 0 39.6s-28.7 10.9-39.6 0l-39.6-39.6c-10.9-10.9-10.9-28.7 0-39.6 10.9-10.9 28.7-10.9 39.6 0zM932 416h-56c-15.5 0-28-12.5-28-28s12.5-28 28-28h56c15.5 0 28 12.5 28 28s-12.5 28-28 28zM176 388c0 15.5-12.5 28-28 28H92c-15.5 0-28-12.5-28-28s12.5-28 28-28h56c15.5 0 28 12.5 28 28z"  horiz-adv-x="1024" />

    
    <glyph glyph-name="jinggao" unicode="&#58983;" d="M484 468v-224c0-15.5 12.5-28 28-28s28 12.5 28 28V468c0 15.5-12.5 28-28 28s-28-12.5-28-28zM512 132m-28 0a28 28 0 1 1 56 0 28 28 0 1 1-56 0ZM952.6 70.9l-393.2 681c-10.5 18.2-29 27.4-47.4 27.4s-36.9-9.1-47.4-27.4l-393.2-681c-21.1-36.5 5.3-82.1 47.4-82.1h786.4c42.1 0 68.5 45.6 47.4 82.1z m-832.7-28L512 722l393.2-677.2-785.3-1.9z"  horiz-adv-x="1024" />

    
    <glyph glyph-name="keshi" unicode="&#58984;" d="M951.4 412.8c-45.2 69.7-182.8 242-439.2 242-261 0-396.2-173-440-242.4-10.9-17.4-10.9-39.4 0-56.7 43.8-69.4 179-242.4 440-242.4 257.7 0 394.5 172.1 439.3 241.9 11.4 17.5 11.3 40-0.1 57.6zM512.2 169.2c-229.6 0-349.8 149-391.7 214.8 41.9 65.8 162.1 214.8 391.7 214.8 225.6 0 348.2-149 391.2-214.9-42.7-65.8-164.4-214.7-391.2-214.7zM512 580c-108.2 0-196-87.7-196-196 0-108.2 87.8-196 196-196s196 87.8 196 196-87.8 196-196 196z m0-336c-77.2 0-140 62.8-140 140s62.8 140 140 140 140-62.8 140-140-62.8-140-140-140zM512 384m-56 0a56 56 0 1 1 112 0 56 56 0 1 1-112 0Z"  horiz-adv-x="1024" />

    
    <glyph glyph-name="mima" unicode="&#58985;" d="M820 496h-28v56c0 154.6-125.4 280-280 280S232 706.6 232 552v-56h-28c-30.9 0-56-25.1-56-56v-448c0-30.9 25.1-56 56-56h616c30.9 0 56 25.1 56 56V440c0 30.9-25.1 56-56 56z m-532 56c0 123.5 100.5 224 224 224s224-100.5 224-224v-56H288v56z m532-560H204V440h616v-448zM512 328c-15.5 0-28-12.5-28-28v-168c0-15.5 12.5-28 28-28s28 12.5 28 28V300c0 15.5-12.5 28-28 28z"  horiz-adv-x="1024" />

    
    <glyph glyph-name="puguang" unicode="&#58986;" d="M512 664c15.5 0 28 12.5 28 28V804c0 15.5-12.5 28-28 28s-28-12.5-28-28v-112c0-15.5 12.5-28 28-28zM512 104c-15.5 0-28-12.5-28-28v-112c0-15.5 12.5-28 28-28s28 12.5 28 28V76c0 15.5-12.5 28-28 28zM932 412H820c-15.5 0-28-12.5-28-28s12.5-28 28-28h112c15.5 0 28 12.5 28 28s-12.5 28-28 28zM232 384c0 15.5-12.5 28-28 28H92c-15.5 0-28-12.5-28-28s12.5-28 28-28h112c15.5 0 28 12.5 28 28zM274.4 582c10.9-10.9 28.7-10.9 39.6 0 10.9 10.9 10.9 28.7 0 39.6l-79.2 79.2c-10.9 10.9-28.7 10.9-39.6 0s-10.9-28.7 0-39.6l79.2-79.2zM749.6 186c-10.9 10.9-28.7 10.9-39.6 0s-10.9-28.7 0-39.6l79.2-79.2c10.9-10.9 28.7-10.9 39.6 0 10.9 10.9 10.9 28.7 0 39.6L749.6 186zM749.6 582l79.2 79.2c10.9 10.9 10.9 28.7 0 39.6s-28.7 10.9-39.6 0L710 621.6c-10.9-10.9-10.9-28.7 0-39.6 10.9-10.9 28.7-10.9 39.6 0zM274.4 186l-79.2-79.2c-10.9-10.9-10.9-28.7 0-39.6 10.9-10.9 28.7-10.9 39.6 0l79.2 79.2c10.9 10.9 10.9 28.7 0 39.6s-28.7 10.9-39.6 0zM512 608c-123.7 0-224-100.3-224-224s100.3-224 224-224 224 100.3 224 224-100.3 224-224 224z m0-392c-92.6 0-168 75.4-168 168s75.4 168 168 168 168-75.4 168-168-75.4-168-168-168z"  horiz-adv-x="1024" />

    
    <glyph glyph-name="qizi" unicode="&#58987;" d="M827.1 769c-2.3 0-4.7-0.3-7.1-0.9-38-9.2-76-12.8-114-12.8-129.3 0-258.6 41.4-388 41.4-28.7 0-57.3-2.4-86-7.4V804c0 15.5-12.5 28-28 28s-28-12.5-28-28v-840c0-15.5 12.5-28 28-28s28 12.5 28 28V341.3c28.7 5 57.3 7.4 86 7.4 129.3 0 258.6-41.4 388-41.4 38 0 76 3.6 114 12.8 15.4 3.7 28 20.4 28 35.9V748c0 13-8.9 21-20.9 21zM792 371.3c-26.7-5.4-55-8-86-8-60.2 0-120.9 9.7-185.1 20-65.7 10.5-133.7 21.4-202.8 21.4-30.1 0-58.7-2.1-86-6.3V732.7c26.8 5.3 55.2 8 86 8 60.2 0 120.9-9.7 185.1-20 65.7-10.5 133.7-21.4 202.8-21.4 30.3 0 58.7 2.1 86 6.3v-334.3z"  horiz-adv-x="1024" />

    
    <glyph glyph-name="relitu" unicode="&#58988;" d="M343.9 765.9c15.2 0 28.9-3.8 42.7-12.1 54.1-31.3 109.6-65.7 168.3-102.1 82.7-51.3 168.3-104.3 259.8-154.5C864 472 898 413.6 901.3 348.4c1.4-27.8-1.8-96.5-60.8-134.8-149.7-93-314.9-151.6-468.9-202.8-20.2-5.8-41.6-8.7-63.6-8.7-65 0-129 25.6-163 65.3-18 20.9-25.3 43.4-21.4 68.3l31.3 251.6 26.7 214.3C194.1 686 273 765.9 343.9 765.9m0 58.5c-100.2 0-203.5-102.2-220.1-214.3C104.4 454.3 85 298.6 65.6 142.8 48.4 30.8 174.7-56.4 308-56.4c26.6 0 53.5 3.5 79.6 10.9 171.5 57 332.7 115.6 483.7 209.5 136.8 88.7 106.2 315.4-30 385.2-152 83.5-293.9 179.1-425.5 255.2-22.9 13.8-47.3 20-71.9 20zM336.6 648.2l0.9-0.3c62-31.5 128.4-73.1 198.6-117.2 72.4-45.3 147.2-92.2 227.3-134.6 15.8-8.2 19.1-25.8 19.7-33.1 0.9-8.9 0.4-25.2-12.1-34-123.9-86.4-262.5-134.3-409.3-185.1l-59.8-20.8c-6.2-2.2-12.7-3.3-19.5-3.3-1.9 0-3.7 0.1-4.8 0.2-22.1 2.2-35.6 12.3-36.9 17.2L272 394.7 297.3 604c2.9 22.4 26.8 42.3 38.3 44.1l1 0.1m0 58.4c-3.4 0-6.8-0.3-10.2-0.8-37.1-5.9-80.9-46.1-87-94.4-18.9-155.7-37.7-311.4-56.6-467.2-6.2-48 41.4-77.7 89.2-82.4 3.5-0.3 7-0.4 10.5-0.4 13.3 0 26.4 2.2 39.1 6.7 174.6 61.2 335.6 110.2 483 213 38.5 27.2 38.4 70.9 36.8 87.5-1.6 17.1-10.2 58.2-50.9 79.3-155.7 82.5-297.8 186.6-426.3 252-8.9 4.5-18 6.7-27.6 6.7zM429 482.9c25.3-14 52.2-30.9 80.3-48.6 33.7-21.1 68.4-42.9 106-63.5-56.7-36.5-118.7-58-189.7-82.6l-21.5-6.8 10.7 88.7L429 482.9m-8.4 66.8c-21.8 0-45.2-22.6-48.5-47.2-9.8-81.1-19.6-162.2-29.5-243.4-3.2-23.5 21.6-40.8 49-40.8 6.6 0 13.3 1 19.9 3.1 91.1 32.1 174.9 57.4 251.6 111.1 28.3 20.3 22.8 67.8-7 82.8-81.2 42.9-155.3 97.4-222.1 131.1-4.3 2.3-8.8 3.3-13.4 3.3z"  horiz-adv-x="1024" />

    
    <glyph glyph-name="quanping" unicode="&#58989;" d="M868.6 800H720c-7.6 0-15.2-2.9-21-8.7-5.8-5.8-8.7-13.4-8.7-21s2.9-15.2 8.7-21c5.8-5.8 13.4-8.7 21-8.7h106.5L580.1 494.2c-11.6-11.6-11.6-30.4 0-42 11.6-11.6 30.4-11.6 42 0l246.4 246.4V592c0-7.6 2.9-15.2 8.7-21 5.8-5.8 13.4-8.7 21-8.7s15.2 2.9 21 8.7c5.8 5.8 8.7 13.4 8.7 21V740.6c0.1 32.8-26.5 59.4-59.3 59.4zM898.3 205.7c-7.6 0-15.2-2.9-21-8.7-5.8-5.8-8.7-13.4-8.7-21v-106.5L622.2 315.9c-11.6 11.6-30.4 11.6-42 0s-11.6-30.4 0-42l246.4-246.4H720c-7.6 0-15.2-2.9-21-8.7-5.8-5.8-8.7-13.4-8.7-21s2.9-15.2 8.7-21c5.8-5.8 13.4-8.7 21-8.7h148.6c32.8 0 59.4 26.6 59.4 59.4V176c0 7.6-2.9 15.2-8.7 21-5.8 5.8-13.4 8.7-21 8.7zM401.8 315.9L155.4 69.5V176c0 7.6-2.9 15.2-8.7 21-5.8 5.8-13.4 8.7-21 8.7s-15.2-2.9-21-8.7c-5.8-5.8-8.7-13.4-8.7-21v-148.6c0-32.8 26.6-59.4 59.4-59.4H304c7.6 0 15.2 2.9 21 8.7 5.8 5.8 8.7 13.4 8.7 21s-2.9 15.2-8.7 21c-5.8 5.8-13.4 8.7-21 8.7H197.5l246.4 246.4c11.6 11.6 11.6 30.4 0 42-11.6 11.7-30.5 11.7-42.1 0.1zM197.5 740.6H304c7.6 0 15.2 2.9 21 8.7 5.8 5.8 8.7 13.4 8.7 21s-2.9 15.2-8.7 21c-5.8 5.8-13.4 8.7-21 8.7H155.4C122.6 800 96 773.4 96 740.6V592c0-7.6 2.9-15.2 8.7-21 5.8-5.8 13.4-8.7 21-8.7s15.2 2.9 21 8.7c5.8 5.8 8.7 13.4 8.7 21V698.5l246.4-246.4c11.6-11.6 30.4-11.6 42 0 11.6 11.6 11.6 30.4 0 42L197.5 740.6z"  horiz-adv-x="1024" />

    
    <glyph glyph-name="renyuanguanli" unicode="&#58990;" d="M120.9-11.5h617.4c0 171.2-93.4 316.5-223.8 371.6 81 48.4 129.9 144.9 103.6 251-19.7 79.5-84.7 143.6-164.5 162.2-148.5 34.6-280.4-77.1-280.4-219.7 0-82.5 44.7-154 110.8-193.5C170 311.9 84.3 194.7 64.5 51.6c-4.6-33.5 22.6-63.1 56.4-63.1zM306 308l2.2 0.9c9.9 4.2 18.7 11.2 25.1 20.8 6.4 9.6 9.4 20.5 9.4 31.2v-2.3c0 9.5-2.4 19.1-7.4 27.9-5 8.8-12 15.8-20.2 20.6l-2.2 1.3c-52.1 31.1-83.2 85.3-83.2 144.9 0 93.5 76 169.5 169.5 169.5s169.5-76 169.5-169.5c0-59.6-31.1-113.8-83.2-144.9l-2.2-1.3c-8.1-4.9-15.2-11.8-20.2-20.6s-7.4-18.4-7.4-27.9V361c0-10.7 3-21.6 9.4-31.2 6.4-9.6 15.2-16.6 25.1-20.8l2.2-0.9c98.1-41.4 168.3-143.3 185.3-263h-557c17 119.6 87.2 221.5 185.3 262.9zM788.8 302.8c64.2 41.5 103 118.7 87.2 203.8-13.6 73.2-70.5 134.2-142.5 153.1-47.1 12.4-91.9 7.1-130.6-9.8 8.1-17.1 14.5-35.1 18.1-54.2 18.5 8.9 38.9 14.3 60.8 14.3 89.6 0 159.9-83.8 136.8-177.1-8.9-35.9-34.1-65.6-65.2-85.6l10.7 6.9c-7.7-5-14.3-11.8-19-20.4-4.7-8.6-6.9-17.9-6.9-27v-6.7c0-10.3 2.8-20.8 8.7-30.1 5.9-9.4 14.1-16.4 23.4-20.8l-6 2.9c74.4-35.6 126.3-113.5 139.8-206.9H681.8c2.3-18.5 3.8-37.3 3.8-56.5h217.5c34 0 61.4 30 56.3 63.6C941.9 166 878 260.2 788.8 302.8z"  horiz-adv-x="1024" />

    
    <glyph glyph-name="renlianshibie" unicode="&#58991;" d="M848 832h-84c-7.2 0-14.3-2.7-19.8-8.2-5.5-5.5-8.2-12.6-8.2-19.8 0-7.2 2.7-14.3 8.2-19.8 5.5-5.5 12.6-8.2 19.8-8.2h84v-84c0-7.2 2.7-14.3 8.2-19.8 5.5-5.5 12.6-8.2 19.8-8.2s14.3 2.7 19.8 8.2c5.5 5.5 8.2 12.6 8.2 19.8v84c0 30.9-25.1 56-56 56zM876 384c-7.2 0-14.3-2.7-19.8-8.2-5.5-5.5-8.2-12.6-8.2-19.8v-84h-84c-7.2 0-14.3-2.7-19.8-8.2-1.5-1.5-2.3-3.4-3.4-5.2-31.6 30.4-67.1 55.4-106.4 72C714.2 378.3 764.7 470 749.2 573c-14.6 96.7-89.6 177.5-185.3 197.5-17.6 3.7-35 5.4-51.9 5.4-132.6 0-240-107.4-240-240 0-87.6 47.5-163.5 117.6-205.4-39.2-16.6-74.8-41.6-106.4-72-1.1 1.8-1.9 3.7-3.4 5.2-5.5 5.5-12.6 8.2-19.8 8.2h-84v84c0 7.2-2.7 14.3-8.2 19.8-5.5 5.5-12.6 8.2-19.8 8.2s-14.3-2.7-19.8-8.2c-5.5-5.5-8.2-12.6-8.2-19.8v-84c0-30.9 25.1-56 56-56h69c-46.8-60.6-79.3-136.5-89.5-221.3-3.8-31.2 21.1-58.7 52.5-58.7h608c31.4 0 56.2 27.6 52.5 58.7-10.2 84.9-42.7 160.8-89.5 221.4h69c30.9 0 56 25.1 56 56v84c0 7.2-2.7 14.3-8.2 19.8-5.5 5.5-12.6 8.2-19.8 8.2zM211.5-9c16.9 132.8 93.3 242.9 199.9 288 19.4 8.2 32.6 26.7 34.1 47.7 1.5 21.1-9 41.1-27.2 52C361.8 412.4 328 471.3 328 536c0 101.5 82.5 184 184 184 13.4 0 27-1.4 40.4-4.3 72.1-15.1 130.3-77.2 141.4-151.1 11.4-75.5-22.4-146.8-88.2-186-18.1-10.8-28.6-30.9-27.2-52 1.5-21.1 14.6-39.5 34.1-47.7C719 234.1 795.3 124.3 812.4-8l-600.9-1zM148 664c7.2 0 14.3 2.7 19.8 8.2 5.5 5.5 8.2 12.6 8.2 19.8v84h84c7.2 0 14.3 2.7 19.8 8.2 5.5 5.5 8.2 12.6 8.2 19.8 0 7.2-2.7 14.3-8.2 19.8-5.5 5.5-12.6 8.2-19.8 8.2h-84c-30.9 0-56-25.1-56-56v-84c0-7.2 2.7-14.3 8.2-19.8 5.5-5.5 12.6-8.2 19.8-8.2z"  horiz-adv-x="1024" />

    
    <glyph glyph-name="rili" unicode="&#58992;" d="M680 776c-15.5 0-28-12.5-28-28v-28H372v28c0 15.5-12.5 28-28 28s-28-12.5-28-28v-28H120c-30.9 0-56-25.1-56-56v-616c0-30.9 25.1-56 56-56h784c30.9 0 56 25.1 56 56V664c0 30.9-25.1 56-56 56H708v28c0 15.5-12.5 28-28 28z m0-168c15.5 0 28 12.5 28 28v28h196v-112H120V664h196v-28c0-15.5 12.5-28 28-28s28 12.5 28 28v28h280v-28c0-15.5 12.5-28 28-28zM120 48V496h784v-448H120zM540 440h-56c-15.5 0-28-12.5-28-28s12.5-28 28-28h28v-252c0-15.5 12.5-28 28-28s28 12.5 28 28V412c0 15.5-12.5 28-28 28z"  horiz-adv-x="1024" />

    
    <glyph glyph-name="saomiao" unicode="&#58993;" d="M868.6 800H720c-7.6 0-15.2-2.9-21-8.7s-8.7-13.4-8.7-21 2.9-15.2 8.7-21 13.4-8.7 21-8.7h148.6V592c0-7.6 2.9-15.2 8.7-21s13.4-8.7 21-8.7 15.2 2.9 21 8.7 8.7 13.4 8.7 21V740.6c0 32.8-26.6 59.4-59.4 59.4zM928 27.4V176c0 7.6-2.9 15.2-8.7 21s-13.4 8.7-21 8.7-15.2-2.9-21-8.7-8.7-13.4-8.7-21v-148.6H720c-7.6 0-15.2-2.9-21-8.7s-8.7-13.4-8.7-21 2.9-15.2 8.7-21 13.4-8.7 21-8.7h148.6c32.8 0 59.4 26.6 59.4 59.4zM155.4-32H304c7.6 0 15.2 2.9 21 8.7s8.7 13.4 8.7 21-2.9 15.2-8.7 21-13.4 8.7-21 8.7H155.4V176c0 7.6-2.9 15.2-8.7 21-5.8 5.8-13.4 8.7-21 8.7s-15.2-2.9-21-8.7-8.7-13.4-8.7-21v-148.6c0-32.8 26.6-59.4 59.4-59.4zM96 740.6V592c0-7.6 2.9-15.2 8.7-21 5.8-5.8 13.4-8.7 21-8.7s15.2 2.9 21 8.7c5.8 5.8 8.7 13.4 8.7 21V740.6H304c7.6 0 15.2 2.9 21 8.7s8.7 13.4 8.7 21-2.9 15.2-8.7 21-13.4 8.7-21 8.7H155.4C122.6 800 96 773.4 96 740.6zM898.3 354.3H125.7c-16.4 0-29.7 13.3-29.7 29.7s13.3 29.7 29.7 29.7h772.6c16.4 0 29.7-13.3 29.7-29.7s-13.3-29.7-29.7-29.7z"  horiz-adv-x="1024" />

    
    <glyph glyph-name="renwuguanli" unicode="&#58994;" d="M848 832H176c-30.9 0-56-25.1-56-56v-784c0-30.9 25.1-56 56-56h672c30.9 0 56 25.1 56 56V776c0 30.9-25.1 56-56 56z m-196-56h84v-197.3L672.8 604l-20.8 8.3-20.8-8.3-63.2-25.3V776h84z m196-784H176V776h336v-238.6c0-16.1 13.2-28 28-28 3.4 0 7 0.6 10.4 2L652 552l101.6-40.6c3.5-1.4 7-2 10.4-2 14.8 0 28 12 28 28V776h56v-784zM288 328h224c15.5 0 28 12.5 28 28s-12.5 28-28 28H288c-15.5 0-28-12.5-28-28s12.5-28 28-28zM736 216H288c-15.5 0-28-12.5-28-28s12.5-28 28-28h448c15.5 0 28 12.5 28 28s-12.5 28-28 28z"  horiz-adv-x="1024" />

    
    <glyph glyph-name="shanchu" unicode="&#58995;" d="M792 664v-672H232V664h560m56 56H176v-728c0-30.9 25.1-56 56-56h560c30.9 0 56 25.1 56 56V720zM932 720H92c-15.5 0-28-12.5-28-28s12.5-28 28-28h840c15.5 0 28 12.5 28 28s-12.5 28-28 28zM680 776v-56H347.5v56H680m0 56H347.5c-30.9 0-56-25.1-56-56v-112H736V776c0 30.9-25.1 56-56 56zM372 552c-15.5 0-28-12.5-28-28v-392c0-15.5 12.5-28 28-28s28 12.5 28 28V524c0 15.5-12.5 28-28 28zM512 552c-15.5 0-28-12.5-28-28v-392c0-15.5 12.5-28 28-28s28 12.5 28 28V524c0 15.5-12.5 28-28 28zM652 552c-15.5 0-28-12.5-28-28v-392c0-15.5 12.5-28 28-28s28 12.5 28 28V524c0 15.5-12.5 28-28 28z"  horiz-adv-x="1024" />

    
    <glyph glyph-name="shangchuan" unicode="&#58996;" d="M840.5-4.3h-657c-16.5 0-29.9-13.4-29.9-29.9s13.4-29.9 29.9-29.9h657.1c16.5 0 29.9 13.4 29.9 29.9-0.1 16.6-13.5 29.9-30 29.9zM512 761.8l251.2-228H631.5v-418.2h-239V533.7H260.9L512 761.8m0 70.2c-7.6 0-15.3-2.9-21.1-8.7L162.4 525c-18.8-18.8-5.5-51 21.1-51h149.3v-358.4c0-33 26.7-59.7 59.7-59.7h238.9c33 0 59.7 26.7 59.7 59.7V474h149.3c26.6 0 39.9 32.2 21.1 51L533.1 823.3c-5.8 5.8-13.5 8.7-21.1 8.7z"  horiz-adv-x="1024" />

    
    <glyph glyph-name="shigongrenyuan" unicode="&#58997;" d="M626.2 307.6C686 347 727.6 415.7 734.6 496H764c15.5 0 28 12.5 28 28s-12.5 28-28 28c0 154.6-97.3 280-252 280S260 706.6 260 552c-15.5 0-28-12.5-28-28s12.5-28 28-28h29.4c6.9-80.3 48.6-149 108.3-188.4C268.5 260.8 176 137.4 176-8c0-14.3 5.5-28.7 16.4-39.6S217.7-64 232-64h560c14.3 0 28.7 5.5 39.6 16.4S848-22.3 848-8c0 145.4-92.5 268.8-221.8 315.6z m-34.4 451.8L575.6 664H447.4l-15.9 95.1C455.2 769.9 482 776 512 776c29.7 0 56.3-6.1 79.8-16.6z m-211-36.3l11.4-68.3c4.5-27 27.9-46.8 55.2-46.8h128.1c27.3 0 50.6 19.7 55.2 46.6l11.8 69.2C684.4 682.7 708 621.3 708 552H316c0 69 23.3 130 64.8 171.1zM232-8c0 117.3 74.3 223 184.8 263 19.9 7.2 34.1 25 36.5 46.1 2.5 21-7.1 41.7-24.8 53.3-46.7 30.8-75.4 82.9-81.9 141.6h330.6c-6.4-58.7-35.1-110.8-81.9-141.6-17.7-11.7-27.3-32.3-24.8-53.3s16.6-38.9 36.5-46.1c110.7-40 185-145.7 185-263H232z"  horiz-adv-x="1024" />

    
    <glyph glyph-name="shezhi" unicode="&#58998;" d="M64 421.3c1.2 10 5.1 19.9 11.9 28.4 6.8 8.5 15.5 14.5 25.1 17.8l86.3 30.7c4.2 11.7 8.9 23.3 14.4 34.6l-39.3 82.8c-4.3 9.1-6.3 19.5-5.1 30.2s5.3 20.5 11.5 28.4l52.9 52.9c8 6.2 17.7 10.4 28.4 11.5s21.1-0.8 30.2-5.1l82.8-39.3c11.4 5.4 22.9 10.2 34.7 14.4l30.7 86.3c3.4 9.5 9.4 18.3 17.8 25.1 8.5 6.8 18.3 10.7 28.4 11.9h74.4c10-1.2 19.9-5.1 28.4-11.9 8.5-6.8 14.5-15.5 17.8-25.1l30.7-86.3c11.7-4.2 23.3-8.9 34.7-14.4l82.8 39.3c9.1 4.3 19.5 6.3 30.2 5.1 10.8-1.2 20.5-5.3 28.4-11.5l52.9-52.9c6.2-8 10.4-17.7 11.5-28.4s-0.8-21.1-5.1-30.2l-39.3-82.8c5.4-11.3 10.2-22.9 14.4-34.6l86.3-30.7c9.5-3.4 18.3-9.4 25.1-17.8s10.7-18.3 11.9-28.4v-74.5c-1.2-10-5.1-19.9-11.9-28.4-6.8-8.5-15.5-14.5-25.1-17.8l-86.3-30.7c-4.2-11.7-8.9-23.3-14.4-34.7l39.3-82.8c4.3-9.1 6.3-19.5 5.1-30.2-1.2-10.8-5.3-20.5-11.5-28.4l-52.9-52.9c-8-6.2-17.7-10.4-28.4-11.5-10.8-1.2-21.1 0.8-30.2 5.1l-82.8 39.3c-11.4-5.4-22.9-10.2-34.7-14.4L595.4-27c-3.4-9.5-9.4-18.3-17.8-25.1-8.5-6.8-18.3-10.7-28.4-11.9h-74.4c-10 1.2-19.9 5.1-28.4 11.9-8.5 6.8-14.5 15.5-17.8 25.1l-30.7 86.3c-11.7 4.2-23.3 8.9-34.7 14.4l-82.8-39.3c-9.1-4.3-19.5-6.3-30.2-5.1s-20.5 5.3-28.4 11.5l-52.9 52.9c-6.2 8-10.4 17.7-11.5 28.4-1.2 10.8 0.8 21.1 5.1 30.2l39.3 82.8c-5.4 11.4-10.2 22.9-14.4 34.7L101 300.6c-9.5 3.4-18.3 9.4-25.1 17.8-6.8 8.5-10.7 18.3-11.9 28.4v74.5z m56.1-6.6c-1.8-20.3-1.8-41.1 0-61.3l112.3-39.9 4.2-13.5c5.3-17.6 12.5-34.7 21.2-51.2l6.6-12.5-51.1-107.6c13.3-15.5 27.8-30.1 43.4-43.4l107.6 51.1 12.5-6.6c16.5-8.7 33.6-15.9 51.2-21.2l13.5-4.2 39.9-112.3c10.1-0.9 20.3-1.4 30.6-1.4s20.5 0.5 30.6 1.4l39.9 112.3 13.5 4.2c17.6 5.3 34.7 12.5 51.2 21.2l12.5 6.6 107.6-51.1c15.5 13.3 30.1 27.8 43.4 43.4l-51.1 107.6 6.6 12.5c8.7 16.5 15.9 33.6 21.2 51.2l4.2 13.5 112.3 39.9c1.8 20.2 1.8 41 0 61.3l-112.3 39.9-4.2 13.5c-5.3 17.5-12.5 34.7-21.2 51.1l-6.6 12.5 51.1 107.6c-13.3 15.5-27.8 30.1-43.4 43.4l-107.6-51.1-12.5 6.6c-16.5 8.7-33.6 15.9-51.2 21.2l-13.5 4.2-39.9 112.3c-10.1 0.9-20.3 1.4-30.6 1.4s-20.5-0.5-30.6-1.4l-39.9-112.3-13.5-4.2c-17.6-5.3-34.7-12.5-51.2-21.2l-12.5-6.6-107.6 51.1c-15.5-13.3-30.1-27.8-43.4-43.4l51.1-107.6-6.6-12.5c-8.7-16.4-15.9-33.6-21.2-51.1l-4.2-13.5-112.3-39.9zM512 510c69.5 0 126-56.5 126-126s-56.5-126-126-126-126 56.5-126 126 56.5 126 126 126m0 56c-100.5 0-182-81.5-182-182s81.5-182 182-182 182 81.5 182 182-81.5 182-182 182z"  horiz-adv-x="1024" />

    
    <glyph glyph-name="shigongzhong" unicode="&#58999;" d="M904 720H120c-30.9 0-56-25.1-56-56v-588c0-15.5 12.5-28 28-28s28 12.5 28 28v84h784v-84c0-15.5 12.5-28 28-28s28 12.5 28 28V664c0 30.9-25.1 56-56 56z m-210-56v-112H540V664h154z m-210 0v-112H330V664h154z m-364 0h154v-112H120V664z m784-448H120V496h784v-280zM750 552V664h154v-112H750zM264.7 424.5l112-168c5.4-8.1 14.3-12.5 23.3-12.5 5.4 0 10.8 1.5 15.5 4.7 12.9 8.6 16.4 26 7.8 38.8l-112 168c-8.6 12.9-26.1 16.3-38.8 7.8-12.9-8.6-16.4-26-7.8-38.8zM544.7 256.5c5.4-8.1 14.3-12.5 23.3-12.5 5.4 0 10.8 1.5 15.5 4.7 12.9 8.6 16.4 26 7.8 38.8l-112 168c-8.6 12.9-26.1 16.3-38.8 7.8-12.9-8.6-16.4-26-7.8-38.8l112-168zM712.7 256.5c5.4-8.1 14.3-12.5 23.3-12.5 5.4 0 10.8 1.5 15.5 4.7 12.9 8.6 16.4 26 7.8 38.8l-112 168c-8.7 12.9-26.1 16.3-38.8 7.8-12.9-8.6-16.4-26-7.8-38.8l112-168z"  horiz-adv-x="1024" />

    
    <glyph glyph-name="shipinzhibo" unicode="&#59000;" d="M736.1 664v-560H120V664h616.1m0 56H120c-30.9 0-56-25.1-56-56v-560c0-30.9 25.1-56 56-56h616.1c30.9 0 56 25.1 56 56V664c0 30.9-25.1 56-56 56zM904 547.9v-327.8l-111.9 52.5V495.4L904 547.9m28 72.1c-3.9 0-8-0.8-11.9-2.7l-184-86.3v-294l184-86.3c3.9-1.8 8-2.7 11.9-2.7 14.7 0 28 11.9 28 28V591.9c0 16.2-13.3 28.1-28 28.1zM344 440c30.9 0 56-25.1 56-56s-25.1-56-56-56-56 25.1-56 56 25.1 56 56 56m0 56c-61.9 0-112-50.1-112-112s50.1-112 112-112 112 50.1 112 112-50.1 112-112 112z"  horiz-adv-x="1024" />

    
    <glyph glyph-name="shouji" unicode="&#59001;" d="M736 776v-784H288V776h448m0 56H288c-30.9 0-56-25.1-56-56v-784c0-30.9 25.1-56 56-56h448c30.9 0 56 25.1 56 56V776c0 30.9-25.1 56-56 56zM746.2 664H288v-56h458.2v56zM741.1 160H282.9v-56h458.2v56zM512 76c-15.5 0-28-12.5-28-28s12.5-28 28-28 28 12.5 28 28-12.5 28-28 28z"  horiz-adv-x="1024" />

    
    <glyph glyph-name="shuaxin" unicode="&#59002;" d="M933.8 355.9c-15.3 2.1-29.4-8.7-31.5-24-28.8-214.5-226-365.2-440.6-336.4s-365.2 226-336.4 440.6c28.8 214.6 226 365.2 440.6 336.4 113.2-15.2 208-77.7 268.5-164.5H681.8c-15.5 0-28-12.5-28-28s12.5-28 28-28h195.8c30.9 0 56.2 25.2 56.2 56.2V804c0 15.5-12.5 28-28 28s-28-12.5-28-28l-0.1-160.5C808.4 740.9 701.3 810.8 573.4 828 328.2 860.9 102.8 688.7 69.9 443.5 37 198.3 209.1-27.1 454.3-60S925 79.3 957.9 324.5c2 15.3-8.7 29.4-24.1 31.4z"  horiz-adv-x="1024" />

    
    <glyph glyph-name="shoucang" unicode="&#59003;" d="M512 728.4l98.2-203 12.9-26.7 29.3-4.3 221.8-32.9L712.9 301l-20.5-20.4 4.8-28.6L735 26.9 538.5 132.4 512 146.6l-26.5-14.2L289 26.9 326.8 252l4.8 28.6-20.5 20.4-161.3 160.5 221.8 32.9 29.3 4.3 12.9 26.7 98.2 203m0 91.9c-10.2 0-20.4-5.4-25.6-16.3l-123-254.2L88.5 509c-23.4-3.5-32.8-32.9-15.8-49.8l198.9-197.9-47-279.5c-3.2-18.9 11.5-34.2 28.2-34.2 4.4 0 8.9 1.1 13.3 3.4L512 83.1l245.9-131.9c4.4-2.3 8.9-3.4 13.3-3.4 16.7 0 31.3 15.3 28.2 34.2l-47 279.5 198.9 197.9c17 16.9 7.6 46.3-15.8 49.8L660.6 550l-123 254c-5.2 10.9-15.4 16.3-25.6 16.3z"  horiz-adv-x="1024" />

    
    <glyph glyph-name="sousuo" unicode="&#59004;" d="M920.4 12.4L734.9 197.9c55.4 63.9 89.1 147 89.1 238.1 0 201-163 364-364 364S96 637 96 436s163-364 364-364c91.2 0 174.3 33.7 238.1 89.1l185.5-185.5c4.7-4.7 11.2-7.6 18.4-7.6 14.4 0 26 11.6 26 26 0 7.2-2.9 13.7-7.6 18.4zM460 124c-172 0-312 140-312 312s140 312 312 312 312-140 312-312-140-312-312-312z"  horiz-adv-x="1024" />

    
    <glyph glyph-name="tianjia" unicode="&#59005;" d="M898.3 413.7H541.7V770.3c0 16.4-13.3 29.7-29.7 29.7s-29.7-13.3-29.7-29.7v-356.6H125.7c-16.4 0-29.7-13.3-29.7-29.7s13.3-29.7 29.7-29.7h356.6v-356.6c0-16.4 13.3-29.7 29.7-29.7s29.7 13.3 29.7 29.7V354.3h356.6c16.4 0 29.7 13.3 29.7 29.7s-13.3 29.7-29.7 29.7z"  horiz-adv-x="1024" />

    
    <glyph glyph-name="tongji" unicode="&#59006;" d="M932 48H792V496c0 30.9-25.1 56-56 56H624V664c0 30.9-25.1 56-56 56H456c-30.9 0-56-25.1-56-56v-336H288c-30.9 0-56-25.1-56-56v-224H120V748c0 15.5-12.5 28-28 28s-28-12.5-28-28v-700c0-30.9 25.1-56 56-56h812c15.5 0 28 12.5 28 28s-12.5 28-28 28z m-644 0V272h112v-224H288z m168 0V664h112v-616H456z m168 0V496h112v-448H624z"  horiz-adv-x="1024" />

    
    <glyph glyph-name="tongxunlu" unicode="&#59007;" d="M876 800H200c-28.7 0-52-23.3-52-52v-156h-26c-14.4 0-26-11.6-26-26s11.6-26 26-26h26v-130h-26c-14.4 0-26-11.6-26-26s11.6-26 26-26h26v-130h-26c-14.4 0-26-11.6-26-26s11.6-26 26-26h26v-156c0-28.7 23.3-52 52-52h676c28.7 0 52 23.3 52 52V748c0 28.7-23.3 52-52 52z m0-780H200V176h26c14.4 0 26 11.6 26 26s-11.6 26-26 26h-26V358h26c14.4 0 26 11.6 26 26s-11.6 26-26 26h-26V540h26c14.4 0 26 11.6 26 26s-11.6 26-26 26h-26V748h676v-728zM554.8 566c6 0 12.2-0.6 18.3-1.9 31.9-6.7 57.5-34.2 62.5-66.9 6-40.1-16.3-69-39.2-82.7-16.8-10-26.6-28.7-25.2-48.2 1.4-19.5 13.6-36.7 31.6-44.3 45.4-19.2 80.7-64.8 94.4-119.9H412.5c13.7 55.1 49 100.8 94.4 119.9 18.1 7.6 30.3 24.8 31.6 44.3 1.4 19.5-8.4 38.2-25.2 48.2-25.2 15-40.2 41.1-40.2 69.8 0 45 36.7 81.7 81.7 81.7m0 52c-73.9 0-133.7-59.9-133.7-133.7 0-48.8 26.5-91.1 65.5-114.4-68.7-29-120-100.3-130.4-187.1-2.1-17.4 11.7-32.7 29.2-32.7h338.7c17.5 0 31.3 15.4 29.2 32.7-10.3 86.7-61.6 158-130.3 187 44.5 26.6 72.6 77.7 64 135.1-8.1 53.9-49.9 98.9-103.2 110.1-9.8 2-19.5 3-29 3z"  horiz-adv-x="1024" />

    
    <glyph glyph-name="tongjibaobiao" unicode="&#59008;" d="M904 776H120c-30.9 0-56-25.1-56-56v-672c0-30.9 25.1-56 56-56h784c30.9 0 56 25.1 56 56V720c0 30.9-25.1 56-56 56z m0-728H120V603.3h784V48zM120 664v56h784v-56H120zM232 188c0-15.5 12.5-28 28-28 9 0 16.6 4.5 21.8 11.1l0.4-0.3 179.7 231.7 123.3-82.2c12.4-8.3 27.2-11.4 42.1-8.3 14.7 3 27.3 11.4 33.5 21.1l124.5 144.7-0.2 0.2c4.2 4.9 7 11.1 7 18.1 0 15.5-12.5 28-28 28-8.5 0-15.8-4-21-9.9l-0.2 0.2-126.7-147.6L492.9 449c-24.6 16.3-56.6 11.2-75-12l-180-231.9 0.4-0.3c-3.7-4.7-6.3-10.3-6.3-16.8z"  horiz-adv-x="1024" />

    
    <glyph glyph-name="tupian" unicode="&#59009;" d="M904 720v-672H120V720h784m0 56H120c-30.9 0-56-25.1-56-56v-672c0-30.9 25.1-56 56-56h784c30.9 0 56 25.1 56 56V720c0 30.9-25.1 56-56 56zM204 188c-5.4 0-10.8 1.5-15.5 4.7-12.9 8.6-16.4 26-7.8 38.8l180.1 270.2c15.1 22.6 40.3 36.6 67.5 37.4 27.2 2.5 53.2-11.8 69.6-33.6l93.7-125c14 21.1 36.6 34.7 62.3 37.1 29.4 2.5 57.2-9.8 74.8-33.2l113.7-151.6c9.2-12.4 6.7-29.9-5.6-39.2-12.3-9.3-29.9-6.7-39.2 5.6L683.9 350.8c-8.4 11.3-20.2 11.4-24.9 11-4.6-0.4-16.2-2.8-22.5-15.4l-15.5-31c-4.3-8.7-12.9-14.5-22.5-15.4-9.7-0.5-19.1 3.3-24.9 11.1L453 471.9c-5.5 7.4-14.4 11.4-23.2 11.2-9.2-0.3-17.4-4.8-22.5-12.5l-180-270.1C221.9 192.4 213 188 204 188zM792 608c-30.9 0-56-25.1-56-56s25.1-56 56-56 56 25.1 56 56-25.1 56-56 56z"  horiz-adv-x="1024" />

    
    <glyph glyph-name="wenjian" unicode="&#59010;" d="M468.3 692l17.4-69.6 10.6-42.4H904v-504H120V692h348.3m0 56H120c-30.9 0-56-25.1-56-56v-616c0-30.9 25.1-56 56-56h784c30.9 0 56 25.1 56 56V580c0 30.9-25.1 56-56 56H540l-17.4 69.6c-6.2 24.9-28.6 42.4-54.3 42.4z"  horiz-adv-x="1024" />

    
    <glyph glyph-name="xitongjiankong" unicode="&#59011;" d="M932 48H120V748c0 15.5-12.5 28-28 28s-28-12.5-28-28v-700c0-30.9 25.1-56 56-56h812c15.5 0 28 12.5 28 28s-12.5 28-28 28zM204 244h66.7c21.3 0 40.5 11.8 50.1 31l26.6 53.4 54.9-82.3c10.5-15.8 27.9-25 46.5-25 2.1 0 4.3 0.2 6.4 0.4 21 2.4 38.7 16.2 46.1 36L625.6 589l133.3-311c8.9-20.6 29-33.9 51.5-33.9H876c15.5 0 28 12.5 28 28s-12.5 28-28 28h-65.5L677.2 611c-8.9 20.7-28.9 33.9-51.4 33.9h-1.4c-23-0.5-43-14.8-51.1-36.3L449 277l-55 82.4c-11.2 16.8-30 26-50 24.8-20.1-1.3-37.6-12.8-46.6-30.8L270.7 300H204c-15.5 0-28-12.5-28-28s12.5-28 28-28z"  horiz-adv-x="1024" />

    
    <glyph glyph-name="xiazai" unicode="&#59012;" d="M840.5-4.3h-657c-16.5 0-29.9-13.4-29.9-29.9s13.4-29.9 29.9-29.9h657.1c16.5 0 29.9 13.4 29.9 29.9-0.1 16.6-13.5 29.9-30 29.9zM631.5 772.3V354.2H763.1L512 126.1l-251.2 228h131.7V772.3h239m0 59.7h-239c-33 0-59.7-26.7-59.7-59.7v-358.4H183.5c-26.6 0-39.9-32.2-21.1-51l328.5-298.2c5.8-5.8 13.5-8.7 21.1-8.7s15.3 2.9 21.1 8.7l328.5 298.2c18.8 18.8 5.5 51-21.1 51H691.2V772.3c0 33-26.7 59.7-59.7 59.7z"  horiz-adv-x="1024" />

    
    <glyph glyph-name="xihuan" unicode="&#59013;" d="M698.4 737.7c61.8 0 120.1-28.3 160-77.7 68.1-84.2 58.1-215.1-22.6-297.8l-324-331.9-323.6 331.9C107.5 445 97.5 575.8 165.6 660c39.9 49.4 98.2 77.7 160 77.7 55.2 0 107.2-22.1 146.3-62.3l40.1-41.1 40.1 41.1c39.2 40.2 91.1 62.3 146.3 62.3m0 56c-67.5 0-134.9-26.4-186.4-79.2-51.5 52.8-118.9 79.2-186.4 79.2-75.3 0-150.5-32.8-203.6-98.5C33.4 585.5 49.6 424 148.1 323.1l323.6-331.9c11-11.3 25.7-17 40.3-17s29.2 5.7 40.3 17l323.6 331.9c98.5 101 114.7 262.4 26.1 372.1-53.1 65.7-128.3 98.5-203.6 98.5z"  horiz-adv-x="1024" />

    
    <glyph glyph-name="xianchangguanli" unicode="&#59014;" d="M549.8 721.9l-32.2-216.7-10.8-65.2H864L474.2 46.1l32.2 216.7 10.9 65.2H160l389.8 393.9M591.9 832c-6.8 0-13.7-2.5-19.4-8.2L72.2 319.4C54.7 301.9 67.1 272 91.8 272h359.3l-46.7-303.6c-3.1-18.7 11.8-32.4 27.6-32.4 6.8 0 13.7 2.5 19.4 8.2l500.4 504.4c17.5 17.5 5.1 47.4-19.6 47.4H572.9l46.7 303.6c3.1 18.6-11.9 32.4-27.7 32.4z"  horiz-adv-x="1024" />

    
    <glyph glyph-name="xiangshang" unicode="&#59015;" d="M96 176c0 7 2.4 13.9 7.4 19.6l387.2 417c11.7 12.2 31.2 12.2 42.9 0l387.2-417c10.8-12.2 9.7-31.1-2.8-41.9-12.4-10.9-31.1-9.6-41.9 2.8L512 544.6 148.1 156.5c-10.8-12.4-29.5-13.6-41.9-2.8C99.4 159.5 96 167.8 96 176z"  horiz-adv-x="1024" />

    
    <glyph glyph-name="xiangji" unicode="&#59016;" d="M904 664H766.9l-32.6 72.7c-7.3 23.4-29 39.3-53.5 39.3H343.2c-24.5 0-46.1-15.9-53.5-39.3L257.1 664H120c-30.9 0-56-25.1-56-56v-560c0-30.9 25.1-56 56-56h784c30.9 0 56 25.1 56 56V608c0 30.9-25.1 56-56 56z m-563.2 49.8l1.4 3 1 3.2h337.7l1-3.2 1.4-3 22.3-49.8h-387l22.2 49.8zM904 48H120V608h784v-560zM512 524c-108.2 0-196-87.8-196-196s87.8-196 196-196 196 87.8 196 196-87.8 196-196 196z m0-336c-77.2 0-140 62.8-140 140s62.8 140 140 140 140-62.8 140-140-62.8-140-140-140zM764 524m-28 0a28 28 0 1 1 56 0 28 28 0 1 1-56 0Z"  horiz-adv-x="1024" />

    
    <glyph glyph-name="xiangxia" unicode="&#59017;" d="M928 592c0-7-2.4-13.9-7.4-19.6l-387.2-417c-11.7-12.2-31.2-12.2-42.9 0l-387.2 417c-10.8 12.2-9.7 31.1 2.8 41.9 12.4 10.9 31.1 9.6 41.9-2.8l364-388.1 363.9 388.2c10.8 12.4 29.5 13.6 41.9 2.8 6.8-5.9 10.2-14.2 10.2-22.4z"  horiz-adv-x="1024" />

    
    <glyph glyph-name="xiangyou" unicode="&#59018;" d="M304 800c7 0 13.9-2.4 19.6-7.4l417-387.2c12.2-11.7 12.2-31.2 0-42.9l-417-387.2c-12.2-10.8-31.1-9.7-41.9 2.8-10.9 12.4-9.6 31.1 2.8 41.9l388.1 364-388.1 363.9c-12.4 10.8-13.6 29.5-2.8 41.9C287.5 796.6 295.8 800 304 800z"  horiz-adv-x="1024" />

    
    <glyph glyph-name="xiangzuo" unicode="&#59019;" d="M720-32c-7 0-13.9 2.4-19.6 7.4l-417 387.2c-12.2 11.7-12.2 31.2 0 42.9l417 387.2c12.2 10.8 31.1 9.7 41.9-2.8 10.9-12.4 9.6-31.1-2.8-41.9L351.4 384l388.2-363.9c12.4-10.8 13.6-29.5 2.8-41.9-5.9-6.8-14.2-10.2-22.4-10.2z"  horiz-adv-x="1024" />

    
    <glyph glyph-name="xiangmuguanli" unicode="&#59020;" d="M848 776v-784H176V776h672m0 56H176c-30.9 0-56-25.1-56-56v-784c0-30.9 25.1-56 56-56h672c30.9 0 56 25.1 56 56V776c0 30.9-25.1 56-56 56zM624 776v-56H400v56h224m56 56H344v-112c0-30.9 25.1-56 56-56h224c30.9 0 56 25.1 56 56V832zM708 496H316c-15.5 0-28 12.5-28 28s12.5 28 28 28h392c15.5 0 28-12.5 28-28s-12.5-28-28-28zM708 328H316c-15.5 0-28 12.5-28 28s12.5 28 28 28h392c15.5 0 28-12.5 28-28s-12.5-28-28-28zM484 160H316c-15.5 0-28 12.5-28 28s12.5 28 28 28h168c15.5 0 28-12.5 28-28s-12.5-28-28-28z"  horiz-adv-x="1024" />

    
    <glyph glyph-name="xiaodianxiang" unicode="&#59021;" d="M848 608v-616H176V608h672m56 56H120v-672c0-30.9 25.1-56 56-56h672c30.9 0 56 25.1 56 56V664zM868.1 776l28-112H127.9l28 112h712.2m0 56H155.9c-25.7 0-48.1-17.5-54.3-42.4L64.8 642.8c-4.4-17.7 9-34.8 27.2-34.8h840c18.2 0 31.6 17.1 27.2 34.8l-36.7 146.8C916.2 814.5 893.8 832 868.1 832zM372 440c15.4 0 28-12.6 28-28s-12.6-28-28-28-28 12.6-28 28 12.6 28 28 28m0 56c-46.4 0-84-37.6-84-84s37.6-84 84-84 84 37.6 84 84-37.6 84-84 84zM652 440c15.4 0 28-12.6 28-28s-12.6-28-28-28-28 12.6-28 28 12.6 28 28 28m0 56c-46.4 0-84-37.6-84-84s37.6-84 84-84 84 37.6 84 84-37.6 84-84 84zM372 216c15.4 0 28-12.6 28-28s-12.6-28-28-28-28 12.6-28 28 12.6 28 28 28m0 56c-46.4 0-84-37.6-84-84s37.6-84 84-84 84 37.6 84 84-37.6 84-84 84zM652 216c15.4 0 28-12.6 28-28s-12.6-28-28-28-28 12.6-28 28 12.6 28 28 28m0 56c-46.4 0-84-37.6-84-84s37.6-84 84-84 84 37.6 84 84-37.6 84-84 84z"  horiz-adv-x="1024" />

    
    <glyph glyph-name="xiaoxi" unicode="&#59022;" d="M512 776c11.5 0 22.5-3.5 31.9-10.1 9.3-6.6 16.3-15.7 20.3-26.3l9.4-25.2 25.6-8.4c27.7-9.1 53.7-22.4 77.3-39.6 23.4-17 44-37.4 61.1-60.7C773.2 557.5 792 500.2 792 440v-241l9.4-14.1 54-80.9H630.2L617 66.8c-7.7-21.7-21.6-40.3-40.2-53.8-19-13.8-41.4-21-64.8-21s-45.8 7.2-64.7 20.9c-18.6 13.5-32.5 32.1-40.2 53.8L393.8 104H168.6l54 80.9L232 199V440c0 60.2 18.8 117.5 54.4 165.7 17.2 23.3 37.7 43.7 61.1 60.7 23.7 17.2 49.7 30.5 77.3 39.6l25.6 8.4 9.4 25.2c4 10.7 11 19.8 20.3 26.3 9.4 6.6 20.4 10.1 31.9 10.1m0 56c-48 0-88.6-30.4-104.6-72.8C273.1 715.2 176 589 176 440v-224l-54-80.9c-24.8-37.2 1.9-87.1 46.6-87.1h185.7C377.4-17.1 439-64 512-64s134.6 46.9 157.7 112h185.7c44.7 0 71.4 49.8 46.6 87.1L848 216V440c0 149-97.1 275.2-231.4 319.2C600.6 801.6 560 832 512 832zM680 104H344v-56h336v56z"  horiz-adv-x="1024" />

    
    <glyph glyph-name="xinwen" unicode="&#59023;" d="M904 720H120c-30.9 0-56-25.1-56-56v-560c0-30.9 25.1-56 56-56h784c30.9 0 56 25.1 56 56V664c0 30.9-25.1 56-56 56z m0-616H120V664h784v-560zM232 160h168c30.9 0 56 25.1 56 56V384c0 30.9-25.1 56-56 56H232c-30.9 0-56-25.1-56-56v-168c0-30.9 25.1-56 56-56z m0 224h168v-168H232V384zM204 524h616c15.5 0 28 12.5 28 28s-12.5 28-28 28H204c-15.5 0-28-12.5-28-28s12.5-28 28-28zM820 440H540c-15.5 0-28-12.5-28-28s12.5-28 28-28h280c15.5 0 28 12.5 28 28s-12.5 28-28 28zM820 328H540c-15.5 0-28-12.5-28-28s12.5-28 28-28h280c15.5 0 28 12.5 28 28s-12.5 28-28 28zM820 216H540c-15.5 0-28-12.5-28-28s12.5-28 28-28h280c15.5 0 28 12.5 28 28s-12.5 28-28 28z"  horiz-adv-x="1024" />

    
    <glyph glyph-name="youjian" unicode="&#59024;" d="M904 720H120c-30.9 0-56-25.1-56-56v-560c0-30.9 25.1-56 56-56h784c30.9 0 56 25.1 56 56V664c0 30.9-25.1 56-56 56z m0-56v-81.6L522.9 419.2c-6.9-2.9-14.9-3-21.9 0.1L120 582.4V664h784zM120 104V521.5l358.9-153.8c10.6-4.5 21.9-6.8 33.1-6.8 11.3 0 22.6 2.3 33.1 6.8L904 521.5V104H120z"  horiz-adv-x="1024" />

    
    <glyph glyph-name="yonghu" unicode="&#59025;" d="M512 776c14.5 0 29.3-1.6 43.9-4.6 78.4-16.4 141.7-84 153.7-164.2 12.3-82-24.4-159.5-95.8-202.2-18.1-10.8-28.6-30.9-27.2-52 1.5-21.1 14.6-39.5 34.1-47.7 115.8-48.9 198.6-169 215.5-313.3H187.3c17.4 144.3 100.1 264.4 215.9 313.3 19.4 8.2 32.6 26.7 34.1 47.7 1.5 21.1-9 41.1-27.2 52-61.4 36.7-98.1 100.6-98.1 171 0 110.3 89.7 200 200 200m0 56c-141.4 0-256-114.6-256-256 0-93.5 50.6-174.4 125.5-219.1C250 301.3 151.7 164.8 131.7-1.3c-4-33.3 22.5-62.7 56-62.7h648.5c33.5 0 60 29.4 56 62.7-20 166.1-118.2 302.7-249.7 358.2 85.2 50.9 139 148.7 122.5 258.6-15.5 103.1-95.5 189.3-197.6 210.7-18.8 3.9-37.3 5.8-55.4 5.8z"  horiz-adv-x="1024" />

    
    <glyph glyph-name="yuyin" unicode="&#59026;" d="M512 160c139.2 0 252 112.8 252 252V580c0 139.2-112.8 252-252 252S260 719.2 260 580v-168c0-139.2 112.8-252 252-252zM316 468V580c0 108.1 87.9 196 196 196s196-87.9 196-196v-168c0-108.1-87.9-196-196-196s-196 87.9-196 196v56zM876 412c0 15.5-12.5 28-28 28s-28-12.5-28-28c0-169.8-138.2-308-308-308S204 242.2 204 412c0 15.5-12.5 28-28 28s-28-12.5-28-28c0-191.6 148.1-348.2 336-362.6V-8H372c-15.5 0-28-12.5-28-28s12.5-28 28-28h280c15.5 0 28 12.5 28 28s-12.5 28-28 28H540v57.4c187.9 14.4 336 171 336 362.6z"  horiz-adv-x="1024" />

    
    <glyph glyph-name="zhankai" unicode="&#59027;" d="M601.1 324.6c-7.6 0-15.2-2.9-21-8.7-11.6-11.6-11.6-30.4 0-42l288.4-288.4c5.8-5.8 13.4-8.7 21-8.7s15.2 2.9 21 8.7c11.6 11.6 11.6 30.4 0 42L622.2 315.9c-5.8 5.8-13.5 8.7-21.1 8.7zM928 27.4V176c0 7.6-2.9 15.2-8.7 21s-13.4 8.7-21 8.7-15.2-2.9-21-8.7-8.7-13.4-8.7-21v-148.6H720c-7.6 0-15.2-2.9-21-8.7s-8.7-13.4-8.7-21 2.9-15.2 8.7-21 13.4-8.7 21-8.7h148.6c32.8 0 59.4 26.6 59.4 59.4zM134.4 791.3c-7.6 0-15.2-2.9-21-8.7-11.6-11.6-11.6-30.4 0-42l288.4-288.4c5.8-5.8 13.4-8.7 21-8.7s15.2 2.9 21 8.7c11.6 11.6 11.6 30.4 0 42L155.4 782.6c-5.8 5.8-13.4 8.7-21 8.7zM96 740.6V592c0-7.6 2.9-15.2 8.7-21 5.8-5.8 13.4-8.7 21-8.7s15.2 2.9 21 8.7c5.8 5.8 8.7 13.4 8.7 21V740.6H304c7.6 0 15.2 2.9 21 8.7 5.8 5.8 8.7 13.4 8.7 21s-2.9 15.2-8.7 21c-5.8 5.8-13.4 8.7-21 8.7H155.4C122.6 800 96 773.4 96 740.6z"  horiz-adv-x="1024" />

    
    <glyph glyph-name="zhuye" unicode="&#59028;" d="M568 160v-168H456V160h112m0 56H456c-30.9 0-56-25.1-56-56v-224h224V160c0 30.9-25.1 56-56 56zM512 776l1.7-1.8 352-361.9H792V-8H232V412.3h-73.7L512 776c-0.1 0 0 0 0 0m0 56c-15.4 0-30.7-6.3-41.9-18.8l-399-410.3c-7.1-8-9.3-19.7-4.6-30.1s14.8-16.5 25.5-16.5h84V-8c0-30.9 25.1-56 56-56h560c30.9 0 56 25.1 56 56V356.3h84c10.7 0 20.9 6.2 25.5 16.5 4.7 10.4 2.5 22.1-4.6 30.1l-399 410.3C542.7 825.7 527.4 832 512 832z"  horiz-adv-x="1024" />

    
    <glyph glyph-name="zhuxiao" unicode="&#59029;" d="M512 327.7c-15.5 0-28 12.5-28 28V804c0 15.5 12.5 28 28 28s28-12.5 28-28v-448.2c0-15.5-12.5-28.1-28-28.1zM662.1 748.4c-14.5 5.5-30.7-1.7-36.2-16.2-5.5-14.4 1.7-30.6 16.1-36.1 188-71.9 282-282.5 210.2-470.3-39.4-103-120.6-177.5-216.8-212.2-6.3-2.3-12.6-4.3-18.9-6.2-5.3-1.6-10.5-3.2-15.8-4.5-6.1-1.5-12.3-2.8-18.4-4-5.6-1.1-11.3-2.3-17-3.1-5.9-0.9-11.8-1.4-17.8-2-5.9-0.6-11.8-1.2-17.7-1.5-5.9-0.3-11.8-0.3-17.7-0.3-5.9 0-11.8 0-17.7 0.3-5.9 0.3-11.8 0.9-17.7 1.5-5.9 0.6-11.8 1.1-17.8 2-5.7 0.8-11.3 2-17 3.1-6.1 1.2-12.3 2.5-18.4 4-5.3 1.3-10.6 2.9-15.8 4.5-6.3 1.9-12.7 3.9-18.9 6.2-96.2 34.7-177.4 109.2-216.8 212.2-72 187.8 22 398.4 209.9 470.2h0.1c14.4 5.6 21.6 21.7 16.1 36.1-5.5 14.4-21.7 21.6-36.1 16.2h-0.1C145.1 665.4 36.6 422.5 119.5 205.7 163.9 89.6 254.4 5 362-36.2l-0.2-0.4c2.6-1 5.2-1.6 7.7-2.5 7.2-2.6 14.5-4.9 21.9-7.1 6.1-1.8 12.2-3.6 18.3-5.2 7-1.8 14.2-3.2 21.3-4.6 6.5-1.3 13-2.6 19.5-3.6 6.8-1 13.7-1.7 20.6-2.4 6.8-0.7 13.5-1.4 20.3-1.7 6.8-0.3 13.6-0.3 20.5-0.3 6.8 0 13.7 0 20.5 0.3 6.8 0.3 13.5 1 20.3 1.7 6.9 0.7 13.8 1.3 20.6 2.4 6.5 1 13 2.3 19.5 3.6 7.1 1.4 14.2 2.8 21.3 4.6 6.1 1.5 12.2 3.4 18.3 5.2 7.4 2.2 14.7 4.5 21.9 7.1 2.6 0.9 5.2 1.5 7.7 2.5l-0.2 0.4C769.6 5 860.1 89.6 904.5 205.7c82.9 216.8-25.6 459.7-242.4 542.7z"  horiz-adv-x="1024" />

    
    <glyph glyph-name="ziliaoku" unicode="&#59030;" d="M904 720v-112H120V720h784m0 56H120c-30.9 0-56-25.1-56-56v-112c0-30.9 25.1-56 56-56h784c30.9 0 56 25.1 56 56V720c0 30.9-25.1 56-56 56zM820 664m-28 0a28 28 0 1 1 56 0 28 28 0 1 1-56 0ZM708 664m-28 0a28 28 0 1 1 56 0 28 28 0 1 1-56 0ZM904 440v-112H120V440h784m0 56H120c-30.9 0-56-25.1-56-56v-112c0-30.9 25.1-56 56-56h784c30.9 0 56 25.1 56 56V440c0 30.9-25.1 56-56 56zM820 384m-28 0a28 28 0 1 1 56 0 28 28 0 1 1-56 0ZM596 664m-28 0a28 28 0 1 1 56 0 28 28 0 1 1-56 0ZM596 104m-28 0a28 28 0 1 1 56 0 28 28 0 1 1-56 0ZM708 384m-28 0a28 28 0 1 1 56 0 28 28 0 1 1-56 0ZM904 160v-112H120V160h784m0 56H120c-30.9 0-56-25.1-56-56v-112c0-30.9 25.1-56 56-56h784c30.9 0 56 25.1 56 56V160c0 30.9-25.1 56-56 56zM820 104m-28 0a28 28 0 1 1 56 0 28 28 0 1 1-56 0ZM708 104m-28 0a28 28 0 1 1 56 0 28 28 0 1 1-56 0Z"  horiz-adv-x="1024" />

    
    <glyph glyph-name="zidingyibiaodan" unicode="&#59031;" d="M316 216h392c15.5 0 28-12.5 28-28s-12.5-28-28-28H316c-15.5 0-28 12.5-28 28s12.5 28 28 28zM316 384h392c15.5 0 28-12.5 28-28s-12.5-28-28-28H316c-15.5 0-28 12.5-28 28s12.5 28 28 28zM600.8 776L848 528.8V-8H176V776h424.8m0 56H176c-30.9 0-56-25.1-56-56v-784c0-30.9 25.1-56 56-56h672c30.9 0 56 25.1 56 56V528.8c0 14.9-5.9 29.1-16.4 39.6L640.4 815.6A55.924 55.924 0 0 1 600.8 832zM624 776h-56v-252c0-15.5 12.5-28 28-28h28V776zM848 552H568v-28c0-15.5 12.5-28 28-28h252v56z"  horiz-adv-x="1024" />

    
    <glyph glyph-name="zuzhijigou" unicode="&#59032;" d="M876 280H772v78c0 28.7-23.3 52-52 52H538v78h78c28.7 0 52 23.3 52 52V748c0 28.7-23.3 52-52 52H408c-28.7 0-52-23.3-52-52v-208c0-28.7 23.3-52 52-52h78v-78H304c-28.7 0-52-23.3-52-52v-78H148c-28.7 0-52-23.3-52-52v-208c0-28.7 23.3-52 52-52h208c28.7 0 52 23.3 52 52V228c0 28.7-23.3 52-52 52h-52v78h416v-78h-52c-28.7 0-52-23.3-52-52v-208c0-28.7 23.3-52 52-52h208c28.7 0 52 23.3 52 52V228c0 28.7-23.3 52-52 52zM408 540V748h208v-208H408z m-52-312v-208H148V228h208z m520-208H668V228h208v-208z"  horiz-adv-x="1024" />

    
    <glyph glyph-name="xuegaotong" unicode="&#59033;" d="M876-8h-45.5L580.3 792.7C573 816.1 551.3 832 526.8 832h-29.7c-24.5 0-46.1-15.9-53.5-39.3L193.5-8H148c-15.5 0-28-12.5-28-28s12.5-28 28-28h728c15.5 0 28 12.5 28 28s-12.5 28-28 28zM666.8 328H357.2l35 112h239.7l34.9-112zM497.2 776h29.7l87.5-280H409.7l87.5 280z m-245-784l87.5 280h344.7l87.5-280H252.2z"  horiz-adv-x="1024" />

    
    <glyph glyph-name="ONLINEkaifa" unicode="&#59034;" d="M500.1 664c110 0 199.6-81.9 211.4-186.9 0.8 0 1.6 0.2 2.4 0.2 105 0 190.1-83.6 190.1-186.7 0-103-85.1-186.6-190.1-186.6H286.3C194.5 104 120 177.1 120 267.3c0 90.2 74.5 163.3 166.3 163.3h2.4c-0.9 7.8-2.4 15.3-2.4 23.3C286.3 570 382 664 500.1 664m0 56c-140 0-255.5-105.7-268.6-240.4C134.7 454.9 64 369.1 64 267.3 64 146.4 163.7 48 286.3 48h427.6C849.6 48 960 156.9 960 290.7c0 119-87.4 218.3-202.2 238.8C724.7 640.8 621 720 500.1 720z"  horiz-adv-x="1024" />

    
    <glyph glyph-name="PC" unicode="&#59035;" d="M904 776H120c-30.9 0-56-25.1-56-56v-560c0-30.9 25.1-56 56-56h280v-56h-84c-15.5 0-28-12.5-28-28s12.5-28 28-28h392c15.5 0 28 12.5 28 28s-12.5 28-28 28h-84v56h280c30.9 0 56 25.1 56 56V720c0 30.9-25.1 56-56 56zM568 48H456v56h112v-56z m336 112H120v56h784v-56zM120 272V720h784v-448H120z"  horiz-adv-x="1024" />

    
    <glyph glyph-name="yijian" unicode="&#59036;" d="M512 832h-5.8c-214.8-3-395.8-184-398.8-398.9C104.3 207 286.6 22.8 512 22.8c23.5 0 46.3 2.4 68.7 6.3L697-58.2c5.4-4 11.4-5.8 17.2-5.8 15 0 29 11.8 29 29V95.6C847.9 168.7 916.6 290 916.6 427.4 916.6 650.8 735.5 832 512 832z m198.1-689l-24.7-17.3v-102.9l-70 52.5-19.9 14.9L571 86c-21.3-3.7-40.6-5.4-58.9-5.4-93.5 0-181.3 36.7-247 103.3-65.7 66.6-101.1 154.8-99.8 248.5 2.5 182.7 159.1 339.3 341.8 341.8h5c191.2 0 346.8-155.6 346.8-346.8-0.1-113.1-55.7-219.4-148.8-284.4zM338.6 427.4m-28.9 0a28.9 28.9 0 1 1 57.8 0 28.9 28.9 0 1 1-57.8 0ZM512 427.4m-28.9 0a28.9 28.9 0 1 1 57.8 0 28.9 28.9 0 1 1-57.8 0ZM685.4 427.4m-28.9 0a28.9 28.9 0 1 1 57.8 0 28.9 28.9 0 1 1-57.8 0Z"  horiz-adv-x="1024" />

    


  </font>
</defs>
</svg>
