<?xml version="1.0" standalone="no"?>
<!DOCTYPE svg PUBLIC "-//W3C//DTD SVG 1.1//EN" "http://www.w3.org/Graphics/SVG/1.1/DTD/svg11.dtd" >
<!--
2013-9-30: Created.
-->
<svg>
<metadata>
Created by iconfont
</metadata>
<defs>

<font id="iconfont" horiz-adv-x="1024" >
  <font-face
    font-family="iconfont"
    font-weight="500"
    font-stretch="normal"
    units-per-em="1024"
    ascent="896"
    descent="-128"
  />
    <missing-glyph />
    
    <glyph glyph-name="-naozhong" unicode="&#59447;" d="M231.3-67.5c-12.4 12.4-12.4 32.8 0 45.2l78.6 78.6c12.4 12.4 32.8 12.4 45.2 0 12.4-12.4 12.4-32.8 0-45.2l-78.6-78.6c-12.4-12.5-32.7-12.5-45.2 0zM822.2-67.5c12.4 12.4 12.4 32.8 0 45.2l-78.6 78.6c-12.4 12.4-32.8 12.4-45.2 0-12.4-12.4-12.4-32.8 0-45.2l78.6-78.6c12.4-12.5 32.8-12.5 45.2 0zM514.2 352.8m-391.1 0a391.1 391.1 0 1 1 782.2 0 391.1 391.1 0 1 1-782.2 0ZM514.2 352.8m-327.2 0a327.2 327.2 0 1 1 654.4 0 327.2 327.2 0 1 1-654.4 0ZM337 775.4l-35.4 35.4c-63.2 63.2-166.7 63.2-230 0s-63.2-166.7 0-230l35.4-35.4 230 230zM71.6 810.8c-63.2-63.2-63.2-166.7 0-230l35.4-35.4 115 115L71.6 810.8zM691.4 775.4l35.4 35.4c63.2 63.2 166.7 63.2 230 0s63.2-166.7 0-230l-35.4-35.4-230 230zM956.8 810.8c63.2-63.2 63.2-166.7 0-230l-35.4-35.4-115 115L956.8 810.8zM514.2 352.2c-9.2 0-16.7 7.5-16.7 16.7V583c0 9.2 7.5 16.7 16.7 16.7s16.7-7.5 16.7-16.7v-214.1c0-9.2-7.5-16.7-16.7-16.7zM514.2 352.2H360c-9.2 0-16.7 7.5-16.7 16.7s7.5 16.7 16.7 16.7h154.2c9.2 0 16.7-7.5 16.7-16.7s-7.5-16.7-16.7-16.7zM514.2 363.4m-39.6 0a39.6 39.6 0 1 1 79.2 0 39.6 39.6 0 1 1-79.2 0ZM682.4 186.8c-2.1 0-4.3 0.8-5.9 2.4L468.7 397.1c-3.3 3.3-3.3 8.5 0 11.8 3.3 3.3 8.5 3.3 11.8 0l207.8-207.8c3.3-3.3 3.3-8.5 0-11.8-1.6-1.6-3.8-2.5-5.9-2.5zM514.2 363.4m-19 0a19 19 0 1 1 38 0 19 19 0 1 1-38 0Z"  horiz-adv-x="1024" />

    
    <glyph glyph-name="-dengpao" unicode="&#59448;" d="M830.4 573.3c0 175.6-142.4 318-318 318s-318-142.4-318-318c0-70.6 23-150.1 61.9-220 33.1-59.6 117.9-126.8 117.9-195v-108.9h276.5V158.29999999999995c0 68.2 84.7 135.4 117.9 195 38.8 69.9 61.8 149.4 61.8 220zM298.1 295.70000000000005c35.9-43.9 76.1-90.4 76.1-137.3v-108.9h276.5V158.29999999999995c0 68.2 84.7 135.4 117.9 195 32.9 59.2 54.3 125.3 60.1 187-99.3-130.8-296.6-225.4-530.6-244.6zM390.6 788.9a124.4 56 0 1 1 248.8 0 124.4 56 0 1 1-248.8 0ZM546.2-122.60000000000002h-67.6c-34.7 0-63 28.4-63 63v165c0 34.7 28.4 63 63 63h67.6c34.7 0 63-28.4 63-63v-165c0-34.6-28.4-63-63-63zM464.6 460.7h95.5v-35.3h-95.5zM611.3 425.4h-51.1v35.3h51.1c18.5 0 33.5 15 33.5 33.5s-15 33.5-33.5 33.5V563c37.9 0 68.8-30.9 68.8-68.8s-30.9-68.8-68.8-68.8zM464.6 425.4h-51.1c-37.9 0-68.8 30.9-68.8 68.8s30.8 68.8 68.8 68.8v-35.3c-18.5 0-33.5-15-33.5-33.5s15-33.5 33.5-33.5h51.1v-35.3zM482.3 158.60000000000002H447V494.2c0 18.5-15 33.5-33.5 33.5V563c37.9 0 68.8-30.9 68.8-68.8v-335.6zM577.8 158.60000000000002h-35.3V494.2c0 37.9 30.8 68.8 68.8 68.8v-35.3c-18.5 0-33.5-15-33.5-33.5v-335.6zM676 91.70000000000005H348.7c-33.9 0-61.6 27.7-61.6 61.6v6.5c0 33.9 27.7 61.6 61.6 61.6H676c33.9 0 61.6-27.7 61.6-61.6v-6.5c0-33.9-27.7-61.6-61.6-61.6zM637.2-42.299999999999955H387.5c-33.9 0-61.7 27.8-61.7 61.7V30c0 33.9 27.8 61.7 61.7 61.7h249.7c33.9 0 61.7-27.8 61.7-61.7v-10.5c0-34-27.7-61.8-61.7-61.8zM672.8 74.10000000000002H352c-9.7 0-17.6 7.9-17.6 17.6 0 9.7 7.9 17.6 17.6 17.6h320.8c9.7 0 17.6-7.9 17.6-17.6 0-9.7-7.9-17.6-17.6-17.6zM597.6-59.89999999999998H427.1c-9.7 0-17.6 7.9-17.6 17.6 0 9.7 7.9 17.6 17.6 17.6h170.5c9.7 0 17.6-7.9 17.6-17.6 0.1-9.7-7.8-17.6-17.6-17.6z"  horiz-adv-x="1024" />

    
    <glyph glyph-name="-feibiao" unicode="&#59449;" d="M201.9-95.5c-13.1 13.1-13.1 34.5 0 47.5l82.7 82.7c13.1 13.1 34.5 13.1 47.5 0 13.1-13.1 13.1-34.5 0-47.5l-82.7-82.7c-13-13.1-34.4-13.1-47.5 0zM823.1-95.5c13.1 13.1 13.1 34.5 0 47.5l-82.7 82.7c-13.1 13.1-34.5 13.1-47.5 0-13.1-13.1-13.1-34.5 0-47.5l82.7-82.7c13-13.1 34.4-13.1 47.5 0zM512.5 421.6m-459.4 0a459.4 459.4 0 1 1 918.8 0 459.4 459.4 0 1 1-918.8 0ZM829.2 89c87.9 83.7 142.7 201.7 142.7 332.6 0 122.8-48.3 234.3-126.8 316.7L512.5 405.7 829.2 89zM195.8 89C107.9 172.7 53.1 290.7 53.1 421.6c0 122.8 48.3 234.3 126.8 316.7l332.6-332.6L195.8 89zM512.5 421.6m-330.6 0a330.6 330.6 0 1 1 661.2 0 330.6 330.6 0 1 1-661.2 0ZM512.5 421.6m-211.3 0a211.3 211.3 0 1 1 422.6 0 211.3 211.3 0 1 1-422.6 0ZM512.5 421.6m-90 0a90 90 0 1 1 180 0 90 90 0 1 1-180 0ZM820.2 631l-78.4 22.6-22.6 78.5L850.5 863.4l22.7-78.4 78.4-22.6zM741.8 653.6L850.5 863.4l22.7-78.4 78.4-22.6zM504.1 398.4c-4.5 0-9 1.7-12.4 5.1-6.8 6.8-6.8 17.9 0 24.8l310.5 310.5c6.8 6.8 17.9 6.8 24.8 0s6.8-17.9 0-24.8L516.5 403.6c-3.4-3.5-7.9-5.2-12.4-5.2z"  horiz-adv-x="1024" />

    
    <glyph glyph-name="-jisuanqi" unicode="&#59450;" d="M836.8-103.29999999999995h-651c-19.3 0-35 15.7-35 35V828c0 19.3 15.7 35 35 35h651c19.3 0 35-15.7 35-35v-896.2c0-19.4-15.6-35.1-35-35.1zM753.6 560.2H268.1c-14 0-25.3 11.3-25.3 25.3V736.7c0 14 11.3 25.3 25.3 25.3h485.4c14.6 0 26.3-11.8 26.3-26.3v-149.2c0.1-14.5-11.7-26.3-26.2-26.3zM424.8 254.79999999999995H297.6c-31.3 0-56.7 25.4-56.7 56.7V438.6c0 31.3 25.4 56.7 56.7 56.7h127.2c31.3 0 56.7-25.4 56.7-56.7v-127.2c0-31.3-25.4-56.6-56.7-56.6zM723.2 254.79999999999995H596.1c-31.3 0-56.7 25.4-56.7 56.7V438.6c0 31.3 25.4 56.7 56.7 56.7h127.2c31.3 0 56.7-25.4 56.7-56.7v-127.2c-0.1-31.3-25.5-56.6-56.8-56.6zM476.9-38.39999999999998H245.5c-2.5 0-4.6 2.1-4.6 4.6V197.5c0 2.5 2.1 4.6 4.6 4.6h231.4c2.5 0 4.6-2.1 4.6-4.6v-231.4c0-2.5-2.1-4.5-4.6-4.5zM723.2-38.39999999999998H596.1c-31.3 0-56.7 25.4-56.7 56.7V145.39999999999998c0 31.3 25.4 56.7 56.7 56.7h127.2c31.3 0 56.7-25.4 56.7-56.7v-127.2c-0.1-31.3-25.5-56.6-56.8-56.6zM430.8 364H291.6c-9.5 0-17.2 7.7-17.2 17.2s7.7 17.2 17.2 17.2h139.2c9.5 0 17.2-7.7 17.2-17.2s-7.7-17.2-17.2-17.2zM729.2 97.70000000000005H590c-9.5 0-17.2 7.7-17.2 17.2s7.7 17.2 17.2 17.2h139.2c9.5 0 17.2-7.7 17.2-17.2s-7.7-17.2-17.2-17.2zM729.2 31.600000000000023H590c-9.5 0-17.2 7.7-17.2 17.2S580.5 66 590 66h139.2c9.5 0 17.2-7.7 17.2-17.2s-7.7-17.2-17.2-17.2zM729.2 364H590c-9.5 0-17.2 7.7-17.2 17.2s7.7 17.2 17.2 17.2h139.2c9.5 0 17.2-7.7 17.2-17.2s-7.7-17.2-17.2-17.2zM659.6 294.4c-9.5 0-17.2 7.7-17.2 17.2V450.7c0 9.5 7.7 17.2 17.2 17.2s17.2-7.7 17.2-17.2v-139.2c0-9.5-7.7-17.1-17.2-17.1zM410 15.899999999999977c-4.4 0-8.8 1.7-12.1 5l-98.4 98.4c-6.7 6.7-6.7 17.6 0 24.3 6.7 6.7 17.6 6.7 24.3 0l98.4-98.4c6.7-6.7 6.7-17.6 0-24.3-3.4-3.3-7.8-5-12.2-5zM311.6 15.899999999999977c-4.4 0-8.8 1.7-12.1 5-6.7 6.7-6.7 17.6 0 24.3l98.4 98.4c6.7 6.7 17.6 6.7 24.3 0 6.7-6.7 6.7-17.6 0-24.3l-98.4-98.4c-3.4-3.3-7.8-5-12.2-5zM754.6 560.2H511.3V762.1h243.2c14 0 25.3-11.3 25.3-25.3v-151.2c0.1-14.1-11.2-25.4-25.2-25.4z"  horiz-adv-x="1024" />

    
    <glyph glyph-name="-xiaohuojian" unicode="&#59451;" d="M300.347 270.164l95.953-95.953-133.359-133.359-95.953 95.953zM467.2-22.100000000000023c58.3 58.3 79.5 140.1 64.7 217.7 68.1 32.2 145.2 88 225.2 167.9 189.3 189.3 248.7 516.1 248.7 516.1S679 820.3 489.7 631c-80-80-135.7-157.1-167.9-225.2-77.7 14.8-159.4-6.4-217.7-64.7-0.8-0.8-1.5-1.6-2.3-2.5l95-95c-0.4-0.3-0.8-0.6-1.2-1-11.9-11.9-11.9-31.3 0-43.2l130.1-130.1c11.9-11.9 31.3-11.9 43.2 0 0.4 0.4 0.6 0.8 1 1.2l95-95c0.7 0.8 1.5 1.6 2.3 2.4zM752.2 358.79999999999995c1.6 1.6 3.3 3.1 4.9 4.7C808.6 415 850.4 476.6 884 539.1L665.2 757.9c-62.5-33.7-124.1-75.5-175.6-126.9-1.6-1.6-3.1-3.3-4.7-4.9l267.3-267.3zM776.3 650.2m-72.4 0a72.4 72.4 0 1 1 144.8 0 72.4 72.4 0 1 1-144.8 0ZM776.3 650.2m-59 0a59 59 0 1 1 118 0 59 59 0 1 1-118 0ZM818 691.9l-83.4-83.4c23-23 60.3-23 83.4 0 23 23 23 60.3 0 83.4zM618.6 492.4m-72.4 0a72.4 72.4 0 1 1 144.8 0 72.4 72.4 0 1 1-144.8 0ZM618.6 492.4m-59 0a59 59 0 1 1 118 0 59 59 0 1 1-118 0ZM660.3 534.1l-83.4-83.4c23-23 60.3-23 83.4 0 23 23.1 23 60.4 0 83.4zM239.6 407.9l294.5-294.5c3.7 27.1 3.1 54.9-2.1 82.1 1.5 0.7 3 1.5 4.4 2.3L324 410.2c-0.7-1.5-1.6-3-2.3-4.4-27.2 5.2-55 5.9-82.1 2.1zM172.2-41.5c-31.5-31.5-105.9-67.6-129.5-44s12.5 98 44 129.5 76.2 37.9 99.8 14.3 17.2-68.3-14.3-99.8zM167.4-20.700000000000045c-22.1-22.1-74.3-47.5-90.8-30.9s8.8 68.7 30.9 90.8c22.1 22.1 53.4 26.6 70 10.1s12-47.9-10.1-70z"  horiz-adv-x="1024" />

    
    <glyph glyph-name="-shouyinji" unicode="&#59452;" d="M227.8 7.7000000000000455c-20.2 0-36.6 16.5-36.6 36.6V171.79999999999995c0 20.2 16.5 36.6 36.6 36.6 20.2 0 36.6-16.5 36.6-36.6v-127.4c0-20.2-16.5-36.7-36.6-36.7zM801.3 7.7000000000000455c20.2 0 36.6 16.5 36.6 36.6V171.79999999999995c0 20.2-16.5 36.6-36.6 36.6-20.2 0-36.6-16.5-36.6-36.6v-127.4c-0.1-20.2 16.4-36.7 36.6-36.7zM960.4 70.29999999999995H68.7c-24.5 0-44.3 19.8-44.3 44.3V723.7c0 24.5 19.8 44.3 44.3 44.3h891.7c24.5 0 44.3-19.8 44.3-44.3v-609.1c0-24.5-19.9-44.3-44.3-44.3zM953.8 70.29999999999995H514.5V768h439.3c28.1 0 50.8-22.8 50.8-50.8v-596.1c0.1-28.1-22.7-50.8-50.8-50.8zM682.2 172.60000000000002H136.4c-18.8 0-34.1 15.3-34.1 34.1V640.9c0 18.8 15.3 34.1 34.1 34.1h545.8c18.8 0 34.1-15.3 34.1-34.1v-434.2c0-18.8-15.3-34.1-34.1-34.1zM683.7 172.60000000000002H514.5V675h169.1c18 0 32.6-14.6 32.6-32.6v-437.1c0.1-18.1-14.5-32.7-32.5-32.7zM914 581.9H811.6c-9 0-16.3 7.3-16.3 16.3s7.3 16.3 16.3 16.3H914c9 0 16.3-7.3 16.3-16.3 0-8.9-7.4-16.3-16.3-16.3zM914 534.8H811.6c-9 0-16.3 7.3-16.3 16.3s7.3 16.3 16.3 16.3H914c9 0 16.3-7.3 16.3-16.3 0-8.9-7.4-16.3-16.3-16.3zM914 487.8H811.6c-9 0-16.3 7.3-16.3 16.3s7.3 16.3 16.3 16.3H914c9 0 16.3-7.3 16.3-16.3s-7.4-16.3-16.3-16.3zM859 278.70000000000005m-63.7 0a63.7 63.7 0 1 1 127.4 0 63.7 63.7 0 1 1-127.4 0ZM859 278.70000000000005m-33.4 0a33.4 33.4 0 1 1 66.8 0 33.4 33.4 0 1 1-66.8 0Z"  horiz-adv-x="1024" />

    
    <glyph glyph-name="-youxiji" unicode="&#59453;" d="M517.6 451.3h-27.1c0 68.7 55.9 124.6 124.6 124.6h214.4v-27.1H615.2c-53.8 0.1-97.6-43.7-97.6-97.5zM802.2 483.2H221.1c-115.6 0-209.3-93.7-209.3-209.3 0-115.6 93.7-209.3 209.3-209.3 85.1 0 158.2 50.9 190.9 123.8h199.3c32.7-72.9 105.8-123.8 190.9-123.8 115.6 0 209.3 93.7 209.3 209.3 0 115.6-93.7 209.3-209.3 209.3zM802.2 483.2H511.7v-294.7h99.7c32.7-72.9 105.8-123.8 190.9-123.8 115.6 0 209.3 93.7 209.3 209.3-0.1 115.5-93.8 209.2-209.4 209.2zM282.4 257.79999999999995h-121c-8.9 0-16.2 7.3-16.2 16.2 0 8.9 7.3 16.2 16.2 16.2h121c8.9 0 16.2-7.3 16.2-16.2 0-9-7.3-16.2-16.2-16.2zM205.7 213.39999999999998v121c0 8.9 7.3 16.2 16.2 16.2 8.9 0 16.2-7.3 16.2-16.2v-121c0-8.9-7.3-16.2-16.2-16.2-8.9 0.1-16.2 7.3-16.2 16.2zM810.9 329.20000000000005m-20.3 0a20.3 20.3 0 1 1 40.6 0 20.3 20.3 0 1 1-40.6 0ZM810.9 218.70000000000005m-20.3 0a20.3 20.3 0 1 1 40.6 0 20.3 20.3 0 1 1-40.6 0ZM866.1 273.9m-20.4 0a20.4 20.4 0 1 1 40.8 0 20.4 20.4 0 1 1-40.8 0ZM755.7 273.9m-20.4 0a20.4 20.4 0 1 1 40.8 0 20.4 20.4 0 1 1-40.8 0ZM575.4 223.5H440.2c-7.8 0-14.2 6.4-14.2 14.2 0 7.8 6.4 14.2 14.2 14.2h135.2c7.8 0 14.2-6.4 14.2-14.2 0-7.8-6.4-14.2-14.2-14.2zM579.3 251.89999999999998h-67.6v-28.4h67.6c7.8 0 14.2 6.4 14.2 14.2s-6.4 14.2-14.2 14.2zM842.6 548.9H709.5c-7.5 0-13.5 6.1-13.5 13.5 0 7.5 6.1 13.5 13.5 13.5h133.1c36.4 0 66 29.6 66 66s-29.6 66-66 66H273.3c-7.5 0-13.5 6.1-13.5 13.5 0 7.5 6.1 13.5 13.5 13.5h569.3c51.3 0 93.1-41.7 93.1-93.1s-41.8-92.9-93.1-92.9z"  horiz-adv-x="1024" />

    
    <glyph glyph-name="-jiangpai" unicode="&#59454;" d="M507 564.8h56.4c18.1 0 24.8 0 33.9-33.9l29.4-106.1c4.5-18.1-20.3-33.9-45.2-33.9h-76.8v15.8h65.5c20.3 0 40.6 13.5 36.1 27.1l-24.8 85.8c-6.8 27.1-13.5 27.1-27.1 27.1h-45.2v18.1H507z m-56.4 0H507V549h-45.2c-20.3 0-22.6-9-27.1-27.1l-24.8-85.8c-4.5-13.5 15.8-27.1 36.1-27.1h61v-15.8h-76.8c-24.8 0-49.7 15.8-45.2 33.9l29.4 106.1c9.1 20.3 11.3 31.6 36.2 31.6zM507-114.79999999999995c160.3 0 293.5 131 293.5 293.5 0 160.3-131 293.5-293.5 293.5-160.3 0-293.5-131-293.5-293.5 2.2-162.5 133.2-293.5 293.5-293.5zM507-49.299999999999955c124.2 0 225.8 101.6 225.8 225.8S631.2 402.3 507 402.3 281.2 300.70000000000005 281.2 176.5c0-124.2 101.6-225.8 225.8-225.8zM507 402.3c63.2 0 121.9-27.1 162.6-67.7 0-124.2-101.6-225.8-225.8-225.8-63.2 0-121.9 27.1-162.6 67.7 0 124.2 101.6 225.8 225.8 225.8zM328.6 883.2h359.1v-259.7L563.5 531H452.8l-124.2 92.5zM369.3 883.2h65.5v-338.7l-65.5 47.4zM475.4 883.2h65.5V531h-65.5zM581.5 883.2H647v-291.3l-65.5-47.4zM445.6 80.29999999999995h50.5V223.70000000000005l5.4 24.7-17.4-21.4-32.3-22.1-20 27.2 82.8 66.8h26.5v-218.6h49.4v-39.9H445.6v39.9zM491.2 113.29999999999995V230.70000000000005l4.5 24.8-15.8-20.3-31.6-22.6-20.3 27.1 83.5 67.7h27.1v-176.1c-15.8-9-31.6-13.5-47.4-18z"  horiz-adv-x="1024" />

    
    <glyph glyph-name="-jiangbei" unicode="&#59455;" d="M804.6 752.1c-10 0-17.5 7.5-17.5 17.5s7.5 17.5 17.5 17.5h117.6c10 0 17.5-7.5 17.5-17.5v-5c-5-25-65.1-335.4-355.4-340.4-10 0-17.5 7.5-17.5 17.5s7.5 17.5 15 17.5c230.3 5 302.8 225.2 317.9 292.8l-95.1 0.1z m-588.2 35c10 0 17.5-7.5 17.5-17.5s-7.5-17.5-17.5-17.5h-95.1c15-70.1 80.1-290.3 310.3-292.8 10 0 15-7.5 15-17.5s-7.5-17.5-17.5-17.5C141.3 426.7 88.8 739.6 86.3 764.6v5c0 10 7.5 17.5 15 17.5h115.1zM489.2 321.6h47.6v-125.1h-47.6zM489.2 376.70000000000005h47.6v-67.6h-47.6zM489.2 256.5h47.6v-67.6h-47.6zM511.7 31.299999999999955c65.1 0 115.1 47.6 115.1 105.1s-52.6 105.1-115.1 105.1c-65.1 0-115.1-47.6-115.1-105.1-2.5-57.6 50.1-105.1 115.1-105.1zM371.6 138.89999999999998h280.3v-42.5H371.6zM394.1 151.39999999999998h232.8v-12.5H394.1zM604.4 161.39999999999998c-15 37.5-37.5 60.1-65.1 72.6 17.5-12.5 25-42.5 30-72.6h35.1zM511.7 321.6c65.1 0 115.1 50.1 115.1 115.1 0 62.6-52.6 115.1-115.1 115.1-65.1 0-115.1-52.6-115.1-115.1-2.5-65 50.1-115.1 115.1-115.1zM511.7 439.2c125.1 0 227.8 95.1 237.8 215.2H274c10-120 112.6-215.2 237.7-215.2zM510.5 654.5v-215.2c0.4 0 0.8-0.1 1.3-0.1 125.1 0 227.8 95.1 237.8 215.2H510.5zM274 872.2h475.5v-230.3H274zM511.7 551.9c-0.4 0-0.8-0.1-1.3-0.1v-230c0.4 0 0.8-0.1 1.3-0.1 65.1 0 115.1 50.1 115.1 115.1 0.1 62.5-52.5 115.1-115.1 115.1zM244 882.2h535.6c17.5 0 35-15 35-35V687c0-17.5-15-35-35-35H244c-17.5 0-35 15-35 35V849.7c-0.1 17.5 14.9 32.5 35 32.5zM399.1 469.3h225.2v-12.5H399.1zM779.5 882.2H514.3V652h265.3c20 0 35 17.5 35 35V847.2c0 20-17.5 35-35.1 35zM236.4 98.89999999999998h548.1v-212.7H236.4zM236.4 98.89999999999998h274.1v-212.7H236.4zM406.6-73.79999999999995h210.2c37.5 0 67.6 30 67.6 67.6 0 37.5-30 67.6-67.6 67.6H406.6c-37.5 0-67.6-30-67.6-67.6 0.1-37.6 30.1-67.6 67.6-67.6z"  horiz-adv-x="1024" />

    
    <glyph glyph-name="-xiangji" unicode="&#59456;" d="M950.3 648.2H758.1l-31.7 85.6c-13.5 36.5-48.3 60.7-87.3 60.7H383.6c-38.9 0-73.7-24.2-87.3-60.7l-31.7-85.6H72.4c-29.6 0-53.6-24-53.6-53.6v-534.1c0-29.6 24-53.6 53.6-53.6h877.9c29.6 0 53.6 24 53.6 53.6V594.6c0 29.6-24 53.6-53.6 53.6zM30.9 470.4h960.9v-318.1H30.9zM950.3 648.2H758.1l-31.7 85.6c-13.5 36.5-48.3 60.7-87.3 60.7H511.3v-787.6h438.9c29.6 0 53.6 24 53.6 53.6V594.6c0.1 29.6-23.9 53.6-53.5 53.6zM511.3 470.4h480.5v-318.1H511.3zM511.3 309.5m-232.2 0a232.2 232.2 0 1 1 464.4 0 232.2 232.2 0 1 1-464.4 0ZM511.3 309.5m-160.9 0a160.9 160.9 0 1 1 321.8 0 160.9 160.9 0 1 1-321.8 0ZM511.3 309.5m-138.7 0a138.7 138.7 0 1 1 277.4 0 138.7 138.7 0 1 1-277.4 0ZM886 565.7m-24.4 0a24.4 24.4 0 1 1 48.8 0 24.4 24.4 0 1 1-48.8 0Z"  horiz-adv-x="1024" />

    
    <glyph glyph-name="-shouyinji1" unicode="&#59457;" d="M223.2 479.5c-6.8 0-13.4 3.6-17 9.9-5.3 9.4-2 21.2 7.4 26.5l472.8 267.2c9.4 5.3 21.3 2 26.5-7.4 5.3-9.4 2-21.2-7.4-26.5L232.7 482.1c-3-1.8-6.3-2.6-9.5-2.6zM714.7 780.7m-46.8 0a46.8 46.8 0 1 1 93.6 0 46.8 46.8 0 1 1-93.6 0ZM959.8-61.9h-896c-22.7 0-41.1 18.4-41.1 41.1V508c0 22.7 18.4 41.1 41.1 41.1h895.9c22.7 0 41.1-18.4 41.1-41.1v-528.8c0.1-22.7-18.3-41.1-41-41.1zM959.8-61.9h-448v611h448c22.7 0 41.1-18.4 41.1-41.1v-528.8c0-22.7-18.4-41.1-41.1-41.1zM281.3 243.6m-21.3 0a21.3 21.3 0 1 1 42.6 0 21.3 21.3 0 1 1-42.6 0ZM281.3 320.4m-21.3 0a21.3 21.3 0 1 1 42.6 0 21.3 21.3 0 1 1-42.6 0ZM227 297.9m-21.3 0a21.3 21.3 0 1 1 42.6 0 21.3 21.3 0 1 1-42.6 0ZM204.5 243.6m-21.3 0a21.3 21.3 0 1 1 42.6 0 21.3 21.3 0 1 1-42.6 0ZM227 189.3m-21.3 0a21.3 21.3 0 1 1 42.6 0 21.3 21.3 0 1 1-42.6 0ZM281.3 166.8m-21.3 0a21.3 21.3 0 1 1 42.6 0 21.3 21.3 0 1 1-42.6 0ZM335.6 189.3m-21.3 0a21.3 21.3 0 1 1 42.6 0 21.3 21.3 0 1 1-42.6 0ZM358 243.6m-21.3 0a21.3 21.3 0 1 1 42.6 0 21.3 21.3 0 1 1-42.6 0ZM335.6 297.9m-21.3 0a21.3 21.3 0 1 1 42.6 0 21.3 21.3 0 1 1-42.6 0ZM281.3 401.6m-21.3 0a21.3 21.3 0 1 1 42.6 0 21.3 21.3 0 1 1-42.6 0ZM202.3 380.5m-21.3 0a21.3 21.3 0 1 1 42.6 0 21.3 21.3 0 1 1-42.6 0ZM144.4 322.6m-21.3 0a21.3 21.3 0 1 1 42.6 0 21.3 21.3 0 1 1-42.6 0ZM123.2 243.6m-21.3 0a21.3 21.3 0 1 1 42.6 0 21.3 21.3 0 1 1-42.6 0ZM144.4 164.6m-21.3 0a21.3 21.3 0 1 1 42.6 0 21.3 21.3 0 1 1-42.6 0ZM202.3 106.7m-21.3 0a21.3 21.3 0 1 1 42.6 0 21.3 21.3 0 1 1-42.6 0ZM281.3 85.5m-21.3 0a21.3 21.3 0 1 1 42.6 0 21.3 21.3 0 1 1-42.6 0ZM360.3 106.7m-21.3 0a21.3 21.3 0 1 1 42.6 0 21.3 21.3 0 1 1-42.6 0ZM418.1 164.6m-21.3 0a21.3 21.3 0 1 1 42.6 0 21.3 21.3 0 1 1-42.6 0ZM439.3 243.6m-21.3 0a21.3 21.3 0 1 1 42.6 0 21.3 21.3 0 1 1-42.6 0ZM418.1 322.6m-21.3 0a21.3 21.3 0 1 1 42.6 0 21.3 21.3 0 1 1-42.6 0ZM360.3 380.5m-21.3 0a21.3 21.3 0 1 1 42.6 0 21.3 21.3 0 1 1-42.6 0ZM795.3 341.4h-100c-11.1 0-20.2 9.1-20.2 20.2s9.1 20.2 20.2 20.2h100c11.1 0 20.2-9.1 20.2-20.2s-9.1-20.2-20.2-20.2zM795.3 262.7h-100c-11.1 0-20.2 9.1-20.2 20.2s9.1 20.2 20.2 20.2h100c11.1 0 20.2-9.1 20.2-20.2s-9.1-20.2-20.2-20.2zM795.3 184h-100c-11.1 0-20.2 9.1-20.2 20.2s9.1 20.2 20.2 20.2h100c11.1 0 20.2-9.1 20.2-20.2s-9.1-20.2-20.2-20.2zM795.3 105.3h-100c-11.1 0-20.2 9.1-20.2 20.2s9.1 20.2 20.2 20.2h100c11.1 0 20.2-9.1 20.2-20.2s-9.1-20.2-20.2-20.2z"  horiz-adv-x="1024" />

    
    <glyph glyph-name="-mingpiannan" unicode="&#59458;" d="M1002.6-22h-981c-0.9 0-1.7 0.7-1.7 1.7V657.2c0 0.9 0.7 1.7 1.7 1.7h981.1c0.9 0 1.7-0.7 1.7-1.7v-677.5c-0.1-1-0.9-1.7-1.8-1.7zM323.1 242.9h-16.6V254c0 16.3 8.6 30.7 21.4 40.7 26.5 20.9 44.1 56.7 44.1 97.7 0 64.9-43.7 117.4-97.7 117.4s-97.7-52.6-97.7-117.4c0-41 17.6-76.8 44.1-97.7 12.8-10.1 21.4-24.5 21.4-40.7v-11.2h-16.6c-77.3 0-140.6-58.4-140.6-129.8v-24.7h378.7V113c0.1 71.5-63.1 129.9-140.5 129.9zM530 658.9h474.3V-22H530zM822.2 422.6H636.7c-12 0-21.7 9.7-21.7 21.7s9.7 21.7 21.7 21.7h185.6c12 0 21.7-9.7 21.7-21.7s-9.8-21.7-21.8-21.7zM893 335.4H636.7c-12 0-21.7 9.7-21.7 21.7s9.7 21.7 21.7 21.7H893c12 0 21.7-9.7 21.7-21.7s-9.7-21.7-21.7-21.7zM866.6 248.1H636.7c-12 0-21.7 9.7-21.7 21.7s9.7 21.7 21.7 21.7h229.9c12 0 21.7-9.7 21.7-21.7 0-11.9-9.7-21.7-21.7-21.7zM893 160.9H636.7c-12 0-21.7 9.7-21.7 21.7s9.7 21.7 21.7 21.7H893c12 0 21.7-9.7 21.7-21.7s-9.7-21.7-21.7-21.7zM483.8 743.1h92.4v-110.8h-92.4zM610 618.7c-2 27.2-26 48.9-55.4 48.9h-49.1c-29.4 0-53.4-21.7-55.4-48.9H610zM604.9 705.1H455.1c-25.5 0-46.3 20.9-46.3 46.3 0 25.5 20.9 46.3 46.3 46.3h149.8c25.5 0 46.3-20.9 46.3-46.3 0.1-25.5-20.8-46.3-46.3-46.3zM604.9 797.8H530v-92.7h74.9c25.5 0 46.3 20.9 46.3 46.3s-20.8 46.4-46.3 46.4zM530 743.1h46.2v-110.8H530zM530 618.7h80c-2 27.2-26 48.9-55.4 48.9H530v-48.9z"  horiz-adv-x="1024" />

    
    <glyph glyph-name="-mingpiannv" unicode="&#59459;" d="M1005-34.4H19.5c-0.9 0-1.7 0.7-1.7 1.7V647.8c0 0.9 0.7 1.7 1.7 1.7H1005c0.9 0 1.7-0.7 1.7-1.7v-680.6c-0.1-0.9-0.8-1.6-1.7-1.6zM530.2 649.5h476.4v-683.9H530.2zM823.8 412.1H637.4c-12.1 0-21.8 9.8-21.8 21.8 0 12.1 9.8 21.8 21.8 21.8h186.4c12.1 0 21.8-9.8 21.8-21.8s-9.8-21.8-21.8-21.8zM894.8 324.5H637.4c-12.1 0-21.8 9.8-21.8 21.8s9.8 21.8 21.8 21.8h257.4c12.1 0 21.8-9.8 21.8-21.8s-9.7-21.8-21.8-21.8zM868.3 236.9H637.4c-12.1 0-21.8 9.8-21.8 21.8 0 12.1 9.8 21.8 21.8 21.8h230.9c12.1 0 21.8-9.8 21.8-21.8s-9.7-21.8-21.8-21.8zM894.8 149.3H637.4c-12.1 0-21.8 9.8-21.8 21.8s9.8 21.8 21.8 21.8h257.4c12.1 0 21.8-9.8 21.8-21.8s-9.7-21.8-21.8-21.8zM483.8 734.1h92.8v-111.3h-92.8zM610.6 609.2c-2 27.3-26.1 49.1-55.7 49.1h-49.3c-29.5 0-53.7-21.8-55.7-49.1h160.7zM605.5 695.9H455c-25.6 0-46.5 20.9-46.5 46.5s20.9 46.5 46.5 46.5h150.5c25.6 0 46.5-20.9 46.5-46.5s-20.9-46.5-46.5-46.5zM605.5 789h-75.2v-93.1h75.2c25.6 0 46.5 20.9 46.5 46.5S631.1 789 605.5 789zM530.2 734.1h46.4v-111.3h-46.4zM530.2 609.2h80.3c-2 27.3-26.1 49.1-55.7 49.1h-24.7v-49.1zM322.4 231.6h-16.6l-0.3 17c13.7-0.4 17 3.3 37.8 1.4 24.8-2.3 40.1 29 40.1 29s12.9 220.9-109.9 220.9c-101.4 0-111.5-217.6-111-241.1 0 0 16.9 1.5 57.8-4 5.5-0.7 12.8-3.2 20.8-3.7 0.1-0.9 0.2-7.2 0.2-8.1v-11.2h-16.6c-77.7 0-141.3-58.7-141.3-130.4v-24.8h380.4v24.8c-0.1 71.6-63.7 130.2-141.4 130.2z"  horiz-adv-x="1024" />

    
    <glyph glyph-name="-bingzhuangtu" unicode="&#59460;" d="M487.3 802.2C239.7 802.2 39 601.5 39 353.8c0-247.6 200.7-448.3 448.3-448.3s448.3 200.7 448.3 448.3H487.3V802.2zM537.6 855v-448.3h448.3C985.9 654.3 785.2 855 537.6 855zM487.3 353.8V802.2C239.7 802.2 39 601.5 39 353.8c0-247.6 200.7-448.3 448.3-448.3V353.8zM894.1 678.4L537.6 406.8v-0.1h448.3c0 102.2-34.2 196.3-91.8 271.7z"  horiz-adv-x="1024" />

    
    <glyph glyph-name="-mubiao" unicode="&#59461;" d="M511 385.4m-422.1 0a422.1 422.1 0 1 1 844.2 0 422.1 422.1 0 1 1-844.2 0ZM512.3 807.4v-844.1c232.5 0.7 420.8 189.4 420.8 422S744.8 806.7 512.3 807.4zM511 385.4m-343.8 0a343.8 343.8 0 1 1 687.6 0 343.8 343.8 0 1 1-687.6 0ZM512.3 729.2v-687.5c189.3 0.7 342.5 154.3 342.5 343.8S701.6 728.4 512.3 729.2zM510.5 669h-1.9c-17.5 0-31.8 14.3-31.8 31.8v149c0 17.5 14.3 31.8 31.8 31.8h1.9c17.5 0 31.8-14.3 31.8-31.8v-149c0.1-17.4-14.3-31.8-31.8-31.8zM510.5-113.79999999999995h-1.9c-17.5 0-31.8 14.3-31.8 31.8V67c0 17.5 14.3 31.8 31.8 31.8h1.9c17.5 0 31.8-14.3 31.8-31.8v-149c0.1-17.4-14.3-31.8-31.8-31.8zM797.3 384.4v1.9c0 17.5 14.3 31.8 31.8 31.8h149c17.5 0 31.8-14.3 31.8-31.8v-1.9c0-17.5-14.3-31.8-31.8-31.8h-149c-17.5 0-31.8 14.3-31.8 31.8zM12.8 384.4v1.9c0 17.5 14.3 31.8 31.8 31.8h149c17.5 0 31.8-14.3 31.8-31.8v-1.9c0-17.5-14.3-31.8-31.8-31.8h-149c-17.5 0-31.8 14.3-31.8 31.8zM511 385.4m-106.5 0a106.5 106.5 0 1 1 213 0 106.5 106.5 0 1 1-213 0ZM511 491.9c-0.5 0-0.9-0.1-1.4-0.1V279c0.5 0 0.9-0.1 1.4-0.1 58.8 0 106.5 47.7 106.5 106.5S569.8 491.9 511 491.9zM653.1 363.79999999999995l-282.5 0.8c-10.9 0-19.8 8.9-19.8 19.9 0 10.9 8.9 19.8 19.8 19.8h0.1l282.4-0.8c10.9 0 19.8-8.9 19.8-19.9 0-11-8.9-19.8-19.8-19.8zM511.5 223c-11 0-19.8 8.9-19.8 19.9l0.8 282.4c0 10.9 8.9 19.8 19.8 19.8h0.1c10.9 0 19.8-8.9 19.8-19.9l-0.8-282.4c-0.1-11-9-19.8-19.9-19.8z"  horiz-adv-x="1024" />

    
    <glyph glyph-name="-wujiaoxing" unicode="&#59462;" d="M512 853.1l153.4-310.9 343-49.8-248.2-242 58.7-341.7L512 70 205.1-91.3l58.6 341.7-248.2 242 343.1 49.8zM205.1-96.3c-1.1 0-2.1 0.3-2.9 1-1.6 1.1-2.3 3-2 4.9l58.1 339.1L12 488.9c-1.4 1.3-1.9 3.3-1.3 5.1 0.6 1.8 2.1 3.1 4.1 3.4l340.5 49.5L507.5 855.3c1.7 3.4 7.1 3.4 8.9 0l152.3-308.6 340.5-49.5c1.9-0.3 3.5-1.6 4.1-3.4 0.6-1.8 0.1-3.8-1.3-5.1L765.6 248.6l58.1-339.1c0.3-1.9-0.4-3.8-2-4.9-1.5-1.1-3.5-1.3-5.3-0.4L512 64.4 207.4-95.8c-0.8-0.3-1.6-0.5-2.3-0.5zM512 74.9c0.8 0 1.6-0.2 2.3-0.6l298-156.7-56.9 331.9c-0.3 1.6 0.2 3.3 1.4 4.4l241.1 235-333.2 48.4c-1.6 0.2-3 1.2-3.8 2.7L512 842 363 540.1c-0.7-1.5-2.1-2.5-3.8-2.7L26.1 488.9l241.1-235c1.2-1.1 1.7-2.8 1.4-4.4l-56.9-331.9 298 156.7c0.7 0.4 1.5 0.6 2.3 0.6zM512 853.1l153.4-310.9 343-49.8-248.2-242 58.7-341.7L512 70 205.1-91.3l58.6 341.7-248.2 242 343.1 49.8zM205.1-96.3c-1.1 0-2.1 0.3-2.9 1-1.6 1.1-2.3 3-2 4.9l58.1 339.1L12 488.9c-1.4 1.3-1.9 3.3-1.3 5.1 0.6 1.8 2.1 3.1 4.1 3.4l340.5 49.5L507.5 855.3c1.7 3.4 7.1 3.4 8.9 0l152.3-308.6 340.5-49.5c1.9-0.3 3.5-1.6 4.1-3.4 0.6-1.8 0.1-3.8-1.3-5.1L765.6 248.6l58.1-339.1c0.3-1.9-0.4-3.8-2-4.9-1.5-1.1-3.5-1.3-5.3-0.4L512 64.4 207.4-95.8c-0.8-0.3-1.6-0.5-2.3-0.5zM512 74.9c0.8 0 1.6-0.2 2.3-0.6l298-156.7-56.9 331.9c-0.3 1.6 0.2 3.3 1.4 4.4l241.1 235-333.2 48.4c-1.6 0.2-3 1.2-3.8 2.7L512 842 363 540.1c-0.7-1.5-2.1-2.5-3.8-2.7L26.1 488.9l241.1-235c1.2-1.1 1.7-2.8 1.4-4.4l-56.9-331.9 298 156.7c0.7 0.4 1.5 0.6 2.3 0.6zM358.6 537.7l-1-0.1L512 331V842zM662 537.7l-0.3 0.8L512 331l485.7 157.9zM361.8 537.7l0.4 0.8L512 331 26.1 488.9zM754.9 252.1l0.6 0.6L512 331l300.2-413.4zM269 252.1l-0.6 0.6L512.3 331 211.6-82.4z"  horiz-adv-x="1024" />

    
    <glyph glyph-name="-zuobiao" unicode="&#59463;" d="M22.1 29.100000000000023a490.9 95.59999999999992 0 1 1 981.8 0 490.9 95.59999999999992 0 1 1-981.8 0ZM513 124.70000000000005v-191.1c271.1 0 490.9 42.8 490.9 95.6 0 52.7-219.8 95.5-490.9 95.5zM788.5 603.5C788.5 451.3 513 67 513 67S237.5 451.3 237.5 603.5 360.8 879 513 879s275.5-123.4 275.5-275.5zM513 879v-812s275.5 384.3 275.5 536.5C788.5 755.6 665.2 879 513 879zM513 603.5m-96.6 0a96.6 96.6 0 1 1 193.2 0 96.6 96.6 0 1 1-193.2 0ZM513 700.1v-193.2c53.4 0 96.6 43.3 96.6 96.6s-43.2 96.6-96.6 96.6z"  horiz-adv-x="1024" />

    
    <glyph glyph-name="-kanban" unicode="&#59464;" d="M512.3-105.9c-19 0-34.4 15.4-34.4 34.4V217.4c0 19 15.4 34.4 34.4 34.4s34.4-15.4 34.4-34.4v-288.9c-0.1-19-15.4-34.4-34.4-34.4zM309.9-90.4c-5.2 0-10.5 1.2-15.4 3.7-17 8.6-23.8 29.2-15.2 46.2l130 258c8.6 17 29.3 23.7 46.2 15.2 17-8.6 23.8-29.2 15.2-46.2l-130-258c-6.1-12-18.2-18.9-30.8-18.9zM714.6-90.4c-12.6 0-24.7 6.9-30.7 18.9l-130 258c-8.5 16.9-1.7 37.6 15.2 46.2 16.9 8.5 37.6 1.7 46.2-15.2l130-258c8.5-16.9 1.7-37.6-15.2-46.2-5-2.6-10.3-3.7-15.5-3.7zM66.5 864.2h893v-709.1h-893zM513 864.2h446.5v-709.1H513zM86.5 812.1h852.9v-604.9H86.5zM246 532.8h81.5v-183.3H246zM396.9 583.7h81.5v-234.2h-81.5zM547.7 682.5h81.5v-333h-81.5zM698.5 728.7H780v-379.2h-81.5z"  horiz-adv-x="1024" />

    
    <glyph glyph-name="-shouji" unicode="&#59465;" d="M806.8-111.8H213.3c-10.8 0-19.5 8.7-19.5 19.5v951c0 10.8 8.7 19.5 19.5 19.5h593.5c10.8 0 19.5-8.7 19.5-19.5v-951.1c0-10.7-8.7-19.4-19.5-19.4zM806.7-111.8H510.1v990h296.6c10.9 0 19.6-8.8 19.6-19.6v-950.8c0-10.8-8.8-19.6-19.6-19.6zM754.8 77.1H265.3c-10.9 0-19.8 8.9-19.8 19.8V775.3c0 10.1 8.2 18.3 18.3 18.3h490.9c11 0 19.9-8.9 19.9-19.9v-676.8c0-10.9-8.8-19.8-19.8-19.8zM555.4 816.4h-92.8c-6.4 0-11.6 5.2-11.6 11.6 0 6.4 5.2 11.6 11.6 11.6h92.8c6.4 0 11.6-5.2 11.6-11.6 0-6.4-5.2-11.6-11.6-11.6zM515.9-23.5m-39.5 0a39.5 39.5 0 1 1 79 0 39.5 39.5 0 1 1-79 0ZM320.6 622.7h142.1v-46.5H320.6zM320.6 531h255.6v-46.5H320.6zM320.6 447.8h201.1v-46.5H320.6z"  horiz-adv-x="1024" />

    
    <glyph glyph-name="-dianhua" unicode="&#59466;" d="M961.9-64.2H65c-21.6 0-39.1 17.5-39.1 39.1v714c0 21.6 17.5 39.1 39.1 39.1h896.9c21.6 0 39.1-17.5 39.1-39.1v-714.1c0-21.5-17.5-39-39.1-39zM192.6 27.5h45.3v-91.8h-45.3zM241 25.5h-51.6c-58.1 0-105.2 47.1-105.2 105.2V724.6c0 58.1 47.1 105.2 105.2 105.2H241c58.1 0 105.2-47.1 105.2-105.2v-593.9c0-58.1-47.1-105.2-105.2-105.2zM862.3 487.1H469.5c-13.3 0-24.1 10.8-24.1 24.1v80c0 13.3 10.8 24.1 24.1 24.1h392.8c13.3 0 24.1-10.8 24.1-24.1v-80c0-13.3-10.8-24.1-24.1-24.1zM445.4 381.4h75.5v-75.5h-75.5zM628.2 381.4h75.5v-75.5h-75.5zM811 381.4h75.5v-75.5H811zM445.4 264.5h75.5V189h-75.5zM628.2 264.5h75.5V189h-75.5zM811 264.5h75.5V189H811zM445.4 147.7h75.5v-75.5h-75.5zM628.2 147.7h75.5v-75.5h-75.5zM811 147.7h75.5v-75.5H811zM869.5 487.1H665.9V615.3h203.6c9.3 0 16.9-7.6 16.9-16.9v-94.5c0-9.3-7.5-16.8-16.9-16.8zM483.1 381.4h37.7v-75.5h-37.7zM665.9 381.4h37.7v-75.5h-37.7zM848.7 381.4h37.7v-75.5h-37.7zM848.7 264.5h37.7V189h-37.7zM665.9 264.5h37.7V189h-37.7zM665.9 147.7h37.7v-75.5h-37.7zM483.1 264.5h37.7V189h-37.7zM483.1 147.7h37.7v-75.5h-37.7zM848.7 147.7h37.7v-75.5h-37.7z"  horiz-adv-x="1024" />

    
    <glyph glyph-name="-wenjian" unicode="&#59467;" d="M656.2 834.3H174.9v-948h694V634.1H656.2zM444 823.5c-3.8 0-7.4 2.2-9 5.9-2.6 6.1-6.2 11.6-10.6 16.4-3.7 4-3.5 10.1 0.5 13.8 3.9 3.7 10.1 3.5 13.8-0.5 6-6.5 10.8-13.9 14.3-22 2.1-5-0.2-10.7-5.2-12.8-1.2-0.5-2.5-0.8-3.8-0.8zM382.9 534.5c-42 0-76.1 34.2-76.1 76.1V807.5c0 42 34.2 76.1 76.1 76.1 21.1 0 41.4-8.9 55.9-24.5 3.7-4 3.4-10.1-0.6-13.8-3.9-3.7-10.1-3.4-13.8 0.5-10.7 11.6-25.8 18.3-41.5 18.3-31.2 0-56.6-25.4-56.6-56.6v-196.9c0-31.2 25.4-56.6 56.6-56.6 10.7 0 21.2 3 30.2 8.8 4.5 2.9 10.6 1.6 13.5-3 2.9-4.6 1.5-10.6-3-13.5-12.2-7.7-26.3-11.8-40.7-11.8zM868.9 638.2H656.2V834.3zM302 453.1h219.9v-41.7H302zM302 357.1h285.3v-41.7H302zM302 270.7h219.9V229H302zM302 184.4h361.6v-41.7H302zM302 108.7h361.6V67H302zM423.6 546.3l-10.5 16.5c16.5 10.5 26.4 28.4 26.4 47.8v73.3H459v-73.3c0-26.1-13.2-50.1-35.4-64.3zM386.4 628.3h-19.5V777c0 25.4 20.7 46.1 46.1 46.1 25.4 0 46.1-20.7 46.1-46.1v-121.4h-19.5V777c0 14.6-11.9 26.5-26.5 26.5s-26.5-11.9-26.5-26.5v-148.7zM306.8 610.6c0-42 34.2-76.2 76.1-76.2 14.4 0 28.5 4.1 40.7 11.9 4.6 2.9 5.9 9 3 13.5-2.9 4.6-9 5.9-13.5 3-9-5.8-19.5-8.8-30.2-8.8-31.2 0-56.6 25.4-56.6 56.6V807.5c0 9.7 2.7 18.8 7.1 26.8h-21.5c-3.2-8.4-5.1-17.3-5.1-26.8v-196.9zM174.9-78.5h694v-35.2h-694z"  horiz-adv-x="1024" />

    
    <glyph glyph-name="-wenjianjia" unicode="&#59468;" d="M182.9 201.6h-64.1c-4.4 0-6.6-4.4-6.6-6.6 0-4.4 4.4-6.6 8.8-6.6h64.1c2.2 0 4.4 0 4.4 2.2 2.2 2.2 2.2 4.4 2.2 6.6-2.2 0-4.4 4.4-8.8 4.4zM426 201.6H231.5c-4.4 0-6.6-4.4-6.6-6.6 0-4.4 4.4-6.6 6.6-6.6H426c2.2 0 4.4 0 4.4 2.2 2.2 2.2 2.2 4.4 2.2 6.6 0.1 0-2.1 4.4-6.6 4.4zM837.1 707.8H463.6l-46.4 61.9c-4.4 4.4-8.8 8.8-15.5 8.8H189.5C123.2 778.5 68 725.5 68 657v-459.7c0-66.3 53-121.6 121.6-121.6h649.8c66.3 0 121.6 53 121.6 121.6v389c-2.3 66.2-57.5 121.5-123.9 121.5zM114.4 687.9h775.8v-68.5H114.4zM861.5 641.5H461.4l-48.6 66.3c-4.4 4.4-11.1 8.8-17.7 8.8H165.2c-70.7 0-130.4-57.5-130.4-130.4v-495.1c0-70.7 57.5-130.4 130.4-130.4h696.2c70.7 0 130.4 57.5 130.4 130.4v420c0.1 72.9-59.6 130.4-130.3 130.4zM990.1 531.8c-10.1 62.8-64.7 109.7-128.6 109.7H461.4l-48.6 66.3c-4.4 4.4-11.1 8.8-17.7 8.8H165.2c-70.7 0-130.4-57.5-130.4-130.4v-54.4h955.3zM990.1 531.8c-10.1 62.8-64.7 109.7-128.6 109.7H461.4l-48.6 66.3c-4.4 4.4-11.1 8.8-17.7 8.8H165.2c-70.7 0-130.4-57.5-130.4-130.4v-54.4h955.3z"  horiz-adv-x="1024" />

    
    <glyph glyph-name="-sousuo" unicode="&#59469;" d="M25.3-110.60000000000002l-3.8 3.8c-17.5 17.6-17.5 46 0 63.5L278.9 214c17.5 17.5 45.9 17.5 63.4 0l3.8-3.8c17.5-17.5 17.5-45.9 0-63.4L88.7-110.60000000000002c-17.5-17.5-45.9-17.5-63.4 0zM25.3-110.60000000000002l-1.9 1.9 320.8 320.8 33.6-33.6-289.1-289.1c-17.5-17.5-45.9-17.5-63.4 0zM608 476m-408 0a408 408 0 1 1 816 0 408 408 0 1 1-816 0ZM896.4 764.3L319.6 187.60000000000002c0.8-0.8 1.4-1.6 2.2-2.4 160.6-158 418.9-156 577 4.6 157.3 159.8 155.9 416.3-2.4 574.5zM608 476m-329.3 0a329.3 329.3 0 1 1 658.6 0 329.3 329.3 0 1 1-658.6 0ZM608 476m-240.8 0a240.8 240.8 0 1 1 481.6 0 240.8 240.8 0 1 1-481.6 0ZM778.2 646.2L437.8 305.70000000000005c0.5-0.5 0.8-1 1.3-1.4 94.8-93.3 247.3-92.1 340.6 2.7 92.8 94.4 92 245.8-1.5 339.2zM608 476m-145.3 0a145.3 145.3 0 1 1 290.6 0 145.3 145.3 0 1 1-290.6 0ZM679.95932 498.789613a22.799999999999997 43.4 26.732 1 1 40.726286 20.511695 22.799999999999997 43.4 26.732 1 1-40.726286-20.511695ZM517.254011 402.6069a11.399999999999999 21.7 45.00100000000001 1 1 16.121754 16.122316 11.399999999999999 21.7 45.00100000000001 1 1-16.121754-16.122316Z"  horiz-adv-x="1024" />

    
    <glyph glyph-name="-biaoqian" unicode="&#59470;" d="M869 718.3H226.3V854.7c0 15.7 12.7 28.4 28.4 28.4h586c15.7 0 28.4-12.7 28.4-28.4v-136.4zM869-115.2L547.6 76l-321.3-191.2V725.2H869zM547.6 543.7l48.8-98.9 109.1-15.9-78.9-76.9 18.6-108.7-97.6 51.3-97.6-51.3L468.7 352l-79 76.9 109.1 15.9zM705.5 428.9l-97.9 14.2c-27.6-51-78.9-89.5-141.1-103.7L450 243.3l97.6 51.3 97.6-51.3L626.6 352l78.9 76.9zM869 725.2H547.6V883h289.7c17.5 0 31.7-14.2 31.7-31.7v-126.1zM226.3 725.2H869V669H226.3zM302.6 725.2H335V669h-32.4zM226.3 725.2h32.4V669h-32.4zM378.9 725.2h32.4V669h-32.4zM455.1 725.2h32.4V669h-32.4zM531.4 725.2h32.4V669h-32.4zM607.7 725.2h32.4V669h-32.4zM684 725.2h32.4V669H684zM760.3 725.2h32.4V669h-32.4zM836.6 725.2H869V669h-32.4z"  horiz-adv-x="1024" />

    
    <glyph glyph-name="-youjian" unicode="&#59471;" d="M998-101.2H27.3v677L512.7 866.4 998 575.8zM212.5 671.6H832v-619.5H212.5zM474.3 237.3l-447-338.5v677zM551 237.3l447-338.5v677zM998-101.2H27.3L512.7 266zM278 602.9h196.4v-27.1H278zM278 543h260.2v-27.1H278zM278 483.2h260.2v-27.1H278zM278 426.5h403v-27.1H278zM680 525c-2.4-2.8-5.2-5.1-8.2-6.8-3-1.7-6-2.6-9.1-2.6-3.3 0-6.6 1-9.7 2.9-3.2 1.9-5.7 4.9-7.7 9s-2.9 8.5-2.9 13.3c0 6 1.5 11.9 4.6 17.9 3.1 6 6.8 10.5 11.4 13.4 4.5 3 8.9 4.5 13.2 4.5 3.3 0 6.4-0.9 9.3-2.5 3-1.7 5.5-4.3 7.6-7.8l1.9 8.7h10l-8.1-37.7c-1.1-5.3-1.7-8.2-1.7-8.7 0-1 0.4-1.9 1.1-2.6 0.8-0.7 1.7-1.1 2.8-1.1 2 0 4.6 1.1 7.8 3.4 4.3 3 7.6 7 10.1 12s3.7 10.2 3.7 15.6c0 6.3-1.6 12.1-4.8 17.5-3.2 5.4-8 9.7-14.3 13-6.4 3.2-13.4 4.9-21 4.9-8.8 0-16.8-2.1-24-6.2-7.2-4.1-12.8-10-16.8-17.6-4-7.6-6-15.9-6-24.6 0-9.2 2-17.1 6-23.7s9.7-11.5 17.3-14.7c7.5-3.2 15.9-4.7 25.1-4.7 9.8 0 18 1.6 24.6 4.9 6.6 3.3 11.6 7.3 14.9 12h10.2c-1.9-3.9-5.2-7.9-9.8-12-4.6-4.1-10.2-7.3-16.6-9.7-6.4-2.4-14.1-3.6-23.1-3.6-8.3 0-16 1.1-23 3.2s-13 5.3-18 9.6c-4.9 4.3-8.6 9.2-11.2 14.8-3.2 7.1-4.7 14.7-4.7 22.9 0 9.1 1.9 17.8 5.6 26.1 4.6 10.1 11 17.9 19.4 23.3 8.4 5.4 18.6 8.1 30.6 8.1 9.3 0 17.6-1.9 25-5.7 7.4-3.8 13.2-9.5 17.5-17 3.6-6.5 5.4-13.5 5.4-21.1 0-10.9-3.8-20.5-11.5-28.9-6.8-7.5-14.2-11.3-22.3-11.3-2.6 0-4.7 0.4-6.3 1.2-1.6 0.8-2.8 1.9-3.5 3.4-0.2 1.1-0.6 2.8-0.8 5z m-27.1 15.2c0-5.1 1.2-9.1 3.6-11.9 2.4-2.9 5.2-4.3 8.4-4.3 2.1 0 4.3 0.6 6.6 1.9 2.3 1.3 4.5 3.1 6.6 5.6 2.1 2.5 3.9 5.6 5.2 9.4 1.3 3.8 2 7.6 2 11.4 0 5.1-1.3 9-3.8 11.8-2.5 2.8-5.6 4.2-9.2 4.2-2.4 0-4.6-0.6-6.8-1.8-2.1-1.2-4.2-3.2-6.1-5.9-2-2.7-3.6-6-4.8-9.8-1.1-3.8-1.7-7.3-1.7-10.6z"  horiz-adv-x="1024" />

    
    <glyph glyph-name="-zhinanzhen" unicode="&#59472;" d="M571.2 855.8H534V879.9h-47.6v-24.1h-38.1l-19.7-69.2h162.3zM509.8 879.9h-23.4v-24.1h-38.1l-19.7-69.2h81.2zM512 349.3m-461.9 0a461.9 461.9 0 1 1 923.8 0 461.9 461.9 0 1 1-923.8 0ZM512 811.2c-0.7 0-1.5-0.1-2.2-0.1v-923.6c0.7 0 1.5-0.1 2.2-0.1 255.1 0 461.9 206.8 461.9 461.9S767.1 811.2 512 811.2zM512 349.3m-386.4 0a386.4 386.4 0 1 1 772.8 0 386.4 386.4 0 1 1-772.8 0ZM497.9 735.5h28.2v-44h-28.2zM497.9 7h28.2v-44h-28.2zM306.659 676.72l24.42 14.1 22-38.104-24.42-14.1zM670.86 45.815l24.422 14.1 22-38.104-24.422-14.1zM170.41 530.204l14.1 24.421 38.104-22-14.1-24.421zM801.343 165.925l14.1 24.421 38.104-22-14.1-24.42zM125.763 335.175v28.2h44v-28.2zM854.252 335.087v28.2h44v-28.2zM184.492 143.93l-14.1 24.42 38.104 22 14.1-24.42zM815.337 508.139l-14.1 24.42 38.104 22 14.1-24.42zM331.043 7.645l-24.421 14.1 22 38.104 24.421-14.1zM695.33 638.52l-24.422 14.1 22 38.104 24.421-14.1zM512 614.6l-36.6-265.4h73.2zM512 88.2l-36.6 265.4h73.2zM775.2 351.4L509.8 388v-73.2zM248.8 351.4L514.2 388v-73.2zM512 349.3m-161 0a161 161 0 1 1 322 0 161 161 0 1 1-322 0ZM512 349.3m-128.4 0a128.4 128.4 0 1 1 256.8 0 128.4 128.4 0 1 1-256.8 0ZM277.1 108.3l191.7 282.5 90.8-90.8zM751.3 582.5L468.8 390.8l90.8-90.8zM751.3 582.5L514.2 345.4l45.4-45.4zM277.1 108.3l237.1 237.1 45.4-45.4z"  horiz-adv-x="1024" />

    
    <glyph glyph-name="-diannao" unicode="&#59473;" d="M1016.3 169.79999999999995H8.8V799.5c0 14.4 11.7 26.1 26.1 26.1h955.3c14.4 0 26.1-11.7 26.1-26.1v-629.7zM960.4 223.79999999999995H64.8c-12.8 0-23.2 10.4-23.2 23.2V770c0 12.8 10.4 23.2 23.2 23.2h895.6c12.8 0 23.2-10.4 23.2-23.2v-523c0-12.8-10.4-23.2-23.2-23.2zM344.7 137.29999999999995h335.8v-124.6H344.7zM512.6 137.29999999999995h167.9v-124.6H512.6zM995.6 117.89999999999998h-966c-11.5 0-20.8 9.3-20.8 20.8v41.5h1007.5v-41.5c0-11.5-9.3-20.8-20.7-20.8zM746.7-62.89999999999998H278.5l66.2 75.7h335.8zM512.6 151.79999999999995m-14.5 0a14.5 14.5 0 1 1 29 0 14.5 14.5 0 1 1-29 0ZM172 600.7h201V562H172zM172 524.3h364.2v-38.7H172zM172 455h402.1v-38.7H172z"  horiz-adv-x="1024" />

    
    <glyph glyph-name="-rili" unicode="&#59474;" d="M918.1-49.2H107.9c-41.2 0-74.6 33.4-74.6 74.6V652.7c0 41.2 33.4 74.6 74.6 74.6H918c41.2 0 74.6-33.4 74.6-74.6v-627.3c0.1-41.2-33.3-74.6-74.5-74.6zM520.9 727.3H107.6c-41 0-74.3-33.3-74.3-74.3v-628c0-41 33.3-74.3 74.3-74.3h413.3V727.3zM146.5 560.5V81h655.6v69.3h77.4V560.5zM372.2 657.8H267.9v86.9c0 28.8 23.3 52.1 52.1 52.1s52.1-23.3 52.1-52.1v-86.9zM758.1 657.8H653.8v86.9c0 28.8 23.3 52.1 52.1 52.1s52.1-23.3 52.1-52.1v-86.9zM330.5 484h52.1v-52.1h-52.1zM437.4 484h52.1v-52.1h-52.1zM544.3 484h52.1v-52.1h-52.1zM651.2 484h52.1v-52.1h-52.1zM758.1 484h52.1v-52.1h-52.1zM223.6 372.9h52.1v-52.1h-52.1zM330.5 372.9h52.1v-52.1h-52.1zM437.4 372.9h52.1v-52.1h-52.1zM544.3 372.9h52.1v-52.1h-52.1zM651.2 372.9h52.1v-52.1h-52.1zM758.1 372.9h52.1v-52.1h-52.1zM223.6 261.8h52.1v-52.1h-52.1zM330.5 261.8h52.1v-52.1h-52.1zM437.4 261.8h52.1v-52.1h-52.1zM544.3 261.8h52.1v-52.1h-52.1zM651.2 261.8h52.1v-52.1h-52.1zM758.1 261.8h52.1v-52.1h-52.1zM879.5 150.3h-77.4V81zM372.2 657.8h-52.1v139c28.8 0 52.1-23.3 52.1-52.1v-86.9zM758.1 657.8H706v139c28.8 0 52.1-23.3 52.1-52.1v-86.9z"  horiz-adv-x="1024" />

    
    <glyph glyph-name="-zhaopian" unicode="&#59475;" d="M21.7 748.4h977.6v-729.6H21.7zM74.6 686.4h871.9v-605.6H74.6zM453.2 502.7L280 202.6h346.5zM457.8 494.7l7.7-92.9-12.3-54.3 6-62.9 121.5-10.3zM74.6 287.4h871.9v-206.5H74.6zM304 555L130.8 254.9h346.5zM798.1 555m-51.2 0a51.2 51.2 0 1 1 102.4 0 51.2 51.2 0 1 1-102.4 0ZM830.8 594.1c0.3-2.3 0.9-4.6 0.9-7 0-33.1-31.7-60.2-72.8-64.7 9.4-11.3 23.4-18.6 39.2-18.6 28.3 0 51.2 22.9 51.2 51.2 0 15.8-7.2 29.7-18.5 39.1zM801 619.9h-5.8c-0.1 0-0.1 0-0.1 0.1v16.2c0 0.1 0 0.1 0.1 0.1h5.8c0.1 0 0.1 0 0.1-0.1V620c0-0.1 0-0.1-0.1-0.1zM801 473.8h-5.8c-0.1 0-0.1 0-0.1 0.1v16.2c0 0.1 0 0.1 0.1 0.1h5.8c0.1 0 0.1 0 0.1-0.1v-16.2c0-0.1 0-0.1-0.1-0.1zM846 598.8l-4.1 4.1v0.1l11.5 11.5h0.1l4.1-4.1v-0.1l-11.5-11.5h-0.1zM742.7 495.5l-4.1 4.1v0.1l11.5 11.5h0.1l4.1-4.1v-0.1l-11.5-11.5h-0.1zM863 552.1v5.8c0 0.1 0 0.1 0.1 0.1h16.2c0.1 0 0.1 0 0.1-0.1v-5.8c0-0.1 0-0.1-0.1-0.1h-16.2c-0.1 0-0.1 0.1-0.1 0.1zM716.9 552.1v5.8c0 0.1 0 0.1 0.1 0.1h16.2c0.1 0 0.1 0 0.1-0.1v-5.8c0-0.1 0-0.1-0.1-0.1H717c-0.1 0-0.1 0.1-0.1 0.1zM841.9 507.1l4.1 4.1h0.1l11.5-11.5v-0.1l-4.1-4.1h-0.1L841.9 507v0.1zM738.6 610.5l4.1 4.1h0.1l11.5-11.5v-0.1l-4.1-4.1h-0.1l-11.5 11.5v0.1z"  horiz-adv-x="1024" />

    
    <glyph glyph-name="-suo" unicode="&#59476;" d="M513-95.4c-124.6 0-226 101.4-226 226V653c0 124.6 101.4 226 226 226s226-101.4 226-226v-522.4c0-124.6-101.4-226-226-226z m0 907.8c-87.9 0-159.4-71.5-159.4-159.4v-522.4c0-87.9 71.5-159.4 159.4-159.4s159.4 71.5 159.4 159.4V653c0 87.9-71.5 159.4-159.4 159.4zM829.6-106.5H196.4c-21.1 0-38.1 17.1-38.1 38.1V487.8c0 21.1 17.1 38.1 38.1 38.1h633.2c21.1 0 38.1-17.1 38.1-38.1v-556.2c0-21.1-17.1-38.1-38.1-38.1zM265.3 525.9h495.4v-632.5H265.3zM513 525.9h247.7v-632.5H513zM513 242.4m-61.3 0a61.3 61.3 0 1 1 122.6 0 61.3 61.3 0 1 1-122.6 0ZM513 220.2c-31.5 0-48-97.7-48-97.7h96s-16.5 97.7-48 97.7z"  horiz-adv-x="1024" />

    
    <glyph glyph-name="-laba" unicode="&#59477;" d="M145.2 375.6h-43.7c-13 0-23.5 10.5-23.5 23.5v69.2c0 13 10.5 23.5 23.5 23.5h43.7v-116.2zM170.6 339.6h-32.2c-14.8 0-26.7 12-26.7 26.7V501c0 14.8 12 26.7 26.7 26.7h32.2v-188.1zM926.4-11.7L469.1 248.6V618.7L926.4 879zM926.4 879h31.4v-890.7h-31.4zM366-117.1h-92.4l-49.3 456.7h191.1zM469.1 248.6H282.5c-61.8 0-112 50.1-112 112V506.8c0 61.8 50.1 112 112 112H469v-370.2zM319.8 339.6v-456.7H366l49.4 456.7zM469.1 248.6H277.8c-59.2 0-107.2 48-107.2 107.2V511.5c0 59.2 48 107.2 107.2 107.2h191.3v-370.1zM319.8 618.7h149.3v-370.2H319.8z"  horiz-adv-x="1024" />

    
    <glyph glyph-name="-gongwenbao" unicode="&#59478;" d="M628.3 103.9H394.8c-50.1 0-90.8 40.7-90.8 90.8V764.2c0 50.1 40.7 90.8 90.8 90.8h233.4c50.1 0 90.8-40.7 90.8-90.8v-569.5c0.1-50.1-40.6-90.8-90.7-90.8zM394.8 811.3c-26 0-47.1-21.1-47.1-47.1v-569.5c0-26 21.1-47.1 47.1-47.1h233.4c26 0 47.1 21.1 47.1 47.1V764.2c0 26-21.1 47.1-47.1 47.1H394.8zM957.5-7.4H65.6c-25.3 0-45.8 20.5-45.8 45.8V662.5c0 28.8 23.3 52.1 52.1 52.1h885.7c25.2 0 45.7-20.4 45.7-45.7v-630.6c0-25.2-20.5-45.7-45.8-45.7zM510.7-7.4H69.6c-27.9 0-50.6 22.6-50.6 50.6V664.1c0 27.9 22.6 50.6 50.6 50.6h441.1v-722.1zM19.8 369.5c139.2-53 308.7-84.3 491.7-84.3s352.6 31.2 491.7 84.3V668.9c0 25.3-20.5 45.8-45.8 45.8H65.6c-25.3 0-45.8-20.5-45.8-45.8v-299.4zM461.5 382.9h100.1v-141.1H461.5zM481.5 353.6h60.2v-28.8h-60.2zM481.5 312.4h60.2v-48.8h-60.2z"  horiz-adv-x="1024" />

    
    <glyph glyph-name="-shezhi" unicode="&#59479;" d="M951.7 465.6H902c-10.3 48.3-29.3 93.4-55.4 133.5l35.2 35.2c23.5 23.5 23.5 62 0 85.5L849.6 752c-23.5 23.5-62 23.5-85.5 0L729 716.7c-40.1 26-85.2 45.1-133.5 55.4V821.8c0 33.2-27.2 60.5-60.4 60.5h-45.5c-33.2 0-60.5-27.2-60.5-60.5v-49.7c-48.3-10.3-93.4-29.3-133.5-55.4l-35.2 35.2c-23.5 23.5-62 23.5-85.5 0l-32.2-32.2c-23.5-23.5-23.5-62 0-85.5l35.2-35.2c-26-40.1-45.1-85.2-55.4-133.5H72.9c-33.2 0-60.5-27.2-60.5-60.4v-45.5c0-33.2 27.2-60.4 60.5-60.4h49.7c10.3-48.3 29.3-93.4 55.4-133.5l-35.2-35.2c-23.5-23.5-23.5-62 0-85.5l32.2-32.2c23.5-23.5 62-23.5 85.5 0l35.2 35.2c40.1-26 85.2-45.1 133.5-55.4V-57c0-33.2 27.2-60.5 60.5-60.5H535c33.2 0 60.4 27.2 60.4 60.5v49.7C643.8 2.9 688.8 22 729 48l35.2-35.2c23.5-23.5 62-23.5 85.5 0l32.2 32.2c23.5 23.5 23.5 62 0 85.5l-35.2 35.2c26 40.1 45.1 85.2 55.4 133.5h49.7c33.2 0 60.4 27.2 60.4 60.4v45.5c-0.1 33.3-27.3 60.5-60.5 60.5zM512.3 112.9c-148.8 0-269.5 120.7-269.5 269.5s120.7 269.5 269.5 269.5 269.5-120.7 269.5-269.5-120.7-269.5-269.5-269.5zM512.3 382.4m-197.7 0a197.7 197.7 0 1 1 395.4 0 197.7 197.7 0 1 1-395.4 0ZM512.3 580v-395.3c109.2 0 197.7 88.5 197.7 197.7S621.4 580 512.3 580zM512.3 382.4m-145.7 0a145.7 145.7 0 1 1 291.4 0 145.7 145.7 0 1 1-291.4 0ZM951.7 465.6H902c-10.3 48.3-29.3 93.4-55.4 133.5l35.2 35.2c23.5 23.5 23.5 62 0 85.5L849.6 752c-23.5 23.5-62 23.5-85.5 0L729 716.7c-40.1 26-85.2 45.1-133.5 55.4V821.8c0 33.2-27.2 60.5-60.5 60.5h-22.8v-230.4c148.8 0 269.5-120.7 269.5-269.5S661.1 112.9 512.3 112.9v-230.4H535c33.2 0 60.5 27.2 60.5 60.5v49.7C643.8 2.9 688.8 22 729 48l35.2-35.2c23.5-23.5 62-23.5 85.5 0l32.2 32.2c23.5 23.5 23.5 62 0 85.5l-35.2 35.2c26 40.1 45.1 85.2 55.4 133.5h49.7c33.2 0 60.5 27.2 60.5 60.4v45.5c-0.2 33.3-27.4 60.5-60.6 60.5zM512.3 528.1v-291.4c80.5 0 145.7 65.2 145.7 145.7-0.1 80.4-65.3 145.7-145.7 145.7zM512.3 382.4m-70.3 0a70.3 70.3 0 1 1 140.6 0 70.3 70.3 0 1 1-140.6 0ZM512.3 452.7v-140.6c38.8 0 70.3 31.5 70.3 70.3s-31.5 70.3-70.3 70.3z"  horiz-adv-x="1024" />

    
    <glyph glyph-name="-ciji" unicode="&#59480;" d="M981.7-91h-467C253.5-91 40.9 121.5 40.9 382.8S253.5 856.5 514.7 856.5h467V704h-467c-177.2 0-321.3-144.1-321.3-321.3s144.1-321.3 321.3-321.3h467V-91zM514.7 704.1h467v71.4H521.4c-216 0-392.7-176.7-392.7-392.7s176.7-392.7 392.7-392.7h460.3v71.4h-467c-177.2 0-321.3 144.1-321.3 321.3s144.1 321.3 321.3 321.3zM981.7-14.8H817.8M817.8 61.5h163.9V-91H817.8zM817.8 856.5h163.9V704H817.8zM817.8 776.1h163.9v-72H817.8zM981.7-50.5H817.8M817.8-10h163.9v-81H817.8zM685 569.2L516.2 382.3h114.5l-70.9-162 196.9 203.2-126.8 3.2zM734.7 400.8H532.8l-16.6-18.5h114.5l-70.9-162z"  horiz-adv-x="1024" />

    
    <glyph glyph-name="-banshou" unicode="&#59481;" d="M61.6-65.5c-36.6 36.6-36.6 96 0 132.6l464.7 464.7L662 396.1 200.4-65.5c-38.4-38.3-100.5-38.3-138.8 0zM65.2-69.1l531 531 65.8-65.8-465.2-465.2c-36.4-36.3-95.3-36.3-131.6 0zM121.3-3.1m-34.3 0a34.3 34.3 0 1 1 68.6 0 34.3 34.3 0 1 1-68.6 0ZM968.1 681.2L778.9 540.1 670.3 648.6 811.4 837.9C710.2 899.7 575.5 887.1 488.2 799.8l-15.5-15.5c-102.3-102.3-102.3-269.8 0-372.1l69.8-69.8c102.3-102.3 269.8-102.3 372.1 0L930 358c87.4 87.3 99.9 222 38.1 323.2zM365.763 335.868l100.762-100.762-12.657-12.657L353.106 323.21zM337.373 307.445l100.762-100.761-12.658-12.658-100.761 100.762zM311.824 281.963L412.586 181.2l-12.657-12.657-100.762 100.762zM785.9 272.2c28.8 6.4 56.7 17.6 82.4 33.7L436.1 738c-16.1-25.7-27.3-53.6-33.7-82.4l383.5-383.4zM365.748 335.927l52.255-52.255-12.657-12.657-52.255 52.255zM337.358 307.504l52.254-52.254-12.657-12.657-52.254 52.254zM311.81 281.88l52.254-52.254-12.657-12.657-52.255 52.254z"  horiz-adv-x="1024" />

    
    <glyph glyph-name="-maikefeng" unicode="&#59482;" d="M468 76.8h86.7V-63H468zM468 76.8h43.4V-63H468zM709.3 68.2H313.4c-40.5 0-73.4 32.9-73.4 73.4v315c0 40.5 32.9 73.4 73.4 73.4h395.9c40.5 0 73.4-32.9 73.4-73.4v-315c0-40.5-33-73.4-73.4-73.4zM313.4 495.8c-21.6 0-39.1-17.6-39.1-39.1v-315c0-21.6 17.6-39.1 39.1-39.1h395.9c21.6 0 39.1 17.6 39.1 39.1v315c0 21.6-17.6 39.1-39.1 39.1H313.4zM511.3 120c-101.2 0-184.1 82.8-184.1 184.1V701.2c0 101.2 82.8 184.1 184.1 184.1 101.2 0 184.1-82.8 184.1-184.1v-397.1c0-101.3-82.8-184.1-184.1-184.1zM511.3 885.2V120c101.2 0 184.1 82.8 184.1 184.1V701.2c0 101.2-82.8 184-184.1 184zM359.6 694m-11.6 0a11.6 11.6 0 1 1 23.2 0 11.6 11.6 0 1 1-23.2 0ZM402.9 694m-11.6 0a11.6 11.6 0 1 1 23.2 0 11.6 11.6 0 1 1-23.2 0ZM446.3 694m-11.6 0a11.6 11.6 0 1 1 23.2 0 11.6 11.6 0 1 1-23.2 0ZM489.7 694m-11.6 0a11.6 11.6 0 1 1 23.2 0 11.6 11.6 0 1 1-23.2 0ZM533 694m-11.6 0a11.6 11.6 0 1 1 23.2 0 11.6 11.6 0 1 1-23.2 0ZM576.4 694m-11.6 0a11.6 11.6 0 1 1 23.2 0 11.6 11.6 0 1 1-23.2 0ZM619.7 694m-11.6 0a11.6 11.6 0 1 1 23.2 0 11.6 11.6 0 1 1-23.2 0ZM663.1 694m-11.6 0a11.6 11.6 0 1 1 23.2 0 11.6 11.6 0 1 1-23.2 0ZM359.6 624.1m-11.6 0a11.6 11.6 0 1 1 23.2 0 11.6 11.6 0 1 1-23.2 0ZM402.9 624.1m-11.6 0a11.6 11.6 0 1 1 23.2 0 11.6 11.6 0 1 1-23.2 0ZM446.3 624.1m-11.6 0a11.6 11.6 0 1 1 23.2 0 11.6 11.6 0 1 1-23.2 0ZM489.7 624.1m-11.6 0a11.6 11.6 0 1 1 23.2 0 11.6 11.6 0 1 1-23.2 0ZM533 624.1m-11.6 0a11.6 11.6 0 1 1 23.2 0 11.6 11.6 0 1 1-23.2 0ZM576.4 624.1m-11.6 0a11.6 11.6 0 1 1 23.2 0 11.6 11.6 0 1 1-23.2 0ZM619.7 624.1m-11.6 0a11.6 11.6 0 1 1 23.2 0 11.6 11.6 0 1 1-23.2 0ZM663.1 624.1m-11.6 0a11.6 11.6 0 1 1 23.2 0 11.6 11.6 0 1 1-23.2 0ZM359.6 554.2m-11.6 0a11.6 11.6 0 1 1 23.2 0 11.6 11.6 0 1 1-23.2 0ZM402.9 554.2m-11.6 0a11.6 11.6 0 1 1 23.2 0 11.6 11.6 0 1 1-23.2 0ZM446.3 554.2m-11.6 0a11.6 11.6 0 1 1 23.2 0 11.6 11.6 0 1 1-23.2 0ZM489.7 554.2m-11.6 0a11.6 11.6 0 1 1 23.2 0 11.6 11.6 0 1 1-23.2 0ZM533 554.2m-11.6 0a11.6 11.6 0 1 1 23.2 0 11.6 11.6 0 1 1-23.2 0ZM576.4 554.2m-11.6 0a11.6 11.6 0 1 1 23.2 0 11.6 11.6 0 1 1-23.2 0ZM619.7 554.2m-11.6 0a11.6 11.6 0 1 1 23.2 0 11.6 11.6 0 1 1-23.2 0ZM663.1 554.2m-11.6 0a11.6 11.6 0 1 1 23.2 0 11.6 11.6 0 1 1-23.2 0ZM359.6 484.3m-11.6 0a11.6 11.6 0 1 1 23.2 0 11.6 11.6 0 1 1-23.2 0ZM402.9 484.3m-11.6 0a11.6 11.6 0 1 1 23.2 0 11.6 11.6 0 1 1-23.2 0ZM446.3 484.3m-11.6 0a11.6 11.6 0 1 1 23.2 0 11.6 11.6 0 1 1-23.2 0ZM489.7 484.3m-11.6 0a11.6 11.6 0 1 1 23.2 0 11.6 11.6 0 1 1-23.2 0ZM533 484.3m-11.6 0a11.6 11.6 0 1 1 23.2 0 11.6 11.6 0 1 1-23.2 0ZM576.4 484.3m-11.6 0a11.6 11.6 0 1 1 23.2 0 11.6 11.6 0 1 1-23.2 0ZM619.7 484.3m-11.6 0a11.6 11.6 0 1 1 23.2 0 11.6 11.6 0 1 1-23.2 0ZM663.1 484.3m-11.6 0a11.6 11.6 0 1 1 23.2 0 11.6 11.6 0 1 1-23.2 0ZM359.6 414.4m-11.6 0a11.6 11.6 0 1 1 23.2 0 11.6 11.6 0 1 1-23.2 0ZM402.9 414.4m-11.6 0a11.6 11.6 0 1 1 23.2 0 11.6 11.6 0 1 1-23.2 0ZM446.3 414.4m-11.6 0a11.6 11.6 0 1 1 23.2 0 11.6 11.6 0 1 1-23.2 0ZM489.7 414.4m-11.6 0a11.6 11.6 0 1 1 23.2 0 11.6 11.6 0 1 1-23.2 0ZM533 414.4m-11.6 0a11.6 11.6 0 1 1 23.2 0 11.6 11.6 0 1 1-23.2 0ZM576.4 414.4m-11.6 0a11.6 11.6 0 1 1 23.2 0 11.6 11.6 0 1 1-23.2 0ZM619.7 414.4m-11.6 0a11.6 11.6 0 1 1 23.2 0 11.6 11.6 0 1 1-23.2 0ZM663.1 414.4m-11.6 0a11.6 11.6 0 1 1 23.2 0 11.6 11.6 0 1 1-23.2 0ZM359.6 344.5m-11.6 0a11.6 11.6 0 1 1 23.2 0 11.6 11.6 0 1 1-23.2 0ZM402.9 344.5m-11.6 0a11.6 11.6 0 1 1 23.2 0 11.6 11.6 0 1 1-23.2 0ZM446.3 344.5m-11.6 0a11.6 11.6 0 1 1 23.2 0 11.6 11.6 0 1 1-23.2 0ZM489.7 344.5m-11.6 0a11.6 11.6 0 1 1 23.2 0 11.6 11.6 0 1 1-23.2 0ZM533 344.5m-11.6 0a11.6 11.6 0 1 1 23.2 0 11.6 11.6 0 1 1-23.2 0ZM576.4 344.5m-11.6 0a11.6 11.6 0 1 1 23.2 0 11.6 11.6 0 1 1-23.2 0ZM619.7 344.5m-11.6 0a11.6 11.6 0 1 1 23.2 0 11.6 11.6 0 1 1-23.2 0ZM663.1 344.5m-11.6 0a11.6 11.6 0 1 1 23.2 0 11.6 11.6 0 1 1-23.2 0ZM381.2 659m-11.6 0a11.6 11.6 0 1 1 23.2 0 11.6 11.6 0 1 1-23.2 0ZM338.9 659m-11.6 0a11.6 11.6 0 1 1 23.2 0 11.6 11.6 0 1 1-23.2 0ZM424.6 659m-11.6 0a11.6 11.6 0 1 1 23.2 0 11.6 11.6 0 1 1-23.2 0ZM468 659m-11.6 0a11.6 11.6 0 1 1 23.2 0 11.6 11.6 0 1 1-23.2 0ZM511.3 659m-11.6 0a11.6 11.6 0 1 1 23.2 0 11.6 11.6 0 1 1-23.2 0ZM554.7 659m-11.6 0a11.6 11.6 0 1 1 23.2 0 11.6 11.6 0 1 1-23.2 0ZM598.1 659m-11.6 0a11.6 11.6 0 1 1 23.2 0 11.6 11.6 0 1 1-23.2 0ZM641.4 659m-11.6 0a11.6 11.6 0 1 1 23.2 0 11.6 11.6 0 1 1-23.2 0ZM683.8 659m-11.6 0a11.6 11.6 0 1 1 23.2 0 11.6 11.6 0 1 1-23.2 0ZM381.2 589.1m-11.6 0a11.6 11.6 0 1 1 23.2 0 11.6 11.6 0 1 1-23.2 0ZM338.9 589.1m-11.6 0a11.6 11.6 0 1 1 23.2 0 11.6 11.6 0 1 1-23.2 0ZM424.6 589.1m-11.6 0a11.6 11.6 0 1 1 23.2 0 11.6 11.6 0 1 1-23.2 0ZM468 589.1m-11.6 0a11.6 11.6 0 1 1 23.2 0 11.6 11.6 0 1 1-23.2 0ZM511.3 589.1m-11.6 0a11.6 11.6 0 1 1 23.2 0 11.6 11.6 0 1 1-23.2 0ZM554.7 589.1m-11.6 0a11.6 11.6 0 1 1 23.2 0 11.6 11.6 0 1 1-23.2 0ZM598.1 589.1m-11.6 0a11.6 11.6 0 1 1 23.2 0 11.6 11.6 0 1 1-23.2 0ZM641.4 589.1m-11.6 0a11.6 11.6 0 1 1 23.2 0 11.6 11.6 0 1 1-23.2 0ZM683.8 589.1m-11.6 0a11.6 11.6 0 1 1 23.2 0 11.6 11.6 0 1 1-23.2 0ZM381.2 519.2m-11.6 0a11.6 11.6 0 1 1 23.2 0 11.6 11.6 0 1 1-23.2 0ZM338.9 519.2m-11.6 0a11.6 11.6 0 1 1 23.2 0 11.6 11.6 0 1 1-23.2 0ZM424.6 519.2m-11.6 0a11.6 11.6 0 1 1 23.2 0 11.6 11.6 0 1 1-23.2 0ZM468 519.2m-11.6 0a11.6 11.6 0 1 1 23.2 0 11.6 11.6 0 1 1-23.2 0ZM511.3 519.2m-11.6 0a11.6 11.6 0 1 1 23.2 0 11.6 11.6 0 1 1-23.2 0ZM554.7 519.2m-11.6 0a11.6 11.6 0 1 1 23.2 0 11.6 11.6 0 1 1-23.2 0ZM598.1 519.2m-11.6 0a11.6 11.6 0 1 1 23.2 0 11.6 11.6 0 1 1-23.2 0ZM641.4 519.2m-11.6 0a11.6 11.6 0 1 1 23.2 0 11.6 11.6 0 1 1-23.2 0ZM683.8 519.2m-11.6 0a11.6 11.6 0 1 1 23.2 0 11.6 11.6 0 1 1-23.2 0ZM381.2 449.4m-11.6 0a11.6 11.6 0 1 1 23.2 0 11.6 11.6 0 1 1-23.2 0ZM338.9 449.4m-11.6 0a11.6 11.6 0 1 1 23.2 0 11.6 11.6 0 1 1-23.2 0ZM424.6 449.4m-11.6 0a11.6 11.6 0 1 1 23.2 0 11.6 11.6 0 1 1-23.2 0ZM468 449.4m-11.6 0a11.6 11.6 0 1 1 23.2 0 11.6 11.6 0 1 1-23.2 0ZM511.3 449.4m-11.6 0a11.6 11.6 0 1 1 23.2 0 11.6 11.6 0 1 1-23.2 0ZM554.7 449.4m-11.6 0a11.6 11.6 0 1 1 23.2 0 11.6 11.6 0 1 1-23.2 0ZM598.1 449.4m-11.6 0a11.6 11.6 0 1 1 23.2 0 11.6 11.6 0 1 1-23.2 0ZM641.4 449.4m-11.6 0a11.6 11.6 0 1 1 23.2 0 11.6 11.6 0 1 1-23.2 0ZM683.8 449.4m-11.6 0a11.6 11.6 0 1 1 23.2 0 11.6 11.6 0 1 1-23.2 0ZM381.2 379.5m-11.6 0a11.6 11.6 0 1 1 23.2 0 11.6 11.6 0 1 1-23.2 0ZM338.9 379.5m-11.6 0a11.6 11.6 0 1 1 23.2 0 11.6 11.6 0 1 1-23.2 0ZM424.6 379.5m-11.6 0a11.6 11.6 0 1 1 23.2 0 11.6 11.6 0 1 1-23.2 0ZM468 379.5m-11.6 0a11.6 11.6 0 1 1 23.2 0 11.6 11.6 0 1 1-23.2 0ZM511.3 379.5m-11.6 0a11.6 11.6 0 1 1 23.2 0 11.6 11.6 0 1 1-23.2 0ZM554.7 379.5m-11.6 0a11.6 11.6 0 1 1 23.2 0 11.6 11.6 0 1 1-23.2 0ZM598.1 379.5m-11.6 0a11.6 11.6 0 1 1 23.2 0 11.6 11.6 0 1 1-23.2 0ZM641.4 379.5m-11.6 0a11.6 11.6 0 1 1 23.2 0 11.6 11.6 0 1 1-23.2 0ZM683.8 379.5m-11.6 0a11.6 11.6 0 1 1 23.2 0 11.6 11.6 0 1 1-23.2 0ZM381.2 309.6m-11.6 0a11.6 11.6 0 1 1 23.2 0 11.6 11.6 0 1 1-23.2 0ZM338.9 309.6m-11.6 0a11.6 11.6 0 1 1 23.2 0 11.6 11.6 0 1 1-23.2 0ZM424.6 309.6m-11.6 0a11.6 11.6 0 1 1 23.2 0 11.6 11.6 0 1 1-23.2 0ZM468 309.6m-11.6 0a11.6 11.6 0 1 1 23.2 0 11.6 11.6 0 1 1-23.2 0ZM511.3 309.6m-11.6 0a11.6 11.6 0 1 1 23.2 0 11.6 11.6 0 1 1-23.2 0ZM554.7 309.6m-11.6 0a11.6 11.6 0 1 1 23.2 0 11.6 11.6 0 1 1-23.2 0ZM598.1 309.6m-11.6 0a11.6 11.6 0 1 1 23.2 0 11.6 11.6 0 1 1-23.2 0ZM641.4 309.6m-11.6 0a11.6 11.6 0 1 1 23.2 0 11.6 11.6 0 1 1-23.2 0ZM683.8 309.6m-11.6 0a11.6 11.6 0 1 1 23.2 0 11.6 11.6 0 1 1-23.2 0ZM350.5-73.7c0 24.4 19.8 44.2 44.2 44.2H628c24.4 0 44.2-19.8 44.2-44.2 0-24.4-19.8-44.2-44.2-44.2H394.7c-24.4 0-44.2 19.8-44.2 44.2zM394.7-117.9H628c24.4 0 44.2 19.8 44.2 44.2H350.5c0-24.4 19.8-44.2 44.2-44.2z"  horiz-adv-x="1024" />

    
    <glyph glyph-name="-xinxi" unicode="&#59483;" d="M707.9-105.4h-547c-21.2 0-38.4 17.2-38.4 38.4V832.6c0 21.2 17.2 38.4 38.4 38.4h546.9c21.2 0 38.4-17.2 38.4-38.4V-67c0.1-21.2-17.1-38.4-38.3-38.4zM707.3-105.4H434.4V871h272.9c21.5 0 39-17.4 39-39v-898.5c0-21.4-17.4-38.9-39-38.9zM173.5 787.6h521.8V81H173.5zM440.2-18.2m-38.9 0a38.9 38.9 0 1 1 77.8 0 38.9 38.9 0 1 1-77.8 0ZM247.5 619.1h140.1v-45.9H247.5zM247.5 528.6h252.1v-45.9H247.5zM247.5 446.5h198.3v-45.9H247.5zM612 645.9c-158.7 0-287.3-100.6-287.3-224.8 0-69 39.8-130.7 102.3-171.9 0.1-1.3 0.3-2.6 0.3-3.9 0-17.8-5.9-34.1-15.6-47.4 5.1-1 10.3-1.6 15.6-1.6 22.3 0 42.4 9 57.1 23.6 38.5-15 81.7-23.6 127.5-23.6 158.7 0 287.3 100.6 287.3 224.8 0.1 124.2-128.5 224.8-287.2 224.8zM803.7 588.2c1.8-11.8 3.1-23.7 3.1-35.9 0-163.5-170.8-296.1-381.4-296.1-2.8 0-5.5 0.3-8.2 0.3 3.3-2.4 6.5-5 9.9-7.3 0.1-1.3 0.3-2.6 0.3-3.9 0-17.8-5.9-34.1-15.6-47.4 5.1-1 10.3-1.6 15.6-1.6 22.3 0 42.4 9 57.1 23.6 38.5-15 81.7-23.6 127.5-23.6 158.7 0 287.3 100.6 287.3 224.8 0 66.5-37 126-95.6 167.1zM466.3 422.2m-30.1 0a30.1 30.1 0 1 1 60.2 0 30.1 30.1 0 1 1-60.2 0ZM612 422.2m-30.1 0a30.1 30.1 0 1 1 60.2 0 30.1 30.1 0 1 1-60.2 0ZM757.8 422.2m-30.1 0a30.1 30.1 0 1 1 60.2 0 30.1 30.1 0 1 1-60.2 0Z"  horiz-adv-x="1024" />

    
    <glyph glyph-name="-yinhangqia" unicode="&#59484;" d="M823.5 297.6L237.8 31.4c-14.5-6.6-31.6-0.2-38.2 14.3L19.2 442.6c-6.6 14.5-0.2 31.6 14.3 38.2L597.2 737c14.5 6.6 31.6 0.2 38.2-14.3l190.4-418.9c1.1-2.4 0-5.1-2.3-6.2zM823.5 297.6L519.6 159.5 315.3 608.9 619.2 747c2.4 1.1 5.1 0 6.2-2.3l200.4-440.9c1.1-2.4 0-5.1-2.3-6.2zM58.317 356.494l616.25 280.102 42.828-94.227-616.25-280.101zM231.012 255.622l163.143 74.153 16.47-36.234-163.144-74.153zM260.634 190.448L487.87 293.732l16.47-36.234-227.237-103.284zM981.1 90.7H362c-15.9 0-28.9 12.9-28.9 28.9v436c0 15.9 12.9 28.9 28.9 28.9h619.1c15.9 0 28.9-12.9 28.9-28.9v-436c0-16-12.9-28.9-28.9-28.9zM1005.3 90.7H671.6V584.4h333.7c2.6 0 4.7-2.1 4.7-4.7v-484.3c0-2.6-2.1-4.7-4.7-4.7zM333.1 461H1010v-103.5H333.1zM448.6 297.8h179.2V258H448.6zM448.6 226.1h249.6v-39.8H448.6zM942.9 257.9h-35.1c-10.9 0-19.9 9-19.9 19.9 0 10.9 9 19.9 19.9 19.9h35.1c10.9 0 19.9-9 19.9-19.9 0-10.9-9-19.9-19.9-19.9z"  horiz-adv-x="1024" />

    
    <glyph glyph-name="-yinhang" unicode="&#59485;" d="M521.1 859.8L87.2 496.6h867.9zM87.2 496.6H955V444H87.2zM331.7 373.20000000000005H205.1l-19.9 70.9h166.3zM584.4 373.20000000000005H457.8L438 444.1h166.3zM835.2 373.20000000000005H708.6l-19.9 70.9H855zM222 373.20000000000005h92.6v-302.8H222zM474.8 373.20000000000005h92.6v-302.8h-92.6zM725.6 373.20000000000005h92.6v-302.8h-92.6zM204.7 70.29999999999995h127v-64.5h-127zM457.6 70.29999999999995h127v-64.5h-127zM708.4 70.29999999999995h127v-64.5h-127zM521.1 859.8v-363.2h434zM268.4 373.20000000000005h46.3v-302.8h-46.3zM521.1 373.20000000000005h46.3v-302.8h-46.3zM771.9 373.20000000000005h46.3v-302.8h-46.3zM152.2 32.10000000000002h737.9v-52.6H152.2zM62.4-20.5H980v-72.3H62.4z"  horiz-adv-x="1024" />

    
    <glyph glyph-name="-baoshi" unicode="&#59486;" d="M960.4 494.2H56L244.7 808.8h526.9zM56 494.2h904.4L508.2-42.5zM260.5 494.2H56L244.7 808.8zM260.5 494.2H56l452.2-536.7zM755.9 494.2h204.5L508.2-42.5zM755.9 494.2h204.5L771.6 808.8zM508.2 808.8L260.5 494.2h495.4zM508.2-42.5L260.5 494.2h495.4z"  horiz-adv-x="1024" />

    
    <glyph glyph-name="-shalou" unicode="&#59487;" d="M859.4 789.4H168.8c-36.9 0-66.9 29.9-66.9 66.9V868.6h824.4v-12.4c0-36.9-29.9-66.8-66.9-66.8zM514.1 410.9c158.7 0 287.3 169.5 287.3 378.5H226.8c0-209.1 128.6-378.5 287.3-378.5zM172.5-21.200000000000045h683.3c39 0 70.6-31.6 70.6-70.6v-8.7H101.9v8.7c0 39.1 31.6 70.6 70.6 70.6zM514.1 357.4c-158.7 0-287.3-169.5-287.3-378.5h574.7c0 209-128.7 378.5-287.4 378.5zM514.2 789.4v-378.5c158.6 0.1 287.2 169.5 287.2 378.5H514.2zM486.4 460.4h55.5v-162.5h-55.5zM514.1-21.100000000000023h287.3c0 209-128.6 378.5-287.3 378.5v-378.5zM514.1 460.4h27.7v-162.5h-27.7zM249.1 642.8c43.5-136.2 145.7-231.9 265-231.9 119.2 0 221.5 95.7 265 231.9h-530zM770.5-21.100000000000023c-58.9 68.6-151.7 113-256.3 113-104.7 0-197.5-44.5-256.4-113h512.7zM501.6 279.70000000000005a28.2 12.600000000000001 90 1 1 25.2 0 28.2 12.600000000000001 90 1 1-25.2 0ZM501.6 196.29999999999995a28.2 12.600000000000001 90 1 1 25.2 0 28.2 12.600000000000001 90 1 1-25.2 0ZM501.5 99.79999999999995a28.2 12.600000000000001 90 1 1 25.2 0 28.2 12.600000000000001 90 1 1-25.2 0ZM404.8 526.8c-35.2 0-69.2 2.2-101.7 5.9 52.5-74.9 127.5-121.9 211-121.9 118.6 0 220.4 94.7 264.2 229.8-54.5-66.2-200.9-113.8-373.5-113.8zM514.1 868.6v-79.3h351.8c33.4 0 60.4 27.1 60.4 60.4V868.6H514.1zM865.9-21.100000000000023H514.2v-79.3h412.1v18.8c0 33.4-27.1 60.5-60.4 60.5z"  horiz-adv-x="1024" />

    
    <glyph glyph-name="-shiyanping" unicode="&#59488;" d="M631.5 614.2H378.6c-24.9 0-45.2 20.2-45.2 45.2 0 24.9 20.2 45.2 45.2 45.2h252.9c24.9 0 45.2-20.2 45.2-45.2-0.1-25-20.3-45.2-45.2-45.2zM911.7-24.6L623.8 449.8V614.2H386.2v-164.4L98.4-24.6c-24.3-40.2 4.6-91.5 51.6-91.5h710.2c46.9 0 75.8 51.3 51.5 91.5zM911.7-24.6L623.8 449.8V614.2H505.1v-730.3h355c47 0 75.9 51.3 51.6 91.5zM840 2L739.3 168c-7.5 12.4-21 19.8-35.5 20.1-185.6 3.5-201.2-98.9-276.4-100-74.6-1-107.3 25-164.9 66.2l-92.3-152c-20-33 3.7-75.3 42.4-75.3h585.1c38.5-0.1 62.3 42.1 42.3 75zM431.1 236.7m-48.6 0a48.6 48.6 0 1 1 97.2 0 48.6 48.6 0 1 1-97.2 0ZM392.6 207.4c8.9-11.7 22.8-19.3 38.6-19.3 26.8 0 48.6 21.8 48.6 48.6 0 8.8-2.5 16.9-6.6 24-12.5-23.3-42-42.5-80.6-53.3zM416.1 270.2a12.9 5.7 0 1 1 25.8 0 12.9 5.7 0 1 1-25.8 0ZM511.9 779.2m-32.2 0a32.2 32.2 0 1 1 64.4 0 32.2 32.2 0 1 1-64.4 0ZM486.4 759.9c5.9-7.7 15.1-12.8 25.5-12.8 17.8 0 32.2 14.4 32.2 32.2 0 5.8-1.7 11.2-4.3 15.9-8.3-15.5-27.9-28.2-53.4-35.3zM502 801.4a8.5 3.8 0 1 1 17 0 8.5 3.8 0 1 1-17 0ZM468.8 853.9m-22.8 0a22.8 22.8 0 1 1 45.6 0 22.8 22.8 0 1 1-45.6 0ZM450.7 840.2c4.2-5.5 10.7-9.1 18.1-9.1 12.6 0 22.8 10.2 22.8 22.8 0 4.1-1.2 7.9-3.1 11.2-5.9-10.9-19.7-19.9-37.8-24.9zM461.8 869.6a6 2.7 0 1 1 12 0 6 2.7 0 1 1-12 0ZM585.5 853.9m-25.3 0a25.3 25.3 0 1 1 50.6 0 25.3 25.3 0 1 1-50.6 0ZM565.4 838.6c4.6-6.1 11.9-10.1 20.1-10.1 14 0 25.3 11.3 25.3 25.3 0 4.6-1.3 8.8-3.4 12.5-6.5-12.1-21.8-22.1-42-27.7zM577.7 871.4a6.7 3 0 1 1 13.4 0 6.7 3 0 1 1-13.4 0ZM528.4 443.7m-36.5 0a36.5 36.5 0 1 1 73 0 36.5 36.5 0 1 1-73 0ZM499.5 421.7c6.7-8.7 17.1-14.5 28.9-14.5 20.1 0 36.5 16.3 36.5 36.5 0 6.6-1.9 12.7-4.9 18-9.4-17.5-31.5-31.9-60.5-40zM517.2 468.8a9.7 4.3 0 1 1 19.4 0 9.7 4.3 0 1 1-19.4 0ZM797.1 72.7c-127.8-52.5-294.9-84.4-478-84.4-52 0-102.8 2.6-151.7 7.5-13.7-31.8 9-68.8 45.2-68.8h585.1c38.5 0 62.3 42.1 42.3 75.1l-42.9 70.6zM637.1 704.5H505.3v-90.3h131.8c21.8 0 39.5 17.7 39.5 39.5V665c0 21.8-17.7 39.5-39.5 39.5z"  horiz-adv-x="1024" />

    
    <glyph glyph-name="-kafei" unicode="&#59489;" d="M760.6-117h-497l-60.9 831.7h618.7zM877.2 714.7H147l60.8 121.7h608.6zM816.3 836.4H207.9V854.7c0 17.9 14.5 32.5 32.5 32.5h543.5c18 0 32.5-14.6 32.5-32.5v-18.3zM512.1 714.7V-117h248.5l60.9 831.7zM782.2 178.8l24.8 339H217.2l24.8-339zM512.1 517.8v-339h270.1l24.8 339zM512.1 348.3m-138.8 0a138.8 138.8 0 1 1 277.6 0 138.8 138.8 0 1 1-277.6 0ZM512.1 348.3m-116.2 0a116.2 116.2 0 1 1 232.4 0 116.2 116.2 0 1 1-232.4 0ZM512.9 429.4l17.9-55h57.8l-46.8-34 17.9-55-46.8 34-46.8-34 17.9 55-46.8 34H495zM512.9 887.1v-50.7h303.4V855.5c0 17.5-14.2 31.7-31.7 31.7H512.9zM512.9 714.7h364.3L816.4 836.4H512.9z"  horiz-adv-x="1024" />

    
    <glyph glyph-name="-qizhi" unicode="&#59490;" d="M316.4-107.7h-66.3c-0.8 0-1.5 0.7-1.5 1.5V851.4c0 19.1 15.6 34.7 34.7 34.7S318 870.5 318 851.4v-957.7c-0.1-0.8-0.8-1.4-1.6-1.4zM283.3 886.1c-0.8 0-1.6-0.2-2.5-0.2v-993.3c0.8-0.1 1.6-0.3 2.5-0.3 19.1 0 34.7 15.6 34.7 34.7V851.4c-0.1 19.1-15.7 34.7-34.7 34.7zM849.2 428.9H517.1V772.4h332.1l-92.4-171.7zM283.3 790.3h352.9v-343.5H283.3zM635.8 773.8l130-184.1-9.5 17.3 93.5 165.4zM354.8-115.4h-143l36.8 50h69.3zM280.8-115.4h74l-36.9 50h-37.1z"  horiz-adv-x="1024" />

    
    <glyph glyph-name="-lajitong" unicode="&#59491;" d="M759.5-109H260l-62.5 745.6H822zM709.6 651H309.9c-10.1 0-19.7 4.7-25.9 12.7s-8.4 18.4-6 28.2l41.6 165.2c3.7 14.6 16.8 24.8 31.9 24.8H668c15.1 0 28.2-10.2 31.9-24.8l41.6-165.2c2.5-9.8 0.3-20.3-6-28.2-6.2-8-15.7-12.7-25.9-12.7z m-357.5 65.7h315.4l-25.1 99.5H377.1l-25-99.5zM509.8 636.6V-109h249.7L822 636.6zM741.5 691.9L699.9 857.1C696.2 871.7 683 881.9 668 881.9H509.8v-65.7h132.6l25.1-99.5H509.8V651h199.9c10.1 0 19.7 4.7 25.9 12.7 6.2 8 8.4 18.4 5.9 28.2zM850.1 636.6H169.4c-31.7 0-57.7 26-57.7 57.7 0 31.7 26 57.7 57.7 57.7h680.7c31.7 0 57.7-26 57.7-57.7 0.1-31.8-25.9-57.7-57.7-57.7zM850.1 752H509.8v-115.5h340.4c31.7 0 57.7 26 57.7 57.7 0 31.8-26 57.8-57.8 57.8zM360.6 125.1H323c-0.7 0-1.2 0.5-1.2 1.2v350c0 0.7 0.5 1.2 1.2 1.2h37.6c0.7 0 1.2-0.5 1.2-1.2v-350.1c0-0.6-0.6-1.1-1.2-1.1zM472.6 125.1H435c-0.7 0-1.2 0.5-1.2 1.2v350c0 0.7 0.5 1.2 1.2 1.2h37.6c0.7 0 1.2-0.5 1.2-1.2v-350.1c0-0.6-0.6-1.1-1.2-1.1zM584.6 125.1H547c-0.7 0-1.2 0.5-1.2 1.2v350c0 0.7 0.5 1.2 1.2 1.2h37.6c0.7 0 1.2-0.5 1.2-1.2v-350.1c0-0.6-0.6-1.1-1.2-1.1zM696.5 125.1h-37.6c-0.7 0-1.2 0.5-1.2 1.2v350c0 0.7 0.5 1.2 1.2 1.2h37.6c0.7 0 1.2-0.5 1.2-1.2v-350.1c0.1-0.6-0.5-1.1-1.2-1.1z"  horiz-adv-x="1024" />

    
    <glyph glyph-name="-biji" unicode="&#59492;" d="M171.8 772.9h679v-892.7h-679zM210.4 744.8V-58h476V71.7h125.8V744.8zM686.4-58V71.7h125.8zM296.4 578.2h195.8v-28.7H296.4zM296.4 511.3h253.2v-28.7H296.4zM296.4 256.6h253.2v-28.7H296.4zM296.4 444.4h432.2v-28.7H296.4zM296.4 377.6h432.2v-28.7H296.4zM296.4 317.1h432.2v-28.7H296.4zM684.9 701.2H339.6c-24 0-43.7 19.6-43.7 43.7 0 24 19.6 43.7 43.7 43.7h345.3c24 0 43.7-19.6 43.7-43.7s-19.7-43.7-43.7-43.7zM518.2 730.2c-43.4 0-78.8 35.4-78.8 78.8s35.4 78.8 78.8 78.8S597 852.4 597 809s-35.4-78.8-78.8-78.8z m0 114.6c-19.8 0-35.8-16.1-35.8-35.8s16.1-35.8 35.8-35.8c19.8 0 35.8 16.1 35.8 35.8s-16.1 35.8-35.8 35.8zM684.9 788.5H518.2v-87.3H685c24 0 43.7 19.7 43.7 43.7s-19.8 43.6-43.8 43.6zM518.2 887.8v-43C538 844.8 554 828.7 554 809s-16.1-35.8-35.8-35.8v-43c43.4 0 78.8 35.4 78.8 78.8S561.6 887.8 518.2 887.8z"  horiz-adv-x="1024" />

    
    <glyph glyph-name="-qing" unicode="&#59493;" d="M511.3 382.8m-317.1 0a317.1 317.1 0 1 1 634.2 0 317.1 317.1 0 1 1-634.2 0ZM713.9 624.8c2-14.4 5.6-28.3 5.6-43.1 0-204.8-196.3-372.6-450.8-400.8 58.2-69.8 144.7-115.2 242.6-115.2 175.1 0 317.1 142 317.1 317.1 0 97.6-45.1 183.9-114.5 242zM511.3 784.3c-10.2 0-18.6 8.4-18.6 18.6V867.4c0 10.2 8.4 18.6 18.6 18.6 10.2 0 18.6-8.4 18.6-18.6V803c0-10.3-8.3-18.7-18.6-18.7zM511.3-120.4c-10.2 0-18.6 8.4-18.6 18.6v64.4c0 10.2 8.4 18.6 18.6 18.6 10.2 0 18.6-8.4 18.6-18.6v-64.4c0-10.3-8.3-18.6-18.6-18.6zM795.3 666.7c-7.2 7.2-7.2 19.1 0 26.3l45.6 45.6c7.2 7.2 19.1 7.2 26.3 0 7.2-7.2 7.2-19.1 0-26.3l-45.6-45.6c-7.2-7.2-19.1-7.2-26.3 0zM155.5 26.9c-7.2 7.2-7.2 19.1 0 26.3l45.6 45.6c7.2 7.2 19.1 7.2 26.3 0 7.2-7.2 7.2-19.1 0-26.3l-45.6-45.6c-7.2-7.2-19.1-7.2-26.3 0zM912.9 382.8c0 10.2 8.4 18.6 18.6 18.6h64.4c10.2 0 18.6-8.4 18.6-18.6 0-10.2-8.4-18.6-18.6-18.6h-64.4c-10.2 0-18.6 8.3-18.6 18.6zM8.1 382.8c0 10.2 8.4 18.6 18.6 18.6h64.4c10.2 0 18.6-8.4 18.6-18.6 0-10.2-8.4-18.6-18.6-18.6H26.7c-10.2 0-18.6 8.3-18.6 18.6zM795.3 98.8c7.2 7.2 19.1 7.2 26.3 0l45.6-45.6c7.2-7.2 7.2-19.1 0-26.3-7.2-7.2-19.1-7.2-26.3 0l-45.6 45.6c-7.3 7.3-7.3 19.1 0 26.3zM155.5 738.6c7.2 7.2 19.1 7.2 26.3 0l45.6-45.6c7.2-7.2 7.2-19.1 0-26.3-7.2-7.2-19.1-7.2-26.3 0l-45.6 45.6c-7.2 7.2-7.2 19.1 0 26.3z"  horiz-adv-x="1024" />

    
    <glyph glyph-name="-duoyun" unicode="&#59494;" d="M587.2 480m-208.6 0a208.6 208.6 0 1 1 417.2 0 208.6 208.6 0 1 1-417.2 0ZM720.4 639.2c1.3-9.4 3.7-18.6 3.7-28.4 0-134.7-129.1-245.1-296.5-263.6 38.3-45.9 95.1-75.8 159.6-75.8 115.2 0 208.5 93.4 208.5 208.6 0.1 64.2-29.6 121-75.3 159.2zM587.2 744.1c-6.7 0-12.2 5.5-12.2 12.2V798.8c0 6.7 5.5 12.2 12.2 12.2 6.7 0 12.2-5.5 12.2-12.2v-42.4c0.1-6.8-5.5-12.3-12.2-12.3zM587.2 149c-6.7 0-12.2 5.5-12.2 12.2v42.4c0 6.7 5.5 12.2 12.2 12.2 6.7 0 12.2-5.5 12.2-12.2v-42.4c0.1-6.7-5.5-12.2-12.2-12.2zM774 666.8c-4.8 4.8-4.8 12.5 0 17.3l30 30c4.8 4.8 12.5 4.8 17.3 0 4.8-4.8 4.8-12.5 0-17.3l-30-30c-4.8-4.8-12.6-4.8-17.3 0zM353.2 246c-4.8 4.8-4.8 12.5 0 17.3l30 30c4.8 4.8 12.5 4.8 17.3 0 4.8-4.8 4.8-12.5 0-17.3l-30-30c-4.8-4.8-12.6-4.8-17.3 0zM851.3 480c0 6.7 5.5 12.2 12.2 12.2H906c6.7 0 12.2-5.5 12.2-12.2 0-6.7-5.5-12.2-12.2-12.2h-42.4c-6.8 0-12.3 5.5-12.3 12.2zM256.2 480c0 6.7 5.5 12.2 12.2 12.2h42.4c6.7 0 12.2-5.5 12.2-12.2 0-6.7-5.5-12.2-12.2-12.2h-42.4c-6.7 0-12.2 5.5-12.2 12.2zM774 293.2c4.8 4.8 12.5 4.8 17.3 0l30-30c4.8-4.8 4.8-12.5 0-17.3-4.8-4.8-12.5-4.8-17.3 0l-30 30c-4.8 4.8-4.8 12.6 0 17.3zM353.2 714.1c4.8 4.8 12.5 4.8 17.3 0l30-30c4.8-4.8 4.8-12.5 0-17.3-4.8-4.8-12.5-4.8-17.3 0l-30 30c-4.8 4.7-4.8 12.5 0 17.3zM1001.3 227c0 146.4-118.7 265-265 265-37.3 0-72.7-7.8-104.9-21.6-42 66.4-115.9 110.6-200.3 110.6-131 0-237.1-106.2-237.1-237.1 0-4.5 0.4-8.9 0.7-13.4h-2.2c-94.1 0-171-77-171-171V133c0-94.1 77-171 171-171H750c19.4 0 37.9 3.4 55.3 9.4 112.9 30.4 196 133.1 196 255.6zM736.3 492c-37.3 0-72.7-7.8-104.9-21.6-28 44.2-70.1 78.5-120.1 96.5v-605H750c19.4 0 37.9 3.4 55.3 9.4 112.8 30.4 195.9 133.2 195.9 255.6 0.1 146.4-118.6 265.1-264.9 265.1z"  horiz-adv-x="1024" />

    
    <glyph glyph-name="-leidian" unicode="&#59495;" d="M545.5 181.9L403.2 24.4h96.5L440-112.1l165.9 171.2-106.9 2.7zM587.4 40H417.2l-14-15.6h96.5L440-112.1zM1012.6 489.9c0 149.3-121 270.4-270.4 270.4-38 0-74.1-7.9-107-22.1C592.4 805.9 517 851 430.9 851 297.3 851 189 742.7 189 609.1c0-4.6 0.4-9.1 0.7-13.6h-2.3C91.5 595.5 13 517 13 421v-27c0-96 78.5-174.5 174.5-174.5h568.8c19.8 0 38.7 3.5 56.4 9.6 115.1 31 199.9 135.9 199.9 260.8zM742.2 760.2c-38 0-74.1-7.9-107-22.1-28.5 45.1-71.5 80.1-122.5 98.5v-617.1h243.5c19.8 0 38.7 3.5 56.4 9.6 115.1 31 199.9 135.9 199.9 260.8 0.1 149.3-121 270.3-270.3 270.3z"  horiz-adv-x="1024" />

    
    <glyph glyph-name="-yu" unicode="&#59496;" d="M1008.7 514.6c0 149-120.8 269.8-269.8 269.8-37.9 0-74-7.9-106.7-22C589.4 830 514.2 875 428.2 875c-133.3 0-241.4-108.1-241.4-241.4 0-4.6 0.4-9.1 0.7-13.6h-2.3c-95.8 0-174.1-78.4-174.1-174.1v-27c0-95.8 78.4-174.1 174.1-174.1H753c19.7 0 38.6 3.5 56.3 9.6 114.8 30.9 199.4 135.5 199.4 260.2zM738.9 784.4c-37.9 0-74-7.9-106.7-22-28.5 45-71.4 79.9-122.2 98.3v-615.9h243c19.7 0 38.6 3.5 56.3 9.6 114.8 31 199.5 135.6 199.5 260.2-0.1 149-120.9 269.8-269.9 269.8zM329.9 90.7c0-23.5-19.6-43-43-43-23.5 0-43 19.6-43 43 0 23.5 43 74.3 43 74.3s43-50.9 43-74.3zM298.306965 61.149062a11.7 7.8 45.001 1 1 16.54601 16.546587 11.7 7.8 45.001 1 1-16.54601-16.546587ZM566.2 90.7c0-23.5-19.6-43-43-43-23.5 0-43 19.6-43 43 0 23.5 43 74.3 43 74.3s43-50.9 43-74.3zM534.516095 61.12302a11.7 7.8 45.001 1 1 16.54601 16.546587 11.7 7.8 45.001 1 1-16.54601-16.546587ZM418.7-41.3c0-15.7-13.1-28.8-28.8-28.8s-28.8 13.1-28.8 28.8 28.8 49.8 28.8 49.8 28.8-34.1 28.8-49.8zM397.471376-61.091451a7.9 5.2 45.001 1 1 11.172092 11.172482 7.9 5.2 45.001 1 1-11.172092-11.172482ZM666.5-80.6c0-15.7-13.1-28.8-28.8-28.8s-28.8 13.1-28.8 28.8 28.8 49.8 28.8 49.8 28.8-34.1 28.8-49.8zM645.327845-100.459776a7.9 5.2 45.001 1 1 11.172092 11.172482 7.9 5.2 45.001 1 1-11.172092-11.172482ZM802.4 90.7c0-23.5-19.6-43-43-43s-43 19.6-43 43c0 23.5 43 74.3 43 74.3s43-50.9 43-74.3zM770.724519 61.096685a11.7 7.8 45.001 1 1 16.546009 16.546587 11.7 7.8 45.001 1 1-16.546009-16.546587Z"  horiz-adv-x="1024" />

    
    <glyph glyph-name="-fangyingji" unicode="&#59497;" d="M1004.1 68.2L711.8 217.4V429.7l292.3 149.2zM20.1 550.5H790v-425.8H20.1zM579.3 561m-138.3 0a138.3 138.3 0 1 1 276.6 0 138.3 138.3 0 1 1-276.6 0ZM177.6 177.9H72.1c-1 0-1.8 0.8-1.8 1.8v58.7c0 1 0.8 1.8 1.8 1.8h105.4c1 0 1.8-0.8 1.8-1.8v-58.7c0.1-0.9-0.7-1.8-1.7-1.8zM358.5 209.1m-31.1 0a31.1 31.1 0 1 1 62.2 0 31.1 31.1 0 1 1-62.2 0ZM249.4 209.1m-31.1 0a31.1 31.1 0 1 1 62.2 0 31.1 31.1 0 1 1-62.2 0ZM942.4 547.5v-447.8l61.7-31.5V578.9zM234.1 561m-138.3 0a138.3 138.3 0 1 1 276.6 0 138.3 138.3 0 1 1-276.6 0ZM234.1 561m-107.9 0a107.9 107.9 0 1 1 215.8 0 107.9 107.9 0 1 1-215.8 0ZM234.1 668.9V453c59.6 0 107.9 48.3 107.9 107.9s-48.3 108-107.9 108zM579.3 561m-107.9 0a107.9 107.9 0 1 1 215.8 0 107.9 107.9 0 1 1-215.8 0ZM579.3 668.9V453c59.6 0 107.9 48.3 107.9 107.9s-48.3 108-107.9 108z"  horiz-adv-x="1024" />

    
    <glyph glyph-name="-shubiao" unicode="&#59498;" d="M498.8 629.6h-38.3c0 61.9 50.3 112.2 112.2 112.2h179.6v-38.3H572.7c-40.8 0-73.9-33.1-73.9-73.9zM763.2 703.5H651.7c-10.6 0-19.1 8.6-19.1 19.1 0 10.6 8.6 19.1 19.1 19.1h111.5c26.2 0 47.5 21.3 47.5 47.5s-21.3 47.5-47.5 47.5H286.3c-10.6 0-19.1 8.6-19.1 19.1S275.8 875 286.3 875h476.9c47.3 0 85.7-38.5 85.7-85.7 0-47.3-38.4-85.8-85.7-85.8zM471.6-114.1c-122.6 0-222.9 100.3-222.9 222.9v323c0 122.6 100.3 222.9 222.9 222.9 122.6 0 222.9-100.3 222.9-222.9v-323c0-122.6-100.3-222.9-222.9-222.9zM694.5 414.5v17.4c0 122.6-100.3 222.9-222.9 222.9-122.6 0-222.9-100.3-222.9-222.9v-17.4h445.8zM471.6 654.8c15.3 0 30.3-1.6 44.8-4.5-14.5 2.9-29.4 4.5-44.8 4.5zM266.3 518.4c-11.3-26.6-17.6-55.9-17.6-86.5v-17.4 17.4c0 30.6 6.3 59.9 17.6 86.5zM472.2 654.7V-114c122.3 0.3 222.3 100.5 222.3 222.9v323c0 122.4-99.9 222.5-222.3 222.8zM248.7 414.5h445.8v-31.9H248.7zM471.6 654.8v-240.3h222.9v17.4c0 122.6-100.3 222.9-222.9 222.9zM482.7 485.4h-20.9c-0.3 0-0.6 0.3-0.6 0.6v72.2c0 0.3 0.3 0.6 0.6 0.6h20.9c0.3 0 0.6-0.3 0.6-0.6V486c-0.1-0.4-0.3-0.6-0.6-0.6z"  horiz-adv-x="1024" />

    
    <glyph glyph-name="-chaxiao" unicode="&#59499;" d="M830.4 62.6H588.7C508.3 62.6 443 128 443 208.3h41c0-57.8 47-104.7 104.7-104.7h241.7v-41zM845.1-116.7H203.3c-11.3 0-20.5 9.2-20.5 20.5s9.2 20.5 20.5 20.5h641.8c38.1 0 69.1 31 69.1 69.1s-31 69.1-69.1 69.1h-150c-11.3 0-20.5 9.2-20.5 20.5s9.2 20.5 20.5 20.5h150c60.7 0 110.1-49.4 110.1-110.1 0-60.7-49.4-110.1-110.1-110.1zM345.8 590.3H277c-0.8 0-1.4 0.6-1.4 1.4V848.2c0 19.7 16.1 35.8 35.8 35.8 19.7 0 35.8-16.1 35.8-35.8v-256.5c0-0.7-0.6-1.4-1.4-1.4zM650.2 590.3h-68.8c-0.8 0-1.4 0.6-1.4 1.4V848.2c0 19.7 16.1 35.8 35.8 35.8 19.7 0 35.8-16.1 35.8-35.8v-256.5c0-0.7-0.6-1.4-1.4-1.4zM311.4 884v-293.7c19.7 0 35.8 16.1 35.8 35.8v222c0 19.8-16.1 35.9-35.8 35.9zM688.6 206.1h-450c-32.3 0-58.4 26.2-58.4 58.4V646.7H747v-382.2c0-32.2-26.2-58.4-58.4-58.4zM615.8 884v-293.7c19.7 0 35.8 16.1 35.8 35.8v222c0 19.8-16.1 35.9-35.8 35.9zM685.8 206.1H463.6V646.7H747v-379.4c0-33.8-27.4-61.2-61.2-61.2zM792.3 632.5H134.9c-21 0-38.2 17.2-38.2 38.2 0 21 17.2 38.2 38.2 38.2h657.4c21 0 38.2-17.2 38.2-38.2-0.1-21-17.2-38.2-38.2-38.2zM792.3 708.8H465.8v-76.3h326.5c21 0 38.2 17.2 38.2 38.2s-17.2 38.1-38.2 38.1z"  horiz-adv-x="1024" />

    
    <glyph glyph-name="-dianliangjinji" unicode="&#59500;" d="M865.1 494.6h138.8v-221.8H865.1zM865.1 494.6h138.8v-110.9H865.1zM22.1 635.7h911.4v-504H22.1zM63.7 597.4h801.4v-422.7H63.7zM115.3 555.4h82.5v-337.9h-82.5zM266.5 555.4H349v-337.9h-82.5zM417.8 555.4h82.5v-337.9h-82.5zM569 555.4h82.5v-337.9H569zM720.2 555.4h82.5v-337.9h-82.5z"  horiz-adv-x="1024" />

    
    <glyph glyph-name="-dianliangbuzu" unicode="&#59501;" d="M868.8 496.8h140.9v-225.2H868.8zM868.8 496.8h140.9v-112.6H868.8zM13 640h925.3v-511.7H13zM55.2 601.1h813.6v-429.2H55.2zM107.6 558.5h83.8v-343.1h-83.8zM261.1 558.5h83.8v-343.1h-83.8zM414.6 558.5h83.8v-343.1h-83.8zM568.2 558.5H652v-343.1h-83.8zM721.7 558.5h83.8v-343.1h-83.8z"  horiz-adv-x="1024" />

    
    <glyph glyph-name="-dianliangchongzu" unicode="&#59502;" d="M868.9 496.2h141.5V270H868.9zM868.9 496.2h141.5v-113.1H868.9zM9.3 640h929.4v-514H9.3zM51.7 601h817.2v-431.1H51.7zM104.3 558.2h84.2v-344.6h-84.2zM258.6 558.2h84.2v-344.6h-84.2zM412.8 558.2H497v-344.6h-84.2zM567 558.2h84.2v-344.6H567zM721.2 558.2h84.2v-344.6h-84.2z"  horiz-adv-x="1024" />

    
    <glyph glyph-name="-chongdianzhong" unicode="&#59503;" d="M870.7 496.9h141v-225.3h-141zM870.7 496.9h141v-112.7h-141zM14.3 640.3h925.9v-512H14.3zM56.6 601.3h814.2v-429.5H56.6zM441.2 601.3h429.5v-429.5H441.2zM521.8 537.4L383.4 384.2h93.9l-58.2-132.7L580.5 418l-103.9 2.6zM562.5 399.4H397l-13.6-15.2h93.9l-58.2-132.7z"  horiz-adv-x="1024" />

    
    <glyph glyph-name="-shu" unicode="&#59504;" d="M132.7 829.8h202.5v-894H132.7zM335.2 829.8h554.7v-894H335.2zM335.2 122.10000000000002h554.7v-186.3H335.2zM195.2 122.10000000000002h674.9v-162.7H195.2zM238.9 94h598.3v-21.7H238.9zM238.9 51.60000000000002h598.3v-21.7H238.9zM238.9 9.100000000000023h598.3v-21.7H238.9zM461.8 682.4h288.4v-67.1H461.8zM606 682.4h144.2v-67.1H606z"  horiz-adv-x="1024" />

    
    <glyph glyph-name="-yinliangtiaojie" unicode="&#59505;" d="M827.2-115.9H200.1c-52.3 0-94.8 42.4-94.8 94.8V790.5c0 52.3 42.4 94.8 94.8 94.8h627.1c52.3 0 94.8-42.4 94.8-94.8v-811.6c-0.1-52.4-42.5-94.8-94.8-94.8zM285.7-43.1c-38 0-69.2 31.1-69.2 69.2V696.8c0 38 31.1 69.2 69.2 69.2 38 0 69.2-31.1 69.2-69.2V26c0-38-31.1-69.1-69.2-69.1zM513.6-43.1c-38 0-69.2 31.1-69.2 69.2V696.8c0 38 31.1 69.2 69.2 69.2 38 0 69.2-31.1 69.2-69.2V26c0-38-31.1-69.1-69.2-69.1zM513.6-43.1c-38 0-69.2 31.1-69.2 69.2V504.8c0 1.5 1.2 2.6 2.6 2.6h133c1.5 0 2.6-1.2 2.6-2.6V26c0.2-38-30.9-69.1-69-69.1zM741.5-43.1c-38 0-69.2 31.1-69.2 69.2V696.8c0 38 31.1 69.2 69.2 69.2 38 0 69.2-31.1 69.2-69.2V26c0-38-31.1-69.1-69.2-69.1zM285.7-43.1c-38 0-69.2 31.1-69.2 69.2V428.2c0 1.5 1.2 2.6 2.6 2.6h133c1.5 0 2.6-1.2 2.6-2.6V26c0.2-38-30.9-69.1-69-69.1zM741.5-43.1c-38 0-69.2 31.1-69.2 69.2V311c0 1.5 1.2 2.6 2.6 2.6h133c1.5 0 2.6-1.2 2.6-2.6v-285c0.2-38-30.9-69.1-69-69.1zM285.7 430.9v-474c38 0 69.2 31.1 69.2 69.2V361.7c0 38.1-31.1 69.2-69.2 69.2zM285.7 411.7m-87.3 0a87.3 87.3 0 1 1 174.6 0 87.3 87.3 0 1 1-174.6 0ZM285.7 411.7m-69.2 0a69.2 69.2 0 1 1 138.4 0 69.2 69.2 0 1 1-138.4 0ZM285.7 480.9v-138.3c38.2 0 69.2 31 69.2 69.2s-31 69.1-69.2 69.1zM513.6 507.4v-550.5c38 0 69.2 31.1 69.2 69.2V438.2c0 38.1-31.1 69.2-69.2 69.2zM513.6 484.7m-87.3 0a87.3 87.3 0 1 1 174.6 0 87.3 87.3 0 1 1-174.6 0ZM513.6 484.7m-69.2 0a69.2 69.2 0 1 1 138.4 0 69.2 69.2 0 1 1-138.4 0ZM513.6 553.9v-138.3c38.2 0 69.2 31 69.2 69.2s-31 69.1-69.2 69.1zM741.5 313.6v-356.8c38 0 69.2 31.1 69.2 69.2V244.5c0 38-31.1 69.1-69.2 69.1zM741.5 288.8m-87.3 0a87.3 87.3 0 1 1 174.6 0 87.3 87.3 0 1 1-174.6 0ZM741.5 288.8m-69.2 0a69.2 69.2 0 1 1 138.4 0 69.2 69.2 0 1 1-138.4 0ZM741.5 357.9v-138.3c38.2 0 69.2 31 69.2 69.2s-31 69.1-69.2 69.1z"  horiz-adv-x="1024" />

    
    <glyph glyph-name="-daizi" unicode="&#59506;" d="M946.9-63.299999999999955H91.7l21.1 755.8h812.9zM925.7 692.5H112.8L133.9 836h770.7zM925.7 692.5H112.8l63.3 90.3L133.9 836h770.7l-42.2-53.2zM519.7-63.299999999999955h427.2l-21.2 755.8h-406zM727.5 494.7c-11 0-20-8.9-20-20V296H519.7v-39.9h207.9c11 0 20 8.9 20 20V474.8c-0.1 11-9 19.9-20.1 19.9zM278.1 504.4a32.2 23.3 0 1 1 64.4 0 32.2 23.3 0 1 1-64.4 0ZM694.4 494.7a32.2 23.3 0 1 1 64.4 0 32.2 23.3 0 1 1-64.4 0ZM727.5 256.1H311.8c-11 0-20 8.9-20 20v216c0 11 8.9 20 20 20s20-8.9 20-20v-196h375.8V474.8c0 11 8.9 20 20 20s20-8.9 20-20v-198.7c-0.1-11-9-20-20.1-20zM727.5 494.7c-11 0-20-8.9-20-20V296H519.3v-39.9h208.3c11 0 20 8.9 20 20V474.8c-0.1 11-9 19.9-20.1 19.9z"  horiz-adv-x="1024" />

    
    <glyph glyph-name="-lingdang" unicode="&#59507;" d="M1007 40.5l-118.8 184c0 206.4-168.9 375.2-375.2 375.2-206.4 0-375.2-168.9-375.2-375.2L19 40.5h988zM601.1 790.3c-5.4-44-42.6-78.4-88.1-78.4-45.5 0-82.7 34.3-88.1 78.4C260.7 750.3 137.8 602 137.8 426v-203.8h750.4V426c0 176-122.9 324.3-287.1 364.3zM463.4 801.1c0 27.4 22.3 49.6 49.6 49.6 27.4 0 49.6-22.3 49.6-49.6 0-1.2-0.3-2.3-0.4-3.5 13.2-1.8 26.1-4.2 38.9-7.3 0.4 3.6 1.1 7.1 1.1 10.8 0 49.2-40 89.2-89.2 89.2s-89.2-40-89.2-89.2c0-3.7 0.7-7.2 1.1-10.8 12.7 3.1 25.7 5.6 38.9 7.3-0.1 1.2-0.4 2.3-0.4 3.5zM513 711.9c45.5 0 82.7 34.3 88.1 78.4-12.7 3.1-25.7 5.6-38.9 7.3-1.8-25.7-23.1-46.1-49.2-46.1s-47.4 20.4-49.2 46.1c-13.2-1.8-26.1-4.2-38.9-7.3 5.4-44.1 42.6-78.4 88.1-78.4zM513 40.5h494l-118.8 184c0 206.4-168.9 375.2-375.2 375.2v-559.2zM601.1 790.3c-5.4-44-42.6-78.4-88.1-78.4v-489.7h375.2V426c0 176-122.9 324.3-287.1 364.3zM512.5 850.7V890.2c-48.9-0.3-88.7-40.1-88.7-89.1 0-3.7 0.7-7.2 1.1-10.8 12.7 3.1 25.7 5.6 38.9 7.3-0.1 1.2-0.4 2.3-0.4 3.5 0 27.2 22 49.3 49.1 49.6zM513 751.5c-26.1 0-47.4 20.4-49.2 46.1-13.2-1.7-26.1-4.2-38.9-7.3 5.4-44 42.6-78.4 88.1-78.4v39.6zM375.9 10.100000000000023c2.9-73.1 63.4-132 137.1-132 73.7 0 134.2 58.9 137.1 132H375.9zM512.5 10.100000000000023v-131.9h0.5c73.7 0 134.2 58.9 137.1 132H512.5z"  horiz-adv-x="1024" />

    
    <glyph glyph-name="-qiche" unicode="&#59508;" d="M750.1 541.9H14.3V663.2c0 83.7 72.6 151.6 162.2 151.6h456.8l116.8-272.9zM321.8 541.9h-213V666.7c0 35.3 28.6 64 64 64h149.1v-188.8zM633.3 541.9H382.2V730.7H571zM227.6 730.7h94.2v-188.8h-94.2zM462.2 541.9h171.1L571 730.7H462.2zM945.9 179.8H75.1c-33.6 0-60.8 27.2-60.8 60.8V565.2h913.5c43.8 0 79.2-35.5 79.2-79.2v-245.1c0-33.7-27.4-61.1-61.1-61.1zM952.1 179.8h-883c-30.3 0-54.9 24.6-54.9 54.9v7.4H1007v-7.4c0-30.3-24.6-54.9-54.9-54.9zM272 162.4m-134.5 0a134.5 134.5 0 1 1 269 0 134.5 134.5 0 1 1-269 0ZM272 162.4m-105 0a105 105 0 1 1 210 0 105 105 0 1 1-210 0ZM714.6 162.4m-134.5 0a134.5 134.5 0 1 1 269 0 134.5 134.5 0 1 1-269 0ZM714.6 162.4m-105 0a105 105 0 1 1 210 0 105 105 0 1 1-210 0ZM272 57.4c58 0 105 47 105 105H272v-105zM272 267.3c-58 0-105-47-105-105h105v105zM714.6 57.4c58 0 105 47 105 105h-105v-105zM714.6 267.3c-58 0-105-47-105-105h105v105zM929.4 406.7h77.6v-55.9h-77.6z"  horiz-adv-x="1024" />

    
    <glyph glyph-name="-feij" unicode="&#59509;" d="M763.6 625.6L181.2 824.4c-15.1 5.1-30.2 2.4-39.8-7.2l-16.7-16.7s235.6-149.8 449.8-364c170.2-170.2 364-449.8 364-449.8l16.7 16.7c9.6 9.6 12.3 24.7 7.2 39.8L763.6 625.6zM347 209L60.1 255.2c-8.2 0.5-17.7-3.8-25.2-11.3l-13-13s115.4-48.8 206.8-140.2c72.5-72.5 140.2-206.8 140.2-206.8l13 13c7.5 7.5 11.7 17 11.3 25.2L347 209zM962.4 43.2L763.6 625.6 574.5 436.5c170.2-170.2 364-449.8 364-449.8l16.7 16.7c9.7 9.6 12.4 24.7 7.2 39.8zM393.2-77.9L347 209 228.8 90.8C301.4 18.2 369-116 369-116l13 13c7.3 7.4 11.6 17 11.2 25.1zM892.6 604.5L463.8 175.7C422.3 134.2 126.4-94.5 85-53c-41.4 41.4 187.3 337.3 228.7 378.8l428.8 428.8C783.9 796 936.9 881.8 978.3 840.3c41.5-41.4-44.3-194.4-85.7-235.8zM898.8 675.1l-85.7 85.7 75 46.5 57.2-57.2zM855.9 717.9l42.9-42.8 46.5 75-28.6 28.6z"  horiz-adv-x="1024" />

    
    <glyph glyph-name="-qiandai" unicode="&#59511;" d="M634.9 693.2l71.6 124.1c7 12 6.9 26.3 0 38.2-6.8 11.9-19.2 19-33 19h-53c-3.2 0-6.2-1.6-8.2-4.2l-26.8-38.1-2.1 32.9c-0.3 5.2-4.7 9.4-10 9.4H349.2c-13.8 0-26.2-7.2-33-19-7-12-7-26.2 0-38.2l71.6-123.9C221 586.4 109.4 355.20000000000005 109.4 114c0-102.6 36.8-164.7 115.9-195.8 69.6-27.3 162.3-27 269.9-27.2h48.3c100.6 0 187.6 1.2 253.8 27 79.1 31 115.9 93.2 115.9 195.8 0 241.2-111.5 472.5-278.3 579.4zM634.9 693.2l71.6 124.1c7 12 6.9 26.3 0 38.2-6.9 11.9-19.2 19-33 19h-53c-3.2 0-6.2-1.6-8.2-4.2l-26.8-38.1-2.1 32.9c-0.3 5.2-4.7 9.4-10 9.4h-62.3V-109h32.5c100.6 0 187.6 1.2 253.8 27 79.1 31 115.9 93.2 115.9 195.8-0.1 241.2-111.6 472.5-278.4 579.4zM388.9 711.2h244.3v-45.5H388.9zM511 459.2l49.1-99.2 109.6-15.9-79.4-77.4 18.8-109.1-98.1 51.5-98-51.5 18.7 109.1-79.3 77.4L462.1 360zM511.3 711.2h121.9v-45.5H511.3zM669.7 344.1L560.1 360l-49 99.1v-250l98-51.5-18.8 109.1zM387.2 694.4h248.3l70.9 122.9c7 12 6.9 26.3 0 38.2-6.8 11.9-19.2 19-33 19h-53c-3.2 0-6.2-1.6-8.2-4.2l-26.8-38.1-2.1 32.9c-0.3 5.2-4.7 9.4-10 9.4H349.2c-13.8 0-26.2-7.2-33-19-7-12-7-26.2 0-38.2l71-122.9zM706.5 855.5c-6.8 11.9-19.2 19-33 19h-53c-3.2 0-6.2-1.6-8.2-4.2l-26.8-38.1-2.1 32.9c-0.3 5.2-4.7 9.4-10 9.4h-62.3v-180.2h124.5l70.9 122.9c6.9 12.1 6.8 26.4 0 38.3z"  horiz-adv-x="1024" />

    
    <glyph glyph-name="-fenshua" unicode="&#59512;" d="M481.4-104.89999999999998c-21.1 0-38.2 17.1-38.2 38.2V422.1c0 21.1 17.1 38.2 38.2 38.2h406.2c4.8 0 7.9 1.6 9.3 2.6V661.4c-1.4 1-4.5 2.6-9.3 2.6H481.4c-21.1 0-38.2 17.1-38.2 38.2s17.1 38.2 38.2 38.2h406.2c47.3 0 85.8-34.3 85.8-76.5v-203.5c0-42.2-38.5-76.5-85.8-76.5h-368v-450.5c0-21.2-17.1-38.3-38.2-38.3z m416.3 765.6h0.2-0.2zM815 532.6H111.2c-4.9 0-8.9 4-8.9 8.9V862.9c0 4.9 4 8.9 8.9 8.9H815c4.9 0 8.9-4 8.9-8.9v-321.4c0-4.9-4-8.9-8.9-8.9zM102.3 871.8h280v-339.1h-280zM58.7 702.2a169.6 43.59999999999999 90 1 1 87.2 0 169.6 43.59999999999999 90 1 1-87.2 0ZM675.8 718.9c-1.2 0-2.3-0.3-3.4-0.7 3.5-0.4 6.8-0.9 10.2-1.6-2.2 1.4-4.5 2.3-6.8 2.3zM675.8 379.79999999999995c2.3 0 4.6 0.9 6.8 2.2-3.4-0.7-6.8-1.2-10.2-1.6 1.1-0.3 2.3-0.6 3.4-0.6zM834.1 869.5c-3.4 0.7-6.8 1.2-10.2 1.6-4.1 0.4-8.3 0.7-12.6 0.7H651.1v-339.1h160.3c4.2 0 8.4 0.2 12.6 0.7 3.5 0.4 6.8 0.9 10.2 1.6C855 547.5 871 617.5 871 702.2c0 84.7-16 154.7-36.9 167.3z"  horiz-adv-x="1024" />

    
    <glyph glyph-name="-CD" unicode="&#59513;" d="M513 386.2m-465.9 0a465.9 465.9 0 1 1 931.8 0 465.9 465.9 0 1 1-931.8 0ZM513 386.2h465.9c0 119.2-45.5 238.5-136.5 329.4C751.5 806.6 632.2 852 513 852v-465.8zM513 386.2H47.1c0-119.2 45.5-238.5 136.5-329.4 91-91 210.2-136.5 329.4-136.5V386.2zM513 386.2m-155 0a155 155 0 1 1 310 0 155 155 0 1 1-310 0ZM513-1.7c-103.6 0-201 40.3-274.3 113.6-73.3 73.3-113.6 170.7-113.6 274.3 0 5.6 4.5 10.1 10.1 10.1s10.1-4.5 10.1-10.1c0-98.2 38.2-190.5 107.7-259.9 69.4-69.4 161.8-107.7 259.9-107.7 5.6 0 10.1-4.5 10.1-10.1s-4.4-10.2-10-10.2zM890.8 376c-5.6 0-10.1 4.5-10.1 10.1 0 98.2-38.2 190.5-107.7 259.9S611.2 753.8 513 753.8c-5.6 0-10.1 4.5-10.1 10.1S507.4 774 513 774c103.6 0 201-40.3 274.3-113.6s113.6-170.7 113.6-274.3c0-5.5-4.5-10.1-10.1-10.1zM513 66c-85.5 0-165.9 33.3-226.4 93.8s-93.8 140.9-93.8 226.4c0 5.6 4.5 10.1 10.1 10.1s10.1-4.5 10.1-10.1c0-80.1 31.2-155.4 87.8-212 56.6-56.6 131.9-87.8 212-87.8 5.6 0 10.1-4.5 10.1-10.1 0.2-5.7-4.3-10.3-9.9-10.3zM823 376c-5.6 0-10.1 4.5-10.1 10.1 0 80.1-31.2 155.4-87.8 212S593.1 686 513 686c-5.6 0-10.1 4.5-10.1 10.1s4.5 10.1 10.1 10.1c85.5 0 165.9-33.3 226.4-93.8s93.8-140.9 93.8-226.4c-0.1-5.4-4.6-10-10.2-10zM622.6 495.8c-30.3 30.3-69.9 45.4-109.6 45.4v-310c39.7 0 79.3 15.1 109.6 45.4 60.5 60.5 60.5 158.6 0 219.2zM513 386.2m-136.3 0a136.3 136.3 0 1 1 272.6 0 136.3 136.3 0 1 1-272.6 0ZM609.3 482.5c-26.6 26.6-61.5 39.9-96.3 39.9v-272.5c34.9 0 69.7 13.3 96.3 39.9 53.3 53.2 53.3 139.5 0 192.7zM513 386.2m-120.8 0a120.8 120.8 0 1 1 241.6 0 120.8 120.8 0 1 1-241.6 0ZM513 136.6c-66.7 0-129.3 26-176.5 73.1-47.1 47.2-73.1 109.8-73.1 176.5 0 5.6 4.5 10.1 10.1 10.1s10.1-4.5 10.1-10.1c0-61.2 23.9-118.8 67.2-162.1 43.3-43.3 100.9-67.1 162.1-67.1 5.6 0 10.1-4.5 10.1-10.1s-4.4-10.3-10-10.3zM752.4 376c-5.6 0-10.1 4.5-10.1 10.1 0 61.2-23.9 118.8-67.2 162.1-43.3 43.3-100.9 67.2-162.1 67.2-5.6 0-10.1 4.5-10.1 10.1s4.5 10.1 10.1 10.1c66.7 0 129.3-26 176.5-73.1 47.1-47.2 73.1-109.8 73.1-176.5 0-5.4-4.6-10-10.2-10zM513 265.4V386.2H392.2c0-30.9 11.8-61.8 35.4-85.4 23.6-23.6 54.5-35.4 85.4-35.4zM513 507v-120.8h120.8c0 30.9-11.8 61.8-35.4 85.4-23.6 23.6-54.5 35.4-85.4 35.4z"  horiz-adv-x="1024" />

    
    <glyph glyph-name="-qianbao" unicode="&#59514;" d="M887.2 773.1H143.9c-13.5 0-26.1-6.7-33.6-17.9L41.5 653.4l80.9-50.9v-569.2h798.4c47.5 0 86.1 38.5 86.1 86.1v534c0 66.1-53.6 119.7-119.7 119.7zM881.3-7.5H122c-56.8 0-102.8 46-102.8 102.8V629.5c0 56.8 46 102.8 102.8 102.8h821.9c2.3 0 4.2-1.9 4.2-4.2v-669c-0.1-36.8-29.9-66.6-66.8-66.6zM909.5 310.9H657.8c-35.2 0-63.7 28.5-63.7 63.7s28.5 63.7 63.7 63.7h251.7v-127.4zM1006.9 349.9l-97.4-39V438.3l97.4 39zM670.6 379.3m-33 0a33 33 0 1 1 66 0 33 33 0 1 1-66 0ZM483.6 732.3H121.5c-56.5 0-102.4-45.8-102.4-102.4v-535.1c0-56.5 45.8-102.4 102.4-102.4h362.1V732.3zM93 621h302.9v-70.2H93zM201.2 621h86.3v-70.2h-86.3z"  horiz-adv-x="1024" />

    
    <glyph glyph-name="-dunpai" unicode="&#59515;" d="M494.3 284.8h-78.1v46.5h78.1v25.3h-78.1v46.5h54.9L405.6 536h64.8l42.1-89.7c5.3-11.2 9.1-21.1 11.4-29.7 2.6 9.3 6.4 19.1 11.3 29.7l42.9 89.7h64.8l-66.3-132.8h55.8v-46.5h-79.2v-25.3h79.2v-46.5h-79.2v-98.5H494v98.4zM580.7 410.9L454.6 284.8h39.7v-98.5h59.1v98.5h79.2v46.6h-79.2v25.2h79.2v46.6h-55.8zM511.3 875C367.9 700.3 136.6 684.5 136.6 684.5v-419.2c0-207 374.7-374.7 374.7-374.7S886 58.4 886 265.3V684.5c0.1 0-231.2 15.8-374.7 190.5zM511.3-70.3l-7.8 3.5c-13.9 6.2-340.3 154.6-340.3 346.4V665.4l17.7 1.3c1.9 0.1 196.6 15.5 315.7 160.4L511.3 845 526 827c119-144.9 313.7-160.3 315.7-160.4l17.7-1.3v-385.7c0-191.8-326.4-340.2-340.3-346.4l-7.8-3.5z m-310 700.9v-351c0-152.5 261.3-284.7 310-308.1 48.8 23.3 310.1 155.6 310.1 308.1v351c-51.3 6.9-201.5 36.6-310.1 155.3-108.5-118.7-258.7-148.4-310-155.3zM511.3 788.6C401.7 667.2 248.2 638.2 199 631.8v-353c0-154.9 266-288.5 312.4-310.6 46.4 22.1 312.3 155.8 312.3 310.6v353c-49.2 6.4-202.8 35.4-312.4 156.8zM511.3 788.6c-2.1-2.3-4.3-4.3-6.4-6.6v-810.8c2.4-1.2 4.6-2.2 6.4-3.1 46.4 22.1 312.3 155.8 312.3 310.6v353c-49.1 6.5-202.7 35.5-312.3 156.9zM489 289.8l-89.8 89.8c-11.1 11.1-11.1 29.2 0 40.3s29.2 11.1 40.3 0l49.5-49.5 120.1 120.1c11.1 11.1 29.2 11.1 40.3 0 11.1-11.1 11.1-29.2 0-40.3L489 289.8zM649.5 490.5c-11.1 11.1-29.2 11.1-40.3 0l-105-105v-80.6l145.4 145.4c11 11.1 11 29.1-0.1 40.2z"  horiz-adv-x="1024" />

    
    <glyph glyph-name="-shafa" unicode="&#59516;" d="M881.5 3.6H144.9V693.3c0 93.7 76 169.7 169.7 169.7h397.1c93.7 0 169.7-76 169.7-169.7v-689.7zM105.4 457.9h58.5v-552.5h-58.5zM852.3 457.9h58.5v-552.5h-58.5zM202.2-45.5h-135V439.4c0 37.3 30.2 67.5 67.5 67.5s67.5-30.2 67.5-67.5v-484.9zM719.5 863H506.8v-859.4h374.8V701c-0.1 89.5-72.6 162-162.1 162zM949.1-45.5H814V439.4c0 37.3 30.2 67.5 67.5 67.5s67.5-30.2 67.5-67.5v-484.9zM95.8 69.1h785.7v-114.6H95.8zM161.3 159.1h691v-90h-691zM506.8 159.1h345.5v-90H506.8z"  horiz-adv-x="1024" />

    
    <glyph glyph-name="-shizhong" unicode="&#59517;" d="M512.3 377.1m-469.2 0a469.2 469.2 0 1 1 938.4 0 469.2 469.2 0 1 1-938.4 0ZM512.3 377.1m-392.5 0a392.5 392.5 0 1 1 785 0 392.5 392.5 0 1 1-785 0ZM512.3 372.2c-4.5 0-9 1.7-12.4 5.1L318.3 558.9c-6.8 6.8-6.8 17.9 0 24.8 6.8 6.8 17.9 6.8 24.8 0L524.7 402c6.8-6.8 6.8-17.9 0-24.8-3.5-3.3-7.9-5-12.4-5zM512.3 372.2c-4.5 0-9 1.7-12.4 5.1-6.8 6.8-6.8 17.9 0 24.8l130.8 130.8c6.8 6.8 17.9 6.8 24.8 0 6.8-6.8 6.8-17.9 0-24.8L524.7 377.3c-3.5-3.4-7.9-5.1-12.4-5.1zM512.3 389.7m-47.5 0a47.5 47.5 0 1 1 95 0 47.5 47.5 0 1 1-95 0ZM296.9 162.5c-2.2 0-4.5 0.9-6.2 2.6-3.4 3.4-3.4 9 0 12.4L540 426.8c3.4 3.4 9 3.4 12.4 0 3.4-3.4 3.4-9 0-12.4L303.1 165c-1.7-1.7-4-2.5-6.2-2.5zM512.3 389.7m-22.8 0a22.8 22.8 0 1 1 45.6 0 22.8 22.8 0 1 1-45.6 0ZM512.3 677.2c-9 0-16.3 7.3-16.3 16.3v29.1c0 9 7.3 16.3 16.3 16.3s16.3-7.3 16.3-16.3v-29.1c0-9-7.4-16.3-16.3-16.3zM512.3 15.2c-9 0-16.3 7.3-16.3 16.3v29.1c0 9 7.3 16.3 16.3 16.3s16.3-7.3 16.3-16.3v-29.1c0-9-7.4-16.3-16.3-16.3zM812.4 377.1c0 9 7.3 16.3 16.3 16.3h29.1c9 0 16.3-7.3 16.3-16.3s-7.3-16.3-16.3-16.3h-29.1c-8.9 0-16.3 7.3-16.3 16.3zM150.4 377.1c0 9 7.3 16.3 16.3 16.3h29.1c9 0 16.3-7.3 16.3-16.3s-7.3-16.3-16.3-16.3h-29.1c-8.9 0-16.3 7.3-16.3 16.3z"  horiz-adv-x="1024" />

    
    <glyph glyph-name="-jiandao" unicode="&#59518;" d="M614.5 332.1L716.9 846c2.8 14.7-6.5 28.9-21.1 32.3-15 3.5-30-5.8-33.5-20.8L531 371.3l81.7-81.7c-1.1 14-0.7 28.2 1.8 42.5zM712.7-6.7c23 64.8 3.6 132.5-41.4 176.1-44 42.7-67.3 102.3-56.8 162.7l9.3 46.7-85.4 19.9L494.1 235l-90.8-289.1c-3.9-16.7 51.3-43.9 68-47.8l22.9-5.3 17.7-4.1c83.6-19.5 172 23.8 200.8 104.6z m-181.8-58.9l-12.1 2.8-15.9 3.7c-11.6 2.7-49.9 21.5-47.2 33.1l54.2 172.5c3.5 11.2 14.2 18.4 25.9 17.3 27.8-2.6 77.7-10.4 105.8-34.7 32.2-31.2 45.5-80.3 27-126.6-21.4-53.6-81.4-81.2-137.7-68.1zM464.3 482.3l513.9 102.4c14.7 2.8 28.9-6.5 32.3-21.1 3.5-15-5.8-30-20.8-33.5L503.5 398.8l-81.7 81.7c14-1.2 28.2-0.7 42.5 1.8zM20.8 379.7l4.1-17.7 5.3-22.9c3.9-16.7 31-71.9 47.8-68l289.1 90.8 163.7 44.3-19.8 85.4-46.7-9.3c-60.4-10.6-120 12.8-162.7 56.8-43.6 45-111.3 64.4-176.1 41.4C44.7 551.7 1.4 463.3 20.8 379.7z m114 156.7c46.2 18.5 95.3 5.2 126.6-27 24.2-28.1 32.1-78 34.7-105.8 1.1-11.7-6.2-22.4-17.3-25.9l-172.5-54.2c-11.6-2.7-30.4 35.6-33.1 47.2l-3.7 15.9-2.8 12.1C53.5 455 81.1 515 134.8 536.4zM609.5 474.6m-42.5 0a42.5 42.5 0 1 1 85 0 42.5 42.5 0 1 1-85 0ZM609.5 474.6m-23.6 0a23.6 23.6 0 1 1 47.2 0 23.6 23.6 0 1 1-47.2 0ZM640.1 504.4l-60.8-59.3c16.4-16.8 43.3-17.1 60-0.7 16.8 16.4 17.1 43.2 0.8 60zM626.2 491.3l-33.4-33.4c9.2-9.2 24.2-9.2 33.4 0s9.2 24.2 0 33.4z"  horiz-adv-x="1024" />

    
    <glyph glyph-name="-penhua" unicode="&#59519;" d="M430.3 661.4h30.2v-243.1h-30.2zM676.1 554.4h16.3v-243.1h-16.3zM190.5 479.9h641.7v-123.2H190.5zM702.1-90.4H320.5l-75.8 447.1h533.2zM458.200709 704.291301a86.6 34.1 64.247 1 1 75.254087 155.996995 86.6 34.1 64.247 1 1-75.254087-155.996995ZM352.990446 755.293898a34.1 86.6 34.249 1 1 56.374091 38.382312 34.1 86.6 34.249 1 1-56.374091-38.382312ZM244.348188 664.869421a86.60433 34.101705 4.25 1 1 172.732368 12.836232 86.60433 34.101705 4.25 1 1-172.732368-12.836232ZM357.153895 497.951862a86.6 34.1 64.247 1 1 75.254087 155.996995 86.6 34.1 64.247 1 1-75.254087-155.996995ZM481.227246 564.598458a34.1 86.6 34.249 1 1 56.374091 38.382312 34.1 86.6 34.249 1 1-56.374091-38.382312ZM473.560269 680.569892a86.60433 34.101705 4.25 1 1 172.732368 12.836232 86.60433 34.101705 4.25 1 1-172.732368-12.836232ZM445.3 679.1m-85.3 0a85.3 85.3 0 1 1 170.6 0 85.3 85.3 0 1 1-170.6 0ZM511.3 356.7v-447.1h190.8l75.8 447.1zM511.3 479.9h320.8v-123.2H511.3zM445.3 679.1m-50.5 0a50.5 50.5 0 1 1 101 0 50.5 50.5 0 1 1-101 0ZM690.704805 579.269563a43.3 17.1 64.247 1 1 37.627043 77.998497 43.3 17.1 64.247 1 1-37.627043-77.998497ZM638.049827 604.758005a17.1 43.3 34.249 1 1 28.269706 19.247436 17.1 43.3 34.249 1 1-28.269706-19.247436ZM583.845193 559.576198a43.302165 17.100855 4.25 1 1 86.366184 6.418116 43.302165 17.100855 4.25 1 1-86.366184-6.418116ZM640.226547 476.076935a43.3 17.1 64.247 1 1 37.627043 77.998498 43.3 17.1 64.247 1 1-37.627043-77.998498ZM702.19628 509.369237a17.1 43.3 34.249 1 1 28.269706 19.247435 17.1 43.3 34.249 1 1-28.269706-19.247435ZM698.455048 567.376647a43.302165 17.100855 4.25 1 1 86.366184 6.418116 43.302165 17.100855 4.25 1 1-86.366184-6.418116ZM684.3 566.7m-42.6 0a42.6 42.6 0 1 1 85.2 0 42.6 42.6 0 1 1-85.2 0ZM684.3 566.7m-25.2 0a25.2 25.2 0 1 1 50.4 0 25.2 25.2 0 1 1-50.4 0Z"  horiz-adv-x="1024" />

    
    <glyph glyph-name="-shiguan" unicode="&#59520;" d="M629.7 346.5c0.4 3.3 0.6 6.6 0.6 10V784c0 50.1-41 91-91 91-50.1 0-91-41-91-91v-427.5c0-3.4 0.2-6.7 0.6-10-85.3-35.4-145.2-119.4-145.2-217.5 0-130.1 105.5-235.6 235.6-235.6S774.9-1.1 774.9 129c0 98.1-60 182.1-145.2 217.5zM629.7 346.5c0.4 3.3 0.6 6.6 0.6 10V784c0 50.1-41 91-91 91v-981.6c130.1 0 235.6 105.5 235.6 235.6 0 98.1-60 182.1-145.2 217.5zM448.2 731.1h58.3v-17.8h-58.3zM448.2 647h58.3v-17.8h-58.3zM448.2 562.9h58.3v-17.8h-58.3zM630.3 483.1c-28.8 6.3-58.8 6.9-89.4 9.8-47.9 4.5-62.9-3.7-92.7-10.5v-125.8c0-3.4 0.2-6.7 0.6-10-85.2-35.5-145.1-119.5-145.1-217.6 0-130.1 105.5-235.6 235.6-235.6S774.9-1.1 774.9 129c0 98.1-59.9 182.1-145.1 217.5 0.4 3.3 0.6 6.6 0.6 10V483.1zM629.7 346.5c0.4 3.3 0.6 6.6 0.6 10V483.1c-28.8 6.3-58.7 9.8-89.4 9.8h-1.7v-599.4c130.1 0 235.6 105.5 235.6 235.6 0.1 98-59.9 182-145.1 217.4zM448.2 487.9h58.3v-17.8h-58.3zM448.2 689h84.4v-17.8h-84.4zM448.2 604.9h84.4v-17.8h-84.4zM448.2 520.8h84.4V503h-84.4zM448.2 454.9h84.4v-17.8h-84.4zM458.9 291.8a55.7 27.7 0 1 1 111.4 0 55.7 27.7 0 1 1-111.4 0ZM651.3 151.1a28.8 25.5 0 1 1 57.6 0 28.8 25.5 0 1 1-57.6 0ZM355.8 87.1a28.8 19.2 0 1 1 57.6 0 28.8 19.2 0 1 1-57.6 0Z"  horiz-adv-x="1024" />

    
    <glyph glyph-name="-yusan" unicode="&#59521;" d="M455.2-119.39999999999998c-39.6 0-71.9 32.3-71.9 71.9 0 8.3 6.7 15.1 15.1 15.1s15.1-6.7 15.1-15.1c0-23 18.7-41.8 41.7-41.8 23 0 41.8 18.7 41.8 41.8V737.7c0 8.3 6.7 15.1 15.1 15.1 8.3 0 15.1-6.7 15.1-15.1v-785.2c-0.1-39.7-32.4-71.9-72-71.9zM512 717.5c-8.3 0-15.1 6.7-15.1 15.1V871.2c0 8.3 6.7 15.1 15.1 15.1 8.3 0 15.1-6.7 15.1-15.1v-138.6c0-8.3-6.8-15.1-15.1-15.1zM180.9 467.1c45.5 0 84.6-27 101.5-65.5h17.8c16.9 38.5 55.9 65.5 101.5 65.5s84.6-27 101.5-65.5H521c16.9 38.5 55.9 65.5 101.5 65.5s84.6-27 101.5-65.5h17.8c16.9 38.5 55.9 65.5 101.5 65.5 44.9 0 83.6-26.3 100.8-64.1-4 235.4-195.8 425.1-432.1 425.1S83.9 638.4 80.1 403c17.2 37.7 55.8 64.1 100.8 64.1zM512 828.1v-426.5h8.9c16.9 38.5 55.9 65.5 101.5 65.5s84.6-27 101.5-65.5h17.8c16.9 38.5 55.9 65.5 101.5 65.5 44.9 0 83.6-26.3 100.8-64.1-3.9 235.4-195.7 425.1-432 425.1zM290.5 441.1c0-13.4 0.4-26.5 1.1-39.5h8.6c16.9 38.5 55.9 65.5 101.5 65.5s84.6-27 101.5-65.5H521c16.9 38.5 55.9 65.5 101.5 65.5s84.6-27 101.5-65.5h9.6c0.8 13 1.1 26.2 1.1 39.5 0 213.3-99.1 386.3-221.4 386.9h-0.9c-122.6-0.1-221.9-173.3-221.9-386.9zM513.2 828.1H512v-426.5h8.9c16.9 38.5 55.9 65.5 101.5 65.5s84.6-27 101.5-65.5h9.6c0.8 13 1.1 26.2 1.1 39.5 0 213.4-99.1 386.3-221.4 387z"  horiz-adv-x="1024" />

    
    <glyph glyph-name="-dayinji" unicode="&#59522;" d="M809.3 115.20000000000005H216.4V764.8c0 34.6 28 62.6 62.6 62.6h467.7c34.6 0 62.6-28 62.6-62.6v-649.6zM286.5 761.3h452.7v-589H286.5zM960.4-26.100000000000023h-895V450.4c0 43 34.9 77.9 77.9 77.9h739.2c43 0 77.9-34.9 77.9-77.9v-476.5zM960.4-26.100000000000023H518.1V528.4h368.6c40.7 0 73.7-33 73.7-73.7v-480.8zM850.9 69.10000000000002H174.8c-15.6 0-28.4 12.8-28.4 28.4 0 15.6 12.8 28.4 28.4 28.4H851c15.6 0 28.4-12.8 28.4-28.4-0.1-15.6-12.9-28.4-28.5-28.4zM856.1 126h-338v-56.8h338.1c15.6 0 28.4 12.8 28.4 28.4S871.8 126 856.1 126zM188.6 103.10000000000002h658.9v-15.5H188.6zM333.1 704.4h216.4v-28.5H333.1zM333.1 637.8h289.2v-28.5H333.1zM333.1 583.1h289.2v-28.5H333.1zM754.4 420.4m-23.7 0a23.7 23.7 0 1 1 47.4 0 23.7 23.7 0 1 1-47.4 0ZM754.4 444v-47.3c13.1 0 23.7 10.6 23.7 23.7-0.1 13-10.7 23.6-23.7 23.6zM826.7 420.4m-23.7 0a23.7 23.7 0 1 1 47.4 0 23.7 23.7 0 1 1-47.4 0ZM826.7 444v-47.3c13.1 0 23.7 10.6 23.7 23.7 0 13-10.6 23.6-23.7 23.6zM893 420.4m-23.7 0a23.7 23.7 0 1 1 47.4 0 23.7 23.7 0 1 1-47.4 0ZM893 444v-47.3c13.1 0 23.7 10.6 23.7 23.7 0 13-10.6 23.6-23.7 23.6z"  horiz-adv-x="1024" />

    
    <glyph glyph-name="-yinxiang" unicode="&#59523;" d="M817.2-108.4H209.1V571c0 167.9 136.1 304 304 304s304-136.1 304-304v-679.4zM817.2-108.4H517.5V875C683 875 817.2 740.8 817.2 575.3v-683.7zM513.2 594.2m-214.3 0a214.3 214.3 0 1 1 428.6 0 214.3 214.3 0 1 1-428.6 0ZM513.2 594.2m-183.2 0a183.2 183.2 0 1 1 366.4 0 183.2 183.2 0 1 1-366.4 0ZM455.1 721.2m-12.5 0a12.5 12.5 0 1 1 25 0 12.5 12.5 0 1 1-25 0ZM486.6 760.3m-12.5 0a12.5 12.5 0 1 1 25 0 12.5 12.5 0 1 1-25 0ZM541.1 760.3m-12.5 0a12.5 12.5 0 1 1 25 0 12.5 12.5 0 1 1-25 0ZM486.6 437.4m-12.5 0a12.5 12.5 0 1 1 25 0 12.5 12.5 0 1 1-25 0ZM541.1 437.4m-12.5 0a12.5 12.5 0 1 1 25 0 12.5 12.5 0 1 1-25 0ZM406.5 721.2m-12.5 0a12.5 12.5 0 1 1 25 0 12.5 12.5 0 1 1-25 0ZM503.7 721.2m-12.5 0a12.5 12.5 0 1 1 25 0 12.5 12.5 0 1 1-25 0ZM552.4 721.2m-12.5 0a12.5 12.5 0 1 1 25 0 12.5 12.5 0 1 1-25 0ZM601 721.2m-12.5 0a12.5 12.5 0 1 1 25 0 12.5 12.5 0 1 1-25 0ZM455.1 486.8m-12.5 0a12.5 12.5 0 1 1 25 0 12.5 12.5 0 1 1-25 0ZM406.5 486.8m-12.5 0a12.5 12.5 0 1 1 25 0 12.5 12.5 0 1 1-25 0ZM503.7 486.8m-12.5 0a12.5 12.5 0 1 1 25 0 12.5 12.5 0 1 1-25 0ZM552.4 486.8m-12.5 0a12.5 12.5 0 1 1 25 0 12.5 12.5 0 1 1-25 0ZM601 486.8m-12.5 0a12.5 12.5 0 1 1 25 0 12.5 12.5 0 1 1-25 0ZM374.9 682.2m-12.5 0a12.5 12.5 0 1 1 25 0 12.5 12.5 0 1 1-25 0ZM353.2 637.8m-12.5 0a12.5 12.5 0 1 1 25 0 12.5 12.5 0 1 1-25 0ZM397.7 637.8m-12.5 0a12.5 12.5 0 1 1 25 0 12.5 12.5 0 1 1-25 0ZM442.1 635.3m-12.5 0a12.5 12.5 0 1 1 25 0 12.5 12.5 0 1 1-25 0ZM486.6 635.3m-12.5 0a12.5 12.5 0 1 1 25 0 12.5 12.5 0 1 1-25 0ZM531.1 635.3m-12.5 0a12.5 12.5 0 1 1 25 0 12.5 12.5 0 1 1-25 0ZM575.6 635.3m-12.5 0a12.5 12.5 0 1 1 25 0 12.5 12.5 0 1 1-25 0ZM620 635.3m-12.5 0a12.5 12.5 0 1 1 25 0 12.5 12.5 0 1 1-25 0ZM664.5 635.3m-12.5 0a12.5 12.5 0 1 1 25 0 12.5 12.5 0 1 1-25 0ZM353.2 588.3m-12.5 0a12.5 12.5 0 1 1 25 0 12.5 12.5 0 1 1-25 0ZM397.7 588.3m-12.5 0a12.5 12.5 0 1 1 25 0 12.5 12.5 0 1 1-25 0ZM442.1 585.8m-12.5 0a12.5 12.5 0 1 1 25 0 12.5 12.5 0 1 1-25 0ZM486.6 585.8m-12.5 0a12.5 12.5 0 1 1 25 0 12.5 12.5 0 1 1-25 0ZM531.1 585.8m-12.5 0a12.5 12.5 0 1 1 25 0 12.5 12.5 0 1 1-25 0ZM575.6 585.8m-12.5 0a12.5 12.5 0 1 1 25 0 12.5 12.5 0 1 1-25 0ZM620 585.8m-12.5 0a12.5 12.5 0 1 1 25 0 12.5 12.5 0 1 1-25 0ZM664.5 585.8m-12.5 0a12.5 12.5 0 1 1 25 0 12.5 12.5 0 1 1-25 0ZM420.1 682.2m-12.5 0a12.5 12.5 0 1 1 25 0 12.5 12.5 0 1 1-25 0ZM465.3 682.2m-12.5 0a12.5 12.5 0 1 1 25 0 12.5 12.5 0 1 1-25 0ZM510.5 682.2m-12.5 0a12.5 12.5 0 1 1 25 0 12.5 12.5 0 1 1-25 0ZM555.6 682.2m-12.5 0a12.5 12.5 0 1 1 25 0 12.5 12.5 0 1 1-25 0ZM600.8 682.2m-12.5 0a12.5 12.5 0 1 1 25 0 12.5 12.5 0 1 1-25 0ZM646 682.2m-12.5 0a12.5 12.5 0 1 1 25 0 12.5 12.5 0 1 1-25 0ZM374.9 536.3m-12.5 0a12.5 12.5 0 1 1 25 0 12.5 12.5 0 1 1-25 0ZM420.1 536.3m-12.5 0a12.5 12.5 0 1 1 25 0 12.5 12.5 0 1 1-25 0ZM465.3 536.3m-12.5 0a12.5 12.5 0 1 1 25 0 12.5 12.5 0 1 1-25 0ZM510.5 536.3m-12.5 0a12.5 12.5 0 1 1 25 0 12.5 12.5 0 1 1-25 0ZM555.6 536.3m-12.5 0a12.5 12.5 0 1 1 25 0 12.5 12.5 0 1 1-25 0ZM600.8 536.3m-12.5 0a12.5 12.5 0 1 1 25 0 12.5 12.5 0 1 1-25 0ZM646 536.3m-12.5 0a12.5 12.5 0 1 1 25 0 12.5 12.5 0 1 1-25 0ZM209.1 88.2h608.1V56H209.1zM517.5 88.2h299.7V56H517.5zM209.1 21.9h608.1v-32.2H209.1zM517.5 21.9h299.7v-32.2H517.5zM209.1 54.1h608.1v-32.2H209.1zM517.5 54.1h299.7v-32.2H517.5z"  horiz-adv-x="1024" />

    
    <glyph glyph-name="-Upan" unicode="&#59525;" d="M693.5 132.4h-361v690c0 33 26.8 59.8 59.8 59.8h241.4c33 0 59.8-26.8 59.8-59.8v-690zM674.9-117.1H351.1c-50.7 0-91.7 41.1-91.7 91.7V632.8h507.2v-658.1c0-50.7-41.1-91.8-91.7-91.8zM693.5 132.4H513V882.2h121.7c32.5 0 58.9-26.4 58.9-58.9v-690.9zM671.4-117.1H513V632.8h253.6v-654.6c0-52.6-42.6-95.3-95.2-95.3zM397.3 819.5h32.5V664h-32.5zM496.8 819.5h32.5V664h-32.5zM596.3 819.5h32.5V664h-32.5zM413.5 819.5h16.3V664h-16.3zM513 819.5h16.3V664H513zM612.5 819.5h16.3V664h-16.3zM679.3 15.3m-23.4 0a23.4 23.4 0 1 1 46.8 0 23.4 23.4 0 1 1-46.8 0ZM679.3 38.7v-46.8c12.9 0 23.4 10.5 23.4 23.4 0 12.9-10.5 23.4-23.4 23.4z"  horiz-adv-x="1024" />

    
    <glyph glyph-name="-erji" unicode="&#59526;" d="M61.4 212.4h50.4V13H61.4zM101.9-47c-22.3 0-40.5 18.2-40.5 40.5v53.4c0 22.3 18.2 40.5 40.5 40.5s40.5-18.2 40.5-40.5v-53.4c0-22.3-18.2-40.5-40.5-40.5zM207.8-114.2c-43.1 0-78.3 35.2-78.3 78.3V76.3c0 43.1 35.2 78.3 78.3 78.3 43.1 0 78.3-35.2 78.3-78.3v-112.2c0-43.1-35.2-78.3-78.3-78.3zM216.1 154.6h-8.2v-268.8h8.2c38.6 0 70.1 31.5 70.1 70.1V84.5c-0.1 38.6-31.6 70.1-70.1 70.1zM142.4 78.1h46.1v-18.7h-46.1zM142.4 29.6h46.1v-18.7h-46.1zM142.4-18.9h46.1v-18.7h-46.1zM228.5 78.1h46.1v-18.7h-46.1zM228.5 29.6h46.1v-18.7h-46.1zM228.5-18.9h46.1v-18.7h-46.1zM943.847 12.944h-50.4v199.4h50.4zM903.3-47c22.3 0 40.5 18.2 40.5 40.5v53.4c0 22.3-18.2 40.5-40.5 40.5s-40.5-18.2-40.5-40.5v-53.4c0-22.3 18.3-40.5 40.5-40.5zM797.4-114.2c43.1 0 78.3 35.2 78.3 78.3V76.3c0 43.1-35.2 78.3-78.3 78.3-43.1 0-78.3-35.2-78.3-78.3v-112.2c0-43.1 35.2-78.3 78.3-78.3zM789.2 154.6h8.2v-268.8h-8.2c-38.6 0-70.1 31.5-70.1 70.1V84.5c0 38.6 31.5 70.1 70.1 70.1zM862.816 59.345h-46.1v18.7h46.1zM862.816 10.828h-46.1v18.7h46.1zM862.816-37.69h-46.1v18.7h46.1zM776.692 59.345h-46.1v18.7h46.1zM776.692 10.828h-46.1v18.7h46.1zM776.692-37.69h-46.1v18.7h46.1zM943.9 204.4l-95.4-31.8V443c0 184.2-149.8 334-334 334h-23.9c-184.2 0-334-149.8-334-334v-238.6H61V443C61 679.9 253.7 872.5 490.5 872.5h23.9c236.8 0 429.5-192.7 429.5-429.5v-238.6zM514.4 872.5h-11.9v-95.4h11.9c184.2 0 334-149.8 334-334v-270.4h95.4V443c0.1 236.9-192.6 429.5-429.4 429.5z"  horiz-adv-x="1024" />

    
    <glyph glyph-name="-bangonglou" unicode="&#59527;" d="M932.2 391.1H569.7V821c0 6-4.9 10.8-10.8 10.8H286.8c-6 0-10.8-4.9-10.8-10.8v-271.5H94.8c-6 0-10.8-4.9-10.8-10.8v-599c0-5.9 4.9-10.8 10.8-10.8h837.5c6 0 10.8 4.9 10.7 10.7V380.3c0 5.9-4.9 10.8-10.8 10.8zM165.2 102.1h88.1V14h-88.1zM381.9 102.1H470V14h-88.1zM932.2 391.1H569.7V821c0 0.2-0.1 0.4-0.1 0.6v-892.7h362.7c6 0 10.8 4.9 10.7 10.7V380.3c0 5.9-4.9 10.8-10.8 10.8zM603.8 102.1h88.1V14h-88.1zM805.5 102.1h88.1V14h-88.1zM165.2 261.6h88.1v-88.1h-88.1zM381.9 261.6H470v-88.1h-88.1zM603.8 261.6h88.1v-88.1h-88.1zM805.5 261.6h88.1v-88.1h-88.1zM165.2 421h88.1v-88.1h-88.1zM381.9 421H470v-88.1h-88.1zM381.9 580.5H470v-88.1h-88.1zM384.6 739.9h88.1v-88.1h-88.1zM165.2 421h44v-88.1h-44zM165.2 261.6h44v-88.1h-44zM165.2 102.1h44V14h-44zM381.9 102.1h44V14h-44zM381.9 261.6h44v-88.1h-44zM381.9 421h44v-88.1h-44zM603.8 261.6h44v-88.1h-44zM805.5 261.6h44v-88.1h-44zM805.5 102.1h44V14h-44zM603.8 102.1h44V14h-44zM381.9 580.5h44v-88.1h-44zM384.6 739.9h44v-88.1h-44z"  horiz-adv-x="1024" />

    
    <glyph glyph-name="-yuechi" unicode="&#59528;" d="M376.8 105.9l14.8 104.9 99.5 7.4 185.8 185.9-138.2 138.2L25.1 28.8l24.7-113.6 113.6-24.7 0.9 1 7.4 96.5 96.6 7.4 0.3 0.4 7.5 102.7zM676.9 404.1l-69.1 69.1-558-558 113.6-24.7 0.9 1 7.4 96.5 96.6 7.4 0.3 0.4 7.5 102.7 100.7 7.4 14.8 104.9 99.5 7.4zM702.5 567.9m-308.1 0a308.1 308.1 0 1 1 616.2 0 308.1 308.1 0 1 1-616.2 0ZM920.4 785.8L484.7 350.1c120.3-120.3 315.4-120.3 435.7 0s120.3 315.4 0 435.7zM687.5 801.7l-26.9-2.4c-34.7-3.1-50-45.3-25.4-69.9L864 500.6c24.6-24.6 66.8-9.3 69.9 25.4l2.4 26.9C948.9 695.2 829.8 814.4 687.5 801.7zM670 786.9c-28.3-2.5-40.8-36.9-20.7-57l215.2-215.2c20.1-20.1 54.5-7.6 57 20.7C934.3 679.2 813.8 799.7 670 786.9zM921.4 534.7c6.4 72.1-20.5 138.3-67.1 184.9l-97.4-97.4L865 514.1c19.8-19.8 53.9-7.4 56.4 20.6z"  horiz-adv-x="1024" />

    
    </font>
</defs>
</svg>
