<?xml version="1.0" standalone="no"?>
<!DOCTYPE svg PUBLIC "-//W3C//DTD SVG 1.1//EN" "http://www.w3.org/Graphics/SVG/1.1/DTD/svg11.dtd" >
<!--
2013-9-30: Created.
-->
<svg>
<metadata>
Created by iconfont
</metadata>
<defs>

<font id="iconfont" horiz-adv-x="1024" >
  <font-face
    font-family="iconfont"
    font-weight="500"
    font-stretch="normal"
    units-per-em="1024"
    ascent="896"
    descent="-128"
  />
    <missing-glyph />
    
    <glyph glyph-name="e-car" unicode="&#58943;" d="M952.1 286.7s14.4 64.2 0 91.9-94.8 50.8-122.6 61.3-12.5 21.5 15.8 30.6c-22.8 15.3-77.1 0-77.1 0s-92.9 31.1-214.5 18.2c-104.2-11.1-153.2-48.8-245.2-79.5S63.3 360.1 63.3 298.8s30.7-104 30.7-104h76.7c-9.6 12.8-15.4 28.7-15.4 46 0 42.3 34.3 76.6 76.6 76.6s76.6-34.3 76.6-76.6c0-17.3-5.8-33.2-15.4-46h429.3c-9.6 12.8-15.4 28.7-15.4 46 0 42.3 34.3 76.6 76.6 76.6s76.6-34.3 76.6-76.6c0-17.3-5.8-33.2-15.4-46h46.1s45 6.7 61.3 30.6-0.1 61.3-0.1 61.3z m-822.6 28.8c-24.4-11.5-38.6-16-42.4-12.5-3.8 3.5 7.4 16 29.4 27.8 22 11.7 46.9 17.2 48.1 10.5 1.3-6.7-10.7-14.3-35.1-25.8zM615 378.6S394.7 370 338.2 370s95.8 69 143.7 84.3c47.9 15.3 133.1 16.3 133.1 16.3v-92z m183.9 14.9c-27.3-12-168.1-14.8-168.1-14.8v91.9s38.8 2.8 94.8-18.7 100.6-46.4 73.3-58.4zM782.4 238.6m-53.6 0a53.6 53.6 0 1 1 107.2 0 53.6 53.6 0 1 1-107.2 0ZM230.2 238.6m-53.6 0a53.6 53.6 0 1 1 107.2 0 53.6 53.6 0 1 1-107.2 0ZM706.9 623.8v30.6L676.3 685H553.7v-30.6h-61.3v-30.6h61.3v-30.6h-61.3v-30.6h61.3V532h122.6l30.6 30.6v30.6h153.9c16.6 0 30-13.4 30-30V440h30.6V578c0 25.3-20.5 45.8-45.8 45.8H706.9zM615 562.5h-30.6v91.9H615v-91.9z m61.3 30.7l-30.6-30.6v91.9l30.6-30.6v-30.7z"  horiz-adv-x="1024" />

    
    <glyph glyph-name="solar" unicode="&#58944;" d="M415.3 672.8h192v-192h-192zM415.3 448.8h192v-192h-192zM639.3 480.8h160l-32 192h-128zM383.3 448.8h-160l-32-192h192zM639.3 448.8v-192h192l-32 192zM831.3 576.8h96l-32 128h-96zM831.3 544.8l32-128h96l-32 128zM191.3 576.8h-96l32 128h96zM191.3 544.8l-32-128h-96l32 128zM383.3 480.8v192h-128l-32-192zM831.3 576.8h96l-32 128h-96zM831.3 544.8l32-128h96l-32 128zM191.3 576.8h-96l32 128h96zM191.3 544.8l-32-128h-96l32 128zM543.3 128.8v96h-64v-96h-128v-64h320v64z"  horiz-adv-x="1024" />

    
    <glyph glyph-name="battery-change" unicode="&#58945;" d="M496.1 719.6L372.5 812.4v-61.8H186.9c-68.3 0-123.6-55.3-123.6-123.6v-61.9h61.8v62.2c0 34 27.5 61.5 61.5 61.5h185.8V627l123.7 92.6zM898 194.1V132c0-34-27.5-61.5-61.5-61.5H650.7v61.8L527 39.6l123.7-92.7v61.8h185.5c68.3 0 123.6 55.3 123.6 123.6v61.9H898zM739.4 286.9H283.7c-2.2 0-4 1.8-4 4V468.3c0 2.2 1.8 4 4 4h455.7c2.2 0 4-1.8 4-4v-177.5c0-2.1-1.8-3.9-4-3.9zM867.1 472.3h-30.9v61.8c0 17-13.9 30.9-30.9 30.9H217.9c-17 0-30.9-13.9-30.9-30.9V225c0-17 13.9-30.9 30.9-30.9h587.3c17 0 30.9 13.9 30.9 30.9v61.8H867c17 0 30.9 13.9 30.9 30.9V441.4c0.1 17-13.8 30.9-30.8 30.9z m-92.8-185.4c0-17-13.9-30.9-30.9-30.9H279.7c-17 0-30.9 13.9-30.9 30.9V472.3c0 17 13.9 30.9 30.9 30.9h463.7c17 0 30.9-13.9 30.9-30.9v-185.4z"  horiz-adv-x="1024" />

    
    <glyph glyph-name="charge" unicode="&#58946;" d="M485.3 826.4H155.7c-18.1 0-33-14.8-33-33v-329.6c0-18.1 14.8-33 33-33h329.6c18.1 0 33 14.8 33 33V793.4c0 18.1-14.9 33-33 33zM287.5 529.7l33 98.9h-98.9l131.8 131.8-33-98.9h98.9L287.5 529.7zM386.4-30.6V397.9H254.6v-428.5h-98.9v-33h329.6v33zM946.7 299s-57.2-12.1-98.9-33c-65.9-33-65.9-65.9-65.9-65.9H716V299l33 33h197.8v-33zM320.5 430.8h33v-98.9h-33zM320.5 364.9c-91 0-164.8-81.2-164.8-181.3s73.8-181.3 164.8-181.3 164.8 81.2 164.8 181.3-73.8 181.3-164.8 181.3z m0-329.6c-72.8 0-131.8 66.4-131.8 148.3s59 148.3 131.8 148.3 131.8-66.4 131.8-148.3-59-148.3-131.8-148.3zM716 233.1s-94.8-23.3-143.5-65.9-148.7-164.8-252-164.8v33c99.9 0 167.1 111.9 230.5 159.6s165 71 165 71v-32.9z"  horiz-adv-x="1024" />

    
    <glyph glyph-name="auto-drive" unicode="&#58947;" d="M242.5 21.5l-59.7-29.9S94.5 94.2 78.9 147.5c-15.6 53.2-15.6 112.9-15.6 112.9V436.3c0 12.8 15.7 19 24.4 9.7 16.5-17.7 35.3-36.1 35.3-66v-29.9c0-41.6-1.6-92.4 29.9-119.5 22.9-19.9 59.7 89.6 59.7 89.6s29.9 0 29.9-29.9-29.9-89.6 0-149.3 0-119.5 0-119.5zM780.1 21.5l59.7-29.9s88.3 102.6 103.9 155.9c15.6 53.2 15.6 112.9 15.6 112.9V436.3c0 12.8-15.7 19-24.4 9.7-16.5-17.7-35.3-36.1-35.3-66v-29.9c0-41.6 1.6-92.4-29.9-119.5-22.9-19.9-59.7 89.6-59.7 89.6s-29.9 0-29.9-29.9 29.9-89.6 0-149.3c-29.8-59.7 0-119.5 0-119.5zM511.3 798.1c-164.9 0-298.7-133.7-298.7-298.7 0-164.9 133.7-298.7 298.7-298.7S810 334.4 810 499.4c0 164.9-133.7 298.7-298.7 298.7z m0-59.8c111.3 0 204.9-76.1 231.4-179.2H279.9C306.5 662.2 400 738.3 511.3 738.3zM274.6 467.7c58.6-5.5 177-27.7 177-117.7v-82c-93.1 23.9-164.2 102.6-177 199.7zM571.1 268v82.1c0 89.9 118.5 112.2 177 117.7-12.9-97.2-83.9-175.9-177-199.8z"  horiz-adv-x="1024" />

    
    <glyph glyph-name="battery-group" unicode="&#58948;" d="M270.1 615.9c-57.1 0-103.4-46.3-103.4-103.4S213 409.1 270.1 409.1s103.4 46.3 103.4 103.4-46.3 103.4-103.4 103.4z m0-172.3c-38.1 0-68.9 30.9-68.9 68.9s30.9 68.9 68.9 68.9 68.9-30.9 68.9-68.9-30.8-68.9-68.9-68.9zM270.1 512.5m-34.5 0a34.5 34.5 0 1 1 69 0 34.5 34.5 0 1 1-69 0ZM511.3 615.9c-57.1 0-103.4-46.3-103.4-103.4s46.3-103.4 103.4-103.4 103.4 46.3 103.4 103.4-46.3 103.4-103.4 103.4z m0-172.3c-38.1 0-68.9 30.9-68.9 68.9s30.9 68.9 68.9 68.9 68.9-30.9 68.9-68.9-30.8-68.9-68.9-68.9zM511.3 512.5m-34.5 0a34.5 34.5 0 1 1 69 0 34.5 34.5 0 1 1-69 0ZM752.6 615.9c-57.1 0-103.4-46.3-103.4-103.4s46.3-103.4 103.4-103.4c57.1 0 103.4 46.3 103.4 103.4s-46.3 103.4-103.4 103.4z m0-172.3c-38.1 0-68.9 30.9-68.9 68.9s30.9 68.9 68.9 68.9 68.9-30.9 68.9-68.9-30.9-68.9-68.9-68.9zM752.6 512.5m-34.5 0a34.5 34.5 0 1 1 69 0 34.5 34.5 0 1 1-69 0ZM270.1 374.7c-57.1 0-103.4-46.3-103.4-103.4 0-57.1 46.3-103.4 103.4-103.4s103.4 46.3 103.4 103.4c0 57.1-46.3 103.4-103.4 103.4z m0-172.3c-38.1 0-68.9 30.9-68.9 68.9 0 38.1 30.9 68.9 68.9 68.9s68.9-30.9 68.9-68.9c0-38.1-30.8-68.9-68.9-68.9zM270.1 271.3m-34.5 0a34.5 34.5 0 1 1 69 0 34.5 34.5 0 1 1-69 0ZM511.3 374.7c-57.1 0-103.4-46.3-103.4-103.4 0-57.1 46.3-103.4 103.4-103.4s103.4 46.3 103.4 103.4c0 57.1-46.3 103.4-103.4 103.4z m0-172.3c-38.1 0-68.9 30.9-68.9 68.9 0 38.1 30.9 68.9 68.9 68.9s68.9-30.9 68.9-68.9c0.1-38.1-30.8-68.9-68.9-68.9zM511.3 271.3m-34.5 0a34.5 34.5 0 1 1 69 0 34.5 34.5 0 1 1-69 0ZM752.6 374.7c-57.1 0-103.4-46.3-103.4-103.4 0-57.1 46.3-103.4 103.4-103.4 57.1 0 103.4 46.3 103.4 103.4-0.1 57.1-46.3 103.4-103.4 103.4z m0-172.3c-38.1 0-68.9 30.9-68.9 68.9 0 38.1 30.9 68.9 68.9 68.9s68.9-30.9 68.9-68.9c0-38.1-30.9-68.9-68.9-68.9zM752.6 271.3m-34.5 0a34.5 34.5 0 1 1 69 0 34.5 34.5 0 1 1-69 0ZM924.9 719.3H856v34.5H752.6v-34.5H270.1v34.5H166.7v-34.5H97.8c-19 0-34.5-15.5-34.5-34.5V99c0-19 15.5-34.5 34.5-34.5h827.1c19 0 34.5 15.5 34.5 34.5V684.8c-0.1 19-15.6 34.5-34.5 34.5z m-34.5-551.4c0-19-15.5-34.5-34.5-34.5H166.7c-19 0-34.5 15.5-34.5 34.5v448c0 19 15.5 34.5 34.5 34.5h689.2c19 0 34.5-15.5 34.5-34.5v-448z"  horiz-adv-x="1024" />

    
    <glyph glyph-name="carbon" unicode="&#58949;" d="M132.3 560.9m-34.5 0a34.5 34.5 0 1 1 69 0 34.5 34.5 0 1 1-69 0ZM356.6 716.1m-17.3 0a17.3 17.3 0 1 1 34.6 0 17.3 17.3 0 1 1-34.6 0ZM753.3 698.9m-69 0a69 69 0 1 1 138 0 69 69 0 1 1-138 0ZM546.3 319.4m-69 0a69 69 0 1 1 138 0 69 69 0 1 1-138 0ZM753.3 491.9c-0.8 0-1.7-0.1-2.5-0.1-47.7 82.5-136.9 138.1-239 138.1-128.8 0-236.9-88.2-267.4-207.4-2.9 0.1 2.9 0.4 0 0.4-95.3 0-181.1-77.2-181.1-172.5s77.2-172.5 172.5-172.5h517.5c114.3 0 207 92.7 207 207s-92.6 207-207 207z m-310.5-270c-10.8-3.8-22.4-6-34.5-6-57.2 0-103.5 46.3-103.5 103.5s46.3 103.5 103.5 103.5c12.1 0 23.7-2.2 34.5-6v-37.8c-10.2 5.9-21.9 9.3-34.5 9.3-38.1 0-69-30.9-69-69s30.9-69 69-69c12.6 0 24.3 3.4 34.5 9.3v-37.8z m103.5-6c-57.2 0-103.5 46.3-103.5 103.5s46.3 103.5 103.5 103.5 103.5-46.3 103.5-103.5-46.3-103.5-103.5-103.5z m207-30.7h-94.2v19.1c37.1 0 61.9 32.3 61.9 51.1 0 9.1-3.6 22.7-16 22.7-10.4 0-15-8.9-15-18.3h-28.6c0 15.5 10.1 45.6 45.3 45.6 30 0 42.4-26.6 42.4-41.8 0-30.2-26.4-52.6-26.4-52.6h30.5v-25.8z"  horiz-adv-x="1024" />

    
    <glyph glyph-name="charging-time" unicode="&#58950;" d="M169.2 285.5c0-28.4 23-51.4 51.4-51.4h154.9v34.4H237.2c-18.6 0-33.7 15.1-33.7 33.7V474.8h34.4l68.8 68.8V715.5h-34.4v68.8h-34.4v-68.8H134.8v68.8h-34.4v-68.8H66v-171.9l68.8-68.8h34.4v-189.3z m-68.8 326.8v34.4h171.9v-34.4H100.4z m34.4-68.8l-34.4 34.4h171.9l-34.4-34.4H134.8zM684.9 509.2C533 509.2 409.8 386 409.8 234.1 409.8 82.2 533-41 684.9-41S960 82.2 960 234.1c0 151.9-123.2 275.1-275.1 275.1z m0-481.4c-113.9 0-206.3 92.4-206.3 206.3S571 440.4 684.9 440.4 891.2 348 891.2 234.1s-92.3-206.3-206.3-206.3zM684.9 406C590 406 513 329 513 234.1c0-95 77-171.9 171.9-171.9s171.9 77 171.9 171.9S779.9 406 684.9 406z m0-275.1c-57 0-103.2 46.2-103.2 103.2s46.2 103.2 103.2 103.2 103.2-46.2 103.2-103.2-46.2-103.2-103.2-103.2zM753.7 234.1c0-19-7.7-36.2-20.1-48.6l72.9-72.9c31.1 31.1 50.4 74.1 50.4 121.6 0 95-77 171.9-171.9 171.9v-103.2c37.9-0.1 68.7-30.8 68.7-68.8z"  horiz-adv-x="1024" />

    
    <glyph glyph-name="chargeloc" unicode="&#58951;" d="M672.6-63.6h-430s322.5 179.2 250.9 215c-71.7 35.8-215 35.8-215 107.5S386 366.4 386 366.4h71.7s-128.4-61.2-35.8-107.5 286.7-35.8 358.4-143.3-107.7-179.2-107.7-179.2zM672.6 832.4c-158.3 0-286.7-128.4-286.7-286.7 0-179.2 143.3-250.9 286.7-394.2 143.3 143.3 286.7 215 286.7 394.2C959.2 704 830.9 832.4 672.6 832.4z m0-501.8c-118.8 0-215 96.3-215 215s96.3 215 215 215 215-96.3 215-215-96.3-215-215-215zM633.7 394.9l38.9 150.8H565l143.4 179.1-35.8-143.3h107.5zM206.7 689c-76.3 0-143.3-67-143.3-143.3 0-92.2 107.5-143.3 143.3-215 35.8 71.7 143.3 122.9 143.3 215C350 622 283 689 206.7 689z m0-215c-39.6 0-71.7 32.1-71.7 71.7s32.1 71.7 71.7 71.7 71.7-32.1 71.7-71.7-32.1-71.7-71.7-71.7z"  horiz-adv-x="1024" />

    
    <glyph glyph-name="charging" unicode="&#58952;" d="M415.4 2.1L453.6 308H262.4l267.7 458.9-38.2-306h191.2zM950.8 499.2h-38.2v76.5c0 21-17.2 38.2-38.2 38.2h-260l-30.6-76.5h214.1c21 0 38.2-17.2 38.2-38.2v-229.4c0-21-17.2-38.2-38.2-38.2H629.5L599 155h275.3c21 0 38.2 17.2 38.2 38.2v76.5h38.2c21 0 38.2 17.2 38.2 38.2v153c0.1 21.1-17.1 38.3-38.1 38.3zM361.9 231.5H147.7c-21 0-38.2 17.2-38.2 38.2V499.2c0 21 17.2 38.2 38.2 38.2H316l30.6 76.5H71.2c-21 0-38.2-17.2-38.2-38.2v-382.4c0-21 17.2-38.2 38.2-38.2h260l30.7 76.4z"  horiz-adv-x="1024" />

    
    <glyph glyph-name="e-bus" unicode="&#58953;" d="M702.1 679.1V711l-32 32H542.4v-32h-63.9v-31.9h63.9v-31.9h-63.9v-31.9h63.9v-31.9h127.7l31.9 31.9v31.9h160.3c17.3 0 31.3-14 31.3-31.3v-64.5h31.9v80c0 26.4-21.4 47.7-47.7 47.7H702.1z m-95.8-63.9h-31.9V711h31.9v-95.8z m63.8 32l-31.9-31.9V711l31.9-31.9v-31.9zM223 72.3m-47.9 0a47.9 47.9 0 1 1 95.8 0 47.9 47.9 0 1 1-95.8 0ZM797.9 72.3m-47.9 0a47.9 47.9 0 1 1 95.8 0 47.9 47.9 0 1 1-95.8 0ZM925.6 519.4H127.2c-17.6 0-31.9-14.4-31.9-31.9l-32-191.6v-191.6c0-17.6 14.4-31.9 31.9-31.9h63.9c0 35.3 28.6 63.9 63.9 63.9s63.9-28.6 63.9-63.9H734c0 35.3 28.6 63.9 63.9 63.9s63.9-28.6 63.9-63.9h63.9c17.6 0 31.9 14.4 31.9 31.9V487.5c0 17.5-14.4 31.9-32 31.9zM286.9 295.9H148.4c-11 0-19.2 10-17 20.8l23.2 115.9c2.7 13.4 14.4 23 28.1 23h104.2v-159.7z m159.7 31.9H318.8V455.5h127.7v-127.7z m159.7 0H478.5V455.5h127.7v-127.7z m159.6 0H638.2V455.5h127.7v-127.7z m159.7 0H797.9V455.5h127.7v-127.7z"  horiz-adv-x="1024" />

    
    <glyph glyph-name="green" unicode="&#58954;" d="M222.8-63.6s204.4 327 163.5 408.8C345.4 222.6 141-22.7 141-22.7s-122.6 286.2 0 531.4c81.8 163.5 286.2 204.4 327 327C631.6 754 672.5 549.6 631.6 345.2c-66.1-330.5-408.8-408.8-408.8-408.8zM795.1-63.6s75.8 206.3 40.9 245.3c-4.1-73.9-81.8-245.3-81.8-245.3s-112.6 132.2-81.8 286.2C693 325.2 791 394 795.1 467.9c102.6-20.5 155.3-126.2 163.5-245.3 13.3-192.5-163.5-286.2-163.5-286.2z"  horiz-adv-x="1024" />

    
    <glyph glyph-name="power-recycle" unicode="&#58955;" d="M458.5 115.7l35.9 215H315.1l251 322.7-35.9-215.1h179.2zM933.4 516.6c-16.9 45.5-41.3 87.4-71.8 124.1-49.1 59.4-114 105.2-188.1 131.3V832.6L494.4 796.7l179.2-143.4v41.8c48-21 90.6-52.2 124.9-90.9 31.7-35.7 56.3-77.8 71.7-124.1 11.9-35.7 18.5-73.8 18.5-113.5s-6.5-77.8-18.5-113.5l63.2-36.5c17.4 46.7 26.9 97.2 26.9 150 0.1 52.8-9.5 103.3-26.9 150zM243.4 330.7h-69.8c-1.2 11.8-1.9 23.7-1.9 35.8 0 39.7 6.5 77.8 18.5 113.5 15.5 46.3 40.1 88.4 71.7 124.1 50.6 57 119 97.9 196.6 113.6v72.8c-104-17.5-195.3-72.1-259.8-149.9-30.4-36.7-54.8-78.6-71.8-124.1-17.4-46.7-26.9-97.2-26.9-150 0-12.1 0.6-24 1.5-35.8H64.2l55.4-92.3c2.3-7.4 4.7-14.7 7.4-21.9l4.2 2.5 40.5-67.5 71.7 179.2zM751.1 84.4c-42.9-33.7-93.7-57.8-149.2-69.1-23.2-4.7-47.1-7.2-71.7-7.2s-48.5 2.5-71.7 7.2c-77.6 15.7-146 56.6-196.6 113.6l-63.2-36.5c64.4-77.8 155.8-132.5 259.8-149.9 23.3-3.9 47.3-6.1 71.7-6.1 24.4 0 48.4 2.1 71.7 6.1 78.7 13.2 150.2 47.8 208.3 97.6l42.6-32 71.7 179.2-215.1-71.7 41.7-31.2z"  horiz-adv-x="1024" />

    
    <glyph glyph-name="nuclear" unicode="&#58956;" d="M609 420.2l350.2 0.3c-10.4 131.8-78.8 256.9-194.4 335.8L590 452.9c8.4-9.8 14.8-20.8 19-32.7zM601.2 333.8c-3.2-5.6-7-10.7-11-15.5l175.4-303.2c53.7 36.8 100.3 86 135 146.2s53.9 125.1 58.8 190.1l-350.4-0.3c-2.1-5.9-4.6-11.7-7.8-17.3zM530.1 487.4l174.8 303.4c-126.2 60.4-268.7 56.8-388-0.3l175.4-303.1c12.4 2.3 25.2 2.3 37.8 0zM413.7 350.9l-350.2-0.3c10.4-131.8 78.8-256.9 194.4-335.8l174.8 303.4c-8.4 9.8-14.8 20.8-19 32.7zM492.5 283.7L317.7-19.7c126.2-60.4 268.7-56.8 388 0.3L530.3 283.7c-12.3-2.3-25.1-2.3-37.8 0zM421.5 437.3c3.2 5.6 7 10.7 11 15.5L257.1 756c-53.7-36.8-100.3-86-135-146.2S68.2 484.7 63.3 419.7l350.3 0.3c2.1 5.9 4.7 11.7 7.9 17.3zM511.3 385.6m-69.1 0a69.1 69.1 0 1 1 138.2 0 69.1 69.1 0 1 1-138.2 0Z"  horiz-adv-x="1024" />

    
    <glyph glyph-name="performance" unicode="&#58957;" d="M926.1 730.3H96.5c-18.3 0-33.2-14.9-33.2-33.2v-597.3c0-18.3 14.9-33.2 33.2-33.2h829.6c18.3 0 33.2 14.9 33.2 33.2V697.1c0 18.3-14.9 33.2-33.2 33.2zM893 166.2c0-18.3-14.9-33.2-33.2-33.2H162.9c-18.3 0-33.2 14.9-33.2 33.2V630.8c0 18.3 14.9 33.2 33.2 33.2h696.9c18.3 0 33.2-14.9 33.2-33.2v-464.6zM162.9 564.4h696.9v-33.2H162.9zM162.9 464.8h696.9v-33.2H162.9zM162.9 365.3h696.9v-33.2H162.9zM162.9 265.7h696.9v-33.2H162.9zM826.6 366.2L721.9 410c-12.7 3.2-26.2 0.5-36.8-7.4L588.8 319c-13.6-10.2-32.9-7.8-43.5 5.5l-92.7 148c-7.5 9.4-22.4 7.4-27.2-3.7l-81.7-201.3c-6-14.9-28-17.5-39-4.7L202.8 390.1c-3.8 4.8-3.4 11.6 0.9 15.9l11.7 11.7c4 4 10.5 3.7 14.1-0.6l69.1-82c10.4-10.4 25.6-8.5 30.7 5.2L409.8 548c7.4 19.7 34.4 21.9 44.9 3.6l98-165.6c8-14.1 26.6-17.9 39.6-8.2l83.4 73.4c11.3 8.5 26.3 10.5 39.4 5.2l137.8-55.1c3.3-1.3 4.1-5.5 1.6-8l-14.9-24.5c-3.4-3.5-8.6-4.5-13-2.6zM162.9 630.8h33.2v-33.2h-33.2zM229.3 630.8h33.2v-33.2h-33.2zM727 199.4h132.7v-33.2H727z"  horiz-adv-x="1024" />

    
    <glyph glyph-name="powertransport" unicode="&#58958;" d="M575.3-43.9l-224 768h-64l-224-768h64l192 645.4 192-645.4zM63.3 564.1h512v-64h-512zM63.3 372.1h512v-64h-512zM479.3 84.1l-320 96 32 32 288-96zM895.3 148.1l-256 64 32 32 224-64zM639.3 148.1l256 64-32 32-224-64zM575.3 340.1l-448 160 32 32 416-160zM63.3 340.1l448 160-32 32-416-160zM159.3 84.1l320 96-32 32-288-96zM735.3 692.1l-256-96h64l256 96zM63.3 596.1h64l96 32h-64zM831.3 532.1h32l96 32h-32zM639.3 84.1h-32l128 512h64l128-512h-32l-128 448zM639.3 500.1h256v-32h-256zM639.3 404.1h256v-32h-256z"  horiz-adv-x="1024" />

    
    <glyph glyph-name="powerstation" unicode="&#58959;" d="M942.8 80.8h-216L716.1 115h192.5c-21.4 109.1-67.7 138.3-87 205.3-8.5 29.5-13.9 64.3-10 102.7s28.5 102.7 28.5 102.7H633.4s8.9 22 15.2 34.2h225.6c0-78.5-34.2-68.4-34.2-171.1s102.8-177.1 102.8-308zM395.3 799.5c-1 0-1.9-0.2-2.9-0.3-7 20.1-26 34.5-48.5 34.5s-41.5-14.4-48.5-34.5c-1 0.1-1.9 0.3-2.9 0.3-18.9 0-34.2-15.3-34.2-34.2 0-18.9 15.3-34.2 34.2-34.2h102.7c18.9 0 34.2 15.3 34.2 34.2 0.1 18.9-15.2 34.2-34.1 34.2zM497.9 731.1m-34.2 0a34.2 34.2 0 1 1 68.4 0 34.2 34.2 0 1 1-68.4 0ZM207 713.9m-17.1 0a17.1 17.1 0 1 1 34.2 0 17.1 17.1 0 1 1-34.2 0ZM600.6 423.1c0 136.9 34.2 136.9 34.2 239.6H155.7c0-102.7 34.2-145.4 34.2-239.6S87.3 183.5 87.3 12.4v-34.2h68.4v34.2h68.4v-34.2h68.4v34.2H361v-34.2h68.4v34.2h68.4v-34.2h68.4v34.2h68.4v-34.2H703v34.2c0.3 171.1-102.4 273.8-102.4 410.7z"  horiz-adv-x="1024" />

    
    <glyph glyph-name="power-range" unicode="&#58960;" d="M511.8 759.5h-68.9v34.4c0 18.9-15.5 34.4-34.4 34.4H270.8c-18.9 0-34.4-15.5-34.4-34.4v-34.4h-68.9c-18.9 0-34.4-15.5-34.4-34.4v-447.6H202V656.2c0 18.9 15.5 34.4 34.4 34.4H443c18.9 0 34.4-15.5 34.4-34.4v-378.7h68.9V725.1c-0.1 18.9-15.6 34.4-34.5 34.4zM64.2 243.1h895.1v-68.9H64.2zM64.2 2.1h895.1v-68.9H64.2zM167.5 105.4h137.7V71H167.5zM580.646 70.895h-137.7v34.4h137.7zM856.09 70.895h-137.7v34.4h137.7zM236.4 277.5v241c0 18.9 15.5 34.4 34.4 34.4h137.7c18.9 0 34.4-15.5 34.4-34.4v-241H236.4z"  horiz-adv-x="1024" />

    
    <glyph glyph-name="windpower" unicode="&#58961;" d="M494.4-64.2H386.8l35.9 537.7h35.8zM745.3 7.5h-71.7V365.9h35.8zM422.7 545.2m-35.8 0a35.8 35.8 0 1 1 71.6 0 35.8 35.8 0 1 1-71.6 0ZM673.6 437.6m-35.8 0a35.8 35.8 0 1 1 71.6 0 35.8 35.8 0 1 1-71.6 0ZM458.5 581l35.9 35.8L817 724.4h35.8L494.4 545.2zM709.4 473.5l71.7 35.8 143.4 35.9h35.9L745.3 437.6zM351 545.2l35.8-35.9-71.7-358.4-35.8-36.8 35.8 431.1zM637.7 403.7v-36.8l-71.6-144.4h-35.9l71.7 181.2zM637.7 473.5h-35.8l-71.7 71.7h35.9l71.6-35.9zM386.8 581H351L64.2 796.1V831.9l358.5-215.1z"  horiz-adv-x="1024" />

    
    <glyph glyph-name="waterpower" unicode="&#58962;" d="M123.1 704L63.3 345.6l119.5 29.8V584.5h119.5v-209.1H362V584.5h119.5v-209.1h59.7V584.5h119.5v-209.1h59.7V584.5h119.5v-209.1l119.4-29.8L899.6 704zM899.6 196.2C810 256 810 345.6 810 345.6v209h-59.7v-209.1H630.8V554.6h-59.7v-209.1H451.6V554.6h-59.7v-209.1H272.4V554.6h-59.7v-209.1s0-59.7-59.7-119.5-89.7-119.4-59.8-149.2c29.9-29.9 119.5 0 209.1-29.9s149.3 29.9 238.9-29.9 179.2 89.6 238.9 59.7c59.8-29.8 209.1 59.8 119.5 119.5z m-597.3 54.5c0 3.3 1.8 6.2 4.8 7.7l32.3 16.2c14.3 7.1 31 7.1 45.3 0l19.5-9.7c11.1-5.5 24.1-5.5 35.2 0l21.4 10.7c13.1 6.5 28.4 6.5 41.5 0l14.6-7.3c15.3-7.7 33.4-7.7 48.7 0l21.5 10.7c8.7 4.4 19 4.4 27.8 0l30.1-15c9.9-5 21.6-5 31.5 0l37.4 18.7c3 1.5 6.6-0.7 6.6-4.1v-15.9c0-4.1-2.3-7.8-5.9-9.6L676 233.8c-9.6-4.8-20.9-4.8-30.4 0L615 248.9c-8.9 4.4-19.3 4.4-28.1 0L557.1 234c-10-5-21.8-5-31.8 0l-29 14.5c-9.3 4.7-20.3 4.7-29.6 0l-22.3-11.1c-14.2-7.1-31-7.1-45.3 0l-18.7 9.3c-11.6 5.8-25.3 5.8-36.9 0L307 228.5c-2.2-1.1-4.8 0.5-4.8 3v19.2z m477.8-78.2c0-3.8-2.1-7.2-5.5-8.9l-40-20c-8.9-4.5-19.5-4.5-28.4 0l-33.7 16.8c-7.4 3.7-16.2 3.7-23.7 0l-36.6-18.3c-7.1-3.6-15.5-3.6-22.6 0l-35.1 17.5c-8.4 4.2-18.3 4.2-26.8 0l-32.3-16.1c-8.9-4.4-19.3-4.4-28.2 0L434 160.2c-7.7 3.9-16.9 3.9-24.6 0L375.1 143c-8.2-4.1-17.9-4.1-26.1 0l-34.3 17.2c-7.8 3.9-16.9 3.9-24.7 0l-40.6-20.3c-3.1-1.6-6.8 0.7-6.8 4.2V159c0 4.5 2.5 8.6 6.6 10.6l43 21.5c6.4 3.2 13.9 3.2 20.3 0l33.5-16.8c10.1-5 22-5 32.1 0l32.8 16.4c6.9 3.4 14.9 3.4 21.8 0L470 172c7.3-3.6 15.8-3.6 23.1 0l37 18.5c7.1 3.5 15.4 3.5 22.5 0l35.9-18c7.9-4 17.3-4 25.2 0l36.9 18.4c6.4 3.2 14 3.2 20.5 0L705 174c9.8-4.9 21.4-4.9 31.2 0l38.4 19.2c2.6 1.3 5.7-0.6 5.7-3.5v-17.2z"  horiz-adv-x="1024" />

    


  </font>
</defs>
</svg>
