<?xml version="1.0" standalone="no"?>
<!DOCTYPE svg PUBLIC "-//W3C//DTD SVG 1.1//EN" "http://www.w3.org/Graphics/SVG/1.1/DTD/svg11.dtd" >
<!--
2013-9-30: Created.
-->
<svg>
<metadata>
Created by iconfont
</metadata>
<defs>

<font id="iconfont" horiz-adv-x="1024" >
  <font-face
    font-family="iconfont"
    font-weight="500"
    font-stretch="normal"
    units-per-em="1024"
    ascent="896"
    descent="-128"
  />
    <missing-glyph />
    
    <glyph glyph-name="home" unicode="&#58893;" d="M922.24 364.79999999999995c-8.32 0-16.64 3.2-22.4 9.6L568.32 705.92c-26.24 26.24-69.12 26.24-95.36 0L142.08 374.4c-12.8-12.8-32.64-12.8-45.44 0s-12.8 32.64 0 45.44l331.52 331.52c51.2 51.2 134.4 51.2 186.24 0l331.52-331.52c12.8-12.8 12.8-32.64 0-45.44-7.04-6.4-15.36-9.6-23.68-9.6zM723.84-42.879999999999995H310.4c-80 0-144.64 65.28-144.64 144.64V469.76c0 17.92 14.08 32 32 32s32-14.08 32-32v-368c0-44.8 36.48-80.64 80.64-80.64h413.44c44.8 0 80.64 36.48 80.64 80.64V309.76c0 17.92 14.08 32 32 32s32-14.08 32-32v-208c0-80-64.64-144.64-144.64-144.64z"  horiz-adv-x="1024" />

    
    <glyph glyph-name="vip" unicode="&#58894;" d="M716.16-33.91999999999996c-17.92 0-32 14.08-32 32s14.08 32 32 32c24.96 0 47.36 16 51.2 37.12v0.64l58.24 270.72 6.4 31.36c1.28 5.76-1.28 7.68-3.2 8.32-1.28 0.64-1.28 0.64-3.2-1.28L743.04 275.20000000000005c-20.48-25.6-51.84-37.76-83.84-32-32 5.76-58.88 29.44-69.12 62.08L513.92 538.24c-1.28 3.84-3.2 3.84-3.84 3.84-0.64 0-2.56 0-3.84-3.84L433.28 305.91999999999996c-10.24-32.64-37.12-56.96-69.12-62.72-32-5.76-63.36 6.4-84.48 32L199.04 376.32000000000005c-1.92 1.92-1.92 1.92-3.2 1.28-1.92-0.64-4.48-2.56-3.2-8.32l5.76-31.36 58.24-270.08v-0.64c3.84-21.12 25.6-37.12 51.2-37.12h261.12c17.92 0 32-14.08 32-32s-14.08-32-32-32H307.84c-56.32 0-104.32 37.12-113.92 88.96l-58.24 270.08v0.64l-5.76 32c-6.4 33.28 9.6 64.64 39.68 78.08 28.16 12.8 60.16 5.12 80-19.84l80.64-101.12c8.32-10.24 17.92-10.24 22.4-8.96 4.48 0.64 15.36 4.48 19.84 19.2l73.6 232.32c9.6 29.44 34.56 48.64 64.64 48.64h0.64c29.44 0 55.04-18.56 64.64-48l76.16-232.96c4.48-14.72 15.36-17.92 19.84-18.56 5.12-0.64 14.08-0.64 22.4 8.96l81.92 101.12c19.84 24.32 51.84 32 80 19.2 30.08-14.08 45.44-45.44 39.04-78.72l-6.4-32-58.24-270.72c-10.88-51.2-58.24-88.32-114.56-88.32zM447.36 704a58.24 54.4 90 1 1 108.8 0 58.24 54.4 90 1 1-108.8 0ZM831.36 515.8399999999999a58.24 54.4 90 1 1 108.8 0 58.24 54.4 90 1 1-108.8 0ZM87.68 515.8399999999999a58.24 54.4 90 1 1 108.8 0 58.24 54.4 90 1 1-108.8 0Z"  horiz-adv-x="1024" />

    
    <glyph glyph-name="wifi" unicode="&#58895;" d="M126.08 437.12c-7.68 0-15.36 2.56-21.76 8.32-12.8 12.16-13.44 32-1.92 45.44 109.44 117.76 264.32 184.96 424.96 184.96 161.28 0 311.68-64.64 422.4-183.04 12.16-12.8 11.52-33.28-1.28-45.44-12.8-12.16-33.28-11.52-45.44 1.28-98.56 104.96-232.32 162.56-375.68 162.56-142.72 0-280.32-60.16-378.24-165.12-5.76-5.12-14.72-8.96-23.04-8.96zM266.88 243.84000000000003c-7.68 0-15.36 2.56-21.12 8.32-13.44 11.52-14.08 32-2.56 45.44C315.52 377.6 419.2 424.32 527.36 424.32c106.88 0 209.92-45.44 282.24-124.16 12.16-12.8 10.88-33.28-1.92-45.44-12.8-12.16-33.28-10.88-45.44 1.92-60.16 65.92-145.92 103.68-234.88 103.68-90.24 0-176.64-38.4-236.8-105.6-6.4-7.04-14.72-10.88-23.68-10.88zM383.36 58.879999999999995c-7.04 0-14.08 2.56-20.48 7.04-13.44 11.52-15.36 31.36-4.48 44.8 41.6 50.56 103.04 79.36 168.96 79.36 64 0 124.8-28.16 166.4-76.8 11.52-13.44 9.6-33.92-3.84-44.8-13.44-11.52-33.92-9.6-44.8 3.84-29.44 34.56-72.32 54.4-117.76 54.4-46.08 0-89.6-20.48-119.04-56.32-6.4-7.68-16-11.52-24.96-11.52z"  horiz-adv-x="1024" />

    
    <glyph glyph-name="music" unicode="&#58896;" d="M427.52-65.91999999999996c-96 0-178.56 49.28-197.76 125.44-9.6 38.4-3.2 78.72 19.2 115.84 31.36 52.48 89.6 92.16 160 108.16 16.64 3.84 32.64 6.4 49.28 7.68L348.16 624.64c-7.68 23.04-5.12 48 6.4 69.12 11.52 21.76 32.64 38.4 56.96 44.8L748.8 828.8c18.56 5.12 38.4 0.64 52.48-12.16 14.08-12.16 20.48-30.72 17.92-49.28l-19.84-128c-4.48-28.8-25.6-52.48-54.4-60.16l-224.64-58.88c-17.28-4.48-34.56 5.76-39.04 23.04-4.48 17.28 5.76 34.56 23.04 39.04l224.64 58.88c3.84 1.28 7.04 3.84 7.68 7.68l17.92 115.2-327.04-87.68c-7.68-1.92-13.44-7.04-17.28-13.44-3.2-5.76-3.84-12.8-1.92-19.2L533.12 268.79999999999995c3.2-10.24 1.28-21.76-5.76-30.08-7.04-8.32-17.28-12.8-28.16-11.52-24.96 2.56-50.56 0.64-75.52-5.12-52.48-12.8-97.28-42.24-119.68-79.36-9.6-15.36-19.2-39.68-12.16-67.2 15.36-59.52 101.76-92.16 188.8-71.04 52.48 12.8 97.28 42.24 119.68 79.36 9.6 15.36 19.2 39.68 12.16 67.2-1.28 3.84-15.36 46.72-92.8 277.76-5.76 16.64 3.2 35.2 20.48 40.32 16.64 5.76 35.2-3.2 40.32-20.48 91.52-273.28 92.8-279.68 94.08-282.24 9.6-38.4 3.2-78.72-19.2-115.84-31.36-52.48-89.6-92.16-160-108.16-23.04-5.76-46.08-8.32-67.84-8.32z"  horiz-adv-x="1024" />

    
    <glyph glyph-name="exit" unicode="&#58897;" d="M705.92-15.360000000000014H340.48c-72.32 0-131.2 58.88-131.2 131.2V600.3199999999999c0 72.32 58.88 131.2 131.2 131.2h365.44c72.32 0 131.2-58.88 131.2-131.2v-82.56c0-17.92-14.08-32-32-32s-32 14.08-32 32V600.3199999999999c0 37.12-30.08 67.2-67.2 67.2H340.48c-37.12 0-67.2-30.08-67.2-67.2V115.20000000000005c0-37.12 30.08-67.2 67.2-67.2h365.44c37.12 0 67.2 30.08 67.2 67.2v90.88c0 17.92 14.08 32 32 32s32-14.08 32-32V115.20000000000005c0-71.68-58.88-130.56-131.2-130.56zM789.12 338.55999999999995H440.32c-17.92 0-32 14.08-32 32s14.08 32 32 32h348.16c17.92 0 32-14.08 32-32 0.64-17.28-14.08-32-31.36-32zM789.12 338.55999999999995c-8.32 0-16 3.2-22.4 8.96l-142.08 140.8c-12.8 12.16-12.8 32.64 0 45.44 12.16 12.8 32.64 12.8 45.44 0l141.44-140.16c12.8-12.16 12.8-32.64 0-45.44-6.4-6.4-14.08-9.6-22.4-9.6zM661.12 168.32000000000005c-8.32 0-16.64 3.2-23.04 10.24-12.16 12.8-11.52 33.28 1.28 45.44l66.56 63.36c12.8 12.16 33.28 11.52 45.44-1.28 12.16-12.8 11.52-33.28-1.28-45.44l-66.56-63.36c-7.04-6.4-14.72-8.96-22.4-8.96z"  horiz-adv-x="1024" />

    
    <glyph glyph-name="customer" unicode="&#58898;" d="M770.56 76.79999999999995c-17.92 0-32 14.08-32 32V408.96c0 120.96-97.92 218.88-218.88 218.88C398.72 627.8399999999999 300.8 529.9200000000001 300.8 408.96V108.79999999999995c0-17.92-14.08-32-32-32s-32 14.08-32 32V408.96c0 156.16 126.72 282.88 282.88 282.88 156.16 0 282.88-126.72 282.88-282.88V108.79999999999995c0-17.28-14.08-32-32-32zM231.04 65.27999999999997c-90.88 0-164.48 73.6-164.48 164.48 0 62.72 34.56 119.04 90.24 147.2 16 7.68 35.2 1.92 42.88-14.08 7.68-16 1.92-35.2-14.08-42.88-33.92-17.28-55.04-51.84-55.04-90.24 0-55.68 45.44-100.48 100.48-100.48 8.96 0 17.92 1.28 26.24 3.2 17.28 4.48 34.56-5.76 39.04-22.4 4.48-17.28-5.76-34.56-22.4-39.04-14.08-4.48-28.8-5.76-42.88-5.76zM808.96 65.27999999999997c-14.72 0-28.8 1.92-42.88 5.76-17.28 4.48-27.52 22.4-22.4 39.04 4.48 17.28 22.4 27.52 39.04 22.4 8.32-2.56 17.28-3.2 26.24-3.2 55.68 0 100.48 45.44 100.48 100.48 0 38.4-21.12 72.96-55.04 90.24-16 7.68-21.76 27.52-14.08 42.88 7.68 16 27.52 21.76 42.88 14.08 55.68-28.16 90.24-84.48 90.24-147.2 0-90.88-73.6-164.48-164.48-164.48z"  horiz-adv-x="1024" />

    
    <glyph glyph-name="fingerprint" unicode="&#58899;" d="M226.56 599.6800000000001c7.68 0 15.36 2.56 21.76 8.32C326.4 679.6800000000001 426.88 719.36 533.12 719.36c35.2 0 70.4-4.48 104.32-13.44 67.84-17.28 131.2-52.48 182.4-101.12 6.4-5.76 14.08-8.96 21.76-8.96 8.32 0 17.28 3.2 23.04 10.24 12.16 12.8 11.52 33.28-1.28 45.44-59.52 56.32-132.48 96.64-210.56 116.48-39.04 10.24-80 15.36-120.32 15.36-121.6 0-238.08-45.44-327.68-128-12.8-12.16-13.44-32-1.92-45.44 7.04-7.04 15.36-10.24 23.68-10.24zM339.84 301.44000000000005c0 97.28 72.96 179.84 168.96 191.36 8.32 1.28 16 1.28 24.32 1.28 33.92 0 67.2-8.96 96.64-25.6 30.72-17.92 55.68-42.88 72.32-73.6 16-28.16 24.32-60.8 24.32-93.44 0-17.92 14.08-32 32-32s32 14.08 32 32c0 43.52-10.88 86.4-32 124.16-22.4 40.96-55.68 74.88-96.64 98.56-39.04 22.4-83.2 34.56-128.64 34.56-10.24 0-21.12-0.64-32-1.92-128.64-16-225.28-125.44-225.28-255.36 0-87.04 23.68-172.16 67.84-247.04 5.76-10.24 16.64-15.36 27.52-15.36 5.76 0 11.52 1.28 16.64 4.48 15.36 8.96 19.84 28.8 10.88 44.16-38.4 64-58.88 138.24-58.88 213.76zM810.24 545.9200000000001c-41.6 47.36-94.72 83.2-154.24 104.32-39.68 14.08-81.28 21.12-123.52 21.12-31.36 0-62.08-3.84-92.16-11.52-163.2-41.6-277.76-189.44-277.76-358.4 0-35.2 5.12-70.4 14.72-104.32 3.84-14.08 16.64-23.04 30.72-23.04 3.2 0 5.76 0.64 8.96 1.28 16.64 5.12 26.88 23.04 21.76 39.68-8.32 28.16-12.16 56.96-12.16 86.4 0 139.52 94.72 261.76 229.76 296.32 24.96 6.4 50.56 9.6 76.16 9.6 34.56 0 69.12-5.76 101.76-17.28 48.64-17.28 92.8-46.72 127.36-86.4 49.28-55.68 76.8-128 76.8-202.24 0-44.16-35.84-80.64-80.64-80.64-6.4 0-13.44 0.64-19.84 2.56-35.84 8.96-60.16 40.96-60.16 78.08 0 65.92-44.8 123.52-108.8 140.16-12.16 3.2-24.32 4.48-35.84 4.48-80 0-144.64-64.64-144.64-144.64 0-90.24 32.64-176.64 92.8-244.48 41.6-47.36 94.72-83.2 154.24-104.32 3.84-1.28 7.04-1.92 10.88-1.92 13.44 0 25.6 8.32 30.08 21.12 5.76 16.64-2.56 35.2-19.2 40.96-48.64 17.28-92.8 46.72-127.36 85.76-49.28 55.68-76.8 128-76.8 202.24 0 44.16 35.84 80.64 80.64 80.64 6.4 0 13.44-0.64 19.84-2.56 35.84-8.96 60.16-40.96 60.16-78.08 0-65.92 44.8-123.52 108.8-140.16 12.16-3.2 24.32-4.48 35.84-4.48 80 0 144.64 64.64 144.64 144.64-0.64 90.24-33.28 177.28-92.8 245.12zM782.08 109.44000000000005c-8.32-1.28-16-1.28-24.32-1.28-33.92 0-67.2 8.96-96.64 25.6-30.72 17.92-55.68 42.88-72.32 73.6-16 28.16-24.32 60.8-24.32 93.44 0 17.92-14.08 32-32 32s-32-14.08-32-32c0-43.52 10.88-86.4 32-124.16 22.4-40.96 55.68-74.88 96.64-97.92 39.04-22.4 83.2-34.56 128.64-34.56 10.24 0 21.12 0.64 32 1.92 17.28 1.92 30.08 17.92 27.52 35.84s-17.92 30.08-35.2 27.52z"  horiz-adv-x="1024" />

    
    <glyph glyph-name="wallet" unicode="&#58900;" d="M724.48 200.96000000000004H555.52c-87.04 0-158.08 71.04-158.08 158.08v11.52c0 87.04 71.04 158.08 158.08 158.08h264.96c17.92 0 32-14.08 32-32s-14.08-32-32-32H555.52c-51.84 0-94.08-42.24-94.08-94.08v-11.52c0-51.84 42.24-94.08 94.08-94.08h168.96c17.92 0 32-14.08 32-32s-14.08-32-32-32zM558.08 368.64m-42.24 0a42.24 42.24 0 1 1 84.48 0 42.24 42.24 0 1 1-84.48 0ZM731.52-23.67999999999995H313.6c-67.2 0-121.6 54.4-121.6 121.6V620.1600000000001c0 67.2 54.4 121.6 121.6 121.6h418.56c67.2 0 121.6-54.4 121.6-121.6V499.2c0-17.92-14.08-32-32-32s-32 14.08-32 32V620.1600000000001c0 32-25.6 57.6-57.6 57.6H313.6c-32 0-57.6-25.6-57.6-57.6v-522.24c0-32 25.6-57.6 57.6-57.6h418.56c32 0 57.6 25.6 57.6 57.6V375.03999999999996c0 17.92 14.08 32 32 32s32-14.08 32-32v-277.76c-0.64-66.56-55.04-120.96-122.24-120.96z"  horiz-adv-x="1024" />

    
    <glyph glyph-name="shoppingcart" unicode="&#58901;" d="M760.96 183.04H372.48c-39.68 0-74.24 28.16-84.48 69.12L200.32 624.64H120.96c-17.92 0-32 14.08-32 32s14.08 32 32 32h104.96c14.72 0 27.52-10.24 31.36-24.96l93.44-396.8c3.2-11.52 12.16-19.84 22.4-19.84h387.84c10.24 0 19.2 8.32 22.4 19.84l53.76 251.52H436.48c-17.92 0-32 14.08-32 32s14.08 32 32 32h439.68c9.6 0 18.56-4.48 24.96-12.16 5.76-7.68 8.32-17.28 6.4-26.88l-62.08-290.56v-0.64c-10.24-40.32-44.8-69.12-84.48-69.12zM417.28 74.88m-58.24 0a58.24 58.24 0 1 1 116.48 0 58.24 58.24 0 1 1-116.48 0ZM730.88 74.88m-58.24 0a58.24 58.24 0 1 1 116.48 0 58.24 58.24 0 1 1-116.48 0Z"  horiz-adv-x="1024" />

    
    <glyph glyph-name="link" unicode="&#58902;" d="M453.76 200.96000000000004c-3.84 0-7.68 0.64-11.52 1.92-21.12 8.32-39.68 20.48-55.68 36.48-30.72 30.72-47.36 71.68-47.36 115.2 0 43.52 16.64 84.48 47.36 115.2l231.04 231.04c63.36 63.36 167.04 63.36 230.4 0 63.36-63.36 63.36-167.04 0-230.4l-42.24-42.24c-12.8-12.8-32.64-12.8-45.44 0s-12.8 32.64 0 45.44l42.24 42.24c38.4 38.4 38.4 101.12 0 140.16-38.4 38.4-101.12 38.4-140.16 0L431.36 424.96c-18.56-18.56-28.8-43.52-28.8-69.76 0-26.24 10.24-51.2 28.8-69.76 9.6-9.6 21.12-17.28 33.92-21.76 16.64-6.4 24.96-24.96 18.56-41.6-5.12-13.44-17.28-21.12-30.08-21.12zM317.44 8.32000000000005c-41.6 0-83.2 16-115.2 47.36-30.72 30.72-47.36 71.68-47.36 115.2 0 43.52 16.64 84.48 47.36 115.2l64 64c12.8 12.8 32.64 12.8 45.44 0s12.8-32.64 0-45.44l-64-64c-18.56-18.56-28.8-43.52-28.8-69.76 0-26.24 10.24-51.2 28.8-69.76 38.4-38.4 101.12-38.4 140.16 0l231.04 231.04c38.4 38.4 38.4 101.12 0 140.16-10.24 10.24-21.76 17.92-35.2 22.4-16.64 6.4-24.96 24.32-19.2 40.96 6.4 16.64 24.32 24.96 40.96 19.2 22.4-8.32 41.6-20.48 58.88-37.76 63.36-63.36 63.36-167.04 0-230.4l-231.04-231.04c-32.64-31.36-74.24-47.36-115.84-47.36z"  horiz-adv-x="1024" />

    
    <glyph glyph-name="addshoppingcart" unicode="&#58903;" d="M761.6 155.51999999999998H373.12c-39.68 0-74.24 28.16-84.48 69.12L200.96 597.12H121.6c-17.92 0-32 14.08-32 32s14.08 32 32 32h104.96c14.72 0 27.52-10.24 31.36-24.96l93.44-396.8c3.2-11.52 12.16-19.84 22.4-19.84H761.6c10.24 0 19.2 8.32 22.4 19.84l62.08 289.92c3.84 17.28 20.48 28.16 37.76 24.32 17.28-3.84 28.16-20.48 24.32-37.76l-62.08-290.56v-0.64c-10.24-40.96-44.8-69.12-84.48-69.12zM417.92 47.360000000000014m-58.24 0a58.24 58.24 0 1 1 116.48 0 58.24 58.24 0 1 1-116.48 0ZM731.52 47.360000000000014m-58.24 0a58.24 58.24 0 1 1 116.48 0 58.24 58.24 0 1 1-116.48 0ZM726.4 449.28h-56.96c-17.92 0-32 14.08-32 32s14.08 32 32 32h56.96c17.92 0 32-14.08 32-32s-14.72-32-32-32zM550.4 449.28H408.96c-17.92 0-32 14.08-32 32s14.08 32 32 32H550.4c17.92 0 32-14.08 32-32s-14.72-32-32-32zM562.56 295.67999999999995c-17.92 0-32 14.08-32 32v307.2c0 17.92 14.08 32 32 32s32-14.08 32-32v-307.2c0-17.92-14.72-32-32-32z"  horiz-adv-x="1024" />

    
    <glyph glyph-name="calender" unicode="&#58904;" d="M811.52-18.559999999999945H226.56c-61.44 0-110.72 49.92-110.72 110.72V565.12c0 55.04 44.8 99.84 99.84 99.84h16.64c17.92 0 32-14.08 32-32s-14.08-32-32-32h-16.64c-19.84 0-35.84-16-35.84-35.84v-472.96c0-25.6 21.12-46.72 46.72-46.72h584.96c25.6 0 46.72 21.12 46.72 46.72V304.64c0 17.92 14.08 32 32 32s32-14.08 32-32v-211.84c0-61.44-49.28-111.36-110.72-111.36zM890.24 410.24c-17.92 0-32 14.08-32 32V565.12c0 19.84-16 35.84-35.84 35.84h-17.28c-17.92 0-32 14.08-32 32s14.08 32 32 32h17.28c55.04 0 99.84-44.8 99.84-99.84v-122.88c0-17.28-14.08-32-32-32zM579.84 600.96h-121.6c-17.92 0-32 14.08-32 32s14.08 32 32 32h121.6c17.92 0 32-14.08 32-32s-14.08-32-32-32zM881.28 408.32H157.44c-17.92 0-32 14.08-32 32s14.08 32 32 32h723.84c17.92 0 32-14.08 32-32s-14.72-32-32-32zM349.44 538.24c-17.92 0-32 14.08-32 32V699.52c0 17.92 14.08 32 32 32s32-14.08 32-32v-129.28c0-17.28-14.08-32-32-32zM688.64 538.24c-17.92 0-32 14.08-32 32V699.52c0 17.92 14.08 32 32 32s32-14.08 32-32v-129.28c0-17.28-14.08-32-32-32zM766.72 266.24h-87.04c-17.92 0-32 14.08-32 32s14.08 32 32 32h87.04c17.92 0 32-14.08 32-32s-14.08-32-32-32zM558.72 266.24H471.68c-17.92 0-32 14.08-32 32s14.08 32 32 32h87.04c17.92 0 32-14.08 32-32s-14.72-32-32-32zM355.2 116.48000000000002H268.16c-17.92 0-32 14.08-32 32s14.08 32 32 32h87.04c17.92 0 32-14.08 32-32s-14.08-32-32-32zM558.72 116.48000000000002H471.68c-17.92 0-32 14.08-32 32s14.08 32 32 32h87.04c17.92 0 32-14.08 32-32s-14.72-32-32-32z"  horiz-adv-x="1024" />

    
    <glyph glyph-name="paste" unicode="&#58905;" d="M580.48-25.600000000000023H289.92c-61.44 0-111.36 49.92-111.36 111.36V496.64c0 61.44 49.92 111.36 111.36 111.36h290.56c61.44 0 111.36-49.92 111.36-111.36v-410.88c0-61.44-49.92-111.36-111.36-111.36zM289.92 544c-26.24 0-47.36-21.12-47.36-47.36v-410.88c0-26.24 21.12-47.36 47.36-47.36h290.56c26.24 0 47.36 21.12 47.36 47.36V496.64c0 26.24-21.12 47.36-47.36 47.36H289.92zM438.4 670.72h-61.44c-17.92 0-32 14.08-32 32s14.08 32 32 32h61.44c17.92 0 32-14.08 32-32s-14.08-32-32-32zM785.28 310.4c-17.92 0-32 14.08-32 32V449.28c0 17.92 14.08 32 32 32s32-14.08 32-32v-106.88c0-17.92-14.72-32-32-32z m0 213.76c-17.28 0-31.36 13.44-32 30.72-1.28 28.16-12.16 55.68-31.36 76.16-12.16 12.8-10.88 33.28 1.92 45.44 12.8 12.16 33.28 10.88 45.44-1.92 29.44-32 46.72-73.6 48-117.12 0.64-17.92-12.8-32.64-30.72-33.28h-1.28z m-133.12 145.28h-3.84c-5.12 0.64-10.24 1.28-15.36 1.28H545.28c-17.92 0-32 14.08-32 32s14.08 32 32 32h87.68c7.68 0 16-0.64 23.68-1.28 17.28-1.92 30.08-18.56 27.52-35.84-1.92-16.64-16-28.16-32-28.16zM785.28 141.44000000000005c-17.92 0-32 14.08-32 32v61.44c0 17.92 14.08 32 32 32s32-14.08 32-32v-61.44c0-17.28-14.72-32-32-32z"  horiz-adv-x="1024" />

    
    <glyph glyph-name="copy" unicode="&#58906;" d="M571.52-13.440000000000055H280.96c-61.44 0-111.36 49.92-111.36 111.36V508.8c0 61.44 49.92 111.36 111.36 111.36h290.56c61.44 0 111.36-49.92 111.36-111.36v-410.88c0-61.44-49.92-111.36-111.36-111.36z m-290.56 569.6c-26.24 0-47.36-21.12-47.36-47.36v-410.88c0-26.24 21.12-47.36 47.36-47.36h290.56c26.24 0 47.36 21.12 47.36 47.36V508.8c0 26.24-21.12 47.36-47.36 47.36H280.96zM775.68 153.60000000000002c-17.92 0-32 14.08-32 32V562.56c0 66.56-53.76 120.32-120.32 120.32h-256c-17.92 0-32 14.08-32 32s14.08 32 32 32h256c101.76 0 184.32-82.56 184.32-184.32V185.60000000000002c0-17.28-14.08-32-32-32z"  horiz-adv-x="1024" />

    
    <glyph glyph-name="zoomout" unicode="&#58907;" d="M874.88-42.24000000000001c-8.32 0-17.28 3.2-23.68 10.24l-222.72 240c-5.76 6.4-8.96 14.72-8.32 23.04 0.64 8.32 4.48 16.64 10.24 22.4 9.6 8.32 18.56 17.92 26.88 27.52 83.2 99.2 82.56 248.32-1.28 346.88-49.92 58.88-122.88 93.44-199.68 95.36-76.8 1.92-151.04-29.44-203.52-85.76-94.08-101.12-96-260.48-3.84-362.88 52.48-58.88 127.36-91.52 206.08-90.24h0.64c17.28 0 32-14.08 32-31.36 0-17.92-14.08-32-31.36-32.64-96.64-1.92-189.44 39.04-254.72 111.36-114.56 127.36-112.64 325.12 3.84 449.92 64.64 69.76 156.8 108.16 251.52 106.24 94.72-1.92 184.96-44.8 247.04-117.76 104.32-122.24 104.96-306.56 1.92-429.44-3.2-3.84-6.4-7.68-9.6-10.88l201.6-217.6c12.16-12.8 11.52-33.28-1.92-45.44-5.76-5.76-13.44-8.96-21.12-8.96zM581.76 413.44H327.68c-17.92 0-32 14.08-32 32s14.08 32 32 32h253.44c17.92 0 32-14.08 32-32s-14.08-32-31.36-32z"  horiz-adv-x="1024" />

    
    <glyph glyph-name="zoomin" unicode="&#58908;" d="M872.32-42.879999999999995c-8.32 0-17.28 3.2-23.68 10.24l-222.72 240c-5.76 6.4-8.96 14.72-8.32 23.04 0.64 8.32 4.48 16.64 10.24 22.4 9.6 8.32 18.56 17.92 26.88 27.52 83.2 99.2 82.56 248.32-1.28 346.88-49.92 59.52-122.88 94.08-199.68 96-76.8 1.92-151.04-29.44-203.52-85.76-94.08-101.12-96-260.48-3.84-362.88 52.48-58.88 127.36-91.52 206.08-90.24h0.64c17.28 0 32-14.08 32-31.36 0-17.92-14.08-32-31.36-32.64-97.28-1.92-189.44 39.04-254.72 112-113.92 126.08-112 323.2 4.48 448 64.64 69.76 156.16 108.8 251.52 106.88 94.72-1.92 184.96-44.8 247.04-117.76 104.32-122.24 104.96-306.56 1.92-429.44-3.2-3.84-6.4-7.68-9.6-10.88l201.6-217.6c12.16-12.8 11.52-33.28-1.92-45.44-5.76-6.4-14.08-8.96-21.76-8.96zM586.24 416h-48c-17.92 0-32 14.08-32 32s14.08 32 32 32h48c17.92 0 32-14.08 32-32s-14.72-32-32-32zM444.8 416H305.92c-17.92 0-32 14.08-32 32s14.08 32 32 32h138.88c17.92 0 32-14.08 32-32s-14.08-32-32-32zM446.08 275.84000000000003c-17.92 0-32 14.08-32 32V588.1600000000001c0 17.92 14.08 32 32 32s32-14.08 32-32v-280.32c0-17.28-14.08-32-32-32z"  horiz-adv-x="1024" />

    
    <glyph glyph-name="gift" unicode="&#58909;" d="M733.44 0.6399999999999864H281.6c-49.28 0-88.96 39.68-88.96 88.96V326.4c0 17.92 14.08 32 32 32h618.88V464c0 11.52-8.96 20.48-20.48 20.48H191.36c-11.52 0-20.48-8.96-20.48-20.48v-83.84c0-17.92-14.08-32-32-32s-32 14.08-32 32V464c0 46.72 37.76 84.48 84.48 84.48h632.32c46.72 0 84.48-37.76 84.48-84.48V326.4c0-17.92-14.08-32-32-32H256.64v-204.8c0-13.44 10.88-24.96 24.96-24.96h451.84c13.44 0 24.96 10.88 24.96 24.96v137.6c0 17.92 14.08 32 32 32s32-14.08 32-32V89.60000000000002c0-49.28-39.68-88.96-88.96-88.96zM485.12 484.48c-0.64 0-0.64 0 0 0H383.36c-72.96 0.64-131.84 60.16-131.84 132.48 0 72.96 59.52 132.48 132.48 132.48 72.32 0 131.84-58.88 132.48-131.2v-101.76c0-8.32-3.2-16.64-9.6-22.4-5.76-5.76-13.44-9.6-21.76-9.6zM384 686.08c-37.76 0-68.48-30.72-68.48-68.48 0-37.12 30.72-67.84 67.84-68.48h69.12V618.24c0 37.12-30.72 67.84-68.48 67.84zM551.68 483.2c-17.92 0-32 14.08-32 32s14.08 32 32 32h101.76c37.12 0.64 67.84 31.36 67.84 68.48 0 37.76-30.72 68.48-68.48 68.48-19.84 0-38.4-8.32-51.84-23.68-11.52-13.44-32-14.72-45.44-3.2-13.44 11.52-14.72 32-3.2 45.44 24.96 28.8 61.44 45.44 99.84 45.44 72.96 0 132.48-59.52 132.48-132.48 0-72.32-58.88-131.84-131.2-132.48H551.68z"  horiz-adv-x="1024" />

    
    <glyph glyph-name="upload" unicode="&#58910;" d="M508.16-33.91999999999996c-17.92 0-32 14.08-32 32V641.28L183.68 360.96000000000004c-12.8-12.16-33.28-11.52-45.44 0.64-12.16 12.8-11.52 33.28 0.64 45.44l346.24 332.16c8.96 8.96 23.04 11.52 34.56 6.4 11.52-5.12 19.2-16.64 19.2-29.44v-717.44c1.28-17.92-13.44-32.64-30.72-32.64zM900.48 346.88c-7.68 0-16 3.2-22.4 8.96l-285.44 275.2c-12.8 12.16-12.8 32.64-0.64 45.44s32.64 12.8 45.44 0.64l285.44-275.2c12.8-12.16 12.8-32.64 0.64-45.44-6.4-6.4-14.72-9.6-23.04-9.6z"  horiz-adv-x="1024" />

    
    <glyph glyph-name="thumbup" unicode="&#58911;" d="M606.08 17.279999999999973H323.2c-67.84 0-122.88 55.04-122.88 122.88V465.28c0 46.72 23.04 92.16 60.8 117.76l178.56 147.84 1.92 1.92c27.52 19.2 65.28 21.76 98.56 5.76 30.72-14.72 50.56-41.6 53.12-72.32 0-3.2 0-7.04-0.64-10.24l-21.12-88.32 167.04-0.64c41.6 0 80.64-17.92 107.52-49.92 26.88-32 38.4-73.6 31.36-114.56 0-1.92-0.64-3.2-1.28-5.12L798.08 160c-24.96-85.12-103.04-142.72-192-142.72zM479.36 680.96L300.8 532.48c-0.64-0.64-1.92-1.28-2.56-1.92-20.48-14.08-33.28-39.04-33.28-65.28v-325.12c0-32.64 26.24-58.88 58.88-58.88h282.88c61.44 0 114.56 39.68 131.84 97.92v0.64l77.44 234.88c3.2 21.76-3.2 43.52-17.92 60.16-14.72 17.28-36.48 27.52-58.88 27.52l-207.36 0.64c-9.6 0-19.2 4.48-24.96 12.16s-8.32 17.92-5.76 26.88l28.8 120.96c-3.2 9.6-12.8 14.72-16 16-12.16 7.04-25.6 7.04-34.56 1.92z m368-273.28z"  horiz-adv-x="1024" />

    
    <glyph glyph-name="download" unicode="&#58912;" d="M504.32-13.440000000000055c-8.32 0-16 3.2-22.4 8.96l-346.24 332.8c-12.8 12.16-13.44 32.64-0.64 45.44 12.16 12.8 32.64 13.44 45.44 0.64l292.48-280.32V736.64c0 17.92 14.08 32 32 32s32-14.08 32-32V19.200000000000045c0-12.8-7.68-24.32-19.2-29.44-4.48-1.92-8.96-3.2-13.44-3.2zM611.2 48.639999999999986c-8.32 0-16.64 3.2-23.04 9.6-12.16 12.8-12.16 33.28 0.64 45.44l285.44 275.2c12.8 12.16 33.28 12.16 45.44-0.64 12.16-12.8 12.16-33.28-0.64-45.44L633.6 57.60000000000002c-6.4-6.4-14.08-8.96-22.4-8.96z"  horiz-adv-x="1024" />

    
    <glyph glyph-name="like" unicode="&#58913;" d="M513.28 24.32000000000005c-31.36 0-62.72 12.16-86.4 35.84l-231.04 230.4c-92.8 92.8-92.8 243.84 0 336.64 44.8 44.8 104.96 69.76 168.32 69.76 55.04 0 106.88-18.56 149.12-52.48 43.52 35.2 96.64 53.12 153.6 52.48 65.28-1.28 125.44-28.16 170.24-76.16 86.4-92.8 81.92-242.56-9.6-334.08l-227.2-227.2c-23.68-23.68-55.04-35.2-87.04-35.2zM364.16 633.6c-46.72 0-90.24-17.92-122.88-51.2-32.64-32.64-51.2-76.8-51.2-122.88s17.92-90.24 51.2-123.52l231.04-231.04c23.04-23.04 60.16-23.04 83.2 0L782.08 332.79999999999995c67.2 67.2 71.04 177.28 7.68 245.12-32.64 35.2-76.8 55.04-124.8 55.68-48 0.64-92.8-17.28-126.08-51.2l-3.2-3.2c-5.76-5.76-14.08-9.6-22.4-9.6-8.32 0-16.64 3.2-22.4 9.6l-3.2 3.2c-32.64 32.64-76.8 51.2-123.52 51.2z"  horiz-adv-x="1024" />

    
    <glyph glyph-name="camera" unicode="&#58914;" d="M835.2 17.91999999999996H222.08c-57.6 0-104.32 46.72-104.32 104.32V479.36c0 57.6 46.72 104.32 104.32 104.32h85.76c1.28 0 2.56 0.64 3.2 1.92L353.92 672c14.72 30.08 44.8 48.64 78.08 48.64h189.44c33.28 0 63.36-18.56 78.08-48.64 7.68-16 1.28-35.2-14.72-42.88-16-7.68-35.2-1.28-42.88 14.72-3.84 8.32-12.16 12.8-21.12 12.8H432c-8.96 0-16.64-5.12-21.12-12.8l-42.88-86.4c-11.52-23.04-34.56-37.76-60.8-37.76H222.08c-22.4 0-40.32-17.92-40.32-40.32v-357.12c0-22.4 17.92-40.32 40.32-40.32h613.12c22.4 0 40.32 17.92 40.32 40.32V479.36c0 22.4-17.92 40.32-40.32 40.32h-180.48c-17.92 0-32 14.08-32 32s14.08 32 32 32h180.48c57.6 0 104.32-46.72 104.32-104.32v-357.12c0-57.6-46.72-104.32-104.32-104.32zM528.64 138.24c-101.76 0-184.96 82.56-184.96 184.96 0 101.76 82.56 184.96 184.96 184.96s184.96-82.56 184.96-184.96c-0.64-102.4-83.2-184.96-184.96-184.96z m0 305.28c-66.56 0-120.96-54.4-120.96-120.96 0-66.56 54.4-120.96 120.96-120.96 66.56 0 120.96 54.4 120.96 120.96-0.64 67.2-54.4 120.96-120.96 120.96zM796.16 444.8m-37.12 0a37.12 37.12 0 1 1 74.24 0 37.12 37.12 0 1 1-74.24 0Z"  horiz-adv-x="1024" />

    
    <glyph glyph-name="tools" unicode="&#58915;" d="M275.84-12.799999999999955c-32.64 0-65.28 12.16-90.24 37.12-24.32 24.32-37.12 56.32-37.12 90.24s13.44 65.92 37.12 90.24l96 96c10.88 10.88 14.72 26.88 10.24 40.96-39.04 119.04-8.32 248.32 80.64 337.28 72.32 72.32 172.8 106.88 274.56 94.08 33.28-3.84 60.16-26.24 71.04-57.6 10.88-31.36 3.2-65.92-20.48-89.6L548.48 477.44c-12.16-12.16-18.56-28.16-18.56-44.8s6.4-33.28 18.56-44.8c12.16-12.16 28.16-18.56 44.8-18.56s33.28 6.4 44.8 18.56L787.2 536.3199999999999c23.68 23.68 58.24 31.36 89.6 20.48 31.36-10.88 53.76-37.76 57.6-71.04 12.8-101.76-21.76-202.24-94.08-274.56-88.32-88.96-217.6-119.68-337.28-80.64-14.08 4.48-30.08 0.64-40.96-10.24l-96-96c-24.96-24.96-57.6-37.12-90.24-37.12zM605.44 712.3199999999999c-70.4 0-137.6-27.52-188.16-78.08-71.04-71.68-96-176-64.64-272 12.16-37.12 2.56-78.08-25.6-106.24l-96-96c-24.96-24.96-24.96-65.28 0-90.24 24.96-24.96 65.28-24.96 90.24 0l96 96c28.16 28.16 69.12 38.4 106.24 25.6 96-31.36 200.32-6.4 272 64.64 58.24 58.24 86.4 139.52 76.16 221.44-1.28 12.16-10.88 17.28-14.72 18.56-3.84 1.28-14.72 3.84-23.68-5.12l-149.12-149.12c-24.32-24.32-56.32-37.12-90.24-37.12s-65.92 13.44-90.24 37.12c-24.32 24.32-37.12 56.32-37.12 90.24s13.44 65.92 37.12 90.24L652.8 671.36c8.96 8.96 7.04 19.84 5.12 23.68-1.28 3.84-5.76 13.44-18.56 14.72-11.52 1.28-22.4 2.56-33.92 2.56z"  horiz-adv-x="1024" />

    
    <glyph glyph-name="function" unicode="&#58916;" d="M369.92 367.36H261.76c-68.48 0-123.52 55.68-123.52 123.52V599.04c0 68.48 55.68 123.52 123.52 123.52h107.52c68.48 0 123.52-55.68 123.52-123.52v-107.52c0.64-68.48-55.04-124.16-122.88-124.16zM261.76 658.56c-32.64 0-59.52-26.88-59.52-59.52v-107.52c0-32.64 26.88-59.52 59.52-59.52h107.52c32.64 0 59.52 26.88 59.52 59.52V599.04c0 32.64-26.88 59.52-59.52 59.52H261.76zM369.92-11.519999999999982H261.76c-68.48 0-123.52 55.68-123.52 123.52v107.52c0 68.48 55.68 123.52 123.52 123.52h107.52c68.48 0 123.52-55.68 123.52-123.52v-107.52c0.64-67.84-55.04-123.52-122.88-123.52zM261.76 279.67999999999995c-32.64 0-59.52-26.88-59.52-59.52v-107.52c0-32.64 26.88-59.52 59.52-59.52h107.52c32.64 0 59.52 26.88 59.52 59.52v107.52c0 32.64-26.88 59.52-59.52 59.52H261.76zM751.36-11.519999999999982h-107.52c-68.48 0-123.52 55.68-123.52 123.52v107.52c0 68.48 55.68 123.52 123.52 123.52h107.52c68.48 0 123.52-55.68 123.52-123.52v-107.52c0-67.84-55.68-123.52-123.52-123.52z m-108.16 291.2c-32.64 0-59.52-26.88-59.52-59.52v-107.52c0-32.64 26.88-59.52 59.52-59.52h107.52c32.64 0 59.52 26.88 59.52 59.52v107.52c0 32.64-26.88 59.52-59.52 59.52h-107.52zM704.64 360.32000000000005c-31.36 0-63.36 12.16-87.68 36.48L540.8 472.32c-48 48-48 126.72 0 174.72L616.96 723.2c48 48 126.72 48 174.72 0l76.16-76.16c48-48 48-126.72 0-174.72l-76.16-76.16c-23.68-24.32-55.68-35.84-87.04-35.84z m0 335.36c-15.36 0-30.72-5.76-42.24-17.28L586.24 602.24c-23.04-23.04-23.04-60.8 0-84.48L662.4 441.6c23.04-23.04 60.8-23.04 84.48 0l76.16 76.16c23.04 23.04 23.04 60.8 0 84.48L746.88 678.4c-11.52 11.52-26.88 17.28-42.24 17.28z"  horiz-adv-x="1024" />

    
    <glyph glyph-name="lowpowermode" unicode="&#58917;" d="M641.92-41.60000000000002H378.88c-56.96 0-103.68 46.72-103.68 103.68V578.56c0 56.96 46.72 103.68 103.68 103.68h263.04c56.96 0 103.68-46.72 103.68-103.68v-516.48c0-57.6-46.72-103.68-103.68-103.68zM378.88 618.24c-21.76 0-39.68-17.92-39.68-39.68v-516.48c0-21.76 17.92-39.68 39.68-39.68h263.04c21.76 0 39.68 17.92 39.68 39.68V578.56c0 21.76-17.92 39.68-39.68 39.68H378.88zM577.28 707.2c-12.16 0-24.32 7.04-29.44 19.84-6.4 15.36-21.12 24.96-37.12 24.96-16.64 0-30.72-9.6-37.12-24.96-7.04-16-25.6-23.68-42.24-17.28-16 7.04-23.68 25.6-17.28 42.24 16.64 39.04 54.4 64 96.64 64s80-24.96 96.64-64c7.04-16-0.64-35.2-17.28-42.24-4.48-1.92-8.96-2.56-12.8-2.56zM606.08 61.440000000000055H421.12c-17.92 0-32 14.08-32 32s14.08 32 32 32h184.32c17.92 0 32-14.08 32-32s-14.08-32-31.36-32z"  horiz-adv-x="1024" />

    
    <glyph glyph-name="charging" unicode="&#58918;" d="M650.24-62.72000000000003H501.12c-17.92 0-32 14.08-32 32s14.08 32 32 32h148.48c21.76 0 39.68 17.92 39.68 39.68V557.44c0 21.76-17.92 39.68-39.68 39.68H386.56c-21.76 0-39.68-17.92-39.68-39.68v-516.48c0-21.76 17.92-39.68 39.68-39.68 17.92 0 32-14.08 32-32s-14.08-32-32-32c-56.96 0-103.68 46.72-103.68 103.68V557.44c0 56.96 46.72 103.68 103.68 103.68h263.04c56.96 0 103.68-46.72 103.68-103.68v-516.48c0.64-56.96-46.08-103.68-103.04-103.68zM584.96 686.72c-12.16 0-24.32 7.04-29.44 19.84-6.4 15.36-21.12 24.96-37.12 24.96s-30.72-9.6-37.12-24.96c-7.04-16-25.6-23.68-42.24-17.28-16 7.04-23.68 25.6-17.28 42.24 16.64 39.04 54.4 64 96.64 64s80-24.96 96.64-64c7.04-16-0.64-35.2-17.28-42.24-3.84-1.92-8.32-2.56-12.8-2.56zM501.76-52.48000000000002c-4.48 0-8.96 1.28-13.44 3.2-16 7.68-23.04 26.88-15.36 42.88l89.6 191.36-136.96 56.32c-8.32 3.2-14.72 10.24-17.92 19.2-3.2 8.32-2.56 17.92 1.92 26.24l112.64 204.8c8.32 15.36 28.16 21.12 43.52 12.8 15.36-8.32 21.12-28.16 12.8-43.52L483.2 286.72l135.04-55.68c8.32-3.2 14.72-9.6 17.92-17.92s2.56-17.28-0.64-24.96L531.2-33.91999999999996c-5.76-11.52-17.28-18.56-29.44-18.56z"  horiz-adv-x="1024" />

    
    <glyph glyph-name="GPS" unicode="&#58919;" d="M481.92-20.480000000000018c-88.32 0-174.08 34.56-238.08 98.56-63.36 63.36-98.56 147.84-98.56 238.08 0 89.6 35.2 174.72 98.56 238.08 0.64 0.64 1.28 1.28 2.56 1.92l0.64 0.64c12.8 12.16 32.64 12.16 44.8 0l430.72-430.72c12.16-12.16 12.8-32.64 0-44.8l-0.64-0.64-1.92-1.92c-12.16-12.8-32.64-12.8-45.44 0-3.84 3.84-6.4 8.32-8.32 13.44L270.08 487.68c-39.68-48.64-60.8-108.16-60.8-171.52 0-72.96 28.16-141.44 80-192.64 69.76-69.76 172.8-96.64 268.16-69.12 17.28 5.12 34.56-5.12 39.68-21.76 5.12-17.28-5.12-34.56-21.76-39.68-31.36-9.6-62.72-13.44-93.44-13.44zM700.16 291.20000000000005c-6.4 0-13.44 1.92-19.2 6.4-14.08 10.24-17.28 30.72-6.4 44.8 35.2 46.72 30.08 113.92-11.52 154.88-41.6 41.6-108.16 46.08-154.88 11.52-14.08-10.24-33.92-7.68-44.8 6.4-10.24 14.08-7.68 33.92 6.4 44.8 72.32 53.76 174.72 46.08 238.72-17.28 63.36-63.36 71.04-166.4 17.28-238.72-5.76-8.32-16-12.8-25.6-12.8zM817.92 173.44000000000005c-7.68 0-14.72 2.56-21.12 7.68-13.44 11.52-14.72 32-3.2 45.44 97.92 112 92.16 282.88-13.44 388.48s-275.84 111.36-388.48 13.44c-13.44-11.52-33.28-10.24-45.44 3.2-11.52 13.44-10.24 33.28 3.2 45.44 137.6 119.68 346.24 112.64 475.52-16.64 129.28-129.28 136.32-337.92 16.64-475.52-5.76-7.68-14.72-11.52-23.68-11.52z"  horiz-adv-x="1024" />

    
    <glyph glyph-name="bluetooth" unicode="&#58920;" d="M522.88-85.12c-17.92 0-32 14.08-32 32V812.8c0 17.92 14.08 32 32 32 8.32 0 16.64-3.2 22.4-9.6l167.04-167.04c39.68-39.68 39.68-104.32 0-144L630.4 441.6c-12.8-12.8-32.64-12.8-45.44 0s-12.8 32.64 0 45.44L667.52 569.6c14.72 14.72 14.72 39.04 0 53.76L554.88 735.36v-342.4l158.08-157.44c39.68-39.68 39.68-104.32 0-144l-167.04-167.04c-6.4-6.4-14.08-9.6-23.04-9.6z m0 32z m32 355.84v-278.4l112.64 112.64c14.72 14.72 14.72 39.04 0 53.76L554.88 302.72zM236.16 58.879999999999995c-8.32 0-16.64 3.2-22.4 9.6-12.8 12.8-12.8 32.64 0 45.44L394.88 294.4c12.8 12.8 32.64 12.8 45.44 0s12.8-32.64 0-45.44l-181.12-181.12c-6.4-5.76-14.72-8.96-23.04-8.96zM517.76 339.84000000000003c-8.32 0-16.64 3.2-22.4 9.6l-281.6 281.6c-12.8 12.8-12.8 32.64 0 45.44s32.64 12.8 45.44 0l281.6-281.6c12.8-12.8 12.8-32.64 0-45.44-7.04-6.4-14.72-9.6-23.04-9.6z"  horiz-adv-x="1024" />

    
    <glyph glyph-name="location" unicode="&#58921;" d="M510.08 45.440000000000055c-174.72 0-316.8 142.08-316.8 316.8s142.08 316.8 316.8 316.8 316.8-142.08 316.8-316.8c0-17.92-14.08-32-32-32s-32 14.08-32 32c0 139.52-113.28 252.8-252.8 252.8S257.28 501.76 257.28 362.24s113.28-252.8 252.8-252.8c67.84 0 131.2 26.24 179.2 74.24 12.8 12.8 32.64 12.8 45.44 0s12.8-32.64 0-45.44c-60.8-59.52-140.16-92.8-224.64-92.8zM510.08 200.96000000000004c-88.96 0-161.92 72.32-161.92 161.92S420.48 524.8 510.08 524.8C599.04 524.8 672 452.48 672 362.88s-72.96-161.92-161.92-161.92z m0 259.2c-53.76 0-97.92-44.16-97.92-97.92s44.16-97.92 97.92-97.92S608 308.48 608 362.24c-0.64 54.4-44.16 97.92-97.92 97.92zM510.08 631.04c-17.92 0-32 14.08-32 32V750.08c0 17.92 14.08 32 32 32s32-14.08 32-32v-87.68c0-17.28-14.72-31.36-32-31.36zM510.08-46.72000000000003c-17.92 0-32 14.08-32 32v87.68c0 17.92 14.08 32 32 32s32-14.08 32-32v-87.68c0-17.28-14.72-32-32-32zM892.16 330.88h-87.68c-17.92 0-32 14.08-32 32s14.08 32 32 32h87.68c17.92 0 32-14.08 32-32s-14.08-32-32-32zM215.04 330.88H127.36c-17.92 0-32 14.08-32 32s14.08 32 32 32h87.68c17.92 0 32-14.08 32-32s-14.72-32-32-32z"  horiz-adv-x="1024" />

    
    <glyph glyph-name="mark" unicode="&#58922;" d="M730.88-51.84000000000003c-17.92 0-34.56 7.04-48.64 19.84l-158.72 152.32c-10.24 10.24-26.88 9.6-37.12-0.64l-148.48-148.48c-20.48-20.48-50.56-26.24-76.8-15.36-26.24 10.88-43.52 36.48-43.52 65.28V618.24c0 84.48 68.48 152.96 152.96 152.96h278.4c84.48 0 152.96-68.48 152.96-152.96v-599.68c0-28.8-16.64-53.76-42.88-64.64-9.6-3.84-18.56-5.76-28.16-5.76zM568.32 166.39999999999998l158.72-152.32c0.64-0.64 3.2-3.2 7.04-1.28 3.84 1.92 3.84 5.12 3.84 5.76V618.24c0 48.64-39.68 88.96-88.96 88.96H370.56c-48.64 0-88.96-39.68-88.96-88.96v-597.12c0-1.28 0-4.48 3.84-5.76 3.84-1.92 6.4 0.64 7.04 1.28L441.6 165.12c34.56 35.2 91.52 35.2 126.72 1.28z"  horiz-adv-x="1024" />

    
    <glyph glyph-name="label" unicode="&#58923;" d="M670.08 81.27999999999997H248.32c-53.12 0-96.64 43.52-96.64 96.64V535.04c0 53.12 43.52 96.64 96.64 96.64h422.4c37.12 0 71.68-14.08 97.28-40.32l156.16-156.8c41.6-42.24 42.24-110.08 0.64-152.32L768 122.88c-25.6-26.24-61.44-41.6-97.92-41.6zM248.32 568.3199999999999c-17.92 0-32.64-14.72-32.64-32.64v-357.12c0-17.92 14.72-32.64 32.64-32.64h421.76c19.84 0 39.04 8.32 52.48 21.76l156.8 159.36c17.28 17.28 16.64 45.44 0 62.72L723.2 546.56c-14.08 14.08-32.64 21.76-52.48 21.76h-422.4z"  horiz-adv-x="1024" />

    
    <glyph glyph-name="safe" unicode="&#58924;" d="M512.64-0.6399999999999864c-25.6 0-51.84 6.4-75.52 19.2l-143.36 76.8c-46.72 24.96-78.08 71.68-83.2 124.16l-38.4 352c-6.4 62.72 32.64 119.68 93.44 135.68 80 21.12 163.2 32 247.68 32 81.92 0 162.56-10.24 239.36-30.08 60.8-16 100.48-72.96 94.08-135.04l-36.48-355.2c-5.12-52.48-35.84-99.2-82.56-124.16L588.8 18.559999999999945c-23.68-12.8-49.92-19.2-76.16-19.2z m0 675.84c-78.72 0-156.8-10.24-231.04-30.08-30.08-8.32-49.28-36.48-46.08-67.2l38.4-352c3.2-32 21.76-59.52 49.92-74.88l143.36-76.8c28.8-15.36 62.72-15.36 90.88 0.64l138.88 75.52c27.52 15.36 46.08 42.88 49.28 74.24l36.48 355.2c3.2 30.72-17.28 59.52-46.72 67.2-71.68 18.56-146.56 28.16-223.36 28.16zM517.76 200.32000000000005c-34.56 0-62.72 8.32-83.2 24.32-23.68 17.92-37.12 46.08-40.96 82.56-1.28 8.96 1.28 17.92 7.68 24.32 5.12 5.12 11.52 8.96 18.56 9.6h1.28c7.68 0.64 14.72-1.28 20.48-5.76l0.64-0.64c4.48-3.84 9.6-10.24 10.88-21.76 1.92-19.84 8.32-33.92 19.84-43.52 10.24-8.32 24.32-12.16 42.88-12.16 12.16 0 23.04 3.84 34.56 11.52 12.8 8.96 18.56 19.2 18.56 33.28s-3.84 24.32-12.16 31.36c-3.84 3.2-16 12.16-52.48 28.8l-3.84 2.56c-32.64 14.72-54.4 26.88-66.56 37.12-19.84 17.28-30.08 40.96-30.08 69.76 0 31.36 10.88 56.32 32.64 74.24 19.84 16 45.44 24.32 75.52 24.32h6.4c30.08 0 55.68-9.6 76.16-28.8 17.92-17.28 28.8-37.76 30.72-60.8 0.64-9.6-1.92-17.92-7.68-24.32-5.12-5.76-12.16-9.6-20.48-10.88h-1.28c-7.68-0.64-14.72 1.28-20.48 5.12-7.68 5.12-12.16 12.8-12.8 21.76-1.28 12.8-6.4 23.04-15.36 30.08s-19.84 10.88-32.64 10.88c-13.44 0-25.6-3.2-35.2-10.24-8.96-6.4-12.8-13.44-12.8-23.04 0-16 3.2-27.52 8.32-33.92 3.84-4.48 15.36-14.08 49.92-28.8 39.04-16.64 64.64-29.44 76.8-40.32 20.48-16.64 30.72-40.96 30.72-71.68 0-31.36-13.44-57.6-39.04-78.08-23.04-17.92-48-26.88-75.52-26.88zM421.12 310.4z m174.72 163.84z"  horiz-adv-x="1024" />

    
    <glyph glyph-name="visibility" unicode="&#58925;" d="M522.88 83.84000000000003c-164.48 0-321.28 78.72-419.2 211.2-35.2 47.36-35.2 111.36 0 158.72 97.92 131.84 254.72 211.2 419.2 211.2s321.28-78.72 419.2-211.2c35.2-47.36 35.2-111.36 0-158.72-97.92-131.84-254.72-211.2-419.2-211.2z m0 516.48c-146.56 0-280.32-67.2-368-184.96-18.56-24.32-18.56-57.6 0-82.56 87.68-117.76 221.44-184.96 368-184.96s280.32 67.2 368 184.96c18.56 24.32 18.56 57.6 0 82.56-87.68 117.76-221.44 184.96-368 184.96zM518.4 219.51999999999998c-86.4 0-156.8 70.4-156.8 156.8s70.4 156.8 156.8 156.8 156.8-70.4 156.8-156.8-70.4-156.8-156.8-156.8z m0 248.96c-51.2 0-92.8-41.6-92.8-92.8S467.2 283.52 518.4 283.52s92.8 41.6 92.8 92.8S569.6 468.48 518.4 468.48z"  horiz-adv-x="1024" />

    
    <glyph glyph-name="visibilityoff" unicode="&#58926;" d="M836.48 187.51999999999998c-9.6 0-18.56 3.84-24.96 12.16-10.88 14.08-8.96 33.92 5.12 44.8 30.72 24.32 58.24 53.12 81.28 84.48 18.56 24.32 18.56 57.6 0 82.56-87.68 117.76-221.44 184.96-368 184.96-60.16 0-119.04-11.52-174.08-33.92-16.64-7.04-35.2 1.28-41.6 17.28-6.4 16.64 1.28 35.2 17.28 41.6 62.72 25.6 129.92 39.04 198.4 39.04 164.48 0 321.28-78.72 419.2-211.2 35.2-47.36 35.2-111.36 0-158.72-26.88-35.84-57.6-67.84-92.8-96-5.76-5.12-12.8-7.04-19.84-7.04zM529.92 79.36000000000001c-164.48 0-321.28 78.72-419.2 211.2-35.2 47.36-35.2 111.36 0 158.72 21.12 28.8 46.08 55.68 72.96 79.36 13.44 11.52 33.28 10.24 45.44-2.56 11.52-13.44 10.24-33.28-2.56-45.44-23.68-21.12-45.44-44.16-64-69.76-18.56-24.32-18.56-57.6 0-82.56C249.6 211.20000000000005 383.36 143.36 529.92 143.36c60.16 0 119.04 11.52 174.08 34.56 16.64 7.04 35.2-1.28 41.6-17.28 7.04-16.64-1.28-35.2-17.28-41.6-62.72-26.24-129.28-39.68-198.4-39.68zM525.44 215.03999999999996c-86.4 0-156.8 70.4-156.8 156.8 0 17.92 14.08 32 32 32s32-14.08 32-32c0-51.2 41.6-92.8 92.8-92.8 21.76 0 42.24 7.04 58.88 21.12 13.44 11.52 33.92 8.96 44.8-4.48 11.52-13.44 8.96-33.92-4.48-44.8-27.52-23.68-62.72-35.84-99.2-35.84zM650.24 339.20000000000005c-17.92 0-32 14.08-32 32 0 51.2-41.6 92.8-92.8 92.8-20.48 0-40.32-6.4-56.96-19.2a31.744 31.744 0 0 0-44.8 5.76c-10.88 14.08-8.32 33.92 5.76 44.8 27.52 21.76 60.8 32.64 96 32.64 86.4 0 156.8-70.4 156.8-156.8 0-17.28-14.08-32-32-32zM815.36 15.360000000000014c-8.96 0-17.28 3.84-23.68 10.88L197.76 684.8c-11.52 13.44-10.88 33.28 2.56 45.44 13.44 11.52 33.28 10.88 45.44-2.56l593.28-659.2c11.52-13.44 10.88-33.28-2.56-45.44-6.4-5.12-13.44-7.68-21.12-7.68z"  horiz-adv-x="1024" />

    
    <glyph glyph-name="restart" unicode="&#58927;" d="M517.76 589.44c-17.92 0-32 14.08-32 32V734.72c0 17.92 14.08 32 32 32s32-14.08 32-32v-113.28c0-17.92-14.08-32-32-32zM517.76 5.1200000000000045c-17.92 0-32 14.08-32 32v113.28c0 17.92 14.08 32 32 32s32-14.08 32-32v-113.28c0-17.28-14.08-32-32-32zM866.56 353.91999999999996h-113.28c-17.92 0-32 14.08-32 32s14.08 32 32 32h113.28c17.92 0 32-14.08 32-32 0-17.28-14.72-32-32-32zM282.24 353.91999999999996H168.96c-17.92 0-32 14.08-32 32s14.08 32 32 32h113.28c17.92 0 32-14.08 32-32 0-17.28-14.08-32-32-32zM684.16 520.3199999999999c-8.32 0-16.64 3.2-22.4 9.6-12.8 12.8-12.8 32.64 0 45.44l80 80c12.8 12.8 32.64 12.8 45.44 0s12.8-32.64 0-45.44l-80-80c-7.04-6.4-14.72-9.6-23.04-9.6zM271.36 107.51999999999998c-8.32 0-16.64 3.2-22.4 9.6-12.8 12.8-12.8 32.64 0 45.44l80 80c12.8 12.8 32.64 12.8 45.44 0s12.8-32.64 0-45.44L294.4 117.12c-7.04-6.4-15.36-9.6-23.04-9.6zM764.16 107.51999999999998c-8.32 0-16.64 3.2-22.4 9.6l-80 80c-12.8 12.8-12.8 32.64 0 45.44s32.64 12.8 45.44 0l80-80c12.8-12.8 12.8-32.64 0-45.44-6.4-6.4-14.72-9.6-23.04-9.6zM351.36 520.3199999999999c-8.32 0-16.64 3.2-22.4 9.6L248.32 609.9200000000001c-12.8 12.8-12.8 32.64 0 45.44s32.64 12.8 45.44 0l80-80c12.8-12.8 12.8-32.64 0-45.44-5.76-6.4-14.08-9.6-22.4-9.6z"  horiz-adv-x="1024" />

    
    <glyph glyph-name="poweroff" unicode="&#58928;" d="M510.72 15.360000000000014c-188.8 0-343.04 153.6-343.04 343.04 0 118.4 59.52 226.56 160 289.92 14.72 9.6 34.56 5.12 44.16-10.24 9.6-14.72 5.12-34.56-10.24-44.16C280.32 542.72 231.68 454.4 231.68 358.4c0-153.6 124.8-279.04 279.04-279.04S789.12 204.79999999999995 789.12 358.4c0 96-48.64 184.32-129.92 235.52-14.72 9.6-19.2 29.44-10.24 44.16 9.6 14.72 29.44 19.2 44.16 10.24 100.48-63.36 160-171.52 160-289.92 0-188.8-153.6-343.04-342.4-343.04zM510.72 377.6c-17.92 0-32 14.08-32 32V714.24c0 17.92 14.08 32 32 32s32-14.08 32-32V409.6c0-17.92-14.72-32-32-32z"  horiz-adv-x="1024" />

    
    <glyph glyph-name="send" unicode="&#58929;" d="M535.04-65.27999999999997c-20.48 0-39.68 7.68-53.76 21.76L385.92 51.200000000000045c-27.52 27.52-28.8 72.96-2.56 110.72l149.12 233.6c9.6 14.72 29.44 19.2 44.16 9.6 14.72-9.6 19.2-29.44 9.6-44.16l-149.76-234.24c0-0.64-0.64-0.64-0.64-1.28-8.32-12.16-8.96-24.96-4.48-28.8l95.36-95.36c3.84-3.84 10.24-3.2 13.44-1.92 11.52 2.56 26.24 12.16 33.28 28.8l256 632.32c3.2 7.68 2.56 12.8 0.64 14.72-1.92 1.92-7.04 2.56-14.72-0.64l-632.32-256c-16.64-6.4-26.24-21.12-28.8-33.28-0.64-3.84-1.28-10.24 1.92-13.44l104.96-104.96c3.84-3.84 15.36-3.84 27.52 3.2 0.64 0.64 1.92 1.28 2.56 1.28L360.32 307.20000000000005c16 8.32 35.2 1.92 42.88-14.08 8.32-16 1.92-35.2-14.08-42.88l-68.48-35.2c-36.48-22.4-79.36-19.84-105.6 6.4L110.72 327.03999999999996c-17.92 17.92-24.96 44.16-19.84 71.68 7.04 34.56 33.28 65.92 67.2 79.36l632.32 256c30.72 12.8 63.36 7.04 83.84-13.44s26.24-53.12 13.44-83.84l-256-632.32c-13.44-33.92-44.8-60.16-79.36-67.2-5.76-1.92-11.52-2.56-17.28-2.56z"  horiz-adv-x="1024" />

    
    <glyph glyph-name="history" unicode="&#58930;" d="M505.6-20.480000000000018c-92.16 0-183.68 32.64-255.36 97.92-79.36 71.68-123.52 170.24-125.44 277.12-1.28 104.96 41.6 206.72 117.12 279.68 75.52 72.96 179.2 111.36 284.16 105.6 17.92-0.64 31.36-16 30.08-33.92-0.64-17.92-16-31.36-33.92-30.08-88.32 5.12-172.16-26.24-236.16-87.68-63.36-60.8-98.56-145.28-97.28-232.96 1.28-88.96 38.4-170.24 104.32-230.4 113.92-103.68 290.56-108.8 410.24-12.16 77.44 62.72 120.96 155.52 118.4 254.72-0.64 14.72 9.6 28.16 24.32 32 14.72 3.84 29.44-3.2 36.48-16.64l82.56-162.56c7.68-16 1.92-35.2-14.08-42.88-16-7.68-35.2-1.92-42.88 14.08l-34.56 68.48c-20.48-76.8-65.28-145.28-129.28-197.12-69.76-55.04-154.24-83.2-238.72-83.2zM501.76 326.4c-17.92 0-32 14.08-32 32V577.28c0 17.92 14.08 32 32 32s32-14.08 32-32V358.4c0-17.92-14.08-32-32-32zM505.6 326.4c-17.92 0-32 14.08-32 32s14.08 32 32 32h218.88c17.92 0 32-14.08 32-32s-14.08-32-32-32H505.6z"  horiz-adv-x="1024" />

    
    <glyph glyph-name="sad" unicode="&#58931;" d="M513.92-33.27999999999997c-224 0-405.76 182.4-405.76 405.76s182.4 405.76 405.76 405.76c224 0 405.76-182.4 405.76-405.76s-181.76-405.76-405.76-405.76z m0 748.16c-188.8 0-341.76-153.6-341.76-341.76 0-188.8 153.6-341.76 341.76-341.76s341.76 153.6 341.76 341.76-152.96 341.76-341.76 341.76zM668.8 150.39999999999998c-11.52 0-22.4 5.76-28.16 16.64-25.6 46.08-74.24 74.88-126.72 74.88s-101.12-28.8-126.72-74.88c-8.32-15.36-28.16-21.12-43.52-12.16-15.36 8.32-21.12 28.16-12.16 43.52 37.12 66.56 106.88 107.52 183.04 107.52 76.16 0 145.92-41.6 183.04-107.52 8.32-15.36 3.2-35.2-12.16-43.52-5.76-3.2-10.88-4.48-16.64-4.48zM378.24 396.8c-17.92 0-32 14.08-32 32V492.8c0 17.92 14.08 32 32 32s32-14.08 32-32v-64c0-17.28-14.08-32-32-32zM644.48 396.8c-17.92 0-32 14.08-32 32V492.8c0 17.92 14.08 32 32 32s32-14.08 32-32v-64c0-17.28-14.08-32-32-32z"  horiz-adv-x="1024" />

    
    <glyph glyph-name="smile" unicode="&#58932;" d="M531.84-25.600000000000023c-224 0-405.76 182.4-405.76 405.76 0 224 182.4 405.76 405.76 405.76 224 0 405.76-182.4 405.76-405.76S755.84-25.600000000000023 531.84-25.600000000000023z m0 748.16c-188.8 0-341.76-153.6-341.76-341.76 0-188.8 153.6-341.76 341.76-341.76 188.8 0 341.76 153.6 341.76 341.76s-152.96 341.76-341.76 341.76zM531.84 104.96000000000004c-99.84 0-192 54.4-240.64 142.08-8.32 15.36-3.2 35.2 12.16 43.52 15.36 8.32 35.2 3.2 43.52-12.16 37.12-67.2 108.16-108.8 184.96-108.8s147.84 41.6 184.96 108.8c8.32 15.36 28.16 21.12 43.52 12.16 15.36-8.32 21.12-28.16 12.16-43.52-48-87.68-140.8-142.08-240.64-142.08zM396.16 405.12c-17.92 0-32 14.08-32 32v64c0 17.92 14.08 32 32 32s32-14.08 32-32v-64c0-17.92-14.08-32-32-32zM662.4 405.12c-17.92 0-32 14.08-32 32v64c0 17.92 14.08 32 32 32s32-14.08 32-32v-64c0-17.92-14.08-32-32-32z"  horiz-adv-x="1024" />

    
    <glyph glyph-name="remind" unicode="&#58933;" d="M820.48 95.36000000000001c-17.92 0-32 14.08-32 32s14.08 32 32 32c10.24 0 17.92 4.48 19.84 8.96 0.64 1.28 0.64 1.92 0 3.2-7.68 12.16-19.2 16-46.08 23.68-7.68 1.92-16.64 4.48-25.6 7.68-35.2 11.52-58.24 40.32-58.24 72.96V517.12c0 81.92-86.4 147.84-192 147.84S326.4 598.4 326.4 517.12V275.20000000000005c0-32.64-23.04-61.44-58.24-72.96-8.96-3.2-17.92-5.76-25.6-7.68-26.24-7.68-38.4-11.52-46.08-23.68-0.64-1.28-0.64-1.92 0-3.2 2.56-4.48 9.6-8.96 19.84-8.96H640c17.92 0 32-14.08 32-32s-14.08-32-32-32H218.24c-32.64 0-61.44 16-76.16 41.6-12.16 21.12-11.52 46.72 1.28 67.84 21.12 33.92 52.48 42.88 83.2 51.84 7.68 1.92 14.72 4.48 23.04 7.04 8.96 3.2 14.08 8.32 14.08 12.16V517.12c0 117.12 114.56 211.84 256 211.84 140.8 0 256-95.36 256-211.84V275.20000000000005c0-3.84 5.12-8.96 14.08-12.16 7.68-2.56 15.36-4.48 22.4-7.04 30.72-8.32 62.08-17.28 83.2-51.84 12.8-21.12 13.44-46.08 1.28-67.84-14.72-24.96-43.52-40.96-76.16-40.96zM519.04-73.60000000000002c-53.76 0-99.2 38.4-108.16 92.16-2.56 17.28 8.96 33.92 26.24 36.48 17.28 2.56 33.92-8.96 36.48-26.24 3.84-22.4 22.4-38.4 44.8-38.4s41.6 16 44.8 38.4c2.56 17.28 19.2 29.44 36.48 26.24 17.28-2.56 29.44-19.2 26.24-36.48-7.04-53.76-52.48-92.16-106.88-92.16zM543.36 750.72h-48c-17.92 0-32 14.08-32 32s14.08 32 32 32h48c17.92 0 32-14.08 32-32s-14.08-32-32-32z"  horiz-adv-x="1024" />

    
    <glyph glyph-name="remindoff" unicode="&#58934;" d="M661.12 112H216.96c-32.64 0-61.44 16-76.16 41.6-12.16 21.12-11.52 46.72 1.28 67.84 21.12 33.92 52.48 42.88 83.2 51.84 7.68 1.92 14.72 4.48 23.04 7.04 8.96 3.2 14.08 8.32 14.08 12.16V435.2c0 17.92 14.08 32 32 32s32-14.08 32-32v-143.36c0-32.64-23.04-61.44-58.24-72.96-8.96-3.2-17.92-5.76-25.6-7.68-26.24-7.68-38.4-11.52-46.08-23.68-0.64-1.28-0.64-1.92 0-3.2 2.56-4.48 9.6-8.96 19.84-8.96h444.16c17.92 0 32-14.08 32-32s-13.44-31.36-31.36-31.36zM819.2 112c-17.92 0-32 14.08-32 32s14.08 32 32 32c10.24 0 17.92 4.48 19.84 8.96 0.64 1.28 0.64 1.92 0 3.2-7.68 12.16-19.2 16-46.08 23.68-7.68 1.92-16.64 4.48-25.6 7.68-35.2 11.52-58.24 40.32-58.24 72.96V533.12c0 81.92-86.4 147.84-192 147.84-77.44 0-146.56-35.84-177.28-91.52-8.32-15.36-28.16-21.12-43.52-12.8-15.36 8.32-21.12 28.16-12.8 43.52C326.4 696.3199999999999 417.92 745.6 518.4 745.6c140.8 0 256-95.36 256-211.84v-241.92c0-3.84 5.12-8.96 14.08-12.16 7.68-2.56 15.36-4.48 22.4-7.04 30.72-8.32 62.08-17.28 83.2-51.84 12.8-21.12 13.44-46.08 1.28-67.84-14.08-24.96-43.52-40.96-76.16-40.96zM518.4-56.960000000000036c-53.76 0-99.2 38.4-108.16 92.16-2.56 17.28 8.96 33.92 26.24 36.48 17.28 2.56 33.92-8.96 36.48-26.24 3.84-22.4 22.4-38.4 44.8-38.4s41.6 16 44.8 38.4c2.56 17.28 19.2 29.44 36.48 26.24 17.28-2.56 29.44-19.2 26.24-36.48-7.68-53.76-53.12-92.16-106.88-92.16zM542.72 767.36h-48c-17.92 0-32 14.08-32 32s14.08 32 32 32h48c17.92 0 32-14.08 32-32s-14.72-32-32-32zM776.32-25.600000000000023c-9.6 0-19.2 4.48-25.6 12.16l-563.2 727.04c-10.88 14.08-8.32 33.92 5.76 44.8 14.08 10.88 33.92 8.32 44.8-5.76l563.2-727.04c10.88-14.08 8.32-33.92-5.76-44.8-5.12-4.48-12.16-6.4-19.2-6.4z"  horiz-adv-x="1024" />

    
    <glyph glyph-name="forward" unicode="&#58935;" d="M163.84 18.559999999999945c-17.92 0-32 14.08-32 32v556.8c0 33.92 17.28 64 46.72 80.64 29.44 16.64 64 16.64 93.44 0l429.44-248.32c29.44-16.64 46.72-47.36 46.72-80.64 0-33.92-17.28-64-46.72-80.64l-403.2-232.96c-15.36-8.96-34.56-3.84-43.52 11.52-8.96 15.36-3.84 34.56 11.52 43.52l403.2 232.96c13.44 7.68 14.72 20.48 14.72 25.6s-1.28 17.92-14.72 25.6L240 632.96c-13.44 7.68-24.96 2.56-29.44 0-4.48-2.56-14.72-10.24-14.72-25.6v-556.8c0-17.92-14.72-32-32-32zM872.32 11.519999999999982c-17.92 0-32 14.08-32 32V675.84c0 17.92 14.08 32 32 32s32-14.08 32-32v-631.68c0-17.92-14.08-32.64-32-32.64z"  horiz-adv-x="1024" />

    
    <glyph glyph-name="play" unicode="&#58936;" d="M246.4-16.639999999999986c-17.92 0-32 14.08-32 32V664.3199999999999c0 37.12 19.2 71.04 51.84 89.6 32.64 18.56 71.04 18.56 103.68 0L870.4 465.28c32.64-18.56 51.84-51.84 51.84-89.6 0-37.12-19.2-71.04-51.84-89.6l-469.76-271.36c-15.36-8.96-34.56-3.84-43.52 11.52-8.96 15.36-3.84 34.56 11.52 43.52L838.4 341.12c17.92 10.24 19.84 27.52 19.84 33.92 0 7.04-1.92 23.68-19.84 33.92L337.28 698.24c-17.92 10.24-33.28 3.2-39.68 0-5.76-3.2-19.84-13.44-19.84-33.92v-648.96c0.64-17.92-14.08-32-31.36-32z"  horiz-adv-x="1024" />

    
    <glyph glyph-name="stop" unicode="&#58937;" d="M755.2 34.559999999999945c-17.92 0-32 14.08-32 32s14.08 32 32 32c26.88 0 48.64 21.76 48.64 48.64V597.12c0 26.88-21.76 48.64-48.64 48.64H305.28c-26.88 0-48.64-21.76-48.64-48.64V147.20000000000005c0-26.88 21.76-48.64 48.64-48.64h307.84c17.92 0 32-14.08 32-32s-14.08-32-32-32H305.28c-62.08 0-112.64 50.56-112.64 112.64V597.12c0 62.08 50.56 112.64 112.64 112.64H755.2c62.08 0 112.64-50.56 112.64-112.64V147.20000000000005c0-62.08-50.56-112.64-112.64-112.64z"  horiz-adv-x="1024" />

    
    <glyph glyph-name="pause" unicode="&#58938;" d="M327.68 1.2799999999999727c-17.92 0-32 14.08-32 32v659.2c0 17.92 14.08 32 32 32s32-14.08 32-32v-659.2c0-17.92-14.08-32-32-32zM723.84 1.2799999999999727c-17.92 0-32 14.08-32 32v659.2c0 17.92 14.08 32 32 32s32-14.08 32-32v-659.2c0-17.92-14.08-32-32-32z"  horiz-adv-x="1024" />

    
    <glyph glyph-name="backward" unicode="&#58939;" d="M880 28.159999999999968c-17.92 0-32 14.08-32 32v556.8c0 15.36-10.24 23.04-14.72 25.6-4.48 2.56-16 7.68-29.44 0L374.4 394.24c-13.44-7.68-14.72-20.48-14.72-25.6s1.28-17.92 14.72-25.6l403.2-232.96c15.36-8.96 20.48-28.16 11.52-43.52-8.96-15.36-28.16-20.48-43.52-11.52L342.4 288c-29.44 16.64-46.72 47.36-46.72 80.64 0 33.92 17.28 64 46.72 80.64L772.48 697.6c29.44 16.64 64 16.64 93.44 0s46.72-47.36 46.72-80.64v-556.8c-0.64-17.92-14.72-32-32.64-32zM171.52 21.120000000000005c-17.92 0-32 14.08-32 32V684.8c0 17.92 14.08 32 32 32s32-14.08 32-32v-631.68c0-17.92-14.08-32-32-32z"  horiz-adv-x="1024" />

    
    <glyph glyph-name="selectall" unicode="&#58940;" d="M758.4 7.67999999999995H272.64c-63.36 0-115.2 51.84-115.2 115.2V608.64c0 63.36 51.84 115.2 115.2 115.2h491.52c60.16 0 109.44-49.28 109.44-109.44v-30.08c0-17.92-14.08-32-32-32s-32 14.08-32 32V614.4c0 24.96-20.48 45.44-45.44 45.44H272.64c-28.16 0-51.2-23.04-51.2-51.2v-485.76c0-28.16 23.04-51.2 51.2-51.2h485.76c28.16 0 51.2 23.04 51.2 51.2v249.6c0 17.92 14.08 32 32 32s32-14.08 32-32v-249.6c0-63.36-51.84-115.2-115.2-115.2zM464.64 168.32000000000005c-8.32 0-16.64 3.2-22.4 9.6L279.04 341.12c-12.8 12.8-12.8 32.64 0 45.44s32.64 12.8 45.44 0l140.8-140.8 351.36 352.64c12.8 12.8 32.64 12.8 45.44 0s12.8-32.64 0-45.44l-374.4-375.04c-6.4-5.76-14.08-9.6-23.04-9.6z"  horiz-adv-x="1024" />

    
    <glyph glyph-name="volumeoff" unicode="&#58941;" d="M503.68 9.600000000000023c-14.72 0-29.44 3.84-42.24 12.16l-125.44 76.16c-15.36 8.96-19.84 28.8-10.88 44.16 8.96 15.36 28.8 19.84 44.16 10.88L494.72 76.79999999999995c8.32-5.12 15.36-1.92 17.92 0 2.56 1.28 8.96 6.4 8.96 15.36V648.3199999999999c0 9.6-6.4 14.08-8.96 15.36-2.56 1.28-10.24 4.48-17.92 0L305.92 549.12c-5.12-3.2-8.32-8.96-8.32-15.36v-357.12c0-17.92-14.08-32-32-32s-32 14.08-32 32V533.76c0 28.16 15.36 55.04 39.04 69.76l188.8 114.56c25.6 15.36 56.32 16 82.56 1.28s41.6-41.6 41.6-71.04v-557.44c0-30.08-15.36-56.32-41.6-71.04-12.8-7.04-26.24-10.24-40.32-10.24zM262.4 143.36H145.92c-39.04 0-71.04 32-71.04 71.04V517.76c0 39.04 32 71.04 71.04 71.04 17.92 0 32-14.08 32-32s-14.08-32-32-32c-3.84 0-7.04-3.2-7.04-7.04v-303.36c0-3.84 3.2-7.04 7.04-7.04H262.4c17.92 0 32-14.08 32-32s-14.08-32-32-32zM680.96 204.79999999999995c-8.32 0-16.64 3.2-22.4 9.6-12.8 12.8-12.8 32.64 0 45.44l248.96 248.96c12.8 12.8 32.64 12.8 45.44 0s12.8-32.64 0-45.44L704 214.39999999999998c-6.4-6.4-14.72-9.6-23.04-9.6zM929.92 204.79999999999995c-8.32 0-16.64 3.2-22.4 9.6l-60.16 60.16c-12.8 12.8-12.8 32.64 0 45.44s32.64 12.8 45.44 0l60.16-60.16c12.8-12.8 12.8-32.64 0-45.44-6.4-6.4-14.72-9.6-23.04-9.6zM805.76 328.96000000000004c-8.32 0-16.64 3.2-22.4 9.6l-124.8 124.8c-12.8 12.8-12.8 32.64 0 45.44s32.64 12.8 45.44 0L828.8 384c12.8-12.8 12.8-32.64 0-45.44-6.4-6.4-14.72-9.6-23.04-9.6z"  horiz-adv-x="1024" />

    
    <glyph glyph-name="volume" unicode="&#58942;" d="M512.64 14.080000000000041c-14.72 0-29.44 3.84-42.24 12.16L344.32 102.39999999999998c-15.36 8.96-19.84 28.8-10.88 44.16 8.96 15.36 28.8 19.84 44.16 10.88l125.44-76.16c8.32-5.12 15.36-1.92 17.92 0 2.56 1.28 8.96 6.4 8.96 15.36V652.8c0 9.6-6.4 14.08-8.96 15.36-2.56 1.28-10.24 4.48-17.92 0L314.88 553.6c-5.12-3.2-8.32-8.96-8.32-15.36v-357.12c0-17.92-14.08-32-32-32s-32 14.08-32 32V538.24c0 28.16 15.36 55.04 39.04 69.76l188.8 115.2c25.6 15.36 56.32 16 82.56 1.28s41.6-41.6 41.6-71.04V96c0-30.08-15.36-56.32-41.6-71.04-12.8-7.68-26.88-10.88-40.32-10.88zM271.36 147.84000000000003H154.24c-39.04 0-71.04 32-71.04 71.04V522.24c0 39.04 32 71.04 71.04 71.04 17.92 0 32-14.08 32-32s-14.08-32-32-32c-3.84 0-7.04-3.2-7.04-7.04v-303.36c0-3.84 3.2-7.04 7.04-7.04h116.48c17.92 0 32-14.08 32-32s-14.08-32-31.36-32zM833.28 69.75999999999999c-7.68 0-15.36 2.56-21.76 8.32-12.8 12.16-13.44 32-1.92 45.44 60.8 65.28 94.08 149.76 94.08 238.72 0 88.96-33.28 174.08-94.08 238.72-12.16 12.8-11.52 33.28 1.92 45.44 12.8 12.16 33.28 11.52 45.44-1.92 71.68-76.8 111.36-177.28 111.36-282.24s-39.68-205.44-111.36-282.24c-6.4-7.04-14.72-10.24-23.68-10.24zM714.88 187.51999999999998c-7.68 0-14.72 2.56-21.12 7.68-13.44 11.52-14.72 32-3.2 45.44 29.44 33.92 46.08 76.8 46.08 121.6s-16 87.68-46.08 121.6c-11.52 13.44-10.24 33.28 3.2 45.44 13.44 11.52 33.28 10.24 45.44-3.2 39.68-45.44 61.44-103.68 61.44-163.84 0-60.16-21.76-118.4-61.44-163.84-6.4-7.04-15.36-10.88-24.32-10.88z"  horiz-adv-x="1024" />

    
    <glyph glyph-name="annoucement" unicode="&#58943;" d="M733.44-15.360000000000014c-13.44 0-26.88 2.56-39.68 7.68l-246.4 100.48c-39.68 16-64.64 53.76-64.64 96.64V536.3199999999999c0 42.24 25.6 80.64 64.64 96.64l246.4 100.48c32 13.44 68.48 9.6 97.28-10.24 28.8-19.2 46.08-51.84 46.08-86.4v-547.84c0-34.56-17.28-67.2-46.08-86.4-17.28-11.52-37.76-17.92-57.6-17.92z m-15.36 67.2c12.8-5.12 26.24-3.84 37.76 3.84 11.52 7.68 17.92 19.84 17.92 33.28V636.8c0 13.44-6.4 25.6-17.92 33.28s-24.96 8.96-37.76 3.84L471.04 573.44c-15.36-6.4-24.96-21.12-24.96-37.12v-346.24c0-16.64 9.6-31.36 24.96-37.12l247.04-101.12zM325.76 121.60000000000002H245.76c-39.68 0-71.68 32-71.68 71.68V537.6c0 39.68 32 71.68 71.68 71.68h80c17.92 0 32-14.08 32-32s-14.08-32-32-32H245.76c-4.48 0-7.68-3.84-7.68-7.68v-344.32c0-4.48 3.84-7.68 7.68-7.68h80c17.92 0 32-14.08 32-32s-14.72-32-32-32z"  horiz-adv-x="1024" />

    
    <glyph glyph-name="key" unicode="&#58944;" d="M199.68-57.60000000000002h-1.92c-28.8 0.64-55.04 12.16-74.88 32.64-38.4 40.96-36.48 106.88 4.48 147.84l44.16 44.16c-21.12 21.12-32 49.92-30.72 79.36 1.28 29.44 16 57.6 39.04 76.16 35.2 28.16 85.76 30.72 123.52 5.76 5.76-3.84 11.52-8.32 16.64-13.44l106.24 106.24c-47.36 113.28-12.16 245.76 87.04 321.92 98.56 75.52 240 73.6 336-4.48 34.56-28.16 61.44-62.72 78.72-102.4 13.44-30.08 10.24-65.28-7.68-92.8-18.56-28.16-49.92-45.44-83.84-45.44h-0.64c-38.4 0-72.96 23.04-90.24 58.88-3.84 7.68-8.96 14.72-14.72 21.12-14.08 14.08-33.92 22.4-53.76 21.76-20.48 0-39.04-8.32-53.12-23.68-27.52-28.8-26.24-76.8 2.56-104.96 26.88-25.6 69.12-27.52 97.92-4.48 14.08 10.88 33.92 8.96 44.8-5.12 10.88-14.08 8.96-33.92-5.12-44.8-54.4-43.52-132.48-39.68-182.4 8.32-54.4 52.48-56.96 140.16-4.48 195.2 26.24 27.52 60.8 42.88 98.56 43.52 37.76 0.64 72.96-14.08 99.84-40.32 11.52-11.52 21.12-24.96 27.52-39.68 6.4-13.44 18.56-22.4 32.64-22.4 12.16 0 23.68 5.76 30.08 16.64 6.4 9.6 7.68 21.76 2.56 32-13.44 30.72-33.92 56.96-60.8 78.72-72.32 60.16-180.48 62.08-255.36 3.84-81.28-62.08-106.24-172.8-59.52-263.04 6.4-12.16 3.84-27.52-5.76-37.12l-149.76-149.76c-7.68-7.68-19.2-10.88-30.08-8.32-10.88 2.56-19.2 10.24-23.04 21.12-3.2 8.96-8.32 16-16 21.12-14.08 9.6-33.92 8.32-47.36-1.92-8.96-7.68-14.72-17.92-15.36-29.44-0.64-11.52 3.84-23.04 11.52-30.72 4.48-4.48 9.6-7.68 16-9.6 10.24-3.2 18.56-12.16 21.12-23.04 2.56-10.88-0.64-22.4-8.32-30.08L172.8 78.08000000000004c-16.64-16.64-17.92-42.88-3.2-58.88 7.68-8.32 17.92-12.8 28.8-12.8 10.88 0 21.76 3.84 29.44 12.16L544 334.72c9.6 9.6 24.96 12.16 37.12 5.76 81.28-42.24 179.84-26.88 244.48 37.76 12.8 12.8 32.64 12.8 45.44 0s12.8-32.64 0-45.44c-79.36-79.36-195.84-101.76-297.6-59.52l-300.8-300.8c-19.2-19.2-45.44-30.08-72.96-30.08z"  horiz-adv-x="1024" />

    
    <glyph glyph-name="more" unicode="&#58945;" d="M568.96 42.24000000000001c-8.32 0-16.64 3.2-22.4 9.6-12.8 12.8-12.8 32.64 0 45.44l213.12 213.12c10.88 10.88 16.64 25.6 16.64 40.96s-5.76 30.08-16.64 40.96L546.56 604.1600000000001c-12.8 12.8-12.8 32.64 0 45.44s32.64 12.8 45.44 0l213.12-213.12c23.04-23.04 35.84-53.76 35.84-86.4s-12.8-63.36-35.84-86.4l-213.12-213.12c-6.4-5.12-14.72-8.32-23.04-8.32zM293.12 42.24000000000001c-8.32 0-16.64 3.2-22.4 9.6-12.8 12.8-12.8 32.64 0 45.44l213.12 213.12c22.4 22.4 22.4 59.52 0 81.92L270.72 604.1600000000001c-12.8 12.8-12.8 32.64 0 45.44s32.64 12.8 45.44 0l213.12-213.12c47.36-47.36 47.36-124.8 0-172.16L316.16 51.200000000000045c-6.4-5.76-14.72-8.96-23.04-8.96z"  horiz-adv-x="1024" />

    
    <glyph glyph-name="lock" unicode="&#58946;" d="M737.28-32.639999999999986h-460.8c-51.84 0-93.44 42.24-93.44 93.44V302.72c0 51.84 42.24 93.44 93.44 93.44h460.8c51.84 0 93.44-42.24 93.44-93.44v-242.56c0-51.2-42.24-92.8-93.44-92.8zM275.84 332.79999999999995c-16 0-29.44-13.44-29.44-29.44v-242.56c0-16 13.44-29.44 29.44-29.44h460.8c16 0 29.44 13.44 29.44 29.44V302.72c0 16-13.44 29.44-29.44 29.44h-460.8zM259.2 346.24c-17.92 0-32 14.08-32 32V521.6c0 139.52 124.16 253.44 277.12 253.44s277.12-113.92 277.12-253.44c0-17.92-14.08-32-32-32s-32 14.08-32 32c0 104.32-95.36 189.44-213.12 189.44-117.12 0-213.12-85.12-213.12-189.44v-143.36c0-17.92-14.08-32-32-32z"  horiz-adv-x="1024" />

    
    <glyph glyph-name="screenshot" unicode="&#58947;" d="M706.56-39.039999999999964c-17.92 0-32 14.08-32 32V567.6800000000001H166.4c-17.92 0-32 14.08-32 32s14.08 32 32 32h540.16c17.92 0 32-14.08 32-32v-606.72c0-17.92-14.08-32-32-32zM296.96 664.3199999999999c-17.92 0-32 14.08-32 32v45.44c0 17.92 14.08 32 32 32s32-14.08 32-32v-45.44c0-17.92-14.08-32-32-32zM593.92 91.51999999999998H296.96c-17.92 0-32 14.08-32 32V495.36c0 17.92 14.08 32 32 32s32-14.08 32-32v-339.84h264.96c17.92 0 32-14.08 32-32s-14.08-32-32-32zM867.2 91.51999999999998h-59.52c-17.92 0-32 14.08-32 32s14.08 32 32 32h59.52c17.92 0 32-14.08 32-32s-14.08-32-32-32z"  horiz-adv-x="1024" />

    
    <glyph glyph-name="print" unicode="&#58948;" d="M903.04 153.60000000000002c-17.92 0-32 14.08-32 32V372.48c0 68.48-55.68 124.16-124.8 124.16h-454.4c-68.48 0-124.8-55.68-124.8-124.16V185.60000000000002c0-17.92-14.08-32-32-32s-32 14.08-32 32V372.48c0 103.68 84.48 188.16 188.8 188.16h455.04c104.32 0 188.8-84.48 188.8-188.16V185.60000000000002c-0.64-17.92-14.72-32-32.64-32zM679.68-7.67999999999995H358.4c-46.08 0-83.84 37.76-83.84 83.84V298.24c0 17.92 14.08 32 32 32h424.96c17.92 0 32-14.08 32-32v-222.08c0-46.08-37.76-83.84-83.84-83.84zM338.56 266.24v-190.08c0-10.88 8.96-19.84 19.84-19.84h321.28c10.88 0 19.84 8.96 19.84 19.84V266.24H338.56zM731.52 524.8c-17.92 0-32 14.08-32 32V635.52c0 10.88-8.96 19.84-19.84 19.84H358.4c-10.88 0-19.84-8.96-19.84-19.84V556.8c0-17.92-14.08-32-32-32s-32 14.08-32 32V635.52c0 46.08 37.76 83.84 83.84 83.84h321.28c46.08 0 83.84-37.76 83.84-83.84V556.8c0-17.92-14.08-32-32-32zM712.96 410.88m-38.4 0a38.4 38.4 0 1 1 76.8 0 38.4 38.4 0 1 1-76.8 0Z"  horiz-adv-x="1024" />

    
    <glyph glyph-name="clean" unicode="&#58949;" d="M812.8 177.91999999999996H369.92c-17.92 0-32 14.08-32 32s14.08 32 32 32H780.8v31.36c0 14.08-11.52 25.6-25.6 25.6H586.88c-17.92 0-32 14.08-32 32V700.16c0 12.16-10.24 22.4-22.4 22.4s-22.4-10.24-22.4-22.4v-369.28c0-17.92-14.08-32-32-32h-160c-14.08 0-25.6-11.52-25.6-25.6v-63.36c0-17.92-14.08-32-32-32s-32 14.08-32 32v63.36c0 49.28 40.32 89.6 89.6 89.6h128V700.16c0 48 39.04 86.4 86.4 86.4 48 0 86.4-39.04 86.4-86.4v-337.28h135.68c49.28 0 89.6-40.32 89.6-89.6v-63.36c0.64-17.92-14.08-32-31.36-32zM627.2-1.919999999999959c-17.92 0-32 14.08-32 32s14.08 32 32 32c54.4 0 103.04 27.52 131.2 73.6 8.96 15.36 28.8 19.84 44.16 10.88 15.36-8.96 19.84-28.8 10.88-44.16-40.32-65.28-109.44-104.32-186.24-104.32zM631.04-2.5599999999999454H187.52c-24.32 0-45.44 16-52.48 39.04-7.04 23.68 1.92 48.64 23.04 62.08 46.72 30.72 70.4 69.76 70.4 117.76 0 17.92 14.08 32 32 32s32-14.08 32-32c0-60.8-26.24-113.92-76.16-154.24h416c17.92 0 32-14.08 32-32s-15.36-32.64-33.28-32.64z"  horiz-adv-x="1024" />

    
    <glyph glyph-name="language" unicode="&#58950;" d="M517.76-35.200000000000045c-218.24 0-395.52 177.28-395.52 395.52 0.64 217.6 177.92 394.88 395.52 394.88 218.24 0 395.52-177.28 395.52-395.52 0-217.6-177.28-394.88-395.52-394.88z m0 726.4c-182.4 0-331.52-148.48-331.52-331.52 0-182.4 148.48-331.52 331.52-331.52s331.52 148.48 331.52 331.52c0 183.04-148.48 331.52-331.52 331.52zM547.84-23.039999999999964l-41.6 48.64c97.92 83.84 154.24 205.44 154.24 334.08 0 131.2-58.24 254.72-159.36 338.56l40.96 49.28c116.48-96 183.04-237.44 183.04-387.84-1.28-147.2-65.28-286.72-177.28-382.72zM490.88-14.720000000000027a503.4688 503.4688 0 0 0-167.04 374.4c0 149.12 65.92 289.92 180.48 385.92l40.96-49.28C445.44 612.48 387.84 490.24 387.84 359.67999999999995c0-124.16 53.12-243.2 145.28-326.4l-42.24-48zM856.32 441.6H787.2c-17.92 0-32 14.08-32 32s14.08 32 32 32h69.12c17.92 0 32-14.08 32-32s-14.72-32-32-32zM564.48 441.6H465.28c-17.92 0-32 14.08-32 32s14.08 32 32 32h98.56c17.92 0 32-14.08 32-32s-14.08-32-31.36-32zM247.68 441.6H185.6c-17.92 0-32 14.08-32 32s14.08 32 32 32h62.08c17.92 0 32-14.08 32-32s-14.08-32-32-32zM856.32 216.96000000000004h-64.64c-17.92 0-32 14.08-32 32s14.08 32 32 32h64.64c17.92 0 32-14.08 32-32s-14.72-32-32-32zM566.4 216.96000000000004H473.6c-17.92 0-32 14.08-32 32s14.08 32 32 32h92.8c17.92 0 32-14.08 32-32s-14.08-32-32-32zM256 216.96000000000004H185.6c-17.92 0-32 14.08-32 32s14.08 32 32 32h70.4c17.92 0 32-14.08 32-32s-14.08-32-32-32z"  horiz-adv-x="1024" />

    
    <glyph glyph-name="light" unicode="&#58951;" d="M572.8-26.24000000000001H430.08c-69.12 0-126.08 56.32-126.08 126.08v21.12c0 17.92-8.32 35.2-23.04 48C200.32 238.72000000000003 156.8 339.20000000000005 161.28 446.08c7.04 174.08 149.12 319.36 323.2 330.24 96.64 6.4 188.8-26.88 259.2-92.8 69.76-65.28 109.44-157.44 109.44-252.8 0-106.88-48-206.08-131.84-272-14.08-10.88-22.4-28.8-22.4-47.36v-11.52c-0.64-69.12-56.96-126.08-126.08-126.08zM506.88 713.6c-6.4 0-12.16 0-18.56-0.64C346.88 704 231.04 585.6 225.28 443.52c-3.84-87.04 32-168.96 97.92-225.92 28.8-24.96 45.44-60.16 45.44-96.64v-21.12c0-33.92 27.52-62.08 62.08-62.08h142.72c33.92 0 62.08 27.52 62.08 62.08v11.52c0 38.4 17.28 74.24 46.72 97.92 68.48 53.76 107.52 135.04 107.52 221.44 0 78.72-31.36 151.68-88.96 206.08-53.76 49.92-121.6 76.8-193.92 76.8zM618.24 363.52c-36.48 0-54.4 28.8-64.64 46.08-2.56 4.48-7.04 11.52-9.6 14.72-2.56-3.2-7.04-10.24-9.6-14.72-10.24-17.28-28.16-46.08-64.64-46.08-36.48 0-54.4 28.8-64.64 46.08-2.56 4.48-7.04 11.52-9.6 14.72-2.56-3.2-7.04-10.24-9.6-14.72-10.24-17.28-28.16-46.08-64.64-46.08-17.92 0-32 14.08-32 32 0 17.28 14.08 31.36 31.36 32 2.56 2.56 7.68 10.24 10.88 15.36 10.24 17.28 28.16 46.08 64.64 46.08s54.4-28.8 64.64-46.08c2.56-4.48 7.04-11.52 9.6-14.72 2.56 3.2 7.04 10.24 9.6 14.72 10.24 17.28 28.16 46.08 64.64 46.08 36.48 0 54.4-28.8 64.64-46.08 2.56-4.48 7.04-11.52 9.6-14.72 2.56 3.2 7.04 10.24 9.6 14.72 10.24 17.28 28.16 46.08 64.64 46.08 17.92 0 32-14.08 32-32 0-17.28-14.08-31.36-31.36-32-2.56-2.56-7.68-10.24-10.88-15.36-10.24-17.28-27.52-46.08-64.64-46.08z"  horiz-adv-x="1024" />

    
    <glyph glyph-name="flashlight" unicode="&#58952;" d="M594.56-44.15999999999997H422.4c-49.28 0-89.6 40.32-89.6 89.6v206.72c0 26.24-7.68 52.48-22.4 74.24L207.36 482.56c-15.36 23.04-23.04 49.28-23.04 76.8V665.6c0 56.96 46.72 103.68 103.68 103.68h448c56.96 0 103.68-46.72 103.68-103.68v-115.2c0-17.92-14.08-32-32-32s-32 14.08-32 32V665.6c0 21.76-17.92 39.68-39.68 39.68H288c-21.76 0-39.68-17.92-39.68-39.68v-106.24c0-14.72 4.48-29.44 12.16-41.6l103.04-156.8c21.76-32.64 32.64-70.4 32.64-109.44V44.799999999999955c0-14.08 11.52-25.6 25.6-25.6h172.16c14.08 0 25.6 11.52 25.6 25.6v204.8c0 40.32 12.16 79.36 35.2 112.64l56.96 83.2c10.24 14.72 30.08 18.56 44.8 8.32 14.72-10.24 18.56-30.08 8.32-44.8l-56.96-83.2c-15.36-22.4-23.68-49.28-23.68-76.8v-204.8c-0.64-48.64-40.32-88.32-89.6-88.32zM803.2 517.12H344.32c-17.92 0-32 14.08-32 32s14.08 32 32 32h458.24c17.92 0 32-14.08 32-32s-14.08-32-31.36-32zM511.36 85.75999999999999c-17.92 0-32 14.08-32 32V273.91999999999996c0 17.92 14.08 32 32 32s32-14.08 32-32v-156.16c0-17.92-14.08-32-32-32z"  horiz-adv-x="1024" />

    
    <glyph glyph-name="hamburg" unicode="&#58953;" d="M826.88 614.4H202.24c-17.92 0-32 14.08-32 32s14.08 32 32 32h624.64c17.92 0 32-14.08 32-32s-14.08-32-32-32zM826.88 337.91999999999996H202.24c-17.92 0-32 14.08-32 32s14.08 32 32 32h624.64c17.92 0 32-14.08 32-32s-14.08-32-32-32zM826.88 60.799999999999955H202.24c-17.92 0-32 14.08-32 32s14.08 32 32 32h624.64c17.92 0 32-14.08 32-32s-14.08-32-32-32z"  horiz-adv-x="1024" />

    
    <glyph glyph-name="list" unicode="&#58954;" d="M620.8 332.79999999999995H395.52c-17.92 0-32 14.08-32 32s14.08 32 32 32H620.8c17.92 0 32-14.08 32-32s-14.08-32-32-32zM232.32 372.48m-53.76 0a53.76 53.76 0 1 1 107.52 0 53.76 53.76 0 1 1-107.52 0ZM784.64 88.32000000000005H395.52c-17.92 0-32 14.08-32 32s14.08 32 32 32h389.12c17.92 0 32-14.08 32-32s-14.08-32-32-32zM232.32 128m-53.76 0a53.76 53.76 0 1 1 107.52 0 53.76 53.76 0 1 1-107.52 0ZM232.32 616.3199999999999m-53.76 0a53.76 53.76 0 1 1 107.52 0 53.76 53.76 0 1 1-107.52 0ZM887.04 576.64H395.52c-17.92 0-32 14.08-32 32s14.08 32 32 32h491.52c17.92 0 32-14.08 32-32s-14.08-32-32-32z"  horiz-adv-x="1024" />

    
    <glyph glyph-name="help" unicode="&#58955;" d="M527.36-30.08000000000004c-225.92 0-409.6 183.68-409.6 409.6s183.68 409.6 409.6 409.6 409.6-183.68 409.6-409.6-183.68-409.6-409.6-409.6z m0 754.56c-190.72 0-345.6-154.88-345.6-345.6s154.88-345.6 345.6-345.6 345.6 154.88 345.6 345.6-155.52 345.6-345.6 345.6zM524.8 237.44000000000005c-17.92 0-32 14.08-32 32v54.4c0 32 21.76 60.16 53.76 67.84 41.6 10.24 69.76 48.64 67.84 91.52-1.92 46.08-39.68 83.2-85.12 85.12-24.96 1.28-48.64-7.68-66.56-24.96-17.92-17.28-27.52-40.32-27.52-64.64 0-17.92-14.08-32-32-32s-32 14.08-32 32c0 42.24 16.64 81.92 47.36 111.36 30.72 29.44 71.04 44.16 113.28 42.24 78.72-3.84 142.72-67.84 146.56-146.56 3.2-72.96-45.44-138.88-116.48-156.8-2.56-0.64-4.48-2.56-4.48-5.12v-54.4c0-17.92-14.72-32-32.64-32 0.64 0 0.64 0 0 0zM527.36 87.67999999999995c-17.92 0-32 14.08-32 32v31.36c0 17.92 14.08 32 32 32s32-14.08 32-32v-31.36c0-17.28-14.08-32-32-32z"  horiz-adv-x="1024" />

    
    <glyph glyph-name="information" unicode="&#58956;" d="M499.84-16.639999999999986c-215.04 0-390.4 175.36-390.4 390.4s175.36 390.4 390.4 390.4c17.92 0 32-14.08 32-32s-14.08-32-32-32c-179.84 0-326.4-146.56-326.4-326.4s146.56-326.4 326.4-326.4 326.4 146.56 326.4 326.4c0 133.76-80 252.8-204.16 302.72-16.64 6.4-24.32 25.6-17.92 41.6 6.4 16.64 25.6 24.32 41.6 17.92C793.6 675.84 889.6 533.76 889.6 373.76c0.64-215.68-174.08-390.4-389.76-390.4zM499.84 254.72000000000003c-17.92 0-32 14.08-32 32V729.6c0 17.92 14.08 32 32 32s32-14.08 32-32v-443.52c0-17.28-14.08-31.36-32-31.36zM499.84 101.12c-17.92 0-32 14.08-32 32v48c0 17.92 14.08 32 32 32s32-14.08 32-32v-48c0-17.92-14.08-32-32-32z"  horiz-adv-x="1024" />

    
    <glyph glyph-name="forbidden" unicode="&#58957;" d="M524.8-24.960000000000036c-219.52 0-398.08 178.56-398.08 398.08 0 60.8 13.44 119.04 39.68 172.8 7.68 16 26.88 22.4 42.88 14.72 16-7.68 22.4-26.88 14.72-42.88-21.76-45.44-33.28-94.08-33.28-145.28 0-184.32 149.76-334.08 334.08-334.08 90.88 0 176 35.84 239.36 101.12 12.16 12.8 32.64 12.8 45.44 0.64s12.8-32.64 0.64-45.44c-75.52-76.8-177.28-119.68-285.44-119.68zM855.68 183.67999999999995c-4.48 0-9.6 1.28-13.44 3.2-16 7.68-23.04 26.88-15.36 42.88 21.12 44.8 32 93.44 32 143.36 0 184.32-149.76 334.08-334.08 334.08-87.04 0-169.6-33.28-231.68-93.44-12.8-12.16-33.28-12.16-45.44 0.64-12.16 12.8-12.16 33.28 0.64 45.44 74.88 71.68 172.8 111.36 276.48 111.36 219.52 0 398.08-178.56 398.08-398.08 0-59.52-12.8-117.12-38.4-170.88-5.76-11.52-17.28-18.56-28.8-18.56zM785.28 87.03999999999996c-8.32 0-16.64 3.2-22.4 9.6L254.08 605.44c-12.8 12.8-12.8 32.64 0 45.44s32.64 12.8 45.44 0l508.8-508.8c12.8-12.8 12.8-32.64 0-45.44-6.4-6.4-14.72-9.6-23.04-9.6z"  horiz-adv-x="1024" />

    
    <glyph glyph-name="cancel" unicode="&#58958;" d="M512.64-38.39999999999998c-228.48 0-414.72 185.6-414.72 414.72 0 228.48 185.6 414.72 414.72 414.72 110.72 0 214.4-42.88 292.48-120.96 12.8-12.16 12.8-32.64 0-45.44s-32.64-12.8-45.44 0c-65.92 65.92-154.24 102.4-247.68 102.4-193.28 0-350.72-157.44-350.72-350.72S319.36 25.600000000000023 512.64 25.600000000000023s350.72 157.44 350.72 350.72c0 17.92 14.08 32 32 32s32-14.08 32-32c-0.64-228.48-186.24-414.72-414.72-414.72zM331.52 164.48000000000002c-8.32 0-16.64 3.2-22.4 9.6-12.8 12.8-12.8 32.64 0 45.44l448.64 448.64c12.8 12.8 32.64 12.8 45.44 0s12.8-32.64 0-45.44l-448.64-448.64c-6.4-7.04-14.72-9.6-23.04-9.6zM505.6 348.79999999999995c-8.32 0-16.64 3.2-22.4 9.6L309.12 532.48c-12.8 12.8-12.8 32.64 0 45.44s32.64 12.8 45.44 0l174.08-174.08c12.8-12.8 12.8-32.64 0-45.44-7.04-6.4-15.36-9.6-23.04-9.6zM689.92 164.48000000000002c-8.32 0-16.64 3.2-22.4 9.6L574.72 266.88c-12.8 12.8-12.8 32.64 0 45.44s32.64 12.8 45.44 0l92.8-92.8c12.8-12.8 12.8-32.64 0-45.44-6.4-7.04-14.72-9.6-23.04-9.6z"  horiz-adv-x="1024" />

    
    <glyph glyph-name="carrect" unicode="&#58959;" d="M496-26.24000000000001c-220.16 0-399.36 179.2-399.36 399.36s179.2 399.36 399.36 399.36c145.28 0 279.68-79.36 350.08-206.72 8.32-15.36 2.56-35.2-12.8-43.52-15.36-8.32-35.2-2.56-43.52 12.8-58.88 107.52-171.52 174.08-293.76 174.08-184.96 0-335.36-150.4-335.36-335.36S311.04 38.39999999999998 496 38.39999999999998c154.24 0 288 104.32 325.12 253.44 4.48 17.28 21.76 27.52 39.04 23.04 17.28-4.48 27.52-21.76 23.04-39.04-44.16-177.92-203.52-302.08-387.2-302.08zM475.52 186.88c-19.2 0-37.76 7.04-52.48 21.76L283.52 348.79999999999995c-12.8 12.8-12.8 32.64 0 45.44s32.64 12.8 45.44 0l140.16-140.16c3.84-3.84 10.24-3.84 14.08 0l312.32 312.32c12.8 12.8 32.64 12.8 45.44 0s12.8-32.64 0-45.44l-312.32-312.32c-15.36-14.08-33.92-21.76-53.12-21.76z"  horiz-adv-x="1024" />

    
    <glyph glyph-name="edit" unicode="&#58960;" d="M723.2-21.75999999999999H286.72c-65.28 0-118.4 51.2-118.4 113.92V634.24C168.32 697.6 221.44 748.8 286.72 748.8h375.04c17.92 0 32-14.08 32-32s-14.08-32-32-32H286.72c-30.08 0-54.4-22.4-54.4-49.92v-542.08c0-27.52 24.32-49.92 54.4-49.92H723.2c30.08 0 54.4 22.4 54.4 49.92V455.68c0 17.92 14.08 32 32 32s32-14.08 32-32v-363.52c0-62.72-53.12-113.92-118.4-113.92zM499.84 293.76c-7.68 0-14.72 2.56-21.12 7.68-13.44 11.52-14.72 32-3.2 45.44L780.16 697.6c11.52 13.44 32 14.72 45.44 3.2s14.72-32 3.2-45.44L524.16 304.64c-6.4-7.04-15.36-10.88-24.32-10.88z"  horiz-adv-x="1024" />

    
    <glyph glyph-name="pad" unicode="&#58961;" d="M822.4 34.559999999999945H241.92c-80 0-144.64 64.64-144.64 144.64V545.28c0 80 64.64 144.64 144.64 144.64h580.48c80 0 144.64-64.64 144.64-144.64V179.20000000000005c0-80-64.64-144.64-144.64-144.64zM241.92 625.9200000000001c-44.8 0-80.64-36.48-80.64-80.64V179.20000000000005c0-44.8 36.48-80.64 80.64-80.64h580.48c44.8 0 80.64 36.48 80.64 80.64V545.28c0 44.8-36.48 80.64-80.64 80.64H241.92zM817.92 362.24m-42.24 0a42.24 42.24 0 1 1 84.48 0 42.24 42.24 0 1 1-84.48 0Z"  horiz-adv-x="1024" />

    
    <glyph glyph-name="computer" unicode="&#58962;" d="M808.32 147.20000000000005h-563.2c-72.32 0-130.56 58.88-130.56 130.56V618.24c0 72.32 58.88 130.56 130.56 130.56h563.2c72.32 0 130.56-58.88 130.56-130.56v-339.84c0-72.32-58.24-131.2-130.56-131.2z m-563.2 537.6c-36.48 0-66.56-30.08-66.56-66.56v-339.84c0-36.48 30.08-66.56 66.56-66.56h563.2c36.48 0 66.56 30.08 66.56 66.56V618.24c0 36.48-30.08 66.56-66.56 66.56h-563.2zM696.96 30.720000000000027H357.12c-17.92 0-32 14.08-32 32s14.08 32 32 32h339.84c17.92 0 32-14.08 32-32s-14.72-32-32-32zM906.88 271.36H154.24c-17.92 0-32 14.08-32 32s14.08 32 32 32h752.64c17.92 0 32-14.08 32-32s-14.08-32-32-32z"  horiz-adv-x="1024" />

    
    <glyph glyph-name="scan" unicode="&#58963;" d="M780.16 20.480000000000018H652.8c-17.92 0-32 14.08-32 32s14.08 32 32 32h127.36c16 0 29.44 13.44 29.44 29.44v127.36c0 17.92 14.08 32 32 32s32-14.08 32-32v-127.36c-0.64-51.2-42.24-93.44-93.44-93.44zM192.64 480.64c-17.92 0-32 14.08-32 32V640c0 51.2 41.6 93.44 93.44 93.44h127.36c17.92 0 32-14.08 32-32s-14.08-32-32-32h-128c-16 0-29.44-13.44-29.44-29.44v-127.36c0.64-17.92-14.08-32-31.36-32zM840.96 480.64c-17.92 0-32 14.08-32 32V640c0 16-13.44 29.44-29.44 29.44h-127.36c-17.92 0-32 14.08-32 32s14.08 32 32 32h127.36c51.2 0 93.44-41.6 93.44-93.44v-127.36c0-17.92-14.08-32-32-32zM381.44 20.480000000000018h-128c-51.2 0-93.44 41.6-93.44 93.44v127.36c0 17.92 14.08 32 32 32s32-14.08 32-32v-127.36c0-16 13.44-29.44 29.44-29.44h127.36c17.92 0 32-14.08 32-32s-14.08-32-31.36-32zM759.04 342.4H274.56c-17.92 0-32 14.08-32 32s14.08 32 32 32h484.48c17.92 0 32-14.08 32-32s-14.72-32-32-32z"  horiz-adv-x="1024" />

    
    <glyph glyph-name="font" unicode="&#58964;" d="M212.48 1.2799999999999727c-3.84 0-7.68 0.64-11.52 1.92-16.64 6.4-24.32 24.96-17.92 41.6L435.84 691.84c11.52 30.08 40.32 49.92 72.96 49.92 32.64 0 60.8-19.2 72.96-49.28l254.72-646.4c6.4-16.64-1.92-35.2-17.92-41.6-16.64-6.4-35.2 1.92-41.6 17.92l-254.72 646.4c-3.2 7.68-9.6 8.96-13.44 8.96-3.84 0-10.24-1.28-13.44-8.96L242.56 21.75999999999999c-5.12-12.8-17.28-20.48-30.08-20.48zM597.12 221.44000000000005H314.88c-17.92 0-32 14.08-32 32s14.08 32 32 32h282.24c17.92 0 32-14.08 32-32s-14.72-32-32-32z"  horiz-adv-x="1024" />

    
    <glyph glyph-name="phone" unicode="&#58965;" d="M654.72-31.360000000000014H364.16c-87.04 0-158.08 71.04-158.08 158.08V616.96c0 87.04 71.04 158.08 158.08 158.08h290.56c87.04 0 158.08-71.04 158.08-158.08v-490.24c0-87.04-71.04-158.08-158.08-158.08zM364.16 711.6800000000001c-51.84 0-94.08-42.24-94.08-94.08v-490.24c0-51.84 42.24-94.08 94.08-94.08h290.56c51.84 0 94.08 42.24 94.08 94.08V616.96c0 51.84-42.24 94.08-94.08 94.08H364.16zM599.68 103.67999999999995H419.2c-17.92 0-32 14.08-32 32s14.08 32 32 32h181.12c17.92 0 32-14.08 32-32s-14.72-32-32.64-32z"  horiz-adv-x="1024" />

    
    <glyph glyph-name="text" unicode="&#58966;" d="M854.4 498.56c-17.92 0-32 14.08-32 32V609.28c0 14.72-8.96 26.24-17.28 26.24H225.92c-8.32 0-17.28-10.88-17.28-26.24v-78.72c0-17.92-14.08-32-32-32s-32 14.08-32 32V609.28c0 49.92 36.48 90.24 81.28 90.24h579.2c44.8 0 81.28-40.32 81.28-90.24v-78.72c0-17.28-14.72-32-32-32zM515.2 4.480000000000018c-17.92 0-32 14.08-32 32v627.2c0 17.92 14.08 32 32 32s32-14.08 32-32v-627.2c0-17.28-14.08-32-32-32zM626.56-3.2000000000000455H403.84c-17.92 0-32 14.08-32 32s14.08 32 32 32h222.72c17.92 0 32-14.08 32-32s-14.08-32-32-32z"  horiz-adv-x="1024" />

    
    <glyph glyph-name="store" unicode="&#58967;" d="M729.6 334.08000000000004c-42.24 0-81.92 16.64-112 45.44-29.44-28.8-69.76-45.44-112-45.44s-81.92 16.64-112 45.44c-32-30.72-75.52-47.36-120.96-44.8-85.12 4.48-151.68 76.8-151.68 164.48V627.2c0 57.6 47.36 104.96 104.96 104.96h560.64c57.6 0 104.96-47.36 104.96-104.96v-122.24c-0.64-3.2-0.64-7.68-0.64-8.96 0-89.6-72.32-161.92-161.28-161.92zM617.6 462.72c11.52 0 21.76-5.76 27.52-16 17.28-30.08 49.92-48.64 84.48-48.64 53.76 0 97.28 43.52 97.28 97.28 0 4.48 0.64 10.88 0.64 14.08V627.2c0 22.4-18.56 40.96-40.96 40.96H225.92c-22.4 0-40.96-18.56-40.96-40.96v-128c0-53.76 40.32-97.92 91.52-100.48 36.48-1.92 71.04 16.64 89.6 48.64 5.76 9.6 16 16 27.52 16s21.76-5.76 27.52-16c17.28-30.08 49.92-48.64 83.84-48.64 34.56 0 66.56 18.56 83.84 48.64 7.04 9.6 17.28 15.36 28.8 15.36z m241.92 45.44zM472.96-16c-17.92 0-32 14.08-32 32v183.04H337.28c-17.92 0-32 14.08-32 32s14.08 32 32 32h135.68c17.92 0 32-14.08 32-32v-215.04c0-17.28-14.72-32-32-32zM791.68-18.559999999999945H472.32c-17.92 0-32 14.08-32 32s14.08 32 32 32h287.36v206.72c0 17.92 14.08 32 32 32s32-14.08 32-32v-238.72c0-17.28-14.08-32-32-32zM348.16-18.559999999999945h-128c-17.92 0-32 14.08-32 32v238.72c0 17.92 14.08 32 32 32s32-14.08 32-32v-206.72h96c17.92 0 32-14.08 32-32s-14.08-32-32-32z"  horiz-adv-x="1024" />

    
    <glyph glyph-name="brightness" unicode="&#58968;" d="M525.20429037 63.99013924999997c-172.43249778 0-312.24263111 139.81013333-312.24263112 312.24263112 0 172.43249778 139.81013333 312.24263111 312.24263112 312.24263111 172.43249778 0 312.24263111-139.81013333 312.24263111-312.24263111 0-172.43249778-140.5868563-312.24263111-312.24263111-312.24263112z m0 546.81296593C395.49155555 610.80310518 290.63395555 505.16878222 290.63395555 376.23277037s104.8576-234.57033482 234.57033482-234.57033482c128.93601185 0 234.57033482 104.8576 234.57033481 234.57033482 0 128.93601185-105.63432297 234.57033482-234.57033481 234.57033481zM525.20429037 801.10023111m-48.1568237 0a48.1568237 48.1568237 0 1 1 96.31364741 0 48.1568237 48.1568237 0 1 1-96.31364741 0ZM525.20429037-48.634690370000044m-48.1568237 0a48.1568237 48.1568237 0 1 1 96.31364741 0 48.1568237 48.1568237 0 1 1-96.31364741 0ZM100.33682963 376.23277037m-48.15682371 0a48.1568237 48.1568237 0 1 1 96.31364741 0 48.1568237 48.1568237 0 1 1-96.31364741 0ZM949.29502815 376.23277037m-48.1568237 0a48.1568237 48.1568237 0 1 1 96.3136474 0 48.1568237 48.1568237 0 1 1-96.3136474 0ZM825.01935408 676.82455703m-48.15682371 0a48.1568237 48.1568237 0 1 1 96.31364741 0 48.1568237 48.1568237 0 1 1-96.31364741 0ZM224.6125037 75.64098369999999m-48.1568237 0a48.1568237 48.1568237 0 1 1 96.31364741 0 48.1568237 48.1568237 0 1 1-96.31364741 0ZM224.6125037 676.82455703m-48.1568237 0a48.1568237 48.1568237 0 1 1 96.31364741 0 48.1568237 48.1568237 0 1 1-96.31364741 0ZM825.01935408 75.64098369999999m-48.15682371 0a48.1568237 48.1568237 0 1 1 96.31364741 0 48.1568237 48.1568237 0 1 1-96.31364741 0Z"  horiz-adv-x="1024" />

    
    <glyph glyph-name="folder" unicode="&#58969;" d="M796.8-6.399999999999977H240.64c-64.64 0-117.12 52.48-117.12 117.12V489.6c0 14.08 1.92 27.52 6.4 40.96L161.28 633.6c13.44 44.16 53.76 73.6 99.84 73.6h219.52c46.08 0 86.4-29.44 99.84-73.6 5.12-16.64-4.48-34.56-21.12-39.68-16.64-5.12-34.56 4.48-39.68 21.12-5.12 17.28-20.48 28.8-38.4 28.8H261.12c-17.92 0-33.28-11.52-38.4-28.8l-32-103.04c-1.92-7.04-3.2-14.72-3.2-21.76v-378.88c0-29.44 23.68-53.12 53.12-53.12h556.16c29.44 0 53.12 23.68 53.12 53.12V420.48c0 29.44-23.68 53.12-53.12 53.12h-262.4c-17.92 0-32 14.08-32 32s14.08 32 32 32h262.4c64.64 0 117.12-52.48 117.12-117.12v-309.76c0-64-52.48-117.12-117.12-117.12z"  horiz-adv-x="1024" />

    
    <glyph glyph-name="book" unicode="&#58970;" d="M204.8 44.15999999999997c-12.16 0-23.68 3.2-34.56 9.6-19.84 12.16-31.36 33.28-31.36 56.32V584.96c0 24.96 14.08 48 36.48 58.88l31.36 16c85.12 43.52 186.88 43.52 272.64 0.64l51.84-26.24c16-7.68 22.4-26.88 14.08-42.88-7.68-16-26.88-22.4-42.88-14.08l-51.84 26.24c-67.2 33.92-147.84 33.28-215.04-0.64l-31.36-16c-0.64-0.64-1.28-1.28-1.28-1.92v-474.24c0-0.64 0-1.28 1.28-1.92 1.28-0.64 1.92 0 2.56 0 65.92 33.28 141.44 41.6 213.12 23.04 17.28-4.48 27.52-21.76 23.04-39.04-4.48-17.28-21.76-27.52-39.04-23.04-56.32 14.72-116.48 8.32-168.32-17.92-10.24-5.12-20.48-7.68-30.72-7.68zM515.84 23.039999999999964c-5.76 0-11.52 1.92-16.64 4.48-9.6 5.76-15.36 16-15.36 27.52V484.48c0 17.92 14.08 32 32 32s32-14.08 32-32v-378.24l5.76 2.56c85.76 42.88 187.52 42.24 272.64-0.64 0.64 0 1.28-0.64 2.56 0s1.28 1.28 1.28 1.92V584.96c0 0.64-0.64 1.92-1.28 1.92l-31.36 16c-67.2 33.92-147.84 34.56-215.04 0.64l-51.84-26.24c-16-7.68-35.2-1.28-42.88 14.08-7.68 16-1.28 35.2 14.08 42.88l51.84 26.24c85.76 42.88 187.52 42.24 272.64-0.64l31.36-16c22.4-11.52 36.48-33.92 36.48-58.88v-474.24c0-23.04-11.52-44.16-31.36-56.32-19.84-12.16-44.16-13.44-64.64-2.56-67.2 33.92-147.84 34.56-215.04 0.64l-51.84-26.24c-5.76-2.56-10.88-3.2-15.36-3.2z"  horiz-adv-x="1024" />

    
    <glyph glyph-name="shop" unicode="&#58971;" d="M765.44-7.039999999999964H243.2c-28.8 0-56.96 12.16-76.16 33.28-19.84 21.12-29.44 49.92-26.88 78.72l46.72 543.36c4.48 53.76 49.28 94.72 103.04 94.72h428.8c54.4 0 98.56-40.96 103.04-94.72l46.72-543.36c2.56-28.8-7.04-57.6-26.88-78.72-19.2-21.12-46.72-33.28-76.16-33.28zM289.92 679.6800000000001c-20.48 0-37.76-15.36-39.68-35.84l-46.72-543.36c-0.64-10.88 2.56-21.76 10.24-30.08 7.68-8.32 17.92-12.8 29.44-12.8h522.24c11.52 0 21.76 4.48 29.44 12.8s11.52 19.2 10.24 30.08l-46.72 543.36c-1.92 20.48-18.56 35.84-39.68 35.84h-428.8zM504.32 338.55999999999995c-100.48 0-181.76 81.28-181.76 181.76 0 15.36 1.92 31.36 6.4 47.36 4.48 17.28 22.4 26.88 39.04 22.4 17.28-4.48 26.88-22.4 22.4-39.04-2.56-10.24-4.48-20.48-4.48-30.72 0-64.64 53.12-117.76 117.76-117.76s117.76 53.12 117.76 117.76c0 10.24-1.28 20.48-4.48 30.72-4.48 17.28 5.76 34.56 22.4 39.04 17.28 4.48 34.56-5.76 39.04-22.4 4.48-16 6.4-32 6.4-47.36 1.28-99.84-80-181.76-180.48-181.76z"  horiz-adv-x="1024" />

    
    <glyph glyph-name="note" unicode="&#58972;" d="M603.52-48.639999999999986c-17.92 0-32 14.08-32 32v168.96c0 53.76 44.16 97.92 97.92 97.92H780.8V675.84c0 21.76-17.92 39.04-39.04 39.04H288.64c-21.76 0-39.04-17.92-39.04-39.04v-620.8c0-21.76 17.92-39.04 39.04-39.04h158.08c17.92 0 32-14.08 32-32s-14.08-32-32-32H288.64c-56.96 0-103.04 46.08-103.04 103.04v620.8c0 56.96 46.08 103.04 103.04 103.04h453.12c56.96 0 103.04-46.08 103.04-103.04v-457.6c0-17.92-14.08-32-32-32h-143.36c-18.56 0-33.92-15.36-33.92-33.92v-168.96c0-17.28-14.08-32-32-32zM603.52-48.639999999999986c-4.48 0-8.96 0.64-13.44 3.2-11.52 5.12-18.56 16.64-18.56 28.8v168.96c0 53.76 44.16 97.92 97.92 97.92H812.8c17.92 0 32-14.08 32-32s-14.08-32-32-32h-143.36c-18.56 0-33.92-15.36-33.92-33.92v-98.56l101.76 87.68c13.44 11.52 33.28 10.24 45.44-3.2 11.52-13.44 10.24-33.28-3.2-45.44l-154.24-133.76c-6.4-5.12-14.08-7.68-21.76-7.68zM683.52 536.3199999999999H360.32c-17.92 0-32 14.08-32 32s14.08 32 32 32h323.2c17.92 0 32-14.08 32-32s-14.72-32-32-32zM683.52 332.79999999999995H360.32c-17.92 0-32 14.08-32 32s14.08 32 32 32h323.2c17.92 0 32-14.08 32-32s-14.72-32-32-32zM483.84 129.27999999999997H360.32c-17.92 0-32 14.08-32 32s14.08 32 32 32h123.52c17.92 0 32-14.08 32-32s-14.08-32-32-32z"  horiz-adv-x="1024" />

    
    <glyph glyph-name="pen" unicode="&#58973;" d="M387.84 64.63999999999999c-8.32 0-16.64 3.2-22.4 9.6l-144.64 144.64c-12.8 12.8-12.8 32.64 0 45.44l294.4 294.4c12.8 12.8 32.64 12.8 45.44 0s12.8-32.64 0-45.44L288 241.27999999999997l99.2-99.2 339.84 339.84-121.6 121.6c-12.8 12.8-12.8 32.64 0 45.44s32.64 12.8 45.44 0l144.64-144.64c5.76-5.76 9.6-14.08 9.6-22.4s-3.2-16.64-9.6-22.4l-385.28-385.28c-6.4-6.4-14.08-9.6-22.4-9.6zM773.12 449.92c-8.32 0-16.64 3.2-22.4 9.6L605.44 603.52c-12.8 12.8-12.8 32.64 0 45.44L704 747.52c52.48 52.48 137.6 52.48 190.08 0s52.48-137.6 0-190.08c-12.8-12.8-32.64-12.8-45.44 0s-12.8 32.64 0 45.44c27.52 27.52 27.52 72.32 0 99.2-13.44 13.44-30.72 20.48-49.92 20.48s-36.48-7.04-49.92-20.48l-75.52-75.52 122.24-122.24c12.8-12.8 12.8-32.64 0-45.44-5.76-6.4-14.08-8.96-22.4-8.96zM167.68-30.08000000000004c-13.44 0-26.88 5.12-37.12 15.36-15.36 15.36-19.84 38.4-10.88 58.88l92.8 207.36c4.48 9.6 12.8 16.64 23.68 18.56 10.24 1.92 21.12-1.28 28.16-8.96l142.72-143.36c7.68-7.68 10.88-17.92 8.96-28.8-1.92-10.24-8.96-19.2-18.56-23.04L188.8-25.600000000000023c-6.4-2.56-14.08-4.48-21.12-4.48z m83.84 213.12L190.08 44.799999999999955l138.88 60.8-77.44 77.44z"  horiz-adv-x="1024" />

    
    <glyph glyph-name="backup" unicode="&#58974;" d="M716.16 60.15999999999997H497.28c-17.92 0-32 14.08-32 32s14.08 32 32 32h218.88c88.96 0 163.84 70.4 167.04 156.8 1.28 44.8-14.72 87.04-45.44 119.04-30.72 32-72.32 49.92-117.12 49.92-7.68 0-16-0.64-23.68-1.92-25.6-3.84-49.92 13.44-53.76 39.04C627.2 581.76 542.72 648.3199999999999 445.44 640c-87.68-7.04-158.08-75.52-167.68-162.56-3.2-30.08 0-59.52 10.88-87.04 3.84-10.24 2.56-21.76-4.48-30.72-6.4-8.96-17.28-13.44-28.16-12.8h-1.28c-2.56 0-4.48 0.64-7.04 0.64-30.72 0-59.52-12.16-80.64-34.56-21.12-22.4-32-51.84-30.72-82.56 2.56-58.24 54.4-106.24 115.2-106.24H339.2c17.92 0 32-14.08 32-32s-14.08-32-32-32H252.16c-96 0-174.72 73.6-179.2 167.04-2.56 48.64 14.72 94.72 48.64 129.92 26.24 27.52 59.52 45.44 96 51.84-5.12 24.96-5.76 49.92-3.2 76.16 12.8 117.12 108.16 209.28 225.92 218.88 122.88 10.24 235.52-72.96 263.04-191.36 5.76 0.64 12.16 0.64 17.92 0.64 62.08 0 119.68-24.32 163.2-69.12 42.88-44.8 65.28-103.68 63.36-165.76-5.12-120.32-108.8-218.24-231.68-218.24zM496 74.88c-17.92 0-32 14.08-32 32V296.96000000000004l-54.4-46.72c-13.44-11.52-33.92-10.24-45.44 3.2-11.52 13.44-10.24 33.92 3.2 45.44l107.52 92.16c9.6 8.32 23.04 10.24 33.92 5.12 11.52-5.12 18.56-16.64 18.56-28.8v-260.48c0.64-17.92-13.44-32-31.36-32zM622.72 243.20000000000005c-7.04 0-14.08 2.56-20.48 7.04l-42.24 34.56c-13.44 11.52-15.36 31.36-4.48 44.8 11.52 13.44 31.36 15.36 44.8 4.48l42.24-34.56c13.44-11.52 15.36-31.36 4.48-44.8-5.76-7.68-15.36-11.52-24.32-11.52z"  horiz-adv-x="1024" />

    
    <glyph glyph-name="explore" unicode="&#58975;" d="M507.22133333-50.85866667000005c-231.424 0-419.15733333 188.416-419.15733333 419.15733334 0 231.424 188.416 419.15733333 419.15733333 419.15733333 231.424 0 419.15733333-188.416 419.15733334-419.15733333 0-231.424-188.416-419.15733333-419.15733334-419.15733334z m0 770.048c-193.87733333 0-350.89066667-157.696-350.89066666-350.89066666s157.696-350.89066667 350.89066666-350.89066667 350.89066667 157.696 350.89066667 350.89066667-157.696 350.89066667-350.89066667 350.89066666zM353.62133333 90.45333332999996c-6.144 0-12.97066667 2.048-18.432 5.46133334-11.60533333 7.50933333-17.74933333 21.84533333-15.01866666 35.49866666L382.29333333 440.66133333c1.36533333 8.192 6.82666667 15.70133333 13.65333334 21.16266667l256 183.63733333c11.60533333 8.192 26.624 8.87466667 38.22933333 0.68266667 11.60533333-7.50933333 17.74933333-21.84533333 15.01866667-35.49866667l-61.44-309.248c-1.36533333-8.192-6.82666667-16.384-13.65333334-21.16266666l-256.68266666-183.63733334c-6.144-4.096-12.97066667-6.144-19.79733334-6.144z m92.84266667 323.584l-42.32533333-210.944 175.44533333 125.61066667 42.32533333 211.62666667-175.44533333-126.29333334z m163.84-105.81333333zM517.46133333 371.712m-39.59466666 0a39.59466667 39.59466667 0 1 1 79.18933333 0 39.59466667 39.59466667 0 1 1-79.18933333 0Z"  horiz-adv-x="1024" />

    
    <glyph glyph-name="payout" unicode="&#58976;" d="M348.16 29.440000000000055H210.56c-65.28 0-119.04 53.12-119.04 119.04V339.20000000000005c0 17.92 14.08 32 32 32s32-14.08 32-32v-190.72c0-30.08 24.32-55.04 55.04-55.04h137.6c17.92 0 32-14.08 32-32s-14.72-32-32-32zM823.04 29.440000000000055H684.8c-17.92 0-32 14.08-32 32s14.08 32 32 32h138.24c30.08 0 55.04 24.32 55.04 55.04V483.2c0 17.92 14.08 32 32 32s32-14.08 32-32v-334.72c0-65.28-53.76-119.04-119.04-119.04zM123.52 452.48c-17.92 0-32 14.08-32 32v63.36c0 65.28 53.12 119.04 119.04 119.04h612.48c35.2 0 67.84-15.36 90.88-42.24 11.52-13.44 9.6-33.92-3.84-44.8-13.44-11.52-33.92-9.6-44.8 3.84-10.24 12.16-25.6 19.2-41.6 19.2H210.56c-30.08 0-55.04-24.32-55.04-55.04v-63.36c0-17.28-14.08-32-32-32zM908.16 452.48H123.52c-17.92 0-32 14.08-32 32s14.08 32 32 32h784.64c17.92 0 32-14.08 32-32s-14.72-32-32-32zM800.64 310.4H123.52c-17.92 0-32 14.08-32 32s14.08 32 32 32h677.76c17.92 0 32-14.08 32-32s-14.72-32-32.64-32zM503.68 39.67999999999995c-7.68 0-14.72 2.56-21.12 7.68l-107.52 92.8c-13.44 11.52-14.72 32-3.2 45.44 11.52 13.44 32 14.72 45.44 3.2l55.04-47.36V332.79999999999995c0 17.92 14.08 32 32 32s32-14.08 32-32v-261.12c0-12.8-7.04-23.68-18.56-28.8-5.12-1.92-9.6-3.2-14.08-3.2zM588.16 96.63999999999999c-8.96 0-18.56 3.84-24.96 11.52-11.52 13.44-9.6 33.92 4.48 44.8l42.24 34.56c13.44 11.52 33.92 9.6 44.8-4.48 11.52-13.44 9.6-33.92-4.48-44.8l-42.24-34.56c-5.12-4.48-12.16-7.04-19.84-7.04z"  horiz-adv-x="1024" />

    
    <glyph glyph-name="card" unicode="&#58977;" d="M821.12 21.75999999999999H208.64c-65.28 0-119.04 53.12-119.04 119.04V331.52c0 17.92 14.08 32 32 32s32-14.08 32-32V140.79999999999995c0-30.08 24.32-55.04 55.04-55.04h612.48c30.08 0 55.04 24.32 55.04 55.04V475.52c0 17.92 14.08 32 32 32s32-14.08 32-32V140.79999999999995c0-65.28-53.76-119.04-119.04-119.04zM121.6 444.8c-17.92 0-32 14.08-32 32v63.36C89.6 606.0799999999999 142.72 659.2 208.64 659.2h612.48c35.2 0 67.84-15.36 90.88-42.24 11.52-13.44 9.6-33.92-3.84-44.8-13.44-11.52-33.92-9.6-44.8 3.84-10.24 12.16-25.6 19.2-41.6 19.2H208.64c-30.08 0-55.04-24.32-55.04-55.04v-63.36c0-17.28-14.72-32-32-32zM906.24 444.8H121.6c-17.92 0-32 14.08-32 32s14.08 32 32 32h784.64c17.92 0 32-14.08 32-32s-14.72-32-32-32zM798.72 302.72H121.6c-17.92 0-32 14.08-32 32s14.08 32 32 32h677.76c17.92 0 32-14.08 32-32s-14.72-32-32.64-32z"  horiz-adv-x="1024" />

    
    <glyph glyph-name="clock" unicode="&#58978;" d="M514.048-58.36800000000005c-237.568 0-430.08 193.19466667-430.08 430.08 0 237.568 193.19466667 430.08 430.08 430.08 237.568 0 430.08-193.19466667 430.08-430.08s-193.19466667-430.08-430.08-430.08z m0 792.576c-199.33866667 0-361.81333333-162.47466667-361.81333333-361.81333333s162.47466667-361.81333333 361.81333333-361.81333334 361.81333333 162.47466667 361.81333333 361.81333334-162.47466667 361.81333333-361.81333333 361.81333333zM514.048 331.43466666999996c-19.11466667 0-34.13333333 15.01866667-34.13333333 34.13333333V635.904c0 19.11466667 15.01866667 34.13333333 34.13333333 34.13333333s34.13333333-15.01866667 34.13333333-34.13333333v-269.65333333c0-19.11466667-15.01866667-34.816-34.13333333-34.816zM731.136 183.97866667000005c-6.144 0-12.97066667 2.048-18.432 5.46133333l-211.62666667 137.216c-15.70133333 10.24-20.48 31.40266667-10.24 47.104 10.24 15.70133333 31.40266667 20.48 47.104 10.24l211.62666667-137.216c15.70133333-10.24 20.48-31.40266667 10.24-47.104-6.82666667-10.24-17.74933333-15.70133333-28.672-15.70133333z"  horiz-adv-x="1024" />

    
    <glyph glyph-name="identity" unicode="&#58979;" d="M824.32 21.75999999999999H223.36c-64 0-115.84 51.84-115.84 115.84V581.76c0 64 51.84 115.84 115.84 115.84h600.96c64 0 115.84-51.84 115.84-115.84v-444.16c-0.64-63.36-52.48-115.84-115.84-115.84zM223.36 633.6c-28.8 0-51.84-23.04-51.84-51.84v-444.16c0-28.8 23.04-51.84 51.84-51.84h600.96c28.8 0 51.84 23.04 51.84 51.84V581.76c0 28.8-23.04 51.84-51.84 51.84H223.36zM416 302.72H307.84c-48 0-86.4 39.04-86.4 86.4v108.8c0 48 39.04 86.4 86.4 86.4H416c48 0 86.4-39.04 86.4-86.4v-108.16c0-48-38.4-87.04-86.4-87.04z m-108.16 217.6c-12.8 0-22.4-10.24-22.4-22.4v-108.16c0-12.8 10.24-22.4 22.4-22.4H416c12.8 0 22.4 10.24 22.4 22.4V497.92c0 12.8-10.24 22.4-22.4 22.4H307.84zM773.12 397.44h-172.8c-17.92 0-32 14.08-32 32s14.08 32 32 32h172.16c17.92 0 32-14.08 32-32s-14.08-32-31.36-32zM793.6 158.72000000000003H259.2c-17.92 0-32 14.08-32 32s14.08 32 32 32H793.6c17.92 0 32-14.08 32-32s-14.72-32-32-32z"  horiz-adv-x="1024" />

    
    <glyph glyph-name="income" unicode="&#58980;" d="M504.96 42.24000000000001c-17.92 0-32 14.08-32 32V265.6l-55.04-47.36c-13.44-11.52-33.92-10.24-45.44 3.2-11.52 13.44-10.24 33.92 3.2 45.44l107.52 92.8c9.6 8.32 23.04 10.24 33.92 5.12 11.52-5.12 18.56-16.64 18.56-28.8v-261.12c1.28-17.92-13.44-32.64-30.72-32.64zM631.68 211.84000000000003c-7.04 0-14.08 2.56-20.48 7.04l-42.24 34.56c-13.44 11.52-15.36 31.36-4.48 44.8 11.52 13.44 31.36 15.36 44.8 4.48l42.24-34.56c13.44-11.52 15.36-31.36 4.48-44.8-5.76-7.68-15.36-11.52-24.32-11.52zM824.32 33.91999999999996H211.2c-65.28 0-119.04 53.12-119.04 119.04V343.67999999999995c0 17.92 14.08 32 32 32s32-14.08 32-32v-190.72c0-30.08 24.32-55.04 55.04-55.04h612.48c30.08 0 55.04 24.32 55.04 55.04V487.68c0 17.92 14.08 32 32 32s32-14.08 32-32v-334.72c0-65.92-53.12-119.04-118.4-119.04zM124.8 456.96c-17.92 0-32 14.08-32 32v63.36c0 65.28 53.12 119.04 119.04 119.04h612.48c35.2 0 67.84-15.36 90.88-42.24 11.52-13.44 9.6-33.92-3.84-44.8-13.44-11.52-33.92-9.6-44.8 3.84-10.24 12.16-25.6 19.2-41.6 19.2H211.2c-30.08 0-55.04-24.32-55.04-55.04v-63.36c0.64-17.28-14.08-32-31.36-32zM908.8 456.96H124.8c-17.92 0-32 14.08-32 32s14.08 32 32 32H908.8c17.92 0 32-14.08 32-32s-14.08-32-32-32zM360.32 314.88H124.8c-17.92 0-32 14.08-32 32s14.08 32 32 32h235.52c17.92 0 32-14.08 32-32s-14.72-32-32-32zM801.92 314.88h-152.32c-17.92 0-32 14.08-32 32s14.08 32 32 32h152.32c17.92 0 32-14.08 32-32s-14.08-32-32-32z"  horiz-adv-x="1024" />

    
    <glyph glyph-name="alarm" unicode="&#58981;" d="M515.84 32c-192 0-348.16 156.16-348.16 348.16s156.16 348.16 348.16 348.16S864 572.1600000000001 864 380.15999999999997 707.84 32 515.84 32z m0 632.96c-156.8 0-284.16-127.36-284.16-284.16S359.04 96 515.84 96 800 224 800 380.15999999999997s-127.36 284.8-284.16 284.8zM913.92 602.24c-7.68 0-15.36 2.56-21.76 8.32L748.16 742.4c-12.8 12.16-14.08 32-1.92 45.44 12.16 12.8 32 14.08 45.44 1.92l144-131.84c12.8-12.16 14.08-32 1.92-45.44-6.4-7.04-14.72-10.24-23.68-10.24zM130.56 602.88c-8.96 0-17.28 3.2-23.68 10.24-12.16 12.8-10.88 33.28 1.92 45.44l142.72 130.56c12.8 12.16 33.28 10.88 45.44-1.92 12.16-12.8 10.88-33.28-1.92-45.44L152.32 611.2c-6.4-5.76-14.08-8.32-21.76-8.32zM514.56 348.79999999999995c-17.92 0-32 14.72-32 32l1.28 195.2c0 17.28 14.72 32 32 32 17.92 0 32-14.72 32-32l-1.28-194.56c0-18.56-14.72-32.64-32-32.64zM711.04 346.24c-0.64 0-0.64 0 0 0l-196.48 1.28c-17.92 0-32 14.72-32 32s14.72 32 32 32l196.48-1.28c17.92 0 32-14.72 32-32-0.64-17.92-14.72-32-32-32zM805.76-66.55999999999995c-8.32 0-16.64 3.2-23.04 9.6L678.4 50.559999999999945c-12.16 12.8-12.16 32.64 0.64 45.44 12.8 12.16 32.64 12.16 45.44-0.64l104.32-107.52c12.16-12.8 12.16-32.64-0.64-45.44-6.4-6.4-14.72-8.96-22.4-8.96zM238.72-66.55999999999995c-8.32 0-16 3.2-22.4 8.96-12.8 12.16-12.8 32.64-0.64 45.44l103.68 106.88c12.16 12.8 32.64 12.8 45.44 0.64s12.8-32.64 0.64-45.44l-103.68-106.88c-6.4-6.4-14.72-9.6-23.04-9.6z"  horiz-adv-x="1024" />

    
    <glyph glyph-name="close" unicode="&#58982;" d="M805.12 27.519999999999982c-8.32 0-16.64 3.2-22.4 9.6l-210.56 210.56c-12.8 12.8-12.8 32.64 0 45.44s32.64 12.8 45.44 0l210.56-210.56c12.8-12.8 12.8-32.64 0-45.44-6.4-6.4-14.72-9.6-23.04-9.6zM513.28 320c-8.32 0-16.64 3.2-22.4 9.6L201.6 618.24c-12.8 12.8-12.8 32.64 0 45.44s32.64 12.8 45.44 0l289.28-289.28c12.8-12.8 12.8-32.64 0-45.44-6.4-5.76-14.72-8.96-23.04-8.96zM224 27.519999999999982c-8.32 0-16.64 3.2-22.4 9.6-12.8 12.8-12.8 32.64 0 45.44l581.76 581.76c12.8 12.8 32.64 12.8 45.44 0s12.8-32.64 0-45.44l-581.76-581.76c-7.04-6.4-14.72-9.6-23.04-9.6z"  horiz-adv-x="1024" />

    
    <glyph glyph-name="add" unicode="&#58983;" d="M860.8 324.48H638.72c-17.92 0-32 14.08-32 32s14.08 32 32 32h222.08c17.92 0 32-14.08 32-32s-14.08-32-32-32zM512.64 324.48H167.68c-17.92 0-32 14.08-32 32s14.08 32 32 32h344.96c17.92 0 32-14.08 32-32s-14.08-32-32-32zM514.56-21.75999999999999c-17.92 0-32 14.08-32 32V703.36c0 17.92 14.08 32 32 32s32-14.08 32-32v-693.12c0-17.92-14.72-32-32-32z"  horiz-adv-x="1024" />

    
    <glyph glyph-name="call" unicode="&#58984;" d="M834.2 275.4h-170.4c-37.2 0-69.6-22.2-84-53.4-92.4 41.4-168 117-209.4 209.4 31.8 15 54 46.8 54 84.6V685.8c0 51.6-42 93.6-93.6 93.6h-108c-27.6 0-53.4-12.6-71.4-33.6-13.2-16.2-20.4-37.2-20.4-58.2v-88.2c0-43.2 4.8-87 13.8-129.6 50.4-237.6 237-424.2 474.6-474.6 42.6-9 86.4-13.8 130.2-13.8H836c21 0 41.4 7.2 57.6 20.4 21.6 17.4 34.2 43.8 34.2 71.4v108c0 51.6-42 94.2-93.6 94.2z m-85.8-234c-39 0-78.6 4.2-117.6 12.6-214.2 46.2-382.8 214.2-428.4 428.4-8.4 38.4-12.6 78-12.6 117V687.6c0 13.8 13.2 31.8 31.8 31.8h108c18.6 0 33.6-15 33.6-33.6v-170.4c0-18-15-33-33-33h-0.6c-33 0-34.8-24.6-29.4-40.2 0-0.6 0.6-1.8 0.6-1.8 47.4-133.8 155.4-241.2 289.2-288.6 0.6 0 1.8-0.6 2.4-0.6 0.6 0 1.2-0.6 1.8-0.6 1.8-0.6 3.6-0.6 5.4-0.6 1.8 0 3.6 0 5.4 0.6 0.6 0 1.2 0 1.8 0.6 1.2 0 2.4 0.6 3.6 1.2 0.6 0 1.2 0.6 1.8 0.6l3.6 1.8c0.6 0 0.6 0.6 1.2 0.6 1.2 1.2 3 1.8 4.2 3.6 0.6 0.6 0.6 0.6 0.6 1.2 0.6 1.2 1.8 1.8 2.4 3 0.6 0.6 0.6 1.2 1.2 1.8 0.6 1.2 1.2 1.8 1.8 3 0.6 0.6 0.6 1.2 0.6 1.8 0 0.6 0 0.6 0.6 0.6 0 0.6 0 1.2 0.6 1.8 0 1.2 0.6 1.8 0.6 3s0 1.8 0.6 3v3.6c0 18 15 33 33 33h170.4c18.6 0 34.2-15 34.2-34.2v-108c0-9.6-4.2-18.6-12-24.6-4.2-3-10.8-7.2-19.8-7.2h-87.6z"  horiz-adv-x="1024" />

    
    <glyph glyph-name="contact" unicode="&#58985;" d="M812.8-6.399999999999977c-17.92 0-32 14.08-32 32s14.08 32 32 32c8.96 0 16.64 4.48 21.76 11.52 2.56 3.84 7.04 12.16 3.2 22.4-36.48 96-112.64 172.16-209.28 208-16 5.76-27.52 19.84-30.72 37.12-2.56 17.28 3.84 35.2 17.28 46.08 42.24 34.56 65.92 85.76 64.64 140.16-1.92 90.88-74.88 166.4-165.76 170.88-48.64 2.56-94.72-14.72-130.56-48-35.2-33.28-55.04-78.72-55.04-127.36 0-53.12 23.68-103.04 65.28-136.32 13.44-10.88 19.84-28.16 17.28-45.44-2.56-17.28-14.72-31.36-30.72-37.76-96-35.84-172.16-111.36-208.64-207.36-3.84-10.24 0-18.56 3.2-22.4 5.12-7.04 12.8-11.52 21.76-11.52h420.48c17.92 0 32-14.08 32-32s-14.08-32-32-32H195.84c-29.44 0-57.6 14.72-74.24 39.04-16.64 24.32-20.48 54.4-10.24 81.92 40.32 105.6 120.32 190.08 223.36 235.52-44.8 44.8-69.76 104.96-69.76 168.96 0 66.56 26.24 128 74.88 173.44 48 45.44 111.36 69.12 177.92 65.28 124.16-6.4 223.36-108.8 226.56-233.6 1.28-65.92-23.68-128.64-69.76-174.72 102.4-45.44 183.04-129.92 223.36-235.52 10.24-26.88 6.4-57.6-10.24-81.92-17.28-23.68-44.8-38.4-74.88-38.4z"  horiz-adv-x="1024" />

    
    <glyph glyph-name="refresh" unicode="&#58986;" d="M500.39466667-37.20533333000003c-98.304 0-195.92533333 34.816-272.384 104.448C143.36 144.38400000000001 95.57333333 248.832 94.208 362.83733333c-1.36533333 111.95733333 43.69066667 221.184 124.928 298.32533334C299.69066667 738.98666667 410.28266667 779.94666667 522.24 773.80266667c19.11466667-0.68266667 33.45066667-17.06666667 32.08533333-36.18133334-0.68266667-19.11466667-17.06666667-33.45066667-36.18133333-32.08533333C423.936 710.31466667 334.50666667 677.54666667 266.24 612.01066667 198.656 547.15733333 161.10933333 457.04533333 162.47466667 363.52c1.36533333-94.89066667 40.96-181.58933333 111.27466666-245.76 121.51466667-110.592 309.93066667-116.05333333 437.58933334-12.97066667 82.60266667 66.90133333 129.024 165.888 126.29333333 271.70133334-0.68266667 15.70133333 10.24 30.03733333 25.94133333 34.13333333 15.70133333 4.096 31.40266667-3.41333333 38.912-17.74933333l88.064-173.39733334c8.192-17.06666667 2.048-37.54666667-15.01866666-45.73866666-17.06666667-8.192-37.54666667-2.048-45.73866667 15.01866666l-36.864 73.04533334c-21.84533333-81.92-69.632-154.96533333-137.89866667-210.26133334-74.41066667-58.70933333-164.52266667-88.74666667-254.63466666-88.74666666zM496.98133333 332.79999999999995c-19.11466667 0-34.13333333 15.01866667-34.13333333 34.13333333V600.4053333300001c0 19.11466667 15.01866667 34.13333333 34.13333333 34.13333334s34.13333333-15.01866667 34.13333334-34.13333334v-233.472c0-19.11466667-15.70133333-34.13333333-34.13333334-34.13333333zM730.45333333 332.79999999999995H496.98133333c-19.11466667 0-34.13333333 15.01866667-34.13333333 34.13333333s15.01866667 34.13333333 34.13333333 34.13333334H730.45333333c19.11466667 0 34.13333333-15.01866667 34.13333334-34.13333334s-15.70133333-34.13333333-34.13333334-34.13333333z"  horiz-adv-x="1024" />

    
    </font>
</defs>
</svg>
