<svg xmlns="http://www.w3.org/2000/svg" xmlns:xlink="http://www.w3.org/1999/xlink" viewBox="0 0 800 98.67"><defs><style>.cls-1{isolation:isolate;}.cls-2,.cls-3,.cls-5{mix-blend-mode:multiply;}.cls-2{fill:url(#Unbenannter_Verlauf_12);}.cls-3{fill:url(#Unbenannter_Verlauf_12-2);}.cls-4{fill:#fff;opacity:0.62;mix-blend-mode:overlay;}.cls-5{fill:url(#Unbenannter_Verlauf_12-3);}</style><linearGradient id="Unbenannter_Verlauf_12" y1="-525.15" x2="800" y2="-525.15" gradientTransform="translate(800 -475.81) rotate(180)" gradientUnits="userSpaceOnUse"><stop offset="0" stop-color="#0069aa"/><stop offset="1" stop-color="#00e5ff"/></linearGradient><linearGradient id="Unbenannter_Verlauf_12-2" y1="49.34" y2="49.34" gradientTransform="matrix(1, 0, 0, 1, 0, 0)" xlink:href="#Unbenannter_Verlauf_12"/><linearGradient id="Unbenannter_Verlauf_12-3" y1="71.55" y2="71.55" gradientTransform="matrix(1, 0, 0, 1, 0, 0)" xlink:href="#Unbenannter_Verlauf_12"/></defs><title>Asset 1</title><g class="cls-1"><g id="Layer_2" data-name="Layer 2"><g id="Objects"><g id="_Group_" data-name="&lt;Group&gt;"><g id="_Group_2" data-name="&lt;Group&gt;"><path class="cls-2" d="M0,83.11c399-93.3,545,30.85,800,14V26.9s-71.94,68-357.47,6.26S0,14.79,0,14.79Z"/><path class="cls-3" d="M800,15.56c-399,93.3-545-30.85-800-14V71.77s71.94-68,357.47-6.26S800,83.88,800,83.88Z"/><path id="_Path_" data-name="&lt;Path&gt;" class="cls-4" d="M0,1.61v7c255-16.9,401,107.25,800,14v-7C401,108.86,255-15.29,0,1.61Z"/><path id="_Path_2" data-name="&lt;Path&gt;" class="cls-5" d="M0,79.53v3.58c399-93.3,545,30.85,800,14V93.49C545,110.38,399-13.77,0,79.53Z"/></g></g></g></g></g></svg>