<?xml version="1.0" ?><!DOCTYPE svg  PUBLIC '-//W3C//DTD SVG 1.1//EN'  'http://www.w3.org/Graphics/SVG/1.1/DTD/svg11.dtd'><svg height="64px" id="Layer_1" style="enable-background:new 0 0 44 64;" version="1.1" viewBox="0 0 44 64" width="44px" xml:space="preserve" xmlns="http://www.w3.org/2000/svg" xmlns:xlink="http://www.w3.org/1999/xlink"><g id="Ball_2_"><g><circle cx="22" cy="58" r="6" style="fill:#CCA352;"/></g></g><g id="Bell"><g><path d="M40,46c0,0-2-0.04-2-2c0-17.999-10-24-14-24    c0-5.281,4-14,4-14c0-3.313-2.687-6-6-6c-3.314,0-6,2.687-6,6c0,0,4,8.719,4,14c-4,0-14,6.001-14,24c0,1.96-2,2-2,2    c-2.209,0-4,1.791-4,4v4c0,2.209,1.791,4,4,4h36c2.209,0,4-1.791,4-4v-4C44,47.791,42.209,46,40,46z" style="fill-rule:evenodd;clip-rule:evenodd;fill:#FFCC66;"/></g></g><g id="Bow"><g><path d="M4,12c0,2,0,8.125,0,12s2,4,4,4c4,0,12-8,12-8v-4    c0,0-8-8-12-8C6,8,4,8,4,12z M36,8c-4,0-12,8-12,8v4c0,0,8,8,12,8c2,0,4-0.125,4-4s0-10,0-12C40,8,38,8,36,8z" style="fill-rule:evenodd;clip-rule:evenodd;fill:#ED7161;"/></g></g><g id="Knot"><g><path d="M24,14h-4c-1.104,0-2,0.896-2,2v4c0,1.104,0.896,2,2,2h4c1.104,0,2-0.896,2-2v-4    C26,14.896,25.104,14,24,14z" style="fill:#BA594C;"/></g></g><g/><g/><g/><g/><g/><g/><g/><g/><g/><g/><g/><g/><g/><g/><g/></svg>