<svg xmlns="http://www.w3.org/2000/svg" viewBox="0 0 66.71 103.32"><defs><style>.cls-1{fill:#2ecc71;}.cls-2{fill:#6d7fcc;}</style></defs><title>Asset 1</title><g id="Layer_2" data-name="Layer 2"><g id="Objects"><path class="cls-1" d="M33.36,66.71A33.36,33.36,0,1,1,66.71,33.36,33.4,33.4,0,0,1,33.36,66.71Zm0-57A23.65,23.65,0,1,0,57,33.36,23.68,23.68,0,0,0,33.36,9.7Z"/><path class="cls-2" d="M33.36,45.21A11.85,11.85,0,1,1,45.21,33.36,11.86,11.86,0,0,1,33.36,45.21Zm0-14a2.15,2.15,0,1,0,2.15,2.15A2.15,2.15,0,0,0,33.36,31.21Z"/><path class="cls-1" d="M4.52,103.32h0A4.41,4.41,0,0,1,.11,98.91V31H8.93V98.91A4.41,4.41,0,0,1,4.52,103.32Z"/></g></g></svg>