<svg xmlns="http://www.w3.org/2000/svg" xmlns:xlink="http://www.w3.org/1999/xlink" viewBox="0 0 261.35 273.37"><defs><style>.cls-1{isolation:isolate;}.cls-2{opacity:0.7;mix-blend-mode:hard-light;fill:url(#linear-gradient);}.cls-3{fill:url(#linear-gradient-2);}.cls-4{mix-blend-mode:soft-light;fill:url(#linear-gradient-3);}</style><linearGradient id="linear-gradient" x1="307.72" y1="396.89" x2="533.16" y2="396.89" gradientTransform="translate(-48.25) scale(1.05 1)" gradientUnits="userSpaceOnUse"><stop offset="0" stop-color="#73e57b"/><stop offset="0.11" stop-color="#73dc7e"/><stop offset="0.29" stop-color="#73c487"/><stop offset="0.52" stop-color="#739d96"/><stop offset="0.79" stop-color="#7468aa"/><stop offset="1" stop-color="#7437bc"/></linearGradient><linearGradient id="linear-gradient-2" x1="520.04" y1="226.69" x2="302.56" y2="503.66" gradientUnits="userSpaceOnUse"><stop offset="0" stop-color="#fc17f7"/><stop offset="1" stop-color="#1ad99d"/></linearGradient><linearGradient id="linear-gradient-3" x1="258.8" y1="400.88" x2="520.15" y2="400.88" gradientUnits="userSpaceOnUse"><stop offset="0" stop-color="#fac739" stop-opacity="0.7"/><stop offset="0.13" stop-color="#f3c83d" stop-opacity="0.71"/><stop offset="0.28" stop-color="#decb4a" stop-opacity="0.73"/><stop offset="0.45" stop-color="#bccf60" stop-opacity="0.77"/><stop offset="0.62" stop-color="#8cd67d" stop-opacity="0.83"/><stop offset="0.81" stop-color="#4edea4" stop-opacity="0.91"/><stop offset="0.99" stop-color="#04e8d2"/><stop offset="1" stop-color="#00e9d4"/></linearGradient></defs><title>614</title><g class="cls-1"><g id="OBJECTS"><path class="cls-2" d="M509.28,433.88a69.91,69.91,0,0,0-.95-11.45l0,0s-8.27-64-60.67-115.45l0,0a77.89,77.89,0,0,0-112.57,0c-52.25,51.27-60.62,115.07-60.67,115.45a69.69,69.69,0,0,0-.94,11.42c0,31.7,21.34,58.63,51,68.37,0,0,47.09,17.25,122.73,2.73h0C482.54,498.87,509.28,469.36,509.28,433.88Z" transform="translate(-258.8 -258.96)"/><path class="cls-3" d="M455.08,261a50.27,50.27,0,0,0-10.48-1.75h0s-59.54-6.38-121.9,40.81h0c-17.53,12.17-32.18,32.84-39.29,58.4s-5.24,50.8,3.47,70.26c29,72.39,83,97.74,83.32,97.89a50.42,50.42,0,0,0,9.85,3.9c28.17,7.84,58.89-9.9,77-41.43,0,0,30.31-49.56,41.45-139.61h0C504.35,307.64,486.62,269.78,455.08,261Z" transform="translate(-258.8 -258.96)"/><path class="cls-4" d="M499.27,502.11a51.73,51.73,0,0,0,5.66-9.37v0s28.74-54.59,7.26-132.24v0c-5-21.41-19.21-43.29-41-59.82s-46.65-24.33-68.59-23.38c-80.33.21-125.14,42.33-125.4,42.57a52,52,0,0,0-7.48,7.95c-18.21,24-12.9,60.15,10.4,89.47,0,0,35.94,47.86,117.92,92.75h0C435.89,531.56,478.88,529,499.27,502.11Z" transform="translate(-258.8 -258.96)"/><text x="-258.8" y="-258.96"></text><text x="-258.8" y="-258.96"></text></g></g></svg>