<?xml version="1.0" standalone="no"?>
<!DOCTYPE svg PUBLIC "-//W3C//DTD SVG 1.1//EN" "http://www.w3.org/Graphics/SVG/1.1/DTD/svg11.dtd" >
<!--
2013-9-30: Created.
-->
<svg>
<metadata>
Created by iconfont
</metadata>
<defs>

<font id="iconfont" horiz-adv-x="1024" >
  <font-face
    font-family="iconfont"
    font-weight="500"
    font-stretch="normal"
    units-per-em="1024"
    ascent="896"
    descent="-128"
  />
    <missing-glyph />
    
    <glyph glyph-name="telephone" unicode="&#58881;" d="M665.6 896 358.4 896c-69.12 0-122.88-56.32-122.88-122.88l0-778.24c0-69.12 56.32-122.88 122.88-122.88l307.2 0c69.12 0 122.88 56.32 122.88 122.88L788.48 773.12C788.48 839.68 734.72 896 665.6 896zM737.28-5.12c0-40.96-33.28-71.68-71.68-71.68L358.4-76.8c-40.96 0-71.68 33.28-71.68 71.68l0 38.4 453.12 0L739.84-5.12zM737.28 84.48 286.72 84.48l0 614.4 453.12 0L739.84 84.48zM737.28 747.52 286.72 747.52 286.72 773.12C286.72 811.52 317.44 844.8 358.4 844.8l307.2 0c40.96 0 71.68-33.28 71.68-71.68L737.28 747.52zM512-30.72m-25.6 0a1 1 0 1 0 51.2 0 1 1 0 1 0-51.2 0Z"  horiz-adv-x="1024" />

    
    <glyph glyph-name="password" unicode="&#58883;" d="M819.2 504.32l-12.8 0 0 120.32C793.6 775.68 668.16 896 512 896S230.4 775.68 217.6 624.64l0-120.32L204.8 504.32c-56.32 0-104.96-46.08-104.96-104.96l0-424.96C99.84-81.92 145.92-128 204.8-128L819.2-128c56.32 0 104.96 46.08 104.96 104.96L924.16 401.92C924.16 458.24 878.08 504.32 819.2 504.32zM268.8 624.64C279.04 747.52 384 844.8 512 844.8s232.96-97.28 243.2-220.16l0-120.32L266.24 504.32 268.8 624.64zM872.96-23.04c0-28.16-23.04-53.76-53.76-53.76L204.8-76.8c-28.16 0-53.76 23.04-53.76 53.76L151.04 401.92c0 28.16 23.04 53.76 53.76 53.76l12.8 0 51.2 0 488.96 0 51.2 0L819.2 455.68c28.16 0 53.76-23.04 53.76-53.76L872.96-23.04zM509.44 330.24c-46.08 0-84.48-38.4-84.48-84.48 0-28.16 15.36-56.32 38.4-69.12L463.36 102.4c0-25.6 20.48-46.08 46.08-46.08s46.08 20.48 46.08 46.08l0 71.68c23.04 15.36 38.4 40.96 38.4 69.12C593.92 291.84 558.08 330.24 509.44 330.24zM532.48 192l0-25.6c0 0 0 0 2.56 0l-2.56 0L532.48 102.4c0-10.24-10.24-20.48-20.48-20.48s-20.48 10.24-20.48 20.48l0 61.44 0 0 0 25.6c-23.04 7.68-38.4 30.72-38.4 53.76 0 33.28 25.6 58.88 58.88 58.88s58.88-25.6 58.88-58.88C568.32 220.16 552.96 199.68 532.48 192z"  horiz-adv-x="1024" />

    
    <glyph glyph-name="remind" unicode="&#58884;" d="M859.291771 186.094763l-33.197007 0L826.094763 408.259352c0 168.538653-130.234414 308.987531-296.219451 321.755611L529.875312 870.46384c0 15.321696-10.214464 25.53616-25.53616 25.53616s-25.53616-10.214464-25.53616-25.53616l0-137.895262C310.264339 719.800499 180.029925 579.351621 180.029925 408.259352l0 0 0-81.715711c0-15.321696 10.214464-25.53616 25.53616-25.53616 15.321696 0 25.53616 10.214464 25.53616 25.53616 0 0 0 81.715711 0 81.715711l0 0c0 150.663342 122.573566 273.236908 273.236908 273.236908 150.663342 0 273.236908-122.573566 273.236908-273.236908l0-247.700748 0 0c0 0 0 0 0 0 0-15.321696 10.214464-25.53616 25.53616-25.53616l0 0 58.733167 0c20.428928 0 38.304239-17.875312 38.304239-38.304239s-17.875312-38.304239-38.304239-38.304239L149.386534 58.413965c-20.428928 0-38.304239 17.875312-38.304239 38.304239s17.875312 38.304239 38.304239 38.304239L231.102244 135.022444c15.321696 0 25.53616 10.214464 25.53616 25.53616s-10.214464 25.53616-25.53616 25.53616l-81.715711 0c-48.518703 0-86.822943-40.857855-86.822943-89.376559 0-48.518703 40.857855-89.376559 89.376559-89.376559l204.289277 0c10.214464-76.608479 74.054863-135.341646 153.216958-135.341646 79.162095 0 143.002494 58.733167 153.216958 135.341646l199.182045 0c48.518703 0 89.376559 40.857855 89.376559 89.376559S910.36409 186.094763 859.291771 186.094763zM506.892768-74.374065c-51.072319 0-91.930175 35.750623-102.144638 84.269327l201.735661 0C598.822943-38.623441 557.965087-74.374065 506.892768-74.374065z"  horiz-adv-x="1024" />

    
    <glyph glyph-name="walk" unicode="&#58885;" d="M307.2 808.96c15.36 0 25.6-12.8 25.6-25.6 0-15.36-12.8-25.6-25.6-25.6s-25.6 12.8-25.6 25.6C281.6 798.72 294.4 808.96 307.2 808.96M307.2 860.16c-43.52 0-76.8-35.84-76.8-76.8 0-43.52 35.84-76.8 76.8-76.8s76.8 35.84 76.8 76.8C386.56 826.88 350.72 860.16 307.2 860.16L307.2 860.16zM476.16 842.24c5.12 0 10.24-5.12 10.24-10.24s-5.12-10.24-10.24-10.24-10.24 5.12-10.24 10.24S471.04 842.24 476.16 842.24M476.16 893.44c-33.28 0-61.44-28.16-61.44-61.44s28.16-61.44 61.44-61.44S537.6 798.72 537.6 832 509.44 893.44 476.16 893.44L476.16 893.44zM629.76 883.2c-25.6 0-48.64-20.48-48.64-48.64s20.48-48.64 48.64-48.64 48.64 20.48 48.64 48.64S657.92 883.2 629.76 883.2L629.76 883.2zM780.8 839.68c-25.6 0-48.64-20.48-48.64-48.64s20.48-48.64 48.64-48.64 48.64 20.48 48.64 48.64S806.4 839.68 780.8 839.68L780.8 839.68zM573.44 670.72c99.84 0 204.8-58.88 256-143.36 17.92-30.72 30.72-64 38.4-104.96 5.12-20.48 5.12-40.96 7.68-64 2.56-20.48 2.56-40.96 5.12-61.44 5.12-23.04 15.36-43.52 25.6-58.88 2.56-5.12 5.12-7.68 7.68-12.8 5.12-10.24 12.8-25.6 20.48-40.96 10.24-20.48 15.36-35.84 20.48-51.2 2.56-10.24 5.12-20.48 7.68-33.28l2.56-15.36c10.24-40.96-2.56-125.44-69.12-153.6-12.8-5.12-25.6-5.12-38.4-5.12-23.04 0-43.52 5.12-61.44 17.92-28.16 20.48-40.96 56.32-53.76 99.84-2.56 10.24-5.12 20.48-10.24 28.16-2.56 5.12-2.56 12.8-5.12 17.92-5.12 23.04-12.8 51.2-30.72 74.24 0 0 0 0-2.56 2.56-51.2 61.44-130.56 71.68-163.84 71.68-38.4 2.56-71.68 10.24-97.28 23.04-33.28 15.36-58.88 43.52-76.8 76.8-40.96 79.36-53.76 217.6 43.52 276.48 30.72 17.92 69.12 38.4 110.08 48.64C537.6 668.16 555.52 670.72 573.44 670.72M573.44 721.92c-23.04 0-46.08-2.56-69.12-7.68-43.52-10.24-84.48-30.72-122.88-53.76-120.32-71.68-117.76-235.52-64-343.04 20.48-43.52 56.32-79.36 99.84-99.84 35.84-17.92 76.8-25.6 117.76-28.16 5.12 0 84.48-2.56 128-53.76 15.36-20.48 20.48-53.76 28.16-76.8 17.92-56.32 30.72-120.32 81.92-156.16 25.6-17.92 58.88-25.6 89.6-25.6 17.92 0 38.4 2.56 56.32 10.24 94.72 38.4 115.2 153.6 99.84 212.48-5.12 15.36-7.68 33.28-12.8 48.64-5.12 20.48-15.36 40.96-23.04 58.88-7.68 15.36-15.36 28.16-23.04 43.52-10.24 17.92-23.04 35.84-28.16 53.76-7.68 43.52-5.12 84.48-15.36 128-10.24 40.96-23.04 81.92-46.08 120.32C814.08 652.8 691.2 721.92 573.44 721.92L573.44 721.92zM192 729.6C186.88 732.16 181.76 737.28 174.08 737.28c-5.12 0-10.24-2.56-15.36-5.12C153.6 727.04 151.04 721.92 148.48 716.8 148.48 709.12 148.48 701.44 153.6 696.32 156.16 691.2 161.28 686.08 166.4 683.52 168.96 678.4 174.08 673.28 176.64 665.6 179.2 660.48 179.2 652.8 179.2 647.68c2.56-35.84-28.16-69.12-64-69.12C79.36 578.56 51.2 606.72 51.2 642.56 51.2 665.6 64 688.64 84.48 698.88c7.68 5.12 17.92 5.12 25.6 10.24 7.68 5.12 12.8 12.8 12.8 20.48 0 15.36-10.24 25.6-25.6 25.6-2.56 0-5.12 0-5.12 0C40.96 744.96 0 698.88 0 642.56c0-64 51.2-115.2 115.2-115.2s115.2 51.2 115.2 115.2c0 20.48-5.12 38.4-15.36 56.32C212.48 706.56 202.24 719.36 192 729.6z"  horiz-adv-x="1024" />

    
    <glyph glyph-name="test" unicode="&#58886;" d="M716.8 896 307.2 896C138.24 896 0 757.76 0 588.8l0-69.12 0 0c0 0 0 0 0 0 0-15.36 10.24-25.6 25.6-25.6 15.36 0 25.6 10.24 25.6 25.6 0 0 0 0 0 0l0 0L51.2 588.8C51.2 729.6 166.4 844.8 307.2 844.8L716.8 844.8c140.8 0 256-115.2 256-256L972.8 179.2c0-140.8-115.2-256-256-256L307.2-76.8C166.4-76.8 51.2 38.4 51.2 179.2l0 128 166.4 0c10.24 0 17.92 5.12 23.04 15.36l38.4 81.92 120.32-284.16c5.12-10.24 12.8-15.36 23.04-15.36 0 0 0 0 0 0 10.24 0 20.48 7.68 23.04 17.92l145.92 427.52 69.12-225.28c2.56-10.24 12.8-17.92 25.6-17.92l230.4 0c15.36 0 25.6 10.24 25.6 25.6s-10.24 25.6-25.6 25.6l-209.92 0-87.04 281.6c-2.56 10.24-12.8 17.92-23.04 17.92 0 0 0 0 0 0-10.24 0-20.48-7.68-23.04-17.92L419.84 204.8l-117.76 276.48c-5.12 10.24-12.8 15.36-23.04 15.36-10.24 0-20.48-5.12-23.04-15.36l-53.76-120.32-199.68 0 0-179.2c0-171.52 138.24-307.2 307.2-307.2L716.8-125.44c171.52 0 307.2 138.24 307.2 307.2L1024 588.8C1024 757.76 885.76 896 716.8 896z"  horiz-adv-x="1024" />

    
    <glyph glyph-name="massage" unicode="&#58887;" d="M888.32 737.28a1.5 1.9 0 1 0 76.8 0 1.5 1.9 0 1 0-76.8 0ZM683.52 394.24c-10.24-17.92-10.24-46.08-10.24-51.2 0-12.8 12.8-25.6 25.6-25.6 15.36 0 25.6 12.8 25.6 25.6 0 7.68 0 20.48 2.56 28.16 2.56 2.56 5.12 7.68 10.24 12.8 20.48 25.6 40.96 56.32 38.4 87.04 0 7.68 0 15.36-2.56 23.04-7.68 23.04-20.48 40.96-35.84 61.44-5.12 5.12-7.68 10.24-10.24 12.8-2.56 5.12-5.12 20.48-5.12 28.16 0 15.36-10.24 25.6-25.6 25.6-12.8 0-25.6-10.24-25.6-25.6 0-5.12 0-33.28 10.24-51.2 2.56-5.12 7.68-12.8 15.36-20.48 10.24-15.36 25.6-30.72 28.16-48.64 2.56-20.48-25.6-56.32-28.16-58.88C693.76 407.04 688.64 399.36 683.52 394.24zM793.6 394.24c-10.24-17.92-10.24-46.08-10.24-51.2 0-12.8 12.8-25.6 25.6-25.6 15.36 0 25.6 12.8 25.6 25.6 0 7.68 0 20.48 2.56 28.16 2.56 2.56 5.12 7.68 10.24 12.8 17.92 25.6 38.4 53.76 38.4 84.48 0 33.28-20.48 61.44-38.4 84.48-5.12 5.12-7.68 10.24-10.24 12.8-2.56 5.12-5.12 20.48-5.12 28.16 0 15.36-10.24 25.6-25.6 25.6-12.8 0-25.6-10.24-25.6-25.6 0-5.12 0-33.28 10.24-51.2 10.24-20.48 28.16-35.84 38.4-56.32 12.8-28.16-7.68-51.2-23.04-74.24C801.28 407.04 796.16 401.92 793.6 394.24zM555.52 122.88 0 122.88l0-51.2 555.52 0 0 0c20.48 0 38.4-17.92 38.4-38.4s-17.92-38.4-38.4-38.4l0 0L0-5.12l0-51.2 555.52 0 0 0c48.64 0 89.6 40.96 89.6 89.6S604.16 122.88 555.52 122.88zM844.8 268.8c-99.84 0-179.2-79.36-179.2-179.2s79.36-179.2 179.2-179.2 179.2 79.36 179.2 179.2S944.64 268.8 844.8 268.8zM844.8-38.4c-71.68 0-128 56.32-128 128 0 71.68 56.32 128 128 128 71.68 0 128-56.32 128-128C972.8 20.48 916.48-38.4 844.8-38.4zM435.2 499.2c99.84 0 179.2 79.36 179.2 179.2s-79.36 179.2-179.2 179.2c-99.84 0-179.2-79.36-179.2-179.2S337.92 499.2 435.2 499.2zM435.2 806.4c71.68 0 128-56.32 128-128 0-71.68-56.32-128-128-128-71.68 0-128 56.32-128 128C307.2 747.52 366.08 806.4 435.2 806.4zM258.56 437.76l7.68 7.68 0 0c7.68 7.68 17.92 12.8 28.16 12.8 7.68 0 15.36-2.56 23.04-7.68l69.12-69.12 92.16-92.16c0 0 5.12-7.68 17.92-7.68 0 0 58.88 0 58.88 0l0 0c20.48 0 38.4-17.92 38.4-38.4S576 204.8 555.52 204.8l-99.84 0-145.92 145.92c-10.24 10.24-25.6 10.24-35.84 0l-148.48-148.48c-10.24-10.24-10.24-25.6 0-35.84s25.6-10.24 35.84 0l130.56 130.56 133.12-133.12 0 0c5.12-5.12 10.24-7.68 17.92-7.68l0 0 0 0 23.04 0 87.04 0c48.64 0 89.6 40.96 89.6 89.6s-40.96 89.6-89.6 89.6l0 0-48.64 0-151.04 151.04 0 0c-15.36 15.36-38.4 25.6-61.44 25.6-28.16 0-53.76-12.8-69.12-33.28 0 0-2.56 0-2.56-2.56L0 250.88l0-71.68L258.56 437.76C256 435.2 258.56 435.2 258.56 437.76z"  horiz-adv-x="1024" />

    
    <glyph glyph-name="takephoto" unicode="&#58889;" d="M875.52 576C875.52 576 875.52 576 875.52 576L875.52 576l-66.56 0c-15.36 0-25.6-10.24-25.6-25.6s10.24-25.6 25.6-25.6l66.56 0 0 0c0 0 0 0 0 0 15.36 0 25.6 10.24 25.6 25.6S888.32 576 875.52 576zM506.88 570.88c-128 0-232.96-104.96-232.96-232.96 0-128 104.96-232.96 232.96-232.96 128 0 232.96 104.96 232.96 232.96C739.84 465.92 634.88 570.88 506.88 570.88zM506.88 158.72c-99.84 0-181.76 81.92-181.76 181.76 0 99.84 81.92 181.76 181.76 181.76 99.84 0 181.76-81.92 181.76-181.76C688.64 238.08 606.72 158.72 506.88 158.72zM924.16 698.88l-125.44 0c-17.92 79.36-46.08 102.4-51.2 104.96l0 0c-5.12 2.56-10.24 5.12-15.36 5.12L289.28 808.96c-5.12 0-10.24-2.56-15.36-5.12l0 0c-5.12-5.12-33.28-28.16-51.2-104.96L99.84 698.88C46.08 698.88 0 652.8 0 596.48l0-537.6c0-56.32 46.08-99.84 99.84-99.84l821.76 0c56.32 0 99.84 46.08 99.84 99.84l0 537.6C1024 652.8 977.92 698.88 924.16 698.88zM302.08 760.32l417.28 0c5.12-5.12 15.36-23.04 25.6-61.44L276.48 698.88C286.72 737.28 296.96 755.2 302.08 760.32zM972.8 58.88c0-28.16-23.04-48.64-48.64-48.64L99.84 10.24c-28.16 0-48.64 23.04-48.64 48.64l0 537.6c0 28.16 23.04 48.64 48.64 48.64l821.76 0c28.16 0 48.64-23.04 48.64-48.64L970.24 58.88z"  horiz-adv-x="1024" />

    
    <glyph glyph-name="talk" unicode="&#58890;" d="M326.124288 760.32C231.404288 760.32 154.604288 683.52 154.604288 588.8s76.8-171.52 171.52-171.52 171.52 76.8 171.52 171.52S420.844288 760.32 326.124288 760.32zM326.124288 465.92C259.564288 465.92 205.804288 522.24 205.804288 588.8s53.76 120.32 120.32 120.32 120.32-53.76 120.32-120.32S392.684288 465.92 326.124288 465.92zM387.564288 389.12c-5.12 2.56-120.32 38.4-230.4-23.04-76.8-43.52-130.56-122.88-156.16-235.52-2.56-7.68 0-15.36 5.12-23.04C11.244288 102.4 18.924288 97.28 26.604288 97.28l309.76 0c15.36 0 25.6 10.24 25.6 25.6s-10.24 25.6-25.6 25.6L59.884288 148.48c25.6 81.92 66.56 140.8 122.88 171.52 89.6 48.64 186.88 17.92 189.44 17.92 12.8-5.12 28.16 2.56 33.28 15.36C408.044288 368.64 400.364288 384 387.564288 389.12zM705.004288 309.76c99.84 0 181.76 81.92 181.76 181.76s-81.92 181.76-181.76 181.76c-99.84 0-181.76-81.92-181.76-181.76S605.164288 309.76 705.004288 309.76zM705.004288 624.64c71.68 0 130.56-58.88 130.56-130.56 0-71.68-58.88-130.56-130.56-130.56-71.68 0-130.56 58.88-130.56 130.56C574.444288 565.76 633.324288 624.64 705.004288 624.64zM948.204288 209.92c-56.32 56.32-140.8 87.04-245.76 87.04 0 0-2.56 0-2.56 0-314.88 0-332.8-261.12-332.8-263.68 0-7.68 2.56-12.8 7.68-17.92 5.12-5.12 12.8-7.68 17.92-7.68l422.4 0c15.36 0 25.6 10.24 25.6 25.6s-10.24 25.6-25.6 25.6L420.844288 58.88c12.8 58.88 66.56 186.88 279.04 186.88 0 0 2.56 0 2.56 0 215.04 0 258.56-130.56 268.8-186.88l-61.44 0c-15.36 0-25.6-10.24-25.6-25.6s10.24-25.6 25.6-25.6L999.404288 7.68c12.8 0 25.6 10.24 25.6 25.6C1025.004288 38.4 1025.004288 133.12 948.204288 209.92z"  horiz-adv-x="1026" />

    
    <glyph glyph-name="historychoose" unicode="&#58891;" d="M704 522.24 232.96 522.24c-15.36 0-25.6 10.24-25.6 25.6s10.24 25.6 25.6 25.6l473.6 0c15.36 0 25.6-10.24 25.6-25.6S719.36 522.24 704 522.24zM399.36 317.44 232.96 317.44c-15.36 0-25.6 10.24-25.6 25.6s10.24 25.6 25.6 25.6l166.4 0c15.36 0 25.6-10.24 25.6-25.6S412.16 317.44 399.36 317.44zM360.96 135.68l-128 0c-15.36 0-25.6 10.24-25.6 25.6s10.24 25.6 25.6 25.6l128 0c15.36 0 25.6-10.24 25.6-25.6S376.32 135.68 360.96 135.68zM954.88 896l-225.28 0c-15.36 0-25.6-10.24-25.6-25.6l0-64c0-5.12-2.56-12.8-12.8-12.8-7.68 0-355.84 0-363.52 0-2.56 0-12.8 0-12.8 12.8L314.88 870.4c0 15.36-10.24 25.6-25.6 25.6L66.56 896c-15.36 0-25.6-10.24-25.6-25.6 0 0 0 0 0 0 0 0 0 0 0 0l0-972.8c0-15.36 10.24-25.6 25.6-25.6l417.28 0c15.36 0 25.6 10.24 25.6 25.6s-10.24 25.6-25.6 25.6L92.16-76.8 92.16 844.8l174.08 0 0-38.4c0-23.04 15.36-61.44 58.88-64 12.8 0 343.04-2.56 373.76 0 43.52 5.12 58.88 40.96 58.88 64L757.76 844.8l174.08 0 0-437.76c0-15.36 10.24-25.6 25.6-25.6s25.6 10.24 25.6 25.6L983.04 870.4C980.48 883.2 967.68 896 954.88 896zM619.52 844.8l-230.4 0c-15.36 0-25.6 10.24-25.6 25.6s10.24 25.6 25.6 25.6l230.4 0c15.36 0 25.6-10.24 25.6-25.6S632.32 844.8 619.52 844.8zM704 432.64c-153.6 0-279.04-125.44-279.04-279.04s125.44-279.04 279.04-279.04S983.04 0 983.04 153.6 857.6 432.64 704 432.64zM875.52 135.68l-163.84 0c-15.36 0-25.6 10.24-25.6 25.6L686.08 307.2c0 15.36 10.24 25.6 25.6 25.6s25.6-10.24 25.6-25.6l0-117.76 138.24 0c15.36 0 25.6-10.24 25.6-25.6S890.88 135.68 875.52 135.68z"  horiz-adv-x="1024" />

    
    <glyph glyph-name="history" unicode="&#58892;" d="M876.8 186.88l-138.24 0 0 117.76c0 15.36-10.24 25.6-25.6 25.6-15.36 0-25.6-10.24-25.6-25.6l0-143.36c0-15.36 10.24-25.6 25.6-25.6l163.84 0c15.36 0 25.6 10.24 25.6 25.6S889.6 186.88 876.8 186.88zM705.28 432.64C705.28 432.64 705.28 432.64 705.28 432.64c-153.6 0-279.04-125.44-279.04-279.04 0-153.6 125.44-279.04 279.04-279.04 0 0 0 0 0 0 153.6 0 279.04 125.44 279.04 279.04C984.32 307.2 858.88 430.08 705.28 432.64zM705.28-74.24c-125.44 0-227.84 102.4-227.84 227.84 0 125.44 102.4 227.84 227.84 227.84s227.84-102.4 227.84-227.84C930.56 25.6 830.72-74.24 705.28-74.24zM730.88 547.84c0 15.36-10.24 25.6-25.6 25.6L231.68 573.44c-15.36 0-25.6-10.24-25.6-25.6 0-15.36 10.24-25.6 25.6-25.6L705.28 522.24C718.08 522.24 730.88 532.48 730.88 547.84zM423.68 340.48c0 15.36-10.24 25.6-25.6 25.6L231.68 366.08c-15.36 0-25.6-10.24-25.6-25.6s10.24-25.6 25.6-25.6L398.08 314.88C413.44 314.88 423.68 327.68 423.68 340.48zM231.68 186.88c-15.36 0-25.6-10.24-25.6-25.6s10.24-25.6 25.6-25.6l128 0c15.36 0 25.6 10.24 25.6 25.6s-10.24 25.6-25.6 25.6L231.68 186.88zM482.56-76.8 90.88-76.8 90.88 844.8l174.08 0 0-38.4c0-33.28 25.6-64 58.88-64 12.8 0 343.04-2.56 373.76 0C730.88 742.4 756.48 770.56 753.92 803.84L753.92 842.24l174.08 0 0-437.76c0-15.36 10.24-25.6 25.6-25.6 15.36 0 25.6 10.24 25.6 25.6L979.2 867.84c0 15.36-10.24 25.6-25.6 25.6l-225.28 0c-15.36 0-25.6-10.24-25.6-25.6l0-64c0-7.68-5.12-12.8-10.24-12.8 0 0 0 0-2.56 0-7.68 0-353.28 0-363.52 0-7.68 0-12.8 5.12-12.8 12.8 0 0 0 2.56 0 2.56L313.6 870.4c0 15.36-10.24 25.6-25.6 25.6L65.28 896C49.92 896 39.68 885.76 39.68 870.4l0-972.8c0-15.36 10.24-25.6 25.6-25.6l417.28 0c15.36 0 25.6 10.24 25.6 25.6C508.16-87.04 495.36-76.8 482.56-76.8zM395.52 844.8l230.4 0c15.36 0 25.6 10.24 25.6 25.6 0 15.36-10.24 25.6-25.6 25.6l-230.4 0c-15.36 0-25.6-10.24-25.6-25.6C369.92 855.04 382.72 844.8 395.52 844.8z"  horiz-adv-x="1024" />

    
    <glyph glyph-name="my" unicode="&#58893;" d="M515.897088 842.24 515.897088 842.24c74.24 0 143.36-35.84 192-99.84 15.36-17.92 17.92-30.72 17.92-33.28l0-2.56c0-84.48 0-168.96-7.68-250.88-7.68-61.44-35.84-115.2-84.48-161.28-30.72-28.16-43.52-61.44-38.4-94.72 5.12-33.28 30.72-64 69.12-81.92 43.52-20.48 89.6-40.96 133.12-64 51.2-23.04 104.96-48.64 156.16-74.24 5.12-2.56 12.8-7.68 20.48-10.24 2.56-12.8 0-28.16 0-43.52-89.6 0-179.2 0-271.36 0l-94.72 0-94.72 0-5.12 0-79.36 0-192 0-184.32 0c0 0-2.56 0-2.56 0l0 5.12c-2.56 28.16 0 40.96 40.96 58.88 71.68 30.72 143.36 64 212.48 99.84 20.48 10.24 38.4 17.92 58.88 28.16 38.4 17.92 61.44 46.08 66.56 81.92 5.12 33.28-7.68 66.56-35.84 97.28-64 61.44-92.16 140.8-97.28 248.32 0 15.36 0 28.16 0 43.52 0 25.6 0 51.2-2.56 76.8-5.12 51.2 15.36 87.04 66.56 125.44C410.937088 824.32 464.697088 842.24 515.897088 842.24M515.897088 893.44c-61.44 0-125.44-20.48-181.76-64-56.32-43.52-94.72-94.72-87.04-171.52 2.56-38.4 0-79.36 0-117.76 2.56-107.52 30.72-204.8 112.64-284.16 35.84-35.84 28.16-71.68-17.92-94.72-89.6-43.52-179.2-87.04-268.8-125.44-53.76-23.04-79.36-51.2-71.68-112.64 5.12-51.2 0-51.2 53.76-51.2 61.44 0 122.88 0 184.32 0 89.6 0 181.76 0 271.36 0 2.56 0 2.56 0 5.12 0 61.44 0 125.44 0 186.88 0 94.72 0 186.88 0 281.6 0 12.8 0 35.84 5.12 35.84 10.24 2.56 33.28 7.68 69.12 0 102.4-2.56 15.36-28.16 28.16-46.08 35.84-97.28 46.08-192 92.16-289.28 138.24-46.08 23.04-53.76 58.88-17.92 94.72 56.32 53.76 92.16 120.32 99.84 194.56 10.24 87.04 10.24 174.08 7.68 261.12 0 20.48-15.36 46.08-28.16 64C689.977088 852.48 602.937088 893.44 515.897088 893.44L515.897088 893.44z"  horiz-adv-x="1026" />

    
    <glyph glyph-name="myoldman" unicode="&#58895;" d="M512 896C230.4 896 0 665.6 0 384s230.4-512 512-512 512 230.4 512 512S793.6 896 512 896zM512-76.8c-253.44 0-460.8 207.36-460.8 460.8S258.56 844.8 512 844.8s460.8-207.36 460.8-460.8S765.44-76.8 512-76.8zM355.84 522.24c43.52 0 81.92 35.84 81.92 81.92 0 43.52-35.84 81.92-81.92 81.92s-81.92-35.84-81.92-81.92C273.92 558.08 309.76 522.24 355.84 522.24zM355.84 632.32c15.36 0 30.72-12.8 30.72-30.72 0-15.36-12.8-30.72-30.72-30.72s-30.72 12.8-30.72 30.72C325.12 619.52 337.92 632.32 355.84 632.32zM668.16 522.24c43.52 0 81.92 35.84 81.92 81.92 0 43.52-35.84 81.92-81.92 81.92S588.8 647.68 588.8 604.16C588.8 558.08 624.64 522.24 668.16 522.24zM668.16 632.32c15.36 0 30.72-12.8 30.72-30.72 0-15.36-12.8-30.72-30.72-30.72S640 586.24 640 604.16C640 619.52 652.8 632.32 668.16 632.32zM862.72 312.32c-7.68 10.24-20.48 12.8-30.72 7.68 0 0-20.48-7.68-48.64-7.68-25.6 0-89.6 56.32-120.32 84.48l-7.68 5.12c-25.6 23.04-64 28.16-99.84 12.8C537.6 409.6 524.8 399.36 512 386.56c-10.24 12.8-25.6 23.04-43.52 30.72-35.84 15.36-74.24 7.68-99.84-12.8l-7.68-5.12c-30.72-28.16-94.72-84.48-120.32-84.48-30.72 0-48.64 7.68-48.64 7.68-10.24 5.12-23.04 0-30.72-7.68-7.68-10.24-5.12-23.04 2.56-33.28 76.8-84.48 166.4-115.2 230.4-115.2 10.24 0 20.48 0 28.16 2.56 35.84 5.12 66.56 30.72 89.6 61.44 20.48-33.28 53.76-56.32 89.6-61.44 7.68-2.56 17.92-2.56 28.16-2.56 64 0 153.6 28.16 230.4 115.2C867.84 289.28 867.84 302.08 862.72 312.32zM414.72 217.6c-30.72-5.12-92.16 2.56-156.16 46.08 38.4 10.24 87.04 48.64 138.24 97.28l7.68 5.12c10.24 10.24 28.16 12.8 46.08 5.12 15.36-7.68 35.84-23.04 35.84-48.64 0 0 0 0 0 0 0-2.56 0-5.12 0-10.24C486.4 263.68 450.56 222.72 414.72 217.6zM609.28 217.6c-33.28 5.12-69.12 46.08-71.68 94.72 0 2.56 0 5.12 0 10.24 0 0 0 0 0 0 2.56 25.6 20.48 40.96 35.84 48.64 17.92 7.68 33.28 5.12 46.08-5.12l7.68-5.12c53.76-46.08 99.84-87.04 138.24-97.28C701.44 217.6 640 212.48 609.28 217.6z"  horiz-adv-x="1024" />

    
    <glyph glyph-name="remarkofnursingwoker" unicode="&#58898;" d="M998.4 637.44C954.88 714.24 936.96 727.04 921.6 742.4c-61.44 58.88-117.76 79.36-168.96 79.36-140.8 0-240.64-158.72-240.64-158.72s-99.84 158.72-240.64 158.72C220.16 821.76 161.28 801.28 102.4 742.4c-15.36-15.36-33.28-25.6-74.24-104.96-117.76-268.8 212.48-537.6 481.28-688.64 2.56 0 2.56 0 5.12 0 7.68 0 15.36 7.68 20.48 10.24 7.68 5.12 17.92 10.24 25.6 15.36 17.92 10.24 33.28 20.48 51.2 30.72 40.96 25.6 81.92 53.76 120.32 84.48 38.4 30.72 76.8 61.44 112.64 97.28 33.28 33.28 64 66.56 92.16 104.96 25.6 35.84 48.64 71.68 64 112.64 15.36 35.84 23.04 76.8 25.6 117.76C1021.44 558.08 1013.76 599.04 998.4 637.44zM949.76 419.84c-12.8-33.28-30.72-66.56-56.32-99.84-23.04-33.28-51.2-64-87.04-99.84-30.72-30.72-66.56-61.44-107.52-92.16-35.84-28.16-76.8-56.32-117.76-81.92-15.36-10.24-33.28-20.48-48.64-30.72-7.68-5.12-12.8-7.68-20.48-10.24C358.4 94.72-35.84 358.4 71.68 614.4c33.28 61.44 46.08 74.24 58.88 84.48 2.56 2.56 2.56 2.56 5.12 5.12 46.08 43.52 89.6 66.56 135.68 66.56 107.52 0 192-125.44 197.12-133.12 7.68-12.8 20.48-20.48 35.84-25.6 2.56 0 5.12 0 10.24 0 17.92 0 35.84 10.24 46.08 28.16 0 0 0 2.56 2.56 2.56 17.92 25.6 97.28 128 192 128 43.52 0 89.6-23.04 135.68-66.56 2.56-2.56 2.56-2.56 5.12-5.12 10.24-10.24 25.6-23.04 58.88-84.48 12.8-30.72 20.48-64 17.92-97.28C970.24 486.4 962.56 453.12 949.76 419.84zM739.84 737.28c-12.8 2.56-28.16-5.12-30.72-17.92-2.56-12.8 5.12-28.16 17.92-30.72 5.12-2.56 145.92-38.4 140.8-181.76 0-15.36 10.24-25.6 25.6-25.6 0 0 0 0 0 0 12.8 0 25.6 10.24 25.6 25.6C921.6 650.24 803.84 719.36 739.84 737.28zM888.32 445.44m-25.6 0a1 1 0 1 0 51.2 0 1 1 0 1 0-51.2 0Z"  horiz-adv-x="1027" />

    
    <glyph glyph-name="payment" unicode="&#58899;" d="M1024 486.4c0 15.36-5.12 30.72-12.8 46.08-20.48 38.4-58.88 58.88-97.28 58.88l0 0L844.8 591.36l-53.76 110.08 53.76 0 0 0c0 0 0 0 0 0C860.16 704 870.4 691.2 870.4 675.84l0-2.56 0 0c0 0 0 0 0 0l0-46.08c0-15.36 10.24-25.6 25.6-25.6s25.6 10.24 25.6 25.6L921.6 673.28l0 0c0 0 0 0 0 0 0 0 0 0 0 2.56 0 0 0 0 0 0 0 0 0 2.56 0 2.56-2.56 40.96-35.84 74.24-76.8 74.24 0 0 0 0 0 0l0 0 0 0-76.8 0-25.6 53.76c-12.8 25.6-38.4 40.96-66.56 40.96-10.24 0-20.48-2.56-33.28-7.68l-179.2-87.04L112.64 752.64 107.52 752.64C48.64 755.2 0 706.56 0 647.68c0 0 0-2.56 0-2.56 0 0 0-2.56 0-2.56l0-611.84c0-61.44 51.2-112.64 112.64-112.64l798.72 0c61.44 0 112.64 51.2 112.64 112.64L1024 486.4 1024 486.4zM473.6 704 473.6 704 473.6 704l69.12 33.28 120.32 58.88c2.56 2.56 5.12 2.56 10.24 2.56 7.68 0 15.36-2.56 20.48-12.8l38.4-76.8 2.56-5.12 53.76-110.08L245.76 593.92 473.6 704zM112.64 704 358.4 704l-227.84-110.08L107.52 593.92C76.8 591.36 53.76 616.96 51.2 645.12 53.76 678.4 79.36 704 112.64 704zM972.8 30.72c0-33.28-28.16-61.44-61.44-61.44L112.64-30.72c-33.28 0-61.44 28.16-61.44 61.44L51.2 558.08c15.36-10.24 35.84-15.36 56.32-15.36l30.72 0 2.56 0 663.04 0L819.2 542.72l102.4-2.56c17.92-2.56 35.84-15.36 43.52-30.72 2.56-5.12 5.12-12.8 5.12-20.48l0-99.84-225.28 0c-58.88 0-107.52-48.64-107.52-107.52 0-58.88 48.64-107.52 107.52-107.52L972.8 174.08 972.8 30.72zM972.8 225.28l-225.28 0c-30.72 0-56.32 25.6-56.32 56.32s25.6 56.32 56.32 56.32L972.8 337.92 972.8 225.28z"  horiz-adv-x="1024" />

    
    <glyph glyph-name="dietaryhabit" unicode="&#58900;" d="M760.32 742.4c-58.88 0-107.52-48.64-107.52-107.52s48.64-107.52 107.52-107.52 107.52 48.64 107.52 107.52S819.2 742.4 760.32 742.4zM760.32 576c-30.72 0-56.32 25.6-56.32 56.32 0 30.72 25.6 56.32 56.32 56.32s56.32-25.6 56.32-56.32C816.64 601.6 791.04 576 760.32 576zM908.8 896l-253.44 0-71.68 0-38.4-38.4L25.6 337.92c-30.72-30.72-30.72-84.48 0-115.2L350.72-102.4c15.36-15.36 35.84-23.04 56.32-23.04 20.48 0 40.96 7.68 56.32 23.04L1024 455.68 1024 780.8C1024 844.8 970.24 896 908.8 896zM972.8 476.16 430.08-66.56c-5.12-5.12-12.8-7.68-20.48-7.68-7.68 0-15.36 2.56-20.48 7.68L61.44 258.56c-12.8 12.8-12.8 30.72 0 43.52L604.16 844.8l304.64 0C942.08 844.8 972.8 814.08 972.8 780.8L972.8 476.16z"  horiz-adv-x="1024" />

    
    <glyph glyph-name="question" unicode="&#58901;" d="M512 896C230.4 896 0 665.6 0 384c0-281.6 230.4-512 512-512s512 230.4 512 512C1024 665.6 793.6 896 512 896zM512-76.8c-253.44 0-460.8 207.36-460.8 460.8S258.56 844.8 512 844.8s460.8-207.36 460.8-460.8S765.44-76.8 512-76.8zM512 128m-35.84 0a1.4 1.4 0 1 0 71.68 0 1.4 1.4 0 1 0-71.68 0ZM627.2 665.6c-35.84 28.16-84.48 38.4-145.92 30.72-61.44-7.68-104.96-51.2-122.88-87.04-15.36-28.16-20.48-66.56-20.48-66.56-2.56-12.8 7.68-28.16 20.48-28.16 12.8-2.56 28.16 7.68 28.16 20.48 2.56 7.68 7.68 35.84 15.36 53.76 5.12 7.68 28.16 51.2 84.48 58.88 46.08 5.12 81.92 0 107.52-20.48 28.16-23.04 38.4-48.64 40.96-84.48 0-33.28-58.88-104.96-89.6-130.56-25.6-23.04-71.68-94.72-66.56-168.96 0-12.8 12.8-23.04 25.6-23.04 0 0 2.56 0 2.56 0 15.36 0 25.6 12.8 23.04 28.16-5.12 53.76 33.28 110.08 48.64 125.44 0 0 107.52 97.28 107.52 168.96C686.08 609.28 652.8 645.12 627.2 665.6z"  horiz-adv-x="1024" />

    
    <glyph glyph-name="illness" unicode="&#58902;" d="M512 540.16c-15.36 0-25.6-10.24-25.6-25.6l0-179.2-166.4 0c-15.36 0-25.6-10.24-25.6-25.6s10.24-25.6 25.6-25.6L486.4 284.16l0-153.6c0-15.36 10.24-25.6 25.6-25.6s25.6 10.24 25.6 25.6l0 153.6 166.4 0c15.36 0 25.6 10.24 25.6 25.6s-10.24 25.6-25.6 25.6L537.6 335.36l0 179.2C537.6 529.92 524.8 540.16 512 540.16zM929.28 675.84l-232.96 0L696.32 727.04c0 38.4-30.72 66.56-66.56 66.56l-232.96 0c-38.4 0-66.56-30.72-66.56-66.56l0-53.76L207.36 673.28c-15.36 0-25.6-10.24-25.6-25.6s10.24-25.6 25.6-25.6l721.92 0c23.04 0 43.52-20.48 43.52-43.52l0-512c0-23.04-20.48-43.52-43.52-43.52L94.72 23.04c-23.04 0-43.52 20.48-43.52 43.52l0 512c0 23.04 20.48 43.52 43.52 43.52l17.92 0 0 0c12.8 0 25.6 10.24 25.6 25.6s-10.24 25.6-25.6 25.6l0 0L94.72 673.28C43.52 675.84 0 632.32 0 581.12l0-512c0-53.76 43.52-94.72 94.72-94.72l834.56 0c53.76 0 94.72 43.52 94.72 94.72l0 512C1024 632.32 980.48 675.84 929.28 675.84zM378.88 727.04c0 10.24 7.68 15.36 15.36 15.36l232.96 0c10.24 0 15.36-7.68 15.36-15.36l0-53.76L378.88 673.28 378.88 727.04z"  horiz-adv-x="1024" />

    
    <glyph glyph-name="withdrawcash" unicode="&#58903;" d="M512 896C230.4 896 0 665.6 0 384c0-281.6 230.4-512 512-512s512 230.4 512 512C1024 665.6 793.6 896 512 896zM512-76.8c-253.44 0-460.8 207.36-460.8 460.8S258.56 844.8 512 844.8s460.8-207.36 460.8-460.8S765.44-76.8 512-76.8zM737.28 299.52c-15.36 0-25.6-10.24-25.6-25.6l0-76.8L309.76 197.12l0 66.56c0 15.36-10.24 25.6-25.6 25.6s-25.6-10.24-25.6-25.6l0-92.16c0-15.36 10.24-25.6 25.6-25.6l453.12 0c15.36 0 25.6 10.24 25.6 25.6l0 102.4C762.88 286.72 750.08 299.52 737.28 299.52zM376.32 496.64c7.68 0 12.8 2.56 17.92 7.68l89.6 89.6 0-330.24c0-15.36 10.24-25.6 25.6-25.6s25.6 10.24 25.6 25.6l0 332.8 89.6-89.6c10.24-10.24 25.6-10.24 35.84 0s10.24 25.6 0 35.84l-133.12 133.12c-10.24 10.24-25.6 10.24-35.84 0L358.4 540.16c-10.24-10.24-10.24-25.6 0-35.84C363.52 499.2 371.2 496.64 376.32 496.64z"  horiz-adv-x="1024" />

    
    <glyph glyph-name="pageview" unicode="&#58905;" d="M1000.96 412.16c-20.48 20.48-40.96 38.4-61.44 56.32-30.72 25.6-61.44 48.64-94.72 69.12-38.4 25.6-79.36 48.64-122.88 66.56-46.08 20.48-92.16 33.28-143.36 40.96-23.04 2.56-46.08 5.12-69.12 5.12-33.28 0-66.56-2.56-99.84-7.68-46.08-10.24-92.16-25.6-135.68-43.52-40.96-17.92-79.36-40.96-115.2-64-30.72-20.48-58.88-43.52-87.04-66.56-17.92-15.36-38.4-33.28-56.32-51.2C10.24 409.6 5.12 404.48 0 396.8c0 0 197.12-281.6 517.12-281.6 0 0 2.56 0 2.56 0C839.68 115.2 1024 389.12 1024 389.12 1024 391.68 1003.52 412.16 1000.96 412.16zM69.12 394.24c56.32 53.76 186.88 163.84 343.04 194.56-76.8-38.4-128-115.2-128-207.36 0-87.04 46.08-161.28 115.2-199.68C238.08 222.72 120.32 337.92 69.12 394.24zM514.56 204.8c-99.84 0-179.2 79.36-179.2 179.2 0 99.84 79.36 179.2 179.2 179.2s179.2-79.36 179.2-179.2C693.76 284.16 614.4 204.8 514.56 204.8zM624.64 179.2c71.68 38.4 120.32 115.2 120.32 204.8 0 81.92-43.52 153.6-107.52 194.56 143.36-43.52 261.12-143.36 314.88-192C906.24 327.68 791.04 215.04 624.64 179.2zM514.56 494.08c-30.72 0-94.72-23.04-104.96-102.4-2.56-15.36 7.68-28.16 23.04-30.72 0 0 2.56 0 2.56 0 12.8 0 23.04 10.24 25.6 23.04 7.68 51.2 46.08 56.32 53.76 56.32 15.36 0 25.6 12.8 25.6 25.6C542.72 483.84 529.92 496.64 514.56 494.08z"  horiz-adv-x="1024" />

    
    <glyph glyph-name="examine" unicode="&#58907;" d="M624.64 276.48 624.64 785.92c0 61.44-48.64 110.08-110.08 110.08s-110.08-48.64-110.08-110.08L404.48 281.6c-66.56-35.84-112.64-107.52-112.64-192 0-120.32 97.28-217.6 217.6-217.6s217.6 97.28 217.6 217.6C729.6 168.96 688.64 238.08 624.64 276.48zM512-76.8c-92.16 0-166.4 74.24-166.4 166.4 0 66.56 38.4 122.88 97.28 151.04 0 0 15.36 5.12 15.36 23.04l0 522.24c0 33.28 25.6 58.88 58.88 58.88s58.88-25.6 58.88-58.88l0-38.4-40.96 0c-15.36 0-25.6-10.24-25.6-25.6s10.24-25.6 25.6-25.6l40.96 0L576 665.6l-40.96 0c-15.36 0-25.6-10.24-25.6-25.6s10.24-25.6 25.6-25.6l40.96 0 0-33.28-40.96 0c-15.36 0-25.6-10.24-25.6-25.6 0-15.36 10.24-25.6 25.6-25.6l40.96 0 0-232.96 0-40.96c0 0 0 0 0 0 0-10.24 5.12-17.92 15.36-23.04 53.76-28.16 89.6-81.92 89.6-145.92C678.4-2.56 604.16-76.8 512-76.8zM540.16 199.68l0 171.52c0 15.36-10.24 25.6-25.6 25.6-15.36 0-25.6-10.24-25.6-25.6l0-171.52c-51.2-12.8-89.6-56.32-89.6-112.64 0-64 51.2-115.2 115.2-115.2s115.2 51.2 115.2 115.2C629.76 140.8 591.36 186.88 540.16 199.68z"  horiz-adv-x="1024" />

    
    <glyph glyph-name="bloodoxygen" unicode="&#58908;" d="M609.28 780.8m-53.76 0a2.1 2.1 0 1 0 107.52 0 2.1 2.1 0 1 0-107.52 0ZM445.44 742.4m-35.84 0a1.4 1.4 0 1 0 71.68 0 1.4 1.4 0 1 0-71.68 0ZM540.16 650.24m-28.16 0a1.1 1.1 0 1 0 56.32 0 1.1 1.1 0 1 0-56.32 0ZM483.84 867.84m-28.16 0a1.1 1.1 0 1 0 56.32 0 1.1 1.1 0 1 0-56.32 0ZM514.56 442.88m-20.48 0a0.8 0.8 0 1 0 40.96 0 0.8 0.8 0 1 0-40.96 0ZM537.6 330.24m-20.48 0a0.8 0.8 0 1 0 40.96 0 0.8 0.8 0 1 0-40.96 0ZM483.84 225.28m-38.4 0a1.5 1.5 0 1 0 76.8 0 1.5 1.5 0 1 0-76.8 0ZM819.2-30.72c-5.12 10.24-17.92 38.4-35.84 71.68C742.4 128 640 335.36 634.88 366.08c-5.12 28.16-2.56 115.2 0 166.4l25.6 0c15.36 0 25.6 12.8 25.6 25.6 0 15.36-12.8 25.6-25.6 25.6L373.76 583.68c-15.36 0-25.6-12.8-25.6-25.6 0-15.36 12.8-25.6 25.6-25.6l28.16 0c2.56-56.32 2.56-145.92 0-163.84-5.12-20.48-89.6-179.2-138.24-273.92-51.2-97.28-64-122.88-66.56-130.56-2.56-7.68-12.8-35.84 5.12-58.88 12.8-17.92 33.28-28.16 66.56-30.72 2.56 0 163.84-2.56 309.76-2.56 117.76 0 225.28 2.56 232.96 5.12C824.32-112.64 847.36-89.6 819.2-30.72zM271.36-74.24c-23.04 2.56-28.16 7.68-28.16 7.68 0 0-2.56 2.56 2.56 12.8 2.56 7.68 33.28 66.56 64 125.44 110.08 209.92 140.8 271.36 143.36 289.28 5.12 28.16 2.56 138.24 0 171.52l130.56 0c-2.56-46.08-5.12-138.24 2.56-174.08 5.12-30.72 61.44-148.48 153.6-337.92 15.36-33.28 28.16-58.88 33.28-69.12 5.12-10.24 7.68-17.92 7.68-23.04C704-76.8 325.12-79.36 271.36-74.24zM407.04 145.92c-15.36-12.8-94.72-161.28-87.04-176.64 7.68-12.8 378.88-5.12 391.68-2.56 12.8 2.56-74.24 168.96-87.04 179.2C614.4 153.6 422.4 158.72 407.04 145.92z"  horiz-adv-x="1024" />

    
    <glyph glyph-name="relation" unicode="&#58909;" d="M496.64 747.52c2.56 0 240.64-15.36 304.64-261.12 2.56-12.8 12.8-20.48 25.6-20.48 2.56 0 5.12 0 5.12 0 12.8 2.56 23.04 17.92 17.92 30.72C778.24 783.36 501.76 798.72 499.2 798.72c-15.36 0-25.6-10.24-28.16-23.04C471.04 760.32 483.84 750.08 496.64 747.52zM519.68 30.72c-2.56 0-240.64-5.12-325.12 235.52-5.12 12.8-20.48 20.48-33.28 15.36-12.8-5.12-20.48-20.48-15.36-33.28 92.16-263.68 348.16-268.8 373.76-268.8 0 0 2.56 0 2.56 0 15.36 0 25.6 12.8 25.6 25.6S532.48 33.28 519.68 30.72zM417.28 593.92c0 115.2-94.72 209.92-209.92 209.92S0 709.12 0 593.92 94.72 384 209.92 384 417.28 478.72 417.28 593.92zM51.2 593.92c0 87.04 71.68 158.72 158.72 158.72 87.04 0 158.72-71.68 158.72-158.72 0-87.04-71.68-158.72-158.72-158.72C122.88 435.2 51.2 506.88 51.2 593.92zM814.08 384c-115.2 0-209.92-94.72-209.92-209.92 0-115.2 94.72-209.92 209.92-209.92s209.92 94.72 209.92 209.92C1024 289.28 929.28 384 814.08 384zM814.08 17.92c-87.04 0-158.72 71.68-158.72 158.72 0 87.04 71.68 158.72 158.72 158.72s158.72-71.68 158.72-158.72C972.8 87.04 901.12 17.92 814.08 17.92z"  horiz-adv-x="1024" />

    
    <glyph glyph-name="gender" unicode="&#58910;" d="M512 896C230.4 896 0 665.6 0 384c0-281.6 230.4-512 512-512 281.6 0 512 230.4 512 512C1024 665.6 793.6 896 512 896zM512-76.8c-253.44 0-460.8 207.36-460.8 460.8 0 253.44 207.36 460.8 460.8 460.8s460.8-207.36 460.8-460.8C972.8 130.56 765.44-76.8 512-76.8zM675.84 404.48C675.84 407.04 678.4 407.04 675.84 404.48l0 153.6 71.68-69.12c10.24-10.24 25.6-10.24 35.84 0 10.24 10.24 10.24 25.6 0 35.84L668.16 640c-10.24 10.24-25.6 10.24-35.84 0l-112.64-112.64c-2.56-2.56-5.12-7.68-5.12-12.8-10.24 69.12-69.12 122.88-140.8 122.88-79.36 0-143.36-64-143.36-143.36 0-71.68 51.2-130.56 120.32-140.8l0-64-69.12 0c-15.36 0-25.6-10.24-25.6-25.6 0-15.36 10.24-25.6 25.6-25.6l69.12 0 0-74.24c0-15.36 10.24-25.6 25.6-25.6 15.36 0 25.6 10.24 25.6 25.6l0 74.24 66.56 0c15.36 0 25.6 10.24 25.6 25.6 0 15.36-10.24 25.6-25.6 25.6l-66.56 0 0 64c0 0 0 0 0 0 66.56 12.8 117.76 71.68 117.76 140.8 0 2.56 0 2.56 0 5.12 0-2.56 2.56-5.12 5.12-7.68 5.12-5.12 12.8-7.68 17.92-7.68s12.8 2.56 17.92 7.68l69.12 69.12 0-153.6c0 0 0 0 0 0-64-12.8-115.2-69.12-115.2-138.24 0-76.8 64-140.8 140.8-140.8s140.8 64 140.8 140.8C791.04 337.92 742.4 394.24 675.84 404.48zM371.2 399.36c-51.2 0-92.16 40.96-92.16 92.16 0 51.2 40.96 92.16 92.16 92.16 51.2 0 92.16-40.96 92.16-92.16C463.36 440.32 422.4 399.36 371.2 399.36zM652.8 179.2c-48.64 0-89.6 40.96-89.6 89.6s40.96 89.6 89.6 89.6 89.6-40.96 89.6-89.6S701.44 179.2 652.8 179.2z"  horiz-adv-x="1024" />

    
    <glyph glyph-name="birthday" unicode="&#58911;" d="M291.84 637.44c10.24 0 87.04 7.68-2.56 130.56 0 0-35.84-46.08-40.96-92.16C245.76 645.12 273.92 637.44 291.84 637.44zM734.72 637.44c10.24 0 87.04 7.68-2.56 130.56 0 0-35.84-46.08-40.96-92.16C688.64 645.12 716.8 637.44 734.72 637.44zM509.44 714.24c10.24 0 87.04 7.68-2.56 130.56 0 0-35.84-46.08-40.96-92.16C463.36 721.92 491.52 714.24 509.44 714.24zM1003.52 112.64l-71.68 0 0 307.2c0 46.08-35.84 81.92-81.92 81.92l-64 0 0 81.92c0 15.36-12.8 28.16-28.16 28.16l-40.96 0c-15.36 0-28.16-12.8-28.16-28.16l0-81.92-125.44 0L563.2 663.04c0 15.36-12.8 28.16-28.16 28.16L486.4 691.2c-15.36 0-28.16-12.8-28.16-28.16l0-161.28-117.76 0 0 81.92c0 15.36-12.8 28.16-28.16 28.16l-40.96 0c-15.36 0-28.16-12.8-28.16-28.16l0-81.92L181.76 501.76c-46.08 0-81.92-35.84-81.92-81.92l0-307.2L10.24 112.64c-5.12 0-10.24-5.12-10.24-10.24l0-81.92c0-51.2 43.52-94.72 94.72-94.72l832 0c53.76 0 97.28 43.52 97.28 97.28l0 71.68C1024 102.4 1013.76 112.64 1003.52 112.64zM151.04 419.84c0 17.92 15.36 30.72 30.72 30.72l665.6 0c17.92 0 30.72-15.36 30.72-30.72l0-307.2L151.04 112.64 151.04 419.84zM972.8 20.48c0-25.6-20.48-46.08-46.08-46.08L94.72-25.6C71.68-25.6 51.2-5.12 51.2 17.92l0 43.52 51.2 0c0 0 0 0 0 0l56.32 0c0 0 0 0 0 0L972.8 61.44 972.8 20.48z"  horiz-adv-x="1024" />

    
    <glyph glyph-name="boy" unicode="&#58912;" d="M1024 870.4c0 15.36-10.24 25.6-25.6 25.6L629.76 896c-15.36 0-25.6-10.24-25.6-25.6 0-15.36 10.24-25.6 25.6-25.6l302.08 0-273.92-245.76c-69.12 53.76-156.16 87.04-250.88 87.04C181.76 686.08 0 504.32 0 279.04S181.76-128 407.04-128c225.28 0 407.04 181.76 407.04 407.04 0 110.08-46.08 212.48-117.76 284.16L972.8 814.08l0-273.92c0-15.36 10.24-25.6 25.6-25.6 15.36 0 25.6 10.24 25.6 25.6L1024 867.84C1024 867.84 1024 867.84 1024 870.4 1024 870.4 1024 870.4 1024 870.4zM762.88 279.04c0-197.12-158.72-355.84-355.84-355.84C209.92-76.8 51.2 81.92 51.2 279.04s158.72 355.84 355.84 355.84c87.04 0 171.52-33.28 235.52-89.6C719.36 476.16 762.88 378.88 762.88 279.04z"  horiz-adv-x="1024" />

    
    <glyph glyph-name="woman" unicode="&#58913;" d="M844.8 71.68 537.6 71.68l0 87.04c192 12.8 345.6 174.08 345.6 368.64 0 110.08-48.64 207.36-122.88 276.48C693.76 860.16 606.72 896 512 896 307.2 896 140.8 729.6 140.8 524.8c0-194.56 151.04-355.84 345.6-368.64l0-87.04L181.76 69.12c-15.36 0-25.6-10.24-25.6-25.6s10.24-25.6 25.6-25.6L486.4 17.92 486.4-102.4c0-15.36 10.24-25.6 25.6-25.6s25.6 10.24 25.6 25.6l0 122.88 307.2 0c15.36 0 25.6 10.24 25.6 25.6S860.16 71.68 844.8 71.68zM194.56 524.8C194.56 701.44 335.36 844.8 512 844.8c79.36 0 153.6-28.16 212.48-81.92 66.56-61.44 107.52-145.92 107.52-238.08 0-176.64-143.36-317.44-317.44-317.44C335.36 207.36 194.56 350.72 194.56 524.8z"  horiz-adv-x="1024" />

    
    <glyph glyph-name="settings" unicode="&#58914;" d="M998.4 225.28C806.4 376.32 998.4 550.4 998.4 550.4l5.12 5.12-102.4 176.64-10.24-5.12c-33.28-15.36-64-20.48-92.16-20.48-148.48 0-189.44 184.32-189.44 184.32l0 5.12-202.24 0-2.56-10.24C384 737.28 286.72 709.12 212.48 709.12c-48.64 0-87.04 12.8-87.04 12.8L117.76 724.48l-99.84-176.64L25.6 542.72C217.6 391.68 25.6 217.6 25.6 217.6l-5.12-5.12 102.4-176.64 10.24 5.12c35.84 15.36 66.56 20.48 92.16 20.48 148.48 0 189.44-181.76 189.44-181.76l2.56-7.68 202.24 0 2.56 10.24c20.48 145.92 117.76 174.08 192 174.08 48.64 0 87.04-12.8 87.04-12.8l7.68-2.56 102.4 176.64L998.4 225.28zM880.64 102.4c-17.92 2.56-43.52 7.68-69.12 7.68-125.44 0-209.92-66.56-238.08-186.88l-120.32 0c-28.16 79.36-97.28 189.44-230.4 189.44-25.6 0-51.2-5.12-79.36-12.8L84.48 204.8c30.72 35.84 81.92 107.52 76.8 194.56-2.56 58.88-28.16 112.64-79.36 161.28L140.8 665.6c17.92-2.56 43.52-7.68 69.12-7.68 125.44 0 209.92 66.56 238.08 186.88l120.32 0c23.04-64 84.48-189.44 230.4-189.44 25.6 0 51.2 5.12 79.36 12.8l61.44-104.96c-30.72-35.84-81.92-107.52-79.36-194.56 2.56-58.88 28.16-112.64 79.36-161.28L880.64 102.4zM512 601.6c-125.44 0-227.84-102.4-227.84-227.84s102.4-227.84 227.84-227.84 227.84 102.4 227.84 227.84S637.44 601.6 512 601.6zM512 197.12c-97.28 0-176.64 79.36-176.64 176.64s79.36 176.64 176.64 176.64 176.64-79.36 176.64-176.64S609.28 197.12 512 197.12z"  horiz-adv-x="1024" />

    
    <glyph glyph-name="coordinate" unicode="&#58915;" d="M517.12 755.2c-122.88 0-220.16-99.84-220.16-220.16s99.84-220.16 220.16-220.16 220.16 99.84 220.16 220.16S640 755.2 517.12 755.2zM517.12 366.08c-92.16 0-168.96 76.8-168.96 168.96s76.8 168.96 168.96 168.96 168.96-76.8 168.96-168.96S609.28 366.08 517.12 366.08zM878.08 535.04C878.08 734.72 716.8 896 517.12 896S156.16 734.72 156.16 535.04c0-46.08 7.68-89.6 23.04-130.56C194.56 373.76 517.12-128 517.12-128S832 355.84 844.8 386.56l0 0 2.56 2.56 0 0C865.28 432.64 878.08 483.84 878.08 535.04zM788.48 389.12 788.48 389.12l-117.76-179.2-153.6-243.2-151.04 240.64c0 0-117.76 166.4-133.12 202.24-17.92 38.4-28.16 81.92-28.16 128C207.36 706.56 345.6 844.8 517.12 844.8s309.76-138.24 309.76-309.76C826.88 483.84 814.08 432.64 788.48 389.12z"  horiz-adv-x="1024" />

    
    <glyph glyph-name="medical" unicode="&#58916;" d="M1008.64 358.4c-2.56 5.12-7.68 10.24-12.8 12.8-7.68 2.56-176.64 92.16-335.36 2.56-158.72-89.6-181.76-271.36-181.76-279.04 0-7.68 2.56-17.92 10.24-23.04 7.68-5.12 15.36-7.68 25.6-5.12l89.6 33.28L458.24-25.6c-10.24-10.24-17.92-30.72-7.68-51.2 7.68-17.92 25.6-23.04 40.96-23.04 10.24 0 12.8 2.56 15.36 2.56l122.88 64c40.96-7.68 199.68-25.6 314.88 99.84C1070.08 207.36 1011.2 353.28 1008.64 358.4zM901.12 99.84c-107.52-117.76-271.36-81.92-273.92-81.92-5.12 2.56-12.8 0-17.92-2.56l-69.12-35.84 204.8 176.64c10.24 7.68 12.8 23.04 5.12 33.28-5.12 7.68-10.24 17.92-30.72 10.24l-181.76-66.56c15.36 53.76 53.76 145.92 145.92 197.12 115.2 64 243.2 15.36 279.04 0C972.8 299.52 993.28 199.68 901.12 99.84zM803.84 465.92c28.16 5.12 25.6 20.48 25.6 20.48l0 33.28c0 64-51.2 117.76-117.76 117.76l-115.2 0L596.48 752.64c0 64-51.2 117.76-117.76 117.76l-130.56 0c-64 0-117.76-51.2-117.76-117.76l0-117.76L117.76 634.88c-64 0-117.76-51.2-117.76-117.76l0-130.56c0-64 51.2-117.76 117.76-117.76l117.76 0L235.52 153.6c0-64 51.2-117.76 117.76-117.76l43.52 0c10.24 2.56 17.92 10.24 20.48 20.48C417.28 61.44 463.36 432.64 803.84 465.92zM368.64 87.04c0 0-81.92 0-81.92 66.56l0 168.96L117.76 322.56c-35.84 0-66.56 28.16-66.56 66.56l0 130.56c0 35.84 28.16 66.56 66.56 66.56l168.96 0L286.72 752.64c0 35.84 28.16 66.56 66.56 66.56l130.56 0c35.84 0 66.56-28.16 66.56-66.56l0-168.96 0 0 166.4 0c61.44 0 66.56-69.12 66.56-69.12C468.48 471.04 386.56 171.52 368.64 87.04z"  horiz-adv-x="1025" />

    
    <glyph glyph-name="news" unicode="&#58917;" d="M291.84 442.88m-33.28 0a1.3 1.3 0 1 0 66.56 0 1.3 1.3 0 1 0-66.56 0ZM517.12 442.88m-33.28 0a1.3 1.3 0 1 0 66.56 0 1.3 1.3 0 1 0-66.56 0ZM739.84 442.88m-33.28 0a1.3 1.3 0 1 0 66.56 0 1.3 1.3 0 1 0-66.56 0ZM903.68 798.72 120.32 798.72C53.76 798.72 0 742.4 0 675.84l0-465.92c0-66.56 53.76-120.32 120.32-120.32L588.8 89.6l138.24-138.24c5.12-5.12 25.6-12.8 35.84 0 10.24 10.24 10.24 25.6 0 35.84 0 0-145.92 143.36-145.92 143.36-5.12 5.12-10.24 7.68-15.36 7.68l-481.28 0c-38.4 0-69.12 30.72-69.12 69.12L51.2 675.84c0 38.4 30.72 69.12 69.12 69.12l780.8 0c38.4 0 69.12-30.72 69.12-69.12l0-465.92c0-38.4-30.72-69.12-69.12-69.12l-148.48 0c-12.8 0-23.04-12.8-23.04-25.6s10.24-23.04 23.04-25.6l148.48 0c66.56 0 120.32 53.76 120.32 120.32L1021.44 675.84C1024 742.4 970.24 798.72 903.68 798.72z"  horiz-adv-x="1024" />

    
    <glyph glyph-name="voice" unicode="&#58918;" d="M819.2 209.92c-58.88 66.56-84.48 133.12-79.36 197.12 7.68 89.6 76.8 148.48 76.8 148.48 10.24 7.68 12.8 25.6 2.56 35.84-7.68 10.24-25.6 12.8-35.84 2.56-2.56-2.56-87.04-71.68-94.72-181.76-7.68-79.36 25.6-158.72 92.16-235.52 5.12-5.12 12.8-7.68 20.48-7.68 5.12 0 12.8 2.56 17.92 7.68C826.88 184.32 829.44 199.68 819.2 209.92zM504.32 427.52c12.8 168.96 143.36 276.48 145.92 276.48 10.24 7.68 12.8 25.6 2.56 35.84-7.68 10.24-25.6 12.8-35.84 2.56-5.12-5.12-148.48-120.32-163.84-312.32-10.24-135.68 43.52-271.36 161.28-404.48 5.12-5.12 12.8-7.68 20.48-7.68 5.12 0 12.8 2.56 17.92 7.68 10.24 10.24 12.8 25.6 2.56 35.84C545.28 184.32 494.08 307.2 504.32 427.52zM250.88 445.44C271.36 693.76 460.8 847.36 463.36 849.92c10.24 7.68 12.8 25.6 2.56 35.84-7.68 10.24-25.6 12.8-35.84 2.56-7.68-7.68-207.36-168.96-230.4-437.76-15.36-189.44 61.44-381.44 227.84-570.88 5.12-5.12 12.8-7.68 20.48-7.68 5.12 0 12.8 2.56 17.92 7.68 10.24 10.24 12.8 25.6 2.56 35.84C309.76 92.16 235.52 271.36 250.88 445.44z"  horiz-adv-x="1024" />

    
    <glyph glyph-name="holdtotalk" unicode="&#58919;" d="M512 202.24c125.44 0 225.28 102.4 225.28 225.28L737.28 670.72C739.84 793.6 637.44 896 512 896s-225.28-102.4-225.28-225.28l0-243.2C286.72 302.08 389.12 202.24 512 202.24zM337.92 670.72C337.92 765.44 417.28 844.8 512 844.8s174.08-79.36 174.08-174.08l0-243.2c0-97.28-79.36-174.08-174.08-174.08-97.28 0-174.08 79.36-174.08 174.08L337.92 670.72zM919.04 512c-15.36 0-25.6-10.24-25.6-25.6l0-74.24C893.44 227.84 742.4 76.8 558.08 76.8l-92.16 0C281.6 76.8 130.56 227.84 130.56 414.72L130.56 486.4c0 15.36-10.24 25.6-25.6 25.6-15.36 0-25.6-10.24-25.6-25.6l0-74.24C79.36 199.68 250.88 25.6 465.92 25.6L486.4 25.6l0-102.4-53.76 0c-15.36 0-25.6-10.24-25.6-25.6 0-15.36 10.24-25.6 25.6-25.6l168.96 0c15.36 0 25.6 10.24 25.6 25.6 0 15.36-10.24 25.6-25.6 25.6L537.6-76.8l0 102.4 20.48 0c212.48 0 386.56 174.08 386.56 386.56L944.64 486.4C944.64 501.76 934.4 512 919.04 512z"  horiz-adv-x="1024" />

    
    <glyph glyph-name="bankcard" unicode="&#58920;" d="M755.2 563.2 99.84 563.2c-53.76 0-97.28-43.52-97.28-97.28l0-358.4c0-53.76 43.52-97.28 97.28-97.28l655.36 0c53.76 0 97.28 43.52 97.28 97.28l0 358.4C855.04 517.12 808.96 563.2 755.2 563.2zM803.84 107.52c0-25.6-20.48-46.08-46.08-46.08L99.84 61.44c-25.6 0-46.08 20.48-46.08 46.08l0 156.16 750.08 0L803.84 107.52zM803.84 314.88 53.76 314.88l0 74.24 750.08 0L803.84 314.88zM803.84 440.32 53.76 440.32l0 23.04c0 25.6 20.48 46.08 46.08 46.08l655.36 0c25.6 0 46.08-20.48 46.08-46.08L801.28 440.32zM957.44 732.16l-716.8 0C204.8 732.16 174.08 701.44 174.08 663.04l0-40.96 0 0c0-12.8 12.8-25.6 25.6-25.6s25.6 10.24 25.6 25.6l0 0L225.28 663.04c0 10.24 7.68 15.36 15.36 15.36l716.8 0c10.24 0 15.36-7.68 15.36-15.36l0-417.28c0-10.24-7.68-15.36-15.36-15.36l-12.8 0 0 0c-12.8 0-25.6-12.8-25.6-25.6 0-12.8 10.24-25.6 25.6-25.6l0 0 12.8 0c38.4 0 66.56 30.72 66.56 66.56L1024 663.04C1026.56 701.44 995.84 732.16 957.44 732.16z"  horiz-adv-x="1025" />

    
    <glyph glyph-name="someonewhocares" unicode="&#58921;" d="M878.08 10.24c10.24 12.8 35.84 40.96 35.84 92.16s-33.28 84.48-40.96 89.6c-25.6 23.04-48.64 33.28-69.12 33.28-56.32 0-97.28-64-97.28-64s-40.96 64-97.28 64c-20.48 0-71.68-12.8-99.84-74.24-46.08-107.52 84.48-215.04 194.56-276.48 0 0 0 0 2.56 0 2.56 0 71.68 46.08 87.04 56.32 15.36 12.8 30.72 25.6 46.08 38.4C855.04-17.92 867.84-5.12 878.08 10.24zM709.12-69.12C614.4-12.8 535.04 51.2 558.08 128c12.8 28.16 25.6 40.96 51.2 46.08 20.48 0 46.08-25.6 53.76-38.4 7.68-12.8 40.96-25.6 43.52-25.6 17.92 0 35.84 10.24 46.08 28.16 10.24 12.8 30.72 35.84 51.2 35.84 10.24 0 38.4-2.56 51.2-46.08 2.56-7.68 5.12-17.92 5.12-25.6C860.16 10.24 711.68-66.56 709.12-69.12zM998.4 30.72c-2.56 12.8-56.32 38.4-61.44 40.96L919.04 25.6c5.12-2.56 25.6-12.8 30.72-15.36 0-12.8 0-23.04 0-35.84-20.48 0-43.52 0-64 0-12.8-17.92-30.72-38.4-46.08-51.2 40.96 0 81.92 0 122.88 0 12.8 0 33.28 5.12 35.84 10.24C1000.96-33.28 1003.52 0 998.4 30.72zM527.36-28.16l-450.56 0c-2.56 25.6 0 40.96 38.4 56.32 69.12 28.16 240.64 112.64 258.56 120.32 35.84 17.92 61.44 46.08 66.56 79.36 5.12 33.28-7.68 66.56-35.84 94.72-58.88 58.88-89.6 133.12-92.16 235.52 0 12.8 2.56 89.6 0 115.2-5.12 46.08 15.36 81.92 61.44 117.76 43.52 33.28 92.16 51.2 143.36 51.2 69.12 0 135.68-33.28 181.76-94.72 12.8-17.92 15.36-28.16 15.36-30.72l0-2.56c0-79.36 0-161.28-7.68-240.64-7.68-58.88-33.28-110.08-79.36-153.6-25.6-25.6-35.84-51.2-35.84-69.12l51.2 0c2.56 10.24 7.68 23.04 20.48 33.28 53.76 51.2 87.04 112.64 94.72 184.32 10.24 81.92 10.24 166.4 7.68 248.32 0 20.48-12.8 43.52-28.16 61.44C678.4 857.6 599.04 896 514.56 896c-58.88 0-120.32-20.48-174.08-61.44C286.72 793.6 250.88 744.96 258.56 670.72c2.56-38.4 0-74.24 0-112.64 2.56-102.4 30.72-197.12 107.52-271.36 33.28-33.28 28.16-69.12-15.36-89.6C263.68 156.16 179.2 112.64 92.16 76.8c-51.2-20.48-76.8-48.64-69.12-107.52 5.12-48.64 0-48.64 51.2-48.64 58.88 0 478.72 0 499.2 0C558.08-64 540.16-43.52 527.36-28.16z"  horiz-adv-x="1024" />

    
    <glyph glyph-name="kinsfolk" unicode="&#58923;" d="M990.72 611.84c-35.84 58.88-102.4 81.92-189.44 61.44-12.8-2.56-23.04-17.92-17.92-30.72 2.56-12.8 17.92-23.04 30.72-17.92 43.52 10.24 104.96 12.8 133.12-35.84 56.32-94.72-2.56-212.48-40.96-273.92-48.64-74.24-107.52-143.36-176.64-202.24-2.56-2.56-35.84-35.84-40.96-35.84-2.56 0-51.2 46.08-64 61.44-10.24 10.24-25.6 10.24-35.84 2.56-10.24-10.24-10.24-25.6-2.56-35.84 15.36-17.92 33.28-35.84 53.76-53.76 0 0 28.16-23.04 46.08-23.04 2.56 0 7.68 0 12.8 2.56 30.72 12.8 61.44 46.08 64 48.64 71.68 61.44 133.12 133.12 184.32 212.48C1029.12 407.04 1041.92 524.8 990.72 611.84zM729.6 330.24c20.48 28.16 38.4 56.32 48.64 87.04 12.8 28.16 17.92 58.88 20.48 92.16 0 33.28-5.12 64-17.92 92.16-33.28 61.44-46.08 69.12-58.88 81.92-46.08 46.08-92.16 61.44-133.12 61.44-110.08 0-186.88-122.88-186.88-122.88s-76.8 122.88-186.88 122.88C171.52 744.96 128 729.6 79.36 683.52c-12.8-10.24-25.6-20.48-58.88-81.92-92.16-209.92 166.4-419.84 376.32-537.6 0 0 2.56 0 2.56 0 5.12 0 12.8 5.12 15.36 7.68 7.68 5.12 12.8 7.68 20.48 12.8 12.8 7.68 25.6 15.36 40.96 25.6 33.28 20.48 64 43.52 94.72 66.56 30.72 23.04 58.88 48.64 87.04 74.24C683.52 273.92 709.12 299.52 729.6 330.24zM401.92 120.32c-122.88 71.68-412.16 271.36-332.8 460.8 25.6 46.08 48.64 66.56 48.64 66.56 33.28 30.72 66.56 48.64 97.28 48.64 66.56 0 125.44-71.68 143.36-99.84 7.68-12.8 28.16-25.6 43.52-25.6 17.92 0 35.84 10.24 46.08 28.16 0 0 0 2.56 0 2.56 15.36 20.48 71.68 94.72 140.8 94.72 30.72 0 102.4-51.2 102.4-51.2 7.68-7.68 30.72-25.6 43.52-64s12.8-112.64-2.56-143.36C640 250.88 404.48 120.32 401.92 120.32zM693.76 471.04C693.76 471.04 693.76 471.04 693.76 471.04c15.36 0 25.6 10.24 25.6 25.6 2.56 120.32-89.6 168.96-140.8 179.2-12.8 2.56-28.16-5.12-30.72-20.48-2.56-12.8 5.12-28.16 20.48-30.72 5.12 0 102.4-20.48 99.84-128C668.16 483.84 678.4 473.6 693.76 471.04zM683.52 430.08m-25.6 0a1 1 0 1 0 51.2 0 1 1 0 1 0-51.2 0Z"  horiz-adv-x="1024" />

    
    <glyph glyph-name="phone" unicode="&#58924;" d="M250.88 844.8 250.88 844.8c5.12 0 15.36 0 33.28-25.6 30.72-40.96 48.64-89.6 61.44-128l0-2.56c5.12-17.92 17.92-56.32 7.68-66.56-20.48-7.68-38.4-17.92-53.76-33.28-12.8-10.24-25.6-25.6-30.72-46.08-5.12-17.92-2.56-35.84 7.68-53.76 2.56-2.56 35.84-64 48.64-87.04 25.6-40.96 133.12-174.08 158.72-199.68 20.48-20.48 40.96-38.4 61.44-51.2 15.36-12.8 28.16-20.48 43.52-28.16 12.8-7.68 28.16-10.24 40.96-10.24 23.04 0 43.52 7.68 66.56 23.04 15.36 10.24 25.6 23.04 35.84 33.28 5.12-2.56 15.36-7.68 25.6-17.92 43.52-30.72 140.8-92.16 145.92-94.72 0 0 2.56-2.56 2.56-2.56 0 0 5.12-5.12 7.68-10.24 2.56-7.68-2.56-20.48-12.8-33.28C865.28-51.2 821.76-76.8 762.88-76.8c-7.68 0-17.92 0-25.6 2.56-66.56 7.68-284.16 192-391.68 307.2-69.12 76.8-248.32 366.08-240.64 460.8 0 2.56 0 5.12 0 7.68 0 0-2.56 58.88 58.88 99.84C192 819.2 227.84 844.8 250.88 844.8M747.52 181.76 747.52 181.76 747.52 181.76M250.88 896C217.6 896 181.76 875.52 135.68 842.24 48.64 780.8 53.76 696.32 53.76 696.32c-10.24-122.88 194.56-435.2 253.44-499.2 81.92-87.04 325.12-312.32 422.4-322.56 10.24 0 20.48-2.56 30.72-2.56 79.36 0 135.68 38.4 184.32 110.08 56.32 81.92-15.36 117.76-15.36 117.76s-99.84 61.44-143.36 92.16c-33.28 25.6-53.76 30.72-66.56 30.72-2.56 0-5.12 0-7.68 0-7.68-2.56-12.8-12.8-17.92-17.92-10.24-10.24-20.48-20.48-30.72-28.16-10.24-7.68-25.6-15.36-38.4-15.36-5.12 0-12.8 2.56-17.92 5.12-12.8 7.68-25.6 15.36-35.84 23.04-20.48 15.36-38.4 30.72-56.32 48.64-25.6 23.04-48.64 51.2-71.68 76.8-28.16 35.84-53.76 71.68-79.36 110.08-15.36 23.04-28.16 46.08-40.96 69.12-2.56 5.12-5.12 10.24-10.24 17.92-2.56 5.12-2.56 7.68-2.56 12.8 2.56 7.68 10.24 15.36 15.36 23.04 10.24 10.24 23.04 17.92 35.84 23.04 7.68 2.56 15.36 10.24 23.04 15.36 25.6 33.28 7.68 81.92-2.56 117.76-15.36 51.2-35.84 99.84-69.12 143.36C302.08 880.64 276.48 896 250.88 896L250.88 896z"  horiz-adv-x="1024" />

    
    <glyph glyph-name="search" unicode="&#58925;" d="M855.04 465.92c0 235.52-192 427.52-427.52 427.52C192 893.44 0 701.44 0 465.92 0 230.4 192 38.4 427.52 38.4 663.04 38.4 855.04 230.4 855.04 465.92zM427.52 89.6C220.16 89.6 51.2 258.56 51.2 465.92 51.2 673.28 220.16 842.24 427.52 842.24c207.36 0 376.32-168.96 376.32-376.32C803.84 258.56 634.88 89.6 427.52 89.6zM279.04 660.48c-10.24 10.24-25.6 10.24-35.84-2.56-2.56-2.56-168.96-186.88 0-371.2 5.12-5.12 12.8-7.68 17.92-7.68 5.12 0 12.8 2.56 17.92 7.68 10.24 10.24 10.24 25.6 2.56 35.84-138.24 148.48-5.12 294.4 0 302.08C289.28 634.88 289.28 650.24 279.04 660.48zM998.4 30.72l-158.72 158.72L801.28 153.6l158.72-158.72c15.36-15.36 15.36-40.96 0-56.32-7.68-7.68-17.92-12.8-28.16-12.8-10.24 0-20.48 5.12-28.16 12.8l-158.72 158.72-35.84-35.84 158.72-158.72c17.92-17.92 40.96-25.6 64-25.6 23.04 0 46.08 7.68 64 25.6C1031.68-61.44 1031.68-5.12 998.4 30.72z"  horiz-adv-x="1024" />

    
    <glyph glyph-name="communitygreen" unicode="&#58926;" d="M441.571072 632.32m-84.48 0a3.3 3.3 0 1 0 168.96 0 3.3 3.3 0 1 0-168.96 0ZM280.291072 358.4m-48.64 0a1.9 1.9 0 1 0 97.28 0 1.9 1.9 0 1 0-97.28 0ZM664.291072 120.32m-33.28 0a1.3 1.3 0 1 0 66.56 0 1.3 1.3 0 1 0-66.56 0ZM940.771072 660.48c5.12 7.68 10.24 15.36 15.36 23.04 20.48 38.4 53.76 97.28 35.84 151.04-10.24 25.6-28.16 38.4-40.96 43.52-46.08 15.36-107.52-23.04-117.76-30.72-12.8-7.68-15.36-23.04-7.68-35.84 7.68-12.8 23.04-15.36 35.84-7.68 20.48 12.8 56.32 30.72 74.24 23.04 2.56 0 5.12-2.56 7.68-10.24 10.24-30.72-15.36-76.8-33.28-110.08-43.52-79.36-102.4-151.04-161.28-225.28-138.24-168.96-296.96-312.32-486.4-435.2-7.68-5.12-15.36-10.24-25.6-15.36-102.4 81.92-168.96 209.92-168.96 353.28 0 250.88 202.24 453.12 453.12 453.12 56.32 0 107.52-10.24 156.16-28.16l0 0c2.56 0 5.12-2.56 7.68-2.56 15.36 0 25.6 10.24 25.6 25.6 0 10.24-7.68 20.48-17.92 23.04-53.76 20.48-112.64 30.72-174.08 30.72C241.891072 888.32 16.611072 663.04 16.611072 384c0-87.04 23.04-168.96 61.44-240.64-10.24-15.36-46.08-64-69.12-120.32-15.36-35.84-10.24-69.12 10.24-92.16 15.36-17.92 40.96-28.16 69.12-28.16 10.24 0 23.04 2.56 33.28 5.12 40.96 12.8 79.36 35.84 112.64 58.88 81.92-56.32 179.2-89.6 286.72-89.6C799.971072-120.32 1025.251072 104.96 1025.251072 384 1025.251072 486.4 994.531072 581.12 940.771072 660.48zM106.211072-40.96c-17.92-5.12-38.4-2.56-48.64 7.68-10.24 10.24-5.12 25.6-2.56 38.4 15.36 35.84 35.84 71.68 51.2 92.16 25.6-35.84 53.76-66.56 84.48-94.72C165.091072-15.36 136.931072-30.72 106.211072-40.96zM520.931072-69.12c-87.04 0-168.96 25.6-238.08 69.12 2.56 2.56 5.12 2.56 7.68 5.12 192 125.44 355.84 271.36 496.64 445.44 43.52 53.76 84.48 104.96 122.88 161.28 38.4-66.56 64-145.92 64-227.84C974.051072 133.12 771.811072-69.12 520.931072-69.12z"  horiz-adv-x="1026" />

    
    <glyph glyph-name="community2" unicode="&#58928;" d="M699.384064 816.64c51.2 0 97.28-23.04 128-61.44 7.68-10.24 30.72-40.96 74.24-40.96 7.68 0 15.36 0 23.04 2.56 0 0 0 0 0 0-51.2-51.2-56.32-122.88-58.88-163.84-2.56-20.48-2.56-43.52-2.56-64-2.56-61.44-5.12-117.76-17.92-174.08-38.4-171.52-168.96-307.2-330.24-348.16-35.84-10.24-74.24-12.8-112.64-12.8-40.96 0-79.36 5.12-117.76 15.36-20.48 5.12-40.96 12.8-61.44 20.48 53.76 15.36 102.4 43.52 148.48 87.04 12.8 12.8 17.92 28.16 15.36 46.08-2.56 17.92-15.36 30.72-30.72 38.4-2.56 0-5.12 2.56-7.68 2.56-7.68 2.56-17.92 7.68-30.72 10.24-40.96 5.12-66.56 23.04-61.44 89.6 2.56 35.84-2.56 81.92-64 104.96-20.48 7.68-43.52 23.04-38.4 92.16C154.104064 501.76 138.744064 532.48 102.904064 555.52c-25.6 15.36-40.96 43.52-48.64 97.28C51.704064 665.6 51.704064 678.4 51.704064 693.76c107.52-84.48 235.52-145.92 396.8-192 5.12-2.56 10.24-2.56 15.36-2.56 10.24 0 20.48 2.56 30.72 10.24 12.8 10.24 20.48 23.04 20.48 38.4 0 12.8 2.56 25.6 2.56 38.4 2.56 25.6 2.56 46.08 5.12 69.12 5.12 66.56 58.88 130.56 122.88 151.04C660.984064 814.08 678.904064 816.64 699.384064 816.64 699.384064 816.64 699.384064 816.64 699.384064 816.64M699.384064 867.84c-23.04 0-46.08-2.56-71.68-10.24-84.48-25.6-151.04-110.08-158.72-197.12-2.56-33.28-5.12-66.56-7.68-110.08C292.344064 601.6 141.304064 670.72 15.864064 791.04 3.064064 747.52-4.615936 696.32 3.064064 645.12c7.68-53.76 23.04-102.4 71.68-133.12 23.04-15.36 28.16-28.16 25.6-51.2-2.56-61.44 7.68-117.76 71.68-140.8 28.16-12.8 33.28-25.6 30.72-53.76-5.12-79.36 25.6-133.12 104.96-143.36 7.68 0 15.36-5.12 25.6-10.24C274.424064 51.2 210.424064 25.6 141.304064 25.6c-40.96 0-81.92 7.68-122.88 23.04 20.48-7.68 40.96-33.28 58.88-46.08 20.48-12.8 40.96-25.6 64-38.4 40.96-20.48 84.48-38.4 130.56-48.64 43.52-10.24 87.04-15.36 130.56-15.36 40.96 0 84.48 5.12 125.44 15.36 184.32 46.08 325.12 202.24 366.08 386.56 17.92 79.36 17.92 163.84 23.04 245.76 5.12 61.44 15.36 120.32 74.24 153.6 7.68 5.12 12.8 12.8 17.92 17.92-10.24 2.56-20.48 5.12-33.28 7.68 15.36 23.04 30.72 43.52 48.64 69.12-38.4-10.24-69.12-17.92-99.84-28.16-7.68-2.56-15.36-5.12-20.48-5.12-12.8 0-23.04 5.12-33.28 20.48C824.824064 839.68 763.384064 867.84 699.384064 867.84L699.384064 867.84zM1024.504064 798.72 1024.504064 798.72 1024.504064 798.72z"  horiz-adv-x="1025" />

    
    <glyph glyph-name="echometer" unicode="&#58930;" d="M939.52 424.96c-43.52 0-76.8-30.72-81.92-71.68-135.68-30.72-133.12-222.72-130.56-232.96 0 0 7.68-102.4-48.64-156.16-25.6-25.6-64-38.4-110.08-33.28-43.52 2.56-79.36 17.92-102.4 48.64-48.64 56.32-48.64 151.04-46.08 184.32 84.48 5.12 156.16 35.84 209.92 94.72 140.8 156.16 107.52 450.56 107.52 463.36 0 0 0 0 0 0 33.28 10.24 58.88 43.52 58.88 79.36 0 46.08-38.4 84.48-84.48 84.48s-84.48-38.4-84.48-84.48c0-38.4 25.6-69.12 58.88-79.36 0-2.56 0-5.12 0-7.68 0-2.56 33.28-284.16-94.72-422.4-48.64-53.76-115.2-79.36-197.12-79.36-94.72 5.12-166.4 40.96-215.04 102.4C61.44 460.8 110.08 714.24 110.08 716.8c0 2.56 0 5.12 0 10.24C143.36 734.72 168.96 768 168.96 803.84c0 46.08-38.4 84.48-84.48 84.48C38.4 888.32 0 852.48 0 803.84 0 768 25.6 734.72 58.88 724.48c-2.56-17.92-51.2-279.04 74.24-440.32 53.76-69.12 130.56-110.08 232.96-120.32-2.56-40.96 0-145.92 58.88-217.6 33.28-40.96 81.92-64 138.24-66.56 7.68 0 12.8 0 17.92 0 53.76 0 97.28 17.92 130.56 51.2 71.68 71.68 64 192 64 197.12 0 2.56-2.56 156.16 89.6 179.2 12.8-28.16 40.96-46.08 74.24-46.08 46.08 0 84.48 38.4 84.48 84.48C1024 389.12 985.6 424.96 939.52 424.96zM706.56 834.56c17.92 0 33.28-15.36 33.28-33.28S724.48 768 706.56 768s-33.28 15.36-33.28 33.28S688.64 834.56 706.56 834.56zM84.48 837.12c17.92 0 33.28-15.36 33.28-33.28 0-17.92-15.36-33.28-33.28-33.28C66.56 773.12 51.2 785.92 51.2 803.84 51.2 824.32 66.56 837.12 84.48 837.12zM939.52 309.76c-17.92 0-33.28 15.36-33.28 33.28 0 17.92 15.36 33.28 33.28 33.28 17.92 0 33.28-15.36 33.28-33.28C972.8 322.56 957.44 309.76 939.52 309.76z"  horiz-adv-x="1024" />

    
    <glyph glyph-name="home" unicode="&#58932;" d="M1011.690496 586.24c-5.12 2.56-10.24 2.56-17.92 0-5.12-2.56-10.24-7.68-12.8-12.8-71.68-163.84-204.8-212.48-320-222.72 71.68 25.6 128 66.56 168.96 120.32C922.090496 593.92 896.490496 739.84 896.490496 739.84c0 5.12-5.12 10.24-10.24 15.36-5.12 2.56-10.24 5.12-17.92 2.56-12.8-2.56-20.48-12.8-17.92-25.6 0-2.56 20.48-130.56-56.32-235.52-30.72-40.96-76.8-74.24-130.56-97.28 15.36 15.36 28.16 33.28 38.4 51.2C778.730496 588.8 719.850496 768 717.290496 775.68c-5.12 10.24-15.36 17.92-28.16 12.8-2.56 0-5.12-2.56-5.12-2.56-2.56 10.24-5.12 20.48-7.68 30.72-2.56 5.12-5.12 10.24-10.24 12.8-5.12 2.56-10.24 2.56-17.92 2.56-12.8-2.56-17.92-15.36-15.36-28.16 56.32-189.44 10.24-304.64-40.96-368.64 35.84 87.04 51.2 222.72-35.84 399.36C548.330496 844.8 535.530496 849.92 525.290496 844.8c-10.24-5.12-15.36-17.92-10.24-30.72 2.56-7.68 7.68-12.8 10.24-20.48-7.68 0-12.8-5.12-15.36-10.24-2.56-2.56-15.36-28.16-30.72-64-5.12 7.68-15.36 10.24-23.04 7.68-12.8-2.56-17.92-15.36-15.36-28.16 5.12-15.36 7.68-28.16 12.8-40.96-7.68-20.48-12.8-40.96-17.92-58.88-17.92-66.56-23.04-125.44-12.8-171.52-17.92 20.48-38.4 48.64-53.76 84.48-10.24 133.12 46.08 302.08 46.08 302.08 2.56 12.8-2.56 23.04-12.8 28.16-5.12 2.56-12.8 2.56-17.92 0-5.12-2.56-10.24-7.68-10.24-12.8-2.56-5.12-30.72-89.6-43.52-192-5.12 33.28-10.24 71.68-10.24 110.08 0 5.12-2.56 12.8-7.68 15.36C305.130496 765.44 300.010496 768 292.330496 768c-5.12 0-10.24-2.56-15.36-7.68-5.12-5.12-5.12-10.24-5.12-15.36 0 0-2.56 0-2.56 0-5.12 0-12.8 0-17.92-2.56C248.810496 739.84 243.690496 734.72 243.690496 729.6c0-5.12-25.6-128 12.8-238.08 10.24-30.72 25.6-58.88 43.52-81.92 2.56-5.12 7.68-10.24 12.8-12.8-79.36 30.72-153.6 92.16-174.08 209.92 0 5.12-5.12 10.24-10.24 15.36-5.12 2.56-10.24 5.12-15.36 2.56-12.8-2.56-20.48-12.8-17.92-25.6 15.36-79.36 51.2-135.68 94.72-176.64-33.28 17.92-56.32 35.84-74.24 51.2-58.88 56.32-71.68 115.2-71.68 115.2-2.56 12.8-12.8 20.48-25.6 17.92-12.8-2.56-20.48-12.8-17.92-25.6 0-2.56 2.56-7.68 5.12-17.92 17.92-53.76 104.96-232.96 432.64-240.64 12.8-5.12 25.6-7.68 38.4-7.68 2.56-135.68 0-248.32-5.12-353.28 0-12.8 5.12-23.04 15.36-28.16 5.12-2.56 12.8-5.12 17.92-5.12 5.12 0 12.8 2.56 17.92 5.12 10.24 5.12 15.36 15.36 15.36 28.16-2.56 104.96-5.12 212.48-10.24 353.28l74.24-2.56c115.2-5.12 322.56 23.04 422.4 250.88C1027.050496 568.32 1021.930496 581.12 1011.690496 586.24zM499.690496 655.36c17.92 46.08 35.84 81.92 43.52 97.28 46.08-122.88 35.84-217.6 15.36-279.04-5.12-15.36-10.24-30.72-17.92-46.08C538.090496 476.16 527.850496 550.4 499.690496 655.36zM494.570496 396.8c-5.12 0-10.24-2.56-12.8-2.56-30.72 46.08-23.04 117.76-7.68 181.76C492.010496 488.96 497.130496 432.64 494.570496 396.8zM279.530496 647.68c7.68-56.32 23.04-104.96 40.96-151.04 2.56-23.04 5.12-40.96 10.24-58.88C284.650496 501.76 276.970496 588.8 279.530496 647.68z"  horiz-adv-x="1026" />

    
    <glyph glyph-name="date" unicode="&#58933;" d="M693.527273 435.2c32.581818 0 65.163636 0 97.745455 0 0 23.272727 0 41.890909 0 65.163636-37.236364 0-65.163636 0-97.745455 0C693.527273 477.090909 693.527273 458.472727 693.527273 435.2zM232.727273 272.290909c32.581818 0 65.163636 0 97.745455 0 0 23.272727 0 41.890909 0 65.163636-32.581818 0-65.163636 0-97.745455 0C232.727273 314.181818 232.727273 290.909091 232.727273 272.290909zM465.454545 272.290909c32.581818 0 65.163636 0 97.745455 0 0 23.272727 0 41.890909 0 65.163636-32.581818 0-65.163636 0-97.745455 0C465.454545 314.181818 465.454545 290.909091 465.454545 272.290909zM791.272727 337.454545c-32.581818 0-65.163636 0-93.090909 0 0-23.272727 0-46.545455 0-65.163636 32.581818 0 60.509091 0 93.090909 0C791.272727 295.563636 791.272727 314.181818 791.272727 337.454545zM232.727273 109.381818c37.236364 0 65.163636 0 97.745455 0 0 23.272727 0 41.890909 0 65.163636-32.581818 0-65.163636 0-97.745455 0C232.727273 146.618182 232.727273 128 232.727273 109.381818zM460.8 104.727273c32.581818 0 65.163636 0 97.745455 0 0 23.272727 0 41.890909 0 65.163636-32.581818 0-65.163636 0-97.745455 0C460.8 146.618182 460.8 128 460.8 104.727273zM693.527273 104.727273c32.581818 0 65.163636 0 97.745455 0 0 23.272727 0 41.890909 0 65.163636-32.581818 0-65.163636 0-97.745455 0C693.527273 146.618182 693.527273 123.345455 693.527273 104.727273zM330.472727 500.363636c-32.581818 0-65.163636 0-97.745455 0C232.727273 477.090909 232.727273 458.472727 232.727273 439.854545c32.581818 0 65.163636 0 97.745455 0C330.472727 458.472727 330.472727 477.090909 330.472727 500.363636zM563.2 500.363636c-32.581818 0-65.163636 0-97.745455 0 0-23.272727 0-41.890909 0-60.509091 32.581818 0 65.163636 0 97.745455 0C563.2 458.472727 563.2 477.090909 563.2 500.363636zM921.6 802.909091l-121.018182 0L800.581818 872.727273C800.581818 886.690909 791.272727 896 777.309091 896s-23.272727-9.309091-23.272727-23.272727L754.036364 802.909091l-218.763636 0L535.272727 872.727273C535.272727 886.690909 525.963636 896 512 896c-13.963636 0-23.272727-9.309091-23.272727-23.272727L488.727273 802.909091 274.618182 802.909091 274.618182 872.727273C274.618182 886.690909 265.309091 896 251.345455 896 237.381818 896 228.072727 886.690909 228.072727 872.727273L228.072727 802.909091 102.4 802.909091C46.545455 802.909091 0 756.363636 0 700.509091l0-721.454545C0-81.454545 46.545455-128 102.4-128l814.545455 0c55.854545 0 102.4 46.545455 102.4 102.4L1019.345455 700.509091C1024 756.363636 977.454545 802.909091 921.6 802.909091zM977.454545-25.6c0-32.581818-27.927273-55.854545-55.854545-55.854545L102.4-81.454545C74.472727-81.454545 46.545455-53.527273 46.545455-25.6L46.545455 700.509091C46.545455 728.436364 74.472727 756.363636 102.4 756.363636l121.018182 0 0-69.818182C228.072727 677.236364 237.381818 663.272727 251.345455 663.272727c13.963636 0 23.272727 9.309091 23.272727 23.272727L274.618182 756.363636l214.109091 0 0-69.818182C488.727273 677.236364 498.036364 663.272727 512 663.272727c13.963636 0 23.272727 9.309091 23.272727 23.272727L535.272727 756.363636l218.763636 0 0-69.818182c0-13.963636 9.309091-23.272727 23.272727-23.272727s23.272727 9.309091 23.272727 23.272727L800.581818 756.363636l121.018182 0C949.527273 756.363636 977.454545 728.436364 977.454545 700.509091L977.454545-25.6z"  horiz-adv-x="1024" />

    
    <glyph glyph-name="time" unicode="&#58934;" d="M512.071215 896c-4.654545 0-9.309091 0-9.309091 0C218.834851 891.345455-4.583331 653.963636 0.071215 374.690909 4.72576 95.418182 232.798487-128 512.071215-128c4.654545 0 9.309091 0 9.309091 0 283.927273 4.654545 507.345455 242.036364 502.690909 521.309091C1019.416669 672.581818 791.343942 896 512.071215 896zM847.198487 62.836364c-83.781818-88.436364-200.145455-139.636364-325.818182-144.290909L512.071215-81.454545c-251.345455 0-460.8 204.8-465.454545 456.145455C41.962124 630.690909 246.762124 844.8 502.762124 849.454545c4.654545 0 9.309091 0 9.309091 0 251.345455 0 460.8-204.8 465.454545-456.145455C982.180305 272.290909 935.634851 151.272727 847.198487 62.836364zM782.034851 379.345455l-232.727273 0 0 279.272727c0 13.963636-9.309091 23.272727-23.272727 23.272727s-23.272727-9.309091-23.272727-23.272727l0-302.545455c0-13.963636 9.309091-23.272727 23.272727-23.272727l256 0c13.963636 0 23.272727 9.309091 23.272727 23.272727S795.998487 379.345455 782.034851 379.345455z"  horiz-adv-x="1025" />

    
    <glyph glyph-name="return" unicode="&#58936;" d="M819.490858-128c-5.119393 0-10.238787 2.559697-15.35818 5.119393L187.245779 358.342368c-5.119393 5.119393-10.238787 12.798483-10.238787 20.477573 0 7.67909 2.559697 15.35818 10.238787 20.477573L804.132678 890.759277c10.238787 7.67909 28.156663 7.67909 35.835753-5.119393 7.67909-10.238787 7.67909-28.156663-5.119393-35.835753L246.118803 378.819942l591.289932-460.745402c10.238787-7.67909 12.798483-25.596967 5.119393-35.835753C834.849038-125.440303 827.169948-128 819.490858-128z"  horiz-adv-x="1024" />

    
    <glyph glyph-name="add" unicode="&#58940;" d="M25.6 0c15.36 0 25.6 10.24 25.6 25.6v102.4c0 15.36-10.24 25.6-25.6 25.6s-25.6-10.24-25.6-25.6v-102.4c0-15.36 10.24-25.6 25.6-25.6zM25.6 512c15.36 0 25.6 10.24 25.6 25.6v102.4c0 15.36-10.24 25.6-25.6 25.6s-25.6-10.24-25.6-25.6v-102.4c0-15.36 10.24-25.6 25.6-25.6zM102.4-76.8h-102.4v-51.2h102.4c15.36 0 25.6 10.24 25.6 25.6s-10.24 25.6-25.6 25.6zM409.6 844.8h102.4c15.36 0 25.6 10.24 25.6 25.6s-10.24 25.6-25.6 25.6h-102.4c-15.36 0-25.6-10.24-25.6-25.6s10.24-25.6 25.6-25.6zM665.6 844.8h102.4c15.36 0 25.6 10.24 25.6 25.6s-10.24 25.6-25.6 25.6h-102.4c-15.36 0-25.6-10.24-25.6-25.6s10.24-25.6 25.6-25.6zM25.6 768c15.36 0 25.6 10.24 25.6 25.6v102.4h-51.2v-102.4c0-15.36 10.24-25.6 25.6-25.6zM281.6 870.4c0 15.36-10.24 25.6-25.6 25.6h-102.4c-15.36 0-25.6-10.24-25.6-25.6s10.24-25.6 25.6-25.6h102.4c15.36 0 25.6 10.24 25.6 25.6zM25.6 256c15.36 0 25.6 10.24 25.6 25.6v102.4c0 15.36-10.24 25.6-25.6 25.6s-25.6-10.24-25.6-25.6v-102.4c0-15.36 10.24-25.6 25.6-25.6zM358.4-76.8h-102.4c-15.36 0-25.6-10.24-25.6-25.6s10.24-25.6 25.6-25.6h102.4c15.36 0 25.6 10.24 25.6 25.6s-10.24 25.6-25.6 25.6zM998.4 256c-15.36 0-25.6-10.24-25.6-25.6v-102.4c0-15.36 10.24-25.6 25.6-25.6s25.6 10.24 25.6 25.6v102.4c0 15.36-10.24 25.6-25.6 25.6zM998.4 512c-15.36 0-25.6-10.24-25.6-25.6v-102.4c0-15.36 10.24-25.6 25.6-25.6s25.6 10.24 25.6 25.6v102.4c0 15.36-10.24 25.6-25.6 25.6zM921.6 896c-15.36 0-25.6-10.24-25.6-25.6s10.24-25.6 25.6-25.6h102.4v51.2h-102.4zM998.4 768c-15.36 0-25.6-10.24-25.6-25.6v-102.4c0-15.36 10.24-25.6 25.6-25.6s25.6 10.24 25.6 25.6v102.4c0 15.36-10.24 25.6-25.6 25.6zM998.4 0c-15.36 0-25.6-10.24-25.6-25.6v-102.4h51.2v102.4c0 15.36-10.24 25.6-25.6 25.6zM870.4-76.8h-102.4c-15.36 0-25.6-10.24-25.6-25.6s10.24-25.6 25.6-25.6h102.4c15.36 0 25.6 10.24 25.6 25.6s-10.24 25.6-25.6 25.6zM614.4-76.8h-102.4c-15.36 0-25.6-10.24-25.6-25.6s10.24-25.6 25.6-25.6h102.4c15.36 0 25.6 10.24 25.6 25.6s-10.24 25.6-25.6 25.6zM512 102.4c15.36 0 25.6 10.24 25.6 25.6v230.4h230.4c15.36 0 25.6 10.24 25.6 25.6s-10.24 25.6-25.6 25.6h-230.4v230.4c0 15.36-10.24 25.6-25.6 25.6s-25.6-10.24-25.6-25.6v-230.4h-230.4c-15.36 0-25.6-10.24-25.6-25.6s10.24-25.6 25.6-25.6h230.4v-230.4c0-15.36 10.24-25.6 25.6-25.6z"  horiz-adv-x="1024" />

    
    <glyph glyph-name="star" unicode="&#58943;" d="M514.56 757.76l112.64-225.28c7.68-15.36 20.48-25.6 38.4-28.16l248.32-38.4-179.2-174.080c-12.8-12.8-17.92-28.16-15.36-46.080l43.52-253.44-225.28 120.32c-7.68 5.12-15.36 5.12-23.040 5.12-7.68 0-17.92-2.56-25.6-5.12l-222.72-122.88 46.080 245.76c2.56 17.92-2.56 33.28-15.36 46.080l-189.44 181.76 250.88 35.84c15.36 2.56 30.72 12.8 38.4 28.16l117.76 230.4M514.56 870.4l-161.28-317.44-353.28-51.2 266.24-256-69.12-350.72 320 174.080 314.88-163.84-61.44 350.72 250.88 245.76-348.16 53.76-158.72 314.88z"  horiz-adv-x="1024" />

    
    <glyph glyph-name="oldpeopleshome" unicode="&#58945;" d="M829.44 384c-12.8 0-25.6-10.24-25.6-25.6v-340.48c0-35.84-30.72-66.56-66.56-66.56h-112.64c0 0 0 0 0 2.56v217.6c0 15.36-12.8 28.16-28.16 28.16h-156.16c-15.36 0-28.16-12.8-28.16-28.16v-217.6c0 0 0 0 0-2.56h-125.44c-35.84 0-66.56 30.72-66.56 66.56l-0 340.48c0 12.8-10.24 25.6-25.6 25.6s-25.6-10.24-25.6-25.6v-340.48c0-64 51.2-115.2 115.2-115.2h450.56c64 0 115.2 51.2 115.2 115.2l-0 340.48c5.12 12.8-5.12 25.6-20.48 25.6zM440.32-46.080v217.6c0 2.56 0 2.56 2.56 2.56h156.16c2.56 0 2.56 0 2.56-2.56v-217.6c0 0 0 0 0-2.56l-161.28 2.56c0-2.56 0-2.56 0 0zM993.28 509.44l-151.040 112.64v163.84c0 38.4-30.72 69.12-69.12 69.12h-20.48c-38.4 0-69.12-30.72-69.12-69.12v-48.64l-156.16 115.2c-5.12 5.12-10.24 7.68-17.92 7.68s-12.8-2.56-17.92-7.68l-460.8-343.040c-33.28-23.040-38.4-69.12-15.36-102.4 15.36-20.48 35.84-30.72 58.88-30.72 15.36 0 30.72 5.12 43.52 15.36l394.24 291.84 396.8-291.84c12.8-10.24 28.16-15.36 43.52-15.36 23.040 0 43.52 10.24 58.88 30.72 23.040 33.28 15.36 79.36-17.92 102.4zM970.24 437.76c-5.12-5.12-12.8-10.24-20.48-10.24-2.56 0-7.68 0-15.36 5.12l-409.6 302.080c-5.12 2.56-10.24 5.12-15.36 5.12-7.68 0-12.8-2.56-17.92-7.68v0l-404.48-299.52c-5.12-5.12-10.24-5.12-15.36-5.12-7.68 0-15.36 2.56-20.48 10.24-5.12 7.68-5.12 12.8-5.12 17.92 0 2.56 2.56 10.24 10.24 15.36l455.68 332.8 184.32-135.68c5.12-2.56 7.68-5.12 12.8-5.12 12.8 0 25.6 10.24 25.6 25.6v97.28c0 10.24 7.68 17.92 17.92 17.92h20.48c10.24 0 17.92-7.68 17.92-17.92v-174.080c0 0 0 0 0 0 0-7.68 5.12-15.36 10.24-17.92l161.28-120.32c7.68-5.12 7.68-12.8 10.24-15.36 2.56-7.68 2.56-15.36-2.56-20.48z"  horiz-adv-x="1025" />

    
    <glyph glyph-name="indicate" unicode="&#58946;" d="M256-104.369231c-3.938462 0-11.815385 3.938462-15.753846 7.876923C236.307692-88.615385 236.307692-76.8 244.184615-68.923077l492.307692 468.676923L252.061538 848.738462C244.184615 856.615385 240.246154 868.430769 248.123077 876.307692c7.876923 7.876923 19.692308 7.876923 27.569231 0l500.184615-464.738462c3.938462-3.938462 7.876923-7.876923 7.876923-15.753846 0-3.938462-3.938462-11.815385-7.876923-15.753846L271.753846-100.430769C267.815385-104.369231 263.876923-104.369231 256-104.369231z"  horiz-adv-x="1024" />

    
    <glyph glyph-name="picture" unicode="&#58947;" d="M936.96 806.4 87.04 806.4C38.4 806.4 0 768 0 721.92l0-691.2c0-48.64 38.4-87.04 87.04-87.04l852.48 0c48.64 0 87.04 38.4 87.04 87.04l0 691.2C1024 768 985.6 806.4 936.96 806.4zM972.8 30.72c0-17.92-15.36-35.84-35.84-35.84L87.04-5.12c-17.92 0-35.84 15.36-35.84 35.84L51.2 230.4l261.12 220.16 273.92-263.68c10.24-10.24 23.04-10.24 33.28 0l130.56 107.52 215.04-220.16c2.56-2.56 5.12-2.56 7.68-5.12L972.8 30.72zM972.8 138.24l-202.24 207.36c-10.24 10.24-25.6 10.24-35.84 2.56l-130.56-107.52L330.24 501.76c-10.24 10.24-23.04 10.24-33.28 0l-245.76-204.8L51.2 721.92c0 17.92 15.36 35.84 35.84 35.84l852.48 0c17.92 0 35.84-15.36 35.84-35.84L975.36 138.24z"  horiz-adv-x="1027" />

    
    <glyph glyph-name="extrameal" unicode="&#58948;" d="M640 89.6 381.44 89.6c-15.36 0-25.6-10.24-25.6-25.6 0-15.36 10.24-25.6 25.6-25.6L640 38.4c15.36 0 25.6 10.24 25.6 25.6S652.8 89.6 640 89.6L640 89.6zM491.52 893.44c0 0-2.56-5.12-7.68-12.8C481.28 870.4 476.16 857.6 476.16 844.8c0-2.56 0-2.56 0-5.12l0-2.56c0 0 0-2.56 0 0l0 0 0-2.56c0-5.12 2.56-7.68 5.12-10.24 5.12-5.12 10.24-12.8 17.92-17.92 7.68-5.12 17.92-10.24 25.6-17.92 10.24-7.68 20.48-12.8 28.16-23.04 10.24-10.24 15.36-25.6 17.92-38.4 2.56-15.36-2.56-28.16-5.12-40.96-10.24-23.04-23.04-38.4-35.84-51.2-12.8-12.8-25.6-20.48-33.28-25.6-7.68-5.12-12.8-7.68-12.8-7.68l-5.12 5.12c0 0 2.56 5.12 7.68 12.8 5.12 7.68 12.8 20.48 20.48 33.28 7.68 12.8 17.92 30.72 23.04 46.08C537.6 704 537.6 714.24 535.04 719.36c-2.56 7.68-5.12 12.8-10.24 20.48-10.24 12.8-30.72 25.6-46.08 43.52-7.68 7.68-15.36 17.92-20.48 28.16-2.56 5.12-5.12 12.8-5.12 17.92l0 2.56 0 0c0 2.56 0 0 0 2.56l0 2.56c0 2.56 0 5.12 0 7.68 2.56 20.48 12.8 33.28 20.48 40.96C483.84 893.44 486.4 896 486.4 896L491.52 893.44zM291.84 816.64c0 0-2.56-2.56-5.12-10.24-2.56-5.12-5.12-15.36-5.12-25.6 0 0 0-2.56 0-2.56l0 0c0 0 0 0 0 0l0 0 0-2.56c0-5.12 2.56-5.12 2.56-7.68 2.56-5.12 7.68-7.68 12.8-12.8 5.12-5.12 12.8-7.68 20.48-12.8 7.68-5.12 15.36-10.24 20.48-17.92 7.68-7.68 12.8-17.92 12.8-28.16 2.56-12.8 0-20.48-5.12-30.72-7.68-17.92-17.92-28.16-25.6-38.4-10.24-10.24-17.92-15.36-23.04-20.48-5.12-5.12-10.24-5.12-10.24-5.12l-2.56 2.56c0 0 2.56 2.56 7.68 10.24 5.12 5.12 10.24 15.36 15.36 25.6 5.12 10.24 12.8 23.04 15.36 35.84 2.56 5.12 2.56 12.8 0 17.92 0 5.12-2.56 10.24-7.68 15.36-7.68 10.24-23.04 20.48-33.28 33.28-5.12 5.12-12.8 12.8-15.36 23.04-2.56 5.12-2.56 10.24-2.56 12.8l0 2.56 0 0c0 2.56 0 0 0 2.56l0 2.56c0 2.56 0 5.12 0 5.12 2.56 15.36 10.24 23.04 15.36 30.72C286.72 816.64 289.28 819.2 289.28 819.2L291.84 816.64zM701.44 816.64c0 0-2.56-2.56-5.12-10.24-2.56-5.12-5.12-15.36-5.12-25.6 0 0 0-2.56 0-2.56l0 0c0 0 0 0 0 0l0 0 0-2.56c0-5.12 2.56-5.12 2.56-7.68 2.56-5.12 7.68-7.68 12.8-12.8 5.12-5.12 12.8-7.68 20.48-12.8 7.68-5.12 15.36-10.24 20.48-17.92 7.68-7.68 12.8-17.92 12.8-28.16 2.56-12.8 0-20.48-5.12-30.72-7.68-17.92-17.92-28.16-25.6-38.4-10.24-10.24-17.92-15.36-23.04-20.48-5.12-5.12-10.24-5.12-10.24-5.12l-2.56 2.56c0 0 2.56 2.56 7.68 10.24 5.12 5.12 10.24 15.36 15.36 25.6 5.12 10.24 12.8 23.04 15.36 35.84 2.56 5.12 2.56 12.8 0 17.92 0 5.12-2.56 10.24-7.68 15.36-7.68 10.24-23.04 20.48-33.28 33.28-5.12 5.12-12.8 12.8-15.36 23.04-2.56 5.12-2.56 10.24-2.56 12.8l0 2.56 0 0c0 2.56 0 0 0 2.56l0 2.56c0 2.56 0 5.12 0 5.12 2.56 15.36 10.24 23.04 15.36 30.72C696.32 816.64 698.88 819.2 698.88 819.2L701.44 816.64zM998.4 535.04 25.6 535.04c-15.36 0-25.6-10.24-25.6-25.6 0 0 0-238.08 0-238.08 0-17.92 2.56-33.28 5.12-51.2 2.56-15.36 10.24-33.28 15.36-48.64 7.68-15.36 15.36-28.16 25.6-40.96 10.24-12.8 20.48-25.6 33.28-35.84 12.8-10.24 25.6-20.48 40.96-28.16 15.36-7.68 30.72-12.8 46.08-17.92 15.36-5.12 33.28-7.68 51.2-7.68 15.36 0 30.72 2.56 46.08-2.56 2.56 0 7.68-2.56 10.24-5.12 7.68-7.68 2.56-17.92-2.56-25.6-10.24-15.36-25.6-35.84-20.48-64 5.12-23.04 20.48-43.52 51.2-64 5.12-2.56 10.24-5.12 15.36-5.12 35.84 0 69.12 0 104.96 0 38.4 0 76.8 0 115.2 0 25.6 0 48.64 0 74.24 0 5.12 0 10.24 0 17.92 0 23.04 0 46.08 0 69.12 0 0 0 0 0 2.56 0 5.12 0 10.24 0 15.36 2.56 15.36 5.12 28.16 17.92 38.4 28.16 23.04 23.04 28.16 58.88 10.24 87.04-5.12 10.24-12.8 17.92-15.36 28.16 0 2.56 0 5.12 0 5.12 0 2.56 2.56 2.56 2.56 5.12 7.68 7.68 15.36 7.68 25.6 10.24 7.68 0 17.92 2.56 25.6 2.56 17.92 2.56 33.28 7.68 48.64 12.8 30.72 12.8 58.88 30.72 84.48 51.2 23.04 23.04 43.52 48.64 58.88 79.36 15.36 30.72 23.04 64 25.6 97.28 0 5.12 0 10.24 0 15.36l0 207.36C1024 524.8 1013.76 535.04 998.4 535.04zM975.36 302.08c0-5.12 0-12.8 0-17.92 0-5.12 0-12.8-2.56-17.92 0-5.12-2.56-10.24-2.56-17.92-2.56-5.12-2.56-10.24-5.12-15.36-2.56-5.12-5.12-10.24-5.12-15.36-2.56-5.12-5.12-10.24-7.68-15.36-2.56-5.12-5.12-10.24-7.68-15.36-2.56-5.12-5.12-10.24-10.24-12.8-2.56-5.12-7.68-7.68-10.24-12.8-2.56-5.12-7.68-7.68-10.24-10.24-2.56-2.56-7.68-7.68-12.8-10.24-7.68-7.68-15.36-12.8-25.6-17.92-17.92-10.24-38.4-20.48-56.32-25.6-12.8-2.56-28.16-5.12-43.52-5.12-10.24 0-17.92 0-28.16-5.12-7.68-5.12-17.92-10.24-25.6-17.92-12.8-12.8-20.48-28.16-23.04-46.08 0-7.68 5.12-20.48 7.68-28.16 2.56-10.24 7.68-17.92 12.8-28.16 2.56-5.12 7.68-10.24 7.68-17.92 0-2.56-2.56-5.12-2.56-7.68C706.56-76.8 660.48-76.8 645.12-76.8c-15.36 0-28.16 0-43.52 0-33.28 0-66.56 0-99.84 0 0 0-2.56 0-2.56 0-20.48 0-38.4 0-58.88 0-2.56 0-7.68 0-10.24 0-33.28 0-64 0-97.28 0-15.36 0-33.28 23.04-28.16 38.4 2.56 5.12 7.68 10.24 10.24 15.36 12.8 15.36 17.92 38.4 12.8 58.88-5.12 20.48-20.48 35.84-40.96 46.08-5.12 2.56-7.68 2.56-12.8 5.12-7.68 2.56-40.96 5.12-51.2 5.12-5.12 0-10.24 0-15.36 2.56-25.6 2.56-51.2 12.8-71.68 25.6-15.36 7.68-28.16 20.48-38.4 30.72-30.72 33.28-46.08 76.8-46.08 120.32l0 186.88c0 15.36 10.24 25.6 25.6 25.6l870.4 0c15.36 0 25.6-10.24 25.6-25.6L972.8 302.08z"  horiz-adv-x="1024" />

    
    <glyph glyph-name="fruits" unicode="&#58949;" d="M465.92 652.8c-2.56 0-2.56 0-5.12 0-12.8 2.56-23.04 15.36-20.48 30.72C476.16 880.64 634.88 896 637.44 896c15.36 0 25.6-10.24 28.16-23.04 0-12.8-10.24-25.6-23.04-28.16-5.12 0-122.88-12.8-151.04-171.52C488.96 660.48 476.16 652.8 465.92 652.8zM279.04 844.8c64 0 97.28-28.16 97.28-38.4S343.04 768 279.04 768 184.32 796.16 184.32 806.4 217.6 844.8 279.04 844.8M279.04 896C197.12 896 133.12 855.04 133.12 806.4S197.12 716.8 279.04 716.8s148.48 40.96 148.48 89.6S360.96 896 279.04 896L279.04 896zM463.36-128C463.36-128 463.36-128 463.36-128c-120.32 0-232.96 46.08-312.32 130.56-84.48 89.6-128 215.04-117.76 350.72 7.68 110.08 40.96 189.44 102.4 238.08 79.36 61.44 174.08 51.2 202.24 46.08 64-12.8 122.88-33.28 145.92-43.52 23.04 12.8 84.48 38.4 161.28 53.76 102.4 20.48 232.96-33.28 273.92-153.6 35.84-110.08 33.28-294.4-38.4-401.92C806.4-12.8 709.12-128 463.36-128zM289.28 593.92c-33.28 0-81.92-7.68-120.32-38.4-51.2-38.4-79.36-107.52-84.48-202.24C74.24 230.4 112.64 117.76 186.88 38.4c69.12-74.24 166.4-115.2 273.92-115.2 0 0 0 0 0 0 222.72 0 302.08 94.72 371.2 197.12 58.88 92.16 66.56 261.12 33.28 358.4-30.72 94.72-135.68 135.68-215.04 120.32-89.6-17.92-156.16-53.76-156.16-53.76-7.68-5.12-15.36-5.12-23.04 0 0 0-69.12 30.72-145.92 43.52C320 591.36 307.2 593.92 289.28 593.92z"  horiz-adv-x="1024" />

    
    <glyph glyph-name="snacks" unicode="&#58951;" d="M1021.44 448c2.56 7.68 2.56 17.92-5.12 25.6C829.44 675.84 624.64 688.64 614.4 688.64c0 0-2.56 0-2.56 0-30.72 43.52-79.36 71.68-135.68 71.68-20.48 0-40.96-5.12-58.88-10.24-2.56 5.12-7.68 7.68-10.24 12.8-7.68 7.68-15.36 17.92-25.6 25.6-10.24 7.68-20.48 17.92-30.72 25.6-10.24 7.68-23.04 15.36-33.28 20.48L296.96 844.8l-17.92 7.68c-12.8 5.12-25.6 7.68-35.84 12.8C217.6 870.4 197.12 872.96 176.64 875.52 156.16 878.08 140.8 875.52 128 875.52c-5.12 0-10.24 0-12.8 0-2.56 0-5.12 0-5.12 0-5.12 0-10.24-5.12-10.24-10.24 0-5.12 5.12-10.24 10.24-10.24 0 0 23.04 2.56 61.44-2.56 17.92-2.56 38.4-7.68 61.44-15.36 10.24-5.12 23.04-7.68 33.28-12.8L281.6 814.08l15.36-10.24c10.24-5.12 20.48-12.8 28.16-20.48 10.24-7.68 17.92-15.36 25.6-23.04 7.68-7.68 15.36-17.92 20.48-25.6 2.56-2.56 2.56-5.12 5.12-7.68-40.96-30.72-66.56-79.36-66.56-133.12 0-17.92 2.56-35.84 7.68-53.76L7.68 215.04C2.56 209.92 0 202.24 0 197.12l0-281.6c0-7.68 2.56-15.36 10.24-20.48 5.12-2.56 10.24-5.12 15.36-5.12 2.56 0 5.12 0 7.68 0l972.8 266.24c10.24 2.56 17.92 12.8 17.92 23.04L1024 442.88C1024 445.44 1024 445.44 1021.44 448zM404.48 683.52c2.56-5.12 5.12-7.68 5.12-12.8 5.12-10.24 7.68-15.36 7.68-15.36l0-2.56c0 0 0 0 0-2.56 7.68-12.8 23.04-15.36 33.28-7.68s15.36 23.04 7.68 33.28c0 0-2.56 5.12-10.24 15.36-2.56 2.56-2.56 7.68-5.12 10.24 10.24 2.56 17.92 2.56 28.16 2.56 64 0 115.2-51.2 115.2-115.2 0-64-51.2-115.2-115.2-115.2-64 0-115.2 51.2-115.2 115.2C360.96 632.32 378.88 663.04 404.48 683.52zM345.6 494.08c30.72-40.96 76.8-66.56 130.56-66.56 92.16 0 166.4 74.24 166.4 166.4 0 15.36-2.56 28.16-5.12 40.96 53.76-10.24 192-46.08 325.12-176.64L102.4 240.64 345.6 494.08zM972.8 202.24 51.2-51.2l0 227.84L972.8 409.6 972.8 202.24z"  horiz-adv-x="1024" />

    
    <glyph glyph-name="choosewithoutcircle" unicode="&#58952;" d="M852.48 696.32C739.84 665.6 409.6 312.32 409.6 312.32s-120.32 102.4-151.04 117.76c-28.16 15.36-35.84 2.56-35.84 2.56l-61.44-51.2L460.8 69.12 872.96 652.8 852.48 696.32z"  horiz-adv-x="1024" />

    
    <glyph glyph-name="accept" unicode="&#58953;" d="M458.24 519.68 138.24 519.68c-15.36 0-25.6-10.24-25.6-25.6 0-15.36 10.24-25.6 25.6-25.6l320 0c15.36 0 25.6 10.24 25.6 25.6C483.84 506.88 471.04 519.68 458.24 519.68zM458.24 253.44 138.24 253.44c-15.36 0-25.6-10.24-25.6-25.6s10.24-25.6 25.6-25.6l320 0c15.36 0 25.6 10.24 25.6 25.6S471.04 253.44 458.24 253.44zM732.16 189.44c-15.36 0-25.6-10.24-25.6-25.6 0 0 0 0 0-2.56l0 0 0-99.84c0-15.36-12.8-30.72-30.72-30.72L81.92 30.72c-15.36 0-30.72 12.8-30.72 30.72L51.2 706.56c0 15.36 12.8 30.72 30.72 30.72l596.48 0c15.36 0 30.72-12.8 30.72-30.72l0-115.2c0-15.36 10.24-25.6 25.6-25.6s25.6 10.24 25.6 25.6L760.32 706.56c0 46.08-35.84 81.92-81.92 81.92L81.92 788.48C35.84 788.48 0 750.08 0 706.56l0-645.12c0-46.08 35.84-81.92 81.92-81.92l596.48 0c46.08 0 81.92 35.84 81.92 81.92l0 99.84 0 0c0 0 0 0 0 2.56C757.76 176.64 747.52 189.44 732.16 189.44zM1016.32 555.52c-10.24 10.24-25.6 10.24-35.84 0l-245.76-245.76-138.24 130.56c-10.24 10.24-25.6 10.24-35.84-2.56-10.24-10.24-10.24-25.6 2.56-35.84l156.16-145.92c5.12-5.12 10.24-7.68 17.92-7.68 7.68 0 12.8 2.56 17.92 7.68l261.12 263.68C1026.56 529.92 1026.56 545.28 1016.32 555.52z"  horiz-adv-x="1024" />

    
    <glyph glyph-name="obligation" unicode="&#58954;" d="M862.72 806.4 161.28 806.4C71.68 806.4 0 734.72 0 647.68l0-524.8c0-89.6 71.68-161.28 161.28-161.28l704 0c89.6 0 161.28 71.68 161.28 161.28l0 197.12 0 130.56L1026.56 647.68C1024 734.72 952.32 806.4 862.72 806.4zM862.72 12.8 161.28 12.8c-58.88 0-110.08 48.64-110.08 110.08L51.2 647.68c0 58.88 48.64 107.52 110.08 107.52l704 0c58.88 0 110.08-48.64 110.08-107.52l0-148.48-253.44 0c-25.6 0-48.64-20.48-48.64-48.64l0-130.56c0-25.6 20.48-48.64 48.64-48.64L972.8 271.36l0-148.48C972.8 61.44 924.16 12.8 862.72 12.8zM972.8 322.56l-248.32 0 0 122.88L972.8 445.44 972.8 322.56zM783.36 384m-25.6 0a1 1 0 1 0 51.2 0 1 1 0 1 0-51.2 0Z"  horiz-adv-x="1027" />

    
    <glyph glyph-name="orders" unicode="&#58955;" d="M808.219451 844.927681c51.072319 0 94.483791-40.857855 94.483791-94.483791l0-732.887781c0-51.072319-40.857855-94.483791-94.483791-94.483791L215.780549-76.927681c-51.072319 0-94.483791 40.857855-94.483791 94.483791L121.296758 750.44389c0 51.072319 40.857855 94.483791 94.483791 94.483791L808.219451 844.927681M808.219451 896 215.780549 896C134.064838 896 70.224439 832.159601 70.224439 750.44389l0-732.887781c0-79.162095 63.840399-145.55611 145.55611-145.55611l594.992519 0c79.162095 0 145.55611 63.840399 145.55611 145.55611L956.329177 750.44389C953.775561 832.159601 889.935162 896 808.219451 896L808.219451 896zM264.299252 645.745636m-25.53616 0a1 1 0 1 0 51.072319 0 1 1 0 1 0-51.072319 0ZM757.147132 620.209476 353.67581 620.209476c-15.321696 0-25.53616 10.214464-25.53616 25.53616l0 0c0 15.321696 10.214464 25.53616 25.53616 25.53616l406.024938 0c15.321696 0 25.53616-10.214464 25.53616-25.53616l0 0C782.683292 630.42394 772.468828 620.209476 757.147132 620.209476zM266.852868 385.276808m-25.53616 0a1 1 0 1 0 51.072319 0 1 1 0 1 0-51.072319 0ZM759.700748 359.740648 356.229426 359.740648c-15.321696 0-25.53616 10.214464-25.53616 25.53616l0 0c0 15.321696 10.214464 25.53616 25.53616 25.53616l406.024938 0c15.321696 0 25.53616-10.214464 25.53616-25.53616l0 0C785.236908 369.955112 775.022444 359.740648 759.700748 359.740648zM266.852868 124.80798m-25.53616 0a1 1 0 1 0 51.072319 0 1 1 0 1 0-51.072319 0ZM759.700748 99.27182 356.229426 99.27182c-15.321696 0-25.53616 10.214464-25.53616 25.53616l0 0c0 15.321696 10.214464 25.53616 25.53616 25.53616l406.024938 0c15.321696 0 25.53616-10.214464 25.53616-25.53616l0 0C785.236908 112.0399 775.022444 99.27182 759.700748 99.27182z"  horiz-adv-x="1024" />

    
    <glyph glyph-name="evaluate" unicode="&#58956;" d="M714.24 560.64c-30.72 28.16-58.88 38.4-84.48 38.4-69.12 0-117.76-76.8-117.76-76.8s-48.64 76.8-117.76 76.8c-25.6 0-53.76-10.24-84.48-38.4-7.68-7.68-15.36-12.8-35.84-51.2-58.88-133.12 104.96-266.24 238.08-340.48 0 0 2.56 0 2.56 0 2.56 0 7.68 2.56 10.24 5.12 5.12 2.56 7.68 5.12 12.8 7.68 7.68 5.12 17.92 10.24 25.6 15.36 20.48 12.8 40.96 28.16 58.88 40.96 20.48 15.36 38.4 30.72 56.32 48.64 15.36 15.36 33.28 33.28 46.08 51.2 12.8 17.92 23.04 35.84 30.72 56.32 7.68 17.92 12.8 38.4 12.8 58.88 0 20.48-5.12 40.96-12.8 58.88C732.16 547.84 721.92 552.96 714.24 560.64zM704 412.16c-5.12-15.36-12.8-28.16-25.6-43.52-10.24-15.36-23.04-30.72-40.96-46.08-15.36-15.36-30.72-28.16-51.2-43.52-17.92-12.8-35.84-25.6-56.32-38.4-7.68-5.12-12.8-7.68-20.48-12.8-120.32 74.24-227.84 176.64-194.56 261.12 12.8 25.6 20.48 30.72 23.04 33.28l2.56 2.56c17.92 15.36 33.28 25.6 48.64 25.6 33.28 0 66.56-38.4 74.24-53.76 7.68-12.8 20.48-20.48 35.84-23.04 2.56 0 5.12 0 10.24 0 17.92 0 35.84 10.24 46.08 28.16 0 0 0 0 0 0 12.8 15.36 43.52 48.64 71.68 48.64 15.36 0 30.72-7.68 48.64-25.6l2.56-2.56c5.12-2.56 10.24-7.68 23.04-33.28 5.12-12.8 7.68-23.04 7.68-35.84C711.68 437.76 709.12 424.96 704 412.16zM934.4 97.28C990.72 179.2 1024 276.48 1024 384 1024 665.6 793.6 896 512 896S0 665.6 0 384s230.4-512 512-512c104.96 0 202.24 33.28 284.16 87.04l176.64-69.12c2.56 0 5.12-2.56 10.24-2.56 7.68 0 12.8 2.56 17.92 7.68 7.68 7.68 10.24 17.92 5.12 28.16L934.4 97.28zM803.84 12.8c0 0-2.56 2.56-10.24 2.56-7.68 0-12.8-2.56-17.92-7.68 0 0-115.2-84.48-266.24-84.48-253.44 0-460.8 207.36-460.8 460.8 0 253.44 207.36 460.8 460.8 460.8 253.44 0 460.8-207.36 460.8-460.8 0-102.4-33.28-194.56-89.6-271.36 0 0-2.56-5.12-5.12-12.8 0-5.12 0-7.68 2.56-10.24l53.76-128L803.84 12.8z"  horiz-adv-x="1024" />

    
    <glyph glyph-name="emailbox" unicode="&#58957;" d="M919.04 727.04 104.96 727.04C48.64 727.04 0 678.4 0 622.08l0-473.6c0-58.88 48.64-104.96 104.96-104.96l811.52 0c58.88 0 104.96 48.64 104.96 104.96L1021.44 622.08C1024 678.4 975.36 727.04 919.04 727.04zM691.2 368.64 972.8 614.4l0-468.48c0-10.24-2.56-17.92-7.68-25.6L691.2 368.64zM919.04 675.84c12.8 0 25.6-5.12 35.84-12.8 0 0 0 0 0 0L565.76 320c-15.36-12.8-33.28-20.48-53.76-20.48s-40.96 7.68-53.76 20.48L71.68 663.04c0 0 0 0 0 0 10.24 7.68 20.48 12.8 35.84 12.8L919.04 675.84zM56.32 125.44C53.76 130.56 51.2 138.24 51.2 145.92L51.2 616.96l279.04-245.76L56.32 125.44zM104.96 92.16c-2.56 0-5.12 0-7.68 0l271.36 243.2 53.76-48.64c25.6-23.04 58.88-33.28 89.6-33.28s66.56 10.24 89.6 33.28l51.2 43.52L921.6 92.16c0 0-2.56 0-2.56 0L104.96 92.16z"  horiz-adv-x="1024" />

    
    <glyph glyph-name="service" unicode="&#58962;" d="M844.8 401.92c0 181.76-148.48 330.24-330.24 330.24C332.8 732.16 184.32 583.68 184.32 401.92c0-181.76 148.48-327.68 330.24-327.68C696.32 74.24 844.8 220.16 844.8 401.92zM514.56 122.88c-153.6 0-279.04 125.44-279.04 279.04S360.96 680.96 514.56 680.96 793.6 555.52 793.6 401.92 668.16 122.88 514.56 122.88zM934.4 491.52c-10.24 2.56-17.92 10.24-20.48 20.48C862.72 686.08 701.44 811.52 512 811.52c-192 0-350.72-128-401.92-302.08-2.56-10.24-10.24-17.92-20.48-20.48 0 0-89.6-20.48-89.6-117.76 0-69.12 56.32-122.88 122.88-122.88 7.68 0 15.36 0 23.04 2.56 2.56 0 2.56 0 2.56 0l0 2.56c-17.92 43.52-28.16 92.16-28.16 143.36 0 215.04 176.64 391.68 391.68 391.68s391.68-176.64 391.68-391.68c0-161.28-99.84-302.08-240.64-360.96-23.04-7.68-35.84-7.68-56.32-5.12-20.48 0-30.72 2.56-30.72 2.56l-2.56 0c-20.48 0-38.4-17.92-38.4-38.4s17.92-38.4 38.4-38.4c7.68 0 15.36 2.56 20.48 5.12 43.52 33.28 81.92 51.2 81.92 51.2 92.16 38.4 166.4 110.08 209.92 199.68 0 0 10.24 28.16 51.2 40.96 0 0 87.04 28.16 87.04 117.76C1024 471.04 934.4 491.52 934.4 491.52zM660.48 273.92c-7.68 0-12.8-7.68-12.8-7.68-30.72-38.4-76.8-64-130.56-64-53.76 0-99.84 25.6-130.56 64 0 0-5.12 5.12-10.24 5.12-7.68 0-12.8-5.12-12.8-12.8 0-5.12 2.56-7.68 5.12-10.24 35.84-43.52 89.6-71.68 148.48-71.68 61.44 0 117.76 30.72 151.04 74.24 2.56 2.56 5.12 5.12 5.12 10.24C673.28 268.8 668.16 273.92 660.48 273.92zM683.52 291.84m-12.8 0a0.5 0.5 0 1 0 25.6 0 0.5 0.5 0 1 0-25.6 0Z"  horiz-adv-x="1024" />

    
    <glyph glyph-name="unlock" unicode="&#58963;" d="M819.2 504.32 263.68 504.32l0 120.32C276.48 747.52 371.2 844.8 488.96 844.8s215.04-97.28 225.28-220.16l0-38.4 48.64 0 0 38.4C752.64 775.68 634.88 896 488.96 896 345.6 896 227.84 775.68 217.6 624.64l0-120.32L204.8 504.32c-56.32 0-104.96-46.08-104.96-104.96l0-424.96C99.84-81.92 145.92-128 204.8-128L819.2-128c56.32 0 104.96 46.08 104.96 104.96L924.16 401.92C924.16 458.24 878.08 504.32 819.2 504.32zM872.96-23.04c0-28.16-23.04-53.76-53.76-53.76L204.8-76.8c-28.16 0-53.76 23.04-53.76 53.76L151.04 401.92c0 28.16 23.04 53.76 53.76 53.76l12.8 0 46.08 0L819.2 455.68c28.16 0 53.76-23.04 53.76-53.76L872.96-23.04zM509.44 330.24c-46.08 0-84.48-38.4-84.48-84.48 0-28.16 15.36-56.32 38.4-69.12L463.36 102.4c0-25.6 20.48-46.08 46.08-46.08s46.08 20.48 46.08 46.08l0 71.68c23.04 15.36 38.4 40.96 38.4 69.12C593.92 291.84 558.08 330.24 509.44 330.24zM532.48 192l0-25.6c0 0 0 0 2.56 0l-2.56 0L532.48 102.4c0-10.24-10.24-20.48-20.48-20.48s-20.48 10.24-20.48 20.48l0 61.44 0 0 0 25.6c-23.04 7.68-38.4 30.72-38.4 53.76 0 33.28 25.6 58.88 58.88 58.88s58.88-25.6 58.88-58.88C568.32 220.16 552.96 199.68 532.48 192z"  horiz-adv-x="1024" />

    
    <glyph glyph-name="car" unicode="&#58964;" d="M947.2 478.72 947.2 478.72c-12.8 5.12-23.04 12.8-25.6 25.6l0 0c0 0 0 2.56 0 2.56l-99.84 256c-7.68 20.48-28.16 35.84-51.2 35.84L256 798.72c-23.04 0-43.52-12.8-51.2-35.84L102.4 506.88c0 0 0-2.56 0-2.56l0 0c-5.12-12.8-15.36-20.48-25.6-25.6l0 0c-43.52-12.8-76.8-53.76-76.8-102.4l0-217.6c0-38.4 30.72-71.68 71.68-71.68l61.44 0 0-89.6c0-15.36 10.24-25.6 25.6-25.6 15.36 0 25.6 10.24 25.6 25.6l0 89.6 657.92 0 0-89.6c0-15.36 10.24-25.6 25.6-25.6 15.36 0 25.6 10.24 25.6 25.6l0 89.6 58.88 0c38.4 0 71.68 30.72 71.68 71.68l0 217.6C1024 424.96 990.72 465.92 947.2 478.72zM250.88 742.4c0 0 0 2.56 5.12 2.56L768 744.96c2.56 0 5.12-2.56 5.12-2.56l97.28-253.44c-2.56-2.56-5.12-5.12-10.24-5.12L163.84 483.84c-5.12 0-10.24 2.56-10.24 5.12L250.88 742.4zM972.8 158.72c0-10.24-10.24-20.48-20.48-20.48L71.68 138.24c-10.24 0-20.48 10.24-20.48 20.48l0 217.6c0 30.72 25.6 56.32 56.32 56.32l56.32 0 698.88 0 56.32 0c30.72 0 56.32-25.6 56.32-56.32L975.36 158.72zM250.88 281.6m-48.64 0a1.9 1.9 0 1 0 97.28 0 1.9 1.9 0 1 0-97.28 0ZM801.28 281.6m-48.64 0a1.9 1.9 0 1 0 97.28 0 1.9 1.9 0 1 0-97.28 0Z"  horiz-adv-x="1024" />

    
    <glyph glyph-name="health" unicode="&#58965;" d="M972.8 680.96c-71.68 81.92-148.48 122.88-230.4 122.88 0 0-2.56 0-2.56 0-107.52 0-192-71.68-225.28-104.96-33.28 33.28-117.76 104.96-225.28 104.96 0 0-2.56 0-2.56 0-81.92 0-161.28-40.96-230.4-122.88-43.52-48.64-58.88-104.96-48.64-168.96 35.84-250.88 473.6-529.92 491.52-542.72 5.12-2.56 7.68-5.12 12.8-5.12l7.68 0c5.12 0 10.24 2.56 12.8 5.12 17.92 12.8 455.68 289.28 491.52 542.72C1031.68 573.44 1013.76 632.32 972.8 680.96zM512 20.48c-38.4 25.6-168.96 115.2-281.6 225.28l79.36 0c10.24 0 20.48 5.12 23.04 15.36l87.04 202.24 115.2-291.84c5.12-10.24 12.8-15.36 23.04-15.36 0 0 0 0 0 0 10.24 0 20.48 7.68 23.04 17.92l51.2 148.48 38.4-69.12c5.12-7.68 12.8-12.8 23.04-12.8l92.16 0C675.84 130.56 547.84 43.52 512 20.48zM970.24 517.12c-10.24-74.24-64-153.6-133.12-227.84l-128 0-58.88 107.52c-5.12 7.68-15.36 12.8-25.6 12.8-10.24 0-17.92-7.68-23.04-17.92l-48.64-138.24L445.44 537.6c-5.12 10.24-12.8 15.36-23.04 15.36-10.24 0-20.48-5.12-23.04-15.36l-104.96-243.2L181.76 294.4c-66.56 71.68-117.76 151.04-128 222.72-7.68 48.64 5.12 92.16 38.4 128C151.04 716.8 217.6 752.64 284.16 752.64c0 0 0 0 2.56 0 115.2 0 202.24-102.4 204.8-104.96 5.12-5.12 12.8-10.24 20.48-10.24l7.68 0c7.68 0 15.36 2.56 20.48 10.24 0 0 87.04 102.4 204.8 104.96 0 0 0 0 2.56 0 66.56 0 133.12-35.84 192-104.96C965.12 609.28 977.92 568.32 970.24 517.12z"  horiz-adv-x="1026" />

    
    <glyph glyph-name="individuality" unicode="&#58966;" d="M632.01995 201.416459l237.486284 173.645885c7.660848 7.660848 12.76808 17.875312 10.214464 28.089776-2.553616 10.214464-12.76808 17.875312-25.53616 17.875312l-283.451372-2.553616L471.142145 684.049875c-2.553616 10.214464-15.321696 15.321696-22.982544 15.321696-10.214464 0-20.428928-7.660848-22.982544-17.875312l-91.930175-268.129676L47.241895 413.366584c-10.214464 0-20.428928-7.660848-22.982544-17.875312-2.553616-10.214464 0-20.428928 10.214464-28.089776l234.932668-173.645885L177.476309-92.249377c-2.553616-10.214464 0-20.428928 10.214464-28.089776 7.660848-7.660848 20.428928-7.660848 30.643392 0l234.932668 163.431421 242.593516-165.985037c5.107232-2.553616 10.214464-5.107232 15.321696-5.107232 5.107232 0 10.214464 2.553616 15.321696 5.107232 7.660848 7.660848 12.76808 17.875312 7.660848 28.089776L632.01995 201.416459zM466.034913 96.718204c-5.107232 2.553616-10.214464 5.107232-15.321696 5.107232-5.107232 0-10.214464-2.553616-15.321696-5.107232l-188.967581-130.234414 71.501247 229.825436c2.553616 10.214464 0 20.428928-10.214464 28.089776l-188.967581 140.448878 227.27182 2.553616c10.214464 0 20.428928 7.660848 22.982544 17.875312l74.054863 217.057357 79.162095-214.503741c2.553616-10.214464 12.76808-15.321696 22.982544-15.321696 0 0 0 0 0 0l222.164589 2.553616L586.054863 232.05985c-7.660848-7.660848-12.76808-17.875312-7.660848-28.089776l81.715711-240.0399L466.034913 96.718204zM550.304239 668.72818l117.466334-38.304239 45.965087-127.680798c2.553616-10.214464 12.76808-17.875312 22.982544-17.875312 0 0 0 0 0 0 10.214464 0 20.428928 7.660848 22.982544 17.875312l43.411471 122.573566 120.01995 40.857855c10.214464 2.553616 17.875312 12.76808 17.875312 25.53616 0 10.214464-7.660848 20.428928-20.428928 22.982544l-117.466334 28.089776-48.518703 132.78803C752.0399 888.339152 741.825436 896 731.610973 896c-10.214464 0-20.428928-7.660848-22.982544-17.875312l-35.750623-127.680798L550.304239 717.246883c-10.214464-2.553616-17.875312-12.76808-17.875312-22.982544C532.428928 681.496259 540.089776 671.281796 550.304239 668.72818zM698.413965 704.478803c7.660848 2.553616 15.321696 10.214464 17.875312 17.875312l17.875312 63.840399 25.53616-71.501247c2.553616-7.660848 10.214464-15.321696 17.875312-15.321696l48.518703-12.76808-51.072319-17.875312c-7.660848-2.553616-12.76808-7.660848-15.321696-15.321696L736.718204 589.566085l-25.53616 71.501247c-2.553616 7.660848-7.660848 12.76808-15.321696 15.321696l-48.518703 15.321696L698.413965 704.478803zM984.418953 117.147132l-71.501247 17.875312-28.089776 81.715711c-2.553616 10.214464-12.76808 17.875312-25.53616 17.875312-10.214464 0-20.428928-7.660848-22.982544-17.875312l-20.428928-76.608479L741.825436 117.147132c-10.214464-2.553616-17.875312-12.76808-17.875312-22.982544 0-10.214464 7.660848-20.428928 17.875312-25.53616l71.501247-22.982544 28.089776-76.608479c2.553616-10.214464 12.76808-17.875312 22.982544-17.875312 0 0 0 0 0 0 10.214464 0 20.428928 7.660848 22.982544 17.875312l25.53616 74.054863 74.054863 25.53616c10.214464 2.553616 17.875312 12.76808 17.875312 25.53616C1002.294264 104.379052 994.633416 114.593516 984.418953 117.147132zM884.82793 86.503741c-7.660848-2.553616-12.76808-7.660848-15.321696-15.321696L861.845387 53.306733l-7.660848 20.428928c-2.553616 7.660848-7.660848 12.76808-15.321696 15.321696l-2.553616 0 2.553616 0c7.660848 2.553616 15.321696 10.214464 17.875312 17.875312l2.553616 12.76808L869.506234 104.379052c2.553616-7.660848 10.214464-12.76808 17.875312-15.321696L884.82793 86.503741zM65.117207 625.316708l71.501247-22.982544 28.089776-76.608479c2.553616-10.214464 12.76808-17.875312 22.982544-17.875312 0 0 0 0 0 0 10.214464 0 20.428928 7.660848 22.982544 17.875312l25.53616 74.054863 74.054863 25.53616c10.214464 2.553616 17.875312 12.76808 17.875312 25.53616 0 10.214464-7.660848 20.428928-20.428928 22.982544L236.209476 691.710723 208.119701 773.426434C205.566085 783.640898 195.351621 788.74813 182.583541 788.74813c-10.214464 0-20.428928-7.660848-22.982544-17.875312l-20.428928-76.608479L67.670823 673.835411C54.902743 671.281796 49.795511 661.067332 47.241895 650.852868 47.241895 638.084788 54.902743 630.42394 65.117207 625.316708zM167.261845 648.299252C174.922693 650.852868 182.583541 658.513716 185.137157 666.174564l2.553616 12.76808 7.660848-17.875312c2.553616-7.660848 10.214464-12.76808 17.875312-15.321696l-2.553616 0c-7.660848-2.553616-12.76808-7.660848-15.321696-15.321696l-5.107232-17.875312L180.029925 630.42394C177.476309 638.084788 172.369077 645.745636 167.261845 648.299252l-2.553616 0L167.261845 648.299252z"  horiz-adv-x="1024" />

    
    <glyph glyph-name="analyze" unicode="&#58967;" d="M729.6 591.36 130.56 591.36c-10.24 0-17.92 7.68-17.92 17.92s7.68 17.92 17.92 17.92l596.48 0c10.24 0 17.92-7.68 17.92-17.92S737.28 591.36 729.6 591.36zM381.44 488.96c2.56 0 5.12-2.56 5.12-5.12l0-102.4c0-2.56-2.56-5.12-5.12-5.12L156.16 376.32c-2.56 0-5.12 2.56-5.12 5.12l0 102.4c0 2.56 2.56 5.12 5.12 5.12L381.44 488.96M381.44 522.24 156.16 522.24c-23.04 0-40.96-17.92-40.96-40.96l0-102.4c0-23.04 17.92-40.96 40.96-40.96l225.28 0c23.04 0 40.96 17.92 40.96 40.96l0 102.4C422.4 504.32 404.48 522.24 381.44 522.24L381.44 522.24zM729.6 476.16l-245.76 0c-10.24 0-17.92 7.68-17.92 17.92s7.68 17.92 17.92 17.92l245.76 0c10.24 0 17.92-7.68 17.92-17.92S737.28 476.16 729.6 476.16zM729.6 353.28l-243.2 0c-10.24 0-17.92 7.68-17.92 17.92 0 10.24 7.68 17.92 17.92 17.92l243.2 0c10.24 0 17.92-7.68 17.92-17.92C744.96 360.96 737.28 353.28 729.6 353.28zM1024 529.92c0 12.8-2.56 23.04-10.24 33.28-5.12 10.24-15.36 17.92-25.6 20.48-7.68 2.56-15.36 5.12-23.04 5.12l-107.52 0L857.6 704c0 28.16-23.04 51.2-51.2 51.2L51.2 755.2c-28.16 0-51.2-23.04-51.2-51.2l0-640c0-28.16 23.04-51.2 51.2-51.2l821.76 0c2.56 0 2.56 0 5.12 0l89.6 0c28.16 0 48.64 17.92 53.76 43.52 2.56 5.12 2.56 10.24 2.56 15.36L1024 529.92zM857.6 69.12 857.6 535.04c0 10.24 10.24 20.48 20.48 20.48l89.6 0c2.56 0 5.12 0 7.68-2.56 0 0 2.56 0 2.56 0 0 0 2.56 0 2.56-2.56 2.56 0 2.56-2.56 2.56-2.56 2.56-2.56 5.12-7.68 5.12-12.8l0-465.92c0-2.56 0-5.12 0-5.12-5.12-7.68-12.8-12.8-23.04-12.8l-89.6 0C865.28 51.2 857.6 58.88 857.6 69.12zM51.2 48.64c-7.68 0-15.36 7.68-15.36 15.36l0 640c0 7.68 7.68 15.36 15.36 15.36l755.2 0c7.68 0 15.36-7.68 15.36-15.36l0-168.96 0-440.32 0-23.04c0-7.68 2.56-12.8 2.56-20.48l-12.8 0L51.2 48.64z"  horiz-adv-x="1024" />

    
    <glyph glyph-name="share" unicode="&#58969;" d="M842.24 238.08c-61.44 0-117.76-30.72-151.04-79.36l-337.92 148.48c10.24 23.04 15.36 48.64 15.36 74.24 0 33.28-7.68 64-23.04 92.16l335.36 153.6c30.72-58.88 92.16-97.28 161.28-97.28 102.4 0 184.32 81.92 184.32 184.32S944.64 896 842.24 896s-184.32-81.92-184.32-184.32c0-12.8 2.56-25.6 2.56-35.84l-348.16-158.72c-33.28 30.72-76.8 51.2-128 51.2-102.4 0-184.32-81.92-184.32-184.32s81.92-184.32 184.32-184.32c56.32 0 107.52 25.6 140.8 66.56L668.16 115.2c-5.12-17.92-10.24-38.4-10.24-58.88 0-102.4 81.92-184.32 184.32-184.32 102.4 0 184.32 81.92 184.32 184.32C1026.56 156.16 944.64 238.08 842.24 238.08zM842.24 844.8C916.48 844.8 975.36 785.92 975.36 711.68s-58.88-133.12-133.12-133.12-133.12 58.88-133.12 133.12S770.56 844.8 842.24 844.8zM186.88 250.88C112.64 250.88 53.76 309.76 53.76 384s58.88 133.12 133.12 133.12 133.12-58.88 133.12-133.12S258.56 250.88 186.88 250.88zM842.24-76.8c-74.24 0-133.12 58.88-133.12 133.12 0 74.24 58.88 133.12 133.12 133.12 74.24 0 133.12-58.88 133.12-133.12C975.36-17.92 916.48-76.8 842.24-76.8z"  horiz-adv-x="1027" />

    
    </font>
</defs>
</svg>
