<svg id="285e20c2-5030-4880-96da-226378208714" data-name="Layer 1" xmlns="http://www.w3.org/2000/svg" xmlns:xlink="http://www.w3.org/1999/xlink" width="778" height="761.81" viewBox="0 0 778 761.81"><defs><linearGradient id="5b2bb563-03eb-43dd-9e8e-c182eb9c090d" x1="587.04" y1="773.53" x2="587.04" y2="192.37" gradientUnits="userSpaceOnUse"><stop offset="0" stop-color="gray" stop-opacity="0.25"/><stop offset="0.54" stop-color="gray" stop-opacity="0.12"/><stop offset="1" stop-color="gray" stop-opacity="0.1"/></linearGradient></defs><title>meditation</title><path d="M969.49,709.09h-745c-9.12,0-16.51,4.59-16.51,10.25v106c0,5.66,7.39,10.25,16.51,10.25h745c9.12,0,16.51-4.59,16.51-10.25v-106C986,713.67,978.61,709.09,969.49,709.09Z" transform="translate(-208 -73.82)" fill="#7386d5"/><path d="M969.49,709.09h-745c-9.12,0-16.51,4.59-16.51,10.25v106c0,5.66,7.39,10.25,16.51,10.25h745c9.12,0,16.51-4.59,16.51-10.25v-106C986,713.67,978.61,709.09,969.49,709.09Z" transform="translate(-208 -73.82)" opacity="0.2"/><rect y="635.26" width="778" height="119.12" rx="14.09" ry="14.09" fill="#7386d5"/><rect y="651.69" width="778" height="10.27" fill="#fff" opacity="0.05"/><rect y="675.65" width="778" height="10.27" fill="#fff" opacity="0.05"/><rect y="699.61" width="778" height="10.27" fill="#fff" opacity="0.05"/><rect y="723.57" width="778" height="10.27" fill="#fff" opacity="0.05"/><path d="M669.15,546.72c-3.37-1.91-7.71-4.54-12.32-7.8.15-17.14-3.4-44.28-24.29-62.87V464h1.78L636,442.7C677.43,466,679,439.54,679,439.54c-1.44-34.41-6.24-57.41-12.39-72.69l.4,0c-12.55-36-39.61-35.39-46.81-34.54A34.25,34.25,0,0,0,610,330.69h-.63v-8.21l1-.35a14.08,14.08,0,0,0-.87-4,43.13,43.13,0,0,0,19.06-14.11,44.2,44.2,0,0,0,13.58-31.67c0-16.49-9.3-30.94-23.26-39a8.94,8.94,0,0,0,.62-.72,8.59,8.59,0,0,0,3.87-7.09,9,9,0,0,0-8.79-8.75,16.52,16.52,0,0,0,1.49-6.86c0-9.7-8.4-17.56-18.76-17.56a19.48,19.48,0,0,0-11.93,4,19.7,19.7,0,0,1,8.81-2.06c10.36,0,18.76,7.86,18.76,17.56,0,.21,0,.42,0,.62-.2-9.54-8.51-17.21-18.75-17.21s-18.76,7.86-18.76,17.56a16.5,16.5,0,0,0,1.17,6.05,8.94,8.94,0,0,0-7.42,8.59,8.31,8.31,0,0,0,1.2,4.28c-15.58,7.68-26.22,23-26.22,40.6a44.29,44.29,0,0,0,14.26,32.34A43.15,43.15,0,0,0,576,317.84V330.7a34.19,34.19,0,0,0-10.74,1.83s-34-7.45-48.6,34.27h0c-6.16,15.29-11,38.3-12.41,72.74,0,0,2.74,27.18,46.84,1.48l2,23h.36v7.8h-.36L517.8,514.47,523,518l-.22.34,0,.06-.41.63,0,.06-1,1.5-.08.13-.42.66-.12.19c-15.5,24.33-59.38,101.75,22.56,83.58l66.62-46.77,4.6,185.16a27.45,27.45,0,0,1-3.26,13.63L606,767a2,2,0,0,0,1.86,2.82h30.33a4.07,4.07,0,0,0,3.28-1.62l.71,5.3h0l-.71-5.3a3.54,3.54,0,0,0,.71-2.61l-2-14.87s-5.31-39.78.3-65.47a409.64,409.64,0,0,0,8-58.19l4.83-67.6.76,0,.26-4.53,1.13.05s.2-1,.44-2.87c4.86,3.34,9.08,8.55,11.51,16.59a4.29,4.29,0,0,0,4.15,3,4.16,4.16,0,0,0,4.29-4v-9.81A12.93,12.93,0,0,0,669.15,546.72Zm-31.1-131.08,2.37-30.75,14.71,38.24ZM621.25,226.53c0,.15,0,.29,0,.43a9,9,0,0,0-7.79-8.11c.18-.29.36-.58.53-.88A8.93,8.93,0,0,1,621.25,226.53ZM533.36,422.15l12.46-41.57,3,34.39ZM561.5,544l2.2,1.48.47-.57,1.46,1,6.42-10.44L581.54,524h20.4v14.43L553.5,562.21Z" transform="translate(-208 -73.82)" opacity="0.5" fill="url(#5b2bb563-03eb-43dd-9e8e-c182eb9c090d)"/><circle cx="385.39" cy="204.26" r="44.82" fill="#f55f44"/><path d="M608.48,545,613,738.56a28.32,28.32,0,0,1-3,13.32l-4.81,9.61a1.9,1.9,0,0,0,1.7,2.75h27.74a3.68,3.68,0,0,0,3.65-4.13l-1.82-14.53s-4.86-38.88.27-64a426.13,426.13,0,0,0,7.33-56.87l5.86-87.53Z" transform="translate(-208 -73.82)" fill="#fda57d"/><rect x="349.16" y="382.53" width="72.31" height="27.99" fill="#fda57d"/><g opacity="0.05"><polygon points="429.42 687.1 429.42 687.11 430.28 694.02 430.28 694.02 429.42 687.1"/><polygon points="401.43 483.65 441.19 484.88 441.93 471.12 400.48 478.89 401.43 483.65"/></g><path d="M631.1,465.39H556.83l-8.27-100.78a29.55,29.55,0,0,1,29.55-29.55h30.71a29.55,29.55,0,0,1,29.55,29.55Z" transform="translate(-208 -73.82)" fill="#4d8af0"/><rect x="369.78" y="235.42" width="30.47" height="41.89" rx="9.6" ry="9.6" fill="#fda57d"/><path d="M556.83,473,524.5,514.67l42,30.32,16.33-21h18.66v28l49,2.33S659.79,503,627.14,475Z" transform="translate(-208 -73.82)" fill="#47e6b1"/><path d="M531.5,514.67s-72.31,109.63,16.33,88.64l74.64-56s30.66-8.76,38.93,20.41a4,4,0,0,0,3.79,2.92h0a3.93,3.93,0,0,0,3.93-3.93v-9.58a12.78,12.78,0,0,0-6.16-11c-6.85-4.14-18.09-11.78-26.66-21.82a15.36,15.36,0,0,0-21.61-1.79,27.14,27.14,0,0,0-8.55,13.08l-49,25.66,16.33-39.65Z" transform="translate(-208 -73.82)" fill="#fda57d"/><g opacity="0.05"><path d="M567.84,529.28l-16.33,39.65,49-25.66a25.55,25.55,0,0,1,2.6-6l-45.93,24.06,16.33-39.65-42-7s-1.94,2.94-4.79,7.76Z" transform="translate(-208 -73.82)"/></g><polygon points="325.43 429.34 321.31 444.31 360.26 471.55 378.35 440.13 325.43 429.34" fill="#47e6b1"/><g opacity="0.05"><path d="M558.2,353.75a29.73,29.73,0,0,1,1.3-4.61,29.47,29.47,0,0,0-10,22.13l2.82,34.34Z" transform="translate(-208 -73.82)"/></g><g opacity="0.05"><path d="M628.21,364.22a29.73,29.73,0,0,0-1.3-4.61,29.47,29.47,0,0,1,10,22.13l-2.82,34.34Z" transform="translate(-208 -73.82)"/></g><path d="M651,352.57c9.77,12.24,18.94,37.59,20.95,88.87,0,0-2.33,42-79.31-28l-2.33-47.08h0a1.7,1.7,0,0,1,2.05-1.68,9.33,9.33,0,0,1,7.28,9.1v28l50.46,23.62-22.43-62.28C625.33,349.64,642.5,341.88,651,352.57Z" transform="translate(-208 -73.82)" fill="#fda57d"/><path d="M616.55,336.86s31.15-7.28,44.46,33.49l-30.92,4.11Z" transform="translate(-208 -73.82)" fill="#4d8af0"/><path d="M538,347.45c-11.44,9.58-23.54,34.1-25.89,94,0,0,3.9,41.56,80.88-28.42l.76-46.65h0a1.7,1.7,0,0,0-2.05-1.68,9.33,9.33,0,0,0-7.28,9.1v28l-45.7,22.66,18.46-65.77C559.11,347.85,546.45,340.39,538,347.45Z" transform="translate(-208 -73.82)" fill="#fda57d"/><path d="M568,336.86s-31.15-7.28-44.46,33.49L554.93,374Z" transform="translate(-208 -73.82)" fill="#4d8af0"/><rect x="384.06" y="291.59" width="0.95" height="47.61" opacity="0.05"/><path d="M594.42,329.54a39.52,39.52,0,0,0,14.73-2.84A14.6,14.6,0,0,0,594.59,313h-1.25a14.61,14.61,0,0,0-14.54,13.29A39.52,39.52,0,0,0,594.42,329.54Z" transform="translate(-208 -73.82)" opacity="0.05"/><circle cx="385.47" cy="212.26" r="39.65" fill="#fda57d"/><circle cx="372.04" cy="160.39" r="8.58" fill="#f55f44"/><circle cx="402.56" cy="160.39" r="8.58" fill="#f55f44"/><circle cx="386.34" cy="146.09" r="17.17" fill="#f55f44"/><path d="M612.46,223.73a8.54,8.54,0,0,0-4.79,1.46,8.58,8.58,0,0,1,7.67,15.2,8.58,8.58,0,0,0-2.88-16.66Z" transform="translate(-208 -73.82)" fill="#f55f44"/><path d="M597.2,199.89a17.1,17.1,0,0,0-10.92,3.92,17.16,17.16,0,0,1,19,28.4,17.16,17.16,0,0,0-8.06-32.32Z" transform="translate(-208 -73.82)" fill="#f55f44"/><path d="M564.78,250.43s4.77,31.47,64.85,14.3L600.06,239Z" transform="translate(-208 -73.82)" fill="#f55f44"/><g opacity="0.5"><path d="M868.14,282.9a10.89,10.89,0,0,0-14.21,1.32,11.13,11.13,0,0,0,.44,15.51L868,313.24a2.27,2.27,0,0,0,3.21,0l13.5-13.58a11.13,11.13,0,0,0,.35-15.51,10.89,10.89,0,0,0-14.21-1.24A2.29,2.29,0,0,1,868.14,282.9Z" transform="translate(-208 -73.82)" fill="#f55f44"/><path d="M869.65,312.7a2,2,0,0,0,0,1.9,8.78,8.78,0,0,1,.53.88c.35.87-.26,1.82-.88,2.53-.39.45-.83,1.06-.57,1.6a2,2,0,0,0,.46.52,3.35,3.35,0,0,1-1.28,5.58" transform="translate(-208 -73.82)" fill="none" stroke="#f55f44" stroke-miterlimit="10"/></g><g opacity="0.5"><path d="M288.14,356.9a10.89,10.89,0,0,0-14.21,1.32,11.13,11.13,0,0,0,.44,15.51L288,387.24a2.27,2.27,0,0,0,3.21,0l13.5-13.58a11.13,11.13,0,0,0,.35-15.51,10.89,10.89,0,0,0-14.21-1.24A2.29,2.29,0,0,1,288.14,356.9Z" transform="translate(-208 -73.82)" fill="#f55f44"/><path d="M289.65,386.7a2,2,0,0,0,0,1.9,8.78,8.78,0,0,1,.53.88c.35.87-.26,1.82-.88,2.53-.39.45-.83,1.06-.57,1.6a2,2,0,0,0,.46.52,3.35,3.35,0,0,1-1.28,5.58" transform="translate(-208 -73.82)" fill="none" stroke="#f55f44" stroke-miterlimit="10"/></g><g opacity="0.5"><path d="M668.14,75.9a10.89,10.89,0,0,0-14.21,1.32,11.13,11.13,0,0,0,.44,15.51L668,106.24a2.27,2.27,0,0,0,3.21,0l13.5-13.58A11.13,11.13,0,0,0,685,77.14a10.89,10.89,0,0,0-14.21-1.24A2.29,2.29,0,0,1,668.14,75.9Z" transform="translate(-208 -73.82)" fill="#f55f44"/><path d="M669.65,105.7a2,2,0,0,0,0,1.9,8.78,8.78,0,0,1,.53.88c.35.87-.26,1.82-.88,2.53-.39.45-.83,1.06-.57,1.6a2,2,0,0,0,.46.52,3.35,3.35,0,0,1-1.28,5.58" transform="translate(-208 -73.82)" fill="none" stroke="#f55f44" stroke-miterlimit="10"/></g><g opacity="0.5"><rect x="552" y="141.18" width="3" height="17" fill="#47e6b1"/><rect x="760" y="215" width="3" height="17" transform="translate(777 -611.82) rotate(90)" fill="#47e6b1"/></g><g opacity="0.5"><rect x="206" y="402.18" width="3" height="17" fill="#47e6b1"/><rect x="414" y="476" width="3" height="17" transform="translate(692 -4.82) rotate(90)" fill="#47e6b1"/></g><g opacity="0.5"><rect x="128" y="120.18" width="3" height="17" fill="#47e6b1"/><rect x="336" y="194" width="3" height="17" transform="translate(332 -208.82) rotate(90)" fill="#47e6b1"/></g><g opacity="0.5"><rect x="661" y="383.18" width="3" height="17" fill="#47e6b1"/><rect x="869" y="457" width="3" height="17" transform="translate(1128 -478.82) rotate(90)" fill="#47e6b1"/></g><path d="M756.09,335.61a3.67,3.67,0,0,1-2-4.44,1.77,1.77,0,0,0,.08-.41h0a1.84,1.84,0,0,0-3.31-1.22h0a1.77,1.77,0,0,0-.2.36,3.67,3.67,0,0,1-4.44,2,1.77,1.77,0,0,0-.41-.08h0a1.84,1.84,0,0,0-1.22,3.31h0a1.77,1.77,0,0,0,.36.2,3.67,3.67,0,0,1,2,4.44,1.77,1.77,0,0,0-.08.41h0a1.84,1.84,0,0,0,3.31,1.22h0a1.77,1.77,0,0,0,.2-.36,3.67,3.67,0,0,1,4.44-2,1.77,1.77,0,0,0,.41.08h0a1.84,1.84,0,0,0,1.22-3.31h0A1.77,1.77,0,0,0,756.09,335.61Z" transform="translate(-208 -73.82)" fill="#4d8af0" opacity="0.5"/><path d="M391.09,297.61a3.67,3.67,0,0,1-2-4.44,1.77,1.77,0,0,0,.08-.41h0a1.84,1.84,0,0,0-3.31-1.22h0a1.77,1.77,0,0,0-.2.36,3.67,3.67,0,0,1-4.44,2,1.77,1.77,0,0,0-.41-.08h0a1.84,1.84,0,0,0-1.22,3.31h0a1.77,1.77,0,0,0,.36.2,3.67,3.67,0,0,1,2,4.44,1.77,1.77,0,0,0-.08.41h0a1.84,1.84,0,0,0,3.31,1.22h0a1.77,1.77,0,0,0,.2-.36,3.67,3.67,0,0,1,4.44-2,1.77,1.77,0,0,0,.41.08h0a1.84,1.84,0,0,0,1.22-3.31h0A1.77,1.77,0,0,0,391.09,297.61Z" transform="translate(-208 -73.82)" fill="#4d8af0" opacity="0.5"/><path d="M535.09,102.61a3.67,3.67,0,0,1-2-4.44,1.77,1.77,0,0,0,.08-.41h0a1.84,1.84,0,0,0-3.31-1.22h0a1.77,1.77,0,0,0-.2.36,3.67,3.67,0,0,1-4.44,2,1.77,1.77,0,0,0-.41-.08h0a1.84,1.84,0,0,0-1.22,3.31h0a1.77,1.77,0,0,0,.36.2,3.67,3.67,0,0,1,2,4.44,1.77,1.77,0,0,0-.08.41h0a1.84,1.84,0,0,0,3.31,1.22h0a1.77,1.77,0,0,0,.2-.36,3.67,3.67,0,0,1,4.44-2,1.77,1.77,0,0,0,.41.08h0a1.84,1.84,0,0,0,1.22-3.31h0A1.77,1.77,0,0,0,535.09,102.61Z" transform="translate(-208 -73.82)" fill="#4d8af0" opacity="0.5"/></svg>