<svg id="17c79395-64fb-4bab-9330-0909968a22f6" data-name="Layer 1" xmlns="http://www.w3.org/2000/svg" xmlns:xlink="http://www.w3.org/1999/xlink" width="962.2" height="796.92" viewBox="0 0 962.2 796.92"><defs><linearGradient id="6b6c44e2-20d1-4e6d-8454-cff59fced42d" x1="611" y1="848" x2="611" y2="122" gradientUnits="userSpaceOnUse"><stop offset="0" stop-color="gray" stop-opacity="0.25"/><stop offset="0.54" stop-color="gray" stop-opacity="0.12"/><stop offset="1" stop-color="gray" stop-opacity="0.1"/></linearGradient><linearGradient id="edf66848-2823-4ef8-9b7d-477ebd50202a" x1="474.07" y1="292.61" x2="474.07" y2="292.58" xlink:href="#6b6c44e2-20d1-4e6d-8454-cff59fced42d"/></defs><title>jogging</title><g opacity="0.5"><path d="M806.92,801.6s-12.4-20-34.33-24.85C760,759.22,728.94,715,728.94,707.35c0-9.57-13.4-43.06-42.1-60.28,0,0-22-24.88-30.62-85.15,0,0-9.57-23.92-5.74-32.53s3.83-23.92-24.88-61.23q-.68-.89-1.37-1.71l-.41-.47-.17-.19c7.38-9.92,41.53-55.92,48.34-67a29.23,29.23,0,0,0,4.34-14.89,13.58,13.58,0,0,0-8.41-12.84l-64.55-26.5a38.13,38.13,0,0,0-22.18-16.86c-6.19-5.87-10.31-15.76-12.86-24.11h8.46c21.7-19.36,34.13-36.73,40.33-52,24.23,34.25,64.44,41,64.44,41-14.37-5.23-21.41-29.49-24.81-54.37,25.79,26.73,62.6,17.53,62.6,17.53-6.9,1.38-17.15-6.93-27.44-18.13,16.55-52.23-16.81-73.59-40.56-82,38.54,5,56.52,21.66,56.52,21.66-14.35-37.84-48.71-41-69.13-39.15,14.75-12.52,41.38-12.52,41.38-12.52-64.1-17.22-90.89,32.53-90.89,32.53-9.57-8.61,3.83-32.53,3.83-32.53-29.54,6.22-23.71,33.29-20.48,43.21-47.71-1.24-66.52,23.65-73.94,43.23-6.89-.14-28,2.34-19.91,39.38,8.86,40.75-2.78,41.31-4.56,41.17,1.45.15,9.69.53,14.35-9.05l.19.42c.15.34.3.67.45,1s.37.77.56,1.16l.48.94q.31.59.64,1.16l.5.87q.35.59.71,1.17l.51.79q.39.6.8,1.18l.51.71c.29.4.58.8.89,1.19l.49.62c.32.41.65.81,1,1.21l.46.53c.36.42.73.83,1.1,1.23l.4.42c.41.43.82.85,1.24,1.26l.32.3c.46.44.92.88,1.4,1.3l.18.15a49.73,49.73,0,0,0,43.34,11.35q.15.9.29,1.85l.27-.07c1.12,7.88,1.94,17.16,2.42,23.17a50.14,50.14,0,0,0-13.42,26.87c-1.53,10.33-5.05,16.84-8.73,20.93a24.78,24.78,0,0,0-5.58,23.23c-5.88,12.48-8.56,15.34-8.56,15.34l-46.88-35.72-7.39-6.24-.31.38-3.12-2.37s-8.93-41.29-31.2-24.41c-6,4.58-7.86,9.51-7.3,14.26-.31,13.49,20.19,26.12,20.19,26.12s55.79,43,68.11,50.81a29.14,29.14,0,0,0,13.74,4.51,14.46,14.46,0,0,0,14.29-8.74L539,424.9a24.59,24.59,0,0,0,7.16-.58,27.79,27.79,0,0,1-6.45,1.08,27.25,27.25,0,0,0,10-1.59l-.11-.44c.61-.21,1.23-.42,1.87-.67l1.91,7.65h.08l-.56.47s17.22,37.31,17.22,55.49c0,0-1.8,6.76,1,21.26-8.26,9.44-20.38,20.72-35.49,27.54l0,.11-.18.08-62.05,64.87s-7.65,12.44,2.87,27.75c8.73,12.7,58.93,92.53,75.8,119.4-.53-.08-1.08-.16-1.65-.28L539,778.63s-27,29.24-27.09,43.75c0,0,0,0,0,.06,0,.29,0,.57,0,.84,0,.07,0,.14,0,.21s0,.44.08.65,0,.17.05.26.08.37.13.55.06.18.09.28.11.33.17.49l.13.28c.07.15.14.29.22.43l.17.27c.08.13.17.26.27.39l.21.26.32.35.25.24.37.31.29.22.43.28.33.2.49.24.37.17.56.2.4.14.64.17.42.11.78.14.39.07c.41.06.84.1,1.29.13L605,767.15s-.62-1-1.72-2.53h0c-4.61-6.53-17.77-23.55-30.59-24.68-7.34-9.14-25.66-33.65-33.23-59.37,0-11.48,3.83-21-24.88-63.15,0,0,16.79-23.5,55.07-37.48l.59-.21,2.17-.76a17.27,17.27,0,0,0,5.31-.78A98.2,98.2,0,0,1,594.13,565c2.83,5.08,6,10.43,9.47,16,0,0,1.44.23,3.85.4h0l1.31,2.21h0l39.81,67.23s1,16.27,7.65,18.18c5.67,1.62,78.52,89.61,100.75,116.59l-17,31.23S706.17,825,706.8,840.49a13.34,13.34,0,0,0,2.53,7.51h55.49l42.1-45.93-.18-.28Zm-194-358.88q-.51-1.88-1-3.92a122.93,122.93,0,0,1-1.65-14.66,25.44,25.44,0,0,0-.58-4.32c0-.15.08-.3.1-.46.72-5.38,3.05-18.85,3-33.93,0-4-.19-8-.6-12.12,32.7,12.3,38.78,17.83,38.78,17.83ZM493.83,234.87a49.73,49.73,0,0,0-4.13,6.84c.18-4.61,1.28-10.42,5-15.11a58.26,58.26,0,0,0-.89,8.27Z" transform="translate(-113 -51.08)" fill="url(#6b6c44e2-20d1-4e6d-8454-cff59fced42d)"/><path d="M474.18,292.61l-.22,0Z" transform="translate(-113 -51.08)" fill="url(#edf66848-2823-4ef8-9b7d-477ebd50202a)"/></g><path d="M605.7,575l41.61,70.27s.92,15.72,7.4,17.57,103.55,120.2,103.55,120.2l13.87-9.25S725,709.12,725,699.87,712,658.26,684.29,641.62c0,0-21.27-24-29.59-82.29Z" transform="translate(-113 -51.08)" fill="#fda57d"/><path d="M725,699.87c0-9.25-12.94-41.61-40.68-58.25,0,0-21.27-24-29.59-82.29l-1.76.57c8.38,57.83,29.5,81.72,29.5,81.72,27.74,16.64,40.68,49,40.68,58.25s47.15,74,47.15,74l-12.67,8.45.65.8,13.87-9.25S725,709.12,725,699.87Z" transform="translate(-113 -51.08)" opacity="0.05"/><path d="M538.07,533.63l-60,62.68s-7.4,12,2.77,26.81S559.47,747,559.47,747L577,735s-25.89-29.59-35.13-61c0-11.1,3.7-20.34-24-61,0,0,18.49-25.89,61-38.83l-32.36-38.83C544.59,533.07,540.05,532.52,538.07,533.63Z" transform="translate(-113 -51.08)" fill="#fda57d"/><path d="M517.86,613s18.49-25.89,61-38.83l-32.36-38.83a6.29,6.29,0,0,0-2.71-1.69,4.92,4.92,0,0,1,.86.77L577,573.2C534.51,586.14,516,612,516,612c27.74,40.68,24,49.93,24,61,9.25,31.44,35.13,61,35.13,61l-16.68,11.41,1,1.53L577,735s-25.89-29.59-35.13-61C541.9,662.89,545.6,653.64,517.86,613Z" transform="translate(-113 -51.08)" opacity="0.05"/><path d="M568.42,362,534.1,442a14,14,0,0,1-13.81,8.44A28.16,28.16,0,0,1,507,446.12c-11.9-7.58-65.82-49.1-65.82-49.1s-33.89-20.87-12.37-37.18S459,383.42,459,383.42l55.75,42.47s9.4-10,31.68-75.34C546.4,350.56,568.79,338,568.42,362Z" transform="translate(-113 -51.08)" fill="#fda57d"/><path d="M534,439.27a14,14,0,0,1-13.81,8.44,28.16,28.16,0,0,1-13.28-4.36c-11.9-7.58-65.82-49.1-65.82-49.1s-16.66-10.26-19.2-22c-1.84,13.55,19.41,26.63,19.41,26.63s53.92,41.52,65.82,49.1a28.16,28.16,0,0,0,13.28,4.36,14,14,0,0,0,13.81-8.44l34.32-80a30,30,0,0,0-.25-4.51Z" transform="translate(-113 -51.08)" opacity="0.05"/><path d="M607.57,578.21l1.27,2.14s30.65.93,46.12-19.29l-1-3.73Z" transform="translate(-113 -51.08)" opacity="0.05"/><path d="M566.4,295.36s5.09,33.75,20.8,41.14l-37,12s-2.31-36.52-6-42.07S566.4,295.36,566.4,295.36Z" transform="translate(-113 -51.08)" fill="#fda57d"/><path d="M554.85,432.66s16.64,36.06,16.64,53.63c0,0,40.68,4.62,53.63-17.57,0,0-13.87-12.94-15.72-47.15S554.85,432.66,554.85,432.66Z" transform="translate(-113 -51.08)" fill="#fda57d"/><path d="M569.18,731.77s-2.77,9.25-16.64,6.47l-11.1,30.51s-44.38,48.08-17.57,49.93l81.36-61S585.82,727.14,569.18,731.77Z" transform="translate(-113 -51.08)" fill="#7386d5"/><path d="M767,766.9s-6.47,13.87-14.79,8.32L735.6,805.73S693.07,815.91,706,835.32h53.63l40.68-44.38S788.31,771.52,767,766.9Z" transform="translate(-113 -51.08)" fill="#7386d5"/><path d="M566.4,297.21s-25.89,5.55-22.19,11.1c1.13,1.69,2.13,6.27,3,11.81A47.94,47.94,0,0,0,569,308.88,109.62,109.62,0,0,1,566.4,297.21Z" transform="translate(-113 -51.08)" opacity="0.05"/><path d="M653.78,198.74s43.46,68.42,61.95,64.72c0,0-37,9.25-61.95-18.49S653.78,198.74,653.78,198.74Z" transform="translate(-113 -51.08)" fill="#f55f44"/><path d="M653.78,198.74s43.46,68.42,61.95,64.72c0,0-37,9.25-61.95-18.49S653.78,198.74,653.78,198.74Z" transform="translate(-113 -51.08)" opacity="0.05"/><path d="M504.46,221.39s-30.51-4.62-21.27,37.91-4.62,39.76-4.62,39.76,23.11,3.7,15.72-41.61c0,0-3.7-17.57,8.32-25.89S504.46,221.39,504.46,221.39Z" transform="translate(-113 -51.08)" fill="#f55f44"/><circle cx="423.82" cy="220.24" r="48.08" fill="#fda57d"/><path d="M575.19,183s-16.64-37.91,18.49-45.3c0,0-12.94,23.11-3.7,31.44,0,0,25.89-48.08,87.84-31.44,0,0-40.68,0-48.08,24,0,0,86,9.25,58.25,87.84,0,0-16.64-32.36-37.91-36.06s-49-11.1-47.15-14.79S575.19,183,575.19,183Z" transform="translate(-113 -51.08)" fill="#f55f44"/><path d="M622.34,152.51s61.95-18.49,82.29,35.13c0,0-25.89-24-82.29-22.19Z" transform="translate(-113 -51.08)" fill="#f55f44"/><path d="M652.39,188.11s-3.7,99.86,26.81,111c0,0-76.74-12.94-79.51-94.31Z" transform="translate(-113 -51.08)" fill="#f55f44"/><path d="M492.9,271.78A48.08,48.08,0,0,1,541,223.7c1.14,0,2.27.05,3.39.13a48.07,48.07,0,1,0-10.93,95.43A48.09,48.09,0,0,1,492.9,271.78Z" transform="translate(-113 -51.08)" fill="#fff" opacity="0.1"/><path d="M497.76,243.29s.68-72.28,87.59-63c0,0,86.91,45.3-7.4,129.44H567.48l1.23-22.22a44.35,44.35,0,0,0-43.78-46.89A136.23,136.23,0,0,0,497.76,243.29Z" transform="translate(-113 -51.08)" fill="#f55f44"/><path d="M574.26,180.25l-.92-3.7s34.67,6,32.82,15.26S574.26,180.25,574.26,180.25Z" transform="translate(-113 -51.08)" opacity="0.4"/><ellipse cx="566.87" cy="273.63" rx="8.32" ry="4.62" transform="translate(-66.54 576.66) rotate(-60)" fill="#fda57d"/><path d="M537.41,534.33s16.35,41.42,33.54,42.46l2.75-1-33.86-43.12Z" transform="translate(-113 -51.08)" opacity="0.05"/><path d="M610.32,426.19c-.93-17.16-14.65-14.31-28.1-7.21,9-2.5,16.34-.51,17,11.83C601.08,465,614.94,478,614.94,478a29.4,29.4,0,0,1-10.73,10.45c8.75-2.49,17.12-7,21.82-15.08C626,473.34,612.17,460.4,610.32,426.19Z" transform="translate(-113 -51.08)" opacity="0.05"/><path d="M571.49,486.29s-7.4,27.74,32.36,91.53c0,0,34.21,5.55,50.85-18.49,0,0-9.25-23.11-5.55-31.44s3.7-23.11-24-59.17S571.49,486.29,571.49,486.29Z" transform="translate(-113 -51.08)" fill="#3ad29f"/><path d="M538.2,533.44s16.64,49,40.68,41.61c0,0,14.79-15.72,37-23.11s44.38-36.06,9.25-83.21c0,0-16.64,20.34-53.63,17.57l12.94,4.62S566.87,520.5,538.2,533.44Z" transform="translate(-113 -51.08)" fill="#3ad29f"/><path d="M612.82,553s24.51-7.86,27.65-23.43" transform="translate(-113 -51.08)" opacity="0.05"/><path d="M649.15,527.9c3.7-8.32,3.7-23.11-24-59.17-7.14-9.28-14.16-12.61-20.64-12.45,6.23.17,12.92,3.61,19.72,12.45,27.74,36.06,27.74,50.85,24,59.17s5.55,31.44,5.55,31.44c-11.26,16.27-30.56,19-41.87,19,11.15.08,31.21-2.32,42.79-19C654.7,559.33,645.46,536.22,649.15,527.9Z" transform="translate(-113 -51.08)" opacity="0.05"/><path d="M569.34,331.42a19.17,19.17,0,0,0-11.5,3.78c-7.1,5.32-18.52,16.29-21,33.2-1.48,10-4.88,16.27-8.43,20.22-7.91,8.81-8.56,22.11-.75,31,5.46,6.22,13.66,10,25.82,5.16l1.85,7.4s52.7,2.77,54.55-11.1,14.79-83.21-35.13-89.69Z" transform="translate(-113 -51.08)" fill="#7386d5"/><circle cx="464.5" cy="309" r="22.19" fill="#fda57d"/><path d="M554.85,424.34s5.55.92,11.1-9.25" transform="translate(-113 -51.08)" opacity="0.05"/><g opacity="0.05"><path d="M574.73,331.88h-1.85c49.93,6.47,37,75.82,35.13,89.69-1.29,9.71-27.51,11.26-43.12,11.32,15.29.05,43.62-1.21,45-11.32C611.71,407.7,624.65,338.35,574.73,331.88Z" transform="translate(-113 -51.08)"/><path d="M551.61,425.27a29.09,29.09,0,0,1-9.47,2.14,26.33,26.33,0,0,0,9.62-1.53Z" transform="translate(-113 -51.08)"/></g><path d="M584.9,341.59,666,374.9a13.12,13.12,0,0,1,8.13,12.41A28.24,28.24,0,0,1,670,401.69c-7.4,12-48.08,66.57-48.08,66.57s-20.34,34.21-37,12.94S608,450.69,608,450.69l41.61-56.4S639.45,385,573.8,363.78C573.8,363.78,560.86,341.59,584.9,341.59Z" transform="translate(-113 -51.08)" fill="#fda57d"/><path d="M666,374.9,584.9,341.59a32.53,32.53,0,0,0-3.31.16l80.74,33.15a13.12,13.12,0,0,1,8.13,12.41,28.24,28.24,0,0,1-4.19,14.39c-7.4,12-48.08,66.57-48.08,66.57s-10.73,18-23,19.77c13.7,2,26.68-19.77,26.68-19.77s40.68-54.55,48.08-66.57a28.24,28.24,0,0,0,4.19-14.39A13.12,13.12,0,0,0,666,374.9Z" transform="translate(-113 -51.08)" opacity="0.05"/><g opacity="0.05"><path d="M529.49,419.18c-7.81-8.9-7.17-22.21.75-31,3.55-3.95,7-10.24,8.43-20.22,2.51-16.91,13.92-27.88,21-33.2a19.17,19.17,0,0,1,11.5-3.78h-.92a19.17,19.17,0,0,0-11.5,3.78c-7.1,5.32-18.52,16.29-21,33.2-1.48,10-4.88,16.27-8.43,20.22-7.91,8.81-8.56,22.11-.75,31,3.83,4.36,9,7.49,15.95,7.32A20,20,0,0,1,529.49,419.18Z" transform="translate(-113 -51.08)" fill="#fff"/></g><path d="M523.87,815c-5.33-.37-7.84-2.57-8.45-5.85-.78,5.28,1.3,9.06,8.45,9.55l81.36-61s-.6-.94-1.67-2.45Z" transform="translate(-113 -51.08)" opacity="0.1"/><path d="M759.64,833.93H706a13.52,13.52,0,0,1-2.4-6.28,12.45,12.45,0,0,0,2.4,8.13h53.63l40.68-44.38s-.25-.4-.72-1.07Z" transform="translate(-113 -51.08)" opacity="0.1"/><rect x="452.33" y="389.37" width="15.72" height="15.72" transform="translate(252.19 -254.3) rotate(40.21)" fill="#7386d5"/><rect x="453.71" y="390.76" width="12.94" height="12.94" transform="translate(252.19 -254.3) rotate(40.21)" fill="#fff"/><rect x="467.76" y="398.59" width="1.39" height="2.77" rx="0.69" ry="0.69" transform="translate(255.92 -258.98) rotate(40.21)" fill="#7386d5"/><polygon points="343.81 358.66 334.98 351.2 337.82 347.92 346.65 355.38 343.81 358.66" fill="#7386d5"/><polygon points="356.2 344.08 347.37 336.62 349.29 334.27 358.11 341.73 356.2 344.08" fill="#7386d5"/><path d="M848.14,509.18a10.89,10.89,0,0,0-14.21,1.32,11.13,11.13,0,0,0,.44,15.51L848,539.51a2.27,2.27,0,0,0,3.21,0l13.5-13.58a11.13,11.13,0,0,0,.35-15.51,10.89,10.89,0,0,0-14.21-1.24A2.29,2.29,0,0,1,848.14,509.18Z" transform="translate(-113 -51.08)" fill="#7386d5"/><path d="M256.14,201.18a10.89,10.89,0,0,0-14.21,1.32,11.13,11.13,0,0,0,.44,15.51L256,231.51a2.27,2.27,0,0,0,3.21,0l13.5-13.58a11.13,11.13,0,0,0,.35-15.51,10.89,10.89,0,0,0-14.21-1.24A2.29,2.29,0,0,1,256.14,201.18Z" transform="translate(-113 -51.08)" fill="#7386d5"/><path d="M130.14,476.18a10.89,10.89,0,0,0-14.21,1.32,11.13,11.13,0,0,0,.44,15.51L130,506.51a2.27,2.27,0,0,0,3.21,0l13.5-13.58a11.13,11.13,0,0,0,.35-15.51,10.89,10.89,0,0,0-14.21-1.24A2.29,2.29,0,0,1,130.14,476.18Z" transform="translate(-113 -51.08)" fill="#7386d5"/><path d="M847.14,174.18a10.89,10.89,0,0,0-14.21,1.32,11.13,11.13,0,0,0,.44,15.51L847,204.51a2.27,2.27,0,0,0,3.21,0l13.5-13.58a11.13,11.13,0,0,0,.35-15.51,10.89,10.89,0,0,0-14.21-1.24A2.29,2.29,0,0,1,847.14,174.18Z" transform="translate(-113 -51.08)" fill="#7386d5"/><rect x="651" y="73.92" width="3" height="17" fill="#3ad29f"/><rect x="764" y="125" width="3" height="17" transform="translate(786 -683.08) rotate(90)" fill="#3ad29f"/><rect x="783" y="304.92" width="3" height="17" fill="#3ad29f"/><rect x="896" y="356" width="3" height="17" transform="translate(1149 -584.08) rotate(90)" fill="#3ad29f"/><rect x="193" y="515.92" width="3" height="17" fill="#3ad29f"/><rect x="306" y="567" width="3" height="17" transform="translate(770 216.92) rotate(90)" fill="#3ad29f"/><rect x="124" y="73.92" width="3" height="17" fill="#3ad29f"/><rect x="237" y="125" width="3" height="17" transform="translate(259 -156.08) rotate(90)" fill="#3ad29f"/><rect x="256" y="100.92" width="3" height="17" fill="#3ad29f"/><rect x="369" y="152" width="3" height="17" transform="translate(418 -261.08) rotate(90)" fill="#3ad29f"/><path d="M306.09,337.89a3.67,3.67,0,0,1-2-4.44,1.77,1.77,0,0,0,.08-.41h0a1.84,1.84,0,0,0-3.31-1.22h0a1.77,1.77,0,0,0-.2.36,3.67,3.67,0,0,1-4.44,2,1.77,1.77,0,0,0-.41-.08h0a1.84,1.84,0,0,0-1.22,3.31h0a1.77,1.77,0,0,0,.36.2,3.67,3.67,0,0,1,2,4.44,1.77,1.77,0,0,0-.08.41h0a1.84,1.84,0,0,0,3.31,1.22h0a1.77,1.77,0,0,0,.2-.36,3.67,3.67,0,0,1,4.44-2,1.77,1.77,0,0,0,.41.08h0a1.84,1.84,0,0,0,1.22-3.31h0A1.77,1.77,0,0,0,306.09,337.89Z" transform="translate(-113 -51.08)" fill="#f55f44"/><path d="M873.09,57.89a3.67,3.67,0,0,1-2-4.44,1.77,1.77,0,0,0,.08-.41h0a1.84,1.84,0,0,0-3.31-1.22h0a1.77,1.77,0,0,0-.2.36,3.67,3.67,0,0,1-4.44,2,1.77,1.77,0,0,0-.41-.08h0a1.84,1.84,0,0,0-1.22,3.31h0a1.77,1.77,0,0,0,.36.2,3.67,3.67,0,0,1,2,4.44,1.77,1.77,0,0,0-.08.41h0a1.84,1.84,0,0,0,3.31,1.22h0a1.77,1.77,0,0,0,.2-.36,3.67,3.67,0,0,1,4.44-2,1.77,1.77,0,0,0,.41.08h0a1.84,1.84,0,0,0,1.22-3.31h0A1.77,1.77,0,0,0,873.09,57.89Z" transform="translate(-113 -51.08)" fill="#3ad29f"/><path d="M521.09,73.89a3.67,3.67,0,0,1-2-4.44,1.77,1.77,0,0,0,.08-.41h0a1.84,1.84,0,0,0-3.31-1.22h0a1.77,1.77,0,0,0-.2.36,3.67,3.67,0,0,1-4.44,2,1.77,1.77,0,0,0-.41-.08h0a1.84,1.84,0,0,0-1.22,3.31h0a1.77,1.77,0,0,0,.36.2,3.67,3.67,0,0,1,2,4.44,1.77,1.77,0,0,0-.08.41h0a1.84,1.84,0,0,0,3.31,1.22h0a1.77,1.77,0,0,0,.2-.36,3.67,3.67,0,0,1,4.44-2,1.77,1.77,0,0,0,.41.08h0a1.84,1.84,0,0,0,1.22-3.31h0A1.77,1.77,0,0,0,521.09,73.89Z" transform="translate(-113 -51.08)" fill="#f55f44"/><path d="M336.09,447.89a3.67,3.67,0,0,1-2-4.44,1.77,1.77,0,0,0,.08-.41h0a1.84,1.84,0,0,0-3.31-1.22h0a1.77,1.77,0,0,0-.2.36,3.67,3.67,0,0,1-4.44,2,1.77,1.77,0,0,0-.41-.08h0a1.84,1.84,0,0,0-1.22,3.31h0a1.77,1.77,0,0,0,.36.2,3.67,3.67,0,0,1,2,4.44,1.77,1.77,0,0,0-.08.41h0a1.84,1.84,0,0,0,3.31,1.22h0a1.77,1.77,0,0,0,.2-.36,3.67,3.67,0,0,1,4.44-2,1.77,1.77,0,0,0,.41.08h0a1.84,1.84,0,0,0,1.22-3.31h0A1.77,1.77,0,0,0,336.09,447.89Z" transform="translate(-113 -51.08)" fill="#f55f44"/><path d="M778.09,319.89a3.67,3.67,0,0,1-2-4.44,1.77,1.77,0,0,0,.08-.41h0a1.84,1.84,0,0,0-3.31-1.22h0a1.77,1.77,0,0,0-.2.36,3.67,3.67,0,0,1-4.44,2,1.77,1.77,0,0,0-.41-.08h0a1.84,1.84,0,0,0-1.22,3.31h0a1.77,1.77,0,0,0,.36.2,3.67,3.67,0,0,1,2,4.44,1.77,1.77,0,0,0-.08.41h0a1.84,1.84,0,0,0,3.31,1.22h0a1.77,1.77,0,0,0,.2-.36,3.67,3.67,0,0,1,4.44-2,1.77,1.77,0,0,0,.41.08h0a1.84,1.84,0,0,0,1.22-3.31h0A1.77,1.77,0,0,0,778.09,319.89Z" transform="translate(-113 -51.08)" fill="#f55f44"/><path d="M1074.09,215.89a3.67,3.67,0,0,1-2-4.44,1.77,1.77,0,0,0,.08-.41h0a1.84,1.84,0,0,0-3.31-1.22h0a1.77,1.77,0,0,0-.2.36,3.67,3.67,0,0,1-4.44,2,1.77,1.77,0,0,0-.41-.08h0a1.84,1.84,0,0,0-1.22,3.31h0a1.77,1.77,0,0,0,.36.2,3.67,3.67,0,0,1,2,4.44,1.77,1.77,0,0,0-.08.41h0a1.84,1.84,0,0,0,3.31,1.22h0a1.77,1.77,0,0,0,.2-.36,3.67,3.67,0,0,1,4.44-2,1.77,1.77,0,0,0,.41.08h0a1.84,1.84,0,0,0,1.22-3.31h0A1.77,1.77,0,0,0,1074.09,215.89Z" transform="translate(-113 -51.08)" fill="#f55f44"/></svg>