<?xml version="1.0" standalone="no"?>
<!DOCTYPE svg PUBLIC "-//W3C//DTD SVG 1.1//EN" "http://www.w3.org/Graphics/SVG/1.1/DTD/svg11.dtd" >
<!--
2013-9-30: Created.
-->
<svg>
<metadata>
Created by iconfont
</metadata>
<defs>

<font id="iconfont" horiz-adv-x="1024" >
  <font-face
    font-family="iconfont"
    font-weight="500"
    font-stretch="normal"
    units-per-em="1024"
    ascent="896"
    descent="-128"
  />
    <missing-glyph />
    
    <glyph glyph-name="ico-dmaterialselect" unicode="&#58922;" d="M91.022222 668.444444h56.888889v-56.888888h-56.888889V668.444444z m113.777778 0h56.888889v-56.888888h-56.888889V668.444444z m-56.888889-56.888888h56.888889v-56.888889h-56.888889V611.555556z m-113.777778 0h56.888889v-56.888889h-56.888889V611.555556z m56.888889-56.888889h56.888889v-56.888889h-56.888889V554.666667z m113.777778 0h56.888889v-56.888889h-56.888889V554.666667z m-56.888889-56.888889h56.888889v-56.888889h-56.888889V497.777778z m56.888889-56.888889h56.888889v-56.888889h-56.888889V440.888889z m56.888889 56.888889h28.444444v-56.888889h-28.444444V497.777778zM119.466667 440.888889h28.444444v-56.888889h-28.444444V440.888889z m-56.888889 56.888889h28.444444v-56.888889h-28.444444V497.777778z m199.111111 113.777778h28.444444v-56.888889h-28.444444V611.555556zM85.333333 378.311111c51.2-51.2 227.555556-51.2 347.022223-51.2-130.844444 34.133333-119.466667 358.4-39.822223 438.044445-68.266667-34.133333-142.222222-51.2-221.866666-45.511112-79.644444 51.2-56.888889 136.533333-68.266667 113.777778C68.266667 782.222222 39.822222 725.333333 22.755556 668.444444-22.755556 566.044444 5.688889 446.577778 85.333333 378.311111zM358.4-128c39.822222 0 73.955556 11.377778 96.711111 39.822222l364.088889 364.088889 62.577778-62.577778L1024 349.866667l-85.333333 85.333333 147.911111 142.222222c39.822222 39.822222 39.822222 108.088889 0 147.911111-39.822222 39.822222-102.4 39.822222-136.533334 0l-5.688888-5.688889L796.444444 583.111111 711.111111 668.444444 568.888889 526.222222l62.577778-62.577778L273.066667 99.555556c-28.444444-22.755556-39.822222-56.888889-39.822223-91.022223 0-34.133333 11.377778-68.266667 34.133334-91.022222 28.444444-34.133333 56.888889-45.511111 91.022222-45.511111z m420.977778 443.733333l-358.4-364.088889c-28.444444-28.444444-79.644444-28.444444-108.088889 0-11.377778 11.377778-22.755556 34.133333-22.755556 51.2 0 22.755556 11.377778 39.822222 22.755556 51.2l364.088889 364.088889 102.4-102.4z"  horiz-adv-x="1194" />

    
    <glyph glyph-name="ico-addtolibrary-hq" unicode="&#58923;" d="M882.612511 652.280626c83.144657-38.374457 140.706342-121.519114 140.706342-211.059514 0-44.7702-12.791486-89.5404-38.374457-121.519114s-57.561686-70.353171-102.331885-95.936142c-44.7702-12.791486-95.936143-31.978714-140.706342-31.978714h-57.561686V306.910513h95.936143c6.395743 0 12.791486 0 19.187228 6.395743l19.187229 6.395742c31.978714 6.395743 51.165943 19.187229 70.353171 44.7702 19.187229 19.187229 31.978714 51.165943 31.978714 76.748914 0 70.353171-57.561686 127.914857-134.310599 127.914857v12.791486 12.791485 12.791486c0 51.165943-19.187229 95.936143-57.561686 127.914857-70.353171 70.353171-191.872285 70.353171-262.225456 6.395742-38.374457-19.187229-57.561686-57.561686-57.561686-102.331885-12.791486 6.395743-31.978714 12.791486-38.374457 19.187229-12.791486 6.395743-25.582971 6.395743-44.770199 6.395742-31.978714 0-70.353171-12.791486-89.5404-31.978714-31.978714-31.978714-44.7702-76.748914-38.374457-121.519114 0-6.395743 0-12.791486 6.395743-19.187228H191.872285c-51.165943 0-89.5404-44.7702-89.5404-89.5404 0-19.187229 6.395743-44.7702 31.978715-63.957428 12.791486-19.187229 31.978714-31.978714 57.561685-31.978714h172.685057V191.787142H191.872285c-51.165943 0-95.936143 19.187229-134.310599 57.561685S0 338.889227 0 390.05517c0 38.374457 6.395743 63.957428 31.978714 95.936142 12.791486 25.582971 31.978714 51.165943 63.957429 70.353171 6.395743 57.561686 38.374457 108.727628 70.353171 147.102085 44.7702 38.374457 102.331885 51.165943 159.893571 51.165943h19.187228c25.582971 44.7702 63.957428 76.748914 108.727628 102.331885C524.450912 901.714596 620.387055 908.110339 703.531712 876.131625c31.978714-6.395743 57.561686-31.978714 89.540399-51.165943 31.978714-19.187229 51.165943-51.165943 63.957429-76.748914s19.187229-57.561686 25.582971-95.936142z m-300.599913-607.595569V402.846655H498.867941v-364.557341H364.557342l185.476542-147.102085 185.476542 147.102085H582.012598z"  horiz-adv-x="1024" />

    
    <glyph glyph-name="ico-adjustmentslayer" unicode="&#58924;" d="M284.444444 116.622222c153.6-153.6 398.222222-153.6 551.822223 0s153.6 398.222222 0 551.822222C682.666667 822.044444 438.044444 822.044444 284.444444 668.444444c-153.6-153.6-153.6-398.222222 0-551.822222z m45.511112 45.511111c-130.844444 125.155556-130.844444 329.955556-5.688889 460.8s329.955556 130.844444 460.8 5.688889l5.688889-5.688889-460.8-460.8z"  horiz-adv-x="1024" />

    
    <glyph glyph-name="ico-dmaterialdropto" unicode="&#58925;" d="M113.619972 725.570042h56.809986v-56.809987H113.619972V725.570042z m113.619973 0h56.809986v-56.809987H227.239945V725.570042zM170.429958 668.760055h56.809987v-56.809986H170.429958V668.760055zM56.809986 668.760055h56.809986v-56.809986H56.809986V668.760055z m56.809986-56.809986h56.809986v-56.809986H113.619972V611.950069z m113.619973 0h56.809986v-56.809986H227.239945V611.950069zM170.429958 555.140083h56.809987v-56.809986H170.429958V555.140083z m56.809987-56.809986h56.809986v-56.809986H227.239945V498.330097z m56.809986 56.809986h28.404993v-56.809986H284.049931V555.140083zM142.024965 498.330097H170.429958v-56.809986h-28.404993V498.330097z m-56.809986 56.809986H113.619972v-56.809986h-28.404993V555.140083zM284.049931 668.760055h28.404993v-56.809986H284.049931V668.760055zM107.938974 435.839112c51.128988-51.128988 227.239945-51.128988 346.540915-51.128987-130.662968 34.085992-119.300971 357.902913-45.447989 437.436893-62.490985-34.085992-142.024965-51.128988-215.877947-45.447989-79.533981 51.128988-56.809986 136.343967-68.171984 113.619972C90.895978 839.190014 62.490985 782.380028 39.76699 725.570042-5.680999 623.312067 22.723994 504.011096 107.938974 435.839112zM1141.880721 219.961165c-22.723994-34.085992-51.128988-68.171983-68.171983-102.257975-17.042996-51.128988 5.680999-102.257975 56.809986-124.981969 11.361997-5.680999 17.042996-5.680999 28.404993-5.680999 45.447989 0 96.576976 34.085992 96.576976 119.300971 0 73.852982-56.809986 130.662968-102.257975 187.472954 0-22.723994 0-45.447989-11.361997-73.852982zM801.020804 589.226075l272.687934-284.049931-357.902913-374.945908-272.687933 284.04993 204.51595 215.877948h5.680998c5.680999 5.680999 17.042996 11.361997 17.042996 17.042996l62.490985 62.490984c17.042996-34.085992 34.085992-73.852982 51.128988-119.300971-11.361997-11.361997-11.361997-28.404993-11.361998-39.76699 0-34.085992 28.404993-56.809986 62.490985-56.809986 34.085992 0 56.809986 28.404993 56.809986 62.490985 0 28.404993-22.723994 56.809986-56.809986 56.809986-22.723994 56.809986-39.76699 102.257975-62.490985 142.024965l28.404993 34.085992z m-96.576976-34.085992l-51.128988-56.809986c-51.128988 130.662968-39.76699 164.74896-28.404993 170.429958 0 0 28.404993-5.680999 79.533981-113.619972z m403.350902-289.730929c17.042996 22.723994 17.042996 51.128988 0 73.852982l-272.687934 284.049931c-17.042996 17.042996-45.447989 17.042996-68.171983 0l-22.723995-22.723995c-45.447989 85.214979-73.852982 113.619972-96.576976 119.300971-17.042996 5.680999-34.085992 5.680999-45.447989 0-79.533981-39.76699-28.404993-181.791956 5.680999-267.006935l-198.834952-210.196948c-17.042996-22.723994-17.042996-51.128988 0-73.852982l272.687934-284.049931c17.042996-17.042996 45.447989-17.042996 68.171983 0l357.902913 380.626907z"  horiz-adv-x="1257" />

    
    <glyph glyph-name="ico-dlayer-WyFsl" unicode="&#58926;" d="M125.155556 674.133333l130.844444-85.333333 17.066667-102.4-130.844445 79.644444-17.066666 108.088889zM130.844444 213.333333l130.844445-85.333333-17.066667-113.777778L113.777778 93.866667l17.066666 119.466666zM187.733333 463.644444L312.888889 384v-102.4L187.733333 361.244444V463.644444zM614.4 668.444444c39.822222 17.066667 79.644444 34.133333 125.155556 39.822223 62.577778 11.377778 125.155556-5.688889 164.977777-51.2 39.822222-45.511111 62.577778-119.466667 62.577778-233.244445 5.688889-91.022222-17.066667-176.355556-62.577778-250.311111-39.822222-62.577778-108.088889-108.088889-187.733333-119.466667-34.133333-5.688889-68.266667 0-102.4 5.688889V668.444444z m91.022222-506.311111c11.377778 0 28.444444 0 39.822222 5.688889 85.333333 22.755556 147.911111 96.711111 147.911112 256 0 136.533333-39.822222 204.8-142.222223 187.733334-17.066667 0-28.444444-5.688889-39.822222-11.377778l-5.688889-438.044445zM261.688889 133.688889c28.444444-17.066667 62.577778-28.444444 91.022222-28.444445 45.511111 5.688889 79.644444 45.511111 73.955556 96.711112 0 62.577778-39.822222 85.333333-79.644445 79.644444l-34.133333-5.688889V378.311111l34.133333 5.688889c39.822222 5.688889 73.955556 39.822222 68.266667 85.333333 0 39.822222-17.066667 62.577778-56.888889 56.888889-34.133333-5.688889-62.577778-22.755556-85.333333-45.511111l-17.066667 102.4c34.133333 34.133333 73.955556 56.888889 125.155556 62.577778C466.488889 657.066667 512 594.488889 512 503.466667c5.688889-56.888889-22.755556-119.466667-73.955556-153.6 45.511111-5.688889 85.333333-62.577778 85.333334-142.222223 0-113.777778-62.577778-204.8-164.977778-216.177777-39.822222-5.688889-85.333333 5.688889-119.466667 28.444444l22.755556 113.777778zM620.088889 668.444444c62.577778 28.444444 136.533333 45.511111 204.8 39.822223-5.688889 5.688889-11.377778 11.377778-17.066667 22.755555-39.822222 39.822222-136.533333 56.888889-216.177778 51.2-34.133333-5.688889-68.266667-17.066667-96.711111-34.133333l113.777778-79.644445h11.377778zM244.622222 600.177778c5.688889 0 11.377778-5.688889 17.066667-11.377778 11.377778 34.133333 125.155556 62.577778 182.044444 62.577778-22.755556 45.511111-119.466667 73.955556-182.044444 68.266666-51.2-5.688889-96.711111-22.755556-136.533333-45.511111l119.466666-73.955555z"  horiz-adv-x="1024" />

    
    <glyph glyph-name="ico-addknottool-wxn" unicode="&#58927;" d="M950.044444 577.422222l-164.977777 164.977778c-39.822222 39.822222-45.511111 45.511111-68.266667 45.511111-17.066667 0-34.133333-5.688889-45.511111-17.066667-22.755556-28.444444-45.511111-68.266667-45.511111-73.955555l-11.377778-11.377778-284.444444-142.222222c-11.377778-11.377778-22.755556-22.755556-28.444445-34.133333L170.666667 99.555556c-11.377778-28.444444 0-51.2 22.755555-73.955556 5.688889-5.688889 17.066667-17.066667 22.755556-17.066667 17.066667-17.066667 28.444444-22.755556 51.2-22.755555 5.688889 0 11.377778 0 17.066666 5.688889l409.6 136.533333c17.066667 5.688889 28.444444 17.066667 34.133334 28.444444l142.222222 278.755556c0 5.688889 11.377778 11.377778 17.066667 17.066667 5.688889 5.688889 45.511111 28.444444 68.266666 45.511111 17.066667 22.755556 17.066667 51.2-5.688889 79.644444z m-284.444444-403.911111L261.688889 42.666667l233.244444 233.244444c28.444444-11.377778 51.2-5.688889 73.955556 17.066667 28.444444 28.444444 28.444444 68.266667 0 96.711111s-68.266667 28.444444-96.711111 0c-17.066667-22.755556-22.755556-51.2-11.377778-73.955556L227.555556 82.488889l136.533333 409.6 284.444444 142.222222 170.666667-170.666667-153.6-290.133333zM85.333333 731.022222c-17.066667 0-28.444444-11.377778-28.444444-28.444444s11.377778-28.444444 28.444444-28.444445h79.644445v-79.644444c0-17.066667 11.377778-28.444444 28.444444-28.444445s28.444444 11.377778 28.444445 28.444445V679.822222h79.644444c17.066667 0 28.444444 11.377778 28.444445 28.444445s-17.066667 22.755556-34.133334 22.755555H216.177778V810.666667c0 17.066667-11.377778 28.444444-22.755556 28.444444s-28.444444-11.377778-28.444444-28.444444v-79.644445H85.333333z"  horiz-adv-x="1024" />

    
    <glyph glyph-name="ico-aligncenter-zp" unicode="&#58928;" d="M739.555556 640c0 17.066667-11.377778 28.444444-28.444445 28.444444H568.888889V810.666667c0 11.377778-11.377778 28.444444-28.444445 28.444444s-28.444444-17.066667-28.444444-28.444444V668.444444H369.777778c-17.066667 0-28.444444-11.377778-28.444445-28.444444v-170.666667c0-17.066667 11.377778-28.444444 28.444445-28.444444H512v-113.777778H256c-17.066667 0-28.444444-11.377778-28.444444-28.444444v-170.666667c0-17.066667 11.377778-28.444444 28.444444-28.444444H512v-142.222223c0-17.066667 11.377778-28.444444 28.444444-28.444444s28.444444 11.377778 28.444445 28.444444V99.555556h256c17.066667 0 28.444444 11.377778 28.444444 28.444444v170.666667c0 17.066667-11.377778 28.444444-28.444444 28.444444H568.888889V440.888889h142.222222c17.066667 0 28.444444 11.377778 28.444445 28.444444v170.666667z"  horiz-adv-x="1024" />

    
    <glyph glyph-name="ico-alignedgetop-hyt" unicode="&#58929;" d="M113.777778 696.888889c0 17.066667 11.377778 28.444444 28.444444 28.444444h739.555556c17.066667 0 28.444444-11.377778 28.444444-28.444444s-17.066667-28.444444-28.444444-28.444445h-739.555556c-17.066667 0-28.444444 11.377778-28.444444 28.444445zM256 611.555556c-17.066667 0-28.444444-11.377778-28.444444-28.444445v-568.888889c0-17.066667 11.377778-28.444444 28.444444-28.444444h170.666667c17.066667 0 28.444444 11.377778 28.444444 28.444444v568.888889c0 17.066667-11.377778 28.444444-28.444444 28.444445h-170.666667zM597.333333 611.555556c-17.066667 0-28.444444-11.377778-28.444444-28.444445v-341.333333c0-17.066667 11.377778-28.444444 28.444444-28.444445h170.666667c17.066667 0 28.444444 11.377778 28.444444 28.444445v341.333333c0 17.066667-11.377778 28.444444-28.444444 28.444445h-170.666667z"  horiz-adv-x="1024" />

    
    <glyph glyph-name="ico-alignedgebottom-" unicode="&#58930;" d="M256 782.222222c-17.066667 0-28.444444-11.377778-28.444444-28.444444v-568.888889c0-17.066667 11.377778-28.444444 28.444444-28.444445h170.666667c17.066667 0 28.444444 11.377778 28.444444 28.444445v568.888889c0 17.066667-11.377778 28.444444-28.444444 28.444444h-170.666667zM597.333333 554.666667c-17.066667 0-28.444444-11.377778-28.444444-28.444445v-341.333333c0-17.066667 11.377778-28.444444 28.444444-28.444445h170.666667c17.066667 0 28.444444 11.377778 28.444444 28.444445v341.333333c0 17.066667-11.377778 28.444444-28.444444 28.444445h-170.666667zM113.777778 71.111111c0 17.066667 11.377778 28.444444 28.444444 28.444445h739.555556c17.066667 0 28.444444-11.377778 28.444444-28.444445s-11.377778-28.444444-28.444444-28.444444h-739.555556c-17.066667 0-28.444444 11.377778-28.444444 28.444444z"  horiz-adv-x="1024" />

    
    <glyph glyph-name="ico-ai-qQEyqP" unicode="&#58931;" d="M967.111111-71.111111H56.888889V839.111111h910.222222v-910.222222zM113.777778-14.222222h796.444444V782.222222H113.777778v-796.444444zM364.088889 310.044444l-28.444445-108.088888c0-5.688889 0 0-5.688888 0h-51.2c-5.688889 0-5.688889 0-5.688889 5.688888l102.4 364.088889c0 11.377778 5.688889 22.755556 5.688889 34.133334 0 0 0 5.688889 5.688888 5.688889h73.955556s5.688889 0 5.688889-5.688889l113.777778-403.911111c0-5.688889 0-5.688889-5.688889-5.688889H512l-28.444444 108.088889-119.466667 5.688888z m102.4 62.577778c-11.377778 39.822222-34.133333 130.844444-45.511111 176.355556-5.688889-45.511111-28.444444-113.777778-39.822222-176.355556h85.333333z m170.666667 210.488889c0 22.755556 11.377778 39.822222 34.133333 39.822222 22.755556 0 39.822222-11.377778 39.822222-34.133333v-5.688889c0-17.066667-11.377778-34.133333-34.133333-39.822222h-5.688889c-17.066667 0-34.133333 11.377778-34.133333 34.133333v5.688889z m0-85.333333c0 5.688889 5.688889 5.688889 0 0l56.888888 5.688889c5.688889 0 5.688889 0 5.688889-5.688889v-290.133334c0-5.688889 0-5.688889-5.688889-5.688888h-51.2c-5.688889 0-5.688889 0-5.688888 5.688888V497.777778z"  horiz-adv-x="1024" />

    
    <glyph glyph-name="ico-alignedgeright-" unicode="&#58932;" d="M824.888889 839.111111c17.066667 0 28.444444-11.377778 28.444444-28.444444v-796.444445c0-17.066667-11.377778-28.444444-28.444444-28.444444s-28.444444 11.377778-28.444445 22.755555v796.444445c0 17.066667 11.377778 34.133333 28.444445 34.133333zM739.555556 640c0 17.066667-17.066667 28.444444-28.444445 28.444444h-341.333333c-17.066667 0-28.444444-11.377778-28.444445-28.444444v-170.666667c0-17.066667 11.377778-28.444444 28.444445-28.444444h335.644444c17.066667 0 34.133333 11.377778 34.133334 28.444444v170.666667zM739.555556 298.666667c0 17.066667-11.377778 28.444444-28.444445 28.444444h-568.888889c-17.066667 0-28.444444-11.377778-28.444444-28.444444v-170.666667c0-17.066667 11.377778-28.444444 28.444444-28.444444h568.888889c17.066667 0 28.444444 11.377778 28.444445 28.444444v170.666667z"  horiz-adv-x="1024" />

    
    <glyph glyph-name="ico-alignedgeleft-Xk" unicode="&#58933;" d="M199.111111 839.111111c17.066667 0 28.444444-11.377778 28.444445-28.444444v-796.444445c0-11.377778-11.377778-28.444444-28.444445-28.444444s-28.444444 11.377778-28.444444 28.444444v796.444445c0 17.066667 11.377778 28.444444 28.444444 28.444444zM682.666667 640c0 17.066667-11.377778 28.444444-28.444445 28.444444h-341.333333c-17.066667 0-28.444444-11.377778-28.444445-28.444444v-170.666667c0-17.066667 11.377778-28.444444 28.444445-28.444444h341.333333c17.066667 0 28.444444 11.377778 28.444445 28.444444v170.666667zM910.222222 298.666667c0 17.066667-11.377778 28.444444-28.444444 28.444444h-568.888889c-17.066667 0-28.444444-11.377778-28.444445-28.444444v-170.666667c0-17.066667 11.377778-28.444444 28.444445-28.444444h568.888889c17.066667 0 28.444444 11.377778 28.444444 28.444444v170.666667z"  horiz-adv-x="1024" />

    
    <glyph glyph-name="ico-alignvcenter-zp" unicode="&#58934;" d="M739.555556 640c0 17.066667-11.377778 28.444444-28.444445 28.444444H568.888889V810.666667c0 11.377778-11.377778 28.444444-28.444445 28.444444s-28.444444-17.066667-28.444444-28.444444V668.444444H369.777778c-17.066667 0-28.444444-11.377778-28.444445-28.444444v-170.666667c0-17.066667 11.377778-28.444444 28.444445-28.444444H512v-113.777778H256c-17.066667 0-28.444444-11.377778-28.444444-28.444444v-170.666667c0-17.066667 11.377778-28.444444 28.444444-28.444444H512v-142.222223c0-17.066667 11.377778-28.444444 28.444444-28.444444s28.444444 11.377778 28.444445 28.444444V99.555556h256c17.066667 0 28.444444 11.377778 28.444444 28.444444v170.666667c0 17.066667-11.377778 28.444444-28.444444 28.444444H568.888889V440.888889h142.222222c17.066667 0 28.444444 11.377778 28.444445 28.444444v170.666667z"  horiz-adv-x="1024" />

    
    <glyph glyph-name="ico-artboardtool-ga" unicode="&#58935;" d="M273.066667 839.111111h51.2v-159.288889h-51.2V839.111111zM56.888889 622.933333h159.288889v-51.2H56.888889v51.2zM915.911111 412.444444v-375.466666H324.266667V571.733333h426.666666v-125.155555c0-34.133333 11.377778-39.822222 45.511111-39.822222h119.466667zM295.822222 622.933333c-11.377778 0-22.755556-11.377778-22.755555-22.755555v-591.644445c0-17.066667 11.377778-28.444444 28.444444-28.444444h642.844445c17.066667 0 28.444444 11.377778 28.444444 28.444444v455.111111l-159.288889 159.288889H295.822222z"  horiz-adv-x="1024" />

    
    <glyph glyph-name="ico-artbrushtool-dT" unicode="&#58936;" d="M443.733333 338.488889c-5.688889-11.377778 0-17.066667 5.688889-22.755556 39.822222-5.688889 91.022222-56.888889 102.4-91.022222 0-11.377778 11.377778-11.377778 17.066667-5.688889 119.466667 142.222222 369.777778 477.866667 318.577778 512-62.577778 39.822222-318.577778-244.622222-443.733334-392.533333zM455.111111 42.666667c45.511111 73.955556 51.2 136.533333-17.066667 193.422222-68.266667 51.2-164.977778 22.755556-210.488888-51.2-96.711111-142.222222 0-176.355556-125.155556-250.311111 176.355556-17.066667 301.511111 34.133333 352.711111 108.088889zM620.088889 719.644444s-22.755556 22.755556-68.266667 39.822223c-34.133333 17.066667-91.022222 28.444444-159.288889 28.444444-250.311111-5.688889-295.822222-147.911111-295.822222-204.8 0-45.511111 51.2-119.466667 113.777778-119.466667 73.955556 0 108.088889 22.755556 108.088889 51.2 0 39.822222 0 73.955556-39.822222 62.577778-39.822222-11.377778-11.377778-51.2-28.444445-56.888889s-39.822222 17.066667-39.822222 28.444445c0 34.133333 17.066667 79.644444 79.644444 79.644444 28.444444 0 79.644444-51.2 79.644445-108.088889 0-62.577778-73.955556-102.4-153.6-102.4S56.888889 486.4 56.888889 571.733333C51.2 685.511111 130.844444 839.111111 403.911111 839.111111c73.955556-5.688889 176.355556-22.755556 238.933333-96.711111 0-11.377778-22.755556-22.755556-22.755555-22.755556zM551.822222 8.533333c273.066667 39.822222 375.466667 278.755556 364.088889 403.911111 0 28.444444-11.377778 79.644444-17.066667 102.4 17.066667-5.688889 22.755556-11.377778 28.444445-22.755555 28.444444-39.822222 28.444444-91.022222 28.444444-113.777778-5.688889-187.733333-170.666667-381.155556-381.155555-398.222222 0 5.688889-39.822222 28.444444-22.755556 28.444444z"  horiz-adv-x="1024" />

    
    <glyph glyph-name="ico-artboardlayer-c" unicode="&#58937;" d="M227.555556-14.222222h56.888888v-113.777778H227.555556v113.777778zM967.111111-14.222222h56.888889v-113.777778h-56.888889v113.777778zM56.888889 99.555556v-56.888889h113.777778v56.888889H56.888889zM56.888889 668.444444v-56.888888h113.777778V668.444444H56.888889zM1080.888889 99.555556h113.777778v-56.888889h-113.777778v56.888889zM1080.888889 668.444444h113.777778v-56.888888h-113.777778V668.444444zM967.111111 440.888889v-341.333333H284.444444V611.555556h512v-130.844445c0-28.444444 11.377778-39.822222 45.511112-39.822222H967.111111zM256 668.444444c-17.066667 0-28.444444-11.377778-28.444444-28.444444v-568.888889c0-17.066667 11.377778-28.444444 28.444444-28.444444h739.555556c17.066667 0 28.444444 11.377778 28.444444 28.444444V497.777778l-170.666667 170.666666H256zM227.555556 839.111111h56.888888v-113.777778H227.555556V839.111111zM967.111111 839.111111h56.888889v-113.777778h-56.888889V839.111111z"  horiz-adv-x="1251" />

    
    <glyph glyph-name="ico-backgrounderaser" unicode="&#58938;" d="M631.466667 105.244444L512-19.911111H398.222222l-113.777778 113.777778L460.8 270.222222l170.666667-164.977778z m91.022222 500.622223L540.444444 423.822222c-5.688889-62.577778-56.888889-113.777778-119.466666-119.466666L227.555556 105.244444c-11.377778-11.377778-11.377778-28.444444 0-39.822222L364.088889-71.111111h164.977778l426.666666 438.044444c11.377778 11.377778 11.377778 28.444444 0 39.822223L756.622222 611.555556c-11.377778 5.688889-22.755556 5.688889-34.133333-5.688889zM187.733333 531.911111L79.644444 446.577778c-11.377778-5.688889-28.444444-17.066667-17.066666-39.822222 17.066667-22.755556 28.444444-11.377778 39.822222 0 39.822222 28.444444 96.711111 73.955556 125.155556 96.711111 11.377778 11.377778 34.133333 11.377778 39.822222 0 17.066667-11.377778 39.822222-22.755556 56.888889-34.133334-5.688889-11.377778-5.688889-22.755556-5.688889-28.444444 0-45.511111 39.822222-91.022222 85.333333-91.022222S489.244444 389.688889 489.244444 440.888889s-39.822222 85.333333-85.333333 85.333333c-17.066667 0-34.133333-5.688889-39.822222-11.377778-22.755556 5.688889-39.822222 17.066667-56.888889 22.755556-34.133333 11.377778-34.133333 39.822222 0 51.2 17.066667 11.377778 34.133333 17.066667 56.888889 22.755556 11.377778-11.377778 28.444444-11.377778 39.822222-11.377778 45.511111 0 85.333333 39.822222 85.333333 91.022222S449.422222 782.222222 403.911111 782.222222s-85.333333-39.822222-85.333333-91.022222c0-11.377778 0-22.755556 5.688889-34.133333-17.066667-5.688889-34.133333-17.066667-51.2-28.444445-11.377778-5.688889-34.133333-11.377778-45.511111-5.688889-28.444444 22.755556-91.022222 73.955556-125.155556 102.4-17.066667 11.377778-28.444444 17.066667-39.822222 0-11.377778-22.755556 5.688889-34.133333 17.066666-45.511111l108.088889-91.022222c34.133333-28.444444 34.133333-28.444444 0-56.888889z m176.355556-96.711111c0 28.444444 22.755556 45.511111 39.822222 45.511111 28.444444 0 45.511111-22.755556 45.511111-45.511111s-17.066667-51.2-45.511111-51.2c-22.755556 0-39.822222 22.755556-39.822222 51.2z m0 250.311111c0 28.444444 22.755556 45.511111 45.511111 45.511111s45.511111-17.066667 45.511111-45.511111-17.066667-39.822222-45.511111-39.822222-45.511111 17.066667-45.511111 39.822222z"  horiz-adv-x="1024" />

    
    <glyph glyph-name="ico-backgroundlayer-" unicode="&#58939;" d="M739.555556 554.666667h113.777777v-512H341.333333v113.777777h398.222223V554.666667z m-455.111112-398.222223v-142.222222c0-17.066667 11.377778-28.444444 28.444445-28.444444h568.888889c17.066667 0 28.444444 11.377778 28.444444 28.444444v568.888889c0 17.066667-11.377778 28.444444-28.444444 28.444445H739.555556V753.777778c0 17.066667-11.377778 28.444444-28.444445 28.444444h-568.888889c-17.066667 0-28.444444-11.377778-28.444444-28.444444v-568.888889c0-17.066667 11.377778-28.444444 28.444444-28.444445H284.444444z"  horiz-adv-x="1024" />

    
    <glyph glyph-name="ico-blurtool-mHXE" unicode="&#58940;" d="M500.622222-71.111111c-108.088889 0-199.111111 34.133333-250.311111 91.022222-62.577778 56.888889-91.022222 136.533333-79.644444 221.866667 11.377778 96.711111 68.266667 182.044444 125.155555 261.688889C341.333333 566.044444 386.844444 628.622222 398.222222 702.577778c5.688889 39.822222 11.377778 91.022222 5.688889 102.4 0 17.066667 11.377778 28.444444 28.444445 34.133333 17.066667 5.688889 34.133333-5.688889 39.822222-17.066667 28.444444-85.333333 102.4-170.666667 182.044444-250.311111 91.022222-102.4 187.733333-204.8 187.733334-318.577777 0-233.244444-170.666667-318.577778-324.266667-318.577778l-17.066667-5.688889zM460.8 691.2s0-5.688889 0 0c-11.377778-85.333333-62.577778-153.6-113.777778-227.555556-51.2-68.266667-102.4-142.222222-113.777778-233.244444-5.688889-62.577778 17.066667-125.155556 68.266667-176.355556 39.822222-39.822222 113.777778-68.266667 199.111111-68.266666h5.688889c79.644444 0 261.688889 28.444444 261.688889 261.688889 0 91.022222-79.644444 187.733333-176.355556 278.755555-39.822222 51.2-96.711111 108.088889-130.844444 164.977778zM460.8 691.2s0-5.688889 0 0c-11.377778-85.333333-62.577778-153.6-113.777778-227.555556-51.2-68.266667-102.4-142.222222-113.777778-233.244444-5.688889-62.577778 17.066667-125.155556 68.266667-176.355556 39.822222-39.822222 113.777778-68.266667 199.111111-68.266666h5.688889c79.644444 0 261.688889 28.444444 261.688889 261.688889 0 91.022222-79.644444 187.733333-176.355556 278.755555-39.822222 51.2-96.711111 108.088889-130.844444 164.977778z"  horiz-adv-x="1024" />

    
    <glyph glyph-name="ico-bitmap-WIdu" unicode="&#58941;" d="M113.777778 668.444444h796.444444v-625.777777H113.777778V668.444444zM56.888889 19.911111c0-17.066667 17.066667-34.133333 39.822222-34.133333h836.266667c22.755556 0 39.822222 17.066667 39.822222 34.133333V685.511111c-5.688889 22.755556-22.755556 39.822222-45.511111 39.822222H96.711111c-22.755556 0-39.822222-17.066667-39.822222-34.133333v-671.288889zM347.022222 463.644444c17.066667 22.755556 28.444444 28.444444 45.511111 0 39.822222-73.955556 91.022222-182.044444 119.466667-233.244444 11.377778-28.444444 28.444444-28.444444 45.511111 0 28.444444 45.511111 73.955556 119.466667 102.4 164.977778 17.066667 22.755556 34.133333 22.755556 51.2 0 39.822222-68.266667 108.088889-193.422222 142.222222-250.311111 11.377778-17.066667 5.688889-34.133333-11.377777-45.511111H204.8c-17.066667 0-34.133333 17.066667-34.133333 34.133333 0 5.688889 0 11.377778 5.688889 17.066667 39.822222 79.644444 170.666667 312.888889 170.666666 312.888888z"  horiz-adv-x="1024" />

    
    <glyph glyph-name="ico-clear-iaFEHL" unicode="&#58942;" d="M512 277.014925l-405.014925-405.014925L0-21.014925l405.014925 405.014925L0 789.014925 106.985075 896l405.014925-405.014925L917.014925 896l106.985075-106.985075-405.014925-405.014925 405.014925-405.014925-106.985075-106.985075-405.014925 405.014925z"  horiz-adv-x="1024" />

    
    <glyph glyph-name="ico-buckettool-JaI" unicode="&#58943;" d="M859.022222 412.444444c5.688889-39.822222 5.688889-68.266667-5.688889-79.644444-34.133333-51.2-45.511111-62.577778-79.644444-108.088889-28.444444-79.644444 39.822222-136.533333 85.333333-136.533333 51.2 0 102.4 28.444444 102.4 125.155555 11.377778 73.955556-56.888889 136.533333-102.4 199.111111zM824.888889 446.577778L529.066667 742.4c-22.755556 22.755556-51.2 22.755556-73.955556 0l-28.444444-28.444444C375.466667 799.288889 341.333333 827.733333 324.266667 839.111111c-11.377778 0-28.444444 0-45.511111-5.688889-79.644444-34.133333-22.755556-176.355556 11.377777-261.688889L73.955556 355.555556c-22.755556-22.755556-22.755556-51.2 0-73.955556L369.777778-14.222222c22.755556-22.755556 51.2-22.755556 73.955555 0l381.155556 381.155555c17.066667 28.444444 17.066667 62.577778 0 79.644445z m-523.377778 341.333333c22.755556-5.688889 45.511111-28.444444 85.333333-113.777778L324.266667 611.555556c-39.822222 102.4-51.2 164.977778-22.755556 176.355555z m102.4-756.622222l-295.822222 290.133333 307.2 307.2c17.066667-28.444444 28.444444-73.955556 51.2-119.466666-11.377778-17.066667-17.066667-28.444444-17.066667-51.2 0-34.133333 28.444444-62.577778 62.577778-62.577778 34.133333 0 62.577778 28.444444 62.577778 62.577778 0 34.133333-28.444444 62.577778-62.577778 62.577777-22.755556 56.888889-39.822222 102.4-62.577778 142.222223l34.133334 34.133333 295.822222-295.822222-375.466667-369.777778z"  horiz-adv-x="1024" />

    
    <glyph glyph-name="ico-burnintool-ZaRI" unicode="&#58944;" d="M910.222222 366.933333c-34.133333 17.066667-68.266667 34.133333-96.711111 62.577778-22.755556 17.066667-108.088889 73.955556-159.288889 119.466667-34.133333 22.755556-73.955556 45.511111-113.777778 62.577778-79.644444 45.511111-170.666667 62.577778-267.377777 62.577777-22.755556 0-17.066667-51.2-113.777778-68.266666-11.377778 0-17.066667-28.444444-17.066667-45.511111 0-11.377778-5.688889-17.066667-5.688889-28.444445 11.377778 22.755556 28.444444 39.822222 45.511111 45.511111 28.444444 11.377778 216.177778 68.266667 238.933334 68.266667 0 0 5.688889 0 0 0-5.688889-11.377778-199.111111-62.577778-221.866667-79.644445-28.444444-17.066667-51.2-39.822222-73.955555-62.577777 0-5.688889 11.377778-5.688889-5.688889-22.755556-22.755556-34.133333 0-136.533333 0-136.533333s0-11.377778 22.755555-11.377778c56.888889 0 39.822222 108.088889 39.822222 108.088889l73.955556 56.888889 108.088889 5.688889L512 378.311111c-22.755556-17.066667-39.822222-39.822222-51.2-68.266667-28.444444-56.888889-91.022222-96.711111-159.288889-96.711111h-5.688889s-79.644444 68.266667-108.088889 68.266667c-22.755556 0-39.822222-28.444444-39.822222-28.444444 17.066667-56.888889 51.2-102.4 96.711111-136.533334 28.444444-11.377778 68.266667-17.066667 102.4-17.066666h73.955556c51.2 0 102.4 11.377778 153.6 28.444444 39.822222 22.755556 85.333333 34.133333 130.844444 34.133333 17.066667 0 34.133333-5.688889 45.511111-11.377777 34.133333-17.066667 68.266667-39.822222 96.711111-62.577778L910.222222 366.933333c5.688889 0 5.688889 0 0 0zM136.533333 531.911111zM932.977778 412.444444h-11.377778c-28.444444 11.377778-51.2 28.444444-73.955556 51.2-5.688889 5.688889-22.755556 17.066667-39.822222 28.444445-39.822222 28.444444-79.644444 56.888889-119.466666 91.022222-28.444444 22.755556-62.577778 45.511111-96.711112 56.888889l-17.066666 5.688889C534.755556 691.2 386.844444 725.333333 273.066667 725.333333c-22.755556 0-51.2-17.066667-62.577778-39.822222-11.377778-11.377778-17.066667-28.444444-56.888889-34.133333-34.133333-5.688889-56.888889-34.133333-62.577778-91.022222V554.666667l-5.688889-5.688889c0-5.688889-5.688889-11.377778-5.688889-11.377778 0-5.688889-5.688889-11.377778-5.688888-17.066667v-17.066666c-17.066667-56.888889-17.066667-113.777778 0-170.666667 5.688889-17.066667 17.066667-34.133333 39.822222-39.822222l-5.688889-5.688889c-5.688889-11.377778-11.377778-28.444444-5.688889-39.822222 22.755556-62.577778 62.577778-119.466667 113.777778-164.977778 34.133333-22.755556 73.955556-28.444444 113.777778-28.444445h96.711111c56.888889 0 119.466667 11.377778 170.666666 34.133334 34.133333 17.066667 68.266667 28.444444 108.088889 34.133333 5.688889 0 17.066667 0 22.755556-5.688889 28.444444-17.066667 56.888889-34.133333 85.333333-56.888889 11.377778-5.688889 22.755556-11.377778 34.133333-11.377777h17.066667c17.066667 5.688889 28.444444 17.066667 34.133333 34.133333l-51.2 11.377778c-28.444444 22.755556-62.577778 45.511111-96.711111 62.577777-17.066667 5.688889-28.444444 11.377778-45.511111 11.377778-45.511111-5.688889-91.022222-17.066667-130.844444-34.133333-51.2-22.755556-102.4-34.133333-153.6-34.133333-22.755556 0-45.511111 0-73.955556 5.688888-34.133333-5.688889-73.955556 0-108.088889 17.066667-45.511111 34.133333-79.644444 85.333333-96.711111 136.533333 0 0 22.755556 28.444444 39.822222 28.444445 28.444444 0 108.088889-68.266667 108.088889-68.266667h5.688889c68.266667 0 130.844444 39.822222 159.288889 96.711111 17.066667 22.755556 34.133333 45.511111 56.888889 62.577778L364.088889 503.466667 256 497.777778l-68.266667-51.2s11.377778-108.088889-39.822222-108.088889c-22.755556 0-22.755556 11.377778-22.755555 11.377778s-22.755556 102.4 0 136.533333c11.377778 17.066667 0 17.066667 5.688888 22.755556 22.755556 22.755556 45.511111 39.822222 73.955556 56.888888 28.444444 17.066667 216.177778 68.266667 227.555556 79.644445-22.755556 0-210.488889-56.888889-233.244445-62.577778-34.133333-11.377778-51.2-28.444444-62.577778-45.511111 5.688889 5.688889 11.377778 17.066667 11.377778 22.755556 0 11.377778 5.688889 39.822222 17.066667 45.511111 96.711111 17.066667 85.333333 68.266667 113.777778 68.266666 91.022222 0 187.733333-17.066667 267.377777-62.577777 39.822222-17.066667 73.955556-39.822222 113.777778-62.577778 56.888889-51.2 136.533333-102.4 159.288889-119.466667 28.444444-28.444444 62.577778-45.511111 96.711111-62.577778v-11.377777h56.888889c0 28.444444-17.066667 51.2-39.822222 56.888888zM244.622222 423.822222l34.133334 22.755556 68.266666 5.688889c17.066667-17.066667 45.511111-39.822222 91.022222-79.644445-11.377778-11.377778-17.066667-22.755556-28.444444-39.822222-17.066667-39.822222-56.888889-68.266667-102.4-68.266667-28.444444 22.755556-56.888889 45.511111-91.022222 62.577778 22.755556 28.444444 28.444444 62.577778 28.444444 96.711111z"  horiz-adv-x="1024" />

    
    <glyph glyph-name="ico-cc-nqyy" unicode="&#58945;" d="M701.44 181.76c-10.24-2.56-17.92-5.12-35.84-10.24-28.16-5.12-48.64-10.24-53.76-10.24h-5.12c-58.88 0-117.76 17.92-166.4 58.88l-17.92 17.92-12.8 12.8-30.72 28.16-79.36 79.36c-5.12 5.12-10.24 12.8-10.24 23.04 0 5.12 2.56 12.8 10.24 23.04 5.12 5.12 12.8 10.24 23.04 10.24s15.36-2.56 23.04-10.24l122.88-120.32c10.24-10.24 23.04-23.04 38.4-28.16 30.72-17.92 69.12-30.72 107.52-30.72 17.92 0 35.84 2.56 51.2 5.12 10.24 2.56 17.92 5.12 30.72 10.24 25.6 10.24 48.64 25.6 64 43.52 38.4 38.4 58.88 84.48 58.88 143.36s-17.92 99.84-58.88 143.36c-38.4 38.4-89.6 58.88-145.92 58.88-40.96 0-79.36-10.24-112.64-35.84-17.92 15.36-38.4 25.6-56.32 35.84 53.76 43.52 107.52 64 171.52 64 35.84 0 69.12-10.24 99.84-23.04 30.72-12.8 58.88-35.84 89.6-58.88 53.76-51.2 76.8-110.08 76.8-184.32s-25.6-133.12-76.8-184.32c-35.84-28.16-69.12-51.2-104.96-61.44zM174.08 227.84c-43.52 40.96-64 92.16-64 148.48s23.04 107.52 64 148.48 92.16 58.88 151.04 58.88h30.72c12.8-2.56 23.04-2.56 30.72-5.12 17.92-5.12 38.4-15.36 56.32-28.16 5.12-5.12 12.8-10.24 23.04-17.92l5.12-10.24 12.8-12.8 71.68-69.12c5.12-5.12 10.24-12.8 10.24-17.92 0-10.24-2.56-15.36-10.24-23.04-5.12-5.12-12.8-5.12-23.04-5.12s-15.36 2.56-23.04 5.12l-71.68 71.68-7.68 15.36-5.12 5.12c-23.04 17.92-48.64 30.72-76.8 35.84h-28.16c-40.96 0-76.8-15.36-104.96-43.52s-43.52-64-43.52-107.52c0-40.96 12.8-76.8 43.52-107.52s66.56-43.52 110.08-43.52h28.16l25.6-23.04c12.8-12.8 28.16-25.6 40.96-35.84h-94.72c-58.88-2.56-110.08 20.48-151.04 61.44zM609.28 742.4c-43.52 0-84.48-5.12-122.88-23.04-38.4-15.36-76.8-40.96-107.52-69.12l-5.12-5.12c-12.8 2.56-28.16 2.56-43.52 2.56-76.8 0-143.36-28.16-199.68-79.36-51.2-51.2-79.36-117.76-79.36-189.44s28.16-138.24 79.36-189.44c53.76-51.2 120.32-79.36 199.68-79.36H619.52c43.52 0 81.92 10.24 122.88 25.6 38.4 15.36 76.8 38.4 104.96 69.12 40.96 40.96 69.12 89.6 84.48 143.36 12.8 53.76 12.8 110.08 0 163.84-12.8 53.76-43.52 99.84-84.48 143.36C773.12 711.68 701.44 742.4 609.28 742.4z"  horiz-adv-x="1024" />

    
    <glyph glyph-name="ico-clonestamptool-" unicode="&#58946;" d="M841.955556-42.666667c0-17.066667-11.377778-28.444444-28.444445-28.444444H204.8c-17.066667 0-28.444444 11.377778-28.444444 28.444444s11.377778 28.444444 28.444444 28.444445h608.711111c17.066667 5.688889 28.444444-5.688889 28.444445-28.444445zM506.311111 839.111111C403.911111 839.111111 318.577778 753.777778 318.577778 651.377778c0-79.644444 56.888889-153.6 125.155555-176.355556 0-73.955556-11.377778-187.733333-28.444444-187.733333-39.822222 0-301.511111-51.2-301.511111-91.022222v-119.466667c0-22.755556 11.377778-34.133333 28.444444-34.133333h728.177778c17.066667 0 28.444444 11.377778 28.444444 28.444444v119.466667c0 39.822222-256 85.333333-295.822222 85.333333-17.066667 0-22.755556 113.777778-28.444444 187.733333 73.955556 22.755556 125.155556 96.711111 125.155555 176.355556 0 113.777778-79.644444 199.111111-193.422222 199.111111z"  horiz-adv-x="1024" />

    
    <glyph glyph-name="ico-colorreplacement" unicode="&#58947;" d="M199.111111 708.266667c0 17.066667 11.377778 28.444444 28.444445 28.444444h22.755555v22.755556c0 11.377778 5.688889 22.755556 22.755556 22.755555s22.755556-11.377778 22.755555-22.755555v-22.755556l85.333334 5.688889s45.511111-5.688889 79.644444-39.822222c39.822222-34.133333 45.511111-91.022222 45.511111-91.022222l-17.066667-68.266667H512c17.066667 0 22.755556-11.377778 22.755556-22.755556 0-17.066667-11.377778-22.755556-22.755556-22.755555h-22.755556v-22.755556c0-17.066667-11.377778-22.755556-22.755555-22.755555-17.066667 0-22.755556 11.377778-22.755556 22.755555v17.066667h-28.444444c-17.066667 0-22.755556 11.377778-22.755556 22.755555 0 17.066667 11.377778 22.755556 22.755556 22.755556h22.755555s34.133333 91.022222-11.377777 136.533333c-34.133333 39.822222-130.844444 11.377778-130.844445 11.377778v-22.755555c0-17.066667-11.377778-22.755556-22.755555-22.755556s-22.755556 5.688889-22.755556 22.755556v22.755555H227.555556c-17.066667 0-28.444444 11.377778-28.444445 22.755556zM102.4 492.088889v-142.222222h142.222222V492.088889H102.4zM102.4 492.088889h142.222222v-142.222222H102.4V492.088889zM56.888889 543.288889v-238.933333h238.933333V543.288889H56.888889zM563.2 327.111111c-5.688889-11.377778 0-17.066667 5.688889-17.066667 39.822222-5.688889 85.333333-45.511111 96.711111-73.955555 0-11.377778 11.377778-11.377778 17.066667-5.688889 108.088889 130.844444 329.955556 420.977778 284.444444 455.111111-56.888889 28.444444-295.822222-227.555556-403.911111-358.4zM540.444444 65.422222c45.511111 68.266667 45.511111 125.155556-17.066666 170.666667s-147.911111 17.066667-193.422222-45.511111c-85.333333-130.844444 0-159.288889-113.777778-227.555556 170.666667-11.377778 284.444444 39.822222 324.266666 102.4z"  horiz-adv-x="1024" />

    
    <glyph glyph-name="ico-colorsamplertool" unicode="&#58948;" d="M352.711111 2.844444c28.444444 0 56.888889 11.377778 79.644445 34.133334l295.822222 295.822222 51.2-51.2 113.777778 113.777778-68.266667 68.266666 119.466667 113.777778c34.133333 34.133333 34.133333 85.333333 0 119.466667s-85.333333 34.133333-113.777778 0l-125.155556-119.466667-68.266666 68.266667-113.777778-113.777778 45.511111-51.2-284.444445-295.822222c-22.755556-17.066667-34.133333-45.511111-34.133333-73.955556s11.377778-56.888889 28.444445-73.955555c22.755556-22.755556 45.511111-34.133333 73.955555-34.133334z m335.644445 358.4L398.222222 65.422222c-22.755556-22.755556-62.577778-22.755556-85.333333 0-11.377778 11.377778-17.066667 28.444444-17.066667 39.822222 0 17.066667 11.377778 34.133333 17.066667 39.822223L608.711111 440.888889l79.644445-79.644445zM187.733333 577.422222c0 56.888889 22.755556 73.955556 73.955556 73.955556 56.888889 0 73.955556-22.755556 73.955555-73.955556s-17.066667-73.955556-73.955555-73.955555-73.955556 17.066667-73.955556 73.955555z m96.711111 113.777778V759.466667c0 11.377778-5.688889 22.755556-22.755555 22.755555s-22.755556-11.377778-22.755556-22.755555v-68.266667c-45.511111-11.377778-79.644444-45.511111-91.022222-91.022222H79.644444c-11.377778 0-22.755556-11.377778-22.755555-22.755556s11.377778-22.755556 22.755555-22.755555h68.266667c11.377778-45.511111 45.511111-85.333333 91.022222-91.022223v-68.266666c0-11.377778 11.377778-22.755556 22.755556-22.755556s22.755556 5.688889 22.755555 17.066667V463.644444c45.511111 5.688889 85.333333 45.511111 91.022223 91.022223h73.955555c11.377778 0 22.755556 11.377778 22.755556 22.755555s-11.377778 22.755556-22.755556 22.755556H375.466667c-11.377778 45.511111-45.511111 79.644444-91.022223 91.022222z m-45.511111-113.777778c0-17.066667 11.377778-22.755556 22.755556-22.755555s22.755556 5.688889 22.755555 22.755555-5.688889 22.755556-22.755555 22.755556-22.755556-11.377778-22.755556-22.755556z"  horiz-adv-x="1024" />

    
    <glyph glyph-name="ico-convertknottool-" unicode="&#58949;" d="M870.4 162.133333h85.333333L284.444444 839.111111v-910.222222h68.266667V691.2l517.688889-529.066667z"  horiz-adv-x="1024" />

    
    <glyph glyph-name="ico-croptool-DM_gEh" unicode="&#58950;" d="M963.764706 173.176471h120.470588c36.141176 0 60.235294-24.094118 60.235294-60.235295s-24.094118-60.235294-60.235294-60.235294h-120.470588v120.470589zM0 655.058824c0 36.141176 24.094118 60.235294 60.235294 60.235294h120.470588v-120.470589H60.235294c-36.141176 0-60.235294 24.094118-60.235294 60.235295zM421.647059 715.294118v-120.470589h361.411765v-662.588235c0-36.141176 24.094118-60.235294 60.235294-60.235294s60.235294 24.094118 60.235294 60.235294V655.058824c0 36.141176-24.094118 60.235294-60.235294 60.235294H421.647059zM301.176471 896c-36.141176 0-60.235294-24.094118-60.235295-60.235294v-722.82353c0-36.141176 24.094118-60.235294 60.235295-60.235294h421.647058v120.470589H361.411765V835.764706c0 36.141176-24.094118 60.235294-60.235294 60.235294z"  horiz-adv-x="1144" />

    
    <glyph glyph-name="ico-deleteknottool-" unicode="&#58951;" d="M950.044444 571.733333l-164.977777 164.977778c-39.822222 39.822222-45.511111 45.511111-68.266667 45.511111-17.066667 0-34.133333-5.688889-45.511111-17.066666-22.755556-28.444444-45.511111-68.266667-45.511111-73.955556l-11.377778-11.377778-284.444444-142.222222c-11.377778-5.688889-22.755556-17.066667-28.444445-34.133333L170.666667 99.555556c-11.377778-28.444444 0-51.2 22.755555-73.955556 5.688889-5.688889 17.066667-17.066667 22.755556-17.066667 17.066667-17.066667 28.444444-22.755556 51.2-22.755555 5.688889 0 11.377778 0 17.066666 5.688889l409.6 136.533333c17.066667 5.688889 28.444444 17.066667 34.133334 28.444444l142.222222 278.755556c0 5.688889 11.377778 11.377778 17.066667 17.066667 5.688889 5.688889 45.511111 28.444444 68.266666 45.511111 17.066667 17.066667 17.066667 51.2-5.688889 73.955555z m-284.444444-398.222222l-409.6-136.533333L489.244444 270.222222c28.444444-11.377778 51.2-5.688889 73.955556 17.066667 28.444444 28.444444 28.444444 68.266667 0 96.711111-17.066667 28.444444-62.577778 28.444444-91.022222 0-17.066667-17.066667-22.755556-51.2-11.377778-73.955556L227.555556 76.8l136.533333 409.6 284.444444 142.222222 170.666667-170.666666-153.6-284.444445zM85.333333 731.022222c-17.066667 0-28.444444-11.377778-28.444444-28.444444s11.377778-28.444444 28.444444-28.444445h216.177778c17.066667 0 28.444444 11.377778 28.444445 28.444445s-17.066667 28.444444-34.133334 28.444444H85.333333z"  horiz-adv-x="1024" />

    
    <glyph glyph-name="ico-counttool-PdCpy" unicode="&#58952;" d="M301.511111 2.844444h307.2c5.688889 0 5.688889 0 5.688889 5.688889l11.377778 45.511111c0 5.688889 0 5.688889-5.688889 5.688889H386.844444l130.844445 130.844445c51.2 56.888889 73.955556 79.644444 73.955555 136.533333 0 79.644444-51.2 142.222222-153.6 142.222222-56.888889 0-96.711111-17.066667-130.844444-39.822222h-5.688889V384c0-5.688889 0-5.688889 5.688889-5.688889 34.133333 22.755556 73.955556 39.822222 113.777778 39.822222 62.577778 0 102.4-45.511111 102.4-96.711111s-22.755556-68.266667-79.644445-130.844444c-56.888889-62.577778-125.155556-125.155556-147.911111-147.911111l-5.688889-5.688889 11.377778-34.133334c-5.688889 0-5.688889 0 0 0z m455.111111 512h45.511111c56.888889 0 96.711111-28.444444 96.711111-85.333333 0-45.511111-22.755556-91.022222-96.711111-91.022222-39.822222 0-73.955556 11.377778-113.777777 34.133333-5.688889 0-5.688889 0-5.688889-5.688889v-39.822222c0-5.688889 0-5.688889 5.688889-5.688889 28.444444-17.066667 68.266667-28.444444 119.466666-28.444444 91.022222 0 159.288889 45.511111 159.288889 130.844444 0 68.266667-45.511111 102.4-85.333333 113.777778 34.133333 11.377778 62.577778 39.822222 62.577778 91.022222 0 56.888889-51.2 96.711111-130.844445 96.711111-45.511111 0-85.333333-17.066667-113.777778-34.133333-5.688889 0-5.688889-5.688889-5.688889-5.688889v-39.822222c0-5.688889 0-5.688889 5.688889-5.688889 34.133333 22.755556 68.266667 28.444444 102.4 28.444444 56.888889 0 85.333333-28.444444 85.333334-62.577777 0-34.133333-22.755556-56.888889-85.333334-56.888889h-45.511111c-5.688889 0-5.688889 0-5.688889-5.688889l5.688889-28.444445zM136.533333 292.977778l-73.955555-11.377778c-5.688889 0-5.688889 0-5.688889-5.688889v-28.444444s0-5.688889 5.688889-5.688889h187.733333c5.688889 0 5.688889 0 5.688889 5.688889v28.444444s0 5.688889-5.688889 5.688889l-56.888889 11.377778V628.622222s0 5.688889-5.688889 5.688889h-22.755555c-28.444444-11.377778-51.2-22.755556-79.644445-28.444444-5.688889 0-5.688889 0-5.688889-5.688889l-11.377777-45.511111h5.688889c11.377778 0 39.822222 11.377778 68.266666 17.066666l-5.688889-278.755555zM301.511111 2.844444h307.2c5.688889 0 5.688889 0 5.688889 5.688889l11.377778 45.511111c0 5.688889 0 5.688889-5.688889 5.688889H386.844444l130.844445 130.844445c51.2 56.888889 73.955556 79.644444 73.955555 136.533333 0 79.644444-51.2 142.222222-153.6 142.222222-56.888889 0-96.711111-17.066667-130.844444-39.822222h-5.688889V384c0-5.688889 0-5.688889 5.688889-5.688889 34.133333 22.755556 73.955556 39.822222 113.777778 39.822222 62.577778 0 102.4-45.511111 102.4-96.711111s-22.755556-68.266667-79.644445-130.844444c-56.888889-62.577778-125.155556-125.155556-147.911111-147.911111l-5.688889-5.688889 11.377778-34.133334c-5.688889 0-5.688889 0 0 0z m455.111111 512h45.511111c56.888889 0 96.711111-28.444444 96.711111-85.333333 0-45.511111-22.755556-91.022222-96.711111-91.022222-39.822222 0-73.955556 11.377778-113.777777 34.133333-5.688889 0-5.688889 0-5.688889-5.688889v-39.822222c0-5.688889 0-5.688889 5.688889-5.688889 28.444444-17.066667 68.266667-28.444444 119.466666-28.444444 91.022222 0 159.288889 45.511111 159.288889 130.844444 0 68.266667-45.511111 102.4-85.333333 113.777778 34.133333 11.377778 62.577778 39.822222 62.577778 91.022222 0 56.888889-51.2 96.711111-130.844445 96.711111-45.511111 0-85.333333-17.066667-113.777778-34.133333-5.688889 0-5.688889-5.688889-5.688889-5.688889v-39.822222c0-5.688889 0-5.688889 5.688889-5.688889 34.133333 22.755556 68.266667 28.444444 102.4 28.444444 56.888889 0 85.333333-28.444444 85.333334-62.577777 0-34.133333-22.755556-56.888889-85.333334-56.888889h-45.511111c-5.688889 0-5.688889 0-5.688889-5.688889l5.688889-28.444445zM136.533333 292.977778l-73.955555-11.377778c-5.688889 0-5.688889 0-5.688889-5.688889v-28.444444s0-5.688889 5.688889-5.688889h187.733333c5.688889 0 5.688889 0 5.688889 5.688889v28.444444s0 5.688889-5.688889 5.688889l-56.888889 11.377778V628.622222s0 5.688889-5.688889 5.688889h-22.755555c-28.444444-11.377778-51.2-22.755556-79.644445-28.444444-5.688889 0-5.688889 0-5.688889-5.688889l-11.377777-45.511111h5.688889c11.377778 0 39.822222 11.377778 68.266666 17.066666l-5.688889-278.755555z"  horiz-adv-x="1024" />

    
    <glyph glyph-name="ico-directselecttool" unicode="&#58953;" d="M324.266667 822.044444c-28.444444 28.444444-51.2 17.066667-51.2-22.755555V42.666667c0-39.822222 22.755556-45.511111 45.511111-17.066667l170.666666 199.111111 113.777778-278.755555c5.688889-11.377778 22.755556-17.066667 34.133334-11.377778l51.2 28.444444c11.377778 5.688889 17.066667 22.755556 11.377777 39.822222l-113.777777 273.066667h227.555555c39.822222 0 51.2 22.755556 22.755556 51.2l-512 494.933333z"  horiz-adv-x="1024" />

    
    <glyph glyph-name="ico-customshapetool-" unicode="&#58954;" d="M620.088889 731.022222c22.755556 0 39.822222-45.511111 39.822222-102.4 0-34.133333 22.755556-73.955556 91.022222-73.955555 34.133333 0 79.644444 17.066667 108.088889 22.755555 22.755556 0 45.511111-17.066667 56.888889-22.755555 5.688889-22.755556 17.066667-62.577778-96.711111-108.088889-11.377778 0-22.755556-5.688889-28.444444-5.688889-56.888889-22.755556-113.777778-45.511111-130.844445-102.4-5.688889-22.755556-5.688889-56.888889 34.133333-96.711111 11.377778-11.377778 22.755556-17.066667 28.444445-22.755556 11.377778-5.688889 22.755556-17.066667 22.755555-22.755555 0-17.066667-22.755556-51.2-39.822222-73.955556-22.755556-22.755556-51.2-45.511111-73.955555-45.511111-28.444444 0-51.2 22.755556-68.266667 45.511111-5.688889 5.688889-5.688889 11.377778-11.377778 17.066667-22.755556 39.822222-56.888889 102.4-125.155555 102.4-17.066667 0-34.133333-5.688889-51.2-11.377778-62.577778-22.755556-85.333333-56.888889-108.088889-85.333333-17.066667-22.755556-22.755556-34.133333-51.2-45.511111-5.688889 0-11.377778-5.688889-22.755556-5.688889-34.133333 0-68.266667 28.444444-79.644444 56.888889-11.377778 22.755556-17.066667 45.511111 34.133333 113.777777 22.755556 34.133333 51.2 56.888889 91.022222 85.333334 28.444444 11.377778 56.888889 34.133333 68.266667 68.266666 22.755556 56.888889-11.377778 96.711111-28.444444 125.155556-17.066667 22.755556-28.444444 39.822222-28.444445 45.511111 5.688889 22.755556 11.377778 28.444444 39.822222 28.444444h34.133334c17.066667 0 28.444444 0 45.511111-5.688888 45.511111 0 91.022222 5.688889 130.844444 28.444444 22.755556 17.066667 34.133333 28.444444 51.2 45.511111 11.377778 11.377778 22.755556 22.755556 34.133334 28.444445 22.755556 17.066667 28.444444 17.066667 34.133333 17.066666z m0 51.2c-22.755556 0-39.822222-5.688889-62.577778-22.755555-28.444444-17.066667-45.511111-51.2-79.644444-73.955556-34.133333-17.066667-68.266667-17.066667-102.4-17.066667-22.755556 0-56.888889 5.688889-85.333334 5.688889-39.822222 0-73.955556-11.377778-91.022222-68.266666C182.044444 537.6 267.377778 497.777778 250.311111 440.888889c-5.688889-22.755556-28.444444-34.133333-39.822222-45.511111-39.822222-28.444444-68.266667-56.888889-102.4-96.711111-56.888889-85.333333-62.577778-119.466667-39.822222-170.666667 17.066667-45.511111 73.955556-85.333333 130.844444-85.333333 11.377778 0 22.755556 0 34.133333 5.688889 79.644444 28.444444 68.266667 96.711111 153.6 125.155555 17.066667 5.688889 22.755556 5.688889 34.133334 5.688889 45.511111 0 68.266667-51.2 91.022222-91.022222 22.755556-45.511111 68.266667-68.266667 108.088889-68.266667s79.644444 22.755556 113.777778 62.577778c22.755556 22.755556 62.577778 85.333333 56.888889 119.466667-5.688889 28.444444-45.511111 51.2-68.266667 68.266666-68.266667 68.266667 51.2 102.4 108.088889 125.155556s153.6 73.955556 119.466666 170.666666c-11.377778 22.755556-68.266667 51.2-102.4 51.2h-17.066666c-22.755556-11.377778-62.577778-22.755556-91.022222-22.755555-22.755556 0-39.822222 5.688889-39.822223 22.755555 11.377778 102.4-22.755556 164.977778-79.644444 164.977778zM620.088889 731.022222c22.755556 0 39.822222-45.511111 39.822222-102.4 0-34.133333 22.755556-73.955556 91.022222-73.955555 34.133333 0 79.644444 17.066667 108.088889 22.755555 22.755556 0 45.511111-17.066667 56.888889-22.755555 5.688889-22.755556 17.066667-62.577778-96.711111-108.088889-11.377778 0-22.755556-5.688889-28.444444-5.688889-56.888889-22.755556-113.777778-45.511111-130.844445-102.4-5.688889-22.755556-5.688889-56.888889 34.133333-96.711111 11.377778-11.377778 22.755556-17.066667 28.444445-22.755556 11.377778-5.688889 22.755556-17.066667 22.755555-22.755555 0-17.066667-22.755556-51.2-39.822222-73.955556-22.755556-22.755556-51.2-45.511111-73.955555-45.511111-28.444444 0-51.2 22.755556-68.266667 45.511111-5.688889 5.688889-5.688889 11.377778-11.377778 17.066667-22.755556 39.822222-56.888889 102.4-125.155555 102.4-17.066667 0-34.133333-5.688889-51.2-11.377778-62.577778-22.755556-85.333333-56.888889-108.088889-85.333333-17.066667-22.755556-22.755556-34.133333-51.2-45.511111-5.688889 0-11.377778-5.688889-22.755556-5.688889-34.133333 0-68.266667 28.444444-79.644444 56.888889-11.377778 22.755556-17.066667 45.511111 34.133333 113.777777 22.755556 34.133333 51.2 56.888889 91.022222 85.333334 28.444444 11.377778 56.888889 34.133333 68.266667 68.266666 22.755556 56.888889-11.377778 96.711111-28.444444 125.155556-17.066667 22.755556-28.444444 39.822222-28.444445 45.511111 5.688889 22.755556 11.377778 28.444444 39.822222 28.444444h34.133334c17.066667 0 28.444444 0 45.511111-5.688888 45.511111 0 91.022222 5.688889 130.844444 28.444444 22.755556 17.066667 34.133333 28.444444 51.2 45.511111 11.377778 11.377778 22.755556 22.755556 34.133334 28.444445 22.755556 17.066667 28.444444 17.066667 34.133333 17.066666z"  horiz-adv-x="1024" />

    
    <glyph glyph-name="ico-distributeedgebo" unicode="&#58955;" d="M625.777778 696.888889c0 17.066667-11.377778 28.444444-28.444445 28.444444h-227.555555c-17.066667 0-28.444444-11.377778-28.444445-28.444444V497.777778H85.333333c-17.066667 0-28.444444-11.377778-28.444444-28.444445s11.377778-28.444444 28.444444-28.444444h796.444445c11.377778 0 28.444444 11.377778 28.444444 28.444444s-17.066667 28.444444-28.444444 28.444445H625.777778V696.888889zM739.555556 298.666667c0 17.066667-11.377778 28.444444-28.444445 28.444444h-455.111111c-17.066667 0-28.444444-11.377778-28.444444-28.444444V99.555556H85.333333c-17.066667 0-28.444444-11.377778-28.444444-28.444445s11.377778-28.444444 28.444444-28.444444h796.444445c17.066667 0 28.444444 11.377778 28.444444 28.444444s-11.377778 28.444444-28.444444 28.444445H739.555556v199.111111z"  horiz-adv-x="1024" />

    
    <glyph glyph-name="ico-distributecenter" unicode="&#58956;" d="M369.777778 839.111111c-17.066667 0-28.444444-11.377778-28.444445-28.444444V668.444444H256c-17.066667 0-28.444444-11.377778-28.444444-28.444444v-512c0-17.066667 11.377778-28.444444 28.444444-28.444444H341.333333v-142.222223c0-17.066667 11.377778-28.444444 28.444445-28.444444s28.444444 11.377778 28.444444 28.444444V99.555556h85.333334c17.066667 0 28.444444 11.377778 28.444444 28.444444v512c0 17.066667-11.377778 28.444444-28.444444 28.444444H398.222222V810.666667c0 17.066667-11.377778 28.444444-28.444444 28.444444zM711.111111 839.111111c-17.066667 0-28.444444-11.377778-28.444444-28.444444V554.666667h-85.333334c-17.066667 0-28.444444-11.377778-28.444444-28.444445v-284.444444c0-17.066667 11.377778-28.444444 28.444444-28.444445H682.666667v-256c0-17.066667 11.377778-28.444444 28.444444-28.444444s28.444444 11.377778 28.444445 28.444444V213.333333h85.333333c17.066667 0 28.444444 11.377778 28.444444 28.444445v284.444444c0 17.066667-11.377778 28.444444-28.444444 28.444445H739.555556V810.666667c0 17.066667-11.377778 28.444444-28.444445 28.444444z"  horiz-adv-x="1024" />

    
    <glyph glyph-name="ico-distributeedgele" unicode="&#58957;" d="M256 782.222222c-17.066667 0-28.444444-11.377778-28.444444-28.444444v-796.444445c0-17.066667 11.377778-28.444444 28.444444-28.444444s28.444444 11.377778 28.444444 28.444444V99.555556h199.111112c17.066667 0 28.444444 11.377778 28.444444 28.444444v455.111111c0 17.066667-11.377778 28.444444-28.444444 28.444445H284.444444V753.777778c0 17.066667-11.377778 28.444444-28.444444 28.444444zM597.333333 782.222222c-17.066667 0-28.444444-11.377778-28.444444-28.444444v-796.444445c0-17.066667 11.377778-28.444444 28.444444-28.444444s28.444444 11.377778 28.444445 28.444444V213.333333h199.111111c17.066667 0 28.444444 11.377778 28.444444 28.444445v227.555555c0 17.066667-11.377778 28.444444-28.444444 28.444445H625.777778V753.777778c0 17.066667-11.377778 28.444444-28.444445 28.444444z"  horiz-adv-x="1024" />

    
    <glyph glyph-name="ico-distributeedgeri" unicode="&#58958;" d="M483.555556 782.222222c17.066667 0 28.444444-11.377778 28.444444-28.444444v-796.444445c0-17.066667-11.377778-28.444444-28.444444-28.444444s-28.444444 11.377778-28.444445 28.444444V99.555556H256c-17.066667 0-28.444444 11.377778-28.444444 28.444444v455.111111c0 17.066667 11.377778 28.444444 28.444444 28.444445H455.111111V753.777778c0 17.066667 11.377778 28.444444 28.444445 28.444444zM824.888889 782.222222c17.066667 0 28.444444-11.377778 28.444444-28.444444v-796.444445c0-17.066667-11.377778-28.444444-28.444444-28.444444s-28.444444 11.377778-28.444445 28.444444V213.333333h-199.111111c-17.066667 0-28.444444 11.377778-28.444444 28.444445v227.555555c0 17.066667 11.377778 28.444444 28.444444 28.444445H796.444444V753.777778c0 17.066667 11.377778 28.444444 28.444445 28.444444z"  horiz-adv-x="1024" />

    
    <glyph glyph-name="ico-dodgetool-iwqca" unicode="&#58959;" d="M654.222222 207.644444c-68.266667 0-130.844444 22.755556-182.044444 62.577778l-329.955556-329.955555c-17.066667-17.066667-51.2-17.066667-73.955555 0-17.066667 17.066667-17.066667 56.888889 0 73.955555l318.577777 329.955556c-34.133333 51.2-62.577778 113.777778-62.577777 182.044444C329.955556 702.577778 472.177778 839.111111 648.533333 839.111111s312.888889-136.533333 312.888889-312.888889-130.844444-318.577778-307.2-318.577778z"  horiz-adv-x="1024" />

    
    <glyph glyph-name="ico-ellipsetool-bL-" unicode="&#58960;" d="M512 731.022222c221.866667 0 398.222222-153.6 398.222222-335.644444s-182.044444-335.644444-398.222222-335.644445S113.777778 213.333333 113.777778 395.377778s182.044444 335.644444 398.222222 335.644444zM512 782.222222C261.688889 782.222222 56.888889 605.866667 56.888889 384s204.8-398.222222 455.111111-398.222222 455.111111 176.355556 455.111111 398.222222-204.8 398.222222-455.111111 398.222222zM512 731.022222c-221.866667 0-398.222222-153.6-398.222222-335.644444s182.044444-335.644444 398.222222-335.644445 398.222222 153.6 398.222222 335.644445-176.355556 335.644444-398.222222 335.644444z"  horiz-adv-x="1024" />

    
    <glyph glyph-name="ico-distributeedgeto" unicode="&#58961;" d="M113.777778 298.666667c0 17.066667 11.377778 28.444444 28.444444 28.444444h796.444445c17.066667 0 28.444444-11.377778 28.444444-28.444444s-11.377778-28.444444-28.444444-28.444445H796.444444v-199.111111c0-17.066667-11.377778-28.444444-28.444444-28.444444h-455.111111c-17.066667 0-28.444444 11.377778-28.444445 28.444444V270.222222H142.222222c-17.066667 0-28.444444 11.377778-28.444444 28.444445zM113.777778 640c0 17.066667 11.377778 28.444444 28.444444 28.444444h796.444445c17.066667 0 28.444444-11.377778 28.444444-28.444444s-11.377778-28.444444-28.444444-28.444444H682.666667v-199.111112c0-17.066667-11.377778-28.444444-28.444445-28.444444h-227.555555c-17.066667 0-28.444444 11.377778-28.444445 28.444444V611.555556H142.222222c-17.066667 0-28.444444 11.377778-28.444444 28.444444z"  horiz-adv-x="1024" />

    
    <glyph glyph-name="ico-distributevcente" unicode="&#58962;" d="M682.666667 696.888889c0 17.066667-11.377778 28.444444-28.444445 28.444444h-227.555555c-17.066667 0-28.444444-11.377778-28.444445-28.444444V611.555556H142.222222c-17.066667 0-28.444444-11.377778-28.444444-28.444445s11.377778-28.444444 28.444444-28.444444H398.222222v-85.333334c0-17.066667 11.377778-28.444444 28.444445-28.444444h227.555555c17.066667 0 28.444444 11.377778 28.444445 28.444444V554.666667h256c17.066667 0 28.444444 11.377778 28.444444 22.755555 0 22.755556-11.377778 34.133333-28.444444 34.133334H682.666667V696.888889zM796.444444 298.666667c0 17.066667-11.377778 28.444444-28.444444 28.444444h-455.111111c-17.066667 0-28.444444-11.377778-28.444445-28.444444V213.333333H142.222222c-17.066667 0-28.444444-11.377778-28.444444-28.444444s11.377778-28.444444 28.444444-28.444445H284.444444v-85.333333c0-17.066667 11.377778-28.444444 28.444445-28.444444h455.111111c17.066667 0 28.444444 11.377778 28.444444 28.444444V156.444444h142.222223c17.066667 0 28.444444 11.377778 28.444444 22.755556 0 17.066667-11.377778 28.444444-28.444444 28.444444H796.444444v91.022223z"  horiz-adv-x="1024" />

    
    <glyph glyph-name="ico-erasertool-May" unicode="&#58963;" d="M551.822222 196.266667l-176.355555-182.044445h-113.777778L113.777778 162.133333l227.555555 227.555556 210.488889-193.422222z m113.777778 585.955555c-5.688889 0-11.377778 0-17.066667-5.688889L62.577778 184.888889c-5.688889-11.377778-5.688889-28.444444 0-39.822222l182.044444-182.044445h694.044445c17.066667 0 28.444444 11.377778 28.444444 28.444445s-11.377778 28.444444-28.444444 28.444444H460.8L927.288889 497.777778c11.377778 11.377778 11.377778 28.444444 0 39.822222l-238.933333 238.933333c-17.066667 0-17.066667 5.688889-22.755556 5.688889z"  horiz-adv-x="1024" />

    
    <glyph glyph-name="ico-eyedroppertool-" unicode="&#58964;" d="M193.422222-71.111111c34.133333 0 68.266667 11.377778 96.711111 39.822222l375.466667 375.466667 62.577778-62.577778 147.911111 147.911111-85.333333 85.333333 153.6 147.911112c39.822222 39.822222 39.822222 108.088889 0 153.6-39.822222 39.822222-102.4 39.822222-147.911112 0L642.844444 668.444444 546.133333 742.4 398.222222 600.177778l62.577778-62.577778-369.777778-375.466667c-28.444444-22.755556-39.822222-56.888889-39.822222-91.022222 0-34.133333 11.377778-68.266667 34.133333-91.022222 34.133333-34.133333 62.577778-51.2 108.088889-51.2z m420.977778 455.111111l-369.777778-375.466667c-28.444444-28.444444-79.644444-28.444444-108.088889 0-11.377778 11.377778-22.755556 34.133333-22.755555 56.888889s11.377778 39.822222 22.755555 51.2L512 486.4 614.4 384z"  horiz-adv-x="1024" />

    
    <glyph glyph-name="ico-eyedropper-LGWa" unicode="&#58965;" d="M193.422222-71.111111c34.133333 0 68.266667 11.377778 96.711111 39.822222l375.466667 375.466667 62.577778-62.577778 147.911111 147.911111-85.333333 85.333333 153.6 147.911112c39.822222 39.822222 39.822222 108.088889 0 153.6-39.822222 39.822222-102.4 39.822222-147.911112 0L642.844444 668.444444 546.133333 742.4 398.222222 600.177778l62.577778-62.577778-369.777778-375.466667c-28.444444-22.755556-39.822222-56.888889-39.822222-91.022222 0-34.133333 11.377778-68.266667 34.133333-91.022222 34.133333-34.133333 62.577778-51.2 108.088889-51.2z m420.977778 455.111111l-369.777778-375.466667c-28.444444-28.444444-79.644444-28.444444-108.088889 0-11.377778 11.377778-22.755556 34.133333-22.755555 56.888889s11.377778 39.822222 22.755555 51.2L512 486.4 614.4 384z"  horiz-adv-x="1024" />

    
    <glyph glyph-name="ico-gradienttool-Jlp" unicode="&#58966;" d="M227.555556 99.555556V725.333333h796.444444v-625.777777z m824.888888-56.888889a28.444444 28.444444 0 0 1 28.444445 28.444444v682.666667a28.444444 28.444444 0 0 1-28.444445 28.444444h-853.333333a28.444444 28.444444 0 0 1-28.444444-28.444444v-682.666667a28.444444 28.444444 0 0 1 28.444444-28.444444zM625.777778 725.333333h56.888889v-625.777777h-56.888889zM341.333333 725.333333h56.888889v-625.777777H341.333333zM568.888889 725.333333h56.888889v-625.777777h-56.888889zM853.333333 725.333333h56.888889v-625.777777h-56.888889zM739.555556 725.333333h56.888888v-625.777777h-56.888888zM512 725.333333h56.888889v-625.777777H512zM227.555556 725.333333h56.888888v-625.777777H227.555556zM455.111111 725.333333h56.888889v-625.777777H455.111111zM682.666667 725.333333h56.888889v-625.777777h-56.888889zM910.222222 725.333333h56.888889v-625.777777h-56.888889zM796.444444 725.333333h56.888889v-625.777777h-56.888889zM284.444444 725.333333h56.888889v-625.777777H284.444444zM398.222222 725.333333h56.888889v-625.777777H398.222222z"  horiz-adv-x="1251" />

    
    <glyph glyph-name="ico-freeformpentool-" unicode="&#58967;" d="M955.733333 548.977778l-142.222222 142.222222c-34.133333 34.133333-34.133333 34.133333-56.888889 34.133333-11.377778 0-28.444444-5.688889-34.133333-11.377777-22.755556-22.755556-39.822222-56.888889-39.822222-62.577778l-11.377778-11.377778-244.622222-125.155556c-11.377778-5.688889-17.066667-11.377778-22.755556-28.444444l-113.777778-347.022222c-11.377778-22.755556 0-45.511111 17.066667-62.577778 5.688889-5.688889 11.377778-11.377778 17.066667-11.377778 17.066667-11.377778 28.444444-17.066667 45.511111-17.066666 5.688889 0 11.377778 0 11.377778 5.688888l347.022222 113.777778c11.377778 5.688889 22.755556 11.377778 28.444444 22.755556l125.155556 238.933333c0 5.688889 11.377778 11.377778 11.377778 11.377778 5.688889 5.688889 39.822222 22.755556 56.888888 39.822222s22.755556 45.511111 5.688889 68.266667z m-244.622222-341.333334l-347.022222-113.777777 199.111111 199.111111c22.755556-11.377778 45.511111-5.688889 62.577778 11.377778 22.755556 22.755556 22.755556 56.888889 0 79.644444-22.755556 22.755556-56.888889 22.755556-79.644445 0-17.066667-11.377778-22.755556-39.822222-11.377777-56.888889l-199.111112-199.111111 113.777778 347.022222 238.933334 125.155556 147.911111-147.911111-125.155556-244.622223zM102.4 133.688889v-45.511111h45.511111v45.511111h-45.511111zM199.111111 88.177778v-45.511111h45.511111v45.511111h-45.511111zM56.888889 224.711111v-45.511111h45.511111v45.511111H56.888889zM56.888889 315.733333v-45.511111h45.511111v45.511111H56.888889zM102.4 406.755556v-45.511112h45.511111v45.511112h-45.511111zM153.6 497.777778v-45.511111h45.511111V497.777778h-45.511111zM199.111111 588.8v-45.511111h45.511111v45.511111h-45.511111zM199.111111 679.822222v-45.511111h45.511111v45.511111h-45.511111zM102.4 725.333333v-45.511111h45.511111V725.333333h-45.511111z"  horiz-adv-x="1024" />

    
    <glyph glyph-name="ico-grouplayers-EJ" unicode="&#58968;" d="M512 787.911111l261.688889-147.911111L512 486.4 244.622222 640 512 787.911111z m153.6-426.666667l102.4-62.577777L512 150.755556l-256 147.911111 102.4 62.577777L512 270.222222l153.6 91.022222z m-307.2-170.666666L512 99.555556l153.6 91.022222 102.4-62.577778L512-19.911111l-256 147.911111 102.4 62.577778zM312.888889 384l-147.911111-85.333333L312.888889 213.333333l-147.911111-85.333333L512-71.111111l341.333333 199.111111-147.911111 85.333333 147.911111 85.333334L705.422222 384 853.333333 469.333333 705.422222 554.666667 853.333333 645.688889 512 839.111111 164.977778 640 512 440.888889l153.6 91.022222 102.4-62.577778L512 321.422222 250.311111 469.333333l102.4 62.577778-39.822222 22.755556-147.911111-85.333334L312.888889 384zM28.444444 839.111111c-17.066667 0-28.444444-11.377778-28.444444-28.444444v-853.333334c0-17.066667 11.377778-28.444444 28.444444-28.444444h113.777778c17.066667 0 28.444444 11.377778 28.444445 28.444444s-11.377778 28.444444-28.444445 28.444445H56.888889V782.222222h85.333333c17.066667 0 28.444444 11.377778 28.444445 28.444445S159.288889 839.111111 142.222222 839.111111h-113.777778zM995.555556 839.111111c17.066667 0 28.444444-11.377778 28.444444-28.444444v-853.333334c0-17.066667-11.377778-28.444444-28.444444-28.444444h-113.777778c-17.066667 0-28.444444 11.377778-28.444445 28.444444s11.377778 28.444444 28.444445 28.444445H967.111111V782.222222h-142.222222c-17.066667 0-28.444444 11.377778-28.444445 28.444445s11.377778 28.444444 28.444445 28.444444h170.666667z"  horiz-adv-x="1024" />

    
    <glyph glyph-name="ico-handtool-TqBhc" unicode="&#58969;" d="M540.444444 787.911111c22.755556 0 39.822222-22.755556 39.822223-39.822222v-347.022222l79.644444-5.688889V708.266667c0 22.755556 17.066667 39.822222 39.822222 39.822222s39.822222-17.066667 39.822223-39.822222v-347.022223c0-11.377778 45.511111-22.755556 56.888888-34.133333l39.822223 210.488889c5.688889 22.755556 17.066667 28.444444 28.444444 28.444444h11.377778c34.133333-5.688889 39.822222-34.133333 34.133333-51.2l-39.822222-290.133333s-17.066667-250.311111-301.511111-250.311111c-91.022222 0-210.488889-17.066667-301.511111 130.844444C170.666667 253.155556 113.777778 349.866667 113.777778 349.866667s-28.444444 34.133333 11.377778 56.888889l22.755555 11.377777c22.755556 0 39.822222-22.755556 39.822222-22.755555l119.466667-142.222222c5.688889 17.066667 17.066667 28.444444 17.066667 45.511111V674.133333c0 22.755556 22.755556 45.511111 45.511111 45.511111s56.888889-17.066667 56.888889-39.822222V384c0 5.688889 34.133333 17.066667 56.888889 17.066667h5.688888V753.777778c5.688889 17.066667 22.755556 34.133333 51.2 34.133333z m0 51.2c-45.511111 0-96.711111-34.133333-96.711111-85.333333v-22.755556c-17.066667 22.755556-39.822222 34.133333-62.577777 34.133334-51.2 0-96.711111-45.511111-96.711112-91.022223v-307.2l-45.511111 62.577778c-17.066667 17.066667-45.511111 45.511111-79.644444 45.511111-22.755556 0-34.133333-5.688889-51.2-17.066666-34.133333-22.755556-45.511111-45.511111-45.511111-68.266667-11.377778-34.133333 0-62.577778 11.377778-68.266667 11.377778-11.377778 62.577778-85.333333 147.911111-221.866666 108.088889-164.977778 238.933333-170.666667 347.022222-170.666667 261.688889 0 341.333333 182.044444 352.711111 295.822222l45.511111 284.444445c11.377778 56.888889-17.066667 102.4-68.266667 113.777777-5.688889 0-17.066667 5.688889-22.755555 5.688889-39.822222 0-68.266667-22.755556-73.955556-68.266666l-5.688889-17.066667v170.666667c0 51.2-39.822222 91.022222-91.022222 91.022222-28.444444 0-56.888889-11.377778-73.955555-28.444445C625.777778 810.666667 591.644444 839.111111 540.444444 839.111111zM540.444444 787.911111c22.755556 0 39.822222-22.755556 39.822223-39.822222v-347.022222l79.644444-5.688889V708.266667c0 22.755556 17.066667 39.822222 39.822222 39.822222s39.822222-17.066667 39.822223-39.822222v-347.022223c0-11.377778 45.511111-22.755556 56.888888-34.133333l39.822223 210.488889c5.688889 22.755556 17.066667 28.444444 28.444444 28.444444h11.377778c34.133333-5.688889 39.822222-34.133333 34.133333-51.2l-39.822222-290.133333s-17.066667-250.311111-301.511111-250.311111c-91.022222 0-210.488889-17.066667-301.511111 130.844444C170.666667 253.155556 113.777778 349.866667 113.777778 349.866667s-28.444444 34.133333 11.377778 56.888889l22.755555 11.377777c22.755556 0 39.822222-22.755556 39.822222-22.755555l119.466667-142.222222c5.688889 17.066667 17.066667 28.444444 17.066667 45.511111V674.133333c0 22.755556 22.755556 45.511111 45.511111 45.511111s56.888889-17.066667 56.888889-39.822222V384c0 5.688889 34.133333 17.066667 56.888889 17.066667h5.688888V753.777778c5.688889 17.066667 22.755556 34.133333 51.2 34.133333zM540.444444 787.911111c22.755556 0 39.822222-22.755556 39.822223-39.822222v-347.022222l79.644444-5.688889V708.266667c0 22.755556 17.066667 39.822222 39.822222 39.822222s39.822222-17.066667 39.822223-39.822222v-347.022223c0-11.377778 45.511111-22.755556 56.888888-34.133333l39.822223 210.488889c5.688889 22.755556 17.066667 28.444444 28.444444 28.444444h11.377778c34.133333-5.688889 39.822222-34.133333 34.133333-51.2l-39.822222-290.133333s-17.066667-250.311111-301.511111-250.311111c-91.022222 0-210.488889-17.066667-301.511111 130.844444C170.666667 253.155556 113.777778 349.866667 113.777778 349.866667s-28.444444 34.133333 11.377778 56.888889l22.755555 11.377777c22.755556 0 39.822222-22.755556 39.822222-22.755555l119.466667-142.222222c5.688889 17.066667 17.066667 28.444444 17.066667 45.511111V674.133333c0 22.755556 22.755556 45.511111 45.511111 45.511111s56.888889-17.066667 56.888889-39.822222V384c0 5.688889 34.133333 17.066667 56.888889 17.066667h5.688888V753.777778c5.688889 17.066667 22.755556 34.133333 51.2 34.133333z"  horiz-adv-x="1024" />

    
    <glyph glyph-name="ico-lassotool-QQn-" unicode="&#58970;" d="M233.244444 184.888889H227.555556c-68.266667 0-96.711111 11.377778-96.711112 45.511111 0 17.066667 11.377778 28.444444 28.444445 39.822222 22.755556-28.444444 56.888889-62.577778 73.955555-85.333333zM227.555556 281.6c68.266667 0 96.711111-17.066667 96.711111-51.2 0-22.755556-11.377778-34.133333-34.133334-39.822222-17.066667 22.755556-51.2 62.577778-79.644444 91.022222H227.555556z m261.688888-85.333333C745.244444 213.333333 967.111111 389.688889 967.111111 560.355556 967.111111 708.266667 802.133333 861.866667 540.444444 839.111111 278.755556 822.044444 56.888889 657.066667 56.888889 457.955556c0-51.2 11.377778-113.777778 45.511111-153.6-28.444444-17.066667-39.822222-39.822222-39.822222-68.266667 0-56.888889 73.955556-102.4 164.977778-102.4h22.755555c22.755556-17.066667 62.577778-45.511111 62.577778-73.955556 5.688889-45.511111-68.266667-125.155556-68.266667-125.155555h56.888889s62.577778 96.711111 56.888889 130.844444c0 22.755556-28.444444 56.888889-51.2 79.644445 34.133333 11.377778 62.577778 28.444444 73.955556 51.2h108.088888z m45.511112 580.266666c238.933333 11.377778 364.088889-96.711111 375.466666-216.177777 11.377778-125.155556-182.044444-295.822222-420.977778-307.2H386.844444c-17.066667 45.511111-79.644444 79.644444-159.288888 79.644444-22.755556 0-39.822222-5.688889-62.577778-11.377778-22.755556 22.755556-34.133333 62.577778-39.822222 85.333334-45.511111 164.977778 164.977778 358.4 409.6 369.777777z"  horiz-adv-x="1024" />

    
    <glyph glyph-name="ico-licenseandsave-W" unicode="&#58971;" d="M373.458824 233.411765s6.023529-6.023529 12.047058-6.02353h439.717647l-6.023529-84.329411H385.505882c-24.094118 0-42.164706 0-60.235294 6.023529-12.047059 12.047059-30.117647 18.070588-42.164706 30.117647s-12.047059 30.117647-12.047058 48.188235c0 30.117647 0 54.211765 12.047058 78.305883l30.117647 54.211764L126.494118 715.294118H60.235294V811.670588h132.517647l210.82353-415.623529H722.823529l6.02353 6.023529 144.564706 325.270588 90.352941-42.164705-138.541177-313.22353c-6.023529-24.094118-30.117647-36.141176-48.188235-48.188235-24.094118-12.047059-42.164706-12.047059-60.235294-12.047059H385.505882l-12.047058-66.258823v-12.047059z m30.117647-186.729412c-12.047059 12.047059-36.141176 30.117647-60.235295 30.117647-48.188235 0-84.329412-42.164706-84.329411-84.329412 0-48.188235 42.164706-84.329412 84.329411-84.329412 24.094118 0 42.164706 6.023529 60.235295 30.117648 36.141176 24.094118 36.141176 78.305882 0 108.423529zM722.823529 667.105882h-108.423529v-108.423529H499.952941V667.105882H385.505882V781.552941h114.447059V896h114.447059v-114.447059h114.447059L722.823529 667.105882z m90.352942-620.423529c-36.141176 36.141176-90.352941 36.141176-120.470589 0-36.141176-36.141176-36.141176-90.352941 0-120.470588 36.141176-36.141176 90.352941-36.141176 120.470589 0 12.047059 12.047059 24.094118 36.141176 24.094117 60.235294 0 30.117647-12.047059 48.188235-24.094117 60.235294z"  horiz-adv-x="1084" />

    
    <glyph glyph-name="ico-historybrushtool" unicode="&#58972;" d="M512 372.622222c-5.688889-11.377778 0-17.066667 5.688889-17.066666 45.511111-5.688889 91.022222-56.888889 102.4-91.022223 0-11.377778 11.377778-11.377778 17.066667-5.688889 125.155556 147.911111 381.155556 489.244444 324.266666 523.377778-62.577778 28.444444-324.266667-261.688889-449.422222-409.6zM523.377778 71.111111c51.2 73.955556 56.888889 142.222222-17.066667 193.422222-68.266667 56.888889-164.977778 22.755556-216.177778-56.888889-96.711111-147.911111 0-176.355556-130.844444-256 182.044444-11.377778 312.888889 45.511111 364.088889 119.466667zM699.733333 93.866667c0-17.066667 11.377778-28.444444 28.444445-28.444445s28.444444 11.377778 28.444444 28.444445-11.377778 28.444444-28.444444 28.444444-28.444444-11.377778-28.444445-28.444444z m113.777778 108.088889c0-17.066667 11.377778-28.444444 28.444445-28.444445s28.444444 11.377778 28.444444 28.444445-11.377778 28.444444-28.444444 28.444444-28.444444-17.066667-28.444445-28.444444z m56.888889 210.488888c0-17.066667 11.377778-28.444444 28.444444-28.444444s28.444444 11.377778 28.444445 28.444444-17.066667 28.444444-34.133333 28.444445-22.755556-11.377778-22.755556-28.444445z m0-108.088888c0-17.066667 11.377778-28.444444 28.444444-28.444445s28.444444 11.377778 28.444445 28.444445-17.066667 28.444444-34.133333 28.444444-22.755556-11.377778-22.755556-28.444444zM278.755556 571.733333C329.955556 611.555556 420.977778 662.755556 483.555556 668.444444c56.888889 0 96.711111-17.066667 153.6-34.133333 11.377778-5.688889 0-34.133333-17.066667-28.444444-51.2 17.066667-96.711111 28.444444-142.222222 28.444444S352.711111 594.488889 295.822222 554.666667l56.888889-79.644445c11.377778-11.377778 5.688889-22.755556-11.377778-22.755555H73.955556c-17.066667 0-22.755556 11.377778-11.377778 17.066666l130.844444 170.666667c11.377778 11.377778 22.755556 11.377778 34.133334 0l51.2-68.266667z"  horiz-adv-x="1024" />

    
    <glyph glyph-name="ico-linetool-qJ-u" unicode="&#58973;" d="M68.266667-59.733333c-11.377778 11.377778-11.377778 34.133333 0 45.511111L910.222222 827.733333c11.377778 11.377778 34.133333 11.377778 45.511111 0 11.377778-11.377778 11.377778-34.133333 0-45.511111L113.777778-59.733333c-17.066667-17.066667-34.133333-17.066667-45.511111 0z"  horiz-adv-x="1024" />

    
    <glyph glyph-name="ico-licensed-TCx" unicode="&#58974;" d="M51.2 358.4c0 66.56 10.24 128 40.96 189.44 51.2 117.76 143.36 209.92 261.12 261.12C409.6 834.56 471.04 844.8 537.6 844.8s128-10.24 189.44-40.96c117.76-51.2 209.92-143.36 261.12-261.12 25.6-56.32 35.84-117.76 35.84-184.32s-10.24-128-40.96-189.44c-51.2-117.76-143.36-209.92-261.12-261.12-56.32-25.6-117.76-35.84-184.32-35.84s-128 10.24-189.44 40.96c-117.76 51.2-209.92 143.36-261.12 261.12-25.6 56.32-35.84 117.76-35.84 184.32zM271.36 358.4c-10.24-10.24-15.36-20.48-15.36-35.84 0-15.36 5.12-25.6 15.36-40.96l148.48-189.44c5.12-5.12 20.48-15.36 30.72-15.36s25.6 5.12 35.84 15.36l322.56 409.6c10.24 15.36 15.36 25.6 10.24 40.96 0 15.36-10.24 25.6-15.36 35.84-15.36 5.12-30.72 10.24-40.96 10.24s-25.6-10.24-40.96-15.36l-276.48-348.16-102.4 128c-10.24 10.24-20.48 15.36-30.72 20.48-15.36 0-30.72-5.12-40.96-15.36z"  horiz-adv-x="1024" />

    
    <glyph glyph-name="ico-magicstamptool-" unicode="&#58975;" d="M773.688889 844.8l256-256L364.088889-76.8l-256 256L773.688889 844.8zM773.688889 896c-11.377778 0-28.444444-5.688889-34.133333-17.066667L73.955556 213.333333c-17.066667-17.066667-17.066667-51.2 0-68.266666l256-256c5.688889-11.377778 22.755556-17.066667 34.133333-17.066667 11.377778 0 28.444444 5.688889 34.133333 17.066667L1063.822222 554.666667c17.066667 17.066667 17.066667 51.2 0 68.266666L807.822222 878.933333c-5.688889 11.377778-22.755556 17.066667-34.133333 17.066667z m73.955555-489.244444l-256 256L773.688889 844.8l256-256-182.044445-182.044444z m-290.133333-290.133334L301.511111 378.311111 568.888889 645.688889l256-256-267.377778-273.066667zM284.444444 361.244444L540.444444 99.555556l-176.355555-176.355556-256 256L284.444444 361.244444zM420.977778 389.688889c0 28.444444 22.755556 51.2 51.2 51.2s51.2-22.755556 51.2-51.2-22.755556-51.2-51.2-51.2-51.2 22.755556-51.2 51.2zM523.377778 287.288889c0 28.444444 22.755556 51.2 51.2 51.2s51.2-22.755556 51.2-51.2-22.755556-51.2-51.2-51.2c-28.444444 5.688889-51.2 28.444444-51.2 51.2zM523.377778 486.4c0 28.444444 22.755556 51.2 51.2 51.2s51.2-22.755556 51.2-51.2c-5.688889-28.444444-28.444444-45.511111-56.888889-45.511111-22.755556 0-45.511111 17.066667-45.511111 45.511111zM620.088889 389.688889c0 28.444444 22.755556 51.2 51.2 51.2s51.2-22.755556 51.2-51.2-22.755556-51.2-51.2-51.2-51.2 22.755556-51.2 51.2z"  horiz-adv-x="1137" />

    
    <glyph glyph-name="ico-magicerasertool-" unicode="&#58976;" d="M273.066667 708.266667l39.822222-102.4 102.4-39.822223-102.4-39.822222-39.822222-96.711111-39.822223 96.711111-102.4 39.822222 102.4 39.822223 39.822223 102.4zM557.511111 782.222222l34.133333-85.333333 85.333334-34.133333-85.333334-34.133334-34.133333-85.333333-34.133333 85.333333-85.333334 34.133334 85.333334 34.133333 34.133333 85.333333zM665.6 173.511111l-108.088889-108.088889H455.111111l-102.4 102.4L512 327.111111l153.6-153.6z m-364.088889 0c-11.377778-11.377778-11.377778-22.755556 0-34.133333l125.155556-125.155556h147.911111l386.844444 398.222222c5.688889 11.377778 5.688889 28.444444 0 34.133334l-182.044444 187.733333c-11.377778 11.377778-22.755556 11.377778-34.133334 0l-443.733333-460.8zM176.355556 401.066667l34.133333-85.333334 85.333333-34.133333-85.333333-34.133333-34.133333-85.333334-34.133334 85.333334-85.333333 34.133333 85.333333 34.133333 34.133334 85.333334z"  horiz-adv-x="1024" />

    
    <glyph glyph-name="ico-magicwandtool-T" unicode="&#58977;" d="M864.711111 492.088889l-28.444444-73.955556-73.955556-28.444444 73.955556-28.444445 28.444444-79.644444 28.444445 79.644444 73.955555 34.133334-73.955555 28.444444-28.444445 68.266667zM813.511111 839.111111l39.822222-102.4 102.4-39.822222-102.4-45.511111-39.822222-102.4-39.822222 102.4-102.4 39.822222 102.4 39.822222 39.822222 108.088889zM415.288889 816.355556L449.422222 725.333333l91.022222-34.133333-91.022222-34.133333-34.133333-85.333334-39.822222 85.333334L284.444444 696.888889l91.022223 34.133333 39.822222 85.333334zM614.4 600.177778c-28.444444 0-51.2-11.377778-68.266667-28.444445l-460.8-460.8c-39.822222-39.822222-39.822222-102.4 0-136.533333 22.755556-22.755556 45.511111-28.444444 68.266667-28.444444 28.444444 0 51.2 11.377778 68.266667 28.444444L682.666667 435.2c39.822222 39.822222 39.822222 102.4 0 136.533333-11.377778 17.066667-39.822222 28.444444-68.266667 28.444445zM540.444444 349.866667L466.488889 418.133333l113.777778 113.777778c11.377778 11.377778 22.755556 17.066667 34.133333 17.066667 17.066667 0 28.444444-5.688889 34.133333-17.066667 22.755556-22.755556 22.755556-51.2 0-68.266667l-108.088889-113.777777z"  horiz-adv-x="1024" />

    
    <glyph glyph-name="ico-marqueeintersect" unicode="&#58978;" d="M398.222222 270.222222H113.777778V782.222222h512v-284.444444h284.444444v-512H398.222222v284.444444z m284.444445 512c0 34.133333-22.755556 56.888889-56.888889 56.888889H113.777778c-34.133333 0-56.888889-22.755556-56.888889-56.888889v-512c0-34.133333 22.755556-56.888889 56.888889-56.888889h227.555555v-227.555555c0-34.133333 22.755556-56.888889 56.888889-56.888889h512c34.133333 0 56.888889 22.755556 56.888889 56.888889V497.777778c0 34.133333-22.755556 56.888889-56.888889 56.888889h-227.555555V782.222222zM398.222222 270.222222H113.777778V782.222222h512v-284.444444h284.444444v-512H398.222222v284.444444z"  horiz-adv-x="1024" />

    
    <glyph glyph-name="ico-marqueeelliptool" unicode="&#58979;" d="M312.888889 742.4C227.555556 719.644444 164.977778 657.066667 119.466667 588.8c0-5.688889 39.822222-34.133333 39.822222-34.133333 39.822222 68.266667 96.711111 125.155556 170.666667 142.222222l-17.066667 45.511111z m301.511111 22.755556C580.266667 770.844444 551.822222 782.222222 512 782.222222s-68.266667-5.688889-102.4-11.377778c-5.688889 0 0-51.2 5.688889-51.2 34.133333 5.688889 62.577778 11.377778 96.711111 11.377778 34.133333 0 62.577778-5.688889 96.711111-11.377778 5.688889 0 17.066667 45.511111 5.688889 45.511112z m290.133333-182.044445c-45.511111 73.955556-96.711111 130.844444-187.733333 159.288889l-17.066667-39.822222c85.333333-22.755556 125.155556-79.644444 164.977778-147.911111 0-5.688889 45.511111 28.444444 39.822222 28.444444z m45.511111-312.888889c11.377778 34.133333 17.066667 73.955556 17.066667 113.777778s-5.688889 73.955556-22.755555 113.777778l-51.2-11.377778c11.377778-34.133333 17.066667-68.266667 17.066666-102.4 0-34.133333-5.688889-62.577778-17.066666-96.711111 5.688889 0 51.2-22.755556 56.888888-17.066667z m-233.244444-244.622222c85.333333 28.444444 147.911111 85.333333 193.422222 159.288889 0 0-34.133333 34.133333-39.822222 28.444444-45.511111-73.955556-73.955556-119.466667-176.355556-147.911111l22.755556-39.822222z m-307.2-28.444444c34.133333-5.688889 68.266667-11.377778 102.4-11.377778 39.822222 0 73.955556 5.688889 108.088889 11.377778 11.377778 0 0 56.888889-5.688889 51.2-34.133333-5.688889-68.266667-11.377778-102.4-11.377778-34.133333 0-68.266667 5.688889-102.4 11.377778-5.688889 5.688889-11.377778-51.2 0-51.2z m-290.133333 187.733333c45.511111-73.955556 102.4-125.155556 193.422222-159.288889l17.066667 39.822222c-91.022222 22.755556-130.844444 79.644444-176.355556 147.911111 0 0-39.822222-28.444444-34.133333-28.444444zM56.888889 384c0-39.822222 5.688889-79.644444 17.066667-113.777778 0-5.688889 51.2 5.688889 51.2 17.066667-11.377778 34.133333-17.066667 62.577778-17.066667 96.711111s5.688889 68.266667 17.066667 102.4c0 5.688889-45.511111 17.066667-45.511112 11.377778-11.377778-39.822222-22.755556-73.955556-22.755555-113.777778z"  horiz-adv-x="1024" />

    
    <glyph glyph-name="ico-marqueeadd-cCmN" unicode="&#58980;" d="M682.666667 782.222222c0 34.133333-22.755556 56.888889-56.888889 56.888889H113.777778c-34.133333 0-56.888889-22.755556-56.888889-56.888889v-512c0-34.133333 22.755556-56.888889 56.888889-56.888889h227.555555v56.888889H113.777778V782.222222h512v-227.555555h56.888889V782.222222zM625.777778 497.777778v-227.555556H398.222222V497.777778h227.555556z m-227.555556-284.444445h227.555556c34.133333 0 56.888889 22.755556 56.888889 56.888889V554.666667H398.222222c-34.133333 0-56.888889-22.755556-56.888889-56.888889v-284.444445h56.888889zM398.222222 497.777778h227.555556v-227.555556H398.222222V497.777778zM341.333333 213.333333v-227.555555c0-34.133333 22.755556-56.888889 56.888889-56.888889h512c34.133333 0 56.888889 22.755556 56.888889 56.888889V497.777778c0 34.133333-22.755556 56.888889-56.888889 56.888889h-227.555555v-56.888889h227.555555v-512H398.222222v227.555555H341.333333z"  horiz-adv-x="1024" />

    
    <glyph glyph-name="ico-magneticlassotoo" unicode="&#58981;" d="M642.844444 531.911111v-68.266667l-113.777777 17.066667V554.666667l113.777777-22.755556z m0 261.688889V725.333333l-102.4-28.444444V770.844444l102.4 22.755556z m68.266667 45.511111c-17.066667 0-210.488889-39.822222-210.488889-39.822222v-136.533333l210.488889 39.822222s73.955556-11.377778 73.955556-79.644445c0-73.955556-73.955556-79.644444-73.955556-79.644444l-210.488889 45.511111v-136.533333s187.733333-39.822222 210.488889-39.822223c51.2-5.688889 210.488889 11.377778 210.488889 210.488889S768 839.111111 711.111111 839.111111zM403.911111 224.711111c0 39.822222 34.133333 45.511111 39.822222 51.2 22.755556 5.688889 39.822222-5.688889 51.2-17.066667 17.066667-5.688889 22.755556-22.755556 22.755556-45.511111 0-17.066667-5.688889-34.133333-11.377778-45.511111-28.444444-11.377778-56.888889-11.377778-73.955555 0-28.444444 22.755556-28.444444 45.511111-28.444445 56.888889z m45.511111 364.088889L153.6 725.333333c-11.377778 0-22.755556 0-34.133333-5.688889-5.688889-11.377778-11.377778-22.755556 0-34.133333L375.466667 270.222222c0-5.688889-5.688889-5.688889-5.688889-11.377778-39.822222-39.822222-113.777778-113.777778-204.8-153.6-17.066667-5.688889-22.755556-22.755556-17.066667-39.822222 5.688889-17.066667 22.755556-22.755556 39.822222-17.066666 73.955556 34.133333 136.533333 62.577778 187.733334 113.777777 5.688889-22.755556 22.755556-39.822222 39.822222-51.2 11.377778-5.688889 39.822222-11.377778 62.577778-5.688889-39.822222-62.577778-96.711111-102.4-125.155556-125.155555-11.377778-11.377778-11.377778-28.444444-5.688889-39.822222 5.688889-5.688889 11.377778-11.377778 22.755556-11.377778 5.688889 0 11.377778 0 17.066666 5.688889 39.822222 34.133333 119.466667 96.711111 164.977778 187.733333 17.066667 5.688889 28.444444 11.377778 28.444445 11.377778l335.644444 164.977778c11.377778 5.688889 17.066667 17.066667 17.066667 28.444444V418.133333c-17.066667-17.066667-34.133333-28.444444-51.2-39.822222v-39.822222L568.888889 190.577778V213.333333c0 39.822222-11.377778 62.577778-39.822222 85.333334-17.066667 17.066667-45.511111 28.444444-68.266667 28.444444-11.377778 0-22.755556 0-34.133333-5.688889-5.688889-5.688889-17.066667-5.688889-22.755556-11.377778L204.8 634.311111l238.933333-113.777778 5.688889 68.266667z"  horiz-adv-x="1024" />

    
    <glyph glyph-name="ico-marqueerecttool-" unicode="&#58982;" d="M768-14.222222c-17.066667 0-28.444444 11.377778-28.444444 28.444444s11.377778 28.444444 28.444444 28.444445H910.222222v85.333333c0 17.066667 11.377778 28.444444 28.444445 28.444444s28.444444-11.377778 28.444444-28.444444v-113.777778c0-17.066667-11.377778-28.444444-28.444444-28.444444h-170.666667zM910.222222 412.444444c0 17.066667 11.377778 28.444444 28.444445 28.444445s28.444444-11.377778 28.444444-28.444445v-113.777777c0-17.066667-11.377778-28.444444-28.444444-28.444445s-28.444444 11.377778-28.444445 28.444445v113.777777zM910.222222 668.444444h-142.222222c-17.066667 0-28.444444 11.377778-28.444444 28.444445s11.377778 28.444444 28.444444 28.444444h170.666667c17.066667 0 28.444444-11.377778 28.444444-28.444444v-113.777778c0-17.066667-11.377778-28.444444-28.444444-28.444444s-28.444444 11.377778-28.444445 28.444444V668.444444zM398.222222 14.222222c0 17.066667 11.377778 28.444444 28.444445 28.444445h170.666666c17.066667 0 28.444444-11.377778 28.444445-28.444445s-11.377778-28.444444-28.444445-28.444444h-170.666666c-17.066667 0-28.444444 11.377778-28.444445 28.444444z m0 682.666667c0 17.066667 11.377778 28.444444 28.444445 28.444444h170.666666c17.066667 0 28.444444-11.377778 28.444445-28.444444s-11.377778-28.444444-28.444445-28.444445h-170.666666c-17.066667 0-28.444444 11.377778-28.444445 28.444445z m-341.333333-568.888889c0 17.066667 11.377778 28.444444 28.444444 28.444444s28.444444-11.377778 28.444445-28.444444V42.666667h142.222222c17.066667 0 28.444444-11.377778 28.444444-28.444445s-11.377778-28.444444-28.444444-28.444444h-170.666667c-17.066667 0-28.444444 11.377778-28.444444 28.444444v113.777778z m56.888889 455.111111c0-17.066667-11.377778-28.444444-28.444445-28.444444S56.888889 566.044444 56.888889 583.111111v113.777778c0 17.066667 11.377778 28.444444 28.444444 28.444444h170.666667c17.066667 0 28.444444-11.377778 28.444444-28.444444s-11.377778-28.444444-28.444444-28.444445H113.777778v-85.333333z m0-284.444444c0-17.066667-11.377778-28.444444-28.444445-28.444445s-28.444444 11.377778-28.444444 28.444445v113.777777c0 17.066667 11.377778 28.444444 28.444444 28.444445s28.444444-11.377778 28.444445-28.444445v-113.777777z"  horiz-adv-x="1024" />

    
    <glyph glyph-name="ico-marqueesinglecol" unicode="&#58983;" d="M426.666667-71.111111c-17.066667 0-28.444444 11.377778-28.444445 28.444444v182.044445c0 17.066667 11.377778 28.444444 28.444445 28.444444s28.444444-11.377778 28.444444-28.444444V-14.222222h62.577778v91.022222c0 17.066667 11.377778 28.444444 28.444444 28.444444s28.444444-11.377778 28.444445-28.444444v-119.466667c0-17.066667-11.377778-28.444444-28.444445-28.444444H426.666667z m91.022222 517.688889c0 17.066667 11.377778 28.444444 28.444444 28.444444s28.444444-11.377778 28.444445-28.444444v-182.044445c0-17.066667-11.377778-28.444444-28.444445-28.444444s-28.444444 11.377778-28.444444 28.444444V446.577778z m0 329.955555h-56.888889v-91.022222c0-17.066667-11.377778-28.444444-28.444444-28.444444S398.222222 668.444444 398.222222 685.511111V810.666667c0 17.066667 11.377778 28.444444 28.444445 28.444444h119.466666c17.066667 0 28.444444-11.377778 28.444445-28.444444v-182.044445c0-17.066667-11.377778-28.444444-28.444445-28.444444s-28.444444 11.377778-28.444444 28.444444V776.533333z m-56.888889-455.111111c0-17.066667-11.377778-28.444444-28.444444-28.444444s-34.133333 11.377778-34.133334 28.444444V503.466667c0 17.066667 11.377778 28.444444 28.444445 28.444444s28.444444-11.377778 28.444444-28.444444v-182.044445z"  horiz-adv-x="1024" />

    
    <glyph glyph-name="ico-movetool-JscJTA" unicode="&#58984;" d="M557.511111 679.822222h96.711111c17.066667 0 22.755556 11.377778 11.377778 22.755556L546.133333 827.733333c-11.377778 11.377778-28.444444 11.377778-34.133333 0L392.533333 702.577778c-11.377778-11.377778-5.688889-22.755556 5.688889-22.755556h96.711111v-227.555555h-227.555555V554.666667c0 17.066667-11.377778 22.755556-22.755556 11.377777L125.155556 446.577778c-11.377778-11.377778-11.377778-28.444444 0-34.133334l125.155555-119.466666c11.377778-11.377778 22.755556-5.688889 22.755556 11.377778V401.066667h227.555555v-227.555556H403.911111c-17.066667 0-22.755556-11.377778-11.377778-22.755555L512 25.6c11.377778-11.377778 22.755556-11.377778 34.133333 0l119.466667 130.844444c11.377778 11.377778 5.688889 22.755556-11.377778 22.755556H557.511111v227.555556h227.555556v-96.711112c0-17.066667 11.377778-22.755556 22.755555-11.377777l125.155556 119.466666c11.377778 11.377778 11.377778 28.444444 0 34.133334l-125.155556 119.466666c-11.377778 11.377778-22.755556 5.688889-22.755555-11.377777v-96.711112h-227.555556V679.822222z"  horiz-adv-x="1024" />

    
    <glyph glyph-name="ico-menucommand-sOx" unicode="&#58985;" d="M56.888889 696.888889c0 17.066667 11.377778 28.444444 28.444444 28.444444h796.444445c17.066667 0 28.444444-11.377778 28.444444-28.444444s-11.377778-28.444444-28.444444-28.444445h-796.444445c-17.066667 0-28.444444 11.377778-28.444444 28.444445zM56.888889 128c0 17.066667 11.377778 28.444444 28.444444 28.444444h796.444445c17.066667 0 28.444444-11.377778 28.444444-28.444444s-11.377778-28.444444-28.444444-28.444444h-796.444445c-17.066667 0-28.444444 11.377778-28.444444 28.444444zM56.888889 412.444444c0 17.066667 11.377778 28.444444 28.444444 28.444445h796.444445c17.066667 0 28.444444-11.377778 28.444444-28.444445s-11.377778-28.444444-28.444444-28.444444h-796.444445c-17.066667 0-28.444444 11.377778-28.444444 28.444444z"  horiz-adv-x="1024" />

    
    <glyph glyph-name="ico-marqueexor-_SjRi" unicode="&#58986;" d="M398.222222 497.777778h512v-512H398.222222V497.777778z m568.888889 0c0 34.133333-22.755556 56.888889-56.888889 56.888889H398.222222c-34.133333 0-56.888889-22.755556-56.888889-56.888889v-512c0-34.133333 22.755556-56.888889 56.888889-56.888889h512c34.133333 0 56.888889 22.755556 56.888889 56.888889V497.777778zM113.777778 782.222222v-512h227.555555V497.777778c0 34.133333 22.755556 56.888889 56.888889 56.888889h227.555556V782.222222H113.777778zM398.222222 213.333333v-227.555555h512V497.777778h-227.555555v-227.555556c0-34.133333-22.755556-56.888889-56.888889-56.888889H398.222222zM625.777778 497.777778v-227.555556H398.222222V497.777778h227.555556zM113.777778 782.222222h512v-227.555555H398.222222c-34.133333 0-56.888889-22.755556-56.888889-56.888889v-227.555556H113.777778V782.222222z m284.444444-568.888889h227.555556c34.133333 0 56.888889 22.755556 56.888889 56.888889V497.777778h227.555555v-512H398.222222v227.555555z m284.444445 568.888889c0 34.133333-22.755556 56.888889-56.888889 56.888889H113.777778c-34.133333 0-56.888889-22.755556-56.888889-56.888889v-512c0-34.133333 22.755556-56.888889 56.888889-56.888889h227.555555v-227.555555c0-34.133333 22.755556-56.888889 56.888889-56.888889h512c34.133333 0 56.888889 22.755556 56.888889 56.888889V497.777778c0 34.133333-22.755556 56.888889-56.888889 56.888889h-227.555555V782.222222z"  horiz-adv-x="1024" />

    
    <glyph glyph-name="ico-newdocument-AiB" unicode="&#58987;" d="M147.911111 748.088889h728.177778v-728.177778H512V384H147.911111V748.088889z m0-455.111111h273.066667v-273.066667l-273.066667 273.066667zM102.4 839.111111c-28.444444 0-45.511111-17.066667-45.511111-45.511111v-500.622222L420.977778-71.111111h500.622222c28.444444 0 45.511111 17.066667 45.511111 45.511111V793.6c0 28.444444-17.066667 45.511111-45.511111 45.511111H102.4zM147.911111 748.088889h728.177778v-728.177778H512V384H147.911111V748.088889z"  horiz-adv-x="1024" />

    
    <glyph glyph-name="ico-marqueesubtract-" unicode="&#58988;" d="M625.777778 554.666667H398.222222c-34.133333 0-56.888889-22.755556-56.888889-56.888889v-227.555556H113.777778V782.222222h512v-227.555555z m56.888889 227.555555c0 34.133333-22.755556 56.888889-56.888889 56.888889H113.777778c-34.133333 0-56.888889-22.755556-56.888889-56.888889v-512c0-34.133333 22.755556-56.888889 56.888889-56.888889h284.444444V497.777778h284.444445V782.222222zM967.111111 497.777778c0 34.133333-22.755556 56.888889-56.888889 56.888889h-227.555555v-56.888889h227.555555v-512H398.222222v227.555555H341.333333v-227.555555c0-34.133333 22.755556-56.888889 56.888889-56.888889h512c34.133333 0 56.888889 22.755556 56.888889 56.888889V497.777778zM625.777778 554.666667H398.222222c-34.133333 0-56.888889-22.755556-56.888889-56.888889v-227.555556H113.777778V782.222222h512v-227.555555z"  horiz-adv-x="1024" />

    
    <glyph glyph-name="ico-paintbrushtool-" unicode="&#58989;" d="M483.555556 355.555556c-5.688889-11.377778 0-17.066667 5.688888-22.755556 45.511111-5.688889 96.711111-62.577778 108.088889-96.711111 0-11.377778 11.377778-11.377778 17.066667-5.688889 130.844444 153.6 398.222222 512 341.333333 551.822222-56.888889 34.133333-341.333333-273.066667-472.177777-426.666666zM494.933333 36.977778c51.2 79.644444 56.888889 147.911111-17.066666 204.8s-176.355556 22.755556-227.555556-56.888889c-102.4-153.6 0-187.733333-136.533333-267.377778 199.111111-17.066667 329.955556 39.822222 381.155555 119.466667z"  horiz-adv-x="1024" />

    
    <glyph glyph-name="ico-panel-qhtrc" unicode="&#58990;" d="M341.333333 156.444444h512v-56.888888H341.333333zM170.666667 384h113.777777v-56.888889H170.666667zM170.666667 156.444444h113.777777v-56.888888H170.666667zM170.666667 270.222222h113.777777v-56.888889H170.666667zM170.666667 497.777778h113.777777v-56.888889H170.666667zM341.333333 270.222222h512v-56.888889H341.333333zM341.333333 497.777778h512v-56.888889H341.333333zM341.333333 384h512v-56.888889H341.333333zM938.666667 839.111111h-853.333334c-17.066667 0-28.444444-11.377778-28.444444-28.444444v-853.333334c0-17.066667 11.377778-28.444444 28.444444-28.444444h853.333334c17.066667 0 28.444444 11.377778 28.444444 28.444444v853.333334c0 17.066667-11.377778 28.444444-28.444444 28.444444zM910.222222-14.222222H113.777778V782.222222h278.755555L455.111111 611.555556h455.111111v-625.777778z m0 682.666666H483.555556l-39.822223 113.777778H910.222222v-113.777778zM443.733333 782.222222l39.822223-113.777778H910.222222V782.222222z"  horiz-adv-x="1024" />

    
    <glyph glyph-name="ico-marqueesinglerow" unicode="&#58991;" d="M768 270.222222c-17.066667 0-28.444444 11.377778-28.444444 28.444445s11.377778 28.444444 28.444444 28.444444H910.222222V384h-85.333333c-17.066667 0-28.444444 11.377778-28.444445 28.444444s11.377778 28.444444 28.444445 28.444445h113.777778c17.066667 0 28.444444-11.377778 28.444444-28.444445v-113.777777c0-17.066667-11.377778-28.444444-28.444444-28.444445h-170.666667zM398.222222 412.444444c0 17.066667 11.377778 28.444444 28.444445 28.444445h227.555555c17.066667 0 28.444444-11.377778 28.444445-28.444445s-11.377778-28.444444-28.444445-28.444444h-227.555555c-17.066667 0-28.444444 11.377778-28.444445 28.444444z m227.555556-113.777777c0-17.066667-11.377778-28.444444-28.444445-28.444445h-227.555555c-17.066667 0-28.444444 11.377778-28.444445 28.444445s11.377778 28.444444 28.444445 28.444444h227.555555c17.066667 0 28.444444-11.377778 28.444445-28.444444zM113.777778 327.111111h85.333333c17.066667 0 28.444444-11.377778 28.444445-28.444444s-11.377778-28.444444-28.444445-28.444445h-113.777778c-17.066667 0-28.444444 11.377778-28.444444 28.444445v113.777777c0 17.066667 11.377778 28.444444 28.444444 28.444445h170.666667c17.066667 0 28.444444-11.377778 28.444444-28.444445s-11.377778-28.444444-28.444444-28.444444H113.777778v-56.888889z"  horiz-adv-x="1024" />

    
    <glyph glyph-name="ico-pathcomponentsel" unicode="&#58992;" d="M335.644444 822.044444C307.2 850.488889 284.444444 839.111111 284.444444 799.288889V42.666667c0-39.822222 22.755556-45.511111 45.511112-17.066667l170.666666 199.111111 119.466667-284.444444c5.688889-11.377778 22.755556-17.066667 39.822222-11.377778l51.2 28.444444c11.377778 5.688889 17.066667 22.755556 11.377778 39.822223l-119.466667 284.444444h227.555556c39.822222 0 51.2 22.755556 22.755555 51.2L335.644444 822.044444z"  horiz-adv-x="1024" />

    
    </font>
</defs>
</svg>
