<?xml version="1.0" standalone="no"?><!DOCTYPE svg PUBLIC "-//W3C//DTD SVG 1.1//EN" "http://www.w3.org/Graphics/SVG/1.1/DTD/svg11.dtd"><svg class="icon" height="512" viewBox="0 0 1024 1024" version="1.1" xmlns="http://www.w3.org/2000/svg"><path d="M902 234.5s0 27.9 27.9 27.9 27.9-27.9 27.9-27.9V178.4c0-61.5-57-111.3-127.4-111.3H192.8c-70.2 0-127.4 49.8-127.4 111.3v56.1s0 27.9 27.9 27.9 27.9-27.9 27.9-27.9V178.4c0-28.8 30.6-55.5 71.6-55.5h637.6c41.1 0 71.6 26.6 71.6 55.5v56.1z" fill="#5E676F" /><path d="M176.9 290.2c0-61.6 49.8-111.5 111.3-111.5H735c61.5 0 111.3 50 111.3 111.5v557.9c0 61.6-49.8 111.5-111.3 111.5H288.2c-61.5 0-111.3-50-111.3-111.5V290.2z" fill="#5E676F" /><path d="M232.7 290.2v557.9c0 30.7 24.9 55.7 55.5 55.7H735c30.7 0 55.5-24.9 55.5-55.7V290.2c0-30.7-24.9-55.7-55.5-55.7H288.2c-30.6 0-55.5 24.9-55.5 55.7z" fill="#FFFFFF" /><path d="M344.3 806.2c0-23.2 19-41.8 42.1-41.8h250.4c23.1 0 42.1 18.8 42.1 41.8 0 23.2-19 41.8-42.1 41.8H386.4c-23.2 0-42.1-18.8-42.1-41.8zM692.8 374c-23.1 0-41.8-18.7-41.8-41.8 0-23.1 18.7-41.8 41.8-41.8s41.8 18.7 41.8 41.8c0.1 23-18.7 41.8-41.8 41.8zM511.6 652.8c-77 0-139.4-62.4-139.4-139.4S434.6 374 511.6 374 651 436.4 651 513.4s-62.4 139.4-139.4 139.4z" fill="#5E676F" /><path d="M692.8 346.1c7.7 0 13.9-6.2 13.9-13.9s-6.2-13.9-13.9-13.9-13.9 6.2-13.9 13.9c0 7.6 6.2 13.9 13.9 13.9zM372.1 806.2c0 7.5 6.4 13.9 14.2 13.9h250.4c7.9 0 14.2-6.2 14.2-13.9 0-7.5-6.4-13.9-14.2-13.9H386.4c-7.9 0-14.3 6.2-14.3 13.9zM511.6 624.9c61.6 0 111.5-49.9 111.5-111.5s-49.9-111.5-111.5-111.5S400 451.8 400 513.4s50 111.5 111.6 111.5z" fill="#FFFFFF" /><path d="M511.6 569.2c-30.8 0-55.8-25-55.8-55.8s25-55.8 55.8-55.8c30.8 0 55.8 25 55.8 55.8s-25 55.8-55.8 55.8z" fill="#5E676F" /><path d="M511.6 541.3c15.4 0 27.9-12.5 27.9-27.9 0-15.4-12.5-27.9-27.9-27.9-15.4 0-27.9 12.5-27.9 27.9 0 15.4 12.5 27.9 27.9 27.9z" fill="#FFFFFF" /></svg>